<?xml version="1.0" encoding="utf-8"?>
<!-- Generator: Adobe Illustrator 16.0.0, SVG Export Plug-In . SVG Version: 6.00 Build 0)  -->
<!DOCTYPE svg PUBLIC "-//W3C//DTD SVG 1.1//EN" "http://www.w3.org/Graphics/SVG/1.1/DTD/svg11.dtd">
<svg version="1.1" id="Layer_1" xmlns="http://www.w3.org/2000/svg" xmlns:xlink="http://www.w3.org/1999/xlink" x="0px" y="0px"
	 width="1024px" height="1024px" viewBox="0 0 1024 1024" enable-background="new 0 0 1024 1024" xml:space="preserve">
<g id="Banana_Coins_1_">
	<g>
		<g>
			<path fill="#EED5BB" d="M521.753,544.337v26.813c-1.074,4.652,0.035,11.238-6.449,15.105c-7.13,3.578-13.532,8.168-19.868,13.125
				c-6.441,4.941-17.102,7.645-28.941,9.125c-14.297,0.406-19.758,4.082-34.543,2.605c-15.039-1.594-21.27-0.242-33.508-2.809
				c-11.477-2.273-20.422-4.637-29.91-8.922c-8.152-3.594-16.66-8.965-19.418-13.023c0.027-2.855-5.117-9.316-6.902-15.207
				c-0.102-0.43-0.137-0.809-0.184-1.215v-27.141c0,0.504,0.047,1.023,0.184,1.543c1.125,3.816,3.723,7.887,5.375,11.012
				c0.93,1.719,1.527,3.16,1.527,4.172c2.758,4.07,11.266,9.43,19.418,13.059c9.488,4.246,18.434,6.598,29.91,8.871
				c12.238,2.582,18.469,1.215,33.508,2.809c14.785,1.465,20.246-2.211,34.543-2.59c11.84-1.492,22.5-4.148,28.941-9.09
				c6.336-4.996,12.738-9.582,19.868-13.137c0.492-0.328,0.938-0.633,1.367-0.973C521.612,554.552,520.765,548.61,521.753,544.337z"
				/>
			
				<line fill="none" stroke="#CFA686" stroke-width="0.1557" stroke-miterlimit="10" x1="349.115" y1="559.521" x2="349.115" y2="586.356"/>
			
				<line fill="none" stroke="#CFA686" stroke-width="0.1557" stroke-miterlimit="10" x1="424.631" y1="583.665" x2="424.631" y2="610.501"/>
			
				<line fill="none" stroke="#CFA686" stroke-width="0.1557" stroke-miterlimit="10" x1="499.615" y1="569.353" x2="499.615" y2="596.153"/>
			<path fill="none" stroke="#010101" stroke-width="0.2738" stroke-miterlimit="10" d="M521.753,544.337v26.813
				c-1.074,4.652,0.035,11.238-6.449,15.105c-7.13,3.578-13.532,8.168-19.868,13.125c-6.441,4.941-17.102,7.645-28.941,9.125
				c-14.297,0.406-19.758,4.082-34.543,2.605c-15.039-1.594-21.27-0.242-33.508-2.809c-11.477-2.273-20.422-4.637-29.91-8.922
				c-8.152-3.594-16.66-8.965-19.418-13.023c0.027-2.855-5.117-9.316-6.902-15.207c-0.102-0.43-0.137-0.809-0.184-1.215v-27.141
				c0,0.504,0.047,1.023,0.184,1.543c1.125,3.816,3.723,7.887,5.375,11.012c0.93,1.719,1.527,3.16,1.527,4.172
				c2.758,4.07,11.266,9.43,19.418,13.059c9.488,4.246,18.434,6.598,29.91,8.871c12.238,2.582,18.469,1.215,33.508,2.809
				c14.785,1.465,20.246-2.211,34.543-2.59c11.84-1.492,22.5-4.148,28.941-9.09c6.336-4.996,12.738-9.582,19.868-13.137
				c0.492-0.328,0.938-0.633,1.367-0.973C521.612,554.552,520.765,548.61,521.753,544.337z"/>
			<path fill="#F4EFC5" stroke="#010101" stroke-width="0.2738" stroke-miterlimit="10" d="M521.753,544.337
				c-0.988,4.273-0.141,10.215-5.082,14.133c-0.43,0.34-0.875,0.645-1.367,0.973c-7.13,3.555-13.532,8.141-19.868,13.137
				c-6.441,4.941-17.102,7.598-28.941,9.09c-14.297,0.379-19.758,4.055-34.543,2.59c-15.039-1.594-21.27-0.227-33.508-2.809
				c-11.477-2.273-20.422-4.625-29.91-8.871c-8.152-3.629-16.66-8.988-19.418-13.059c0-1.012-0.598-2.453-1.527-4.172
				c-1.652-3.125-4.25-7.195-5.375-11.012c-0.137-0.52-0.184-1.039-0.184-1.543v-0.367c0.266-4.602,5.164-7.863,5.426-13.715
				c3.375-5.285,11.535-9.039,21.078-12.629c8.977-3.77,12.441-9.723,29.203-8.977c13.168-0.871,22.488-2.832,34.215-2.719
				c5.914-2.527,26.363,2.48,34.816,3.363c9.879,1.516,18.992,3.996,28.668,8.332c7.441,3.324,14.102,7.863,18.325,12.59
				C520.097,534.349,519.843,538.368,521.753,544.337z"/>
		</g>
		<g>
			<linearGradient id="SVGID_1_" gradientUnits="userSpaceOnUse" x1="332.5879" y1="545.1367" x2="512.1621" y2="545.1367">
				<stop  offset="0" style="stop-color:#E6C7A7"/>
				<stop  offset="0.0806" style="stop-color:#E7CEB4"/>
				<stop  offset="0.2154" style="stop-color:#E7D7C4"/>
				<stop  offset="0.3564" style="stop-color:#E8DCCE"/>
				<stop  offset="0.512" style="stop-color:#E8DED1"/>
				<stop  offset="0.6384" style="stop-color:#E7DCCE"/>
				<stop  offset="0.7595" style="stop-color:#E4D5C3"/>
				<stop  offset="0.8786" style="stop-color:#E0CAB2"/>
				<stop  offset="0.9958" style="stop-color:#D9BB9B"/>
				<stop  offset="1" style="stop-color:#D9BB9A"/>
			</linearGradient>
			<path fill="url(#SVGID_1_)" d="M512.162,506.271v36.688c-0.059,4.777-2.543,10.125-7.098,14.867
				c-4.547,6.066-11.102,8.887-19.223,13.73c-8.133,2.98-17.816,8.063-28.527,8.758c-10.758,0.305-22.551,1.52-34.957,3.109
				c-12.371,1.469-24.18,0-34.949-2.73c-10.719-4.297-20.418-3.363-28.48-9.137c-8.141-5.895-14.695-6.953-19.254-12.656
				c-4.527-5.309-7.086-9.848-7.086-15.941v-36.688c0,6.043,2.559,10.633,7.086,15.879c1.074,1.34,2.199,2.379,3.426,3.324
				c4.164,3.137,9.543,4.781,15.828,9.383c8.063,5.727,17.762,4.84,28.48,9.113c10.77,2.758,22.578,4.184,34.949,2.707
				c12.406-1.555,24.199-2.77,34.957-3.074c10.711-0.684,20.395-5.766,28.527-8.746c6.332-3.77,11.625-6.285,15.82-10.09
				c1.266-1.086,2.352-2.289,3.402-3.691C509.619,516.384,512.104,510.989,512.162,506.271z"/>
			
				<line fill="none" stroke="#CFA686" stroke-width="0.1557" stroke-miterlimit="10" x1="355.186" y1="532.376" x2="355.186" y2="569.013"/>
			
				<line fill="none" stroke="#CFA686" stroke-width="0.1557" stroke-miterlimit="10" x1="444.322" y1="544.325" x2="444.322" y2="581.071"/>
			
				<line fill="none" stroke="#CFA686" stroke-width="0.1557" stroke-miterlimit="10" x1="507.705" y1="554.677" x2="507.705" y2="518.271"/>
			<path fill="none" stroke="#010101" stroke-width="0.2754" stroke-miterlimit="10" d="M512.162,506.271v36.688
				c-0.059,4.777-2.543,10.125-7.098,14.867c-4.547,6.066-11.102,8.887-19.223,13.73c-8.133,2.98-17.816,8.063-28.527,8.758
				c-10.758,0.305-22.551,1.52-34.957,3.109c-12.371,1.469-24.18,0-34.949-2.73c-10.719-4.297-20.418-3.363-28.48-9.137
				c-8.141-5.895-14.695-6.953-19.254-12.656c-4.527-5.309-7.086-9.848-7.086-15.941v-36.688c0,6.043,2.559,10.633,7.086,15.879
				c1.074,1.34,2.199,2.379,3.426,3.324c4.164,3.137,9.543,4.781,15.828,9.383c8.063,5.727,17.762,4.84,28.48,9.113
				c10.77,2.758,22.578,4.184,34.949,2.707c12.406-1.555,24.199-2.77,34.957-3.074c10.711-0.684,20.395-5.766,28.527-8.746
				c6.332-3.77,11.625-6.285,15.82-10.09c1.266-1.086,2.352-2.289,3.402-3.691C509.619,516.384,512.104,510.989,512.162,506.271z"/>
			<path fill="#F4EFC5" stroke="#010101" stroke-width="0.2754" stroke-miterlimit="10" d="M512.162,506.271
				c-0.059,4.719-2.543,10.113-7.098,14.805c-1.051,1.402-2.137,2.605-3.402,3.691c-4.195,3.805-9.488,6.32-15.82,10.09
				c-8.133,2.98-17.816,8.063-28.527,8.746c-10.758,0.305-22.551,1.52-34.957,3.074c-12.371,1.477-24.18,0.051-34.949-2.707
				c-10.719-4.273-20.418-3.387-28.48-9.113c-6.285-4.602-11.664-6.246-15.828-9.383c-1.227-0.945-2.352-1.984-3.426-3.324
				c-4.527-5.246-7.086-9.836-7.086-15.879c0-5.18,2.559-11.703,7.086-15.523c4.5-2.02,11.113-8.305,19.254-13.082
				c8.063-4.488,17.762-4.844,28.48-9.496c10.77-2.703,22.578-2.793,34.984-2.336c12.371,0.164,24.164-2.984,34.922,2.895
				c10.758,3.539,20.395,5.094,28.527,8.938c8.121,0.09,14.676,10.176,19.223,13.5C509.619,495.399,512.104,500.091,512.162,506.271
				z"/>
		</g>
		<g>
			<linearGradient id="SVGID_2_" gradientUnits="userSpaceOnUse" x1="345.666" y1="505.6143" x2="527.3311" y2="505.6143">
				<stop  offset="0" style="stop-color:#E6C7A7"/>
				<stop  offset="0.0806" style="stop-color:#E7CEB4"/>
				<stop  offset="0.2154" style="stop-color:#E7D7C4"/>
				<stop  offset="0.3564" style="stop-color:#E8DCCE"/>
				<stop  offset="0.512" style="stop-color:#E8DED1"/>
				<stop  offset="0.6384" style="stop-color:#E7DCCE"/>
				<stop  offset="0.7595" style="stop-color:#E4D5C3"/>
				<stop  offset="0.8786" style="stop-color:#E0CAB2"/>
				<stop  offset="0.9958" style="stop-color:#D9BB9B"/>
				<stop  offset="1" style="stop-color:#D9BB9A"/>
			</linearGradient>
			<path fill="url(#SVGID_2_)" d="M527.331,471.419v30.504c0,3.793-7.508,10.277-9.195,13.336
				c-3.387,4.387-8.962,8.473-18.642,12.797c-7.453,3.348-17.664,6.332-28.309,8.191c-12.762,2.816-21.809,2.715-35.176,3.563
				c-10.41-0.453-25.223,0.063-33.906-2.883c-8.078-3.172-18.348-6.027-29.582-8.871c-11.035-2.859-17.133-7.637-20.461-12.945
				c-0.617-4.816-5.48-7.383-6.395-11.176v-30.719c0.953,3.766,5.777,6.359,6.395,11.176c0.102,0.148,0.242,0.34,0.379,0.492
				c3.359,5.066,9.395,9.605,20.082,12.414c11.234,2.832,21.504,5.688,29.582,8.887c8.684,2.906,23.496,2.402,33.906,2.867
				c13.367-0.809,22.414-0.707,35.176-3.563c10.645-1.859,20.855-4.855,28.309-8.191c9.68-4.313,15.255-8.406,18.642-12.781
				c0.324-0.605,0.855-1.328,1.555-2.137C522.366,479.142,527.03,474.493,527.331,471.419z"/>
			
				<line fill="none" stroke="#CFA686" stroke-width="0.1557" stroke-linejoin="round" stroke-miterlimit="10" x1="352.061" y1="484.392" x2="352.061" y2="515.11"/>
			
				<line fill="none" stroke="#CFA686" stroke-width="0.1557" stroke-linejoin="round" stroke-miterlimit="10" x1="436.01" y1="509.052" x2="436.01" y2="539.81"/>
			
				<line fill="none" stroke="#CFA686" stroke-width="0.1557" stroke-linejoin="round" stroke-miterlimit="10" x1="518.136" y1="484.517" x2="518.136" y2="515.259"/>
			<path fill="none" stroke="#010101" stroke-width="0.2744" stroke-linejoin="round" stroke-miterlimit="10" d="M527.331,471.419
				v30.504c0,3.793-7.508,10.277-9.195,13.336c-3.387,4.387-8.962,8.473-18.642,12.797c-7.453,3.348-17.664,6.332-28.309,8.191
				c-12.762,2.816-21.809,2.715-35.176,3.563c-10.41-0.453-25.223,0.063-33.906-2.883c-8.078-3.172-18.348-6.027-29.582-8.871
				c-11.035-2.859-17.133-7.637-20.461-12.945c-0.617-4.816-5.48-7.383-6.395-11.176v-30.719c0.953,3.766,5.777,6.359,6.395,11.176
				c0.102,0.148,0.242,0.34,0.379,0.492c3.359,5.066,9.395,9.605,20.082,12.414c11.234,2.832,21.504,5.688,29.582,8.887
				c8.684,2.906,23.496,2.402,33.906,2.867c13.367-0.809,22.414-0.707,35.176-3.563c10.645-1.859,20.855-4.855,28.309-8.191
				c9.68-4.313,15.255-8.406,18.642-12.781c0.324-0.605,0.855-1.328,1.555-2.137C522.366,479.142,527.03,474.493,527.331,471.419z"
				/>
			<path fill="#F4EFC5" stroke="#010101" stroke-width="0.2744" stroke-linejoin="round" stroke-miterlimit="10" d="
				M527.331,471.419c-0.301,3.074-4.965,7.723-7.641,10.961c-0.699,0.809-1.23,1.531-1.555,2.137
				c-3.387,4.375-8.962,8.469-18.642,12.781c-7.453,3.336-17.664,6.332-28.309,8.191c-12.762,2.855-21.809,2.754-35.176,3.563
				c-10.41-0.465-25.223,0.039-33.906-2.867c-8.078-3.199-18.348-6.055-29.582-8.887c-10.688-2.809-16.723-7.348-20.082-12.414
				c-0.137-0.152-0.277-0.344-0.379-0.492c-0.617-4.816-5.441-7.41-6.395-11.176v-0.039c-0.344-1.25-0.215-2.617,0.574-4.234
				c3.566-6.727,0.512-9.508,6.332-14.969c5.082-5.172,10.461-9.125,19.949-13.398c8.148-3.629,20.246-7.434,29.355-8.621
				c6.414,0,20.902-2.352,34.133-3.141c12.816-0.555,20.207,2.242,35.086,2.344c11.82,1.516,20.328,5.207,28.398,9.418
				c8.504,4.043,21.763,5.563,20.142,13.07c2.047,5.918,6.402,10.074,6.141,15.297C526.991,469.524,527.401,470.372,527.331,471.419
				z"/>
		</g>
		<g>
			<linearGradient id="SVGID_3_" gradientUnits="userSpaceOnUse" x1="327.0962" y1="461.6025" x2="509.3926" y2="461.6025">
				<stop  offset="0" style="stop-color:#E6C7A7"/>
				<stop  offset="0.0806" style="stop-color:#E7CEB4"/>
				<stop  offset="0.2154" style="stop-color:#E7D7C4"/>
				<stop  offset="0.3564" style="stop-color:#E8DCCE"/>
				<stop  offset="0.512" style="stop-color:#E8DED1"/>
				<stop  offset="0.6384" style="stop-color:#E7DCCE"/>
				<stop  offset="0.7595" style="stop-color:#E4D5C3"/>
				<stop  offset="0.8786" style="stop-color:#E0CAB2"/>
				<stop  offset="0.9958" style="stop-color:#D9BB9B"/>
				<stop  offset="1" style="stop-color:#D9BB9A"/>
			</linearGradient>
			<path fill="url(#SVGID_3_)" d="M509.393,437.591v28.52c-0.188,2.402-1.992,4.727-7.957,6.926
				c-7.914,4.816-11.348,9.117-19.859,12.781c-0.172,3.656-22.59,6.586-30.039,8.598c-9.316,2.074-19.73,3.199-33.43,3.199
				c-10.5,0-22.457-1.125-32.977-3.199c-13.523-2.012-19.707-4.941-30.527-8.598c-6.586-3.664-17.852-7.965-19.398-12.781
				c-0.641-4.789-3.371-10.098-6.863-15.66c-0.957-1.621-1.367-3.211-1.215-4.793v-26.992c0.082,1.238,0.449,2.457,1.215,3.746
				c2.73,4.297,4.949,8.457,6.074,12.363c0.371,1.137,0.645,2.223,0.789,3.297c1.547,4.816,12.813,9.141,19.398,12.77
				c10.82,3.652,17.004,6.586,30.527,8.621c10.52,2.047,22.477,3.188,32.977,3.188c13.699,0,24.113-1.141,33.43-3.188
				c7.449-2.035,29.867-4.969,30.039-8.621c8.512-3.629,11.945-7.953,19.859-12.77c1.238-0.441,2.273-0.922,3.18-1.375
				C508.389,441.673,509.393,439.638,509.393,437.591z"/>
			
				<line fill="none" stroke="#CFA686" stroke-width="0.1557" stroke-miterlimit="10" x1="334.416" y1="441.7" x2="334.416" y2="468.739"/>
			
				<line fill="none" stroke="#CFA686" stroke-width="0.1557" stroke-miterlimit="10" x1="385.131" y1="466.388" x2="385.131" y2="494.415"/>
			
				<line fill="none" stroke="#CFA686" stroke-width="0.1557" stroke-miterlimit="10" x1="481.576" y1="457.767" x2="481.576" y2="485.817"/>
			<path fill="none" stroke="#010101" stroke-width="0.2747" stroke-miterlimit="10" d="M509.393,437.591v28.52
				c-0.188,2.402-1.992,4.727-7.957,6.926c-7.914,4.816-11.348,9.117-19.859,12.781c-0.172,3.656-22.59,6.586-30.039,8.598
				c-9.316,2.074-19.73,3.199-33.43,3.199c-10.5,0-22.457-1.125-32.977-3.199c-13.523-2.012-19.707-4.941-30.527-8.598
				c-6.586-3.664-17.852-7.965-19.398-12.781c-0.641-4.789-3.371-10.098-6.863-15.66c-0.957-1.621-1.367-3.211-1.215-4.793v-26.992
				c0.082,1.238,0.449,2.457,1.215,3.746c2.73,4.297,4.949,8.457,6.074,12.363c0.371,1.137,0.645,2.223,0.789,3.297
				c1.547,4.816,12.813,9.141,19.398,12.77c10.82,3.652,17.004,6.586,30.527,8.621c10.52,2.047,22.477,3.188,32.977,3.188
				c13.699,0,24.113-1.141,33.43-3.188c7.449-2.035,29.867-4.969,30.039-8.621c8.512-3.629,11.945-7.953,19.859-12.77
				c1.238-0.441,2.273-0.922,3.18-1.375C508.389,441.673,509.393,439.638,509.393,437.591z"/>
			<path fill="#F4EFC5" stroke="#010101" stroke-width="0.2747" stroke-miterlimit="10" d="M509.393,437.2v0.391
				c0,2.047-1.004,4.082-4.777,6.031c-0.906,0.453-1.941,0.934-3.18,1.375c-7.914,4.816-11.348,9.141-19.859,12.77
				c-0.172,3.652-22.59,6.586-30.039,8.621c-9.316,2.047-19.73,3.188-33.43,3.188c-10.5,0-22.457-1.141-32.977-3.188
				c-13.523-2.035-19.707-4.969-30.527-8.621c-6.586-3.629-17.852-7.953-19.398-12.77c-0.145-1.074-0.418-2.16-0.789-3.297
				c-1.125-3.906-3.344-8.066-6.074-12.363c-0.766-1.289-1.133-2.508-1.215-3.746c-0.449-4.18,2.559-8.168,7.207-11.879
				c9.535-4.82,7.539-9.176,20.309-12.816c13.16-3.637,15.41-6.582,28.137-8.617c11.777-2.008,21.867-3.184,35.328-3.184
				c11.484,0,26.012,1.137,34.473,3.184c4.457,2.035,18.434,4.98,28.996,8.617c9.984,3.641,10.77,7.996,21.098,12.816
				c5.969,4.801,6.227,10.07,5.184,15.625C507.705,432.017,509.26,434.646,509.393,437.2z"/>
		</g>
		<g>
			<g>
				<path fill="#A7825F" d="M364.445,430.873c15.272-10.673,17.981-15.552,22.551-25.888c2.959,13.714,5.378,14.494,16.567,18.103
					c1.131,0.365,2.352,0.758,3.672,1.198c-3.898-0.228-7.247-0.339-10.208-0.339C383.94,423.946,376.827,426.062,364.445,430.873z
					 M386.141,412.056c-2.85,5.195-6.318,9.106-12.371,13.95l-0.578,0.463l0.708-0.216c7.55-2.304,14.242-3.244,23.099-3.244
					c0.283,0,0.572,0.006,0.865,0.013c0.302,0.007,0.607,0.014,0.913,0.014h0.857l-0.812-0.276
					c-7.43-2.528-10.266-4.427-12.423-10.682l-0.104-0.303L386.141,412.056z"/>
				<path fill="#F1D089" d="M386.95,405.439c2.946,13.39,5.698,14.276,16.57,17.783c0.822,0.265,1.709,0.551,2.651,0.86
					c-3.447-0.187-6.454-0.278-9.144-0.278c-12.725,0-19.81,1.996-31.551,6.517C379.754,420.222,382.568,415.315,386.95,405.439
					 M372.525,426.82l1.417-0.432c7.535-2.3,14.215-3.238,23.058-3.238c0.282,0,0.57,0.007,0.861,0.014
					c0.303,0.007,0.609,0.014,0.916,0.014h1.715l-1.624-0.552c-7.38-2.512-10.197-4.395-12.334-10.594l-0.209-0.605l-0.309,0.562
					c-2.84,5.178-6.298,9.077-12.334,13.907L372.525,426.82 M387.043,404.527c-4.84,10.977-7.488,15.738-23.664,26.914
					c13.125-5.136,20.359-7.353,33.648-7.353c3.317,0,7.012,0.138,11.27,0.403C393.02,419.328,390.406,420.351,387.043,404.527
					L387.043,404.527z M373.859,426.117c6.531-5.227,9.758-9.164,12.406-13.992c2.219,6.434,5.234,8.293,12.512,10.77
					c-0.602,0-1.203-0.027-1.777-0.027C387.613,422.867,381.027,423.929,373.859,426.117L373.859,426.117z"/>
			</g>
			<path fill="#695049" d="M385.906,417.156c-1.504,2.02-3.223,3.922-5.359,5.891c3.598-0.684,7.219-1.094,11.227-1.266
				C389.18,420.542,387.336,419.152,385.906,417.156z"/>
			<path fill="#A7825F" d="M386.266,412.125c-2.648,4.828-5.875,8.766-12.406,13.992c7.168-2.188,13.754-3.25,23.141-3.25
				c0.574,0,1.176,0.027,1.777,0.027C391.5,420.417,388.484,418.558,386.266,412.125z M385.906,417.156
				c1.43,1.996,3.273,3.387,5.867,4.625c-4.008,0.172-7.629,0.582-11.227,1.266C382.684,421.078,384.402,419.175,385.906,417.156z"
				/>
			<g>
				<path fill="#A7825F" d="M444.032,449.594c-15.084-2.212-25.761-3.045-38.648-3.045c-6.89,0-14.634,0.242-24.915,0.779
					c17.844-3.716,31.734-7.349,36.037-15.249c0.356,0.9,0.644,1.737,0.9,2.483C419.471,440.569,420.28,442.926,444.032,449.594z
					 M405.449,445.606c8.795,0,16.437,0.38,24.778,1.233l1.231,0.126l-1.17-0.401c-10.63-3.646-13.123-6.041-14.691-10.031
					l-0.073-0.185l-0.151,0.128c-4.161,3.517-10.97,6.316-22.079,9.076l-1.306,0.325l1.345-0.045
					C397.889,445.68,401.853,445.606,405.449,445.606z"/>
				<path fill="#F1D089" d="M416.483,432.41c0.302,0.781,0.549,1.5,0.789,2.199c2.021,5.877,2.85,8.29,24.67,14.54
					c-13.995-1.986-24.272-2.742-36.558-2.742c-6.48,0-13.714,0.213-23.103,0.686C399.105,443.536,412.142,439.916,416.483,432.41
					 M390.647,446.064l2.69-0.09c4.554-0.152,8.516-0.227,12.112-0.227c8.791,0,16.428,0.38,24.764,1.233l2.461,0.252l-2.34-0.803
					c-11.501-3.944-13.25-6.5-14.605-9.949l-0.145-0.369l-0.302,0.256c-4.144,3.502-10.936,6.292-22.022,9.047L390.647,446.064
					 M416.523,431.742c-4.082,7.996-17.594,11.644-37.922,15.828c10.54-0.571,19.084-0.879,26.783-0.879
					c14.112,0,25.382,1.035,40.901,3.383C416.84,441.956,419.887,440.022,416.523,431.742L416.523,431.742z M393.328,445.69
					c9.605-2.387,17.395-5.098,22.137-9.105c1.484,3.777,3.684,6.309,14.777,10.113c-8.555-0.875-16.176-1.234-24.793-1.234
					C401.723,445.464,397.766,445.542,393.328,445.69L393.328,445.69z"/>
			</g>
			<path fill="#695049" d="M405.449,444.245c5.488,0,10.543,0.152,15.613,0.453c-3.512-1.668-5.48-3.223-6.773-5.016
				c-2.801,1.656-6.297,3.133-10.723,4.574C404.199,444.257,404.832,444.245,405.449,444.245z"/>
			<path fill="#A7825F" d="M415.465,436.585c-4.742,4.008-12.531,6.719-22.137,9.105c4.438-0.148,8.395-0.227,12.121-0.227
				c8.617,0,16.238,0.359,24.793,1.234C419.148,442.894,416.949,440.362,415.465,436.585z M414.289,439.683
				c1.293,1.793,3.262,3.348,6.773,5.016c-5.07-0.301-10.125-0.453-15.613-0.453c-0.617,0-1.25,0.012-1.883,0.012
				C407.992,442.815,411.488,441.339,414.289,439.683z"/>
			<g>
				<path fill="#A7825F" d="M471.561,429.649c-15.435-4.951-23.288-5.875-32.891-5.875c-2.746,0-5.597,0.076-8.898,0.163
					c-1.6,0.042-3.286,0.087-5.083,0.126c15.555-5.756,20.497-9.511,20.089-20.443c0.842,1.29,1.613,2.498,2.342,3.64
					C453.1,416.629,456.189,421.472,471.561,429.649z M438.688,422.845c7.08,0,13.278,0.437,22.295,2.613l0.79,0.19l-0.678-0.447
					c-7.135-4.703-10.439-8.61-14.377-14.611l-0.163-0.249l-0.091,0.283c-1.603,4.981-5.627,8.247-14.849,12.049l-0.699,0.289
					l1.372-0.028C434.563,422.887,436.667,422.845,438.688,422.845z"/>
				<path fill="#F1D089" d="M444.935,404.121c0.735,1.131,1.417,2.199,2.065,3.215c5.815,9.112,8.905,13.953,23.156,21.718
					c-14.504-4.555-22.174-5.423-31.487-5.423c-2.748,0-5.6,0.076-8.902,0.163c-1.347,0.036-2.756,0.073-4.241,0.107
					C440.298,418.369,445.171,414.567,444.935,404.121 M430.161,423.119l1.513-0.031l0.616-0.012
					c2.252-0.046,4.379-0.089,6.398-0.089c7.069,0,13.259,0.437,22.262,2.609l1.579,0.381l-1.356-0.894
					c-7.114-4.689-10.41-8.586-14.337-14.571l-0.326-0.496l-0.182,0.565c-1.588,4.936-5.591,8.178-14.768,11.961L430.161,423.119
					 M444.613,403.109c0.594,11.555-4.605,15.195-20.77,21.113c5.851-0.118,10.524-0.307,14.826-0.307
					c10.05,0,18.081,1.028,34.428,6.381C454.273,420.515,452.75,415.511,444.613,403.109L444.613,403.109z M431.668,422.804
					c8.641-3.563,13.227-6.844,14.93-12.137c3.668,5.59,6.98,9.75,14.418,14.652c-8.805-2.125-15.074-2.617-22.328-2.617
					C436.484,422.703,434.184,422.753,431.668,422.804L431.668,422.804z"/>
			</g>
			<path fill="#695049" d="M438.688,421.492c5.016,0,9.781,0.199,15.313,1.098c-2.883-2.363-5.051-4.688-7.059-7.313
				c-1.832,2.238-4.547,4.215-8.488,6.215C438.535,421.492,438.602,421.492,438.688,421.492z"/>
			<path fill="#A7825F" d="M446.598,410.667c-1.703,5.293-6.289,8.574-14.93,12.137c2.516-0.051,4.816-0.102,7.02-0.102
				c7.254,0,13.523,0.492,22.328,2.617C453.578,420.417,450.266,416.257,446.598,410.667z M454,422.589
				c-5.531-0.898-10.297-1.098-15.313-1.098c-0.086,0-0.152,0-0.234,0c3.941-2,6.656-3.977,8.488-6.215
				C448.949,417.902,451.117,420.226,454,422.589z"/>
		</g>
	</g>
	<g>
		<g>
			<path fill="#EED5BB" d="M691.364,556.613v26.816c-1.098,4.648,0.027,11.238-6.457,15.094
				c-7.133,3.602-13.555,8.176-19.863,13.145c-6.445,4.93-17.102,7.625-28.949,9.117c-14.297,0.379-19.758,4.07-34.535,2.602
				c-15.043-1.605-21.27-0.238-33.488-2.816c-11.504-2.266-20.48-4.641-29.961-8.902c-8.129-3.602-16.609-8.961-19.41-13.043
				c0.043-2.871-5.141-9.305-6.872-15.195c-0.125-0.434-0.176-0.813-0.215-1.203v-27.168c0,0.504,0.039,1.023,0.215,1.555
				c1.113,3.797,3.681,7.879,5.372,11.023c0.926,1.723,1.5,3.137,1.5,4.148c2.801,4.07,11.281,9.43,19.41,13.082
				c9.48,4.211,18.457,6.59,29.961,8.875c12.219,2.566,18.445,1.203,33.488,2.809c14.777,1.465,20.238-2.199,34.535-2.617
				c11.848-1.469,22.504-4.148,28.949-9.066c6.309-5.004,12.73-9.605,19.863-13.172c0.492-0.289,0.934-0.617,1.363-0.961
				C691.22,566.828,690.368,560.898,691.364,556.613z"/>
			
				<line fill="none" stroke="#CFA686" stroke-width="0.1557" stroke-miterlimit="10" x1="518.7" y1="571.785" x2="518.7" y2="598.625"/>
			
				<line fill="none" stroke="#CFA686" stroke-width="0.1557" stroke-miterlimit="10" x1="594.204" y1="595.93" x2="594.204" y2="622.77"/>
			
				<line fill="none" stroke="#CFA686" stroke-width="0.1557" stroke-miterlimit="10" x1="669.243" y1="581.633" x2="669.243" y2="608.422"/>
			<path fill="none" stroke="#010101" stroke-width="0.2738" stroke-miterlimit="10" d="M691.364,556.613v26.816
				c-1.098,4.648,0.027,11.238-6.457,15.094c-7.133,3.602-13.555,8.176-19.863,13.145c-6.445,4.93-17.102,7.625-28.949,9.117
				c-14.297,0.379-19.758,4.07-34.535,2.602c-15.043-1.605-21.27-0.238-33.488-2.816c-11.504-2.266-20.48-4.641-29.961-8.902
				c-8.129-3.602-16.609-8.961-19.41-13.043c0.043-2.871-5.141-9.305-6.872-15.195c-0.125-0.434-0.176-0.813-0.215-1.203v-27.168
				c0,0.504,0.039,1.023,0.215,1.555c1.113,3.797,3.681,7.879,5.372,11.023c0.926,1.723,1.5,3.137,1.5,4.148
				c2.801,4.07,11.281,9.43,19.41,13.082c9.48,4.211,18.457,6.59,29.961,8.875c12.219,2.566,18.445,1.203,33.488,2.809
				c14.777,1.465,20.238-2.199,34.535-2.617c11.848-1.469,22.504-4.148,28.949-9.066c6.309-5.004,12.73-9.605,19.863-13.172
				c0.492-0.289,0.934-0.617,1.363-0.961C691.22,566.828,690.368,560.898,691.364,556.613z"/>
			<path fill="#F4EFC5" stroke="#010101" stroke-width="0.2738" stroke-miterlimit="10" d="M691.364,556.613
				c-0.996,4.285-0.145,10.215-5.094,14.121c-0.43,0.344-0.871,0.672-1.363,0.961c-7.133,3.566-13.555,8.168-19.863,13.172
				c-6.445,4.918-17.102,7.598-28.949,9.066c-14.297,0.418-19.758,4.082-34.535,2.617c-15.043-1.605-21.27-0.242-33.488-2.809
				c-11.504-2.285-20.48-4.664-29.961-8.875c-8.129-3.652-16.609-9.012-19.41-13.082c0-1.012-0.574-2.426-1.5-4.148
				c-1.691-3.145-4.259-7.227-5.372-11.023c-0.176-0.531-0.215-1.051-0.215-1.555v-0.344c0.297-4.613,5.192-7.887,5.45-13.723
				c3.383-5.27,11.555-9.063,21.047-12.648c9-3.773,12.453-9.688,29.227-8.961c13.188-0.887,22.492-2.832,34.223-2.707
				c5.902-2.539,26.344,2.473,34.789,3.352c9.898,1.527,19.016,4.008,28.695,8.316c7.461,3.324,14.098,7.871,18.309,12.594
				C689.704,546.648,689.442,550.656,691.364,556.613z"/>
		</g>
		<g>
			<linearGradient id="SVGID_4_" gradientUnits="userSpaceOnUse" x1="502.1953" y1="557.4023" x2="681.7471" y2="557.4023">
				<stop  offset="0" style="stop-color:#E6C7A7"/>
				<stop  offset="0.0806" style="stop-color:#E7CEB4"/>
				<stop  offset="0.2154" style="stop-color:#E7D7C4"/>
				<stop  offset="0.3564" style="stop-color:#E8DCCE"/>
				<stop  offset="0.512" style="stop-color:#E8DED1"/>
				<stop  offset="0.6384" style="stop-color:#E7DCCE"/>
				<stop  offset="0.7595" style="stop-color:#E4D5C3"/>
				<stop  offset="0.8786" style="stop-color:#E0CAB2"/>
				<stop  offset="0.9958" style="stop-color:#D9BB9B"/>
				<stop  offset="1" style="stop-color:#D9BB9A"/>
			</linearGradient>
			<path fill="url(#SVGID_4_)" d="M681.747,518.535v36.711c-0.027,4.754-2.516,10.117-7.082,14.844
				c-4.539,6.082-11.094,8.902-19.215,13.742c-8.141,2.984-17.816,8.066-28.531,8.773c-10.75,0.305-22.547,1.492-34.953,3.086
				c-12.379,1.465-24.184,0-34.957-2.707c-10.742-4.309-20.426-3.387-28.492-9.152c-8.129-5.902-14.676-6.953-19.224-12.652
				c-4.543-5.324-7.098-9.863-7.098-15.934v-36.711c0,6.035,2.555,10.645,7.098,15.902c1.023,1.328,2.195,2.379,3.414,3.293
				c4.165,3.156,9.54,4.816,15.81,9.406c8.066,5.734,17.75,4.848,28.492,9.109c10.773,2.754,22.578,4.184,34.957,2.719
				c12.406-1.555,24.203-2.801,34.953-3.074c10.715-0.707,20.391-5.789,28.531-8.754c6.301-3.773,11.617-6.297,15.801-10.105
				c1.277-1.074,2.371-2.289,3.414-3.668C679.231,528.648,681.72,523.262,681.747,518.535z"/>
			
				<line fill="none" stroke="#CFA686" stroke-width="0.1557" stroke-miterlimit="10" x1="524.798" y1="544.641" x2="524.798" y2="581.305"/>
			
				<line fill="none" stroke="#CFA686" stroke-width="0.1557" stroke-miterlimit="10" x1="613.95" y1="556.613" x2="613.95" y2="593.352"/>
			
				<line fill="none" stroke="#CFA686" stroke-width="0.1557" stroke-miterlimit="10" x1="677.333" y1="566.957" x2="677.333" y2="530.527"/>
			<path fill="none" stroke="#010101" stroke-width="0.2754" stroke-miterlimit="10" d="M681.747,518.535v36.711
				c-0.027,4.754-2.516,10.117-7.082,14.844c-4.539,6.082-11.094,8.902-19.215,13.742c-8.141,2.984-17.816,8.066-28.531,8.773
				c-10.75,0.305-22.547,1.492-34.953,3.086c-12.379,1.465-24.184,0-34.957-2.707c-10.742-4.309-20.426-3.387-28.492-9.152
				c-8.129-5.902-14.676-6.953-19.224-12.652c-4.543-5.324-7.098-9.863-7.098-15.934v-36.711c0,6.035,2.555,10.645,7.098,15.902
				c1.023,1.328,2.195,2.379,3.414,3.293c4.165,3.156,9.54,4.816,15.81,9.406c8.066,5.734,17.75,4.848,28.492,9.109
				c10.773,2.754,22.578,4.184,34.957,2.719c12.406-1.555,24.203-2.801,34.953-3.074c10.715-0.707,20.391-5.789,28.531-8.754
				c6.301-3.773,11.617-6.297,15.801-10.105c1.277-1.074,2.371-2.289,3.414-3.668C679.231,528.648,681.72,523.262,681.747,518.535z"
				/>
			<path fill="#F4EFC5" stroke="#010101" stroke-width="0.2754" stroke-miterlimit="10" d="M681.747,518.535
				c-0.027,4.727-2.516,10.113-7.082,14.828c-1.043,1.379-2.137,2.594-3.414,3.668c-4.184,3.809-9.5,6.332-15.801,10.105
				c-8.141,2.965-17.816,8.047-28.531,8.754c-10.75,0.273-22.547,1.52-34.953,3.074c-12.379,1.465-24.184,0.035-34.957-2.719
				c-10.742-4.262-20.426-3.375-28.492-9.109c-6.27-4.59-11.645-6.25-15.81-9.406c-1.219-0.914-2.391-1.965-3.414-3.293
				c-4.543-5.258-7.098-9.867-7.098-15.902c0-5.156,2.555-11.711,7.098-15.512c4.497-2.023,11.095-8.297,19.224-13.098
				c8.066-4.461,17.75-4.84,28.492-9.492c10.773-2.707,22.578-2.793,35.008-2.313c12.355,0.152,24.152-3.004,34.902,2.867
				c10.77,3.578,20.391,5.121,28.531,8.938c8.121,0.102,14.676,10.18,19.215,13.523C679.231,507.656,681.72,512.367,681.747,518.535
				z"/>
		</g>
		<g>
			<linearGradient id="SVGID_5_" gradientUnits="userSpaceOnUse" x1="515.2861" y1="517.8906" x2="696.9072" y2="517.8906">
				<stop  offset="0" style="stop-color:#E6C7A7"/>
				<stop  offset="0.0806" style="stop-color:#E7CEB4"/>
				<stop  offset="0.2154" style="stop-color:#E7D7C4"/>
				<stop  offset="0.3564" style="stop-color:#E8DCCE"/>
				<stop  offset="0.512" style="stop-color:#E8DED1"/>
				<stop  offset="0.6384" style="stop-color:#E7DCCE"/>
				<stop  offset="0.7595" style="stop-color:#E4D5C3"/>
				<stop  offset="0.8786" style="stop-color:#E0CAB2"/>
				<stop  offset="0.9958" style="stop-color:#D9BB9B"/>
				<stop  offset="1" style="stop-color:#D9BB9A"/>
			</linearGradient>
			<path fill="url(#SVGID_5_)" d="M696.907,483.695v30.484c0,3.801-7.508,10.285-9.168,13.352
				c-3.363,4.379-8.957,8.457-18.637,12.813c-7.457,3.324-17.695,6.305-28.316,8.176c-12.781,2.828-21.82,2.73-35.168,3.566
				c-10.418-0.469-25.246,0.051-33.93-2.871c-8.066-3.184-18.344-6.059-29.559-8.871c-11.059-2.883-17.133-7.664-20.465-12.973
				c-0.613-4.809-5.488-7.371-6.379-11.16v-30.738c0.941,3.754,5.766,6.391,6.379,11.18c0.09,0.16,0.238,0.34,0.379,0.5
				c3.352,5.082,9.406,9.625,20.086,12.422c11.215,2.828,21.492,5.699,29.559,8.891c8.684,2.902,23.512,2.41,33.93,2.844
				c13.348-0.793,22.387-0.68,35.168-3.543c10.621-1.879,20.859-4.844,28.316-8.191c9.68-4.313,15.273-8.41,18.637-12.801
				c0.301-0.574,0.871-1.32,1.539-2.129C691.958,491.418,696.638,486.766,696.907,483.695z"/>
			
				<line fill="none" stroke="#CFA686" stroke-width="0.1557" stroke-linejoin="round" stroke-miterlimit="10" x1="521.665" y1="496.652" x2="521.665" y2="527.371"/>
			
				<line fill="none" stroke="#CFA686" stroke-width="0.1557" stroke-linejoin="round" stroke-miterlimit="10" x1="605.618" y1="521.309" x2="605.618" y2="552.086"/>
			
				<line fill="none" stroke="#CFA686" stroke-width="0.1557" stroke-linejoin="round" stroke-miterlimit="10" x1="687.739" y1="496.773" x2="687.739" y2="527.531"/>
			<path fill="none" stroke="#010101" stroke-width="0.2744" stroke-linejoin="round" stroke-miterlimit="10" d="M696.907,483.695
				v30.484c0,3.801-7.508,10.285-9.168,13.352c-3.363,4.379-8.957,8.457-18.637,12.813c-7.457,3.324-17.695,6.305-28.316,8.176
				c-12.781,2.828-21.82,2.73-35.168,3.566c-10.418-0.469-25.246,0.051-33.93-2.871c-8.066-3.184-18.344-6.059-29.559-8.871
				c-11.059-2.883-17.133-7.664-20.465-12.973c-0.613-4.809-5.488-7.371-6.379-11.16v-30.738c0.941,3.754,5.766,6.391,6.379,11.18
				c0.09,0.16,0.238,0.34,0.379,0.5c3.352,5.082,9.406,9.625,20.086,12.422c11.215,2.828,21.492,5.699,29.559,8.891
				c8.684,2.902,23.512,2.41,33.93,2.844c13.348-0.793,22.387-0.68,35.168-3.543c10.621-1.879,20.859-4.844,28.316-8.191
				c9.68-4.313,15.273-8.41,18.637-12.801c0.301-0.574,0.871-1.32,1.539-2.129C691.958,491.418,696.638,486.766,696.907,483.695z"/>
			<path fill="#F4EFC5" stroke="#010101" stroke-width="0.2744" stroke-linejoin="round" stroke-miterlimit="10" d="
				M696.907,483.695c-0.27,3.07-4.949,7.723-7.629,10.949c-0.668,0.809-1.238,1.555-1.539,2.129
				c-3.363,4.391-8.957,8.488-18.637,12.801c-7.457,3.348-17.695,6.313-28.316,8.191c-12.781,2.863-21.82,2.75-35.168,3.543
				c-10.418-0.434-25.246,0.059-33.93-2.844c-8.066-3.191-18.344-6.063-29.559-8.891c-10.68-2.797-16.734-7.34-20.086-12.422
				c-0.141-0.16-0.289-0.34-0.379-0.5c-0.613-4.789-5.438-7.426-6.379-11.18v-0.031c-0.34-1.258-0.258-2.594,0.574-4.238
				c3.543-6.699,0.496-9.5,6.324-14.961c5.086-5.156,10.441-9.105,19.945-13.395c8.125-3.641,20.215-7.445,29.355-8.641
				c6.414,0,20.902-2.316,34.133-3.109c12.793-0.574,20.219,2.219,35.086,2.348c11.832,1.492,20.289,5.184,28.398,9.402
				c8.504,4.035,21.758,5.563,20.125,13.086c2.051,5.883,6.41,10.055,6.145,15.27C696.575,481.793,696.989,482.66,696.907,483.695z"
				/>
		</g>
		<g>
			<g>
				<path fill="#A7825F" d="M595.79,504.677c-12.072-9.056-18.351-13.284-40.554-21.067c9.822,1.737,16.604,2.674,23.274,2.674
					c6.444,0,12.822-0.85,21.863-2.922c-0.937,0.636-1.811,1.209-2.619,1.739C590.148,490.09,588.257,491.331,595.79,504.677z
					 M567.359,486.787c9.396,3.699,15.641,6.902,22.269,11.426l0.405,0.277l-0.194-0.451c-2.677-6.207-1.451-8.421,3.591-11.924
					l0.536-0.373l-0.929,0.167c-0.468,0.085-0.934,0.169-1.396,0.237c-4.729,0.746-8.908,1.093-13.154,1.093
					c-3.475,0-6.988-0.231-11.058-0.726l-1.108-0.135L567.359,486.787z"/>
				<path fill="#F1D089" d="M599.662,483.67c-0.704,0.472-1.371,0.909-1.985,1.312c-7.583,4.973-9.552,6.265-2.342,19.176
					c-11.441-8.567-17.837-12.795-38.434-20.112c8.933,1.549,15.317,2.38,21.609,2.38
					C584.789,486.426,591.001,485.622,599.662,483.67 M578.486,487.096c-3.469,0-6.977-0.23-11.041-0.725l-2.217-0.27l2.078,0.818
					c9.387,3.695,15.622,6.894,22.24,11.412l0.813,0.554l-0.39-0.902c-2.658-6.163-1.511-8.241,3.542-11.751l1.072-0.745
					l-1.285,0.23l-0.286,0.052c-0.468,0.084-0.932,0.168-1.396,0.236C586.897,486.75,582.725,487.096,578.486,487.096
					 M601.079,483.053h0.005H601.079z M601.079,483.053c-9.189,2.139-15.854,3.088-22.568,3.088c-7.214,0-14.485-1.095-25.014-2.987
					c23.73,8.215,29.848,12.352,42.754,22.047C587.396,489.662,590.638,490.244,601.079,483.053L601.079,483.053z M578.486,487.381
					c4.201,0,8.427-0.346,13.175-1.094c0.559-0.082,1.121-0.188,1.688-0.289c-4.965,3.449-6.414,5.668-3.641,12.098
					c-6.141-4.191-12.164-7.453-22.297-11.441C571.294,487.127,574.882,487.381,578.486,487.381L578.486,487.381z"/>
			</g>
			<path fill="#695049" d="M585.571,493.354c-0.152-2.086,0.527-3.691,2.02-5.246c-3.906,0.418-7.633,0.598-11.535,0.449
				C579.544,490.111,582.622,491.666,585.571,493.354z"/>
			<path fill="#A7825F" d="M591.661,486.287c-8.82,1.391-15.84,1.391-24.25,0.367c10.133,3.988,16.156,7.25,22.297,11.441
				c-2.773-6.43-1.324-8.648,3.641-12.098C592.782,486.1,592.22,486.205,591.661,486.287z M585.571,493.354
				c-2.949-1.688-6.027-3.242-9.516-4.797c3.902,0.148,7.629-0.031,11.535-0.449C586.099,489.662,585.419,491.268,585.571,493.354z"
				/>
			<g>
				<path fill="#A7825F" d="M603.02,474.584c-10.074-6.865-25.872-8.225-45.432-9.065c27.276-2.755,39.932-5.295,58.365-11.73
					c-17.597,10.005-16.563,12.376-13.912,18.459C602.348,472.952,602.689,473.736,603.02,474.584z M604.833,458.557
					c-7.11,2.032-14.022,3.535-22.409,4.875c-3.32,0.526-7.001,1.03-11.585,1.585l0.007,0.284
					c12.564,0.967,21.12,2.614,27.741,5.337l0.307,0.126l-0.119-0.309c-1.343-3.498-1.639-6.198,6.179-11.645l0.702-0.489
					L604.833,458.557z"/>
				<path fill="#F1D089" d="M614.57,454.418c-16.332,9.455-15.205,12.044-12.66,17.887c0.266,0.609,0.538,1.234,0.809,1.906
					c-9.777-6.439-24.733-7.907-43.178-8.748C584.809,462.852,597.32,460.345,614.57,454.418 M599.145,471.022l-0.237-0.617
					c-1.318-3.435-1.604-6.089,6.128-11.477l1.403-0.978l-1.645,0.47c-7.105,2.03-14.012,3.532-22.393,4.871
					c-3.318,0.526-6.997,1.03-11.579,1.584l0.013,0.567c12.548,0.966,21.091,2.609,27.698,5.327L599.145,471.022 M617.435,453.116
					h0.005H617.435z M617.435,453.116c-19.836,7.031-32.504,9.559-61.863,12.461c22.336,0.914,37.824,2.387,47.746,9.387
					C600.177,466.581,595.872,465.198,617.435,453.116L617.435,453.116z M598.642,470.507c-7.512-3.09-16.879-4.508-27.785-5.348
					c4.32-0.523,8.09-1.031,11.59-1.586c8.117-1.297,15.043-2.77,22.426-4.879C597.325,463.952,597.173,466.683,598.642,470.507
					L598.642,470.507z"/>
			</g>
			<path fill="#695049" d="M595.169,467.737c-0.133-1.875,0.531-3.672,2.563-5.766c-4.5,1.043-9.16,1.93-14.348,2.75
				c-0.582,0.098-1.184,0.18-1.785,0.266C586.845,465.69,591.302,466.601,595.169,467.737z"/>
			<path fill="#A7825F" d="M604.872,458.694c-7.383,2.109-14.309,3.582-22.426,4.879c-3.5,0.555-7.27,1.063-11.59,1.586
				c10.906,0.84,20.273,2.258,27.785,5.348C597.173,466.683,597.325,463.952,604.872,458.694z M597.731,461.972
				c-2.031,2.094-2.695,3.891-2.563,5.766c-3.867-1.137-8.324-2.047-13.57-2.75c0.602-0.086,1.203-0.168,1.785-0.266
				C588.571,463.901,593.231,463.015,597.731,461.972z"/>
			<g>
				<path fill="#A7825F" d="M651.348,497.438c-7.912-10.438-15.403-13.259-34.462-16.418c1.698-0.228,3.299-0.434,4.817-0.63
					c14.143-1.824,21.373-2.756,35.301-11.827c-8.475,10.219-7.705,15.284-6.206,25.143
					C650.976,494.876,651.164,496.115,651.348,497.438z M650.059,474.305c-6.819,3.4-12.322,4.735-18.99,5.787
					c-1.867,0.31-3.865,0.57-5.981,0.846l-1.558,0.204l0.854,0.168c11.619,2.288,17.915,4.806,23.229,9.29l0.283,0.239l-0.05-0.368
					c-0.862-6.257-0.729-10.445,2.4-15.968l0.229-0.406L650.059,474.305z"/>
				<path fill="#F1D089" d="M656.318,469.175c-7.904,9.802-7.133,14.878-5.662,24.551c0.156,1.026,0.316,2.078,0.475,3.194
					c-7.69-9.955-15.132-12.824-33.286-15.885c1.353-0.179,2.642-0.345,3.877-0.504
					C635.624,478.738,642.859,477.805,656.318,469.175 M648.088,491.187l-0.102-0.736c-0.857-6.226-0.725-10.391,2.384-15.878
					l0.46-0.812l-0.835,0.417c-6.804,3.392-12.294,4.724-18.951,5.773c-1.863,0.31-3.86,0.57-5.976,0.846l-0.694,0.09l-1.727,0.226
					l1.709,0.336c11.593,2.283,17.87,4.792,23.164,9.258L648.088,491.187 M657.739,467.909h0.005H657.739z M657.739,467.909
					c-16.219,10.73-23.125,10.555-41.816,13.097c19.75,3.223,27.414,5.902,35.641,16.957
					C649.802,484.955,647.431,480.007,657.739,467.909L657.739,467.909z M647.704,490.49c-5.652-4.77-12.441-7.184-23.293-9.32
					c2.391-0.313,4.609-0.594,6.68-0.938c6.828-1.077,12.363-2.476,19.031-5.8C646.856,480.197,646.899,484.65,647.704,490.49
					L647.704,490.49z"/>
			</g>
			<path fill="#695049" d="M645.618,478.085c-4.551,1.656-8.887,2.554-13.59,3.304c-0.09,0.02-0.145,0.02-0.227,0.059
				c5.219,1.277,9.277,2.754,12.711,4.613C644.396,483.268,644.681,480.744,645.618,478.085z"/>
			<path fill="#A7825F" d="M650.122,474.433c-6.668,3.324-12.203,4.723-19.031,5.8c-2.07,0.344-4.289,0.625-6.68,0.938
				c10.852,2.137,17.641,4.551,23.293,9.32C646.899,484.65,646.856,480.197,650.122,474.433z M631.802,481.447
				c0.082-0.039,0.137-0.039,0.227-0.059c4.703-0.75,9.039-1.647,13.59-3.304c-0.938,2.659-1.223,5.183-1.105,7.976
				C641.079,484.201,637.021,482.725,631.802,481.447z"/>
		</g>
	</g>
	<g>
		<g>
			<linearGradient id="SVGID_6_" gradientUnits="userSpaceOnUse" x1="403.6563" y1="676.0449" x2="583.2236" y2="676.0449">
				<stop  offset="0" style="stop-color:#E6C7A7"/>
				<stop  offset="0.0806" style="stop-color:#E7CEB4"/>
				<stop  offset="0.2154" style="stop-color:#E7D7C4"/>
				<stop  offset="0.3564" style="stop-color:#E8DCCE"/>
				<stop  offset="0.512" style="stop-color:#E8DED1"/>
				<stop  offset="0.6384" style="stop-color:#E7DCCE"/>
				<stop  offset="0.7595" style="stop-color:#E4D5C3"/>
				<stop  offset="0.8786" style="stop-color:#E0CAB2"/>
				<stop  offset="0.9958" style="stop-color:#D9BB9B"/>
				<stop  offset="1" style="stop-color:#D9BB9A"/>
			</linearGradient>
			<path fill="url(#SVGID_6_)" d="M583.224,637.186v36.672c-0.047,4.781-2.566,10.129-7.082,14.867
				c-4.555,6.094-11.113,8.875-19.23,13.719c-8.121,2.98-17.832,8.078-28.539,8.773c-10.73,0.313-22.548,1.527-34.966,3.109
				c-12.344,1.465-24.145,0-34.941-2.719c-10.734-4.297-20.391-3.375-28.48-9.164c-8.125-5.895-14.691-6.93-19.219-12.645
				c-4.566-5.309-7.109-9.848-7.109-15.941v-36.672c0,6.043,2.543,10.617,7.109,15.891c1.027,1.301,2.152,2.352,3.391,3.285
				c4.184,3.16,9.563,4.816,15.828,9.395c8.09,5.75,17.746,4.84,28.48,9.102c10.797,2.793,22.598,4.211,34.941,2.73
				c12.418-1.543,24.235-2.805,34.966-3.07c10.707-0.684,20.418-5.777,28.539-8.762c6.316-3.781,11.637-6.281,15.797-10.09
				c1.277-1.074,2.363-2.273,3.434-3.676C580.657,647.287,583.177,641.9,583.224,637.186z"/>
			
				<line fill="none" stroke="#CFA686" stroke-width="0.1557" stroke-miterlimit="10" x1="426.254" y1="663.279" x2="426.254" y2="699.928"/>
			
				<line fill="none" stroke="#CFA686" stroke-width="0.1557" stroke-miterlimit="10" x1="515.403" y1="675.236" x2="515.403" y2="711.986"/>
			
				<line fill="none" stroke="#CFA686" stroke-width="0.1557" stroke-miterlimit="10" x1="578.79" y1="685.592" x2="578.79" y2="649.146"/>
			<path fill="none" stroke="#010101" stroke-width="0.2754" stroke-miterlimit="10" d="M583.224,637.186v36.672
				c-0.047,4.781-2.566,10.129-7.082,14.867c-4.555,6.094-11.113,8.875-19.23,13.719c-8.121,2.98-17.832,8.078-28.539,8.773
				c-10.73,0.313-22.548,1.527-34.966,3.109c-12.344,1.465-24.145,0-34.941-2.719c-10.734-4.297-20.391-3.375-28.48-9.164
				c-8.125-5.895-14.691-6.93-19.219-12.645c-4.566-5.309-7.109-9.848-7.109-15.941v-36.672c0,6.043,2.543,10.617,7.109,15.891
				c1.027,1.301,2.152,2.352,3.391,3.285c4.184,3.16,9.563,4.816,15.828,9.395c8.09,5.75,17.746,4.84,28.48,9.102
				c10.797,2.793,22.598,4.211,34.941,2.73c12.418-1.543,24.235-2.805,34.966-3.07c10.707-0.684,20.418-5.777,28.539-8.762
				c6.316-3.781,11.637-6.281,15.797-10.09c1.277-1.074,2.363-2.273,3.434-3.676C580.657,647.287,583.177,641.9,583.224,637.186z"/>
			<path fill="#F4EFC5" stroke="#010101" stroke-width="0.2754" stroke-miterlimit="10" d="M583.224,637.186
				c-0.047,4.715-2.566,10.102-7.082,14.805c-1.07,1.402-2.156,2.602-3.434,3.676c-4.16,3.809-9.48,6.309-15.797,10.09
				c-8.121,2.984-17.832,8.078-28.539,8.762c-10.73,0.266-22.548,1.527-34.966,3.07c-12.344,1.48-24.145,0.063-34.941-2.73
				c-10.734-4.262-20.391-3.352-28.48-9.102c-6.266-4.578-11.645-6.234-15.828-9.395c-1.238-0.934-2.363-1.984-3.391-3.285
				c-4.566-5.273-7.109-9.848-7.109-15.891c0-5.172,2.543-11.73,7.109-15.551c4.477-2.008,11.094-8.305,19.219-13.07
				c8.09-4.488,17.746-4.855,28.48-9.508c10.797-2.703,22.598-2.777,34.992-2.324c12.367,0.152,24.185-2.984,34.915,2.871
				c10.734,3.578,20.418,5.133,28.539,8.961c8.117,0.078,14.676,10.164,19.23,13.516
				C580.657,626.303,583.177,630.99,583.224,637.186z"/>
		</g>
		<g>
			<path fill="#EED5BB" d="M595.575,602.725v26.813c-1.074,4.664,0.039,11.25-6.426,15.094c-7.148,3.605-13.547,8.191-19.879,13.16
				c-6.441,4.906-17.105,7.637-28.949,9.102c-14.301,0.395-19.762,4.086-34.54,2.617c-15.043-1.594-21.27-0.238-33.512-2.82
				c-11.48-2.262-20.418-4.637-29.91-8.898c-8.156-3.602-16.637-8.961-19.418-13.031c0.023-2.859-5.141-9.32-6.902-15.223
				c-0.094-0.418-0.133-0.797-0.176-1.188v-27.156c0,0.496,0.043,1,0.176,1.531c1.125,3.805,3.742,7.887,5.371,11.035
				c0.938,1.707,1.531,3.137,1.531,4.16c2.781,4.059,11.262,9.418,19.418,13.059c9.492,4.223,18.43,6.598,29.91,8.875
				c12.242,2.578,18.469,1.215,33.512,2.805c14.778,1.48,20.239-2.211,34.54-2.59c11.844-1.48,22.508-4.16,28.949-9.09
				c6.332-5.008,12.73-9.594,19.879-13.148c0.473-0.316,0.914-0.629,1.363-0.973C595.423,612.951,594.591,607.01,595.575,602.725z"
				/>
			
				<line fill="none" stroke="#CFA686" stroke-width="0.1557" stroke-miterlimit="10" x1="422.941" y1="617.92" x2="422.941" y2="644.76"/>
			
				<line fill="none" stroke="#CFA686" stroke-width="0.1557" stroke-miterlimit="10" x1="498.461" y1="642.029" x2="498.461" y2="668.893"/>
			
				<line fill="none" stroke="#CFA686" stroke-width="0.1557" stroke-miterlimit="10" x1="573.446" y1="627.756" x2="573.446" y2="654.541"/>
			<path fill="none" stroke="#010101" stroke-width="0.2738" stroke-miterlimit="10" d="M595.575,602.725v26.813
				c-1.074,4.664,0.039,11.25-6.426,15.094c-7.148,3.605-13.547,8.191-19.879,13.16c-6.441,4.906-17.105,7.637-28.949,9.102
				c-14.301,0.395-19.762,4.086-34.54,2.617c-15.043-1.594-21.27-0.238-33.512-2.82c-11.48-2.262-20.418-4.637-29.91-8.898
				c-8.156-3.602-16.637-8.961-19.418-13.031c0.023-2.859-5.141-9.32-6.902-15.223c-0.094-0.418-0.133-0.797-0.176-1.188v-27.156
				c0,0.496,0.043,1,0.176,1.531c1.125,3.805,3.742,7.887,5.371,11.035c0.938,1.707,1.531,3.137,1.531,4.16
				c2.781,4.059,11.262,9.418,19.418,13.059c9.492,4.223,18.43,6.598,29.91,8.875c12.242,2.578,18.469,1.215,33.512,2.805
				c14.778,1.48,20.239-2.211,34.54-2.59c11.844-1.48,22.508-4.16,28.949-9.09c6.332-5.008,12.73-9.594,19.879-13.148
				c0.473-0.316,0.914-0.629,1.363-0.973C595.423,612.951,594.591,607.01,595.575,602.725z"/>
			<path fill="#F4EFC5" stroke="#010101" stroke-width="0.2738" stroke-miterlimit="10" d="M595.575,602.725
				c-0.984,4.285-0.152,10.227-5.063,14.133c-0.449,0.344-0.891,0.656-1.363,0.973c-7.148,3.555-13.547,8.141-19.879,13.148
				c-6.441,4.93-17.105,7.609-28.949,9.09c-14.301,0.379-19.762,4.07-34.54,2.59c-15.043-1.59-21.27-0.227-33.512-2.805
				c-11.48-2.277-20.418-4.652-29.91-8.875c-8.156-3.641-16.637-9-19.418-13.059c0-1.023-0.594-2.453-1.531-4.16
				c-1.629-3.148-4.246-7.23-5.371-11.035c-0.133-0.531-0.176-1.035-0.176-1.531v-0.363c0.266-4.629,5.164-7.863,5.422-13.719
				c3.375-5.285,11.535-9.039,21.074-12.664c8.977-3.758,12.438-9.684,29.203-8.941c13.172-0.895,22.488-2.828,34.219-2.715
				c5.918-2.531,26.364,2.477,34.817,3.363c9.871,1.527,18.988,3.992,28.672,8.293c7.438,3.348,14.094,7.887,18.324,12.629
				C593.927,592.775,593.669,596.771,595.575,602.725z"/>
		</g>
		<g>
			<g>
				<path fill="#A7825F" d="M451.926,605.467c15.247-10.659,17.969-15.542,22.573-25.886c2.935,13.716,5.355,14.497,16.55,18.112
					c1.136,0.367,2.362,0.763,3.688,1.205c-3.903-0.229-7.256-0.34-10.221-0.34C471.453,598.559,464.334,600.669,451.926,605.467z
					 M473.61,586.657c-2.402,4.381-5.421,8.431-12.351,13.953l-0.586,0.467l0.716-0.22c7.471-2.299,14.158-3.236,23.08-3.236
					c0.6,0,1.173,0,1.792,0.02l0.942,0.03l-0.892-0.306c-7.446-2.553-10.288-4.455-12.443-10.687l-0.105-0.302L473.61,586.657z"/>
				<path fill="#F1D089" d="M474.452,580.035c2.922,13.392,5.675,14.28,16.553,17.793c0.828,0.268,1.721,0.557,2.669,0.868
					c-3.453-0.188-6.465-0.279-9.159-0.279c-12.705,0-19.795,1.992-31.567,6.504C467.211,594.829,470.037,589.921,474.452,580.035
					 M459.999,601.434l1.432-0.44c7.457-2.294,14.131-3.229,23.038-3.229c0.002,0,0.005,0,0.007,0c0.596,0,1.165,0,1.781,0.02
					l1.884,0.059l-1.784-0.611c-7.397-2.536-10.219-4.423-12.355-10.598l-0.209-0.605l-0.308,0.562
					c-2.394,4.366-5.404,8.403-12.314,13.911L459.999,601.434 M474.547,579.124c-4.867,10.965-7.512,15.73-23.68,26.906
					c13.139-5.116,20.362-7.329,33.649-7.329c3.32,0,7.018,0.138,11.281,0.403C480.52,593.933,477.883,594.956,474.547,579.124
					L474.547,579.124z M461.348,600.722c6.543-5.215,9.746-9.18,12.387-13.996c2.227,6.438,5.262,8.281,12.531,10.773
					c-0.621-0.02-1.195-0.02-1.797-0.02C475.102,597.479,468.496,598.522,461.348,600.722L461.348,600.722z"/>
			</g>
			<path fill="#695049" d="M473.395,591.757c-1.516,2.023-3.223,3.934-5.355,5.879c3.586-0.684,7.215-1.074,11.207-1.262
				C476.68,595.128,474.828,593.741,473.395,591.757z"/>
			<path fill="#A7825F" d="M473.734,586.726c-2.641,4.816-5.844,8.781-12.387,13.996c7.148-2.199,13.754-3.242,23.121-3.242
				c0.602,0,1.176,0,1.797,0.02C478.996,595.007,475.961,593.163,473.734,586.726z M473.395,591.757
				c1.434,1.984,3.285,3.371,5.852,4.617c-3.992,0.188-7.621,0.578-11.207,1.262C470.172,595.69,471.879,593.78,473.395,591.757z"/>
			<g>
				<path fill="#A7825F" d="M531.51,624.189c-15.053-2.215-25.705-3.049-38.555-3.049c-6.912,0-14.683,0.245-25.001,0.791
					c17.843-3.711,31.732-7.344,36.022-15.247c0.355,0.896,0.643,1.729,0.9,2.473C506.947,615.16,507.76,617.516,531.51,624.189z
					 M492.918,620.203c8.756,0,16.404,0.382,24.799,1.238l1.234,0.125l-1.174-0.401c-10.629-3.635-13.119-6.031-14.68-10.03
					l-0.072-0.185l-0.151,0.128c-4.175,3.509-10.993,6.304-22.107,9.061l-1.308,0.324l1.347-0.045
					C485.145,620.273,489.107,620.203,492.918,620.203z"/>
				<path fill="#F1D089" d="M503.952,607.016c0.302,0.777,0.548,1.492,0.789,2.188c2.028,5.873,2.862,8.284,24.675,14.539
					c-13.962-1.988-24.213-2.745-36.461-2.745c-6.499,0-13.758,0.217-23.179,0.696C486.594,618.143,499.625,614.524,503.952,607.016
					 M478.117,620.649l2.693-0.089c4.338-0.145,8.298-0.215,12.108-0.215c8.751,0,16.395,0.381,24.785,1.236l2.467,0.252
					l-2.347-0.803c-11.5-3.933-13.245-6.492-14.594-9.948l-0.144-0.368l-0.303,0.254c-4.157,3.495-10.958,6.28-22.05,9.032
					L478.117,620.649 M503.992,606.347c-4.055,7.977-17.578,11.648-37.918,15.828c10.583-0.58,19.157-0.893,26.88-0.893
					c14.075,0,25.33,1.038,40.812,3.389C504.336,616.55,507.363,614.628,503.992,606.347L503.992,606.347z M480.801,620.276
					c9.621-2.387,17.41-5.094,22.164-9.09c1.477,3.781,3.664,6.316,14.767,10.113c-8.544-0.871-16.173-1.238-24.813-1.238
					C489.203,620.062,485.258,620.128,480.801,620.276L480.801,620.276z"/>
			</g>
			<path fill="#695049" d="M492.918,618.851c5.5,0,10.563,0.133,15.621,0.465c-3.504-1.68-5.488-3.246-6.766-5.031
				c-2.793,1.645-6.293,3.148-10.73,4.566C491.699,618.851,492.305,618.851,492.918,618.851z"/>
			<path fill="#A7825F" d="M502.965,611.187c-4.754,3.996-12.543,6.703-22.164,9.09c4.457-0.148,8.402-0.215,12.117-0.215
				c8.641,0,16.27,0.367,24.813,1.238C506.629,617.503,504.441,614.968,502.965,611.187z M501.773,614.284
				c1.277,1.785,3.262,3.352,6.766,5.031c-5.059-0.332-10.121-0.465-15.621-0.465c-0.613,0-1.219,0-1.875,0
				C495.48,617.433,498.98,615.929,501.773,614.284z"/>
			<g>
				<path fill="#A7825F" d="M559.039,604.248c-15.427-4.942-23.259-5.866-32.826-5.866c-2.771,0-5.648,0.078-8.982,0.168
					c-1.595,0.044-3.276,0.089-5.069,0.129c15.572-5.794,20.517-9.555,20.106-20.449c0.835,1.281,1.601,2.482,2.324,3.617
					C540.563,591.217,543.652,596.061,559.039,604.248z M526.181,597.449c7.116,0,13.324,0.438,22.271,2.613l0.789,0.192
					l-0.678-0.448c-7.096-4.693-10.402-8.604-14.358-14.616l-0.162-0.247l-0.091,0.281c-1.604,4.971-5.626,8.237-14.838,12.054
					l-0.704,0.292l0.763-0.02C521.947,597.481,524.175,597.449,526.181,597.449z"/>
				<path fill="#F1D089" d="M532.425,578.732c0.729,1.122,1.404,2.182,2.047,3.19c5.81,9.114,8.894,13.954,23.166,21.732
					c-14.497-4.548-22.146-5.415-31.425-5.415c-2.771,0-5.651,0.078-8.986,0.168c-1.344,0.036-2.748,0.074-4.229,0.109
					C527.785,592.949,532.664,589.143,532.425,578.732 M517.65,597.731l1.525-0.038c2.774-0.069,5-0.102,7.005-0.102
					c7.106,0,13.305,0.437,22.237,2.608l1.58,0.385l-1.356-0.896c-7.074-4.68-10.372-8.58-14.317-14.576l-0.325-0.494l-0.183,0.563
					c-1.589,4.924-5.588,8.167-14.756,11.965L517.65,597.731 M532.103,577.718c0.602,11.563-4.625,15.172-20.782,21.121
					c5.882-0.122,10.573-0.314,14.893-0.314c10.018,0,18.045,1.033,34.358,6.369C541.747,595.108,540.231,590.128,532.103,577.718
					L532.103,577.718z M519.169,597.409c8.637-3.578,13.211-6.852,14.918-12.141c3.668,5.574,6.98,9.75,14.398,14.656
					c-8.785-2.137-15.063-2.617-22.305-2.617C523.981,597.308,521.673,597.347,519.169,597.409L519.169,597.409z"/>
			</g>
			<path fill="#695049" d="M526.181,596.081c5.008,0,9.785,0.223,15.289,1.094c-2.855-2.352-5.031-4.672-7.039-7.301
				c-1.836,2.25-4.566,4.211-8.484,6.207C526.028,596.081,526.099,596.081,526.181,596.081z"/>
			<path fill="#A7825F" d="M534.087,585.269c-1.707,5.289-6.281,8.563-14.918,12.141c2.504-0.063,4.813-0.102,7.012-0.102
				c7.242,0,13.52,0.48,22.305,2.617C541.067,595.019,537.755,590.843,534.087,585.269z M541.47,597.175
				c-5.504-0.871-10.281-1.094-15.289-1.094c-0.082,0-0.152,0-0.234,0c3.918-1.996,6.648-3.957,8.484-6.207
				C536.438,592.503,538.614,594.823,541.47,597.175z"/>
		</g>
	</g>
</g>
</svg>
