<?xml version="1.0" encoding="utf-8"?>
<!-- Generator: Adobe Illustrator 16.0.0, SVG Export Plug-In . SVG Version: 6.00 Build 0)  -->
<!DOCTYPE svg PUBLIC "-//W3C//DTD SVG 1.1//EN" "http://www.w3.org/Graphics/SVG/1.1/DTD/svg11.dtd">
<svg version="1.1" id="Layer_1" xmlns="http://www.w3.org/2000/svg" xmlns:xlink="http://www.w3.org/1999/xlink" x="0px" y="0px"
	 width="1024px" height="1024px" viewBox="0 0 1024 1024" enable-background="new 0 0 1024 1024" xml:space="preserve">
<g>
	
		<radialGradient id="SVGID_1_" cx="301.6257" cy="289.8474" r="1136.8336" gradientTransform="matrix(1 0 1.426682e-004 -1 214.3338 1137.9042)" gradientUnits="userSpaceOnUse">
		<stop  offset="0" style="stop-color:#000000"/>
		<stop  offset="0.0916" style="stop-color:#060606"/>
		<stop  offset="0.2173" style="stop-color:#181818"/>
		<stop  offset="0.3629" style="stop-color:#353535"/>
		<stop  offset="0.5234" style="stop-color:#5D5D5D"/>
		<stop  offset="0.6961" style="stop-color:#919191"/>
		<stop  offset="0.8762" style="stop-color:#D0D0D0"/>
		<stop  offset="1" style="stop-color:#FFFFFF"/>
	</radialGradient>
	<path fill="url(#SVGID_1_)" stroke="#000000" stroke-width="6.35" stroke-miterlimit="10" d="M964.203,194.25H61.801
		c-14.038,0-25.424,11.387-25.424,25.424V804.33c0,14.038,11.386,25.42,25.424,25.42h902.402c14.039,0,25.42-11.382,25.42-25.42
		V219.674C989.623,205.636,978.242,194.25,964.203,194.25z M926.874,775.844c0,12.189-9.883,22.072-22.072,22.072H121.203
		c-12.19,0-22.077-9.883-22.077-22.072V268.16c0-12.19,9.887-22.077,22.077-22.077h783.599c12.189,0,22.072,9.887,22.072,22.077
		V775.844z"/>
	
		<radialGradient id="SVGID_2_" cx="297.6008" cy="640.5623" r="632.0856" gradientTransform="matrix(1 0 0 -1 214.3999 1162.5618)" gradientUnits="userSpaceOnUse">
		<stop  offset="0" style="stop-color:#FFFFFF"/>
		<stop  offset="0.1238" style="stop-color:#D0D0D0"/>
		<stop  offset="0.3039" style="stop-color:#919191"/>
		<stop  offset="0.4766" style="stop-color:#5D5D5D"/>
		<stop  offset="0.6371" style="stop-color:#353535"/>
		<stop  offset="0.7827" style="stop-color:#181818"/>
		<stop  offset="0.9084" style="stop-color:#060606"/>
		<stop  offset="1" style="stop-color:#000000"/>
	</radialGradient>
	<path fill="url(#SVGID_2_)" stroke="#000000" stroke-width="6.35" stroke-miterlimit="10" d="M903.802,246.083H120.203
		c-12.19,0-22.077,9.887-22.077,22.077v507.683c0,12.189,9.887,22.072,22.077,22.072h783.599c12.189,0,22.072-9.883,22.072-22.072
		V268.16C925.874,255.97,915.991,246.083,903.802,246.083z M897.165,758.234c0,11.346-9.197,20.543-20.541,20.543H147.38
		c-11.344,0-20.545-9.197-20.545-20.543V285.767c0-11.345,9.201-20.545,20.545-20.545h729.244c11.344,0,20.541,9.201,20.541,20.545
		V758.234z"/>
</g>
</svg>
