<?xml version="1.0" encoding="utf-8"?>
<!-- Generator: Adobe Illustrator 16.0.0, SVG Export Plug-In . SVG Version: 6.00 Build 0)  -->
<!DOCTYPE svg PUBLIC "-//W3C//DTD SVG 1.1//EN" "http://www.w3.org/Graphics/SVG/1.1/DTD/svg11.dtd">
<svg version="1.1" id="Layer_1" xmlns="http://www.w3.org/2000/svg" xmlns:xlink="http://www.w3.org/1999/xlink" x="0px" y="0px"
	 width="256px" height="256px" viewBox="0 0 256 256" enable-background="new 0 0 256 256" xml:space="preserve">
<g>
	<path fill="#898989" stroke="#777777" stroke-linecap="round" stroke-linejoin="round" stroke-miterlimit="10" d="M217.251,0.846
		l-6.901,10.059h-164.7L38.749,0.846C39.211-0.281,216.788-0.281,217.251,0.846z"/>
	<path fill="#7F7F7F" stroke="#777777" stroke-linecap="round" stroke-linejoin="round" stroke-miterlimit="10" d="M45.649,10.902
		c0,19.445-15.747,35.203-35.18,35.203l-9.949-7.021c23.526-5.623,34.654-19.887,38.228-38.238L45.649,10.902z"/>
	<path fill="#898989" stroke="#777777" stroke-linecap="round" stroke-linejoin="round" stroke-miterlimit="10" d="M10.471,46.105
		v163.789l-9.949,7.021c-0.695-0.75-0.695-177.082,0-177.832L10.471,46.105z"/>
	<path fill="#737373" stroke="#777777" stroke-linecap="round" stroke-linejoin="round" stroke-miterlimit="10" d="M245.528,46.105
		v163.789c-19.434,0-35.18,15.756-35.18,35.201h-164.7c0-19.445-15.747-35.201-35.18-35.201V46.105
		c19.433,0,35.18-15.758,35.18-35.203h164.7C210.35,30.35,226.096,46.105,245.528,46.105z"/>
	<path fill="#6F6F6F" stroke="#777777" stroke-linecap="round" stroke-linejoin="round" stroke-miterlimit="10" d="M255.479,39.084
		l-9.949,7.021c-19.434,0-35.18-15.758-35.18-35.203l6.901-10.059C220.66,18.354,235.787,34.377,255.479,39.084z"/>
	<path fill="#626262" stroke="#777777" stroke-linecap="round" stroke-linejoin="round" stroke-miterlimit="10" d="M255.479,216.916
		l-9.949-7.021V46.105l9.949-7.021C256.174,39.834,256.174,216.166,255.479,216.916z"/>
	<path fill="#626262" stroke="#777777" stroke-linecap="round" stroke-linejoin="round" stroke-miterlimit="10" d="M217.251,255.154
		c-0.463,1.127-178.04,1.127-178.502,0l6.901-10.059h164.7L217.251,255.154z"/>
	<path fill="#6F6F6F" stroke="#777777" stroke-linecap="round" stroke-linejoin="round" stroke-miterlimit="10" d="M45.649,245.096
		l-6.901,10.061c-3.451-17.723-15.327-32.766-38.228-38.238l9.949-7.021C29.903,209.895,45.649,225.65,45.649,245.096z"/>
	<path fill="#5E5E5E" stroke="#777777" stroke-linecap="round" stroke-linejoin="round" stroke-miterlimit="10" d="M255.479,216.916
		c-20.272,4.848-34.56,19.402-38.228,38.238l-6.901-10.059c0-19.445,15.746-35.201,35.18-35.201L255.479,216.916z"/>
</g>
</svg>
