<?xml version="1.0" encoding="utf-8"?>
<!-- Generator: Adobe Illustrator 16.0.0, SVG Export Plug-In . SVG Version: 6.00 Build 0)  -->
<!DOCTYPE svg PUBLIC "-//W3C//DTD SVG 1.1//EN" "http://www.w3.org/Graphics/SVG/1.1/DTD/svg11.dtd">
<svg version="1.1" id="Layer_1" xmlns="http://www.w3.org/2000/svg" xmlns:xlink="http://www.w3.org/1999/xlink" x="0px" y="0px"
	 width="256px" height="256px" viewBox="0 0 256 256" enable-background="new 0 0 256 256" xml:space="preserve">
<g>
	<path fill="#898989" stroke="#777777" stroke-linecap="round" stroke-linejoin="round" stroke-miterlimit="10" d="M217.251,64.846
		l-6.901,10.059H45.65l-6.901-10.059C39.211,63.719,216.788,63.719,217.251,64.846z"/>
	<path fill="#7F7F7F" stroke="#777777" stroke-linecap="round" stroke-linejoin="round" stroke-miterlimit="10" d="M45.648,74.902
		c0,19.445-15.747,35.203-35.179,35.203l-9.949-7.021c23.525-5.623,34.653-19.887,38.228-38.238L45.648,74.902z"/>
	<path fill="#898989" stroke="#777777" stroke-linecap="round" stroke-linejoin="round" stroke-miterlimit="10" d="M10.472,110.105
		v35.79l-9.949,7.02c-0.695-0.75-0.695-49.081,0-49.831L10.472,110.105z"/>
	<path fill="#737373" stroke="#777777" stroke-linecap="round" stroke-linejoin="round" stroke-miterlimit="10" d="M245.527,110.105
		v35.79c-19.434,0-35.18,15.756-35.18,35.201H45.648c0-19.445-15.747-35.201-35.181-35.201v-35.79
		c19.434,0,35.181-15.758,35.181-35.203h164.699C210.35,94.35,226.096,110.105,245.527,110.105z"/>
	<path fill="#6F6F6F" stroke="#777777" stroke-linecap="round" stroke-linejoin="round" stroke-miterlimit="10" d="M255.479,103.084
		l-9.949,7.021c-19.434,0-35.18-15.758-35.18-35.203l6.901-10.059C220.66,82.354,235.787,98.377,255.479,103.084z"/>
	<path fill="#626262" stroke="#777777" stroke-linecap="round" stroke-linejoin="round" stroke-miterlimit="10" d="M255.479,152.916
		l-9.949-7.021v-35.789l9.949-7.021C256.174,103.834,256.174,152.166,255.479,152.916z"/>
	<path fill="#626262" stroke="#777777" stroke-linecap="round" stroke-linejoin="round" stroke-miterlimit="10" d="M217.251,191.154
		c-0.463,1.127-178.04,1.127-178.502,0l6.901-10.059H210.35L217.251,191.154z"/>
	<path fill="#6F6F6F" stroke="#777777" stroke-linecap="round" stroke-linejoin="round" stroke-miterlimit="10" d="M45.648,181.096
		l-6.9,10.061c-3.451-17.723-15.327-32.766-38.228-38.238l9.949-7.02C29.903,145.895,45.648,161.65,45.648,181.096z"/>
	<path fill="#5E5E5E" stroke="#777777" stroke-linecap="round" stroke-linejoin="round" stroke-miterlimit="10" d="M255.479,152.916
		c-20.271,4.848-34.56,19.402-38.228,38.238l-6.901-10.059c0-19.445,15.746-35.201,35.18-35.201L255.479,152.916z"/>
</g>
</svg>
