<?xml version="1.0" encoding="utf-8"?>
<!-- Generator: Adobe Illustrator 16.0.0, SVG Export Plug-In . SVG Version: 6.00 Build 0)  -->
<!DOCTYPE svg PUBLIC "-//W3C//DTD SVG 1.1//EN" "http://www.w3.org/Graphics/SVG/1.1/DTD/svg11.dtd">
<svg version="1.1" id="Layer_1" xmlns="http://www.w3.org/2000/svg" xmlns:xlink="http://www.w3.org/1999/xlink" x="0px" y="0px"
	 width="256px" height="256px" viewBox="0 351 256 256" enable-background="new 0 351 256 256" xml:space="preserve">
<g>
	<path fill="#D4D4D4" stroke="#B8B8B8" stroke-linecap="round" stroke-linejoin="round" stroke-miterlimit="10" d="M217.251,351.844
		l-6.901,10.059h-164.7l-6.901-10.059C39.211,350.719,216.788,350.719,217.251,351.844z"/>
	<path fill="#C5C5C5" stroke="#B8B8B8" stroke-linecap="round" stroke-linejoin="round" stroke-miterlimit="10" d="M45.649,361.902
		c0,19.445-15.747,35.203-35.18,35.203l-9.949-7.022c23.526-5.623,34.654-19.886,38.228-38.239L45.649,361.902z"/>
	<path fill="#D4D4D4" stroke="#B8B8B8" stroke-linecap="round" stroke-linejoin="round" stroke-miterlimit="10" d="M10.471,397.105
		v163.789l-9.949,7.021c-0.695-0.75-0.695-177.083,0-177.833L10.471,397.105z"/>
	<path fill="#BBBBBB" stroke="#B8B8B8" stroke-linecap="round" stroke-linejoin="round" stroke-miterlimit="10" d="M245.529,397.105
		v163.789c-19.434,0-35.18,15.756-35.18,35.201h-164.7c0-19.445-15.747-35.201-35.18-35.201V397.105
		c19.433,0,35.18-15.758,35.18-35.203h164.7C210.35,381.348,226.096,397.105,245.529,397.105z"/>
	<path fill="#ADADAD" stroke="#B8B8B8" stroke-linecap="round" stroke-linejoin="round" stroke-miterlimit="10" d="M255.479,390.083
		l-9.949,7.022c-19.434,0-35.18-15.758-35.18-35.203l6.901-10.059C220.66,369.354,235.787,385.377,255.479,390.083z"/>
	<path fill="#999999" stroke="#B8B8B8" stroke-linecap="round" stroke-linejoin="round" stroke-miterlimit="10" d="M255.479,567.916
		l-9.949-7.021V397.105l9.949-7.022C256.174,390.833,256.174,567.166,255.479,567.916z"/>
	<path fill="#999999" stroke="#B8B8B8" stroke-linecap="round" stroke-linejoin="round" stroke-miterlimit="10" d="M217.251,606.154
		c-0.463,1.127-178.04,1.127-178.502,0l6.901-10.059h164.7L217.251,606.154z"/>
	<path fill="#ADADAD" stroke="#B8B8B8" stroke-linecap="round" stroke-linejoin="round" stroke-miterlimit="10" d="M45.649,596.096
		l-6.901,10.061c-3.451-17.723-15.327-32.766-38.228-38.239l9.949-7.021C29.903,560.895,45.649,576.65,45.649,596.096z"/>
	<path fill="#939393" stroke="#B8B8B8" stroke-linecap="round" stroke-linejoin="round" stroke-miterlimit="10" d="M255.479,567.916
		c-20.273,4.848-34.56,19.402-38.228,38.238l-6.901-10.059c0-19.445,15.746-35.201,35.18-35.201L255.479,567.916z"/>
</g>
</svg>
