<?xml version="1.0" encoding="utf-8"?>
<!-- Generator: Adobe Illustrator 16.0.0, SVG Export Plug-In . SVG Version: 6.00 Build 0)  -->
<!DOCTYPE svg PUBLIC "-//W3C//DTD SVG 1.1//EN" "http://www.w3.org/Graphics/SVG/1.1/DTD/svg11.dtd">
<svg version="1.1" id="Layer_1" xmlns="http://www.w3.org/2000/svg" xmlns:xlink="http://www.w3.org/1999/xlink" x="0px" y="0px"
	 width="256px" height="256px" viewBox="343.483 0 256 256" enable-background="new 343.483 0 256 256" xml:space="preserve">
<g>
	<path fill="#D4D4D4" stroke="#B8B8B8" stroke-linecap="round" stroke-linejoin="round" stroke-miterlimit="10" d="M560.734,64.844
		l-6.902,10.059H389.133l-6.9-10.059C382.695,63.719,560.271,63.719,560.734,64.844z"/>
	<path fill="#C5C5C5" stroke="#B8B8B8" stroke-linecap="round" stroke-linejoin="round" stroke-miterlimit="10" d="M389.133,74.902
		c0,19.445-15.748,35.203-35.18,35.203l-9.949-7.022c23.525-5.623,34.654-19.886,38.229-38.239L389.133,74.902z"/>
	<path fill="#D4D4D4" stroke="#B8B8B8" stroke-linecap="round" stroke-linejoin="round" stroke-miterlimit="10" d="M353.953,110.105
		v35.789l-9.949,7.021c-0.693-0.75-0.693-49.083,0-49.833L353.953,110.105z"/>
	<path fill="#BBBBBB" stroke="#B8B8B8" stroke-linecap="round" stroke-linejoin="round" stroke-miterlimit="10" d="M589.012,110.105
		v35.789c-19.434,0-35.18,15.756-35.18,35.201H389.133c0-19.445-15.748-35.201-35.18-35.201v-35.789
		c19.432,0,35.18-15.758,35.18-35.203h164.699C553.832,94.348,569.578,110.105,589.012,110.105z"/>
	<path fill="#ADADAD" stroke="#B8B8B8" stroke-linecap="round" stroke-linejoin="round" stroke-miterlimit="10" d="M598.961,103.083
		l-9.949,7.022c-19.434,0-35.18-15.758-35.18-35.203l6.902-10.059C564.143,82.354,579.27,98.377,598.961,103.083z"/>
	<path fill="#999999" stroke="#B8B8B8" stroke-linecap="round" stroke-linejoin="round" stroke-miterlimit="10" d="M598.961,152.916
		l-9.949-7.021v-35.789l9.949-7.022C599.656,103.833,599.656,152.166,598.961,152.916z"/>
	<path fill="#999999" stroke="#B8B8B8" stroke-linecap="round" stroke-linejoin="round" stroke-miterlimit="10" d="M560.734,191.154
		c-0.463,1.127-178.039,1.127-178.502,0l6.9-10.059h164.699L560.734,191.154z"/>
	<path fill="#ADADAD" stroke="#B8B8B8" stroke-linecap="round" stroke-linejoin="round" stroke-miterlimit="10" d="M389.133,181.096
		l-6.9,10.061c-3.451-17.723-15.328-32.766-38.229-38.239l9.949-7.021C373.387,145.895,389.133,161.65,389.133,181.096z"/>
	<path fill="#939393" stroke="#B8B8B8" stroke-linecap="round" stroke-linejoin="round" stroke-miterlimit="10" d="M598.961,152.916
		c-20.273,4.848-34.559,19.402-38.227,38.238l-6.902-10.059c0-19.445,15.746-35.201,35.18-35.201L598.961,152.916z"/>
</g>
</svg>
