<?xml version="1.0" encoding="utf-8"?>
<!-- Generator: Adobe Illustrator 16.0.0, SVG Export Plug-In . SVG Version: 6.00 Build 0)  -->
<!DOCTYPE svg PUBLIC "-//W3C//DTD SVG 1.1//EN" "http://www.w3.org/Graphics/SVG/1.1/DTD/svg11.dtd">
<svg version="1.1" id="Layer_1" xmlns="http://www.w3.org/2000/svg" xmlns:xlink="http://www.w3.org/1999/xlink" x="0px" y="0px"
	 width="67.958px" height="80.959px" viewBox="142.667 333.958 67.958 80.959"
	 enable-background="new 142.667 333.958 67.958 80.959" xml:space="preserve">
<g>
	<polygon fill="#323232" stroke="#000000" stroke-width="1.08" stroke-miterlimit="10" points="156.215,341.432 156.215,408.877 
		145.417,413.415 145.417,336.897 	"/>
	<g>
		
			<linearGradient id="SVGID_1_" gradientUnits="userSpaceOnUse" x1="320.4155" y1="-216.7017" x2="320.4155" y2="-289.1102" gradientTransform="matrix(1 0 0 -1 -169.5996 123.0166)">
			<stop  offset="0" style="stop-color:#919191"/>
			<stop  offset="0.7029" style="stop-color:#FFFFFF"/>
			<stop  offset="1" style="stop-color:#000000"/>
		</linearGradient>
		<polygon fill="url(#SVGID_1_)" points="156.215,341.432 156.215,408.877 145.417,413.415 145.417,336.897 		"/>
		<polygon fill="none" stroke="#000000" stroke-width="1.08" stroke-miterlimit="10" points="156.215,341.432 156.215,408.877 
			145.417,413.415 145.417,336.897 		"/>
	</g>
	<g>
		<g id="Lever_1_">
			<g>
				<defs>
					<path id="SVGID_2_" d="M189.507,348.237v52.865c0,1.107-0.379,1.512-1.434,1.512h-31.858v-55.809h31.78
						C189.103,346.805,189.507,347.184,189.507,348.237z"/>
				</defs>
				<clipPath id="SVGID_3_">
					<use xlink:href="#SVGID_2_"  overflow="visible"/>
				</clipPath>
				<g clip-path="url(#SVGID_3_)">
					<g>
						<g>
							<defs>
								<rect id="SVGID_4_" x="156.215" y="398.997" width="5.402" height="5.4"/>
							</defs>
							<defs>
								<rect id="SVGID_5_" x="156.215" y="398.997" width="5.402" height="5.4"/>
							</defs>
							<defs>
								<rect id="SVGID_6_" x="156.215" y="398.997" width="5.402" height="5.4"/>
							</defs>
							<defs>
								<rect id="SVGID_7_" x="156.215" y="398.997" width="5.402" height="5.4"/>
							</defs>
							<defs>
								<rect id="SVGID_8_" x="156.215" y="398.997" width="5.402" height="5.4"/>
							</defs>
							<clipPath id="SVGID_9_">
								<use xlink:href="#SVGID_4_"  overflow="visible"/>
							</clipPath>
							<clipPath id="SVGID_10_" clip-path="url(#SVGID_9_)">
								<use xlink:href="#SVGID_5_"  overflow="visible"/>
							</clipPath>
							<clipPath id="SVGID_11_" clip-path="url(#SVGID_10_)">
								<use xlink:href="#SVGID_6_"  overflow="visible"/>
							</clipPath>
							<clipPath id="SVGID_12_" clip-path="url(#SVGID_11_)">
								<use xlink:href="#SVGID_7_"  overflow="visible"/>
							</clipPath>
							<clipPath id="SVGID_13_" clip-path="url(#SVGID_12_)">
								<use xlink:href="#SVGID_8_"  overflow="visible"/>
							</clipPath>
							<g clip-path="url(#SVGID_13_)">
								<path fill="#AFAFAD" d="M160.267,403.047c-0.746,0-1.351,0.604-1.351,1.35c0.746,0,1.351,0.604,1.351,1.35
									c0.746,0,1.351-0.604,1.351-1.35C160.87,404.397,160.267,403.792,160.267,403.047z"/>
								<path fill="#DCDBDB" d="M158.917,404.397c-0.746,0-1.35-0.605-1.35-1.35c-0.748,0-1.352,0.604-1.352,1.35
									c0.748,0,1.352,0.604,1.352,1.35C158.312,405.747,158.917,405.143,158.917,404.397z"/>
							</g>
							<g clip-path="url(#SVGID_13_)">
								<path fill="#555655" d="M161.618,401.696c0,0.746-0.604,1.352-1.352,1.352c0,0.746,0.604,1.35,1.352,1.35
									c0-0.744,0.604-1.35,1.348-1.35C162.965,402.299,162.362,401.696,161.618,401.696z"/>
								<path fill="#231F20" d="M160.267,400.346c0,0.746,0.604,1.35,1.351,1.35c0-0.744,0.604-1.35,1.35-1.35
									c0-0.746-0.604-1.35-1.35-1.35C161.618,399.743,161.013,400.346,160.267,400.346z"/>
							</g>
							<g clip-path="url(#SVGID_13_)">
								<path fill="#AFAFAD" d="M160.267,403.047c-0.746,0-1.351,0.604-1.351,1.35c0.746,0,1.351,0.604,1.351,1.35
									c0.746,0,1.351-0.604,1.351-1.35C160.87,404.397,160.267,403.792,160.267,403.047z"/>
								<path fill="#DCDBDB" d="M158.917,404.397c-0.746,0-1.35-0.605-1.35-1.35c-0.748,0-1.352,0.604-1.352,1.35
									c0.748,0,1.352,0.604,1.352,1.35C158.312,405.747,158.917,405.143,158.917,404.397z"/>
								<path fill="#231F20" d="M157.567,403.047c0,0.744,0.604,1.35,1.35,1.35c0-0.746,0.604-1.35,1.351-1.35
									c0-0.748-0.604-1.352-1.351-1.352C158.917,402.442,158.312,403.047,157.567,403.047z"/>
								<path fill="#AFAFAD" d="M157.567,400.346c-0.748,0-1.352,0.604-1.352,1.35c0.748,0,1.352,0.604,1.352,1.352
									c0.745,0,1.35-0.604,1.35-1.352C158.17,401.696,157.567,401.092,157.567,400.346z"/>
								<path fill="#555655" d="M156.215,401.696c0,0.746-0.604,1.352-1.348,1.352c0,0.746,0.604,1.35,1.348,1.35
									c0-0.744,0.604-1.35,1.353-1.35C157.567,402.299,156.963,401.696,156.215,401.696z"/>
								<path fill="#231F20" d="M154.868,400.346c0,0.746,0.604,1.35,1.348,1.35c0-0.744,0.604-1.35,1.353-1.35
									c0-0.746-0.604-1.35-1.353-1.35C156.215,399.743,155.612,400.346,154.868,400.346z"/>
								<path fill="#555655" d="M161.618,401.696c0,0.746-0.604,1.352-1.352,1.352c0,0.746,0.604,1.35,1.352,1.35
									c0-0.744,0.604-1.35,1.348-1.35C162.965,402.299,162.362,401.696,161.618,401.696z"/>
								<path fill="#DCDBDB" d="M161.618,401.696c-0.748,0-1.352-0.604-1.352-1.35c-0.746,0-1.352,0.604-1.352,1.35
									c0.748,0,1.352,0.604,1.352,1.352C161.013,403.047,161.618,402.442,161.618,401.696z"/>
								<path fill="#231F20" d="M160.267,400.346c0,0.746,0.604,1.35,1.351,1.35c0-0.744,0.604-1.35,1.35-1.35
									c0-0.746-0.604-1.35-1.35-1.35C161.618,399.743,161.013,400.346,160.267,400.346z"/>
								<path fill="#AFAFAD" d="M160.267,397.647c-0.746,0-1.351,0.604-1.351,1.35c0.746,0,1.351,0.605,1.351,1.352
									c0.746,0,1.351-0.605,1.351-1.352C160.87,398.997,160.267,398.393,160.267,397.647z"/>
								<path fill="#555655" d="M158.917,398.997c0,0.746-0.604,1.352-1.35,1.352c0,0.746,0.604,1.35,1.35,1.35
									c0-0.746,0.604-1.35,1.351-1.35C160.267,399.6,159.663,398.997,158.917,398.997z"/>
								<path fill="#DCDBDB" d="M158.917,398.997c-0.746,0-1.35-0.604-1.35-1.35c-0.748,0-1.352,0.604-1.352,1.35
									c0.748,0,1.352,0.605,1.352,1.352C158.312,400.346,158.917,399.743,158.917,398.997z"/>
							</g>
							<g clip-path="url(#SVGID_13_)">
								<path fill="#555655" d="M156.215,401.696c0,0.746-0.604,1.352-1.348,1.352c0,0.746,0.604,1.35,1.348,1.35
									c0-0.744,0.604-1.35,1.353-1.35C157.567,402.299,156.963,401.696,156.215,401.696z"/>
								<path fill="#231F20" d="M154.868,400.346c0,0.746,0.604,1.35,1.348,1.35c0-0.744,0.604-1.35,1.353-1.35
									c0-0.746-0.604-1.35-1.353-1.35C156.215,399.743,155.612,400.346,154.868,400.346z"/>
							</g>
							<g clip-path="url(#SVGID_13_)">
								<path fill="#AFAFAD" d="M160.267,397.647c-0.746,0-1.351,0.604-1.351,1.35c0.746,0,1.351,0.605,1.351,1.352
									c0.746,0,1.351-0.605,1.351-1.352C160.87,398.997,160.267,398.393,160.267,397.647z"/>
								<path fill="#DCDBDB" d="M158.917,398.997c-0.746,0-1.35-0.604-1.35-1.35c-0.748,0-1.352,0.604-1.352,1.35
									c0.748,0,1.352,0.605,1.352,1.352C158.312,400.346,158.917,399.743,158.917,398.997z"/>
							</g>
						</g>
					</g>
				</g>
			</g>
			<g>
				
					<linearGradient id="SVGID_14_" gradientUnits="userSpaceOnUse" x1="342.4614" y1="-224.0044" x2="342.4614" y2="-279.3583" gradientTransform="matrix(1 0 0 -1 -169.5996 123.0166)">
					<stop  offset="0" style="stop-color:#919191"/>
					<stop  offset="0.7029" style="stop-color:#FFFFFF"/>
					<stop  offset="1" style="stop-color:#000000"/>
				</linearGradient>
				<path fill="url(#SVGID_14_)" d="M189.507,348.237v52.865c0,1.107-0.377,1.512-1.43,1.512h-31.862v-55.809h31.78
					C189.104,346.805,189.507,347.184,189.507,348.237z"/>
				<path fill="none" stroke="#000000" stroke-width="1.08" stroke-miterlimit="10" d="M189.507,348.237v52.865
					c0,1.107-0.377,1.512-1.43,1.512h-31.862v-55.809h31.78C189.104,346.805,189.507,347.184,189.507,348.237z"/>
			</g>
		</g>
	</g>
</g>
</svg>
