<?xml version="1.0" encoding="utf-8"?>
<!-- Generator: Adobe Illustrator 16.0.0, SVG Export Plug-In . SVG Version: 6.00 Build 0)  -->
<!DOCTYPE svg PUBLIC "-//W3C//DTD SVG 1.1//EN" "http://www.w3.org/Graphics/SVG/1.1/DTD/svg11.dtd">
<svg version="1.1" id="Layer_1" xmlns="http://www.w3.org/2000/svg" xmlns:xlink="http://www.w3.org/1999/xlink" x="0px" y="0px"
	 width="18.896px" height="38.178px" viewBox="0 0 18.896 38.178" enable-background="new 0 0 18.896 38.178" xml:space="preserve">
<g>
	<g>
		<g id="Lever_6_">
			<path fill="#676767" stroke="#000000" stroke-width="1.08" stroke-miterlimit="10" d="M18.899,19.088
				c0,6.99-8.459,14.051-18.9,14.051v4.85C10.44,37.989,18.899,29.508,18.899,19.088z"/>
			<path fill="#FFFFFF" stroke="#000000" stroke-width="1.08" stroke-miterlimit="10" d="M18.899,19.088
				c0-10.448-8.459-18.898-18.9-18.898v1.33C10.44,1.519,18.899,12.696,18.899,19.088z"/>
			<path fill="#848484" stroke="#000000" stroke-width="1.08" stroke-miterlimit="10" d="M18.899,19.088
				c0,2.378-8.459,7.191-18.9,7.191v6.859C10.44,33.139,18.899,26.079,18.899,19.088z"/>
			<path fill="#F0F0F0" stroke="#000000" stroke-width="1.08" stroke-miterlimit="10" d="M18.899,19.088
				c0-6.601-8.459-17.569-18.9-17.569v6.859C10.44,8.379,18.899,16.28,18.899,19.088z"/>
			<path fill="#929292" stroke="#000000" stroke-width="1.08" stroke-miterlimit="10" d="M18.899,19.088
				c0,0.649-8.459,1.741-18.9,1.741v5.45C10.44,26.279,18.899,21.488,18.899,19.088z"/>
			<path fill="#DEDEDE" stroke="#000000" stroke-width="1.08" stroke-miterlimit="10" d="M18.899,19.088
				c0-2.85-8.459-10.709-18.9-10.709v5.45C10.44,13.829,18.899,17.96,18.899,19.088z"/>
			<path fill="#727272" stroke="#000000" stroke-width="1.08" stroke-miterlimit="10" d="M18.899,19.088
				c0.001-1.647-8.459-5.259-18.9-5.259v4.273C-0.002,18.103,16.588,18.294,18.899,19.088z"/>
			<path fill="#C1C1C1" stroke="#000000" stroke-width="1.08" stroke-miterlimit="10" d="M18.899,19.089
				c-0.005,0.655-8.462,1.74-18.9,1.74l0.001-2.727C10.441,18.103,18.9,18.821,18.899,19.089L18.899,19.089z"/>
		</g>
	</g>
</g>
</svg>
