<?xml version="1.0" encoding="utf-8"?>
<!-- Generator: Adobe Illustrator 16.0.0, SVG Export Plug-In . SVG Version: 6.00 Build 0)  -->
<!DOCTYPE svg PUBLIC "-//W3C//DTD SVG 1.1//EN" "http://www.w3.org/Graphics/SVG/1.1/DTD/svg11.dtd">
<svg version="1.1" id="Layer_1" xmlns="http://www.w3.org/2000/svg" xmlns:xlink="http://www.w3.org/1999/xlink" x="0px" y="0px"
	 width="67.958px" height="80.959px" viewBox="0 0 67.958 80.959" enable-background="new 0 0 67.958 80.959" xml:space="preserve">
<g>
	<polygon fill="#323232" stroke="#000000" stroke-width="1.08" stroke-miterlimit="10" points="22.733,6.756 22.733,74.2 
		11.934,78.738 11.934,2.221 	"/>
	<g>
		
			<linearGradient id="SVGID_1_" gradientUnits="userSpaceOnUse" x1="-27.4668" y1="814.9258" x2="-27.4668" y2="887.3343" gradientTransform="matrix(1 0 0 1 44.8003 -809.8828)">
			<stop  offset="0" style="stop-color:#919191"/>
			<stop  offset="0.7029" style="stop-color:#FFFFFF"/>
			<stop  offset="1" style="stop-color:#000000"/>
		</linearGradient>
		<polygon fill="url(#SVGID_1_)" points="22.733,6.756 22.733,74.2 11.934,78.738 11.934,2.221 		"/>
		<polygon fill="none" stroke="#000000" stroke-width="1.08" stroke-miterlimit="10" points="22.733,6.756 22.733,74.2 
			11.934,78.738 11.934,2.221 		"/>
	</g>
	<g>
		<g>
			<g>
				<g id="Lever_1_">
					<defs>
						<path id="SVGID_2_" d="M56.024,13.561v52.865c0,1.106-0.379,1.512-1.434,1.512H22.733V12.129h31.779
							C55.621,12.129,56.024,12.508,56.024,13.561z"/>
					</defs>
					<clipPath id="SVGID_3_">
						<use xlink:href="#SVGID_2_"  overflow="visible"/>
					</clipPath>
					<g clip-path="url(#SVGID_3_)">
						<g>
							<g>
								<g>
									<defs>
										<rect id="SVGID_4_" x="22.733" y="64.32" width="5.402" height="5.4"/>
									</defs>
									<defs>
										<rect id="SVGID_5_" x="22.733" y="64.32" width="5.402" height="5.4"/>
									</defs>
									<defs>
										<rect id="SVGID_6_" x="22.733" y="64.32" width="5.402" height="5.4"/>
									</defs>
									<defs>
										<rect id="SVGID_7_" x="22.733" y="64.32" width="5.402" height="5.4"/>
									</defs>
									<defs>
										<rect id="SVGID_8_" x="22.733" y="64.32" width="5.402" height="5.4"/>
									</defs>
									<defs>
										<rect id="SVGID_9_" x="22.733" y="64.32" width="5.402" height="5.4"/>
									</defs>
									<defs>
										<rect id="SVGID_10_" x="22.733" y="64.32" width="5.402" height="5.4"/>
									</defs>
									<defs>
										<rect id="SVGID_11_" x="22.733" y="64.32" width="5.402" height="5.4"/>
									</defs>
									<defs>
										<rect id="SVGID_12_" x="22.733" y="64.32" width="5.402" height="5.4"/>
									</defs>
									<defs>
										<rect id="SVGID_13_" x="22.733" y="64.32" width="5.402" height="5.4"/>
									</defs>
									<defs>
										<rect id="SVGID_14_" x="22.733" y="64.32" width="5.402" height="5.4"/>
									</defs>
									<defs>
										<rect id="SVGID_15_" x="22.733" y="64.32" width="5.402" height="5.4"/>
									</defs>
									<defs>
										<rect id="SVGID_16_" x="22.733" y="64.32" width="5.402" height="5.4"/>
									</defs>
									<defs>
										<rect id="SVGID_17_" x="22.733" y="64.32" width="5.402" height="5.4"/>
									</defs>
									<defs>
										<rect id="SVGID_18_" x="22.733" y="64.32" width="5.402" height="5.4"/>
									</defs>
									<defs>
										<rect id="SVGID_19_" x="22.733" y="64.32" width="5.402" height="5.4"/>
									</defs>
									<defs>
										<rect id="SVGID_20_" x="22.733" y="64.32" width="5.402" height="5.4"/>
									</defs>
									<defs>
										<rect id="SVGID_21_" x="22.733" y="64.32" width="5.402" height="5.4"/>
									</defs>
									<defs>
										<rect id="SVGID_22_" x="22.733" y="64.32" width="5.402" height="5.4"/>
									</defs>
									<defs>
										<rect id="SVGID_23_" x="22.733" y="64.32" width="5.402" height="5.4"/>
									</defs>
									<defs>
										<rect id="SVGID_24_" x="22.733" y="64.32" width="5.402" height="5.4"/>
									</defs>
									<defs>
										<rect id="SVGID_25_" x="22.733" y="64.32" width="5.402" height="5.4"/>
									</defs>
									<defs>
										<rect id="SVGID_26_" x="22.733" y="64.32" width="5.402" height="5.4"/>
									</defs>
									<defs>
										<rect id="SVGID_27_" x="22.733" y="64.32" width="5.402" height="5.4"/>
									</defs>
									<defs>
										<rect id="SVGID_28_" x="22.733" y="64.32" width="5.402" height="5.4"/>
									</defs>
									<defs>
										<rect id="SVGID_29_" x="22.733" y="64.32" width="5.402" height="5.4"/>
									</defs>
									<defs>
										<rect id="SVGID_30_" x="22.733" y="64.32" width="5.402" height="5.4"/>
									</defs>
									<defs>
										<rect id="SVGID_31_" x="22.733" y="64.32" width="5.402" height="5.4"/>
									</defs>
									<defs>
										<rect id="SVGID_32_" x="22.733" y="64.32" width="5.402" height="5.4"/>
									</defs>
									<defs>
										<rect id="SVGID_33_" x="22.733" y="64.32" width="5.402" height="5.4"/>
									</defs>
									<defs>
										<rect id="SVGID_34_" x="22.733" y="64.32" width="5.402" height="5.4"/>
									</defs>
									<defs>
										<rect id="SVGID_35_" x="22.733" y="64.32" width="5.402" height="5.4"/>
									</defs>
									<defs>
										<rect id="SVGID_36_" x="22.733" y="64.32" width="5.402" height="5.4"/>
									</defs>
									<defs>
										<rect id="SVGID_37_" x="22.733" y="64.32" width="5.402" height="5.4"/>
									</defs>
									<defs>
										<rect id="SVGID_38_" x="22.733" y="64.32" width="5.402" height="5.4"/>
									</defs>
									<clipPath id="SVGID_39_">
										<use xlink:href="#SVGID_4_"  overflow="visible"/>
									</clipPath>
									<clipPath id="SVGID_40_" clip-path="url(#SVGID_39_)">
										<use xlink:href="#SVGID_5_"  overflow="visible"/>
									</clipPath>
									<clipPath id="SVGID_41_" clip-path="url(#SVGID_40_)">
										<use xlink:href="#SVGID_6_"  overflow="visible"/>
									</clipPath>
									<clipPath id="SVGID_42_" clip-path="url(#SVGID_41_)">
										<use xlink:href="#SVGID_7_"  overflow="visible"/>
									</clipPath>
									<clipPath id="SVGID_43_" clip-path="url(#SVGID_42_)">
										<use xlink:href="#SVGID_8_"  overflow="visible"/>
									</clipPath>
									<clipPath id="SVGID_44_" clip-path="url(#SVGID_43_)">
										<use xlink:href="#SVGID_9_"  overflow="visible"/>
									</clipPath>
									<clipPath id="SVGID_45_" clip-path="url(#SVGID_44_)">
										<use xlink:href="#SVGID_10_"  overflow="visible"/>
									</clipPath>
									<clipPath id="SVGID_46_" clip-path="url(#SVGID_45_)">
										<use xlink:href="#SVGID_11_"  overflow="visible"/>
									</clipPath>
									<clipPath id="SVGID_47_" clip-path="url(#SVGID_46_)">
										<use xlink:href="#SVGID_12_"  overflow="visible"/>
									</clipPath>
									<clipPath id="SVGID_48_" clip-path="url(#SVGID_47_)">
										<use xlink:href="#SVGID_13_"  overflow="visible"/>
									</clipPath>
									<clipPath id="SVGID_49_" clip-path="url(#SVGID_48_)">
										<use xlink:href="#SVGID_14_"  overflow="visible"/>
									</clipPath>
									<clipPath id="SVGID_50_" clip-path="url(#SVGID_49_)">
										<use xlink:href="#SVGID_15_"  overflow="visible"/>
									</clipPath>
									<clipPath id="SVGID_51_" clip-path="url(#SVGID_50_)">
										<use xlink:href="#SVGID_16_"  overflow="visible"/>
									</clipPath>
									<clipPath id="SVGID_52_" clip-path="url(#SVGID_51_)">
										<use xlink:href="#SVGID_17_"  overflow="visible"/>
									</clipPath>
									<clipPath id="SVGID_53_" clip-path="url(#SVGID_52_)">
										<use xlink:href="#SVGID_18_"  overflow="visible"/>
									</clipPath>
									<clipPath id="SVGID_54_" clip-path="url(#SVGID_53_)">
										<use xlink:href="#SVGID_19_"  overflow="visible"/>
									</clipPath>
									<clipPath id="SVGID_55_" clip-path="url(#SVGID_54_)">
										<use xlink:href="#SVGID_20_"  overflow="visible"/>
									</clipPath>
									<clipPath id="SVGID_56_" clip-path="url(#SVGID_55_)">
										<use xlink:href="#SVGID_21_"  overflow="visible"/>
									</clipPath>
									<clipPath id="SVGID_57_" clip-path="url(#SVGID_56_)">
										<use xlink:href="#SVGID_22_"  overflow="visible"/>
									</clipPath>
									<clipPath id="SVGID_58_" clip-path="url(#SVGID_57_)">
										<use xlink:href="#SVGID_23_"  overflow="visible"/>
									</clipPath>
									<clipPath id="SVGID_59_" clip-path="url(#SVGID_58_)">
										<use xlink:href="#SVGID_24_"  overflow="visible"/>
									</clipPath>
									<clipPath id="SVGID_60_" clip-path="url(#SVGID_59_)">
										<use xlink:href="#SVGID_25_"  overflow="visible"/>
									</clipPath>
									<clipPath id="SVGID_61_" clip-path="url(#SVGID_60_)">
										<use xlink:href="#SVGID_26_"  overflow="visible"/>
									</clipPath>
									<clipPath id="SVGID_62_" clip-path="url(#SVGID_61_)">
										<use xlink:href="#SVGID_27_"  overflow="visible"/>
									</clipPath>
									<clipPath id="SVGID_63_" clip-path="url(#SVGID_62_)">
										<use xlink:href="#SVGID_28_"  overflow="visible"/>
									</clipPath>
									<clipPath id="SVGID_64_" clip-path="url(#SVGID_63_)">
										<use xlink:href="#SVGID_29_"  overflow="visible"/>
									</clipPath>
									<clipPath id="SVGID_65_" clip-path="url(#SVGID_64_)">
										<use xlink:href="#SVGID_30_"  overflow="visible"/>
									</clipPath>
									<clipPath id="SVGID_66_" clip-path="url(#SVGID_65_)">
										<use xlink:href="#SVGID_31_"  overflow="visible"/>
									</clipPath>
									<clipPath id="SVGID_67_" clip-path="url(#SVGID_66_)">
										<use xlink:href="#SVGID_32_"  overflow="visible"/>
									</clipPath>
									<clipPath id="SVGID_68_" clip-path="url(#SVGID_67_)">
										<use xlink:href="#SVGID_33_"  overflow="visible"/>
									</clipPath>
									<clipPath id="SVGID_69_" clip-path="url(#SVGID_68_)">
										<use xlink:href="#SVGID_34_"  overflow="visible"/>
									</clipPath>
									<clipPath id="SVGID_70_" clip-path="url(#SVGID_69_)">
										<use xlink:href="#SVGID_35_"  overflow="visible"/>
									</clipPath>
									<clipPath id="SVGID_71_" clip-path="url(#SVGID_70_)">
										<use xlink:href="#SVGID_36_"  overflow="visible"/>
									</clipPath>
									<clipPath id="SVGID_72_" clip-path="url(#SVGID_71_)">
										<use xlink:href="#SVGID_37_"  overflow="visible"/>
									</clipPath>
									<clipPath id="SVGID_73_" clip-path="url(#SVGID_72_)">
										<use xlink:href="#SVGID_38_"  overflow="visible"/>
									</clipPath>
									<g clip-path="url(#SVGID_73_)">
										<path fill="#AFAFAD" d="M26.785,68.37c-0.746,0-1.351,0.604-1.351,1.351c0.746,0,1.351,0.604,1.351,1.35
											c0.746,0,1.351-0.604,1.351-1.35C27.387,69.721,26.785,69.115,26.785,68.37z"/>
										<path fill="#DCDBDB" d="M25.434,69.721c-0.746,0-1.35-0.605-1.35-1.351c-0.748,0-1.352,0.604-1.352,1.351
											c0.748,0,1.352,0.604,1.352,1.35C24.83,71.07,25.434,70.467,25.434,69.721z"/>
									</g>
									<g clip-path="url(#SVGID_73_)">
										<path fill="#555655" d="M28.135,67.02c0,0.746-0.604,1.352-1.352,1.352c0,0.746,0.604,1.35,1.352,1.35
											c0-0.744,0.604-1.35,1.348-1.35C29.483,67.622,28.879,67.02,28.135,67.02z"/>
										<path fill="#231F20" d="M26.785,65.67c0,0.746,0.604,1.35,1.351,1.35c0-0.744,0.604-1.35,1.35-1.35
											c0-0.746-0.604-1.351-1.35-1.351C28.135,65.066,27.531,65.67,26.785,65.67z"/>
									</g>
									<g clip-path="url(#SVGID_73_)">
										<path fill="#AFAFAD" d="M26.785,68.37c-0.746,0-1.351,0.604-1.351,1.351c0.746,0,1.351,0.604,1.351,1.35
											c0.746,0,1.351-0.604,1.351-1.35C27.387,69.721,26.785,69.115,26.785,68.37z"/>
										<path fill="#DCDBDB" d="M25.434,69.721c-0.746,0-1.35-0.605-1.35-1.351c-0.748,0-1.352,0.604-1.352,1.351
											c0.748,0,1.352,0.604,1.352,1.35C24.83,71.07,25.434,70.467,25.434,69.721z"/>
										<path fill="#231F20" d="M24.084,68.37c0,0.744,0.604,1.351,1.35,1.351c0-0.746,0.604-1.351,1.352-1.351
											c0-0.748-0.604-1.353-1.352-1.353C25.434,67.766,24.83,68.37,24.084,68.37z"/>
										<path fill="#AFAFAD" d="M24.084,65.67c-0.748,0-1.352,0.604-1.352,1.35c0.748,0,1.352,0.604,1.352,1.352
											c0.745,0,1.35-0.604,1.35-1.352C24.688,67.02,24.084,66.416,24.084,65.67z"/>
										<path fill="#555655" d="M22.733,67.02c0,0.746-0.604,1.352-1.348,1.352c0,0.746,0.604,1.35,1.348,1.35
											c0-0.744,0.604-1.35,1.353-1.35C24.084,67.622,23.481,67.02,22.733,67.02z"/>
										<path fill="#231F20" d="M21.385,65.67c0,0.746,0.604,1.35,1.348,1.35c0-0.744,0.604-1.35,1.354-1.35
											c0-0.746-0.604-1.351-1.354-1.351C22.733,65.066,22.129,65.67,21.385,65.67z"/>
										<path fill="#555655" d="M28.135,67.02c0,0.746-0.604,1.352-1.352,1.352c0,0.746,0.604,1.35,1.352,1.35
											c0-0.744,0.604-1.35,1.348-1.35C29.483,67.622,28.879,67.02,28.135,67.02z"/>
										<path fill="#DCDBDB" d="M28.135,67.02c-0.748,0-1.352-0.604-1.352-1.35c-0.746,0-1.352,0.604-1.352,1.35
											c0.748,0,1.352,0.604,1.352,1.352C27.531,68.37,28.135,67.766,28.135,67.02z"/>
										<path fill="#231F20" d="M26.785,65.67c0,0.746,0.604,1.35,1.351,1.35c0-0.744,0.604-1.35,1.35-1.35
											c0-0.746-0.604-1.351-1.35-1.351C28.135,65.066,27.531,65.67,26.785,65.67z"/>
										<path fill="#AFAFAD" d="M26.785,62.971c-0.746,0-1.351,0.604-1.351,1.35c0.746,0,1.351,0.605,1.351,1.352
											c0.746,0,1.351-0.604,1.351-1.352C27.387,64.32,26.785,63.717,26.785,62.971z"/>
										<path fill="#555655" d="M25.434,64.32c0,0.746-0.604,1.352-1.35,1.352c0,0.746,0.604,1.35,1.35,1.35
											c0-0.745,0.604-1.35,1.352-1.35C26.785,64.924,26.18,64.32,25.434,64.32z"/>
										<path fill="#DCDBDB" d="M25.434,64.32c-0.746,0-1.35-0.604-1.35-1.35c-0.748,0-1.352,0.604-1.352,1.35
											c0.748,0,1.352,0.605,1.352,1.352C24.83,65.67,25.434,65.066,25.434,64.32z"/>
									</g>
									<g clip-path="url(#SVGID_73_)">
										<path fill="#555655" d="M22.733,67.02c0,0.746-0.604,1.352-1.348,1.352c0,0.746,0.604,1.35,1.348,1.35
											c0-0.744,0.604-1.35,1.353-1.35C24.084,67.622,23.481,67.02,22.733,67.02z"/>
										<path fill="#231F20" d="M21.385,65.67c0,0.746,0.604,1.35,1.348,1.35c0-0.744,0.604-1.35,1.354-1.35
											c0-0.746-0.604-1.351-1.354-1.351C22.733,65.066,22.129,65.67,21.385,65.67z"/>
									</g>
									<g clip-path="url(#SVGID_73_)">
										<path fill="#AFAFAD" d="M26.785,62.971c-0.746,0-1.351,0.604-1.351,1.35c0.746,0,1.351,0.605,1.351,1.352
											c0.746,0,1.351-0.604,1.351-1.352C27.387,64.32,26.785,63.717,26.785,62.971z"/>
										<path fill="#DCDBDB" d="M25.434,64.32c-0.746,0-1.35-0.604-1.35-1.35c-0.748,0-1.352,0.604-1.352,1.35
											c0.748,0,1.352,0.605,1.352,1.352C24.83,65.67,25.434,65.066,25.434,64.32z"/>
									</g>
								</g>
							</g>
						</g>
					</g>
					<g clip-path="url(#SVGID_3_)">
						
							<linearGradient id="SVGID_74_" gradientUnits="userSpaceOnUse" x1="-5.4219" y1="822.2275" x2="-5.4219" y2="877.5824" gradientTransform="matrix(1 0 0 1 44.8003 -809.8828)">
							<stop  offset="0" style="stop-color:#919191"/>
							<stop  offset="0.7029" style="stop-color:#FFFFFF"/>
							<stop  offset="1" style="stop-color:#000000"/>
						</linearGradient>
						<path fill="url(#SVGID_74_)" d="M56.024,13.561v52.865c0,1.106-0.377,1.512-1.43,1.512H22.733V12.129h31.779
							C55.622,12.129,56.024,12.508,56.024,13.561z"/>
						<path fill="none" stroke="#000000" stroke-width="1.08" stroke-miterlimit="10" d="M56.024,13.561v52.865
							c0,1.106-0.377,1.512-1.43,1.512H22.733V12.129h31.779C55.622,12.129,56.024,12.508,56.024,13.561z"/>
					</g>
				</g>
			</g>
		</g>
	</g>
</g>
</svg>
