<?xml version="1.0" encoding="utf-8"?>
<!-- Generator: Adobe Illustrator 16.0.0, SVG Export Plug-In . SVG Version: 6.00 Build 0)  -->
<!DOCTYPE svg PUBLIC "-//W3C//DTD SVG 1.1//EN" "http://www.w3.org/Graphics/SVG/1.1/DTD/svg11.dtd">
<svg version="1.1" id="Layer_1" xmlns="http://www.w3.org/2000/svg" xmlns:xlink="http://www.w3.org/1999/xlink" x="0px" y="0px"
	 width="80.458px" height="80.958px" viewBox="24.125 0 80.458 80.958" enable-background="new 24.125 0 80.458 80.958"
	 xml:space="preserve">
<g>
	<path fill="#2F1110" stroke="#000000" stroke-width="1.08" stroke-miterlimit="10" d="M98.465,57.312
		c-1.836,3.591-4.213,6.885-7.129,9.802c-2.809,2.808-6.102,5.238-9.828,7.1c-2.399,1.189-4.885,2.135-7.368,2.781
		c-0.783,0.215-1.597,0.406-2.404,0.566c-0.325,0.055-0.647,0.109-0.971,0.162c-0.298,0.055-0.621,0.107-0.974,0.162
		c-0.026,0-0.057,0.027-0.082,0c-0.242,0.055-0.512,0.082-0.782,0.107c-0.242,0.053-0.511,0.082-0.783,0.082
		c-0.541,0.08-1.078,0.107-1.646,0.135c-1.106,0.082-2.215,0.107-3.321,0.055h-0.324c-0.353,0-0.676-0.027-0.999-0.055
		c-1.835-0.109-3.645-0.352-5.373-0.73c-0.593-0.105-1.16-0.24-1.7-0.404c-0.54-0.105-1.054-0.24-1.565-0.404
		c-0.514-0.135-1.025-0.322-1.54-0.512c-0.08,0-0.161-0.027-0.215-0.082c-9.019-3.157-16.85-9.692-21.521-18.925
		c-7.883-15.689-3.996-34.211,8.371-45.523c-5.399,10.531-5.858,23.355-0.136,34.695c7.724,15.443,24.436,23.327,40.582,20.654
		c3.728-0.594,7.426-1.781,10.936-3.564C92.984,61.767,95.901,59.714,98.465,57.312z"/>
	<path fill="#A41E22" stroke="#000000" stroke-width="1.08" stroke-miterlimit="10" d="M98.575,22.644
		C89.042,3.718,57.989-8.815,38.31,11.628c-5.399,10.531-5.858,23.355-0.136,34.695C45.898,61.766,62.61,69.65,78.756,66.977
		c3.728-0.594,7.426-1.781,10.936-3.564c3.293-1.646,6.21-3.699,8.773-6.102C105.239,46.537,104.27,34.011,98.575,22.644z"/>
</g>
</svg>
