<?xml version="1.0" encoding="utf-8"?>
<!-- Generator: Adobe Illustrator 16.0.0, SVG Export Plug-In . SVG Version: 6.00 Build 0)  -->
<!DOCTYPE svg PUBLIC "-//W3C//DTD SVG 1.1//EN" "http://www.w3.org/Graphics/SVG/1.1/DTD/svg11.dtd">
<svg version="1.1" id="Layer_1" xmlns="http://www.w3.org/2000/svg" xmlns:xlink="http://www.w3.org/1999/xlink" x="0px" y="0px"
	 width="18.897px" height="38.177px" viewBox="123.698 34.31 18.897 38.177" enable-background="new 123.698 34.31 18.897 38.177"
	 xml:space="preserve">
<g>
	<g>
		<g id="Lever_6_">
			<path fill="#676767" stroke="#000000" stroke-width="1.08" stroke-miterlimit="10" d="M142.596,53.209
				c0,6.99-8.459,14.05-18.9,14.05v4.85C134.137,72.11,142.596,63.629,142.596,53.209z"/>
			<path fill="#FFFFFF" stroke="#000000" stroke-width="1.08" stroke-miterlimit="10" d="M142.596,53.209
				c0-10.449-8.459-18.899-18.9-18.899v1.33C134.137,35.64,142.596,46.817,142.596,53.209z"/>
			<path fill="#848484" stroke="#000000" stroke-width="1.08" stroke-miterlimit="10" d="M142.596,53.209
				c0,2.378-8.459,7.191-18.9,7.191v6.859C134.137,67.26,142.596,60.2,142.596,53.209z"/>
			<path fill="#F0F0F0" stroke="#000000" stroke-width="1.08" stroke-miterlimit="10" d="M142.596,53.209
				c0-6.601-8.459-17.57-18.9-17.57v6.86C134.137,42.5,142.596,50.401,142.596,53.209z"/>
			<path fill="#929292" stroke="#000000" stroke-width="1.08" stroke-miterlimit="10" d="M142.596,53.209
				c0,0.649-8.459,1.741-18.9,1.741v5.45C134.137,60.4,142.596,55.609,142.596,53.209z"/>
			<path fill="#DEDEDE" stroke="#000000" stroke-width="1.08" stroke-miterlimit="10" d="M142.596,53.209
				c0-2.85-8.459-10.709-18.9-10.709v5.45C134.137,47.95,142.596,52.081,142.596,53.209z"/>
			<path fill="#727272" stroke="#000000" stroke-width="1.08" stroke-miterlimit="10" d="M142.596,53.209
				c0.001-1.648-8.459-5.259-18.9-5.259v4.273C123.696,52.224,140.285,52.415,142.596,53.209z"/>
			<path fill="#C1C1C1" stroke="#000000" stroke-width="1.08" stroke-miterlimit="10" d="M142.596,53.21
				c-0.005,0.655-8.462,1.74-18.9,1.74l0.001-2.727C134.138,52.224,142.597,52.942,142.596,53.21L142.596,53.21z"/>
		</g>
	</g>
</g>
</svg>
