<?xml version="1.0" encoding="utf-8"?>
<!-- Generator: Adobe Illustrator 16.0.0, SVG Export Plug-In . SVG Version: 6.00 Build 0)  -->
<!DOCTYPE svg PUBLIC "-//W3C//DTD SVG 1.1//EN" "http://www.w3.org/Graphics/SVG/1.1/DTD/svg11.dtd">
<svg version="1.1" id="Layer_1" xmlns="http://www.w3.org/2000/svg" xmlns:xlink="http://www.w3.org/1999/xlink" x="0px" y="0px"
	 width="18.897px" height="38.177px" viewBox="155.198 34.31 18.897 38.177" enable-background="new 155.198 34.31 18.897 38.177"
	 xml:space="preserve">
<g>
	<g>
		<g id="Lever_4_">
			<path fill="#EEEDED" stroke="#000000" stroke-width="1.08" stroke-miterlimit="10" d="M174.097,53.21
				c0-6.99-8.459-15.79-18.9-15.79v-3.11C165.638,34.31,174.097,42.791,174.097,53.21z"/>
			<path fill="#414141" stroke="#000000" stroke-width="1.08" stroke-miterlimit="10" d="M174.097,53.21
				c0,10.449-8.459,18.899-18.9,18.899v-3.069C165.638,69.041,174.097,60.23,174.097,53.21z"/>
			<path fill="#C9C9C9" stroke="#000000" stroke-width="1.08" stroke-miterlimit="10" d="M174.097,53.21
				c0-3.21-8.459-8.931-18.9-8.931V37.42C165.638,37.42,174.097,46.22,174.097,53.21z"/>
			<path fill="#5D5D5D" stroke="#000000" stroke-width="1.08" stroke-miterlimit="10" d="M174.097,53.21
				c0,7.02-8.459,15.83-18.9,15.83v-6.86C165.638,62.18,174.097,56.45,174.097,53.21z"/>
			<path fill="#B7B7B7" stroke="#000000" stroke-width="1.08" stroke-miterlimit="10" d="M174.097,53.21
				c0-1.74-8.459-3.48-18.9-3.48v-5.45C165.638,44.28,174.097,50,174.097,53.21z"/>
			<path fill="#6B6B6B" stroke="#000000" stroke-width="1.08" stroke-miterlimit="10" d="M174.097,53.21
				c0,3.239-8.459,8.97-18.9,8.97v-5.45C165.638,56.73,174.097,54.97,174.097,53.21z"/>
			<path fill="#4B4B4B" stroke="#000000" stroke-width="1.08" stroke-miterlimit="10" d="M174.097,53.21h-18.9v-3.48
				C165.638,49.73,174.097,51.47,174.097,53.21z"/>
			<path fill="#9A9A9A" stroke="#000000" stroke-width="1.08" stroke-miterlimit="10" d="M174.097,53.21
				c0,1.76-8.459,3.52-18.9,3.52v-3.52H174.097z"/>
		</g>
	</g>
</g>
</svg>
