<?xml version="1.0" encoding="utf-8"?>
<!-- Generator: Adobe Illustrator 16.0.0, SVG Export Plug-In . SVG Version: 6.00 Build 0)  -->
<!DOCTYPE svg PUBLIC "-//W3C//DTD SVG 1.1//EN" "http://www.w3.org/Graphics/SVG/1.1/DTD/svg11.dtd">
<svg version="1.1" id="Layer_1" xmlns="http://www.w3.org/2000/svg" xmlns:xlink="http://www.w3.org/1999/xlink" x="0px" y="0px"
	 width="104.582px" height="414.917px" viewBox="0 0 104.582 414.917" enable-background="new 0 0 104.582 414.917"
	 xml:space="preserve">
<linearGradient id="SVGID_1_" gradientUnits="userSpaceOnUse" x1="-7.7222" y1="1024.8872" x2="18.1463" y2="1028.0175" gradientTransform="matrix(1 0 0 1 44.8003 -809.8828)">
	<stop  offset="0" style="stop-color:#919191"/>
	<stop  offset="0.3926" style="stop-color:#C2C2C2"/>
	<stop  offset="0.6112" style="stop-color:#D9D9D9"/>
	<stop  offset="1" style="stop-color:#000000"/>
</linearGradient>
<path fill="url(#SVGID_1_)" stroke="#000000" stroke-width="1.08" stroke-miterlimit="10" d="M78.644,76.996L43.921,346.805
	l-0.891,6.508c0,2.375-3.834,4.291-8.533,4.291c-4.727,0-8.559-1.916-8.559-4.291c0-0.162,0.027-0.297,0.053-0.435l0.676-6.073
	L55.288,75.861c0.219,0.082,0.434,0.162,0.674,0.217c0.057,0.054,0.137,0.082,0.219,0.082c0.514,0.188,1.025,0.376,1.537,0.512
	c0.514,0.163,1.025,0.297,1.566,0.404c0.539,0.189,1.107,0.298,1.699,0.404c1.73,0.38,3.539,0.621,5.373,0.73
	c0.082,0.027,0.135,0.027,0.217,0.027c0.244,0.026,0.514,0.026,0.783,0.026h0.324c1.105,0.054,2.215,0.028,3.32-0.054
	c0.566-0.027,1.105-0.055,1.646-0.135c0.27,0,0.541-0.028,0.783-0.081c0.27-0.026,0.541-0.054,0.781-0.108
	c0.025,0.027,0.057,0,0.082,0c0.242-0.026,0.512-0.055,0.758-0.108c0.08,0,0.135-0.026,0.217-0.054
	c0.322-0.053,0.645-0.107,0.971-0.162C77.046,77.402,77.86,77.21,78.644,76.996z"/>
</svg>
