<?xml version="1.0" encoding="utf-8"?>
<!-- Generator: Adobe Illustrator 16.0.0, SVG Export Plug-In . SVG Version: 6.00 Build 0)  -->
<!DOCTYPE svg PUBLIC "-//W3C//DTD SVG 1.1//EN" "http://www.w3.org/Graphics/SVG/1.1/DTD/svg11.dtd">
<svg version="1.1" id="Layer_1" xmlns="http://www.w3.org/2000/svg" xmlns:xlink="http://www.w3.org/1999/xlink" x="0px" y="0px"
	 width="18.897px" height="38.177px" viewBox="183.698 34.31 18.897 38.177" enable-background="new 183.698 34.31 18.897 38.177"
	 xml:space="preserve">
<g>
	<g>
		<g id="Lever_3_">
			<path fill="#C8C7C7" stroke="#000000" stroke-width="1.08" stroke-miterlimit="10" d="M202.596,53.21
				c0-6.99-8.459-14.05-18.9-14.05v-4.85C194.137,34.31,202.596,42.791,202.596,53.21z"/>
			<path fill="#1B1B1B" stroke="#000000" stroke-width="1.08" stroke-miterlimit="10" d="M202.596,53.21
				c0,10.449-8.459,18.899-18.9,18.899v-1.33C194.137,70.78,202.596,59.603,202.596,53.21z"/>
			<path fill="#A3A3A3" stroke="#000000" stroke-width="1.08" stroke-miterlimit="10" d="M202.596,53.21
				c0-2.378-8.459-7.191-18.9-7.191V39.16C194.137,39.16,202.596,46.22,202.596,53.21z"/>
			<path fill="#373737" stroke="#000000" stroke-width="1.08" stroke-miterlimit="10" d="M202.596,53.21
				c0,6.601-8.459,17.57-18.9,17.57v-6.86C194.137,63.92,202.596,56.019,202.596,53.21z"/>
			<path fill="#919191" stroke="#000000" stroke-width="1.08" stroke-miterlimit="10" d="M202.596,53.21
				c0-0.649-8.459-1.741-18.9-1.741v-5.45C194.137,46.02,202.596,50.811,202.596,53.21z"/>
			<path fill="#454545" stroke="#000000" stroke-width="1.08" stroke-miterlimit="10" d="M202.596,53.21
				c0,2.85-8.459,10.709-18.9,10.709v-5.45C194.137,58.47,202.596,54.339,202.596,53.21z"/>
			<path fill="#747474" stroke="#000000" stroke-width="1.08" stroke-miterlimit="10" d="M202.596,53.21
				c0,1.111-8.459,5.259-18.9,5.259v-4.273C183.696,54.196,197.612,54.196,202.596,53.21z"/>
			<path fill="#252525" stroke="#000000" stroke-width="1.08" stroke-miterlimit="10" d="M202.596,53.21
				c-0.006-0.655-8.463-1.74-18.9-1.74v2.727C194.137,54.196,202.596,53.478,202.596,53.21L202.596,53.21z"/>
		</g>
	</g>
</g>
</svg>
