<?xml version="1.0" encoding="utf-8"?>
<!-- Generator: Adobe Illustrator 16.0.0, SVG Export Plug-In . SVG Version: 6.00 Build 0)  -->
<!DOCTYPE svg PUBLIC "-//W3C//DTD SVG 1.1//EN" "http://www.w3.org/Graphics/SVG/1.1/DTD/svg11.dtd">
<svg version="1.1" id="Layer_1" xmlns="http://www.w3.org/2000/svg" xmlns:xlink="http://www.w3.org/1999/xlink" x="0px" y="0px"
	 width="67.958px" height="80.959px" viewBox="142.667 230.625 67.958 80.959"
	 enable-background="new 142.667 230.625 67.958 80.959" xml:space="preserve">
<g>
	<g>
		<g id="Lever_5_">
			<path fill="#EEEDED" stroke="#000000" stroke-width="1.08" stroke-miterlimit="10" d="M208.412,271.359
				c0-6.99-8.459-15.79-18.9-15.79v-3.11C199.953,252.458,208.412,260.939,208.412,271.359z"/>
			<path fill="#414141" stroke="#000000" stroke-width="1.08" stroke-miterlimit="10" d="M208.412,271.359
				c0,10.449-8.459,18.899-18.9,18.899v-3.069C199.953,287.189,208.412,278.378,208.412,271.359z"/>
			<path fill="#C9C9C9" stroke="#000000" stroke-width="1.08" stroke-miterlimit="10" d="M208.412,271.359
				c0-3.21-8.459-8.931-18.9-8.931v-6.859C199.953,255.569,208.412,264.369,208.412,271.359z"/>
			<path fill="#5D5D5D" stroke="#000000" stroke-width="1.08" stroke-miterlimit="10" d="M208.412,271.359
				c0,7.02-8.459,15.83-18.9,15.83v-6.86C199.953,280.329,208.412,274.598,208.412,271.359z"/>
			<path fill="#B7B7B7" stroke="#000000" stroke-width="1.08" stroke-miterlimit="10" d="M208.412,271.359
				c0-1.74-8.459-3.48-18.9-3.48v-5.45C199.953,262.428,208.412,268.149,208.412,271.359z"/>
			<path fill="#6B6B6B" stroke="#000000" stroke-width="1.08" stroke-miterlimit="10" d="M208.412,271.359
				c0,3.239-8.459,8.97-18.9,8.97v-5.45C199.953,274.878,208.412,273.119,208.412,271.359z"/>
			<path fill="#4B4B4B" stroke="#000000" stroke-width="1.08" stroke-miterlimit="10" d="M208.412,271.359h-18.9v-3.48
				C199.953,267.878,208.412,269.619,208.412,271.359z"/>
			<path fill="#9A9A9A" stroke="#000000" stroke-width="1.08" stroke-miterlimit="10" d="M208.412,271.359
				c0,1.76-8.459,3.52-18.9,3.52v-3.52H208.412z"/>
		</g>
	</g>
</g>
<path fill="#DCDBDB" stroke="#000000" stroke-width="1.08" stroke-miterlimit="10" d="M169.715,271.103
	c0-6.992-8.451-12.689-18.899-12.689v-6.209C161.264,252.205,169.715,260.683,169.715,271.103z"/>
<path fill="#323232" stroke="#000000" stroke-width="1.08" stroke-miterlimit="10" d="M169.715,271.103
	c0,10.449-8.451,18.9-18.899,18.9v-6.184C161.264,283.82,169.715,278.125,169.715,271.103z"/>
<path fill="#B7B7B7" stroke="#000000" stroke-width="1.08" stroke-miterlimit="10" d="M169.715,271.103
	c0-3.211-8.451-5.832-18.899-5.832v-6.857C161.264,258.414,169.715,264.111,169.715,271.103z"/>
<path fill="#4F4F4F" stroke="#000000" stroke-width="1.08" stroke-miterlimit="10" d="M169.715,271.103
	c0,7.021-8.451,12.717-18.899,12.717v-6.855C161.264,276.962,169.715,274.343,169.715,271.103z"/>
<path fill="#7D7D7D" stroke="#000000" stroke-width="1.08" stroke-miterlimit="10" d="M169.715,271.103
	c0,3.24-8.451,5.859-18.899,5.859v-11.691C161.264,265.271,169.715,267.892,169.715,271.103z"/>
</svg>
