<?xml version="1.0" encoding="utf-8"?>
<!-- Generator: Adobe Illustrator 16.0.0, SVG Export Plug-In . SVG Version: 6.00 Build 0)  -->
<!DOCTYPE svg PUBLIC "-//W3C//DTD SVG 1.1//EN" "http://www.w3.org/Graphics/SVG/1.1/DTD/svg11.dtd">
<svg version="1.1" id="Layer_1" xmlns="http://www.w3.org/2000/svg" xmlns:xlink="http://www.w3.org/1999/xlink" x="0px" y="0px"
	 width="18.896px" height="38.178px" viewBox="0 0 18.896 38.178" enable-background="new 0 0 18.896 38.178" xml:space="preserve">
<g>
	<g>
		<g id="Lever_7_">
			<path fill="#DCDBDB" stroke="#000000" stroke-width="1.08" stroke-miterlimit="10" d="M227.846,53.586
				c0-6.991-8.451-12.688-18.899-12.688v-6.209C219.395,34.688,227.846,43.166,227.846,53.586z"/>
			<path fill="#323232" stroke="#000000" stroke-width="1.08" stroke-miterlimit="10" d="M227.846,53.586
				c0,10.449-8.451,18.9-18.899,18.9v-6.184C219.395,66.303,227.846,60.607,227.846,53.586z"/>
			<path fill="#B7B7B7" stroke="#000000" stroke-width="1.08" stroke-miterlimit="10" d="M227.849,53.589
				c0-3.21-8.45-5.83-18.9-5.83v-6.86C219.399,40.898,227.849,46.598,227.849,53.589z"/>
			<path fill="#4F4F4F" stroke="#000000" stroke-width="1.08" stroke-miterlimit="10" d="M227.849,53.589
				c0,7.02-8.45,12.71-18.9,12.71v-6.85C219.399,59.449,227.849,56.829,227.849,53.589z"/>
			<path fill="#5B5B5B" stroke="#000000" stroke-width="1.08" stroke-miterlimit="10" d="M227.849,53.589h-18.9v-5.83
				C219.399,47.759,227.849,50.379,227.849,53.589z"/>
			<path fill="#7D7D7D" stroke="#000000" stroke-width="1.08" stroke-miterlimit="10" d="M227.849,53.589
				c0,3.24-8.45,5.86-18.9,5.86v-5.86H227.849z"/>
		</g>
	</g>
</g>
</svg>
