<?xml version="1.0" encoding="utf-8"?>
<!-- Generator: Adobe Illustrator 16.0.0, SVG Export Plug-In . SVG Version: 6.00 Build 0)  -->
<!DOCTYPE svg PUBLIC "-//W3C//DTD SVG 1.1//EN" "http://www.w3.org/Graphics/SVG/1.1/DTD/svg11.dtd">
<svg version="1.1" id="Layer_1" xmlns="http://www.w3.org/2000/svg" xmlns:xlink="http://www.w3.org/1999/xlink" x="0px" y="0px"
	 width="67.958px" height="80.959px" viewBox="142.667 106.458 67.958 80.959"
	 enable-background="new 142.667 106.458 67.958 80.959" xml:space="preserve">
<g>
	<g>
		<g id="Lever_2_">
			<path fill="#EEEDED" stroke="#000000" stroke-width="1.08" stroke-miterlimit="10" d="M210.625,147.191
				c0-6.99-8.459-15.79-18.9-15.79v-3.11C202.166,128.291,210.625,136.771,210.625,147.191z"/>
			<path fill="#414141" stroke="#000000" stroke-width="1.08" stroke-miterlimit="10" d="M210.625,147.191
				c0,10.449-8.459,18.899-18.9,18.899v-3.069C202.166,163.021,210.625,154.211,210.625,147.191z"/>
			<path fill="#C9C9C9" stroke="#000000" stroke-width="1.08" stroke-miterlimit="10" d="M210.625,147.191
				c0-3.21-8.459-8.931-18.9-8.931v-6.859C202.166,131.401,210.625,140.201,210.625,147.191z"/>
			<path fill="#5D5D5D" stroke="#000000" stroke-width="1.08" stroke-miterlimit="10" d="M210.625,147.191
				c0,7.02-8.459,15.83-18.9,15.83v-6.86C202.166,156.161,210.625,150.431,210.625,147.191z"/>
			<path fill="#B7B7B7" stroke="#000000" stroke-width="1.08" stroke-miterlimit="10" d="M210.625,147.191
				c0-1.74-8.459-3.48-18.9-3.48v-5.45C202.166,138.261,210.625,143.981,210.625,147.191z"/>
			<path fill="#6B6B6B" stroke="#000000" stroke-width="1.08" stroke-miterlimit="10" d="M210.625,147.191
				c0,3.239-8.459,8.97-18.9,8.97v-5.45C202.166,150.711,210.625,148.951,210.625,147.191z"/>
			<path fill="#4B4B4B" stroke="#000000" stroke-width="1.08" stroke-miterlimit="10" d="M210.625,147.191h-18.9v-3.48
				C202.166,143.711,210.625,145.451,210.625,147.191z"/>
			<path fill="#9A9A9A" stroke="#000000" stroke-width="1.08" stroke-miterlimit="10" d="M210.625,147.191
				c0,1.76-8.459,3.52-18.9,3.52v-3.52H210.625z"/>
		</g>
	</g>
</g>
<g>
	<g>
		<g id="Lever_4_">
			<path fill="#EEEDED" stroke="#000000" stroke-width="1.08" stroke-miterlimit="10" d="M186.096,147.191
				c0-6.99-8.459-15.79-18.9-15.79v-3.11C177.637,128.291,186.096,136.771,186.096,147.191z"/>
			<path fill="#414141" stroke="#000000" stroke-width="1.08" stroke-miterlimit="10" d="M186.096,147.191
				c0,10.449-8.459,18.899-18.9,18.899v-3.069C177.637,163.021,186.096,154.211,186.096,147.191z"/>
			<path fill="#C9C9C9" stroke="#000000" stroke-width="1.08" stroke-miterlimit="10" d="M186.096,147.191
				c0-3.21-8.459-8.931-18.9-8.931v-6.859C177.637,131.401,186.096,140.201,186.096,147.191z"/>
			<path fill="#5D5D5D" stroke="#000000" stroke-width="1.08" stroke-miterlimit="10" d="M186.096,147.191
				c0,7.02-8.459,15.83-18.9,15.83v-6.86C177.637,156.161,186.096,150.431,186.096,147.191z"/>
			<path fill="#B7B7B7" stroke="#000000" stroke-width="1.08" stroke-miterlimit="10" d="M186.096,147.191
				c0-1.74-8.459-3.48-18.9-3.48v-5.45C177.637,138.261,186.096,143.981,186.096,147.191z"/>
			<path fill="#6B6B6B" stroke="#000000" stroke-width="1.08" stroke-miterlimit="10" d="M186.096,147.191
				c0,3.239-8.459,8.97-18.9,8.97v-5.45C177.637,150.711,186.096,148.951,186.096,147.191z"/>
			<path fill="#4B4B4B" stroke="#000000" stroke-width="1.08" stroke-miterlimit="10" d="M186.096,147.191h-18.9v-3.48
				C177.637,143.711,186.096,145.451,186.096,147.191z"/>
			<path fill="#9A9A9A" stroke="#000000" stroke-width="1.08" stroke-miterlimit="10" d="M186.096,147.191
				c0,1.76-8.459,3.52-18.9,3.52v-3.52H186.096z"/>
		</g>
	</g>
</g>
<g>
	<g>
		<g id="Lever_3_">
			<path fill="#C8C7C7" stroke="#000000" stroke-width="1.08" stroke-miterlimit="10" d="M161.567,147.191
				c0-6.99-8.459-14.05-18.9-14.05v-4.85C153.108,128.291,161.567,136.771,161.567,147.191z"/>
			<path fill="#1B1B1B" stroke="#000000" stroke-width="1.08" stroke-miterlimit="10" d="M161.567,147.191
				c0,10.449-8.459,18.899-18.9,18.899v-1.33C153.108,164.761,161.567,153.583,161.567,147.191z"/>
			<path fill="#A3A3A3" stroke="#000000" stroke-width="1.08" stroke-miterlimit="10" d="M161.567,147.191
				c0-2.378-8.459-7.191-18.9-7.191v-6.859C153.108,133.141,161.567,140.201,161.567,147.191z"/>
			<path fill="#373737" stroke="#000000" stroke-width="1.08" stroke-miterlimit="10" d="M161.567,147.191
				c0,6.601-8.459,17.57-18.9,17.57v-6.86C153.108,157.901,161.567,150,161.567,147.191z"/>
			<path fill="#919191" stroke="#000000" stroke-width="1.08" stroke-miterlimit="10" d="M161.567,147.191
				c0-0.649-8.459-1.741-18.9-1.741V140C153.108,140,161.567,144.792,161.567,147.191z"/>
			<path fill="#454545" stroke="#000000" stroke-width="1.08" stroke-miterlimit="10" d="M161.567,147.191
				c0,2.85-8.459,10.709-18.9,10.709v-5.45C153.108,152.451,161.567,148.32,161.567,147.191z"/>
			<path fill="#747474" stroke="#000000" stroke-width="1.08" stroke-miterlimit="10" d="M161.567,147.191
				c0,1.111-8.459,5.259-18.9,5.259v-4.273C142.667,148.177,156.583,148.177,161.567,147.191z"/>
			<path fill="#252525" stroke="#000000" stroke-width="1.08" stroke-miterlimit="10" d="M161.567,147.191
				c-0.005-0.655-8.462-1.74-18.9-1.74l0.001,2.727C153.109,148.177,161.568,147.458,161.567,147.191L161.567,147.191z"/>
		</g>
	</g>
</g>
<g>
	<g>
		<g id="Lever_6_">
			<path fill="#C8C7C7" stroke="#000000" stroke-width="1.08" stroke-miterlimit="10" d="M210.625,147.19
				c0,6.99-8.459,14.05-18.9,14.05v4.85C202.166,166.091,210.625,157.61,210.625,147.19z"/>
			<path fill="#1B1B1B" stroke="#000000" stroke-width="1.08" stroke-miterlimit="10" d="M210.625,147.19
				c0-10.449-8.459-18.899-18.9-18.899v1.33C202.166,129.621,210.625,140.798,210.625,147.19z"/>
			<path fill="#A3A3A3" stroke="#000000" stroke-width="1.08" stroke-miterlimit="10" d="M210.625,147.19
				c0,2.378-8.459,7.191-18.9,7.191v6.859C202.166,161.241,210.625,154.181,210.625,147.19z"/>
			<path fill="#373737" stroke="#000000" stroke-width="1.08" stroke-miterlimit="10" d="M210.625,147.19
				c0-6.601-8.459-17.57-18.9-17.57v6.86C202.166,136.481,210.625,144.382,210.625,147.19z"/>
			<path fill="#919191" stroke="#000000" stroke-width="1.08" stroke-miterlimit="10" d="M210.625,147.19
				c0,0.649-8.459,1.741-18.9,1.741v5.45C202.166,154.381,210.625,149.59,210.625,147.19z"/>
			<path fill="#454545" stroke="#000000" stroke-width="1.08" stroke-miterlimit="10" d="M210.625,147.19
				c0-2.85-8.459-10.709-18.9-10.709v5.45C202.166,141.931,210.625,146.062,210.625,147.19z"/>
			<path fill="#747474" stroke="#000000" stroke-width="1.08" stroke-miterlimit="10" d="M210.625,147.19
				c0.001-1.648-8.459-5.259-18.9-5.259v4.273C191.724,146.205,208.313,146.396,210.625,147.19z"/>
			<path fill="#252525" stroke="#000000" stroke-width="1.08" stroke-miterlimit="10" d="M210.625,147.191
				c-0.005,0.655-8.462,1.74-18.9,1.74l0.001-2.727C202.167,146.205,210.625,146.923,210.625,147.191L210.625,147.191z"/>
		</g>
	</g>
</g>
</svg>
