<?xml version="1.0" encoding="utf-8"?>
<!-- Generator: Adobe Illustrator 16.0.0, SVG Export Plug-In . SVG Version: 6.00 Build 0)  -->
<!DOCTYPE svg PUBLIC "-//W3C//DTD SVG 1.1//EN" "http://www.w3.org/Graphics/SVG/1.1/DTD/svg11.dtd">
<svg version="1.1" id="Layer_1" xmlns="http://www.w3.org/2000/svg" xmlns:xlink="http://www.w3.org/1999/xlink" x="0px" y="0px"
	 width="1024px" height="1024px" viewBox="0 0 1024 1024" enable-background="new 0 0 1024 1024" xml:space="preserve">
<g id="Auto">
	<g>
		
			<radialGradient id="SVGID_1_" cx="87.1392" cy="653.0527" r="1136.8325" gradientTransform="matrix(1 0 -1.426682e-004 1 428.9546 205.0039)" gradientUnits="userSpaceOnUse">
			<stop  offset="0" style="stop-color:#010101"/>
			<stop  offset="0.0916" style="stop-color:#080808"/>
			<stop  offset="0.2173" style="stop-color:#191918"/>
			<stop  offset="0.3629" style="stop-color:#353635"/>
			<stop  offset="0.5234" style="stop-color:#5E5E5E"/>
			<stop  offset="0.6961" style="stop-color:#919191"/>
			<stop  offset="0.8762" style="stop-color:#D0D1D1"/>
			<stop  offset="1" style="stop-color:#FFFFFF"/>
		</radialGradient>
		<path fill="url(#SVGID_1_)" stroke="#010101" stroke-width="6.35" stroke-miterlimit="10" d="M964.202,204.25H61.801
			c-14.038,0-25.424,11.388-25.424,25.424V814.33c0,14.038,11.386,25.42,25.424,25.42h902.401c14.039,0,25.421-11.382,25.421-25.42
			V229.673C989.623,215.636,978.241,204.25,964.202,204.25z M926.873,785.844c0,12.188-9.883,22.071-22.071,22.071H121.203
			c-12.19,0-22.077-9.883-22.077-22.071V278.16c0-12.189,9.887-22.077,22.077-22.077h783.599c12.188,0,22.071,9.888,22.071,22.077
			V785.844z"/>
		
			<radialGradient id="SVGID_2_" cx="83.1997" cy="302.3369" r="632.0864" gradientTransform="matrix(1 0 0 1 428.7998 229.6621)" gradientUnits="userSpaceOnUse">
			<stop  offset="0" style="stop-color:#FFFFFF"/>
			<stop  offset="0.1238" style="stop-color:#D0D1D1"/>
			<stop  offset="0.3039" style="stop-color:#919191"/>
			<stop  offset="0.4766" style="stop-color:#5E5E5E"/>
			<stop  offset="0.6371" style="stop-color:#353635"/>
			<stop  offset="0.7827" style="stop-color:#191918"/>
			<stop  offset="0.9084" style="stop-color:#080808"/>
			<stop  offset="1" style="stop-color:#010101"/>
		</radialGradient>
		<path fill="url(#SVGID_2_)" stroke="#010101" stroke-width="6.35" stroke-miterlimit="10" d="M903.802,256.083H120.203
			c-12.19,0-22.077,9.888-22.077,22.077v507.684c0,12.188,9.887,22.072,22.077,22.072h783.599c12.188,0,22.071-9.884,22.071-22.072
			V278.16C925.873,265.97,915.99,256.083,903.802,256.083z M897.164,768.234c0,11.346-9.196,20.543-20.541,20.543H147.38
			c-11.344,0-20.545-9.197-20.545-20.543V295.767c0-11.346,9.201-20.545,20.545-20.545h729.243c11.345,0,20.541,9.2,20.541,20.545
			V768.234z"/>
	</g>
	<g>
		
			<linearGradient id="SVGID_3_" gradientUnits="userSpaceOnUse" x1="-515.3638" y1="1812.2998" x2="254.9653" y2="1812.2998" gradientTransform="matrix(1 0 0 -1 643.1992 2344.2988)">
			<stop  offset="0" style="stop-color:#4E1615"/>
			<stop  offset="0.168" style="stop-color:#611B1A"/>
			<stop  offset="0.372" style="stop-color:#752222"/>
			<stop  offset="0.4854" style="stop-color:#7B2524"/>
			<stop  offset="0.759" style="stop-color:#7C1E1E"/>
			<stop  offset="1" style="stop-color:#7D1618"/>
		</linearGradient>
		<path fill="url(#SVGID_3_)" stroke="#010101" stroke-width="6.35" stroke-miterlimit="10" d="M877.624,275.222H148.381
			c-11.345,0-20.546,9.198-20.546,20.545v472.467c0,11.346,9.201,20.543,20.546,20.543h729.242c11.346,0,20.541-9.197,20.541-20.543
			V295.767C898.165,284.423,888.969,275.222,877.624,275.222z M864.574,752.562c0,10.486-8.501,18.985-18.982,18.985H171.625
			c-10.483,0-18.987-8.499-18.987-18.985V315.908c0-10.484,8.504-18.987,18.987-18.987h673.967c10.481,0,18.983,8.503,18.983,18.987
			L864.574,752.562L864.574,752.562z"/>
		
			<linearGradient id="SVGID_4_" gradientUnits="userSpaceOnUse" x1="-490.562" y1="1810.0645" x2="221.3755" y2="1810.0645" gradientTransform="matrix(1 0 0 -1 643.1992 2344.2988)">
			<stop  offset="0" style="stop-color:#7D1618"/>
			<stop  offset="0.241" style="stop-color:#7C1E1E"/>
			<stop  offset="0.5146" style="stop-color:#7B2524"/>
			<stop  offset="0.628" style="stop-color:#752222"/>
			<stop  offset="0.832" style="stop-color:#611B1A"/>
			<stop  offset="1" style="stop-color:#4E1615"/>
		</linearGradient>
		<path fill="url(#SVGID_4_)" stroke="#010101" stroke-width="6.35" stroke-miterlimit="10" d="M845.591,296.921H171.625
			c-10.483,0-18.987,8.502-18.987,18.987v436.653c0,10.486,8.504,18.985,18.987,18.985h673.967c10.481,0,18.983-8.499,18.983-18.985
			V315.908C864.574,305.424,856.073,296.921,845.591,296.921z"/>
	</g>
	<g>
		<path fill="none" d="M462.486,656.317c0.07,0.275,0.512,1.698,2.69,4.452c2.266-2.73,2.75-7.626,2.75-11.31
			c0-7.517-1.496-9.932-1.799-10.342c-0.155-0.044-0.533-0.124-1.228-0.124c-0.398,0-0.657,0.032-0.806,0.06
			c-0.391,0.579-1.883,3.311-1.883,11.18c0,4.016,0.189,5.593,0.244,5.965C462.466,656.238,462.477,656.278,462.486,656.317z"/>
		<path fill="none" d="M701.585,418.851c-0.441,0.458-0.917,0.885-1.426,1.277c-0.157,0.344-0.393,0.941-0.655,1.872
			c-0.908,3.213-1.367,6.318-1.367,9.236c0,5.338,0.9,9.613,2.604,12.362c0.517,0.834,0.873,1.127,0.952,1.186
			c0.001,0,0.004,0,0.008,0c0.031,0,0.135,0.013,0.306,0.013c0.327,0,0.545-0.024,0.674-0.046c0.423-0.588,2.183-3.595,2.183-12.741
			c0-7.747-1.156-10.826-1.555-11.658C702.688,419.899,702.111,419.397,701.585,418.851z"/>
		<path fill="none" d="M398.02,653.33c-1.41,4.92-2.93,6.69-3.44,7.17c-0.24,0.23-0.46,0.47-0.69,0.72
			c0.65-1.18,1.29-2.38,1.93-3.62C396.54,656.21,397.27,654.78,398.02,653.33z"/>
		<path fill="none" d="M542.49,698.11v4.21c0,0.33,0,0.64-0.01,0.93h-4.7c-4.59,0-8.61,2.38-10.93,5.97
			c2.42-7.01,4.36-14.84,5.84-23.56c2.29-6.16,3.51-8.56,3.94-9.33c0.18-0.33,0.35-0.67,0.51-1.01c0.95,2.05,2.42,3.83,4.3,5.15
			c0.17,0.42,0.45,1.32,0.63,2.93c0.01,0.08,0.01,0.13,0.02,0.21c0.04,0.33,0.23,2.46,0.23,11.49c0,0.29,0.01,0.57,0.03,0.85
			L542.49,698.11z"/>
		<path fill="none" d="M698.917,396.317c0.07,0.275,0.512,1.698,2.69,4.452c2.266-2.73,2.75-7.626,2.75-11.31
			c0-7.517-1.496-9.932-1.799-10.342c-0.155-0.044-0.533-0.124-1.228-0.124c-0.398,0-0.657,0.032-0.806,0.06
			c-0.391,0.579-1.883,3.311-1.883,11.18c0,4.016,0.189,5.593,0.244,5.965C698.897,396.238,698.908,396.278,698.917,396.317z"/>
		<path fill="none" d="M514.83,400.56c-0.3-0.31-0.61-0.61-0.94-0.89c-0.64-0.55-1.2-1.91-1.53-3.75c0-0.03-0.01-0.06-0.01-0.1
			c-0.05-0.33-0.29-2.42-0.29-9.71c0-3.07,0.05-5.38,0.11-7.12c0.49-0.01,1.05-0.01,1.62,0c0.26,0.01,0.52-0.01,0.78-0.02v19
			C514.57,398.86,514.66,399.72,514.83,400.56z"/>
		<path fill="none" d="M465.154,678.851c-0.441,0.458-0.917,0.885-1.426,1.277c-0.157,0.344-0.393,0.941-0.655,1.872
			c-0.908,3.213-1.367,6.318-1.367,9.236c0,5.338,0.9,9.613,2.604,12.362c0.517,0.834,0.873,1.127,0.952,1.186
			c0.001,0,0.004,0,0.008,0c0.031,0,0.135,0.013,0.306,0.013c0.327,0,0.545-0.024,0.674-0.046c0.423-0.588,2.183-3.595,2.183-12.741
			c0-7.747-1.156-10.826-1.555-11.658C466.256,679.899,465.68,679.397,465.154,678.851z"/>
		<path fill="none" d="M461.95,442.217c0.769,0,1.366-0.039,1.815-0.089c0.09-0.352,0.19-0.81,0.285-1.386
			c0.391-2.389,0.589-5.587,0.589-9.506c0-5.927-0.052-8.033-0.08-8.728c-0.251-1.405-0.803-2.406-1.852-3.371
			c-0.099,0.086-0.199,0.17-0.301,0.253c-0.879,0.717-1.323,2.295-1.545,3.609c-0.03,0.778-0.082,3.132-0.082,10.041
			c0,4.343,0.214,7.266,0.451,9.17C461.456,442.214,461.695,442.217,461.95,442.217z"/>
		<path fill="none" d="M462.738,399.471c0.418-0.361,0.861-0.696,1.328-1.004c0.115-0.256,0.317-0.805,0.486-1.779
			c0.029-0.808,0.087-3.381,0.087-11.096c0-2.815-0.019-5.019-0.047-6.74c-0.551-0.082-1.095-0.199-1.63-0.351
			c-0.701,0.199-1.417,0.338-2.141,0.417c-0.028,1.733-0.042,3.935-0.042,6.674c0,6.881,0.049,9.574,0.083,10.61
			C461.175,397.384,461.772,398.427,462.738,399.471z"/>
		<polygon fill="#B97C2B" points="311.99,410.784 320.491,410.784 316.275,397.521 		"/>
		<path fill="#B97C2B" d="M456.925,372.928c-0.332-0.046-0.689-0.073-1.031-0.073c-1.95,0-2.898,0.449-3.358,3.11
			c-0.02,0.116-0.12,0.793-0.19,3.272c-0.056,1.874-0.083,4.548-0.083,8.183c0,8.304,0.081,10.486,0.124,11.057
			c0.631,3.052,2.218,5.705,4.848,8.106c0.982,0.897,1.518,2.183,1.462,3.512s-0.697,2.565-1.75,3.377
			c-2.464,1.897-3.958,4.716-4.567,8.617c-0.001,0.004-0.001,0.009-0.002,0.013c-0.038,0.48-0.113,2.428-0.113,10.292
			c0,12.022,1.747,14.87,2.097,15.318c0.015,0.022,1.365,1.202,7.633,1.202c2.513,0,4.564-0.28,6.097-0.833
			c1.157-0.417,2.001-1.052,2.656-1.997c0.793-1.145,1.417-2.933,1.805-5.171c0.462-2.667,0.696-6.11,0.696-10.23
			c0-6.977-0.08-8.665-0.112-9.059c-0.002-0.011-0.003-0.022-0.005-0.033c-0.51-3.312-2.051-6.006-4.711-8.235
			c-1.125-0.943-1.72-2.377-1.592-3.84s0.961-2.772,2.234-3.506c2.162-1.248,3.494-3.634,4.069-7.296
			c0.033-0.442,0.117-2.442,0.117-11.293c0-9.488-0.236-12.186-0.346-12.924c-0.235-0.512-0.914-1.301-3.795-1.301
			c-0.624,0-1.312,0.041-2.044,0.122c-1.271,0.145-2.543-0.267-3.497-1.12c-0.205-0.183-0.39-0.383-0.555-0.597
			c-0.221,0.285-0.477,0.545-0.766,0.773c-1.08,0.854-2.49,1.167-3.828,0.85C457.862,373.093,457.361,372.993,456.925,372.928z
			 M460.821,378.918c0.724-0.079,1.44-0.218,2.141-0.417c0.535,0.151,1.079,0.269,1.63,0.351c0.028,1.721,0.047,3.924,0.047,6.74
			c0,7.715-0.058,10.288-0.087,11.096c-0.169,0.975-0.371,1.523-0.486,1.779c-0.467,0.308-0.91,0.644-1.328,1.004
			c-0.965-1.044-1.563-2.087-1.875-3.27c-0.034-1.036-0.083-3.729-0.083-10.61C460.779,382.853,460.792,380.651,460.821,378.918z
			 M460.861,422.999c0.222-1.313,0.666-2.892,1.545-3.609c0.102-0.083,0.202-0.167,0.301-0.253c1.049,0.965,1.601,1.965,1.852,3.371
			c0.027,0.694,0.08,2.801,0.08,8.728c0,3.919-0.198,7.118-0.589,9.506c-0.094,0.577-0.194,1.034-0.285,1.386
			c-0.45,0.05-1.047,0.089-1.815,0.089c-0.255,0-0.494-0.002-0.72-0.007c-0.237-1.904-0.451-4.827-0.451-9.17
			C460.779,426.131,460.831,423.777,460.861,422.999z"/>
		<path fill="#B97C2B" d="M771.38,401.26c-0.18-0.26-0.94-1.37-2.41-4.31c-0.03-0.05-0.05-0.11-0.08-0.17
			c-1.44-2.78-1.68-4.09-1.71-4.33c-0.02-0.14-0.05-0.28-0.07-0.43c-9.37-53.57-41.4-64.81-66.62-64.81
			c-27.87,0-48.17,12.81-58.87,37.09v-20.23c0-7.17-5.82-13-13-13H527.57c-2.47,0-4.78,0.71-6.75,1.91
			c-1.96-1.2-4.27-1.91-6.74-1.91H466.5c-1.22,0-2.41,0.18-3.54,0.49c-1.12-0.31-2.31-0.49-3.54-0.49h-60.9c-7.18,0-13,5.83-13,13
			v21.92c0,3.87,1.72,7.54,4.7,10.01c2.43,2.01,5.48,3.07,8.59,2.99c0.02,1.6,0.04,3.67,0.04,6.34c0,7.16-0.06,9.81-0.09,10.74
			c-0.37,1.72-0.94,2.92-1.7,3.56c-3.52,2.97-5.21,7.56-4.45,12.1c0.52,3.1,2.14,5.85,4.48,7.81c0.19,0.32,0.46,0.77,0.81,1.41
			c0.47,0.87,0.77,1.48,0.95,1.88v27.63c-2.13-4.27-6.53-7.21-11.63-7.21c-0.58,0-1.11-0.01-1.59-0.02
			c-0.58-1.71-1.33-4.12-2.25-7.49c-3.31-11.86-3.41-15.25-3.41-15.59c0-2.32,0.29-3.39,0.38-3.68c2.43-3.88,2.65-8.76,0.54-12.85
			c-1.57-3.06-4.28-5.33-7.46-6.38c-0.72-1.14-2.01-3.55-3.66-8.27c-1.18-3.32-2.17-6.71-2.97-10.16c2.4-0.41,4.65-1.49,6.5-3.15
			c2.74-2.46,4.31-5.98,4.31-9.67v-21.92c0-7.17-5.82-13-13-13h-82.83c-7.18,0-13,5.83-13,13v21.92c0,7.18,5.82,13,13,13h0.37
			c-0.63,2.37-1.5,5.16-2.66,8.42c-0.01,0.04-0.03,0.07-0.04,0.11c-2.16,6.24-3.85,8.98-4.62,10.03c-3.65,1.26-6.6,4.1-7.95,7.81
			c-1.54,4.19-0.81,8.87,1.89,12.38c-0.08,0.87-0.52,4.23-3.19,13.51c-0.03,0.1-0.06,0.2-0.09,0.3c-0.81,3.1-1.59,5.72-2.31,7.77
			c-0.74,2.13-1.25,3.34-1.53,3.93h-2.81c-7.18,0-13,5.82-13,13v21.92c0,7.18,5.82,13,13,13h51.79c2.36,0,4.58-0.63,6.49-1.74
			c1.91,1.11,4.13,1.74,6.5,1.74h63.6c7.18,0,13-5.82,13-13v-15.61c3.11,12.25,11.49,21.6,24.4,26.86
			c9.07,3.73,20.1,5.62,32.77,5.62c17.05,0,29.9-3.59,39.29-10.97c7.02-5.52,15.38-16.03,15.38-34.78v-27.01
			c0.13-0.31,0.36-0.78,0.71-1.46c0.21-0.35,0.39-0.64,0.53-0.87c2.29-1.72,3.99-4.19,4.75-7.07c0.51-1.97,0.55-3.99,0.15-5.91
			c2.37,2.46,5.69,4,9.37,4h14.89c0.01,0.18,0.03,0.35,0.05,0.53c0.45,3.44,2.25,6.56,5,8.66c0.58,0.44,0.91,0.84,1.09,1.78
			c0.06,0.72,0.22,3.56,0.22,13.16v8.14c-0.73,0.01-1.56,0.01-2.52,0.01c-7.18,0-13,5.82-13,13v21.92c0,7.18,5.82,13,13,13h63.6
			c7.18,0,13-5.82,13-13v-21.92c0-3.88-1.73-7.56-4.72-10.02c-2.95-2.44-6.81-3.45-10.56-2.78c-0.04-1.91-0.08-4.6-0.08-8.35
			c0-8.73,0.06-11.4,0.1-12.2c0.11-0.78,0.23-1.38,0.34-1.82c3.06-1.77,5.31-4.75,6.14-8.27c0.16-0.7,0.26-1.4,0.31-2.1h12.53
			c0.21,3.48,1.78,6.74,4.41,9.04c1.49,1.3,2.19,2.04,2.46,2.36c0.01,0,0.01,0,0.01,0c0.96,2.44,1.55,4.78,1.74,6.97
			c1.31,15.46,6.34,29.55,14.94,41.86c0.04,0.06,0.07,0.1,0.11,0.15c9.77,13.58,21.07,21.01,33.59,22.08
			c6.45,0.72,10.66,1.17,13.23,1.42c0.29,0.03,0.55,0.05,0.79,0.07c0.99,0.25,2.03,0.38,3.09,0.38c18.67,0,33.78-5.6,44.92-16.64
			c0.06-0.07,0.13-0.14,0.2-0.2c11.24-11.64,18.66-28.84,22.67-52.54c2.29-6.16,3.51-8.56,3.94-9.33
			C775.8,411.46,775.11,405.39,771.38,401.26z M391.96,475.17c0,2.48-2.02,4.5-4.5,4.5h-63.87c-2.48,0-4.5-2.02-4.5-4.5v-20.78
			c0-1.26,0.54-2.47,1.47-3.32c0.93-0.85,2.18-1.27,3.44-1.16c1.52,0.14,2.71,0.18,3.56,0.12c0.92-0.07,1.35-0.15,1.5-0.19
			c0.47-0.17,1.21-0.61,1.21-3.27c0-1.03-0.18-2.14-0.55-3.32h-27.78c-0.66,2.26-0.78,3.47-0.78,4.05c0,2.59,0.43,2.59,1.6,2.59
			h7.79c2.49,0,4.5,2.02,4.5,4.5v20.78c0,2.48-2.01,4.5-4.5,4.5h-52.01c-2.48,0-4.5-2.02-4.5-4.5v-20.78c0-2.48,2.02-4.5,4.5-4.5
			h2.21c1.13,0,2.41,0.08,3.89,0.25c1.79,0,3.62-3.11,4.32-4.44c0.58-1.12,1.27-2.76,2.05-4.85c0.8-2.14,1.64-4.81,2.51-7.95
			c0.01-0.03,0.02-0.07,0.03-0.11c3.07-10.08,3.53-13.76,3.53-15.06c0-1.8-0.48-3.16-1.51-4.28c-1.14-1.23-1.5-2.99-0.94-4.56
			c0.56-1.58,1.95-2.71,3.6-2.95c0.69-0.1,4.36-1.25,9.12-14.21c2.78-7.35,4.37-13.38,4.73-17.99c-0.5-0.35-0.74-0.4-0.75-0.4h-9.75
			c-2.48,0-4.5-2.01-4.5-4.5v-20.77c0-2.49,2.02-4.5,4.5-4.5h83.18c2.48,0,4.5,2.01,4.5,4.5v20.77c0,1.28-0.54,2.49-1.48,3.34
			c-0.95,0.86-2.2,1.27-3.47,1.14c-1.46-0.15-2.67-0.22-3.62-0.22h-1.87c-0.71,0.11-1.35,0.31-1.96,0.58
			c0.95,6.67,2.63,13.21,4.99,19.49c4.51,12.22,7.79,12.48,7.82,12.48c1.65,0.07,3.12,1.02,3.86,2.49c0.73,1.47,0.61,3.22-0.33,4.57
			c-0.72,1.04-1.57,3.17-1.57,7.46c0,1.94,0.64,6.43,3.71,16.81c2.48,8.49,3.92,11.47,4.53,12.47c0.9,0.17,3.01,0.44,7.59,0.44
			c2.48,0,4.5,2.02,4.5,4.5V475.17z M513.89,399.67c-0.64-0.55-1.2-1.91-1.53-3.75c0-0.03-0.01-0.06-0.01-0.1
			c-0.05-0.33-0.29-2.42-0.29-9.71c0-3.07,0.05-5.38,0.11-7.12c0.49-0.01,1.05-0.01,1.62,0c0.26,0.01,0.52-0.01,0.78-0.02v19
			c0,0.89,0.09,1.75,0.26,2.59C514.53,400.25,514.22,399.95,513.89,399.67z M518.84,368.84c0,1.21-0.49,2.37-1.36,3.22
			c-0.78,0.77-1.82,1.19-2.91,1.25c-0.11,0.01-0.22,0.03-0.33,0.03c-0.38-0.01-0.75-0.01-1.12-0.01c-6.41,0-8.27,1.23-8.71,1.64
			c-0.2,0.82-0.65,3.71-0.65,12.94c0,7.75,0.29,9.97,0.41,10.57c0.72,3.74,2.13,6.39,4.34,8.16c1.38,1.1,1.98,2.91,1.55,4.62
			c-0.35,1.36-1.3,2.47-2.56,3.01c-0.28,0.31-0.92,1.08-2,2.82c-1.68,2.96-1.74,4.02-1.74,4.07v26.63
			c0,16.22-8.04,35.54-46.34,35.54c-11.58,0-21.53-1.58-29.58-4.7c-13.51-5.2-20.66-15.19-20.66-28.88v-28.28
			c-0.03-0.19-0.29-1.32-1.94-4.18c-1.2-2.08-1.87-2.9-2.12-3.17c-1.23-0.66-2.09-1.85-2.32-3.24c-0.26-1.61,0.37-3.24,1.64-4.25
			c2.39-1.9,3.9-4.64,4.62-8.39c0.03-0.41,0.12-2.42,0.12-11.06c0-8.76-0.17-11.17-0.25-11.81c-0.46-1.67-1.23-2.51-3.89-2.51
			c-0.61,0-1.22,0.03-1.8,0.09c-0.61,0.07-1.34,0.18-2.16,0.32c-1.31,0.24-2.65-0.12-3.67-0.98c-1.02-0.85-1.61-2.11-1.61-3.45
			v-20.77c0-2.49,2.01-4.5,4.5-4.5h61.15c1.45,0,2.74,0.68,3.56,1.74c0.82-1.06,2.11-1.74,3.56-1.74h47.77
			c0.09,0,0.17,0.02,0.26,0.02c2.36,0.14,4.24,2.08,4.24,4.48V368.84z M633.35,398.91c0,2.48-2.02,4.5-4.5,4.5h-25.58
			c-0.81,0-1.57-0.22-2.23-0.59c0.71,0.96,1.41,1.84,2.06,2.64c0.71,0.87,1.16,1.31,1.42,1.53c1.26,1.09,1.81,2.78,1.44,4.4
			c-0.37,1.63-1.6,2.91-3.21,3.35c-2.23,0.6-3.15,4.82-3.5,7.29v0.05c-0.04,0.52-0.12,2.77-0.12,12.27
			c0,10.32,0.26,12.72,0.35,13.24c0.27,0.91,0.92,2.55,5.65,2.55h2.37c0.53,0,1.11-0.06,1.74-0.18c1.31-0.24,2.66,0.12,3.69,0.98
			c1.02,0.85,1.62,2.12,1.62,3.45v20.78c0,2.48-2.02,4.5-4.5,4.5h-63.87c-2.48,0-4.5-2.02-4.5-4.5v-20.78c0-2.48,2.02-4.5,4.5-4.5
			c5.76,0,7.47-0.09,7.97-0.13c0.1-0.02,0.2-0.04,0.3-0.06c2.34-0.37,2.69-1.18,2.82-2.37v-12.98c0-9.71-0.18-12.63-0.29-13.51
			c-0.49-2.85-1.89-5.07-4.28-6.8c-1.01-0.72-1.67-1.83-1.83-3.07c-0.16-1.23,0.19-2.47,0.98-3.43c1.48-1.8,2.56-3.24,3.34-4.39
			c-0.62,0.32-1.32,0.5-2.06,0.5h-25.75c-2.49,0-4.5-2.01-4.5-4.5v-51.08c0-2.49,2.01-4.5,4.5-4.5h101.47c2.48,0,4.5,2.01,4.5,4.5
			V398.91z M765.86,412.82c-0.82,1.39-2.31,4.35-4.76,10.62c-3.67,20.97-10.63,36.58-20.69,46.41c-9.59,8.97-22.7,13.48-39.06,13.48
			c-0.5,0-0.97-0.08-1.42-0.23c-0.37-0.03-0.89-0.08-1.62-0.15c-2.52-0.23-6.74-0.66-13.29-1.35c-9.97-0.77-19.24-6.69-27.56-17.61
			c-7.85-10.6-12.42-22.69-13.61-35.99c-0.29-3.16-1.22-6.48-2.77-9.86c-0.08-0.12-0.33-0.46-0.97-1.15c-0.76-0.82-1.86-1.83-3.28-3
			c-1.02-0.84-1.61-2.07-1.64-3.39c-0.02-1.31,0.53-2.57,1.51-3.44c3.08-2.75,5.4-7.75,6.89-14.88c3-14.92,4.16-18.68,4.87-20.21
			c9.22-21.35,26.73-32.17,52.04-32.17c32.05,0,51.72,18.48,58.47,54.92c0.01,0.05,0.02,0.1,0.02,0.16
			c0.26,1.74,1.12,3.94,2.55,6.55c2.19,4.15,3.28,5.45,3.65,5.82C766.64,408.81,766.91,411.06,765.86,412.82z"/>
		<path fill="#B97C2B" d="M708.695,414.256c-1.181-0.707-1.973-1.916-2.15-3.281c-0.177-1.365,0.28-2.736,1.241-3.722
			c3.423-3.51,5.159-8.949,5.159-16.167c0-17.742-8.124-17.742-11.593-17.742c-3.368,0-11.254,0-11.254,18.476
			c0,5.499,0.365,7.11,0.477,7.473c0.016,0.052,0.031,0.104,0.045,0.157c0.596,2.215,2.31,4.97,4.957,7.967
			c0.894,1.012,1.286,2.371,1.068,3.703s-1.021,2.496-2.19,3.171c-0.688,0.398-2.018,1.651-3.191,5.581
			c-1.111,3.712-1.675,7.349-1.675,10.811c0,6.568,1.291,11.864,3.835,15.739c2.211,3.368,4.946,4.937,8.605,4.937
			c3.124,0,11.423,0,11.423-19.942C713.453,422.188,711.763,416.094,708.695,414.256z M700.526,379.053
			c0.149-0.027,0.408-0.06,0.806-0.06c0.695,0,1.072,0.08,1.228,0.124c0.303,0.41,1.799,2.825,1.799,10.342
			c0,3.684-0.484,8.58-2.75,11.31c-2.179-2.754-2.621-4.177-2.69-4.452c-0.01-0.04-0.02-0.08-0.031-0.119
			c-0.055-0.372-0.244-1.949-0.244-5.965C698.643,382.364,700.135,379.632,700.526,379.053z M702.681,444.75
			c-0.129,0.021-0.348,0.046-0.674,0.046c-0.171,0-0.275-0.013-0.306-0.013c-0.003,0-0.006,0-0.008,0
			c-0.08-0.059-0.435-0.352-0.952-1.186c-1.704-2.749-2.604-7.024-2.604-12.362c0-2.917,0.459-6.023,1.367-9.236
			c0.263-0.931,0.499-1.527,0.655-1.872c0.508-0.392,0.984-0.819,1.426-1.277c0.526,0.546,1.103,1.049,1.724,1.5
			c0.399,0.832,1.555,3.911,1.555,11.658C704.864,441.155,703.104,444.161,702.681,444.75z"/>
		<path fill="#B97C2B" d="M340.17,652.945c0.019-0.037,0.038-0.073,0.058-0.109c1.337-2.443,1.988-5.094,1.988-8.104
			c0-2.941-0.704-5.54-2.151-7.945c-0.985-1.635-1.939-2.464-2.835-2.464h-10.746v21.797h11.254
			C337.733,656.119,338.725,655.767,340.17,652.945z"/>
		<path fill="#B97C2B" d="M472.299,674.256c-1.181-0.707-1.973-1.916-2.15-3.281c-0.177-1.365,0.28-2.736,1.241-3.722
			c3.423-3.51,5.159-8.949,5.159-16.167c0-17.742-8.124-17.742-11.593-17.742c-3.368,0-11.254,0-11.254,18.476
			c0,5.499,0.365,7.11,0.477,7.473c0.016,0.052,0.031,0.104,0.045,0.157c0.596,2.215,2.31,4.97,4.957,7.967
			c0.894,1.012,1.286,2.371,1.068,3.703s-1.021,2.496-2.19,3.171c-0.688,0.398-2.018,1.651-3.191,5.581
			c-1.111,3.712-1.675,7.349-1.675,10.811c0,6.568,1.291,11.864,3.835,15.739c2.211,3.368,4.946,4.937,8.605,4.937
			c3.124,0,11.423,0,11.423-19.942C477.057,682.188,475.368,676.094,472.299,674.256z M464.095,639.053
			c0.149-0.027,0.408-0.06,0.806-0.06c0.695,0,1.072,0.08,1.228,0.124c0.303,0.41,1.799,2.825,1.799,10.342
			c0,3.684-0.484,8.58-2.75,11.31c-2.179-2.754-2.621-4.177-2.69-4.452c-0.01-0.04-0.02-0.08-0.031-0.119
			c-0.055-0.372-0.244-1.949-0.244-5.965C462.211,642.364,463.704,639.632,464.095,639.053z M466.25,704.75
			c-0.129,0.021-0.348,0.046-0.674,0.046c-0.171,0-0.275-0.013-0.306-0.013c-0.003,0-0.006,0-0.008,0
			c-0.08-0.059-0.435-0.352-0.952-1.186c-1.704-2.749-2.604-7.024-2.604-12.362c0-2.917,0.459-6.023,1.367-9.236
			c0.263-0.931,0.499-1.527,0.655-1.872c0.508-0.392,0.984-0.819,1.426-1.277c0.526,0.546,1.103,1.049,1.724,1.5
			c0.399,0.832,1.555,3.911,1.555,11.658C468.433,701.155,466.673,704.161,466.25,704.75z"/>
		<path fill="#B97C2B" d="M750,667.92h-25.64c-0.16,0-0.31,0-0.47,0.01c-0.47-3.22-2.16-6.22-4.81-8.31
			c-0.69-0.54-1.45-1.39-1.85-3.52v-0.01c-0.05-0.35-0.28-2.48-0.28-9.98c0-3.2,0.05-5.6,0.11-7.37h0.38c0.04,0,0.38,0,1.1,0.11
			c3.75,0.56,7.55-0.53,10.42-3c2.87-2.47,4.52-6.07,4.52-9.86v-21.92c0-7.17-5.82-13-13-13h-69.84c-7.18,0-13,5.83-13,13v21.92
			c0,7.18,5.82,13,13,13h4.71v0.92c0,0.01,0,0.21-0.06,0.67c-0.07,0.55-0.11,1.1-0.11,1.66v3.35c0,1.19,0.07,2.71,0.2,4.62
			c0.13,1.85,0.14,2.62,0.14,2.86c0,4.3-1.36,6.1-2.54,7.18c-3,2.76-4.54,6.78-4.15,10.84c0.37,3.79,2.38,7.21,5.47,9.38
			c0.17,0.42,0.45,1.32,0.63,2.93c0.01,0.08,0.01,0.13,0.02,0.21c0.04,0.33,0.23,2.46,0.23,11.49c0,0.29,0.01,0.57,0.03,0.85
			l0.14,2.16v4.21c0,0.33,0,0.64-0.01,0.93h-4.7c-0.17,0-0.33,0.02-0.5,0.02v-22.35c0-7.18-5.82-13-13-13H611.5
			c-0.16,0-0.31,0-0.47,0.01c-0.47-3.22-2.16-6.22-4.81-8.31c-0.69-0.54-1.45-1.39-1.85-3.52v-0.01c-0.05-0.35-0.28-2.48-0.28-9.98
			c0-3.2,0.05-5.6,0.12-7.37h0.37c0.04,0,0.38,0,1.11,0.11c3.74,0.56,7.54-0.53,10.41-3c2.87-2.47,4.52-6.07,4.52-9.86v-21.92
			c0-7.17-5.82-13-13-13h-69.84c-7.18,0-13,5.83-13,13v21.92c0,7.18,5.82,13,13,13h4.71v0.92c0,0.01,0,0.21-0.06,0.67
			c-0.07,0.55-0.11,1.1-0.11,1.66v3.35c0,1.19,0.07,2.71,0.2,4.62c0.13,1.85,0.14,2.62,0.14,2.86c0,4.3-1.36,6.1-2.54,7.18
			c-1.31,1.21-2.32,2.66-3.04,4.24c-0.54-1.16-1.25-2.25-2.13-3.23c-0.18-0.26-0.94-1.37-2.41-4.31c-0.03-0.05-0.06-0.11-0.09-0.17
			c-1.43-2.78-1.67-4.09-1.7-4.33c-0.02-0.14-0.05-0.28-0.07-0.43c-9.37-53.57-41.4-64.81-66.62-64.81
			c-28.6,0-49.24,13.49-59.7,39.03c-0.7,1.61-1.55,4.16-3.25,12.31c-0.58-1.71-1.52-3.31-2.8-4.68c-0.2-0.22-0.37-0.4-0.51-0.56
			c-2.68-13.69-9.2-24.64-19.48-32.6c-8.36-6.39-17.37-9.64-26.78-9.64h-80.98c-7.18,0-13,5.83-13,13v21.92
			c0,3.79,1.65,7.39,4.52,9.86c2.87,2.47,6.67,3.56,10.42,3c0.18-0.03,0.36-0.06,0.53-0.08c0.03,1.75,0.05,3.98,0.05,6.82
			c0,8.18-0.06,10.83-0.09,11.64c-0.09,0.55-0.18,0.98-0.27,1.31c-3.56,2.03-5.99,5.66-6.47,9.82c-0.57,5.01,1.81,9.9,6.1,12.54
			c0.08,0.15,0.27,0.55,0.42,1.27c0.08,0.63,0.31,3.34,0.31,12.67c0,3.86-0.06,6.59-0.13,8.5c-0.49-0.01-1.02-0.03-1.56-0.07
			c-3.59-0.22-7.11,1.04-9.73,3.5c-2.61,2.46-4.1,5.89-4.1,9.48v21.92c0,7.18,5.82,13,13,13h62.08c4.73,0,8.87-2.53,11.15-6.31
			c4.67,4.19,9.64,6.31,14.83,6.31h32.9c7.18,0,13-5.82,13-13v-21.92c0-4.53-2.36-8.74-6.23-11.1c-0.91-0.56-1.88-0.99-2.88-1.31
			v-11.32c0-5.43-1.5-13.08-8.04-20.55c1.69-2.34,2.91-4.47,3.71-5.84c-0.41,1.31-0.61,2.69-0.58,4.08
			c0.07,3.66,1.68,7.13,4.44,9.54c1.48,1.3,2.19,2.04,2.46,2.36h0.01c0.96,2.44,1.55,4.78,1.73,6.97
			c1.32,15.46,6.35,29.55,14.95,41.86c0.04,0.06,0.07,0.1,0.11,0.15c9.77,13.58,21.07,21.01,33.59,22.08
			c6.45,0.72,10.66,1.17,13.23,1.42c0.29,0.03,0.55,0.05,0.79,0.07c0.99,0.25,2.02,0.38,3.09,0.38c18.66,0,33.78-5.6,44.91-16.64
			c0.07-0.07,0.14-0.14,0.21-0.2c6.06-6.29,11.01-14.21,14.92-23.88c-0.1,0.63-0.16,1.27-0.16,1.93v21.92c0,7.18,5.82,13,13,13
			h99.36c2.48,0,4.78-0.71,6.75-1.91c1.97,1.2,4.27,1.91,6.75,1.91H750c7.18,0,13-5.82,13-13v-57.25
			C763,673.74,757.18,667.92,750,667.92z M393.03,646.87c-1.59,2.94-3.12,5.75-4.59,8.45c-1.5,2.75-3.03,5.33-4.54,7.68
			c-2.59,4.28-5.23,7.58-7.93,9.94c0.79,0.58,1.56,1.2,2.32,1.87c5.86,4.94,8.84,10.69,8.84,17.09v16.63c0,0.06,0.2,0.38,1.1,0.79
			c1.26,0.61,1.9,0.76,2.12,0.8c1.26-0.42,2.67-0.26,3.82,0.46c1.31,0.82,2.11,2.26,2.11,3.81v20.78c0,2.48-2.02,4.5-4.5,4.5h-33.04
			c-4.11,0-8.16-2.35-12.36-7.17c-3.88-4.39-5.86-9.17-5.86-14.2v-20.77c0-1.45-0.72-2.93-2.19-4.53c-1.91-2.06-2.83-2.22-2.84-2.22
			h-9.68v13.83c0,2.84,0.38,4.21,0.64,4.81c0.99,0.09,2.89,0.25,6.49,0.48c2.37,0.15,4.22,2.12,4.22,4.49v20.78
			c0,2.48-2.02,4.5-4.5,4.5h-62.34c-2.49,0-4.5-2.02-4.5-4.5v-20.78c0-1.24,0.51-2.42,1.41-3.27c0.9-0.86,2.11-1.3,3.36-1.22
			c5.59,0.34,9.46-0.51,10.15-2.15c0.02-0.05,0.05-0.11,0.07-0.16c0.15-0.61,0.59-3.29,0.59-13.49c0-9.98-0.3-12.65-0.43-13.34
			c-0.63-3.08-1.99-5.16-4.26-6.47c-1.55-0.89-2.42-2.61-2.23-4.38c0.2-1.78,1.42-3.27,3.12-3.81c1.83-0.57,3.06-2.89,3.68-6.89
			c0.04-0.45,0.12-2.52,0.12-11.79c0-10.68-0.29-12.91-0.37-13.34c-0.24-0.92-3.39-1.44-7.2-1.12c-0.86,0.08-1.83,0.19-2.88,0.34
			c-1.29,0.19-2.6-0.2-3.58-1.06c-0.99-0.85-1.55-2.09-1.55-3.4v-20.77c0-2.49,2.01-4.5,4.5-4.5h81.31c7.48,0,14.75,2.51,21.6,7.45
			c8.97,6.56,14.58,15.82,16.71,27.53c0.01,0.06,0.02,0.12,0.03,0.19c0.11,0.23,0.59,1.1,2.29,2.82
			C393.66,642.97,393.97,645.12,393.03,646.87z M394.58,660.5c-0.24,0.23-0.46,0.47-0.69,0.72c0.65-1.18,1.29-2.38,1.93-3.62
			c0.72-1.39,1.45-2.82,2.2-4.27C396.61,658.25,395.09,660.02,394.58,660.5z M524.71,683.44c-3.67,20.97-10.63,36.58-20.7,46.41
			c-9.58,8.97-22.7,13.48-39.05,13.48c-0.5,0-0.98-0.08-1.43-0.23c-0.36-0.03-0.88-0.08-1.61-0.15c-2.52-0.23-6.75-0.66-13.29-1.35
			c-9.97-0.77-19.25-6.69-27.57-17.61c-7.85-10.6-12.41-22.69-13.61-35.99c-0.28-3.16-1.21-6.48-2.76-9.86
			c-0.08-0.12-0.34-0.46-0.98-1.15c-0.75-0.82-1.86-1.83-3.28-3c-1.01-0.84-1.61-2.07-1.63-3.39c-0.03-1.31,0.52-2.57,1.5-3.44
			c3.09-2.75,5.41-7.75,6.89-14.88c3-14.92,4.16-18.68,4.88-20.21c9.22-21.35,26.72-32.17,52.04-32.17
			c32.04,0,51.71,18.48,58.46,54.92c0.01,0.05,0.02,0.1,0.03,0.16c0.26,1.74,1.11,3.94,2.54,6.55c2.2,4.15,3.29,5.45,3.65,5.82
			c1.45,1.46,1.73,3.71,0.68,5.47C528.64,674.21,527.15,677.17,524.71,683.44z M526.85,709.22c2.42-7.01,4.36-14.84,5.84-23.56
			c2.29-6.16,3.51-8.56,3.94-9.33c0.18-0.33,0.35-0.67,0.51-1.01c0.95,2.05,2.42,3.83,4.3,5.15c0.17,0.42,0.45,1.32,0.63,2.93
			c0.01,0.08,0.01,0.13,0.02,0.21c0.04,0.33,0.23,2.46,0.23,11.49c0,0.29,0.01,0.57,0.03,0.85l0.14,2.16v4.21
			c0,0.33,0,0.64-0.01,0.93h-4.7C533.19,703.25,529.17,705.63,526.85,709.22z M637.4,739.67h-99.77c-2.49,0-4.5-2.02-4.5-4.5v-20.78
			c0-2.48,2.01-4.5,4.5-4.5h12.02c0.35-0.6,1.26-2.71,1.26-8.7v-4.24l-0.15-2.29c-0.01-0.1-0.01-0.21-0.01-0.31
			c0-8.44-0.19-11.05-0.3-11.85c-0.51-4.28-1.82-7.01-3.89-8.21c-1.26-0.73-2.09-2.02-2.23-3.47c-0.14-1.45,0.43-2.87,1.53-3.83
			c3.52-3.04,5.22-7.12,5.22-12.48c0-0.68-0.05-1.76-0.15-3.22c-0.13-1.66-0.18-2.92-0.18-3.87v-3.18c0-0.2,0.01-0.41,0.04-0.61
			c0.08-0.62,0.12-1.15,0.12-1.59v-1.71c0-0.71-0.05-6.99-1.93-6.99h-11.35c-2.49,0-4.5-2.01-4.5-4.5v-20.77
			c0-2.49,2.01-4.5,4.5-4.5h70.13c2.48,0,4.5,2.01,4.5,4.5v20.77c0,1.31-0.57,2.55-1.55,3.4c-0.98,0.86-2.29,1.24-3.58,1.06
			c-0.94-0.13-1.75-0.2-2.42-0.2h-2.54c-3.85,0-5.53,0.82-5.8,1.51c-0.1,0.32-0.71,2.61-0.71,13.3c0,7.97,0.29,10.22,0.41,10.81
			c0.7,3.51,2.29,6.13,4.89,8.06c1.44,1.07,2.1,2.9,1.69,4.64c-0.33,1.44-1.35,2.6-2.68,3.14c-0.3,0.29-1.05,1.1-2.4,3.04
			c-1.78,2.57-1.91,3.56-1.91,3.6v28.45h0.41c2.84,0,5.26-0.81,7.4-2.48c2.52-1.93,3.69-4.52,3.69-8.18v-18.08
			c0-2.49,2.01-4.5,4.5-4.5h25.74c2.49,0,4.5,2.01,4.5,4.5v54.26c0,2.37-1.84,4.3-4.17,4.46
			C637.62,739.64,637.51,739.67,637.4,739.67z M754.72,735.17c0,2.48-2.01,4.5-4.5,4.5h-99.77c-2.49,0-4.5-2.02-4.5-4.5v-20.78
			c0-2.48,2.01-4.5,4.5-4.5h12.02c0.35-0.6,1.26-2.71,1.26-8.7v-4.24l-0.15-2.29c-0.01-0.1-0.01-0.21-0.01-0.31
			c0-8.44-0.19-11.05-0.3-11.85c-0.51-4.28-1.81-7.01-3.89-8.21c-1.26-0.73-2.09-2.02-2.23-3.47c-0.14-1.45,0.43-2.87,1.53-3.83
			c3.52-3.04,5.22-7.12,5.22-12.48c0-0.68-0.05-1.76-0.15-3.22c-0.13-1.66-0.18-2.92-0.18-3.87v-3.18c0-0.2,0.01-0.41,0.04-0.61
			c0.08-0.62,0.12-1.15,0.12-1.59v-1.71c0-0.71-0.05-6.99-1.93-6.99h-11.35c-2.49,0-4.5-2.01-4.5-4.5v-20.77
			c0-2.49,2.01-4.5,4.5-4.5h70.13c2.48,0,4.5,2.01,4.5,4.5v20.77c0,1.31-0.57,2.55-1.55,3.4c-0.98,0.86-2.29,1.24-3.58,1.06
			c-0.94-0.13-1.75-0.2-2.42-0.2h-2.54c-3.85,0-5.53,0.82-5.8,1.51c-0.1,0.32-0.71,2.61-0.71,13.3c0,7.97,0.29,10.22,0.41,10.81
			c0.7,3.51,2.29,6.13,4.89,8.06c1.44,1.07,2.1,2.9,1.7,4.64c-0.34,1.44-1.36,2.6-2.69,3.14c-0.3,0.29-1.05,1.1-2.4,3.04
			c-1.78,2.57-1.91,3.56-1.91,3.6v28.45h0.41c2.84,0,5.26-0.81,7.4-2.48c2.52-1.93,3.69-4.52,3.69-8.18v-18.08
			c0-2.49,2.01-4.5,4.5-4.5h25.74c2.49,0,4.5,2.01,4.5,4.5V735.17z"/>
		<path fill="#FFF6CC" d="M375.407,457.416c-2.591-1.332-4.845-4.687-8.7-17.896c-2.78-9.41-4.077-15.562-4.077-19.348
			c0-2.879,0.296-5.395,0.898-7.584c-4.857-3.451-8.001-10.57-10.107-16.278c-2.931-7.775-4.899-15.952-5.84-24.272
			c-0.163-1.443,0.38-2.876,1.459-3.848c2.485-2.24,5.467-3.603,8.861-4.051c0.195-0.026,0.392-0.039,0.589-0.039h1.768v-11.532
			h-74.175v11.776h5.325c2.864,0,5.631,1.399,8.461,4.279c0.827,0.842,1.291,1.974,1.291,3.154c0,5.984-1.757,13.54-5.373,23.101
			c-3.204,8.714-6.648,14.443-10.576,17.476c0.581,1.653,0.873,3.448,0.873,5.375c0,2.065-0.405,6.14-3.906,17.634
			c-0.933,3.358-1.851,6.258-2.728,8.619c-0.918,2.476-1.741,4.403-2.514,5.888c-3.358,6.389-7.708,9.519-12.856,9.26
			c-0.102-0.005-0.204-0.014-0.305-0.025c-0.251-0.03-0.495-0.057-0.73-0.08v11.643h43.006v-11.776h-3.292
			c-5.124,0-10.598-3.044-10.598-11.588c0-2.501,0.752-5.8,2.3-10.084c0.645-1.783,2.337-2.971,4.232-2.971h34.049
			c1.719,0,3.288,0.979,4.042,2.523c1.652,3.379,2.49,6.676,2.49,9.798c0,8.14-4.688,10.916-7.482,11.847
			c-0.056,0.019-0.113,0.036-0.17,0.053c-0.885,0.256-1.956,0.425-3.371,0.532c-0.052,0.004-0.104,0.008-0.157,0.012v11.654h54.864
			v-11.874c-4.335-0.214-6.152-0.746-7.326-1.269C375.556,457.49,375.48,457.454,375.407,457.416z M330.276,417.941
			c-0.848,1.159-2.197,1.843-3.632,1.843h-20.836c-1.439,0-2.792-0.688-3.638-1.852c-0.847-1.164-1.086-2.662-0.644-4.031
			l10.503-32.508c0.601-1.858,2.331-3.117,4.282-3.117c0.003,0,0.007,0,0.011,0c1.956,0.005,3.685,1.272,4.278,3.137l10.333,32.508
			C331.367,415.289,331.123,416.782,330.276,417.941z"/>
		<path fill="#FFF6CC" d="M471.066,364.285c6.987,0.668,9.521,4.884,10.423,7.482c0.04,0.114,0.075,0.229,0.105,0.347
			c0.339,1.306,0.652,4.064,0.652,15.307c0,10.788-0.11,12.145-0.245,12.81c-0.658,4.079-2.061,7.419-4.186,9.987
			c2.192,2.869,3.595,6.168,4.187,9.857c0.13,0.637,0.245,1.886,0.245,10.608c0,4.634-0.279,8.593-0.828,11.767
			c-0.627,3.62-1.699,6.485-3.276,8.761c-1.724,2.487-4.079,4.283-7,5.336c-2.551,0.92-5.544,1.367-9.15,1.367
			c-7.663,0-12.359-1.504-14.78-4.733c-2.715-3.477-3.949-9.909-3.949-20.787c0-9.885,0.106-11.168,0.247-11.844
			c0.686-4.253,2.182-7.855,4.464-10.765c-2.275-2.939-3.771-6.213-4.46-9.777c-0.015-0.077-0.028-0.154-0.039-0.231
			c-0.08-0.569-0.213-1.522-0.213-12.355c0-3.724,0.028-6.486,0.086-8.444c0.082-2.878,0.214-3.943,0.319-4.549
			c1.105-6.392,5.195-10.192,11.283-10.544v-11.314h-52.153v11.288c0.081,0,0.162-0.001,0.243-0.001
			c6.539,0,11.156,3.47,12.667,9.52c0.027,0.108,0.05,0.217,0.069,0.326c0.188,1.092,0.404,3.61,0.404,13.474
			c0,10.794-0.137,11.8-0.21,12.34c-0.01,0.071-0.021,0.141-0.034,0.211c-0.764,4.124-2.267,7.639-4.487,10.501
			c0.501,0.741,1.026,1.59,1.587,2.561c2.175,3.766,3.145,6.42,3.145,8.606v28.353c0,10.067,4.735,16.577,14.902,20.486
			c7.021,2.722,15.877,4.1,26.336,4.1c33.471,0,37.342-15.147,37.342-26.542V421.15c0-2.316,0.942-5.045,2.964-8.586
			c0.024-0.042,0.049-0.085,0.075-0.127c0.561-0.911,1.09-1.713,1.599-2.418c-1.963-2.681-3.32-5.952-4.05-9.778
			c-0.266-1.274-0.588-3.901-0.588-12.332c0-13.349,0.869-15.889,1.837-17.486c2.175-3.556,6.519-5.522,13.239-5.985v-11.87h-38.771
			V364.285z"/>
		<path fill="#FFF6CC" d="M531.878,394.652h16.749v-19.208c0-6.394,4.126-10.366,10.768-10.366c1.308,0,4.371,0,6.057,2.406
			c0.53,0.757,0.815,1.658,0.815,2.583v29.331c0,2.727-1.471,5.972-4.824,10.498c2.328,2.665,3.812,5.858,4.424,9.539
			c0.007,0.042,0.013,0.083,0.019,0.124c0.164,1.186,0.381,4.009,0.381,14.792v13.199c0,0.135-0.006,0.271-0.018,0.405
			c-0.509,5.635-4.105,9.459-9.895,10.554c-0.735,0.207-2.018,0.32-5.672,0.363v11.797h54.864v-11.531h-0.413
			c-10.17,0-13.336-5.713-14.318-9.119c-0.341-1.146-0.684-3.333-0.684-15.668c0-11.455,0.097-13.034,0.238-13.754
			c0.713-4.875,2.202-8.583,4.446-11.094c-0.357-0.461-0.72-0.939-1.085-1.431c-0.921-1.232-1.73-2.498-2.396-3.752
			c-0.921-1.72-1.372-3.254-1.372-4.677v-30.063c0-2.485,2.015-4.5,4.5-4.5h4.065c3.899,0,6.1,3.668,6.823,4.873
			c1.452,2.43,2.237,4.67,2.407,6.856c0.009,0.116,0.014,0.232,0.014,0.348v17.253h16.58v-41.839h-92.471V394.652z"/>
		<path fill="#FFF6CC" d="M753.614,405.793c-1.918-3.499-3.077-6.596-3.509-9.407c-5.938-31.953-22.162-47.483-49.601-47.483
			c-21.716,0-36.045,8.767-43.807,26.8c-0.027,0.064-0.056,0.127-0.087,0.19c-0.226,0.5-1.219,3.333-4.208,18.19
			c-1.417,6.802-3.518,12.106-6.381,16.072c0.247,0.247,0.479,0.488,0.697,0.724c1.284,1.391,2.02,2.388,2.466,3.338
			c2.027,4.387,3.243,8.744,3.626,12.974c1.047,11.633,5.031,22.196,11.841,31.398c6.674,8.753,13.791,13.496,21.113,14.046
			c0.044,0.003,0.087,0.007,0.131,0.012c6.542,0.684,10.75,1.109,13.243,1.339c1.036,0.095,1.814,0.173,2.332,0.233
			c0.247,0.028,0.481,0.065,0.703,0.11c13.608-0.142,24.376-3.834,32.017-10.98c8.678-8.484,14.799-22.599,18.12-41.881
			c0.051-0.295,0.131-0.584,0.239-0.863c1.561-4.026,2.917-7.207,4.102-9.621C755.736,409.625,754.736,407.915,753.614,405.793z
			 M702.029,460.358c-6.687,0-12.263-3.111-16.128-8.997c-3.525-5.368-5.312-12.325-5.312-20.679c0-4.337,0.69-8.841,2.052-13.39
			c0.894-2.991,2.037-5.415,3.454-7.306c-2.065-2.833-3.431-5.515-4.146-8.124c-0.402-1.339-0.852-3.721-0.852-10.044
			c0-23.906,12.69-27.476,20.254-27.476c7.691,0,20.593,3.474,20.593,26.742c0,7.603-1.612,13.905-4.801,18.804
			c3.564,4.439,5.309,11.545,5.309,21.525C722.453,455.337,711.346,460.358,702.029,460.358z"/>
		<path fill="#FFF6CC" d="M367.944,618.3c-5.338-3.851-10.683-5.731-16.315-5.731h-76.812v11.316
			c0.487-0.02,0.964-0.029,1.429-0.029c9.965,0,12.74,5.03,13.507,8.029c0.335,1.292,0.649,4.08,0.649,15.536
			c0,11.201-0.109,12.619-0.244,13.289c-0.74,4.667-2.254,7.851-4.04,10.017c1.78,2.266,3.013,5.039,3.683,8.295
			c0.287,1.518,0.601,4.531,0.601,15.083c0,12.92-0.655,15.833-1.479,17.396c-2.065,4.591-6.805,7.088-14.106,7.434v11.733h53.339
			v-12.075c-4.299-0.326-4.774-0.499-5.343-0.707c-0.226-0.083-0.446-0.184-0.656-0.301c-5.351-2.996-5.351-10.503-5.351-12.97
			v-18.331c0-2.485,2.015-4.5,4.5-4.5h14.229c3.147,0,6.223,1.672,9.403,5.111c3.042,3.294,4.584,6.871,4.584,10.632v20.776
			c0,2.805,1.183,5.509,3.617,8.265c3.322,3.806,5.129,4.1,5.604,4.1h28.533v-12.05c-0.896-0.273-1.852-0.656-2.876-1.151
			c-5.446-2.493-6.271-6.674-6.271-8.941v-16.621c0-3.685-1.857-7.034-5.677-10.241c-0.031-0.026-0.062-0.053-0.092-0.08
			c-2.435-2.159-4.998-3.65-7.619-4.433c-2.084-0.622-3.424-2.645-3.186-4.806s1.989-3.843,4.158-3.995
			c2.979-0.209,6.718-3.784,10.527-10.065c0.021-0.034,0.042-0.067,0.063-0.101c1.404-2.183,2.831-4.598,4.241-7.179
			c0.993-1.821,2.014-3.7,3.062-5.635c-1.533-1.947-2.346-3.672-2.553-5.368C379.31,630.578,375.021,623.478,367.944,618.3z
			 M317.484,629.822c0-2.485,2.015-4.5,4.5-4.5h15.246c2.936,0,7.149,1.184,10.545,6.822c2.284,3.794,3.441,8.029,3.441,12.587
			c0,4.475-1.031,8.637-3.064,12.372c-2.74,5.319-6.244,8.016-10.414,8.016h-15.754c-2.485,0-4.5-2.015-4.5-4.5V629.822z"/>
		<path fill="#FFF6CC" d="M517.219,665.793c-1.918-3.499-3.077-6.596-3.509-9.407c-5.938-31.953-22.162-47.483-49.601-47.483
			c-21.716,0-36.045,8.767-43.807,26.8c-0.027,0.064-0.056,0.127-0.087,0.19c-0.226,0.5-1.219,3.333-4.208,18.19
			c-1.417,6.802-3.518,12.106-6.381,16.072c0.247,0.247,0.479,0.488,0.697,0.724c1.284,1.391,2.02,2.388,2.466,3.338
			c2.027,4.387,3.243,8.744,3.626,12.974c1.047,11.633,5.031,22.196,11.841,31.398c6.674,8.753,13.791,13.496,21.113,14.046
			c0.044,0.003,0.087,0.007,0.131,0.012c6.542,0.684,10.75,1.109,13.243,1.339c1.036,0.095,1.814,0.173,2.332,0.233
			c0.247,0.028,0.481,0.065,0.703,0.11c13.608-0.142,24.376-3.834,32.017-10.98c8.678-8.484,14.799-22.599,18.12-41.881
			c0.051-0.295,0.131-0.584,0.239-0.863c1.561-4.026,2.917-7.207,4.102-9.621C519.34,669.625,518.341,667.915,517.219,665.793z
			 M465.634,720.358c-6.687,0-12.263-3.111-16.128-8.997c-3.525-5.368-5.312-12.325-5.312-20.679c0-4.337,0.69-8.841,2.052-13.39
			c0.894-2.991,2.037-5.415,3.454-7.306c-2.065-2.833-3.431-5.515-4.146-8.124c-0.402-1.339-0.852-3.721-0.852-10.044
			c0-23.906,12.69-27.476,20.254-27.476c7.691,0,20.593,3.474,20.593,26.742c0,7.603-1.612,13.905-4.801,18.804
			c3.564,4.439,5.309,11.545,5.309,21.525C486.057,715.337,474.951,720.358,465.634,720.358z"/>
		<path fill="#FFF6CC" d="M616.156,698.993c0,6.41-2.484,11.702-7.184,15.304c-3.705,2.88-8.054,4.35-12.901,4.35
			c-1.441,0-2.594-0.048-3.525-0.147c-1.157-0.118-2.122-0.319-2.929-0.614c-1.776-0.648-2.958-2.337-2.958-4.228V681.15
			c0-2.461,1.116-5.218,3.512-8.674c0.553-0.798,1.072-1.51,1.564-2.141c-2.231-2.742-3.733-6.028-4.483-9.821
			c-0.271-1.303-0.594-3.958-0.594-12.605c0-11.488,0.66-14.787,1.306-16.499c1.288-3.349,4.788-7.311,14.205-7.311h1.09v-11.532
			h-61.131v11.776h6.85c4.084,0,10.937,2.077,10.937,15.988v1.711c0,0.766-0.056,1.584-0.169,2.493v2.884
			c0,0.491,0.027,1.446,0.157,3.214c0.124,1.728,0.182,2.956,0.182,3.874c0,6.114-1.632,11.341-4.861,15.602
			c2.204,2.794,3.595,6.555,4.152,11.242c0.152,1.097,0.367,3.72,0.37,12.84l0.159,2.29c0.007,0.104,0.011,0.207,0.011,0.311v4.399
			c0,11.744-3.338,17.699-9.92,17.699h-7.866v11.776h90.776v-45.261h-16.749V698.993z"/>
		<path fill="#FFF6CC" d="M728.976,698.993c0,6.41-2.484,11.702-7.184,15.304c-3.705,2.88-8.054,4.35-12.901,4.35
			c-1.441,0-2.594-0.048-3.525-0.147c-1.157-0.118-2.122-0.319-2.929-0.614c-1.776-0.648-2.958-2.337-2.958-4.228V681.15
			c0-2.461,1.116-5.218,3.512-8.674c0.553-0.798,1.072-1.51,1.564-2.141c-2.231-2.742-3.733-6.028-4.483-9.821
			c-0.271-1.303-0.594-3.958-0.594-12.605c0-11.488,0.66-14.787,1.306-16.499c1.288-3.349,4.788-7.311,14.205-7.311h1.09v-11.532
			h-61.131v11.776h6.85c4.084,0,10.937,2.077,10.937,15.988v1.711c0,0.766-0.056,1.584-0.169,2.493v2.884
			c0,0.491,0.027,1.446,0.157,3.214c0.124,1.728,0.182,2.956,0.182,3.874c0,6.114-1.632,11.341-4.861,15.602
			c2.204,2.794,3.595,6.555,4.152,11.242c0.152,1.097,0.367,3.72,0.37,12.84l0.159,2.29c0.007,0.104,0.011,0.207,0.011,0.311v4.399
			c0,11.744-3.338,17.699-9.92,17.699h-7.866v11.776h90.776v-45.261h-16.749V698.993z"/>
		<path d="M387.46,449.89c-4.58,0-6.69-0.27-7.59-0.44c-0.61-1-2.05-3.98-4.53-12.47c-3.07-10.38-3.71-14.87-3.71-16.81
			c0-4.29,0.85-6.42,1.57-7.46c0.94-1.35,1.06-3.1,0.33-4.57c-0.74-1.47-2.21-2.42-3.86-2.49c-0.03,0-3.31-0.26-7.82-12.48
			c-2.36-6.28-4.04-12.82-4.99-19.49c0.61-0.27,1.25-0.47,1.96-0.58h1.87c0.95,0,2.16,0.07,3.62,0.22c1.27,0.13,2.52-0.28,3.47-1.14
			c0.94-0.85,1.48-2.06,1.48-3.34v-20.77c0-2.49-2.02-4.5-4.5-4.5h-83.18c-2.48,0-4.5,2.01-4.5,4.5v20.77c0,2.49,2.02,4.5,4.5,4.5
			h9.75c0.01,0,0.25,0.05,0.75,0.4c-0.36,4.61-1.95,10.64-4.73,17.99c-4.76,12.96-8.43,14.11-9.12,14.21
			c-1.65,0.24-3.04,1.37-3.6,2.95c-0.56,1.57-0.2,3.33,0.94,4.56c1.03,1.12,1.51,2.48,1.51,4.28c0,1.3-0.46,4.98-3.53,15.06
			c-0.01,0.04-0.02,0.08-0.03,0.11c-0.87,3.14-1.71,5.81-2.51,7.95c-0.78,2.09-1.47,3.73-2.05,4.85c-0.7,1.33-2.53,4.44-4.32,4.44
			c-1.48-0.17-2.76-0.25-3.89-0.25h-2.21c-2.48,0-4.5,2.02-4.5,4.5v20.78c0,2.48,2.02,4.5,4.5,4.5h52.01c2.49,0,4.5-2.02,4.5-4.5
			v-20.78c0-2.48-2.01-4.5-4.5-4.5h-7.79c-1.17,0-1.6,0-1.6-2.59c0-0.58,0.12-1.79,0.78-4.05h27.78c0.37,1.18,0.55,2.29,0.55,3.32
			c0,2.66-0.74,3.1-1.21,3.27c-0.15,0.04-0.58,0.12-1.5,0.19c-0.85,0.06-2.04,0.02-3.56-0.12c-1.26-0.11-2.51,0.31-3.44,1.16
			c-0.93,0.85-1.47,2.06-1.47,3.32v20.78c0,2.48,2.02,4.5,4.5,4.5h63.87c2.48,0,4.5-2.02,4.5-4.5v-20.78
			C391.96,451.91,389.94,449.89,387.46,449.89z M382.96,470.67h-54.87v-11.66c0.06,0,0.11-0.01,0.16-0.01
			c1.42-0.11,2.49-0.27,3.37-0.53c0.06-0.02,0.12-0.03,0.17-0.05c2.8-0.93,7.48-3.71,7.48-11.85c0-3.12-0.83-6.42-2.49-9.8
			c-0.75-1.54-2.32-2.52-4.04-2.52h-34.05c-1.89,0-3.59,1.19-4.23,2.97c-1.55,4.28-2.3,7.58-2.3,10.08c0,8.55,5.47,11.59,10.6,11.59
			h3.29v11.78h-43.01v-11.65c0.24,0.03,0.48,0.05,0.73,0.08c0.11,0.02,0.21,0.02,0.31,0.03c5.15,0.26,9.5-2.87,12.86-9.26
			c0.77-1.49,1.59-3.41,2.51-5.89c0.88-2.36,1.79-5.26,2.73-8.62c3.5-11.49,3.9-15.57,3.9-17.63c0-1.93-0.29-3.72-0.87-5.38
			c3.93-3.03,7.37-8.76,10.58-17.47c3.61-9.56,5.37-17.12,5.37-23.1c0-1.18-0.46-2.32-1.29-3.16c-2.83-2.88-5.6-4.28-8.46-4.28
			h-5.33v-11.77h74.18v11.53h-1.77c-0.2,0-0.39,0.01-0.59,0.04c-3.39,0.45-6.37,1.81-8.86,4.05c-1.08,0.97-1.62,2.41-1.46,3.85
			c0.94,8.32,2.91,16.49,5.84,24.27c2.11,5.71,5.25,12.83,10.11,16.28c-0.6,2.19-0.9,4.7-0.9,7.58c0,3.79,1.3,9.94,4.08,19.35
			c3.85,13.21,6.11,16.56,8.7,17.9c0.07,0.03,0.15,0.07,0.22,0.1c1.18,0.53,2.99,1.06,7.33,1.27V470.67z"/>
		<path d="M320.599,381.413c-0.593-1.864-2.322-3.132-4.278-3.137c-0.004,0-0.007,0-0.011,0c-1.952,0-3.682,1.258-4.282,3.117
			l-10.503,32.508c-0.442,1.369-0.203,2.868,0.644,4.031c0.847,1.164,2.199,1.852,3.638,1.852h20.836
			c1.436,0,2.785-0.685,3.632-1.843c0.847-1.159,1.091-2.652,0.656-4.02L320.599,381.413z M311.99,410.784l4.285-13.263
			l4.216,13.263H311.99z"/>
		<path d="M514.6,343.59c-0.09,0-0.17-0.02-0.26-0.02h-47.77c-1.45,0-2.74,0.68-3.56,1.74c-0.82-1.06-2.11-1.74-3.56-1.74H398.3
			c-2.49,0-4.5,2.01-4.5,4.5v20.77c0,1.34,0.59,2.6,1.61,3.45c1.02,0.86,2.36,1.22,3.67,0.98c0.82-0.14,1.55-0.25,2.16-0.32
			c0.58-0.06,1.19-0.09,1.8-0.09c2.66,0,3.43,0.84,3.89,2.51c0.08,0.64,0.25,3.05,0.25,11.81c0,8.64-0.09,10.65-0.12,11.06
			c-0.72,3.75-2.23,6.49-4.62,8.39c-1.27,1.01-1.9,2.64-1.64,4.25c0.23,1.39,1.09,2.58,2.32,3.24c0.25,0.27,0.92,1.09,2.12,3.17
			c1.65,2.86,1.91,3.99,1.94,4.18v28.28c0,13.69,7.15,23.68,20.66,28.88c8.05,3.12,18,4.7,29.58,4.7c38.3,0,46.34-19.32,46.34-35.54
			v-26.63c0-0.05,0.06-1.11,1.74-4.07c1.08-1.74,1.72-2.51,2-2.82c1.26-0.54,2.21-1.65,2.56-3.01c0.43-1.71-0.17-3.52-1.55-4.62
			c-2.21-1.77-3.62-4.42-4.34-8.16c-0.12-0.6-0.41-2.82-0.41-10.57c0-9.23,0.45-12.12,0.65-12.94c0.44-0.41,2.3-1.64,8.71-1.64
			c0.37,0,0.74,0,1.12,0.01c0.11,0,0.22-0.02,0.33-0.03c1.09-0.06,2.13-0.48,2.91-1.25c0.87-0.85,1.36-2.01,1.36-3.22v-20.77
			C518.84,345.67,516.96,343.73,514.6,343.59z M456.92,372.93c0.44,0.06,0.94,0.16,1.5,0.29c1.33,0.32,2.74,0.01,3.82-0.85
			c0.29-0.22,0.55-0.48,0.77-0.77c0.16,0.21,0.35,0.41,0.55,0.6c0.96,0.85,2.23,1.26,3.5,1.12c0.73-0.08,1.42-0.13,2.04-0.13
			c2.89,0,3.57,0.79,3.8,1.31c0.11,0.73,0.35,3.43,0.35,12.92c0,8.85-0.09,10.85-0.12,11.29c-0.58,3.67-1.91,6.05-4.07,7.3
			c-1.27,0.73-2.11,2.04-2.23,3.51c-0.13,1.46,0.46,2.89,1.59,3.84c2.66,2.22,4.2,4.92,4.71,8.23v0.03c0.04,0.4,0.12,2.09,0.12,9.06
			c0,4.12-0.24,7.57-0.7,10.23c-0.39,2.24-1.01,4.03-1.8,5.17c-0.66,0.95-1.5,1.58-2.66,2c-1.53,0.55-3.59,0.83-6.1,0.83
			c-6.27,0-7.62-1.18-7.63-1.2c-0.35-0.45-2.1-3.29-2.1-15.32c0-7.86,0.08-9.81,0.12-10.29v-0.01c0.61-3.9,2.1-6.72,4.57-8.62
			c1.05-0.81,1.69-2.05,1.75-3.37c0.05-1.33-0.48-2.62-1.47-3.52c-2.63-2.4-4.21-5.05-4.84-8.1c-0.05-0.57-0.13-2.76-0.13-11.06
			c0-3.63,0.03-6.31,0.09-8.18c0.07-2.48,0.17-3.16,0.19-3.27c0.46-2.67,1.4-3.11,3.35-3.11
			C456.24,372.86,456.59,372.88,456.92,372.93z M509.84,364.44c-6.72,0.46-11.07,2.43-13.24,5.98c-0.97,1.6-1.84,4.14-1.84,17.49
			c0,8.43,0.32,11.06,0.59,12.33c0.73,3.83,2.09,7.1,4.05,9.78c-0.51,0.7-1.04,1.51-1.6,2.42c-0.03,0.04-0.05,0.08-0.08,0.12
			c-2.02,3.55-2.96,6.27-2.96,8.59v26.64c0,11.4-3.87,26.54-37.34,26.54c-10.46,0-19.32-1.37-26.34-4.1
			c-10.16-3.91-14.9-10.42-14.9-20.48v-28.36c0-2.18-0.97-4.84-3.14-8.6c-0.56-0.97-1.09-1.82-1.59-2.56
			c2.22-2.86,3.72-6.38,4.49-10.5c0.01-0.07,0.02-0.14,0.03-0.21c0.07-0.54,0.21-1.55,0.21-12.34c0-9.87-0.22-12.39-0.4-13.48
			c-0.02-0.11-0.05-0.22-0.07-0.32c-1.51-6.05-6.13-9.52-12.67-9.52h-0.24v-11.29h52.15v11.31c-6.09,0.35-10.18,4.16-11.28,10.55
			c-0.11,0.6-0.24,1.67-0.32,4.55c-0.06,1.95-0.09,4.72-0.09,8.44c0,10.83,0.14,11.79,0.22,12.36c0.01,0.07,0.02,0.15,0.03,0.23
			c0.69,3.56,2.19,6.84,4.46,9.77c-2.28,2.91-3.77,6.52-4.46,10.77c-0.14,0.68-0.25,1.96-0.25,11.84c0,10.88,1.24,17.31,3.95,20.79
			c2.42,3.23,7.12,4.73,14.78,4.73c3.61,0,6.6-0.44,9.15-1.36c2.92-1.06,5.28-2.85,7-5.34c1.58-2.28,2.65-5.14,3.28-8.76
			c0.55-3.17,0.83-7.13,0.83-11.77c0-8.72-0.12-9.97-0.25-10.61c-0.59-3.68-1.99-6.98-4.18-9.85c2.12-2.57,3.52-5.91,4.18-9.99
			c0.14-0.66,0.25-2.02,0.25-12.81c0-11.24-0.32-14-0.66-15.31c-0.03-0.11-0.06-0.23-0.1-0.34c-0.9-2.6-3.44-6.82-10.42-7.48v-11.72
			h38.77V364.44z"/>
		<path d="M628.85,343.57H527.38c-2.49,0-4.5,2.01-4.5,4.5v51.08c0,2.49,2.01,4.5,4.5,4.5h25.75c0.74,0,1.44-0.18,2.06-0.5
			c-0.78,1.15-1.86,2.59-3.34,4.39c-0.79,0.96-1.14,2.2-0.98,3.43c0.16,1.24,0.82,2.35,1.83,3.07c2.39,1.73,3.79,3.95,4.28,6.8
			c0.11,0.88,0.29,3.8,0.29,13.51v12.98c-0.13,1.19-0.48,2-2.82,2.37c-0.1,0.02-0.2,0.04-0.3,0.06c-0.5,0.04-2.21,0.13-7.97,0.13
			c-2.48,0-4.5,2.02-4.5,4.5v20.78c0,2.48,2.02,4.5,4.5,4.5h63.87c2.48,0,4.5-2.02,4.5-4.5v-20.78c0-1.33-0.6-2.6-1.62-3.45
			c-1.03-0.86-2.38-1.22-3.69-0.98c-0.63,0.12-1.21,0.18-1.74,0.18h-2.37c-4.73,0-5.38-1.64-5.65-2.55
			c-0.09-0.52-0.35-2.92-0.35-13.24c0-9.5,0.08-11.75,0.12-12.27v-0.05c0.35-2.47,1.27-6.69,3.5-7.29c1.61-0.44,2.84-1.72,3.21-3.35
			c0.37-1.62-0.18-3.31-1.44-4.4c-0.26-0.22-0.71-0.66-1.42-1.53c-0.65-0.8-1.35-1.68-2.06-2.64c0.66,0.37,1.42,0.59,2.23,0.59
			h25.58c2.48,0,4.5-2.02,4.5-4.5v-50.84C633.35,345.58,631.33,343.57,628.85,343.57z M624.35,394.41h-16.58v-17.26
			c0-0.11,0-0.23-0.01-0.34c-0.17-2.19-0.96-4.43-2.41-6.86c-0.72-1.2-2.92-4.87-6.82-4.87h-4.07c-2.48,0-4.5,2.01-4.5,4.5v30.06
			c0,1.42,0.45,2.96,1.37,4.68c0.67,1.25,1.48,2.52,2.4,3.75c0.36,0.49,0.73,0.97,1.08,1.43c-2.24,2.51-3.73,6.22-4.44,11.09
			c-0.14,0.72-0.24,2.3-0.24,13.76c0,12.33,0.34,14.52,0.68,15.67c0.99,3.4,4.15,9.12,14.32,9.12h0.42v11.53h-54.87v-11.8
			c3.66-0.04,4.94-0.16,5.67-0.36c5.79-1.1,9.39-4.92,9.9-10.56c0.01-0.13,0.02-0.27,0.02-0.4v-13.2c0-10.78-0.22-13.61-0.38-14.79
			c-0.01-0.04-0.02-0.09-0.02-0.13c-0.62-3.68-2.1-6.87-4.43-9.54c3.36-4.52,4.83-7.77,4.83-10.49v-29.33
			c0-0.93-0.29-1.83-0.82-2.59c-1.68-2.4-4.75-2.4-6.05-2.4c-6.65,0-10.77,3.97-10.77,10.36v19.21h-16.75v-42.08h92.47V394.41z"/>
		<path d="M765.19,407.35c-0.37-0.37-1.46-1.67-3.65-5.82c-1.43-2.61-2.29-4.81-2.55-6.55c0-0.06-0.01-0.11-0.02-0.16
			c-6.75-36.44-26.42-54.92-58.47-54.92c-25.31,0-42.82,10.82-52.04,32.17c-0.71,1.53-1.87,5.29-4.87,20.21
			c-1.49,7.13-3.81,12.13-6.89,14.88c-0.98,0.87-1.53,2.13-1.51,3.44c0.03,1.32,0.62,2.55,1.64,3.39c1.42,1.17,2.52,2.18,3.28,3
			c0.64,0.69,0.89,1.03,0.97,1.15c1.55,3.38,2.48,6.7,2.77,9.86c1.19,13.3,5.76,25.39,13.61,35.99
			c8.32,10.92,17.59,16.84,27.56,17.61c6.55,0.69,10.77,1.12,13.29,1.35c0.73,0.07,1.25,0.12,1.62,0.15
			c0.45,0.15,0.92,0.23,1.42,0.23c16.36,0,29.47-4.51,39.06-13.48c10.06-9.83,17.02-25.44,20.69-46.41
			c2.45-6.27,3.94-9.23,4.76-10.62C766.91,411.06,766.64,408.81,765.19,407.35z M752.55,420.6c-0.11,0.28-0.19,0.57-0.24,0.87
			c-3.32,19.28-9.44,33.39-18.12,41.88c-7.64,7.14-18.41,10.84-32.02,10.98c-0.22-0.05-0.45-0.08-0.7-0.11
			c-0.52-0.06-1.29-0.14-2.33-0.23c-2.49-0.23-6.7-0.66-13.24-1.34c-0.05-0.01-0.09-0.01-0.13-0.01
			c-7.33-0.56-14.44-5.3-21.12-14.05c-6.81-9.2-10.79-19.77-11.84-31.4c-0.38-4.23-1.6-8.59-3.63-12.97
			c-0.44-0.95-1.18-1.95-2.46-3.34c-0.22-0.24-0.45-0.48-0.7-0.73c2.86-3.96,4.97-9.27,6.38-16.07c2.99-14.85,3.98-17.69,4.21-18.19
			c0.03-0.06,0.06-0.12,0.09-0.19c7.76-18.03,22.09-26.8,43.8-26.8c27.44,0,43.67,15.53,49.61,47.49c0.43,2.81,1.59,5.9,3.5,9.4
			c1.13,2.13,2.13,3.83,3.04,5.19C755.47,413.4,754.11,416.58,752.55,420.6z"/>
		<path d="M717.144,409.891c3.188-4.899,4.801-11.202,4.801-18.804c0-23.268-12.902-26.742-20.593-26.742
			c-7.564,0-20.254,3.569-20.254,27.476c0,6.323,0.45,8.705,0.852,10.044c0.714,2.609,2.08,5.29,4.146,8.124
			c-1.417,1.891-2.56,4.314-3.454,7.306c-1.362,4.548-2.052,9.053-2.052,13.39c0,8.354,1.787,15.311,5.312,20.679
			c3.865,5.886,9.441,8.997,16.128,8.997c9.317,0,20.423-5.021,20.423-28.942C722.453,421.436,720.708,414.33,717.144,409.891z
			 M702.029,451.358c-3.659,0-6.394-1.568-8.605-4.937c-2.544-3.875-3.835-9.17-3.835-15.739c0-3.462,0.563-7.098,1.675-10.811
			c1.174-3.929,2.503-5.183,3.191-5.581c1.169-0.675,1.973-1.839,2.19-3.171s-0.175-2.691-1.068-3.703
			c-2.647-2.998-4.361-5.752-4.957-7.967c-0.014-0.053-0.029-0.105-0.045-0.157c-0.112-0.363-0.477-1.974-0.477-7.473
			c0-18.476,7.886-18.476,11.254-18.476c3.469,0,11.593,0,11.593,17.742c0,7.218-1.736,12.657-5.159,16.167
			c-0.961,0.986-1.418,2.356-1.241,3.722c0.177,1.365,0.969,2.574,2.15,3.281c3.068,1.838,4.758,7.932,4.758,17.16
			C713.453,451.358,705.153,451.358,702.029,451.358z"/>
		<path d="M394.17,710.58c-1.15-0.72-2.56-0.88-3.82-0.46c-0.22-0.04-0.86-0.19-2.12-0.8c-0.9-0.41-1.1-0.73-1.1-0.79V691.9
			c0-6.4-2.98-12.15-8.84-17.09c-0.76-0.67-1.53-1.29-2.32-1.87c2.7-2.36,5.34-5.66,7.93-9.94c1.51-2.35,3.04-4.93,4.54-7.68
			c1.47-2.7,3-5.51,4.59-8.45c0.94-1.75,0.63-3.9-0.77-5.31c-1.7-1.72-2.18-2.59-2.29-2.82c-0.01-0.07-0.02-0.13-0.03-0.19
			c-2.13-11.71-7.74-20.97-16.71-27.53c-6.85-4.94-14.12-7.45-21.6-7.45h-81.31c-2.49,0-4.5,2.01-4.5,4.5v20.77
			c0,1.31,0.56,2.55,1.55,3.4c0.98,0.86,2.29,1.25,3.58,1.06c1.05-0.15,2.02-0.26,2.88-0.34c3.81-0.32,6.96,0.2,7.2,1.12
			c0.08,0.43,0.37,2.66,0.37,13.34c0,9.27-0.08,11.34-0.12,11.79c-0.62,4-1.85,6.32-3.68,6.89c-1.7,0.54-2.92,2.03-3.12,3.81
			c-0.19,1.77,0.68,3.49,2.23,4.38c2.27,1.31,3.63,3.39,4.26,6.47c0.13,0.69,0.43,3.36,0.43,13.34c0,10.2-0.44,12.88-0.59,13.49
			c-0.02,0.05-0.05,0.11-0.07,0.16c-0.69,1.64-4.56,2.49-10.15,2.15c-1.25-0.08-2.46,0.36-3.36,1.22c-0.9,0.85-1.41,2.03-1.41,3.27
			v20.78c0,2.48,2.01,4.5,4.5,4.5h62.34c2.48,0,4.5-2.02,4.5-4.5v-20.78c0-2.37-1.85-4.34-4.22-4.49c-3.6-0.23-5.5-0.39-6.49-0.48
			c-0.26-0.6-0.64-1.97-0.64-4.81v-13.83h9.68c0.01,0,0.93,0.16,2.84,2.22c1.47,1.6,2.19,3.08,2.19,4.53v20.77
			c0,5.03,1.98,9.81,5.86,14.2c4.2,4.82,8.25,7.17,12.36,7.17h33.04c2.48,0,4.5-2.02,4.5-4.5v-20.78
			C396.28,712.84,395.48,711.4,394.17,710.58z M387.28,730.67h-28.54c-0.47,0-2.28-0.3-5.6-4.1c-2.43-2.76-3.62-5.46-3.62-8.27
			v-20.77c0-3.77-1.54-7.34-4.58-10.64c-3.18-3.43-6.26-5.11-9.4-5.11h-14.23c-2.49,0-4.5,2.02-4.5,4.5v18.33
			c0,2.47,0,9.98,5.35,12.97c0.21,0.12,0.43,0.22,0.65,0.31c0.57,0.2,1.05,0.38,5.35,0.7v12.08h-53.34v-11.74
			c7.3-0.34,12.04-2.84,14.1-7.43c0.83-1.56,1.48-4.48,1.48-17.4c0-10.55-0.31-13.56-0.6-15.08c-0.67-3.25-1.9-6.03-3.68-8.29
			c1.78-2.17,3.3-5.35,4.04-10.02c0.13-0.67,0.24-2.09,0.24-13.29c0-11.46-0.31-14.24-0.65-15.54c-0.76-2.99-3.54-8.02-13.5-8.02
			c-0.47,0-0.95,0.01-1.43,0.02v-11.31h76.81c5.63,0,10.98,1.88,16.31,5.73c7.08,5.18,11.37,12.28,13.11,21.7
			c0.21,1.7,1.02,3.42,2.56,5.37c-1.05,1.94-2.07,3.82-3.07,5.64c-1.41,2.58-2.83,4.99-4.24,7.18c-0.02,0.03-0.04,0.06-0.06,0.1
			c-3.81,6.28-7.55,9.85-10.53,10.06c-2.17,0.15-3.92,1.83-4.15,4c-0.24,2.16,1.1,4.18,3.18,4.8c2.62,0.78,5.18,2.28,7.62,4.43
			c0.03,0.03,0.06,0.06,0.09,0.08c3.82,3.21,5.68,6.56,5.68,10.24v16.63c0,2.26,0.82,6.44,6.27,8.94c1.03,0.49,1.98,0.87,2.88,1.15
			V730.67z"/>
		<path d="M321.984,665.119h15.754c4.17,0,7.674-2.697,10.414-8.016c2.033-3.735,3.064-7.897,3.064-12.372
			c0-4.559-1.157-8.793-3.441-12.587c-3.396-5.639-7.609-6.822-10.545-6.822h-15.246c-2.485,0-4.5,2.015-4.5,4.5v30.797
			C317.484,663.104,319.499,665.119,321.984,665.119z M326.484,634.322h10.746c0.896,0,1.851,0.83,2.835,2.464
			c1.447,2.405,2.151,5.004,2.151,7.945c0,3.01-0.65,5.662-1.988,8.104c-0.02,0.036-0.039,0.072-0.058,0.109
			c-1.446,2.822-2.437,3.174-2.432,3.174h-11.254V634.322z"/>
		<path d="M528.79,667.35c-0.36-0.37-1.45-1.67-3.65-5.82c-1.43-2.61-2.28-4.81-2.54-6.55c-0.01-0.06-0.02-0.11-0.03-0.16
			c-6.75-36.44-26.42-54.92-58.46-54.92c-25.32,0-42.82,10.82-52.04,32.17c-0.72,1.53-1.88,5.29-4.88,20.21
			c-1.48,7.13-3.8,12.13-6.89,14.88c-0.98,0.87-1.53,2.13-1.5,3.44c0.02,1.32,0.62,2.55,1.63,3.39c1.42,1.17,2.53,2.18,3.28,3
			c0.64,0.69,0.9,1.03,0.98,1.15c1.55,3.38,2.48,6.7,2.76,9.86c1.2,13.3,5.76,25.39,13.61,35.99c8.32,10.92,17.6,16.84,27.57,17.61
			c6.54,0.69,10.77,1.12,13.29,1.35c0.73,0.07,1.25,0.12,1.61,0.15c0.45,0.15,0.93,0.23,1.43,0.23c16.35,0,29.47-4.51,39.05-13.48
			c10.07-9.83,17.03-25.44,20.7-46.41c2.44-6.27,3.93-9.23,4.76-10.62C530.52,671.06,530.24,668.81,528.79,667.35z M516.15,680.6
			c-0.1,0.28-0.18,0.57-0.23,0.87c-3.33,19.28-9.45,33.39-18.12,41.88c-7.65,7.14-18.41,10.84-32.02,10.98
			c-0.22-0.05-0.46-0.08-0.7-0.11c-0.52-0.06-1.3-0.14-2.34-0.23c-2.49-0.23-6.7-0.66-13.24-1.34c-0.04-0.01-0.09-0.01-0.13-0.01
			c-7.32-0.56-14.44-5.3-21.11-14.05c-6.81-9.2-10.8-19.77-11.84-31.4c-0.39-4.23-1.6-8.59-3.63-12.97
			c-0.45-0.95-1.18-1.95-2.47-3.34c-0.22-0.24-0.45-0.48-0.69-0.73c2.86-3.96,4.96-9.27,6.38-16.07
			c2.99-14.85,3.98-17.69,4.21-18.19c0.03-0.06,0.05-0.12,0.08-0.19c7.76-18.03,22.09-26.8,43.81-26.8
			c27.44,0,43.66,15.53,49.6,47.49c0.43,2.81,1.59,5.9,3.51,9.4c1.12,2.13,2.12,3.83,3.04,5.19
			C519.07,673.4,517.72,676.58,516.15,680.6z"/>
		<path d="M480.749,669.891c3.188-4.899,4.801-11.202,4.801-18.804c0-23.268-12.902-26.742-20.593-26.742
			c-7.564,0-20.254,3.569-20.254,27.476c0,6.323,0.45,8.705,0.852,10.044c0.714,2.609,2.08,5.29,4.146,8.124
			c-1.417,1.891-2.56,4.314-3.454,7.306c-1.362,4.548-2.052,9.053-2.052,13.39c0,8.354,1.787,15.311,5.312,20.679
			c3.865,5.886,9.441,8.997,16.128,8.997c9.317,0,20.423-5.021,20.423-28.942C486.057,681.436,484.313,674.33,480.749,669.891z
			 M465.634,711.358c-3.659,0-6.394-1.568-8.605-4.937c-2.544-3.875-3.835-9.17-3.835-15.739c0-3.462,0.563-7.098,1.675-10.811
			c1.174-3.929,2.503-5.183,3.191-5.581c1.169-0.675,1.973-1.839,2.19-3.171s-0.175-2.691-1.068-3.703
			c-2.647-2.998-4.361-5.752-4.957-7.967c-0.014-0.053-0.029-0.105-0.045-0.157c-0.112-0.363-0.477-1.974-0.477-7.473
			c0-18.476,7.886-18.476,11.254-18.476c3.469,0,11.593,0,11.593,17.742c0,7.218-1.736,12.657-5.159,16.167
			c-0.961,0.986-1.418,2.356-1.241,3.722c0.177,1.365,0.969,2.574,2.15,3.281c3.068,1.838,4.758,7.932,4.758,17.16
			C477.057,711.358,468.758,711.358,465.634,711.358z"/>
		<path d="M637.4,676.41h-25.74c-2.49,0-4.5,2.01-4.5,4.5v18.08c0,3.66-1.17,6.25-3.69,8.18c-2.14,1.67-4.56,2.48-7.4,2.48h-0.41
			V681.2c0-0.04,0.13-1.03,1.91-3.6c1.35-1.94,2.1-2.75,2.4-3.04c1.33-0.54,2.35-1.7,2.68-3.14c0.41-1.74-0.25-3.57-1.69-4.64
			c-2.6-1.93-4.19-4.55-4.89-8.06c-0.12-0.59-0.41-2.84-0.41-10.81c0-10.69,0.61-12.98,0.71-13.3c0.27-0.69,1.95-1.51,5.8-1.51h2.54
			c0.67,0,1.48,0.07,2.42,0.2c1.29,0.18,2.6-0.2,3.58-1.06c0.98-0.85,1.55-2.09,1.55-3.4v-20.77c0-2.49-2.02-4.5-4.5-4.5h-70.13
			c-2.49,0-4.5,2.01-4.5,4.5v20.77c0,2.49,2.01,4.5,4.5,4.5h11.35c1.88,0,1.93,6.28,1.93,6.99v1.71c0,0.44-0.04,0.97-0.12,1.59
			c-0.03,0.2-0.04,0.41-0.04,0.61v3.18c0,0.95,0.05,2.21,0.18,3.87c0.1,1.46,0.15,2.54,0.15,3.22c0,5.36-1.7,9.44-5.22,12.48
			c-1.1,0.96-1.67,2.38-1.53,3.83c0.14,1.45,0.97,2.74,2.23,3.47c2.07,1.2,3.38,3.93,3.89,8.21c0.11,0.8,0.3,3.41,0.3,11.85
			c0,0.1,0,0.21,0.01,0.31l0.15,2.29v4.24c0,5.99-0.91,8.1-1.26,8.7h-12.02c-2.49,0-4.5,2.02-4.5,4.5v20.78c0,2.48,2.01,4.5,4.5,4.5
			h99.77c0.11,0,0.22-0.03,0.33-0.04c2.33-0.16,4.17-2.09,4.17-4.46v-54.26C641.9,678.42,639.89,676.41,637.4,676.41z M632.9,730.67
			h-90.77v-11.78h7.86c6.59,0,9.92-5.95,9.92-17.7v-4.4c0-0.1,0-0.2-0.01-0.31l-0.15-2.29c-0.01-9.12-0.22-11.74-0.37-12.84
			c-0.56-4.69-1.95-8.45-4.16-11.24c3.23-4.26,4.86-9.49,4.86-15.6c0-0.92-0.05-2.15-0.18-3.88c-0.13-1.76-0.15-2.72-0.15-3.21
			v-2.88c0.11-0.91,0.16-1.73,0.16-2.5v-1.71c0-13.91-6.85-15.99-10.93-15.99h-6.85v-11.77h61.13v11.53h-1.09
			c-9.42,0-12.92,3.96-14.21,7.31c-0.64,1.71-1.3,5.01-1.3,16.5c0,8.65,0.32,11.3,0.59,12.6c0.75,3.8,2.25,7.08,4.48,9.82
			c-0.49,0.64-1.01,1.35-1.56,2.15c-2.4,3.45-3.51,6.21-3.51,8.67v32.51c0,1.89,1.18,3.58,2.96,4.23c0.8,0.29,1.77,0.49,2.93,0.61
			c0.93,0.1,2.08,0.15,3.52,0.15c4.85,0,9.2-1.47,12.9-4.35c4.7-3.61,7.19-8.9,7.19-15.31v-13.58h16.74V730.67z"/>
		<path d="M750.22,676.41h-25.74c-2.49,0-4.5,2.01-4.5,4.5v18.08c0,3.66-1.17,6.25-3.69,8.18c-2.14,1.67-4.56,2.48-7.4,2.48h-0.41
			V681.2c0-0.04,0.13-1.03,1.91-3.6c1.35-1.94,2.1-2.75,2.4-3.04c1.33-0.54,2.35-1.7,2.69-3.14c0.4-1.74-0.26-3.57-1.7-4.64
			c-2.6-1.93-4.19-4.55-4.89-8.06c-0.12-0.59-0.41-2.84-0.41-10.81c0-10.69,0.61-12.98,0.71-13.3c0.27-0.69,1.95-1.51,5.8-1.51h2.54
			c0.67,0,1.48,0.07,2.42,0.2c1.29,0.18,2.6-0.2,3.58-1.06c0.98-0.85,1.55-2.09,1.55-3.4v-20.77c0-2.49-2.02-4.5-4.5-4.5h-70.13
			c-2.49,0-4.5,2.01-4.5,4.5v20.77c0,2.49,2.01,4.5,4.5,4.5h11.35c1.88,0,1.93,6.28,1.93,6.99v1.71c0,0.44-0.04,0.97-0.12,1.59
			c-0.03,0.2-0.04,0.41-0.04,0.61v3.18c0,0.95,0.05,2.21,0.18,3.87c0.1,1.46,0.15,2.54,0.15,3.22c0,5.36-1.7,9.44-5.22,12.48
			c-1.1,0.96-1.67,2.38-1.53,3.83c0.14,1.45,0.97,2.74,2.23,3.47c2.08,1.2,3.38,3.93,3.89,8.21c0.11,0.8,0.3,3.41,0.3,11.85
			c0,0.1,0,0.21,0.01,0.31l0.15,2.29v4.24c0,5.99-0.91,8.1-1.26,8.7h-12.02c-2.49,0-4.5,2.02-4.5,4.5v20.78c0,2.48,2.01,4.5,4.5,4.5
			h99.77c2.49,0,4.5-2.02,4.5-4.5v-54.26C754.72,678.42,752.71,676.41,750.22,676.41z M745.72,730.67h-90.77v-11.78h7.86
			c6.59,0,9.92-5.95,9.92-17.7v-4.4c0-0.1,0-0.2-0.01-0.31l-0.15-2.29c-0.01-9.12-0.22-11.74-0.37-12.84
			c-0.56-4.69-1.95-8.45-4.16-11.24c3.23-4.26,4.86-9.49,4.86-15.6c0-0.92-0.05-2.15-0.18-3.88c-0.13-1.76-0.15-2.72-0.15-3.21
			v-2.88c0.11-0.91,0.16-1.73,0.16-2.5v-1.71c0-13.91-6.85-15.99-10.93-15.99h-6.85v-11.77h61.13v11.53h-1.09
			c-9.42,0-12.92,3.96-14.21,7.31c-0.64,1.71-1.3,5.01-1.3,16.5c0,8.65,0.32,11.3,0.59,12.6c0.75,3.8,2.25,7.08,4.49,9.82
			c-0.5,0.64-1.02,1.35-1.57,2.15c-2.4,3.45-3.51,6.21-3.51,8.67v32.51c0,1.89,1.18,3.58,2.96,4.23c0.8,0.29,1.77,0.49,2.93,0.61
			c0.93,0.1,2.08,0.15,3.52,0.15c4.85,0,9.2-1.47,12.9-4.35c4.7-3.61,7.19-8.9,7.19-15.31v-13.58h16.74V730.67z"/>
	</g>
</g>
</svg>
