<?xml version="1.0" encoding="utf-8"?>
<!-- Generator: Adobe Illustrator 16.0.0, SVG Export Plug-In . SVG Version: 6.00 Build 0)  -->
<!DOCTYPE svg PUBLIC "-//W3C//DTD SVG 1.1//EN" "http://www.w3.org/Graphics/SVG/1.1/DTD/svg11.dtd">
<svg version="1.1" id="Layer_1" xmlns="http://www.w3.org/2000/svg" xmlns:xlink="http://www.w3.org/1999/xlink" x="0px" y="0px"
	 width="1024px" height="1024px" viewBox="0 0 1024 1024" enable-background="new 0 0 1024 1024" xml:space="preserve">
<g id="Max">
	<g>
		
			<radialGradient id="SVGID_1_" cx="80.3418" cy="288.813" r="841.2551" gradientTransform="matrix(1 0 -1.426682e-004 1 428.9546 205.0039)" gradientUnits="userSpaceOnUse">
			<stop  offset="0" style="stop-color:#010101"/>
			<stop  offset="0.0916" style="stop-color:#080808"/>
			<stop  offset="0.2173" style="stop-color:#191918"/>
			<stop  offset="0.3629" style="stop-color:#353635"/>
			<stop  offset="0.5234" style="stop-color:#5E5E5E"/>
			<stop  offset="0.6961" style="stop-color:#919191"/>
			<stop  offset="0.8762" style="stop-color:#D0D1D1"/>
			<stop  offset="1" style="stop-color:#FFFFFF"/>
		</radialGradient>
		<path fill="url(#SVGID_1_)" stroke="#010101" stroke-width="4.699" stroke-miterlimit="10" d="M840.924,10H173.146
			c-10.388,0-18.813,8.427-18.813,18.813v432.646c0,10.388,8.425,18.811,18.813,18.811h667.777c10.389,0,18.812-8.423,18.812-18.811
			V28.813C859.735,18.426,851.313,10,840.924,10z M813.301,440.38c0,9.02-7.313,16.333-16.333,16.333H217.104
			c-9.021,0-16.337-7.313-16.337-16.333V64.693c0-9.02,7.316-16.337,16.337-16.337h579.863c9.02,0,16.333,7.317,16.333,16.337
			V440.38z"/>
		
			<radialGradient id="SVGID_2_" cx="77.4941" cy="22.8726" r="467.7441" gradientTransform="matrix(1 0 0 1 428.7998 229.6621)" gradientUnits="userSpaceOnUse">
			<stop  offset="0" style="stop-color:#FFFFFF"/>
			<stop  offset="0.1238" style="stop-color:#D0D1D1"/>
			<stop  offset="0.3039" style="stop-color:#919191"/>
			<stop  offset="0.4766" style="stop-color:#5E5E5E"/>
			<stop  offset="0.6371" style="stop-color:#353635"/>
			<stop  offset="0.7827" style="stop-color:#191918"/>
			<stop  offset="0.9084" style="stop-color:#080808"/>
			<stop  offset="1" style="stop-color:#010101"/>
		</radialGradient>
		<path fill="url(#SVGID_2_)" stroke="#010101" stroke-width="4.699" stroke-miterlimit="10" d="M796.228,48.356H216.365
			c-9.021,0-16.338,7.317-16.338,16.337v375.686c0,9.019,7.316,16.333,16.338,16.333h579.862c9.02,0,16.333-7.315,16.333-16.333
			V64.693C812.561,55.673,805.247,48.356,796.228,48.356z M791.316,427.348c0,8.396-6.806,15.202-15.201,15.202h-539.64
			c-8.395,0-15.203-6.806-15.203-15.202V77.723c0-8.396,6.809-15.204,15.203-15.204h539.64c8.396,0,15.201,6.808,15.201,15.204
			V427.348z"/>
	</g>
	<g>
		
			<linearGradient id="SVGID_3_" gradientUnits="userSpaceOnUse" x1="-421.1855" y1="2091.7646" x2="148.8564" y2="2091.7646" gradientTransform="matrix(1 0 0 -1 643.1992 2344.2988)">
			<stop  offset="0" style="stop-color:#4E1615"/>
			<stop  offset="0.168" style="stop-color:#611B1A"/>
			<stop  offset="0.372" style="stop-color:#752222"/>
			<stop  offset="0.4854" style="stop-color:#7B2524"/>
			<stop  offset="0.759" style="stop-color:#7C1E1E"/>
			<stop  offset="1" style="stop-color:#7D1618"/>
		</linearGradient>
		<path fill="url(#SVGID_3_)" stroke="#010101" stroke-width="4.699" stroke-miterlimit="10" d="M776.855,62.519H237.217
			c-8.395,0-15.203,6.807-15.203,15.203v349.625c0,8.396,6.809,15.202,15.203,15.202h539.639c8.396,0,15.2-6.806,15.2-15.202V77.722
			C792.056,69.328,785.252,62.519,776.855,62.519z M767.199,415.75c0,7.76-6.291,14.049-14.047,14.049H254.417
			c-7.759,0-14.052-6.29-14.052-14.049V92.627c0-7.758,6.293-14.051,14.052-14.051h498.735c7.756,0,14.047,6.292,14.047,14.051
			V415.75L767.199,415.75z"/>
		
			<linearGradient id="SVGID_4_" gradientUnits="userSpaceOnUse" x1="-402.834" y1="2090.1113" x2="124" y2="2090.1113" gradientTransform="matrix(1 0 0 -1 643.1992 2344.2988)">
			<stop  offset="0" style="stop-color:#7D1618"/>
			<stop  offset="0.241" style="stop-color:#7C1E1E"/>
			<stop  offset="0.5146" style="stop-color:#7B2524"/>
			<stop  offset="0.628" style="stop-color:#752222"/>
			<stop  offset="0.832" style="stop-color:#611B1A"/>
			<stop  offset="1" style="stop-color:#4E1615"/>
		</linearGradient>
		<path fill="url(#SVGID_4_)" stroke="#010101" stroke-width="4.699" stroke-miterlimit="10" d="M753.152,78.576H254.417
			c-7.759,0-14.052,6.292-14.052,14.051V415.75c0,7.76,6.293,14.049,14.052,14.049h498.735c7.756,0,14.047-6.29,14.047-14.049
			V92.627C767.199,84.869,760.908,78.576,753.152,78.576z"/>
	</g>
	<g>
		<path fill="none" d="M476.794,171.571c0.022,0.533,0.073,2.509,0.073,9.258v6.031h-2.989c-0.273,0-0.54,0.015-0.813,0.037
			c0.207-1.732-0.059-3.537-0.844-5.202c-3.804-8.081-6.778-13.387-9.331-16.665c-0.2-0.259-0.399-0.518-0.607-0.762
			c1.761-2.405,3.427-5.832,5.313-10.812c1.443-3.5,2.198-4.965,2.486-5.498c2.064-2.419,2.813-5.735,1.946-8.835
			c0.732,0.141,1.487,0.214,2.242,0.178c0.918-0.037,1.791-0.03,2.435,0.007c0.089,1.28,0.162,3.152,0.162,5.838
			c0,5.558-0.109,7.415-0.154,7.948c-0.066,0.326-0.208,0.88-0.407,1.014c-2.782,1.842-4.411,4.995-4.308,8.332
			c0.104,3.204,1.799,6.142,4.5,7.836C476.58,170.484,476.705,170.883,476.794,171.571z"/>
		<path fill="#B97C2B" d="M427.371,149.492c1.039-1.769,1.545-3.74,1.545-6.023c0-2.006-0.568-3.713-1.74-5.217
			c-0.961-1.231-1.869-1.856-2.701-1.856H417.4v14.864h7.826C425.529,151.259,426.331,151.259,427.371,149.492z"/>
		<path fill="#B97C2B" d="M427.266,177.925c-0.349-0.576-1.246-1.919-2.039-1.919H417.4v15.587h7.074
			c0.812,0,1.783-0.206,2.841-1.732c1.063-1.533,1.601-3.603,1.601-6.152C428.916,181.658,428.376,179.765,427.266,177.925z"/>
		<path fill="#B97C2B" d="M516.43,176.368v15.406h9.207c2.089,0,3.438-5.012,3.438-12.768v-1.628c0-0.377-0.007-0.798-0.021-1.268
			c-0.396,0.166-0.831,0.257-1.286,0.257H516.43z"/>
		<path fill="#B97C2B" d="M525.295,137.183c-2.456-1.438-3.488-1.511-3.67-1.511h-5.195v15.949h11.338
			c0.103,0,0.204,0.004,0.305,0.014v-10.792C528.072,140.365,528.072,138.912,525.295,137.183z"/>
		<path fill="#B97C2B" d="M636.538,103.847H561.76c-2.071,0-3.988,0.666-5.557,1.776c-1.568-1.11-3.479-1.776-5.55-1.776h-76.775
			c-5.313,0-9.62,4.314-9.62,9.62v6.719c-1.006-1.924-1.99-3.575-2.967-4.966c-0.053-0.081-0.104-0.155-0.155-0.222
			c-5.401-7.296-12.735-11.152-21.216-11.152h-65.912c-5.313,0-9.62,4.314-9.62,9.62v16.221c0,5.313,4.308,9.62,9.62,9.62h4.047
			c-0.006,0.259-0.029,0.555-0.043,0.873c-0.097,1.599-0.141,2.849-0.141,3.818c0,6.305-0.207,8.221-0.26,8.628
			c-0.066,0.385-0.133,0.688-0.191,0.917c-2.369,1.576-3.952,4.137-4.248,7.03c-0.34,3.396,1.133,6.704,3.848,8.709
			c0.133,0.304,0.385,1.021,0.57,2.391c0.066,0.466,0.281,2.516,0.281,9.154c0,0.214,0.008,0.421,0.015,0.629l0.111,1.598v3.115
			c0,0.245-0.009,0.474-0.009,0.688h-3.98c-5.313,0-9.62,4.307-9.62,9.62v16.221c0,5.313,4.308,9.62,9.62,9.62h69.035
			c4.721,0,9.428-1.946,14.393-5.942c0.059-0.052,0.119-0.096,0.178-0.148c2.635-2.227,4.861-4.625,6.645-7.164v3.634
			c0,5.313,4.308,9.62,9.62,9.62h76.397c5.313,0,9.621-4.307,9.621-9.62v-38.739c0-5.313-4.308-9.62-9.621-9.62h-12.972v-2.131
			h13.35c1.835,0,3.544-0.525,5.011-1.421c1.656,1.362,3.78,2.183,6.096,2.183h11.013c0.015,0.133,0.029,0.259,0.044,0.392
			c0.333,2.546,1.665,4.854,3.699,6.409c0.43,0.326,0.667,0.622,0.8,1.31c0.044,0.541,0.163,2.642,0.163,9.746v6.023
			c-0.533,0.007-1.154,0.007-1.857,0.007c-5.313,0-9.62,4.307-9.62,9.62v16.221c0,5.313,4.308,9.62,9.62,9.62h47.057
			c5.313,0,9.619-4.307,9.619-9.62V196.48c0-2.871-1.279-5.595-3.492-7.415c-2.176-1.805-5.031-2.553-7.807-2.057
			c-0.037-1.413-0.059-3.404-0.059-6.179c0-6.46,0.043-8.436,0.066-9.028c0.088-0.577,0.178-1.021,0.258-1.347
			c2.266-1.31,3.922-3.508,4.536-6.12c0.126-0.518,0.2-1.036,0.237-1.554h10.501c5.313,0,9.62-4.307,9.62-9.62v-39.693
			C646.158,108.161,641.852,103.847,636.538,103.847z M465.73,187.622c-0.77,0.584-1.191,1.295-1.376,2.294
			c-0.007,0.052-0.022,0.104-0.03,0.148c-1.146,4.951-2.064,8.207-2.818,9.96c-0.022,0.06-0.045,0.111-0.074,0.163
			c-1.628,3.33-4.255,6.453-7.807,9.28c-0.016,0.015-0.037,0.03-0.061,0.044c-3.803,2.894-7.207,4.299-10.41,4.299H373.83
			c-1.835,0-3.33-1.495-3.33-3.33v-15.377c0-1.835,1.495-3.33,3.33-3.33h9.398c0.26-0.444,0.932-2.005,0.932-6.438v-3.137
			l-0.11-1.695c-0.007-0.074-0.007-0.155-0.007-0.229c0-5.928-0.186-8.414-0.341-9.458c-0.444-3.078-1.399-5.083-2.849-5.979
			c-1.081-0.667-1.688-1.895-1.562-3.16s0.962-2.346,2.146-2.79c1.391-0.518,2.021-3.049,2.271-4.507
			c0.148-0.91,0.334-3.249,0.334-9.013c0-0.807,0.037-1.887,0.125-3.286c0.082-1.273,0.119-2.235,0.119-2.864
			c0-4.092-1.133-4.092-1.555-4.092h-8.902c-1.835,0-3.33-1.487-3.33-3.33v-15.37c0-1.843,1.495-3.33,3.33-3.33h66.186
			c6.482,0,11.922,2.738,16.162,8.147c0.021,0.022,0.037,0.052,0.059,0.074c2.887,3.907,6.105,10.678,9.842,20.712
			c0.482,1.288,0.119,2.73-0.895,3.641c-0.215,0.274-1.08,1.547-3.293,6.586c-2.184,5.468-3.952,8.628-5.728,10.234
			c-0.778,0.725-1.702,1.362-2.753,1.895c1.643,1.169,3.182,2.634,4.604,4.374c2.264,2.745,5.105,7.563,8.68,14.726
			C467.403,184.921,467.004,186.653,465.73,187.622z M462.89,165.03c-0.2-0.259-0.399-0.518-0.607-0.762
			c1.761-2.405,3.427-5.832,5.313-10.812c1.443-3.5,2.198-4.965,2.486-5.498c2.064-2.419,2.813-5.735,1.946-8.835
			c0.732,0.141,1.487,0.214,2.242,0.178c0.918-0.037,1.791-0.03,2.435,0.007c0.089,1.28,0.162,3.152,0.162,5.838
			c0,5.558-0.109,7.415-0.154,7.948c-0.066,0.326-0.208,0.88-0.407,1.014c-2.782,1.842-4.411,4.995-4.308,8.332
			c0.104,3.204,1.799,6.142,4.5,7.836c0.082,0.208,0.207,0.607,0.296,1.295c0.022,0.533,0.073,2.509,0.073,9.258v6.031h-2.989
			c-0.273,0-0.54,0.015-0.813,0.037c0.207-1.732-0.059-3.537-0.844-5.202C468.417,173.614,465.442,168.308,462.89,165.03z
			 M550.831,156.831h-19.425c-0.104,0-0.207,0-0.311-0.007v13.823c0.377-0.141,0.776-0.215,1.184-0.215h18.182
			c1.835,0,3.33,1.488,3.33,3.33v36.719c0,1.835-1.495,3.33-3.33,3.33h-76.723c-1.836,0-3.33-1.495-3.33-3.33v-15.377
			c0-1.835,1.494-3.33,3.33-3.33h8.494c0.208-0.392,0.615-1.414,0.836-3.7v-7.8c0-7.333-0.066-8.932-0.088-9.272
			c0-0.022-0.008-0.044-0.008-0.066c-0.532-4.1-2.428-5.121-3.049-5.461c-1.043-0.563-1.701-1.636-1.738-2.82
			c-0.037-1.191,0.555-2.301,1.562-2.93c1.694-1.058,2.687-2.627,3.115-4.929c0.081-0.659,0.206-2.604,0.206-8.347
			c0-7.444-0.599-9.294-0.725-9.598c-0.021-0.03-0.045-0.066-0.066-0.104c-0.163-0.273-1.258-1.65-6.919-1.65
			c-0.474,0-0.977,0.008-1.487,0.03c-0.926,0.037-1.791-0.296-2.441-0.925c-0.652-0.628-1.021-1.495-1.021-2.405v-15.37
			c0-1.843,1.494-3.33,3.33-3.33h77.093c0.466,0,0.909,0.096,1.317,0.267c1.184,0.511,2.013,1.687,2.013,3.063V153.5
			c0,1.191-0.622,2.22-1.554,2.813C552.096,156.638,551.489,156.831,550.831,156.831z M640.031,154.048
			c0,1.835-1.488,3.33-3.33,3.33h-18.93c-0.6,0-1.162-0.163-1.65-0.437c0.525,0.703,1.036,1.362,1.524,1.954
			c0.525,0.644,0.858,0.969,1.051,1.132c0.933,0.806,1.339,2.057,1.065,3.256c-0.273,1.206-1.184,2.153-2.375,2.479
			c-1.65,0.444-2.331,3.566-2.582,5.394c-0.008,0.008-0.008,0.022-0.008,0.038c-0.029,0.385-0.089,2.042-0.089,9.08
			c0,7.645,0.192,9.413,0.259,9.797c0.2,0.674,0.688,1.887,4.182,1.887h1.754c0.391,0,0.82-0.044,1.287-0.133
			c0.969-0.177,1.968,0.089,2.73,0.725c0.754,0.629,1.199,1.569,1.199,2.553v15.377c0,1.835-1.496,3.33-3.33,3.33h-47.264
			c-1.836,0-3.33-1.495-3.33-3.33v-15.377c0-1.835,1.494-3.33,3.33-3.33c4.262,0,5.527-0.067,5.896-0.096
			c0.075-0.015,0.148-0.029,0.223-0.044c1.731-0.273,1.99-0.873,2.087-1.753v-9.605c0-7.178-0.134-9.346-0.215-9.998
			c-0.362-2.109-1.398-3.751-3.167-5.032c-0.748-0.533-1.236-1.354-1.354-2.272c-0.118-0.91,0.147-1.828,0.733-2.538
			c1.087-1.332,1.887-2.398,2.463-3.249c-0.458,0.237-0.977,0.37-1.523,0.37h-19.055c-1.844,0-3.33-1.487-3.33-3.33v-37.799
			c0-1.843,1.486-3.33,3.33-3.33h75.088c1.842,0,3.33,1.487,3.33,3.33V154.048z"/>
		<path fill="#B97C2B" d="M380.984,382.621c0,1.067,0,1.603,2.264,1.603c0.256,0,0.523-0.01,0.803-0.031l-3.066-14.813V382.621z"/>
		<path fill="#B97C2B" d="M416.008,384.227c2.191,0,2.191-0.442,2.191-1.245v-13.986l-3.438,15.178c0.088,0,0.176,0.003,0.264,0.011
			C415.373,384.213,415.703,384.227,416.008,384.227z"/>
		<path fill="#B97C2B" d="M653.1,331.53c2.523,0.496,5.172-0.037,7.325-1.532c2.598-1.798,4.145-4.751,4.145-7.91v-16.221
			c0-5.306-4.308-9.62-9.62-9.62h-35.076c-0.844,0-1.658,0.111-2.436,0.311c-0.776-0.2-1.59-0.311-2.434-0.311h-47.441
			c-5.313,0-9.62,4.314-9.62,9.62v16.221c0,3.663,2.079,7,5.357,8.621c1.851,0.917,3.907,1.199,5.86,0.866
			c0.992,1.036,2.613,3.026,4.877,6.712c2.717,4.654,5.003,8.584,6.859,11.803c0.688,1.191,1.318,2.271,1.887,3.256
			c-0.273,0.533-0.518,0.977-0.731,1.339c-1.376,0.311-2.694,0.932-3.849,1.835c-2.952,2.339-4.277,6.187-3.374,9.842
			c0.06,0.267,0.096,0.519,0.096,0.763c0,0.836-0.28,3.315-2.878,8.28c-1.104,2.05-1.982,3.278-2.575,3.974
			c-1.864-0.296-3.781-0.037-5.528,0.755c-1.213-0.555-2.567-0.874-3.988-0.874c-0.43,0-0.821-0.007-1.176-0.015
			c-0.43-1.266-0.984-3.049-1.674-5.542c-2.441-8.777-2.516-11.285-2.516-11.537c0-1.717,0.215-2.509,0.281-2.716
			c1.799-2.879,1.953-6.49,0.4-9.517c-1.17-2.264-3.168-3.944-5.521-4.721c-0.532-0.844-1.486-2.627-2.708-6.12
			c-0.873-2.457-1.605-4.966-2.198-7.519c1.77-0.303,3.441-1.103,4.811-2.331c2.027-1.821,3.189-4.425,3.189-7.156v-16.221
			c0-5.306-4.307-9.62-9.62-9.62H481.93c-5.313,0-9.621,4.314-9.621,9.62v16.221c0,5.313,4.308,9.62,9.621,9.62h0.273
			c-0.467,1.754-1.109,3.818-1.969,6.231c-0.007,0.03-0.021,0.052-0.029,0.081c-1.605,4.618-2.849,6.646-3.418,7.422
			c-2.701,0.933-4.885,3.034-5.891,5.779c-1.14,3.101-0.6,6.564,1.398,9.162c-0.053,0.644-0.385,3.13-2.361,9.997
			c-0.014,0.074-0.037,0.148-0.059,0.222c-0.6,2.302-1.177,4.233-1.709,5.75c-0.556,1.577-0.933,2.472-1.133,2.908h-2.086
			c-1.725,0-3.338,0.459-4.736,1.258c-1.369-0.777-2.895-1.207-4.455-1.258c-0.021-1.406-0.037-3.345-0.037-6.031v-1.332
			c0-0.807-0.037-1.628-0.126-2.449v-2.517c0-4.114,1.28-5.261,1.694-5.638c2.102-1.902,3.264-4.625,3.175-7.459
			c-0.097-2.827-1.428-5.476-3.655-7.229c-0.223-0.178-0.666-0.533-0.933-1.858c-0.044-0.525-0.155-2.405-0.155-8.155
			c0-2.05,0.021-3.648,0.045-4.884c2.256-0.074,4.439-0.939,6.135-2.472c2.026-1.82,3.182-4.417,3.182-7.148v-15.836
			c0-5.313-4.307-9.62-9.62-9.62h-41.817c-3.219,0-6.105,1.591-7.859,4.078c-1.724-2.701-4.736-4.462-8.117-4.462h-42.32
			c-5.313,0-9.621,4.314-9.621,9.62v16.221c0,2.908,1.34,5.653,3.604,7.481c1.576,1.273,3.5,1.998,5.483,2.116
			c0.015,1.221,0.021,2.768,0.021,4.714c0,5.188-0.037,7.156-0.059,7.881c-0.4,1.783-1.043,2.324-1.266,2.508
			c-2.146,1.813-3.389,4.47-3.419,7.274c-0.022,2.805,1.177,5.483,3.286,7.326c0.555,0.481,1.021,1.591,1.295,3.078
			c0.021,0.267,0.066,0.939,0.104,2.324c0.037,1.576,0.059,3.744,0.059,6.438c0,2.686-0.014,4.64-0.037,6.046
			c-1.982,0.111-3.898,0.836-5.475,2.101c-2.279,1.828-3.598,4.588-3.598,7.504v16.221c0,5.313,4.308,9.62,9.621,9.62h29.207
			c1.215,0,2.368-0.229,3.434-0.636c1.072,0.415,2.234,0.636,3.434,0.636h15.732c1.34,0,2.627-0.281,3.803-0.785
			c1.17,0.503,2.457,0.785,3.813,0.785h40.692c1.731,0,3.345-0.466,4.743-1.258c1.406,0.792,3.02,1.258,4.744,1.258h38.332
			c1.746,0,3.389-0.466,4.801-1.288c1.414,0.821,3.058,1.288,4.811,1.288h47.064c1.421,0,2.775-0.318,3.988-0.881
			c1.222,0.563,2.568,0.881,3.996,0.881h35.957c0.902,0,1.783-0.126,2.619-0.362c0.836,0.236,1.709,0.362,2.62,0.362h45.065
			c5.313,0,9.621-4.307,9.621-9.62V388.88c0-3.056-1.451-5.927-3.908-7.74c-1.908-1.414-4.254-2.05-6.57-1.843
			c-0.393-0.414-0.911-1.028-1.547-1.924c-0.016-0.022-0.037-0.044-0.053-0.067c-0.429-0.6-1.229-1.798-2.566-4.114
			c-1.178-2.035-2.576-4.603-4.159-7.629c-1.599-3.116-3.094-5.816-4.462-8.051c-0.193-0.318-0.393-0.629-0.586-0.932
			c0.119-0.245,0.229-0.481,0.341-0.71c0.718-1.524,1.28-2.738,1.694-3.619l0.06-0.126c0.03-0.059,0.06-0.118,0.082-0.178
			c0.222-0.496,0.407-0.821,0.54-1.006c4.447-1.369,7.311-5.771,6.696-10.449c-0.214-1.628-0.185-2.457-0.163-2.752
			C650.619,333.816,652.188,331.693,653.1,331.53z M458.953,402.881c0,1.835-1.488,3.33-3.33,3.33H414.76
			c-1.843,0-3.33-1.495-3.33-3.33v-3.989l-1.073,4.721c-0.341,1.517-1.687,2.597-3.241,2.597h-15.799
			c-1.576,0-2.938-1.11-3.256-2.656l-0.304-1.465v0.792c0,1.835-1.494,3.33-3.329,3.33h-29.334c-1.843,0-3.33-1.495-3.33-3.33
			v-15.377c0-0.999,0.451-1.954,1.229-2.583c0.777-0.636,1.798-0.881,2.775-0.673c0.48,0.096,0.74,0.111,0.828,0.111h1.377
			c1.672,0,2.353-0.496,2.744-2.027c0.061-0.459,0.193-2.324,0.193-9.657c0-2.59-0.021-4.692-0.06-6.246
			c-0.052-1.754-0.11-2.516-0.155-2.827c-0.533-2.923-1.628-5.032-3.338-6.445c-0.776-0.644-1.221-1.599-1.205-2.598
			c0.006-1.006,0.465-1.954,1.25-2.575c1.775-1.413,2.893-3.396,3.426-6.068c0.022-0.362,0.082-1.887,0.082-8.147
			c0-6.845-0.127-8.747-0.186-9.265c-0.155-0.511-0.547-1.154-2.752-1.154h-1.377c-0.081,0-0.332,0.015-0.844,0.111
			c-0.977,0.2-1.998-0.052-2.768-0.681c-0.777-0.636-1.221-1.584-1.221-2.583v-15.37c0-1.842,1.487-3.33,3.33-3.33h42.49
			c1.658,0,3.064,1.221,3.301,2.856c1.613,11.337,3.057,21.63,4.299,30.792l0.09-0.511c1.465-8.303,3.167-18.396,5.076-29.985
			c0.259-1.613,1.65-2.79,3.285-2.79h41.988c1.842,0,3.33,1.487,3.33,3.33v15.007c0,0.94-0.393,1.843-1.088,2.472
			c-0.703,0.628-1.629,0.939-2.568,0.843c-0.629-0.059-1.229-0.096-1.769-0.096c-2.021,0-3.249,0.399-3.663,1.184
			c-0.096,0.518-0.311,2.449-0.311,9.346c0,5.92,0.125,7.874,0.207,8.524c0.443,2.383,1.495,4.159,3.219,5.447
			c0.814,0.607,1.303,1.546,1.34,2.56c0.029,1.014-0.4,1.983-1.17,2.642c-2.508,2.131-3.722,5.269-3.722,9.583v2.679
			c0.081,0.688,0.126,1.362,0.126,2.028v1.265c0,7.341,0.133,9.206,0.192,9.657c0.341,1.347,0.933,2.027,2.997,2.027h1.376
			c0.244,0,0.481-0.029,0.718-0.089c0.556-0.133,1.117-0.118,1.65,0.022c0.43,0.118,0.836,0.311,1.199,0.592
			c0.799,0.637,1.266,1.598,1.266,2.62V402.881z M512.913,406.21c-1.843,0-3.33-1.495-3.33-3.33v-15.377
			c0-0.933,0.393-1.828,1.088-2.457c0.688-0.628,1.614-0.947,2.546-0.858c1.125,0.104,2.006,0.133,2.634,0.088
			c0.674-0.052,0.992-0.111,1.103-0.141c0.355-0.125,0.904-0.451,0.904-2.419c0-0.762-0.142-1.583-0.416-2.457h-20.549
			c-0.488,1.672-0.577,2.568-0.577,2.997c0,1.917,0.317,1.917,1.177,1.917h5.771c1.836,0,3.33,1.495,3.33,3.33v15.377
			c0,1.835-1.494,3.33-3.33,3.33h-38.487c-1.843,0-3.33-1.495-3.33-3.33v-15.377c0-1.835,1.487-3.33,3.33-3.33h1.628
			c0.844,0,1.783,0.059,2.879,0.185c1.332,0,2.679-2.301,3.203-3.285c0.43-0.829,0.941-2.043,1.518-3.589
			c0.584-1.576,1.206-3.56,1.857-5.883c0.008-0.029,0.016-0.051,0.021-0.081c2.273-7.459,2.613-10.183,2.613-11.145
			c0-1.332-0.355-2.338-1.125-3.167c-0.836-0.91-1.103-2.213-0.688-3.375c0.415-1.169,1.437-2.005,2.665-2.183
			c0.51-0.074,3.219-0.925,6.748-10.515c2.057-5.439,3.227-9.901,3.493-13.313c-0.362-0.259-0.548-0.296-0.548-0.296h-7.215
			c-1.843,0-3.33-1.487-3.33-3.33v-15.37c0-1.842,1.487-3.33,3.33-3.33h61.545c1.844,0,3.33,1.488,3.33,3.33v15.37
			c0,0.947-0.393,1.843-1.094,2.472c-0.696,0.636-1.629,0.939-2.568,0.843c-1.074-0.111-1.977-0.163-2.672-0.163h-1.392
			c-0.517,0.081-0.999,0.229-1.442,0.429c0.703,4.936,1.946,9.775,3.692,14.422c3.338,9.043,5.765,9.235,5.786,9.235
			c1.214,0.052,2.31,0.754,2.85,1.843c0.547,1.087,0.451,2.382-0.236,3.381c-0.533,0.77-1.162,2.346-1.162,5.521
			c0,1.436,0.475,4.758,2.745,12.439c1.836,6.283,2.901,8.488,3.345,9.228c0.622,0.118,2.035,0.303,4.996,0.326h0.621
			c1.843,0,3.33,1.495,3.33,3.33v15.377c0,1.835-1.487,3.33-3.33,3.33H512.913z M643.397,337.302
			c-0.015,0.03-0.022,0.059-0.037,0.082c-0.163,0.407-0.495,1.702-0.036,4.987c0.236,1.725-0.889,3.338-2.59,3.715
			c-0.622,0.133-2.531,0.555-4.219,4.129c-0.451,0.91-1.036,2.087-1.783,3.596c-0.519,1.036-1.117,2.228-1.791,3.582
			c0.754,0.977,1.547,2.094,2.354,3.337c1.295,1.99,2.73,4.44,4.27,7.281c1.613,2.908,3.063,5.424,4.299,7.444
			c1.185,1.939,2.169,3.419,2.931,4.411c3.19,4.21,5.091,4.669,5.765,4.669c0,0,0.273-0.03,0.947-0.229
			c1.014-0.296,2.094-0.096,2.931,0.533c0.836,0.629,1.331,1.621,1.331,2.664v15.377c0,1.835-1.486,3.33-3.33,3.33h-45.25
			c-1.073,0-2.027-0.51-2.635-1.295c-0.607,0.785-1.561,1.295-2.634,1.295h-36.104c-1.836,0-3.33-1.495-3.33-3.33v-15.377
			c0-1.147,0.592-2.205,1.561-2.819c0.97-0.607,2.184-0.673,3.213-0.178c0.303,0.141,0.605,0.208,0.939,0.208
			c2.035,0,4.728-2.679,7.385-7.355c2.367-4.27,3.582-7.808,3.582-10.472c0-0.681-0.097-1.369-0.274-2.057
			c-0.325-1.258,0.11-2.59,1.11-3.412c0.91-0.748,2.139-0.955,3.234-0.563c0.621-0.525,2.16-2.198,4.616-7.289
			c-0.946-1.495-2.101-3.367-3.499-5.653c-1.881-3.071-4.196-6.838-6.949-11.292c-6.068-9.339-9.043-9.813-9.576-9.813
			c-0.303,0-0.406,0.067-0.436,0.096c-1.021,0.725-2.361,0.829-3.471,0.259c-1.111-0.57-1.806-1.717-1.806-2.968v-15.37
			c0-1.842,1.487-3.33,3.33-3.33h47.634c0.962,0,1.834,0.407,2.441,1.065c0.607-0.658,1.48-1.065,2.442-1.065h35.231
			c1.835,0,3.33,1.488,3.33,3.33v15.37c0,1.088-0.525,2.094-1.406,2.724c-0.852,0.592-1.916,0.762-2.9,0.466
			c-0.082-0.015-0.318-0.037-0.777-0.037C651.871,327.349,647.098,327.349,643.397,337.302z"/>
		<polygon fill="#B97C2B" points="504.326,355.235 510.617,355.235 507.497,345.42 		"/>
		<path fill="#B97C2B" d="M599.908,384.022c0.039,0.066,0.072,0.116,0.1,0.152h3.912c1.07,0,2.023,0.505,2.633,1.291
			c0.528-0.682,1.315-1.152,2.215-1.265c-1.184-2.04-2.883-4.96-5.092-8.746C601.951,378.461,600.689,381.328,599.908,384.022z"/>
		<path fill="#B97C2B" d="M616.239,331.257c0.854,1.422,1.794,2.985,2.821,4.689c2.701-5.101,3.686-7.401,4.043-8.417h-3.139
			c-0.842,0-1.609-0.313-2.196-0.827c-0.19,0.261-0.42,0.497-0.685,0.696c-0.791,0.597-1.805,0.81-2.762,0.587
			C614.893,328.988,615.533,330.081,616.239,331.257z"/>
		<path fill="#FFF6CC" d="M449.506,204.233c2.725-2.179,4.713-4.499,5.91-6.897c0.41-0.989,1.152-3.301,2.402-8.704
			c0.31-1.615,0.928-3.045,1.849-4.276c-2.809-5.48-5.093-9.301-6.799-11.371c-3.187-3.896-6.915-5.673-11.325-5.484
			c-1.494,0.066-2.815-0.849-3.295-2.244c-0.479-1.395,0.016-2.939,1.218-3.795c0.676-0.481,1.438-0.721,3.265-1.025
			c1-0.166,2.43-0.482,4.25-0.939c0.072-0.019,0.146-0.035,0.222-0.048c2.019-0.363,3.519-0.992,4.458-1.869
			c0.379-0.342,1.658-1.796,4.068-7.843c0.014-0.034,0.027-0.068,0.043-0.103c1.576-3.601,2.642-5.696,3.427-6.979
			c-3.188-8.36-5.974-14.19-8.29-17.341c-2.95-3.742-6.514-5.561-10.889-5.561H377.16v8.714h5.57c2.473,0,8.219,1.047,8.219,10.746
			c0,0.777-0.043,1.851-0.132,3.281c-0.079,1.248-0.118,2.212-0.118,2.868c0,5.12-0.133,8.333-0.418,10.113
			c-0.496,2.86-1.396,5.131-2.688,6.802c1.353,1.959,2.256,4.491,2.697,7.574c0.272,1.837,0.407,5.213,0.409,10.304l0.117,1.694
			c0.005,0.077,0.008,0.153,0.008,0.229v3.256c0,8.69-2.471,13.097-7.341,13.097h-6.323v8.714h65.992
			C444.297,207.148,446.326,206.642,449.506,204.233z M410.74,133.066c0-1.839,1.491-3.33,3.33-3.33h10.404
			c2.99,0,5.667,1.488,7.954,4.422c2.089,2.682,3.147,5.814,3.147,9.311c0,3.456-0.829,6.618-2.465,9.4
			c-2.457,4.174-5.644,5.05-7.885,5.05H414.07c-1.839,0-3.33-1.491-3.33-3.33V133.066z M424.475,198.253H414.07
			c-1.839,0-3.33-1.491-3.33-3.33v-22.248c0-1.839,1.491-3.33,3.33-3.33h11.156c2.115,0,5.174,0.891,7.739,5.135
			c1.733,2.869,2.61,5.974,2.61,9.229c0,3.931-0.938,7.277-2.787,9.946C430.156,197.456,426.814,198.253,424.475,198.253z"/>
		<path fill="#FFF6CC" d="M477.068,128.476c5.52,0.261,9.092,1.836,10.891,4.793c0.929,1.413,1.771,4.083,1.771,13.181
			c0,6.526-0.16,8.443-0.28,9.318c-0.008,0.045-0.015,0.09-0.022,0.135c-0.464,2.579-1.422,4.775-2.86,6.566
			c1.576,1.925,2.578,4.426,2.993,7.479c0.098,0.536,0.17,1.813,0.17,10.325v7.958c0,0.101-0.005,0.203-0.014,0.303
			c-0.748,8.182-4.261,9.899-7.077,9.899h-5.57v8.714h70.059v-30.057h-11.393c0,0.098,0.001,0.194,0.001,0.287v1.628
			c0,12.891-3.397,19.427-10.099,19.427h-12.536c-1.839,0-3.33-1.491-3.33-3.33v-22.066c0-1.839,1.491-3.33,3.33-3.33h11.337
			v-11.427h-11.337c-1.839,0-3.33-1.491-3.33-3.33v-22.609c0-1.839,1.491-3.33,3.33-3.33h8.524c1.984,0,4.232,0.778,7.076,2.448
			c0.023,0.013,0.045,0.026,0.066,0.039c4.93,3.05,5.965,6.765,5.965,9.344v9.331h12.771v-30.419h-70.435V128.476z"/>
		<path fill="#FFF6CC" d="M577.336,136.683c0-4.731,3.053-7.671,7.968-7.671c0.968,0,3.235,0,4.483,1.781
			c0.392,0.56,0.602,1.228,0.602,1.911v21.705c0,2.018-1.088,4.419-3.569,7.768c1.723,1.973,2.82,4.335,3.273,7.059
			c0.006,0.031,0.011,0.062,0.015,0.093c0.121,0.878,0.281,2.969,0.281,10.945v9.767c0,0.1-0.004,0.2-0.014,0.299
			c-0.376,4.17-3.037,7-7.32,7.81c-0.545,0.153-1.494,0.237-4.198,0.269v8.73h40.599v-8.533h-0.305
			c-7.527,0-9.869-4.228-10.596-6.749c-0.252-0.846-0.506-2.463-0.506-11.594c0-8.476,0.072-9.646,0.176-10.178
			c0.527-3.607,1.629-6.351,3.29-8.21c-0.265-0.342-0.534-0.695-0.804-1.059c-0.684-0.913-1.28-1.85-1.773-2.778
			c-0.681-1.271-1.015-2.407-1.015-3.459v-22.247c0-1.839,1.491-3.33,3.33-3.33h3.009c2.885,0,4.514,2.715,5.049,3.607
			c1.074,1.799,1.656,3.457,1.781,5.074c0.006,0.085,0.01,0.171,0.01,0.256v12.768h12.27v-30.961h-68.429v31.142h12.394V136.683z"/>
		<path fill="#FFF6CC" d="M421.898,335.903c1.686,0.188,2.961,1.613,2.961,3.309v43.771c0,4.294-2.49,7.087-6.77,7.751v8.814h34.206
			v-8.54c-4.697-0.156-7.987-2.778-9.06-7.249c-0.016-0.067-0.029-0.135-0.041-0.204c-0.149-0.85-0.301-2.808-0.301-10.883v-1.266
			c0-0.438-0.032-0.895-0.096-1.359c-0.02-0.149-0.03-0.299-0.03-0.45v-2.894c0-4.826,1.196-8.847,3.563-12.005
			c-1.588-1.971-2.639-4.355-3.135-7.123c-0.008-0.042-0.014-0.084-0.021-0.126c-0.121-0.868-0.282-2.798-0.282-9.504
			c0-9.108,0.348-10.741,0.736-11.719c0.959-2.343,3.231-5.071,8.665-5.429v-8.281h-35.838c-1.726,10.45-3.278,19.613-4.622,27.271
			c-1.459,8.286-2.662,15.046-3.577,20.095c-0.239,1.321-1.249,2.369-2.56,2.658c-1.314,0.29-2.668-0.238-3.439-1.335
			c-0.293-0.415-0.518-0.8-0.688-1.181c-0.294-0.432-0.452-0.878-0.519-1.396c-1.582-12.317-3.719-27.939-6.355-46.473H358.42v8.54
			c6.238,0.173,8.184,3.98,8.79,6.271c0.024,0.094,0.046,0.188,0.062,0.284c0.148,0.859,0.301,2.78,0.301,10.515
			c0,8.173-0.09,8.884-0.196,9.363c-0.569,2.93-1.674,5.447-3.296,7.519c1.566,2.132,2.634,4.76,3.188,7.852
			c0.009,0.046,0.016,0.092,0.022,0.138c0.101,0.743,0.17,1.892,0.217,3.614c0.044,1.61,0.065,3.77,0.065,6.421
			c0,8.058-0.152,10.021-0.301,10.878c-0.012,0.069-0.026,0.139-0.043,0.207c-1.07,4.467-4.268,7.089-8.809,7.249v8.541h22.674
			v-8.834c-4.279-0.71-6.77-3.624-6.77-8.093V336.86c0-1.708,1.292-3.139,2.991-3.313c1.694-0.175,3.253,0.966,3.6,2.638
			l13.114,63.363h10.424l13.828-61.072C418.656,336.822,420.217,335.711,421.898,335.903z"/>
		<path fill="#FFF6CC" d="M556.843,390.762c-3.21-0.158-4.554-0.552-5.423-0.939c-0.056-0.025-0.11-0.052-0.166-0.08
			c-1.918-0.985-3.586-3.468-6.438-13.243c-2.057-6.962-3.017-11.515-3.017-14.317c0-2.13,0.22-3.992,0.665-5.612
			c-3.595-2.554-5.922-7.822-7.479-12.046c-2.169-5.753-3.626-11.804-4.322-17.961c-0.121-1.068,0.281-2.128,1.08-2.848
			c1.84-1.658,4.045-2.666,6.557-2.998c0.145-0.019,0.29-0.028,0.436-0.028h1.309v-8.534h-54.89v8.714h3.94
			c2.119,0,4.167,1.036,6.262,3.167c0.611,0.623,0.954,1.461,0.954,2.334c0,4.429-1.301,10.021-3.976,17.094
			c-2.371,6.448-4.921,10.688-7.826,12.932c0.43,1.224,0.646,2.552,0.646,3.978c0,1.529-0.3,4.544-2.891,13.049
			c-0.702,2.525-1.362,4.612-2.021,6.379c-0.678,1.829-1.285,3.255-1.859,4.356c-2.484,4.728-5.699,7.044-9.514,6.853
			c-0.074-0.004-0.15-0.01-0.225-0.019c-0.186-0.022-0.366-0.042-0.54-0.059v8.615h31.824v-8.714h-2.437
			c-3.791,0-7.843-2.252-7.843-8.575c0-1.852,0.558-4.292,1.702-7.462c0.478-1.319,1.73-2.198,3.133-2.198h25.195
			c1.272,0,2.434,0.725,2.992,1.868c1.223,2.501,1.844,4.94,1.844,7.25c0,6.023-3.471,8.078-5.537,8.766
			c-0.043,0.014-0.084,0.027-0.127,0.039c-0.654,0.19-1.447,0.315-2.494,0.394c-0.038,0.003-0.077,0.006-0.116,0.008v8.625h40.6
			V390.762z M517.857,360.531c-0.627,0.857-1.625,1.364-2.688,1.364h-15.42c-1.064,0-2.064-0.509-2.691-1.37
			c-0.627-0.861-0.805-1.97-0.477-2.983l7.771-24.056c0.445-1.375,1.725-2.307,3.17-2.307c0.002,0,0.004,0,0.008,0
			c1.447,0.003,2.727,0.942,3.165,2.321l7.647,24.056C518.666,358.569,518.484,359.674,517.857,360.531z"/>
		<path fill="#FFF6CC" d="M623.295,320.87h0.432c0.206,0,0.412,0.019,0.615,0.058c3.505,0.66,5.598,2.965,5.598,6.167
			c0,1.533-0.604,4.121-7.811,17.165c-0.576,1.041-1.662,1.696-2.852,1.719c-1.206,0.031-2.299-0.59-2.914-1.607
			c-2.259-3.739-4.203-6.969-5.834-9.684c-1.662-2.768-2.987-5.119-3.938-6.988c-0.555-1.092-0.465-2.4,0.232-3.407
			c0.793-1.143,0.972-1.497,0.979-1.511c0.328-0.702,0.887-1.258,1.586-1.589c0.729-0.345,1.535-0.474,2.357-0.378v-8.657h-40.975
			v8.048c4.363,0.521,8.923,4.643,14.255,12.854c2.801,4.53,5.122,8.302,7.005,11.381c1.908,3.12,3.35,5.435,4.408,7.078
			c0.613,0.952,0.701,2.15,0.232,3.181c-3.199,7.04-5.969,10.958-8.854,12.372c-0.045,3.824-1.494,8.259-4.428,13.549
			c-3.844,6.765-7.854,10.273-12.244,10.711v8.218h29.443v-8.714h-0.932c-0.088,0-0.176-0.003-0.262-0.01
			c-1.671-0.132-4.693-1.027-6.164-5.545c-0.193-0.593-0.216-1.229-0.065-1.834c1.261-5.071,3.916-10.551,7.892-16.287
			c0.648-0.936,1.742-1.481,2.865-1.431c1.137,0.044,2.173,0.666,2.746,1.648c5.917,10.128,9.127,15.65,9.813,16.88
			c0.675,1.212,0.527,2.717-0.37,3.774c-0.938,1.106-2.142,1.888-3.598,2.34v9.178h38.595v-8.473
			c-3.223-0.542-6.379-2.901-9.607-7.169c-0.902-1.172-1.994-2.807-3.318-4.974c-1.284-2.1-2.785-4.698-4.458-7.72
			c-1.472-2.711-2.818-5.009-4.017-6.854c-1.153-1.772-2.229-3.216-3.193-4.289c-0.916-1.018-1.115-2.492-0.502-3.716l0.912-1.825
			c0.697-1.394,1.313-2.622,1.842-3.687c0.753-1.506,1.334-2.679,1.753-3.522c1.479-3.147,3.476-5.4,5.942-6.704
			c-0.117-2.323,0.115-4.196,0.705-5.678c3.27-8.758,8.208-13.516,14.692-14.169v-8.612h-28.565V320.87z"/>
		<path d="M466.693,183.485c-3.574-7.163-6.416-11.98-8.68-14.726c-1.422-1.739-2.961-3.205-4.604-4.374
			c1.051-0.533,1.975-1.169,2.753-1.895c1.775-1.606,3.544-4.766,5.728-10.234c2.213-5.04,3.078-6.313,3.293-6.586
			c1.014-0.91,1.377-2.353,0.895-3.641c-3.736-10.035-6.955-16.806-9.842-20.712c-0.021-0.022-0.037-0.052-0.059-0.074
			c-4.24-5.41-9.68-8.147-16.162-8.147H373.83c-1.835,0-3.33,1.487-3.33,3.33v15.37c0,1.843,1.495,3.33,3.33,3.33h8.902
			c0.422,0,1.555,0,1.555,4.092c0,0.629-0.037,1.591-0.119,2.864c-0.088,1.398-0.125,2.479-0.125,3.286
			c0,5.765-0.186,8.103-0.334,9.013c-0.251,1.458-0.881,3.989-2.271,4.507c-1.184,0.443-2.02,1.524-2.146,2.79
			s0.48,2.494,1.562,3.16c1.449,0.895,2.404,2.9,2.849,5.979c0.155,1.043,0.341,3.53,0.341,9.458c0,0.074,0,0.155,0.007,0.229
			l0.11,1.695v3.137c0,4.433-0.672,5.994-0.932,6.438h-9.398c-1.835,0-3.33,1.495-3.33,3.33v15.377c0,1.835,1.495,3.33,3.33,3.33
			h69.324c3.203,0,6.607-1.406,10.41-4.299c0.023-0.015,0.045-0.03,0.061-0.044c3.552-2.827,6.179-5.95,7.807-9.28
			c0.029-0.052,0.052-0.103,0.074-0.163c0.754-1.754,1.672-5.01,2.818-9.96c0.008-0.044,0.023-0.096,0.03-0.148
			c0.185-0.999,0.606-1.709,1.376-2.294C467.004,186.653,467.403,184.921,466.693,183.485z M457.82,188.636
			c-1.25,5.402-1.998,7.711-2.405,8.703c-1.198,2.397-3.182,4.713-5.912,6.896c-3.175,2.405-5.202,2.916-6.349,2.916H377.16v-8.717
			h6.319c4.878,0,7.341-4.403,7.341-13.098v-3.256c0-0.074,0-0.148-0.008-0.229l-0.109-1.695c-0.008-5.091-0.142-8.465-0.416-10.301
			c-0.436-3.085-1.338-5.616-2.693-7.578c1.296-1.665,2.191-3.937,2.688-6.8c0.287-1.776,0.422-4.995,0.422-10.108
			c0-0.659,0.036-1.621,0.117-2.872c0.089-1.428,0.127-2.501,0.127-3.278c0-9.702-5.743-10.752-8.215-10.752h-5.572v-8.71h62.855
			c4.381,0,7.939,1.821,10.893,5.558c2.316,3.152,5.1,8.984,8.289,17.346c-0.785,1.28-1.851,3.375-3.427,6.979
			c-0.015,0.029-0.03,0.066-0.045,0.103c-2.405,6.046-3.685,7.497-4.062,7.844c-0.94,0.874-2.442,1.502-4.463,1.865
			c-0.074,0.015-0.148,0.03-0.222,0.052c-1.82,0.452-3.249,0.77-4.248,0.94c-1.827,0.303-2.59,0.54-3.263,1.021
			c-1.207,0.858-1.703,2.397-1.221,3.796c0.48,1.391,1.797,2.309,3.292,2.242c4.41-0.192,8.14,1.591,11.329,5.483
			c1.703,2.072,3.989,5.891,6.801,11.374C458.745,185.587,458.131,187.015,457.82,188.636z"/>
		<path d="M414.07,157.919h11.156c2.241,0,5.428-0.876,7.885-5.05c1.636-2.782,2.465-5.945,2.465-9.4
			c0-3.496-1.059-6.628-3.147-9.311c-2.287-2.935-4.964-4.422-7.954-4.422H414.07c-1.839,0-3.33,1.491-3.33,3.33v21.523
			C410.74,156.429,412.231,157.919,414.07,157.919z M417.4,136.396h7.074c0.832,0,1.74,0.625,2.701,1.856
			c1.172,1.504,1.74,3.21,1.74,5.217c0,2.284-0.506,4.254-1.545,6.023c-1.04,1.767-1.842,1.767-2.145,1.767H417.4V136.396z"/>
		<path d="M432.966,174.481c-2.565-4.244-5.624-5.135-7.739-5.135H414.07c-1.839,0-3.33,1.491-3.33,3.33v22.248
			c0,1.839,1.491,3.33,3.33,3.33h10.404c2.34,0,5.682-0.797,8.314-4.598c1.85-2.668,2.787-6.015,2.787-9.946
			C435.576,180.455,434.699,177.35,432.966,174.481z M424.475,191.594H417.4v-15.587h7.826c0.793,0,1.69,1.343,2.039,1.919
			c1.11,1.84,1.65,3.732,1.65,5.784c0,2.549-0.537,4.619-1.601,6.152C426.258,191.388,425.286,191.594,424.475,191.594z"/>
		<path d="M531.406,156.831h19.425c0.658,0,1.265-0.192,1.776-0.518c0.932-0.592,1.554-1.621,1.554-2.813v-37.074
			c0-1.376-0.829-2.553-2.013-3.063c-0.408-0.17-0.852-0.267-1.317-0.267h-77.093c-1.836,0-3.33,1.487-3.33,3.33v15.37
			c0,0.91,0.369,1.776,1.021,2.405c0.65,0.629,1.516,0.962,2.441,0.925c0.511-0.022,1.014-0.03,1.487-0.03
			c5.661,0,6.756,1.377,6.919,1.65c0.021,0.037,0.045,0.074,0.066,0.104c0.126,0.304,0.725,2.154,0.725,9.598
			c0,5.742-0.125,7.688-0.206,8.347c-0.429,2.302-1.421,3.871-3.115,4.929c-1.007,0.629-1.599,1.739-1.562,2.93
			c0.037,1.184,0.695,2.257,1.738,2.82c0.621,0.34,2.517,1.361,3.049,5.461c0,0.022,0.008,0.044,0.008,0.066
			c0.021,0.34,0.088,1.939,0.088,9.272v7.8c-0.221,2.286-0.628,3.308-0.836,3.7h-8.494c-1.836,0-3.33,1.495-3.33,3.33v15.377
			c0,1.835,1.494,3.33,3.33,3.33h76.723c1.835,0,3.33-1.495,3.33-3.33v-36.719c0-1.842-1.495-3.33-3.33-3.33h-18.182
			c-0.407,0-0.807,0.074-1.184,0.215v-13.823C531.199,156.831,531.303,156.831,531.406,156.831z M529.053,176.108
			c0.015,0.473,0.021,0.896,0.021,1.272v1.628c0,7.755-1.346,12.765-3.439,12.765h-9.207v-15.407h11.338
			C528.225,176.367,528.66,176.278,529.053,176.108z M516.428,151.621v-15.947h5.195c0.186,0,1.214,0.074,3.671,1.509
			c2.782,1.731,2.782,3.182,2.782,3.663v10.789c-0.104-0.007-0.207-0.015-0.311-0.015H516.428z M528.764,131.5
			c-0.014-0.015-0.037-0.03-0.059-0.037c-2.85-1.672-5.099-2.449-7.082-2.449h-8.525c-1.834,0-3.33,1.487-3.33,3.33v22.607
			c0,1.843,1.496,3.33,3.33,3.33h11.338v11.425h-11.338c-1.834,0-3.33,1.495-3.33,3.33v22.067c0,1.842,1.496,3.33,3.33,3.33h12.537
			c6.703,0,10.1-6.534,10.1-19.425v-1.917h11.396v30.059h-70.063v-8.717h5.571c2.813,0,6.327-1.717,7.075-9.901
			c0.007-0.096,0.014-0.2,0.014-0.303v-7.955c0-8.51-0.073-9.79-0.17-10.323c-0.414-3.056-1.413-5.557-2.989-7.481
			c1.436-1.791,2.39-3.989,2.856-6.564c0.008-0.044,0.015-0.089,0.021-0.141c0.119-0.874,0.281-2.79,0.281-9.316
			c0-9.095-0.843-11.766-1.768-13.18c-1.799-2.96-5.373-4.529-10.893-4.795v-8.718h70.433v30.414h-12.765v-9.324
			C534.736,138.264,533.699,134.549,528.764,131.5z"/>
		<path d="M636.701,113.097h-75.088c-1.844,0-3.33,1.487-3.33,3.33v37.799c0,1.843,1.486,3.33,3.33,3.33h19.055
			c0.547,0,1.065-0.133,1.523-0.37c-0.576,0.851-1.376,1.917-2.463,3.249c-0.586,0.71-0.852,1.628-0.733,2.538
			c0.118,0.917,0.606,1.739,1.354,2.272c1.769,1.28,2.805,2.923,3.167,5.032c0.081,0.651,0.215,2.819,0.215,9.998v9.605
			c-0.097,0.88-0.355,1.48-2.087,1.753c-0.074,0.015-0.147,0.03-0.223,0.044c-0.369,0.029-1.635,0.096-5.896,0.096
			c-1.836,0-3.33,1.495-3.33,3.33v15.377c0,1.835,1.494,3.33,3.33,3.33h47.264c1.834,0,3.33-1.495,3.33-3.33v-15.377
			c0-0.984-0.445-1.924-1.199-2.553c-0.763-0.636-1.762-0.902-2.73-0.725c-0.467,0.089-0.896,0.133-1.287,0.133h-1.754
			c-3.494,0-3.981-1.213-4.182-1.887c-0.066-0.385-0.259-2.153-0.259-9.797c0-7.038,0.06-8.695,0.089-9.08
			c0-0.015,0-0.03,0.008-0.038c0.251-1.828,0.932-4.95,2.582-5.394c1.191-0.326,2.102-1.273,2.375-2.479
			c0.273-1.199-0.133-2.45-1.065-3.256c-0.192-0.163-0.525-0.489-1.051-1.132c-0.488-0.592-0.999-1.251-1.524-1.954
			c0.488,0.274,1.051,0.437,1.65,0.437h18.93c1.842,0,3.33-1.495,3.33-3.33v-37.622
			C640.031,114.584,638.543,113.097,636.701,113.097z M633.371,150.718h-12.27v-12.772c0-0.081,0-0.17-0.008-0.251
			c-0.125-1.621-0.71-3.278-1.783-5.076c-0.533-0.888-2.16-3.604-5.047-3.604h-3.012c-1.836,0-3.33,1.487-3.33,3.33v22.244
			c0,1.051,0.333,2.19,1.014,3.463c0.496,0.925,1.096,1.865,1.776,2.775c0.267,0.363,0.54,0.718,0.799,1.058
			c-1.657,1.857-2.761,4.603-3.286,8.207c-0.104,0.533-0.177,1.709-0.177,10.183c0,9.131,0.259,10.745,0.503,11.596
			c0.732,2.516,3.071,6.749,10.598,6.749h0.311v8.532h-40.604v-8.732c2.708-0.03,3.654-0.119,4.195-0.267
			c4.285-0.814,6.948-3.641,7.326-7.814c0.008-0.096,0.014-0.2,0.014-0.296v-9.768c0-7.978-0.162-10.064-0.28-10.945
			c-0.007-0.029-0.015-0.059-0.015-0.096c-0.459-2.724-1.555-5.084-3.279-7.06c2.487-3.345,3.574-5.75,3.574-7.763v-21.704
			c0-0.688-0.214-1.354-0.606-1.917c-1.243-1.776-3.515-1.776-4.477-1.776c-4.921,0-7.97,2.938-7.97,7.667v14.215h-12.395v-31.14
			h68.428V150.718z"/>
		<path d="M453.528,327.416c0.54,0,1.14,0.037,1.769,0.096c0.939,0.096,1.865-0.215,2.568-0.843
			c0.695-0.629,1.088-1.532,1.088-2.472v-15.007c0-1.843-1.488-3.33-3.33-3.33h-41.988c-1.635,0-3.026,1.176-3.285,2.79
			c-1.909,11.589-3.611,21.682-5.076,29.985l-0.09,0.511c-1.242-9.161-2.686-19.455-4.299-30.792
			c-0.236-1.635-1.643-2.856-3.301-2.856h-42.49c-1.843,0-3.33,1.488-3.33,3.33v15.37c0,0.999,0.443,1.947,1.221,2.583
			c0.77,0.629,1.791,0.88,2.768,0.681c0.512-0.096,0.763-0.111,0.844-0.111h1.377c2.205,0,2.597,0.644,2.752,1.154
			c0.059,0.518,0.186,2.42,0.186,9.265c0,6.261-0.06,7.785-0.082,8.147c-0.533,2.671-1.65,4.655-3.426,6.068
			c-0.785,0.622-1.244,1.569-1.25,2.575c-0.016,0.999,0.429,1.954,1.205,2.598c1.71,1.413,2.805,3.522,3.338,6.445
			c0.045,0.311,0.104,1.073,0.155,2.827c0.038,1.554,0.06,3.656,0.06,6.246c0,7.333-0.133,9.198-0.193,9.657
			c-0.392,1.532-1.072,2.027-2.744,2.027h-1.377c-0.088,0-0.348-0.015-0.828-0.111c-0.978-0.208-1.998,0.037-2.775,0.673
			c-0.777,0.629-1.229,1.583-1.229,2.583v15.377c0,1.835,1.487,3.33,3.33,3.33h29.334c1.835,0,3.329-1.495,3.329-3.33v-0.792
			l0.304,1.465c0.318,1.546,1.68,2.656,3.256,2.656h15.799c1.555,0,2.9-1.08,3.241-2.597l1.073-4.721v3.989
			c0,1.835,1.487,3.33,3.33,3.33h40.863c1.842,0,3.33-1.495,3.33-3.33v-15.377c0-1.021-0.467-1.983-1.266-2.62
			c-0.363-0.281-0.77-0.474-1.199-0.592c-0.533-0.141-1.095-0.156-1.65-0.022c-0.236,0.06-0.474,0.089-0.718,0.089h-1.376
			c-2.064,0-2.656-0.681-2.997-2.027c-0.06-0.452-0.192-2.316-0.192-9.657v-1.265c0-0.666-0.045-1.339-0.126-2.028v-2.679
			c0-4.314,1.214-7.452,3.722-9.583c0.77-0.659,1.199-1.628,1.17-2.642c-0.037-1.014-0.525-1.953-1.34-2.56
			c-1.724-1.288-2.775-3.063-3.219-5.447c-0.082-0.651-0.207-2.604-0.207-8.524c0-6.897,0.215-8.828,0.311-9.346
			C450.279,327.815,451.508,327.416,453.528,327.416z M383.25,384.225c-2.264,0-2.264-0.54-2.264-1.605v-13.239l3.063,14.815
			C383.769,384.21,383.502,384.225,383.25,384.225z M416.01,384.225c-0.303,0-0.636-0.015-0.984-0.037
			c-0.088-0.008-0.177-0.015-0.266-0.015l3.44-15.178v13.986C418.2,383.781,418.2,384.225,416.01,384.225z M443.627,326.224
			c-0.385,0.984-0.732,2.612-0.732,11.722c0,6.704,0.163,8.636,0.281,9.501c0.008,0.044,0.015,0.089,0.021,0.126
			c0.496,2.775,1.547,5.158,3.139,7.126c-2.369,3.16-3.567,7.178-3.567,12.003v2.893c0,0.156,0.007,0.304,0.03,0.452
			c0.066,0.466,0.096,0.925,0.096,1.362v1.265c0,8.073,0.148,10.035,0.303,10.886c0.008,0.066,0.023,0.133,0.037,0.2
			c1.073,4.47,4.367,7.096,9.059,7.252v8.54H418.09v-8.813c4.277-0.666,6.771-3.463,6.771-7.755v-43.771
			c0-1.694-1.28-3.123-2.96-3.308c-1.687-0.192-3.248,0.917-3.618,2.575l-13.831,61.072h-10.418l-13.121-63.366
			c-0.34-1.673-1.902-2.812-3.597-2.634c-1.702,0.17-2.989,1.605-2.989,3.308v45.762c0,4.47,2.486,7.385,6.771,8.095v8.836h-22.674
			v-8.54c4.536-0.163,7.732-2.782,8.806-7.252c0.015-0.066,0.029-0.141,0.044-0.208c0.148-0.858,0.297-2.819,0.297-10.878
			c0-2.649-0.022-4.81-0.067-6.423c-0.044-1.724-0.11-2.871-0.214-3.611c-0.008-0.044-0.016-0.096-0.021-0.141
			c-0.556-3.093-1.621-5.72-3.19-7.852c1.628-2.072,2.731-4.588,3.3-7.518c0.104-0.481,0.193-1.191,0.193-9.361
			c0-7.74-0.148-9.657-0.297-10.515c-0.021-0.097-0.036-0.193-0.066-0.289c-0.606-2.287-2.545-6.098-8.783-6.268v-8.54h36.274
			c2.635,18.529,4.772,34.151,6.356,46.472c0.067,0.518,0.223,0.962,0.518,1.398c0.171,0.377,0.393,0.762,0.688,1.177
			c0.77,1.095,2.124,1.627,3.441,1.339c1.31-0.289,2.315-1.339,2.554-2.664c0.917-5.047,2.123-11.803,3.581-20.091
			c1.347-7.659,2.894-16.82,4.625-27.269h35.831v8.28C446.861,321.155,444.589,323.886,443.627,326.224z"/>
		<path d="M560.17,384.174h-0.621c-2.961-0.022-4.374-0.208-4.996-0.326c-0.443-0.74-1.509-2.945-3.345-9.228
			c-2.271-7.681-2.745-11.004-2.745-12.439c0-3.175,0.629-4.751,1.162-5.521c0.688-0.999,0.783-2.294,0.236-3.381
			c-0.54-1.088-1.636-1.791-2.85-1.843c-0.021,0-2.448-0.192-5.786-9.235c-1.746-4.647-2.989-9.487-3.692-14.422
			c0.443-0.2,0.926-0.348,1.442-0.429h1.392c0.695,0,1.598,0.052,2.672,0.163c0.939,0.096,1.872-0.207,2.568-0.843
			c0.701-0.629,1.094-1.525,1.094-2.472v-15.37c0-1.842-1.486-3.33-3.33-3.33h-61.545c-1.843,0-3.33,1.488-3.33,3.33v15.37
			c0,1.843,1.487,3.33,3.33,3.33h7.215c0,0,0.186,0.037,0.548,0.296c-0.267,3.411-1.437,7.873-3.493,13.313
			c-3.529,9.59-6.238,10.441-6.748,10.515c-1.229,0.178-2.25,1.014-2.665,2.183c-0.414,1.162-0.147,2.464,0.688,3.375
			c0.77,0.829,1.125,1.835,1.125,3.167c0,0.962-0.34,3.685-2.613,11.145c-0.006,0.03-0.014,0.052-0.021,0.081
			c-0.651,2.324-1.273,4.307-1.857,5.883c-0.576,1.546-1.088,2.76-1.518,3.589c-0.524,0.984-1.871,3.285-3.203,3.285
			c-1.096-0.125-2.035-0.185-2.879-0.185h-1.628c-1.843,0-3.33,1.495-3.33,3.33v15.377c0,1.835,1.487,3.33,3.33,3.33h38.487
			c1.836,0,3.33-1.495,3.33-3.33v-15.377c0-1.835-1.494-3.33-3.33-3.33h-5.771c-0.859,0-1.177,0-1.177-1.917
			c0-0.429,0.089-1.325,0.577-2.997h20.549c0.274,0.874,0.416,1.695,0.416,2.457c0,1.968-0.549,2.294-0.904,2.419
			c-0.11,0.03-0.429,0.089-1.103,0.141c-0.628,0.044-1.509,0.015-2.634-0.088c-0.932-0.089-1.857,0.229-2.546,0.858
			c-0.695,0.629-1.088,1.524-1.088,2.457v15.377c0,1.835,1.487,3.33,3.33,3.33h47.257c1.843,0,3.33-1.495,3.33-3.33v-15.377
			C563.5,385.668,562.013,384.174,560.17,384.174z M556.84,399.551h-40.597v-8.628c0.037,0,0.081-0.007,0.118-0.007
			c1.044-0.082,1.836-0.2,2.494-0.392c0.037-0.015,0.082-0.022,0.126-0.037c2.064-0.688,5.536-2.746,5.536-8.769
			c0-2.309-0.623-4.751-1.844-7.252c-0.555-1.14-1.717-1.865-2.989-1.865h-25.196c-1.406,0-2.658,0.88-3.131,2.198
			c-1.147,3.167-1.702,5.609-1.702,7.459c0,6.327,4.048,8.577,7.837,8.577h2.441v8.717h-31.827v-8.621
			c0.178,0.022,0.355,0.037,0.54,0.059c0.074,0.015,0.148,0.022,0.223,0.022c3.818,0.192,7.029-2.124,9.516-6.853
			c0.577-1.103,1.184-2.531,1.857-4.358c0.658-1.769,1.316-3.855,2.02-6.379c2.591-8.502,2.895-11.522,2.895-13.046
			c0-1.428-0.215-2.753-0.645-3.981c2.9-2.243,5.454-6.482,7.822-12.928c2.68-7.074,3.981-12.668,3.981-17.094
			c0-0.873-0.348-1.717-0.955-2.338c-2.095-2.131-4.144-3.167-6.268-3.167h-3.937v-8.709h54.885v8.532h-1.302
			c-0.147,0-0.296,0.007-0.437,0.03c-2.516,0.333-4.721,1.339-6.557,2.997c-0.799,0.718-1.206,1.784-1.08,2.849
			c0.695,6.157,2.153,12.21,4.321,17.96c1.555,4.225,3.886,9.494,7.475,12.047c-0.444,1.621-0.659,3.478-0.659,5.609
			c0,2.805,0.955,7.355,3.012,14.319c2.856,9.775,4.521,12.255,6.438,13.246c0.06,0.022,0.11,0.052,0.17,0.074
			c0.866,0.392,2.213,0.784,5.417,0.94V399.551z"/>
		<path d="M510.696,333.5c-0.438-1.379-1.718-2.318-3.165-2.321c-0.004,0-0.006,0-0.008,0c-1.445,0-2.725,0.931-3.17,2.307
			l-7.771,24.056c-0.328,1.013-0.15,2.122,0.477,2.983c0.627,0.861,1.627,1.37,2.691,1.37h15.42c1.063,0,2.061-0.506,2.688-1.364
			s0.809-1.962,0.486-2.975L510.696,333.5z M504.326,355.235l3.171-9.815l3.12,9.815H504.326z"/>
		<path d="M643.397,337.302c3.7-9.953,8.474-9.953,10.042-9.953c0.459,0,0.695,0.022,0.777,0.037c0.984,0.296,2.049,0.126,2.9-0.466
			c0.881-0.629,1.406-1.636,1.406-2.724v-15.37c0-1.842-1.495-3.33-3.33-3.33h-35.231c-0.962,0-1.835,0.407-2.442,1.065
			c-0.607-0.658-1.479-1.065-2.441-1.065h-47.634c-1.843,0-3.33,1.488-3.33,3.33v15.37c0,1.25,0.694,2.398,1.806,2.968
			c1.109,0.57,2.449,0.466,3.471-0.259c0.029-0.029,0.133-0.096,0.436-0.096c0.533,0,3.508,0.474,9.576,9.813
			c2.753,4.455,5.068,8.222,6.949,11.292c1.398,2.287,2.553,4.159,3.499,5.653c-2.456,5.091-3.995,6.764-4.616,7.289
			c-1.096-0.392-2.324-0.185-3.234,0.563c-1,0.821-1.436,2.153-1.11,3.412c0.178,0.688,0.274,1.376,0.274,2.057
			c0,2.664-1.215,6.202-3.582,10.472c-2.657,4.676-5.35,7.355-7.385,7.355c-0.334,0-0.637-0.067-0.939-0.208
			c-1.029-0.496-2.243-0.429-3.213,0.178c-0.969,0.614-1.561,1.672-1.561,2.819v15.377c0,1.835,1.494,3.33,3.33,3.33h36.104
			c1.073,0,2.026-0.51,2.634-1.295c0.607,0.785,1.562,1.295,2.635,1.295h45.25c1.844,0,3.33-1.495,3.33-3.33v-15.377
			c0-1.043-0.495-2.035-1.331-2.664c-0.837-0.629-1.917-0.829-2.931-0.533c-0.674,0.2-0.947,0.229-0.947,0.229
			c-0.674,0-2.574-0.459-5.765-4.669c-0.762-0.992-1.746-2.472-2.931-4.411c-1.235-2.02-2.686-4.536-4.299-7.444
			c-1.539-2.841-2.975-5.291-4.27-7.281c-0.807-1.244-1.6-2.361-2.354-3.337c0.674-1.354,1.272-2.546,1.791-3.582
			c0.747-1.509,1.332-2.686,1.783-3.596c1.688-3.574,3.597-3.996,4.219-4.129c1.701-0.377,2.826-1.99,2.59-3.715
			c-0.459-3.285-0.127-4.581,0.036-4.987C643.375,337.361,643.383,337.332,643.397,337.302z M617.084,327.401
			c0.266-0.2,0.495-0.437,0.688-0.696c0.584,0.511,1.354,0.821,2.19,0.821h3.146c-0.363,1.021-1.348,3.315-4.049,8.421
			c-1.028-1.702-1.968-3.271-2.819-4.692c-0.71-1.176-1.347-2.264-1.917-3.271C615.277,328.207,616.291,327.993,617.084,327.401z
			 M606.553,385.469c-0.607-0.792-1.561-1.295-2.634-1.295h-3.907c-0.029-0.038-0.066-0.082-0.104-0.148
			c0.783-2.701,2.042-5.565,3.766-8.569c2.213,3.782,3.908,6.705,5.092,8.747C607.87,384.314,607.078,384.78,606.553,385.469z
			 M637.166,334.934c-0.584,1.487-0.82,3.359-0.703,5.683c-2.471,1.303-4.461,3.552-5.941,6.705
			c-0.422,0.844-0.999,2.013-1.754,3.522c-0.533,1.058-1.146,2.287-1.842,3.686l-0.911,1.82c-0.614,1.229-0.414,2.701,0.504,3.722
			c0.962,1.073,2.034,2.516,3.188,4.284c1.199,1.85,2.547,4.145,4.019,6.853c1.673,3.026,3.175,5.624,4.455,7.726
			c1.325,2.168,2.419,3.796,3.323,4.972c3.226,4.27,6.386,6.624,9.604,7.171v8.473h-38.591v-9.184
			c1.45-0.451,2.656-1.228,3.596-2.338c0.896-1.058,1.044-2.56,0.37-3.774c-0.688-1.229-3.899-6.749-9.812-16.879
			c-0.578-0.984-1.613-1.606-2.746-1.65c-1.125-0.044-2.22,0.496-2.863,1.436c-3.981,5.735-6.631,11.211-7.896,16.288
			c-0.148,0.6-0.125,1.236,0.066,1.828c1.473,4.522,4.492,5.417,6.164,5.55c0.09,0.007,0.171,0.007,0.26,0.007h0.933v8.717h-29.444
			v-8.222c4.395-0.436,8.398-3.944,12.246-10.708c2.931-5.291,4.381-9.731,4.426-13.55c2.886-1.413,5.653-5.335,8.857-12.373
			c0.467-1.036,0.377-2.235-0.236-3.182c-1.059-1.643-2.502-3.958-4.404-7.082c-1.887-3.079-4.202-6.845-7.007-11.381
			c-5.335-8.207-9.894-12.329-14.253-12.854v-8.044h40.975v8.658c-0.822-0.096-1.629,0.029-2.361,0.377
			c-0.695,0.333-1.258,0.888-1.583,1.591c-0.008,0.007-0.185,0.362-0.978,1.51c-0.703,1.006-0.791,2.316-0.236,3.404
			c0.955,1.872,2.279,4.225,3.938,6.993c1.635,2.708,3.574,5.942,5.838,9.679c0.614,1.021,1.709,1.643,2.916,1.605
			c1.184-0.022,2.271-0.673,2.849-1.717c7.208-13.046,7.808-15.628,7.808-17.168c0-3.197-2.088-5.505-5.596-6.164
			c-0.207-0.037-0.406-0.06-0.613-0.06h-0.438v-8.709h28.572v8.614C645.373,321.421,640.438,326.18,637.166,334.934z"/>
	</g>
</g>
<g id="Min">
	<g>
		
			<radialGradient id="SVGID_5_" cx="77.166" cy="822.543" r="841.2551" gradientTransform="matrix(1 0 -1.426682e-004 1 428.9546 205.0039)" gradientUnits="userSpaceOnUse">
			<stop  offset="0" style="stop-color:#010101"/>
			<stop  offset="0.0916" style="stop-color:#080808"/>
			<stop  offset="0.2173" style="stop-color:#191918"/>
			<stop  offset="0.3629" style="stop-color:#353635"/>
			<stop  offset="0.5234" style="stop-color:#5E5E5E"/>
			<stop  offset="0.6961" style="stop-color:#919191"/>
			<stop  offset="0.8762" style="stop-color:#D0D1D1"/>
			<stop  offset="1" style="stop-color:#FFFFFF"/>
		</radialGradient>
		<path fill="url(#SVGID_5_)" stroke="#010101" stroke-width="4.699" stroke-miterlimit="10" d="M837.672,543.73H169.895
			c-10.388,0-18.813,8.427-18.813,18.813v432.646c0,10.388,8.425,18.811,18.813,18.811h667.777c10.389,0,18.812-8.423,18.812-18.811
			V562.544C856.483,552.157,848.061,543.73,837.672,543.73z M810.049,974.109c0,9.021-7.313,16.334-16.333,16.334H213.853
			c-9.021,0-16.337-7.313-16.337-16.334V598.424c0-9.021,7.316-16.337,16.337-16.337h579.863c9.02,0,16.333,7.317,16.333,16.337
			V974.109z"/>
		
			<radialGradient id="SVGID_6_" cx="74.2422" cy="556.603" r="467.7441" gradientTransform="matrix(1 0 0 1 428.7998 229.6621)" gradientUnits="userSpaceOnUse">
			<stop  offset="0" style="stop-color:#FFFFFF"/>
			<stop  offset="0.1238" style="stop-color:#D0D1D1"/>
			<stop  offset="0.3039" style="stop-color:#919191"/>
			<stop  offset="0.4766" style="stop-color:#5E5E5E"/>
			<stop  offset="0.6371" style="stop-color:#353635"/>
			<stop  offset="0.7827" style="stop-color:#191918"/>
			<stop  offset="0.9084" style="stop-color:#080808"/>
			<stop  offset="1" style="stop-color:#010101"/>
		</radialGradient>
		<path fill="url(#SVGID_6_)" stroke="#010101" stroke-width="4.699" stroke-miterlimit="10" d="M792.976,582.087H213.113
			c-9.021,0-16.338,7.317-16.338,16.337v375.685c0,9.02,7.316,16.334,16.338,16.334h579.862c9.02,0,16.333-7.314,16.333-16.334
			V598.424C809.309,589.404,801.995,582.087,792.976,582.087z M788.064,961.078c0,8.396-6.806,15.203-15.201,15.203h-539.64
			c-8.395,0-15.203-6.807-15.203-15.203V611.454c0-8.396,6.809-15.203,15.203-15.203h539.64c8.396,0,15.201,6.808,15.201,15.203
			V961.078z"/>
	</g>
	<g>
		
			<linearGradient id="SVGID_7_" gradientUnits="userSpaceOnUse" x1="-424.4375" y1="1558.0352" x2="145.6045" y2="1558.0352" gradientTransform="matrix(1 0 0 -1 643.1992 2344.2988)">
			<stop  offset="0" style="stop-color:#4E1615"/>
			<stop  offset="0.168" style="stop-color:#611B1A"/>
			<stop  offset="0.372" style="stop-color:#752222"/>
			<stop  offset="0.4854" style="stop-color:#7B2524"/>
			<stop  offset="0.759" style="stop-color:#7C1E1E"/>
			<stop  offset="1" style="stop-color:#7D1618"/>
		</linearGradient>
		<path fill="url(#SVGID_7_)" stroke="#010101" stroke-width="4.699" stroke-miterlimit="10" d="M773.604,596.249H233.965
			c-8.395,0-15.203,6.808-15.203,15.203v349.625c0,8.396,6.809,15.202,15.203,15.202h539.639c8.396,0,15.2-6.807,15.2-15.202
			V611.452C788.804,603.058,782,596.249,773.604,596.249z M763.947,949.48c0,7.76-6.291,14.05-14.047,14.05H251.165
			c-7.759,0-14.052-6.29-14.052-14.05V626.358c0-7.759,6.293-14.051,14.052-14.051H749.9c7.756,0,14.047,6.292,14.047,14.051V949.48
			L763.947,949.48z"/>
		
			<linearGradient id="SVGID_8_" gradientUnits="userSpaceOnUse" x1="-406.0859" y1="1556.3809" x2="120.748" y2="1556.3809" gradientTransform="matrix(1 0 0 -1 643.1992 2344.2988)">
			<stop  offset="0" style="stop-color:#7D1618"/>
			<stop  offset="0.241" style="stop-color:#7C1E1E"/>
			<stop  offset="0.5146" style="stop-color:#7B2524"/>
			<stop  offset="0.628" style="stop-color:#752222"/>
			<stop  offset="0.832" style="stop-color:#611B1A"/>
			<stop  offset="1" style="stop-color:#4E1615"/>
		</linearGradient>
		<path fill="url(#SVGID_8_)" stroke="#010101" stroke-width="4.699" stroke-miterlimit="10" d="M749.9,612.307H251.165
			c-7.759,0-14.052,6.291-14.052,14.051V949.48c0,7.76,6.293,14.05,14.052,14.05H749.9c7.756,0,14.047-6.29,14.047-14.05V626.358
			C763.947,618.599,757.656,612.307,749.9,612.307z"/>
	</g>
	<g>
		<path fill="none" d="M544.77,900.226c0.045,1.643,0.06,3.907,0.06,6.733c0,2.68-0.015,4.625-0.036,6.031
			c-1.873,0.06-3.701,0.674-5.262,1.776c-1.568-1.118-3.479-1.776-5.551-1.776h-2.086c-0.016-1.206-0.029-3.086-0.029-6.031
			c0-6.43,0.043-8.324,0.066-8.872c0.215-1.702,0.644-2.368,0.776-2.472c2.45-1.813,3.893-4.677,3.9-7.719
			c0.007-3.049-1.437-5.92-3.878-7.732c-0.496-0.371-0.991-1.902-0.991-4.5v-2.293c0.081-0.785,0.126-1.458,0.126-2.095v-0.954
			c0-0.26-0.016-0.525-0.029-0.793c-0.082-0.895-0.134-1.709-0.172-2.479c-0.029-0.584-0.051-1.124-0.051-1.613h2.367
			c2.072,0,3.982-0.658,5.559-1.775c1.539,1.096,3.367,1.717,5.261,1.775c0.022,1.236,0.029,2.783,0.029,4.691
			c0,5.736-0.036,7.793-0.06,8.511c-0.251,1.132-0.71,1.554-1.16,1.887c-2.769,2.05-4.227,5.425-3.834,8.843
			c0.348,3.013,2.087,5.654,4.654,7.171c0.074,0.259,0.155,0.63,0.23,1.147C544.674,897.82,544.727,898.449,544.77,900.226z"/>
		<path fill="none" d="M473.545,705.302c0.022,0.533,0.067,2.509,0.067,9.258v6.031h-2.989c-0.274,0-0.541,0.015-0.808,0.037
			c0.2-1.732-0.066-3.537-0.851-5.202c-3.805-8.081-6.771-13.387-9.324-16.665c-0.199-0.259-0.407-0.518-0.606-0.762
			c1.754-2.405,3.426-5.832,5.306-10.812c1.45-3.5,2.197-4.965,2.494-5.498c2.064-2.419,2.812-5.735,1.945-8.835
			c0.733,0.141,1.488,0.214,2.243,0.178c0.917-0.037,1.79-0.03,2.435,0.007c0.088,1.28,0.155,3.152,0.155,5.838
			c0,5.558-0.111,7.415-0.155,7.948c-0.067,0.326-0.207,0.88-0.4,1.014c-2.782,1.843-4.418,4.995-4.307,8.333
			c0.104,3.204,1.791,6.142,4.5,7.836C473.323,704.214,473.449,704.614,473.545,705.302z"/>
		<path fill="none" d="M485.881,897.746c0.052,0.711,0.156,2.923,0.156,9.213c0,2.754-0.022,4.744-0.053,6.18
			c-0.021,0-0.045-0.008-0.059-0.008c-2.457-0.422-4.959,0.126-7,1.494c-1.518-1.014-3.271-1.575-5.07-1.635
			c-0.021-1.406-0.044-3.344-0.044-6.031v-1.332c0-0.807-0.036-1.628-0.118-2.449v-2.516c0-4.114,1.272-5.262,1.688-5.639
			c2.102-1.895,3.264-4.625,3.174-7.46c-0.096-2.826-1.428-5.476-3.647-7.229c-0.223-0.178-0.673-0.532-0.94-1.857
			c-0.044-0.525-0.155-2.391-0.155-8.154c0-2.05,0.022-3.648,0.044-4.885c1.813-0.059,3.567-0.629,5.07-1.643
			c2.064,1.392,4.595,1.939,7.074,1.495c0.021,1.229,0.037,2.812,0.037,4.839c0,6.217-0.045,8.215-0.067,8.814
			c-0.2,1.154-0.563,1.42-0.784,1.583c-2.383,1.769-3.818,4.528-3.893,7.496s1.229,5.802,3.522,7.681
			C485.016,895.874,485.541,896.297,485.881,897.746z"/>
		<path fill="#B97C2B" d="M633.289,637.577h-74.784c-2.064,0-3.981,0.666-5.55,1.776c-1.569-1.11-3.486-1.776-5.558-1.776h-76.774
			c-5.314,0-9.621,4.314-9.621,9.62v6.72c-1.006-1.924-1.99-3.575-2.959-4.966c-0.053-0.081-0.104-0.155-0.164-0.222
			c-5.401-7.296-12.734-11.152-21.208-11.152h-65.919c-5.313,0-9.619,4.314-9.619,9.62v16.221c0,5.313,4.306,9.62,9.619,9.62h4.055
			c-0.014,0.259-0.029,0.555-0.052,0.873c-0.097,1.599-0.14,2.849-0.14,3.818c0,6.305-0.201,8.221-0.26,8.628
			c-0.066,0.385-0.133,0.688-0.192,0.917c-2.36,1.576-3.944,4.137-4.239,7.03c-0.349,3.396,1.124,6.704,3.84,8.709
			c0.134,0.304,0.385,1.021,0.57,2.391c0.066,0.466,0.281,2.516,0.281,9.154c0,0.214,0.007,0.421,0.021,0.629l0.104,1.598v3.115
			c0,0.245,0,0.474-0.007,0.688h-3.981c-5.313,0-9.619,4.307-9.619,9.62v16.221c0,5.313,4.306,9.62,9.619,9.62h69.035
			c4.721,0,9.427-1.946,14.4-5.942c0.059-0.052,0.117-0.096,0.177-0.148c2.635-2.227,4.854-4.625,6.638-7.164v3.634
			c0,5.313,4.307,9.62,9.621,9.62h76.404c5.313,0,9.62-4.307,9.62-9.62v-38.739c0-5.313-4.307-9.62-9.62-9.62h-12.979v-2.131h13.35
			c1.843,0,3.552-0.525,5.01-1.421c1.665,1.362,3.788,2.183,6.098,2.183h11.019c0.016,0.133,0.021,0.259,0.045,0.392
			c0.324,2.546,1.656,4.854,3.699,6.409c0.422,0.326,0.666,0.622,0.8,1.31c0.044,0.541,0.163,2.642,0.163,9.746v6.023
			c-0.541,0.007-1.155,0.007-1.865,0.007c-5.313,0-9.621,4.307-9.621,9.62v16.221c0,5.313,4.308,9.62,9.621,9.62h47.064
			c5.313,0,9.619-4.307,9.619-9.62V730.21c0-2.871-1.28-5.595-3.493-7.415c-2.175-1.806-5.039-2.553-7.813-2.057
			c-0.03-1.413-0.053-3.404-0.053-6.179c0-6.46,0.045-8.436,0.067-9.028c0.081-0.577,0.177-1.021,0.259-1.347
			c2.257-1.31,3.922-3.508,4.536-6.12c0.118-0.518,0.2-1.036,0.237-1.554h10.5c5.313,0,9.619-4.307,9.619-9.62v-39.694
			C642.908,641.891,638.603,637.577,633.289,637.577z M462.482,721.353c-0.77,0.584-1.199,1.295-1.384,2.294
			c-0.008,0.052-0.015,0.104-0.03,0.148c-1.139,4.951-2.064,8.207-2.811,9.96c-0.023,0.06-0.053,0.111-0.075,0.163
			c-1.636,3.33-4.263,6.453-7.807,9.28c-0.022,0.015-0.044,0.03-0.06,0.044c-3.811,2.894-7.215,4.299-10.419,4.299h-69.315
			c-1.844,0-3.33-1.495-3.33-3.33v-15.377c0-1.835,1.486-3.33,3.33-3.33h9.391c0.266-0.444,0.939-2.005,0.939-6.438v-3.137
			l-0.119-1.695c-0.007-0.074-0.007-0.155-0.007-0.229c0-5.928-0.185-8.414-0.341-9.458c-0.436-3.078-1.391-5.083-2.841-5.979
			c-1.081-0.667-1.688-1.895-1.562-3.16c0.118-1.266,0.955-2.346,2.146-2.79c1.383-0.518,2.02-3.049,2.271-4.507
			c0.147-0.91,0.325-3.249,0.325-9.013c0-0.807,0.044-1.887,0.134-3.286c0.081-1.273,0.117-2.235,0.117-2.864
			c0-4.092-1.132-4.092-1.561-4.092h-8.895c-1.844,0-3.33-1.487-3.33-3.33v-15.37c0-1.843,1.486-3.33,3.33-3.33h66.186
			c6.482,0,11.914,2.738,16.154,8.147c0.021,0.022,0.044,0.052,0.059,0.074c2.887,3.907,6.105,10.678,9.85,20.712
			c0.474,1.288,0.119,2.73-0.895,3.641c-0.215,0.274-1.081,1.547-3.294,6.586c-2.183,5.468-3.951,8.628-5.728,10.234
			c-0.784,0.725-1.702,1.362-2.753,1.895c1.643,1.169,3.175,2.634,4.603,4.373c2.258,2.746,5.1,7.563,8.674,14.726
			C464.154,718.651,463.748,720.383,462.482,721.353z M459.641,698.76c-0.199-0.259-0.407-0.518-0.606-0.762
			c1.754-2.405,3.426-5.832,5.306-10.812c1.45-3.5,2.197-4.965,2.494-5.498c2.064-2.419,2.812-5.735,1.945-8.835
			c0.733,0.141,1.488,0.214,2.243,0.178c0.917-0.037,1.79-0.03,2.435,0.007c0.088,1.28,0.155,3.152,0.155,5.838
			c0,5.558-0.111,7.415-0.155,7.948c-0.067,0.326-0.207,0.88-0.4,1.014c-2.782,1.843-4.418,4.995-4.307,8.333
			c0.104,3.204,1.791,6.142,4.5,7.836c0.073,0.208,0.199,0.607,0.295,1.295c0.022,0.533,0.067,2.509,0.067,9.258v6.031h-2.989
			c-0.274,0-0.541,0.015-0.808,0.037c0.2-1.732-0.066-3.537-0.851-5.202C465.16,707.344,462.193,702.039,459.641,698.76z
			 M547.582,690.561H528.15c-0.104,0-0.207,0-0.304-0.007v13.823c0.37-0.141,0.776-0.215,1.185-0.215h18.174
			c1.842,0,3.33,1.488,3.33,3.33v36.719c0,1.835-1.488,3.33-3.33,3.33h-76.717c-1.842,0-3.33-1.495-3.33-3.33v-15.377
			c0-1.835,1.488-3.33,3.33-3.33h8.488c0.215-0.392,0.622-1.414,0.844-3.7v-7.8c0-7.333-0.066-8.932-0.089-9.272
			c-0.007-0.022-0.007-0.044-0.015-0.066c-0.533-4.1-2.42-5.121-3.041-5.461c-1.044-0.563-1.71-1.636-1.747-2.82
			c-0.036-1.191,0.563-2.301,1.569-2.93c1.688-1.058,2.679-2.627,3.107-4.929c0.082-0.659,0.215-2.604,0.215-8.347
			c0-7.445-0.607-9.294-0.732-9.598c-0.022-0.03-0.037-0.066-0.06-0.104c-0.163-0.273-1.265-1.65-6.919-1.65
			c-0.48,0-0.977,0.008-1.494,0.03c-0.91,0.044-1.783-0.296-2.436-0.925c-0.658-0.628-1.021-1.495-1.021-2.405v-15.37
			c0-1.843,1.488-3.33,3.33-3.33h77.094c0.467,0,0.91,0.096,1.311,0.267c1.184,0.51,2.02,1.687,2.02,3.063v37.074
			c0,1.191-0.621,2.22-1.554,2.813C548.84,690.369,548.234,690.561,547.582,690.561z M636.782,687.779c0,1.835-1.495,3.33-3.33,3.33
			h-18.929c-0.607,0-1.17-0.163-1.658-0.437c0.525,0.703,1.043,1.362,1.532,1.954c0.525,0.644,0.857,0.97,1.042,1.133
			c0.934,0.806,1.348,2.057,1.074,3.256c-0.274,1.206-1.191,2.153-2.376,2.479c-1.649,0.444-2.331,3.566-2.59,5.394
			c0,0.008,0,0.022-0.007,0.038c-0.03,0.385-0.082,2.042-0.082,9.08c0,7.644,0.193,9.413,0.26,9.797
			c0.199,0.674,0.68,1.887,4.18,1.887h1.754c0.386,0,0.822-0.044,1.288-0.133c0.97-0.177,1.969,0.089,2.724,0.725
			c0.762,0.629,1.198,1.569,1.198,2.553v15.377c0,1.835-1.487,3.33-3.33,3.33h-47.257c-1.842,0-3.33-1.495-3.33-3.33v-15.377
			c0-1.835,1.488-3.33,3.33-3.33c4.256,0,5.529-0.067,5.898-0.096c0.066-0.015,0.148-0.029,0.223-0.044
			c1.724-0.273,1.982-0.873,2.078-1.754v-9.605c0-7.178-0.133-9.346-0.215-9.998c-0.361-2.109-1.397-3.751-3.166-5.032
			c-0.748-0.533-1.236-1.354-1.354-2.272c-0.118-0.91,0.148-1.828,0.733-2.538c1.094-1.332,1.894-2.398,2.471-3.249
			c-0.459,0.237-0.977,0.37-1.531,0.37h-19.055c-1.836,0-3.33-1.487-3.33-3.33v-37.799c0-1.843,1.494-3.33,3.33-3.33h75.095
			c1.835,0,3.33,1.487,3.33,3.33V687.779z"/>
		<path fill="#B97C2B" d="M424.014,711.656c-0.349-0.576-1.246-1.919-2.039-1.919h-7.826v15.587h7.074
			c0.812,0,1.783-0.206,2.841-1.732c1.063-1.533,1.601-3.603,1.601-6.152C425.664,715.388,425.124,713.496,424.014,711.656z"/>
		<path fill="#B97C2B" d="M424.119,683.223c1.039-1.769,1.545-3.74,1.545-6.023c0-2.006-0.568-3.713-1.74-5.217
			c-0.961-1.231-1.869-1.856-2.701-1.856h-7.074v14.864h7.826C422.277,684.99,423.079,684.99,424.119,683.223z"/>
		<path fill="#B97C2B" d="M522.043,670.914c-2.456-1.438-3.488-1.511-3.67-1.511h-5.195v15.949h11.338
			c0.103,0,0.204,0.004,0.305,0.014v-10.792C524.82,674.095,524.82,672.643,522.043,670.914z"/>
		<path fill="#B97C2B" d="M513.178,710.099v15.406h9.207c2.089,0,3.438-5.012,3.438-12.768v-1.628c0-0.377-0.007-0.798-0.021-1.268
			c-0.396,0.166-0.831,0.257-1.286,0.257H513.178z"/>
		<path fill="#B97C2B" d="M436.383,916.713v-13.986l-3.438,15.178c0.088,0,0.176,0.004,0.265,0.011
			c0.348,0.028,0.679,0.042,0.983,0.042C436.383,917.957,436.383,917.516,436.383,916.713z"/>
		<path fill="#B97C2B" d="M399.168,916.352c0,1.066,0,1.603,2.263,1.603c0.257,0,0.524-0.011,0.804-0.03l-3.066-14.813V916.352z"/>
		<path fill="#B97C2B" d="M629.73,829.978h-32.457c-1.91,0-3.686,0.555-5.188,1.517c-1.51-0.962-3.293-1.517-5.18-1.517h-41.817
			c-2.071,0-3.981,0.666-5.558,1.775c-1.568-1.11-3.479-1.775-5.551-1.775h-49.684c-2.116,0-4.069,0.695-5.652,1.85
			c-1.48-0.925-3.22-1.465-5.084-1.465h-41.826c-3.211,0-6.104,1.591-7.857,4.07c-1.717-2.693-4.736-4.454-8.119-4.454h-42.319
			c-5.313,0-9.62,4.306-9.62,9.62v16.221c0,2.908,1.339,5.66,3.604,7.48c1.576,1.273,3.5,1.998,5.482,2.117
			c0.016,1.221,0.023,2.768,0.023,4.713c0,5.195-0.037,7.171-0.06,7.889c-0.393,1.775-1.036,2.316-1.259,2.509
			c-2.145,1.806-3.396,4.462-3.418,7.267c-0.029,2.805,1.169,5.484,3.285,7.326c0.549,0.481,1.014,1.599,1.295,3.078
			c0.023,0.268,0.061,0.926,0.097,2.316c0.045,1.613,0.06,3.781,0.06,6.445c0,2.688-0.015,4.641-0.037,6.046
			c-1.976,0.111-3.893,0.837-5.477,2.103c-2.271,1.827-3.596,4.587-3.596,7.503v16.221c0,5.313,4.307,9.62,9.62,9.62h29.208
			c1.213,0,2.375-0.223,3.441-0.637c1.064,0.414,2.227,0.637,3.426,0.637h15.732c1.338,0,2.634-0.281,3.803-0.784
			c1.17,0.503,2.457,0.784,3.812,0.784h40.7c1.982,0,3.832-0.607,5.365-1.635c1.531,1.027,3.381,1.635,5.371,1.635h49.684
			c2.072,0,3.982-0.666,5.551-1.776c1.576,1.11,3.486,1.776,5.558,1.776h33.455c1.857,0,3.589-0.525,5.062-1.436
			c1.48,0.918,3.219,1.436,5.055,1.436h30.332c5.313,0,9.621-4.307,9.621-9.62v-41.04c0.109-0.281,0.311-0.748,0.665-1.421
			c0.147-0.251,0.274-0.459,0.377-0.614c1.732-1.317,3.013-3.205,3.553-5.402c0.896-3.656-0.429-7.496-3.382-9.827
			c-0.223-0.178-0.674-0.532-0.933-1.856c-0.044-0.525-0.155-2.369-0.155-7.963c0-2.25,0.029-3.967,0.066-5.276
			c0.223,0,0.467,0,0.703,0.007c2.598,0.045,5.092-0.924,6.949-2.737c1.85-1.813,2.893-4.292,2.893-6.882v-16.221
			C639.35,834.284,635.043,829.978,629.73,829.978z M477.142,936.611c0,1.517-1.028,2.782-2.419,3.182
			c-0.289,0.089-0.593,0.148-0.911,0.148h-40.87c-1.835,0-3.33-1.494-3.33-3.33v-3.988l-1.065,4.721
			c-0.348,1.518-1.694,2.598-3.249,2.598h-15.799c-1.576,0-2.938-1.11-3.256-2.656l-0.303-1.467v0.793c0,1.836-1.496,3.33-3.33,3.33
			h-29.334c-1.842,0-3.33-1.494-3.33-3.33v-15.377c0-1,0.451-1.954,1.229-2.582c0.776-0.637,1.799-0.882,2.781-0.674
			c0.482,0.096,0.733,0.11,0.822,0.11h1.377c1.672,0,2.353-0.496,2.752-2.027c0.053-0.459,0.186-2.331,0.186-9.657
			c0-2.59-0.015-4.691-0.06-6.246c-0.044-1.754-0.11-2.516-0.147-2.834c-0.541-2.916-1.628-5.024-3.345-6.438
			c-0.771-0.645-1.222-1.599-1.206-2.598c0.007-1.006,0.466-1.953,1.258-2.582c1.769-1.406,2.893-3.39,3.418-6.061
			c0.022-0.363,0.082-1.888,0.082-8.148c0-6.845-0.126-8.746-0.186-9.264c-0.154-0.512-0.547-1.155-2.752-1.155h-1.377
			c-0.082,0-0.333,0.008-0.844,0.111c-0.977,0.199-1.998-0.052-2.768-0.681c-0.776-0.637-1.221-1.584-1.221-2.583v-15.369
			c0-1.843,1.488-3.33,3.33-3.33h42.498c1.65,0,3.057,1.213,3.293,2.856c1.621,11.337,3.057,21.63,4.299,30.792
			c0.03-0.17,0.061-0.34,0.097-0.511c1.458-8.31,3.16-18.396,5.069-29.985c0.266-1.613,1.65-2.79,3.285-2.79h41.995
			c0.296,0,0.585,0.052,0.866,0.126c1.413,0.385,2.464,1.665,2.464,3.204v15.007c0,0.94-0.399,1.843-1.095,2.472
			c-0.045,0.037-0.097,0.066-0.141,0.104c-0.682,0.556-1.547,0.829-2.428,0.74c-0.629-0.059-1.221-0.096-1.769-0.096
			c-2.013,0-3.248,0.399-3.663,1.184c-0.096,0.518-0.311,2.449-0.311,9.346c0,5.92,0.133,7.873,0.215,8.525
			c0.436,2.383,1.486,4.158,3.211,5.445c0.814,0.607,1.303,1.547,1.34,2.561c0.029,1.015-0.399,1.984-1.169,2.643
			c-2.501,2.131-3.723,5.27-3.723,9.583v2.687c0.089,0.681,0.126,1.361,0.126,2.02v1.266c0,7.34,0.133,9.205,0.192,9.657
			c0.349,1.347,0.933,2.027,2.997,2.027h1.377c0.244,0,0.48-0.03,0.717-0.089c0.896-0.223,1.843-0.051,2.605,0.451
			c0.08,0.053,0.162,0.104,0.244,0.163c0.799,0.636,1.272,1.599,1.272,2.62V936.611z M473.855,912.99
			c-0.021-1.406-0.044-3.344-0.044-6.031v-1.332c0-0.807-0.036-1.628-0.118-2.449v-2.516c0-4.114,1.272-5.262,1.688-5.639
			c2.102-1.895,3.264-4.625,3.174-7.46c-0.096-2.826-1.428-5.476-3.647-7.229c-0.223-0.178-0.673-0.532-0.94-1.857
			c-0.044-0.525-0.155-2.391-0.155-8.154c0-2.05,0.022-3.648,0.044-4.885c1.813-0.059,3.567-0.629,5.07-1.643
			c2.064,1.392,4.595,1.939,7.074,1.495c0.021,1.229,0.037,2.812,0.037,4.839c0,6.217-0.045,8.215-0.067,8.814
			c-0.2,1.154-0.563,1.42-0.784,1.583c-2.383,1.769-3.818,4.528-3.893,7.496s1.229,5.802,3.522,7.681
			c0.2,0.171,0.726,0.594,1.065,2.043c0.052,0.711,0.156,2.923,0.156,9.213c0,2.754-0.022,4.744-0.053,6.18
			c-0.021,0-0.045-0.008-0.059-0.008c-2.457-0.422-4.959,0.126-7,1.494C477.408,913.611,475.654,913.05,473.855,912.99z
			 M537.438,936.611c0,1.332-0.793,2.479-1.932,3.004c-0.422,0.2-0.896,0.326-1.398,0.326h-49.892c-1.843,0-3.33-1.494-3.33-3.33
			v-15.377c0-0.977,0.429-1.902,1.169-2.539c0.748-0.629,1.732-0.902,2.694-0.746c0.563,0.088,1.103,0.14,1.599,0.14h1.879
			c3.322,0,3.648-1.14,3.805-1.694c0.066-0.385,0.258-2.161,0.258-9.99c0-6.682-0.125-8.865-0.207-9.575
			c-0.518-2.413-1.584-4.218-3.264-5.513c-0.836-0.652-1.316-1.658-1.287-2.717c0.022-1.065,0.548-2.042,1.421-2.648
			c1.851-1.295,2.878-3.057,3.248-5.535c0-0.008,0-0.008,0-0.016c0.03-0.333,0.089-1.887,0.089-8.902
			c0-7.015-0.185-8.828-0.266-9.264c-0.326-0.889-1.65-1.332-3.923-1.332c-0.474,0-1.006,0.021-1.591,0.073
			c-0.555,0.052-1.139,0.134-1.717,0.229c-0.969,0.178-1.961-0.088-2.715-0.725c-0.756-0.629-1.192-1.569-1.192-2.554v-15.369
			c0-1.843,1.487-3.33,3.33-3.33h49.892c0.488,0,0.946,0.11,1.369,0.295c1.153,0.525,1.961,1.68,1.961,3.035v15.369
			c0,0.881-0.349,1.673-0.904,2.265c-0.605,0.658-1.464,1.065-2.426,1.065h-7.845c-0.237,0.386-0.858,1.769-0.858,5.721
			c0,0.569,0.016,1.206,0.053,1.894c0.043,0.763,0.103,1.592,0.184,2.517c0.008,0.097,0.008,0.192,0.008,0.288v0.902
			c0,0.459-0.037,1-0.125,1.666v2.494c0,4.313,1.139,7.215,3.478,8.85c0.888,0.629,1.413,1.644,1.413,2.73
			c0,1.088-0.532,2.102-1.42,2.73c-1.799,1.251-2.864,3.338-3.242,6.365c-0.008,0.029-0.008,0.059-0.015,0.088
			c-0.029,0.385-0.089,2.02-0.089,8.902c0,6.615,0.082,7.852,0.104,8.073c0.008,0.045,0.008,0.052,0.008,0.097
			c0.199,2.013,0.555,2.952,0.747,3.33h7.601c0.844,0,1.598,0.325,2.19,0.844c0.688,0.605,1.14,1.486,1.14,2.486V936.611z
			 M533.98,912.99h-2.086c-0.016-1.206-0.029-3.086-0.029-6.031c0-6.43,0.043-8.324,0.066-8.872
			c0.215-1.702,0.644-2.368,0.776-2.472c2.45-1.813,3.893-4.677,3.9-7.719c0.007-3.049-1.437-5.92-3.878-7.732
			c-0.496-0.371-0.991-1.902-0.991-4.5v-2.293c0.081-0.785,0.126-1.458,0.126-2.095v-0.954c0-0.26-0.016-0.525-0.029-0.793
			c-0.082-0.895-0.134-1.709-0.172-2.479c-0.029-0.584-0.051-1.124-0.051-1.613h2.367c2.072,0,3.982-0.658,5.559-1.775
			c1.539,1.096,3.367,1.717,5.261,1.775c0.022,1.236,0.029,2.783,0.029,4.691c0,5.736-0.036,7.793-0.06,8.511
			c-0.251,1.132-0.71,1.554-1.16,1.887c-2.769,2.05-4.227,5.425-3.834,8.843c0.348,3.013,2.087,5.654,4.654,7.171
			c0.074,0.259,0.155,0.63,0.23,1.147c0.014,0.133,0.066,0.762,0.109,2.538c0.045,1.643,0.06,3.907,0.06,6.733
			c0,2.68-0.015,4.625-0.036,6.031c-1.873,0.06-3.701,0.674-5.262,1.776C537.963,913.648,536.053,912.99,533.98,912.99z
			 M633.208,857.927c0,0.896-0.362,1.754-1.007,2.383c-0.637,0.63-1.502,0.97-2.397,0.947c-0.274-0.007-0.548-0.007-0.813-0.007
			c-4.418,0-5.729,0.836-6.01,1.072c-0.133,0.615-0.429,2.783-0.429,9.717c0,5.765,0.126,7.695,0.208,8.34
			c0.443,2.383,1.494,4.166,3.219,5.446c1.057,0.799,1.554,2.146,1.25,3.433c-0.244,1.037-0.961,1.881-1.909,2.295
			c-0.207,0.222-0.681,0.791-1.473,2.072c-0.991,1.761-1.317,2.774-1.421,3.285v39.701c0,1.836-1.495,3.33-3.33,3.33h-30.459
			c-1.473,0-2.768-0.963-3.188-2.369l-3.641-11.994v11.033c0,1.836-1.487,3.33-3.33,3.33h-33.597c-1.835,0-3.33-1.494-3.33-3.33
			v-15.377c0-1.021,0.475-1.984,1.281-2.62c0.799-0.629,1.85-0.858,2.842-0.614c0.236,0.059,0.473,0.089,0.717,0.089h1.377
			c2.064,0,2.649-0.681,2.997-2.021c0.06-0.466,0.192-2.338,0.192-9.664c0-2.723-0.023-4.914-0.06-6.52
			c-0.052-1.969-0.126-2.709-0.163-2.982c-0.606-4.232-2.286-4.913-2.841-5.135c-1.133-0.467-1.917-1.502-2.058-2.716
			c-0.133-1.214,0.399-2.405,1.406-3.101c1.998-1.398,3.189-3.278,3.625-5.735c0.03-0.354,0.09-1.917,0.09-8.718
			c0-6.733-0.17-8.982-0.268-9.709c-0.221-0.14-1.124-0.613-3.691-0.613c-0.578,0-1.206,0.029-1.873,0.074
			c-0.917,0.066-1.835-0.252-2.508-0.881c-0.682-0.629-1.066-1.518-1.066-2.442v-15.369c0-1.843,1.495-3.33,3.33-3.33h41.996
			c1.465,0,2.76,0.955,3.188,2.353l3.885,12.721v-11.744c0-1.843,1.495-3.33,3.33-3.33h32.598c1.835,0,3.33,1.487,3.33,3.33V857.927
			z"/>
		<path fill="#B97C2B" d="M572.283,915.809c0,1.188,0.164,1.697,1.818,1.954c0.077,0.013,0.154,0.026,0.23,0.044
			c1.184,0.271,2.412,0.314,3.668,0.133c0.16-0.023,0.32-0.035,0.48-0.035c0.361,0,0.718,0.059,1.057,0.172l-7.254-23.934V915.809z"
			/>
		<path fill="#B97C2B" d="M601.977,862.994c0-1.223,0-1.896-2.47-1.896c-0.528,0-1.126,0.045-1.776,0.132
			c-0.592,0.08-1.186-0.001-1.725-0.226l5.971,19.516V862.994z"/>
		<path fill="#FFF6CC" d="M449.616,706.717c-3.185-3.896-6.914-5.679-11.325-5.484c-1.5,0.065-2.814-0.849-3.295-2.244
			c-0.479-1.395,0.016-2.939,1.218-3.795c0.676-0.481,1.438-0.721,3.265-1.025c1-0.166,2.43-0.482,4.25-0.939
			c0.072-0.019,0.146-0.035,0.222-0.048c2.019-0.363,3.519-0.992,4.458-1.869c0.379-0.342,1.658-1.796,4.068-7.843
			c0.014-0.034,0.027-0.068,0.043-0.103c1.576-3.601,2.642-5.696,3.427-6.979c-3.188-8.361-5.974-14.19-8.29-17.341
			c-2.95-3.742-6.514-5.561-10.889-5.561h-62.859v8.714h5.57c2.473,0,8.219,1.047,8.219,10.746c0,0.777-0.043,1.851-0.132,3.281
			c-0.079,1.248-0.118,2.212-0.118,2.868c0,5.12-0.133,8.333-0.418,10.113c-0.496,2.86-1.396,5.131-2.688,6.802
			c1.353,1.959,2.256,4.491,2.697,7.574c0.272,1.837,0.407,5.213,0.409,10.304l0.117,1.694c0.005,0.077,0.008,0.153,0.008,0.229
			v3.256c0,8.69-2.471,13.097-7.341,13.097h-6.323v8.714H439.9c1.145,0,3.174-0.506,6.354-2.915c2.725-2.179,4.713-4.499,5.91-6.897
			c0.41-0.989,1.152-3.301,2.402-8.704c0.31-1.615,0.928-3.045,1.849-4.276C453.606,712.607,451.322,708.787,449.616,706.717z
			 M407.488,666.796c0-1.839,1.491-3.33,3.33-3.33h10.404c2.99,0,5.667,1.488,7.954,4.422c2.089,2.682,3.147,5.814,3.147,9.311
			c0,3.456-0.829,6.618-2.465,9.4c-2.457,4.174-5.644,5.05-7.885,5.05h-11.156c-1.839,0-3.33-1.491-3.33-3.33V666.796z
			 M421.223,731.984h-10.404c-1.839,0-3.33-1.491-3.33-3.33v-22.248c0-1.839,1.491-3.33,3.33-3.33h11.156
			c2.115,0,5.174,0.891,7.739,5.135c1.733,2.869,2.61,5.974,2.61,9.229c0,3.931-0.938,7.277-2.787,9.946
			C426.904,731.187,423.563,731.984,421.223,731.984z"/>
		<path fill="#FFF6CC" d="M473.816,662.207c5.52,0.261,9.092,1.836,10.891,4.793c0.929,1.413,1.771,4.083,1.771,13.181
			c0,6.526-0.16,8.443-0.28,9.318c-0.008,0.045-0.015,0.09-0.022,0.135c-0.464,2.579-1.422,4.775-2.86,6.566
			c1.576,1.925,2.578,4.426,2.993,7.479c0.098,0.536,0.17,1.813,0.17,10.325v7.958c0,0.101-0.005,0.202-0.014,0.303
			c-0.748,8.182-4.261,9.899-7.077,9.899h-5.57v8.714h70.059v-30.057h-11.393c0,0.098,0.001,0.194,0.001,0.287v1.628
			c0,12.891-3.397,19.427-10.099,19.427h-12.536c-1.839,0-3.33-1.491-3.33-3.33v-22.066c0-1.839,1.491-3.33,3.33-3.33h11.337
			v-11.428h-11.337c-1.839,0-3.33-1.491-3.33-3.33v-22.609c0-1.839,1.491-3.33,3.33-3.33h8.524c1.984,0,4.232,0.778,7.076,2.448
			c0.023,0.013,0.045,0.026,0.066,0.039c4.93,3.05,5.965,6.765,5.965,9.344v9.331h12.771v-30.419h-70.435V662.207z"/>
		<path fill="#FFF6CC" d="M561.69,684.628h12.394v-14.214c0-4.731,3.053-7.671,7.968-7.671c0.968,0,3.235,0,4.483,1.781
			c0.392,0.56,0.602,1.228,0.602,1.911v21.705c0,2.018-1.088,4.419-3.569,7.768c1.723,1.973,2.82,4.335,3.273,7.059
			c0.006,0.031,0.011,0.062,0.015,0.093c0.121,0.878,0.281,2.969,0.281,10.945v9.767c0,0.1-0.004,0.2-0.014,0.299
			c-0.376,4.17-3.037,7-7.32,7.81c-0.545,0.153-1.494,0.237-4.198,0.269v8.73h40.599v-8.533h-0.305
			c-7.527,0-9.869-4.228-10.596-6.749c-0.252-0.846-0.506-2.463-0.506-11.593c0-8.476,0.072-9.646,0.176-10.178
			c0.527-3.607,1.629-6.351,3.29-8.21c-0.265-0.342-0.534-0.696-0.804-1.059c-0.684-0.913-1.28-1.85-1.773-2.778
			c-0.681-1.271-1.015-2.407-1.015-3.459v-22.247c0-1.839,1.491-3.33,3.33-3.33h3.009c2.885,0,4.514,2.715,5.049,3.607
			c1.074,1.799,1.656,3.457,1.781,5.074c0.006,0.085,0.01,0.171,0.01,0.256v12.768h12.27v-30.961H561.69V684.628z"/>
		<path fill="#FFF6CC" d="M430.019,873.518c-1.454,8.271-2.657,15.031-3.576,20.096c-0.239,1.32-1.248,2.367-2.56,2.658
			c-1.31,0.289-2.666-0.237-3.438-1.334c-0.292-0.412-0.517-0.799-0.688-1.18c-0.294-0.433-0.453-0.882-0.52-1.4
			c-1.582-12.317-3.719-27.939-6.355-46.472h-36.277v8.539c6.238,0.174,8.184,3.981,8.789,6.272
			c0.025,0.093,0.047,0.188,0.063,0.283c0.148,0.859,0.301,2.781,0.301,10.516c0,8.175-0.09,8.883-0.196,9.363
			c-0.569,2.931-1.674,5.447-3.296,7.519c1.566,2.133,2.634,4.761,3.188,7.853c0.009,0.045,0.016,0.092,0.022,0.137
			c0.101,0.744,0.169,1.893,0.217,3.615c0.043,1.611,0.065,3.77,0.065,6.421c0,8.058-0.152,10.021-0.301,10.878
			c-0.012,0.07-0.026,0.14-0.043,0.209c-1.07,4.467-4.268,7.088-8.809,7.248v8.541h22.674v-8.834
			c-4.279-0.711-6.77-3.624-6.77-8.094v-45.761c0-1.708,1.292-3.139,2.991-3.313c1.692-0.169,3.254,0.967,3.6,2.639l13.114,63.363
			h10.424l13.828-61.072c0.375-1.654,1.941-2.77,3.617-2.574c1.686,0.188,2.961,1.613,2.961,3.31v43.771
			c0,4.295-2.49,7.088-6.77,7.751v8.815h34.206v-8.541c-4.697-0.155-7.987-2.777-9.06-7.248c-0.016-0.068-0.029-0.136-0.041-0.203
			c-0.149-0.852-0.301-2.81-0.301-10.884v-1.267c0-0.443-0.031-0.888-0.096-1.359c-0.021-0.148-0.03-0.299-0.03-0.449v-2.893
			c0-4.826,1.196-8.848,3.563-12.006c-1.588-1.971-2.639-4.354-3.135-7.123c-0.008-0.043-0.014-0.084-0.021-0.126
			c-0.122-0.868-0.282-2.798-0.282-9.505c0-9.109,0.348-10.74,0.736-11.719c0.959-2.342,3.23-5.07,8.665-5.428v-8.281h-35.838
			C432.918,856.695,431.363,865.857,430.019,873.518z"/>
		<path fill="#FFF6CC" d="M487.543,854.247c0.189-0.005,0.375-0.008,0.557-0.008c7.396,0,9.651,3.872,10.338,6.18
			c0.012,0.038,0.021,0.076,0.031,0.115c0.251,0.967,0.482,2.965,0.482,10.963c0,8.381-0.08,9.5-0.179,10.003
			c-0.44,2.85-1.494,5.288-3.146,7.286c1.457,1.906,2.463,4.188,3.005,6.817c0.016,0.072,0.028,0.145,0.038,0.218
			c0.121,0.877,0.281,2.928,0.281,10.583c0,9.143-0.246,10.87-0.502,11.757c-0.681,2.477-2.914,6.586-10.225,6.586h-0.682v8.533
			h43.232v-8.715h-4.693c-2.743,0-6.172-1.612-6.943-9.281c-0.074-0.59-0.147-1.989-0.147-8.88c0-8.108,0.071-9.414,0.169-9.956
			c0.43-3.26,1.48-5.976,3.135-8.117c-2.277-2.884-3.429-6.766-3.429-11.59v-2.713c0-0.149,0.011-0.299,0.03-0.447
			c0.086-0.631,0.095-0.908,0.095-0.999v-0.762c-0.081-0.948-0.142-1.812-0.183-2.592c-0.045-0.796-0.067-1.558-0.067-2.254
			c0-10.228,3.992-12.374,7.341-12.374h4.693v-8.714h-43.232V854.247z"/>
		<path fill="#FFF6CC" d="M600.614,854.479c5.047,0.393,8.022,3.513,8.022,8.515v39.793c0,1.648-1.207,3.049-2.838,3.293
			c-1.633,0.248-3.195-0.742-3.677-2.319l-17.706-57.875h-36.201v8.664c4.387,0.225,7.257,1.707,8.545,4.412
			c0.465,0.861,0.856,1.98,0.856,12.535c0,8.518-0.085,9.39-0.188,9.871c-0.482,2.713-1.537,5.074-3.147,7.062
			c1.38,1.644,2.55,4.046,3.051,7.556c0.104,0.758,0.173,1.937,0.221,3.729c0.043,1.662,0.063,3.911,0.063,6.69
			c0,8.059-0.151,10.02-0.299,10.876c-0.013,0.07-0.026,0.141-0.044,0.211c-1.072,4.471-4.361,7.092-9.059,7.248v8.541h26.936
			v-8.625c-0.736-0.06-1.468-0.17-2.188-0.328c-4.667-0.77-7.34-3.867-7.34-8.518v-44.133c0-1.65,1.209-3.051,2.842-3.293
			c1.638-0.247,3.195,0.748,3.676,2.327l18.963,62.569h24.662v-36.643c0-0.153,0.01-0.306,0.031-0.457
			c0.227-1.639,0.971-3.561,2.276-5.879c0.022-0.039,0.044-0.076,0.066-0.113c0.387-0.627,0.753-1.186,1.106-1.681
			c-1.542-1.951-2.565-4.3-3.053-7.019c-0.007-0.042-0.014-0.084-0.02-0.127c-0.121-0.867-0.283-2.779-0.283-9.323
			c0-9.759,0.557-11.648,1.125-12.747c1.882-3.551,6.414-4.419,9.53-4.632v-8.773h-25.932V854.479z"/>
		<path d="M463.438,717.216c-3.574-7.163-6.416-11.98-8.674-14.726c-1.428-1.739-2.96-3.204-4.603-4.373
			c1.051-0.533,1.969-1.169,2.753-1.895c1.776-1.606,3.545-4.766,5.728-10.234c2.213-5.04,3.079-6.313,3.294-6.586
			c1.014-0.91,1.368-2.353,0.895-3.641c-3.744-10.035-6.963-16.806-9.85-20.712c-0.015-0.022-0.037-0.052-0.059-0.074
			c-4.24-5.41-9.672-8.147-16.154-8.147h-66.186c-1.844,0-3.33,1.487-3.33,3.33v15.37c0,1.843,1.486,3.33,3.33,3.33h8.895
			c0.429,0,1.561,0,1.561,4.092c0,0.629-0.036,1.591-0.117,2.864c-0.09,1.398-0.134,2.479-0.134,3.286
			c0,5.765-0.178,8.103-0.325,9.013c-0.252,1.458-0.889,3.989-2.271,4.507c-1.191,0.443-2.028,1.524-2.146,2.79
			c-0.126,1.266,0.48,2.494,1.562,3.16c1.45,0.895,2.405,2.9,2.841,5.979c0.156,1.043,0.341,3.53,0.341,9.458
			c0,0.074,0,0.155,0.007,0.229l0.119,1.695v3.137c0,4.433-0.674,5.994-0.939,6.438h-9.391c-1.844,0-3.33,1.495-3.33,3.33v15.377
			c0,1.835,1.486,3.33,3.33,3.33h69.315c3.204,0,6.608-1.406,10.419-4.299c0.016-0.015,0.037-0.03,0.06-0.044
			c3.544-2.827,6.171-5.95,7.807-9.28c0.022-0.052,0.052-0.103,0.075-0.163c0.746-1.754,1.672-5.01,2.811-9.96
			c0.016-0.044,0.022-0.096,0.03-0.148c0.185-0.999,0.614-1.709,1.384-2.294C463.748,720.383,464.154,718.651,463.438,717.216z
			 M454.564,722.366c-1.251,5.402-1.99,7.711-2.398,8.703c-1.198,2.397-3.188,4.713-5.912,6.896
			c-3.182,2.405-5.209,2.916-6.356,2.916h-65.985v-8.717h6.319c4.869,0,7.341-4.403,7.341-13.098v-3.256
			c0-0.074,0-0.148-0.008-0.229l-0.118-1.695c0-5.091-0.133-8.465-0.407-10.301c-0.443-3.085-1.347-5.616-2.701-7.578
			c1.295-1.665,2.197-3.937,2.694-6.8c0.281-1.776,0.414-4.995,0.414-10.108c0-0.659,0.037-1.621,0.118-2.872
			c0.09-1.428,0.133-2.501,0.133-3.278c0-9.702-5.749-10.752-8.221-10.752h-5.564v-8.71h62.855c4.373,0,7.939,1.821,10.885,5.558
			c2.316,3.152,5.105,8.984,8.296,17.346c-0.784,1.28-1.851,3.375-3.426,6.979c-0.016,0.029-0.03,0.066-0.045,0.103
			c-2.412,6.046-3.692,7.497-4.07,7.844c-0.939,0.874-2.442,1.502-4.454,1.865c-0.074,0.015-0.148,0.03-0.223,0.052
			c-1.82,0.452-3.248,0.77-4.255,0.94c-1.821,0.303-2.582,0.54-3.263,1.021c-1.199,0.858-1.695,2.397-1.215,3.796
			c0.482,1.391,1.791,2.309,3.293,2.242c4.411-0.192,8.141,1.591,11.322,5.483c1.71,2.072,3.996,5.891,6.801,11.374
			C455.496,719.317,454.875,720.746,454.564,722.366z"/>
		<path d="M410.818,691.65h11.156c2.241,0,5.428-0.876,7.885-5.05c1.636-2.782,2.465-5.945,2.465-9.4
			c0-3.496-1.059-6.628-3.147-9.311c-2.287-2.935-4.964-4.422-7.954-4.422h-10.404c-1.839,0-3.33,1.491-3.33,3.33v21.523
			C407.488,690.159,408.979,691.65,410.818,691.65z M414.148,670.126h7.074c0.832,0,1.74,0.625,2.701,1.856
			c1.172,1.504,1.74,3.21,1.74,5.217c0,2.284-0.506,4.254-1.545,6.023c-1.04,1.767-1.842,1.767-2.145,1.767h-7.826V670.126z"/>
		<path d="M429.714,708.211c-2.565-4.244-5.624-5.135-7.739-5.135h-11.156c-1.839,0-3.33,1.491-3.33,3.33v22.248
			c0,1.839,1.491,3.33,3.33,3.33h10.404c2.34,0,5.682-0.797,8.314-4.598c1.85-2.668,2.787-6.015,2.787-9.946
			C432.324,714.186,431.447,711.081,429.714,708.211z M421.223,725.324h-7.074v-15.587h7.826c0.793,0,1.69,1.343,2.039,1.919
			c1.11,1.84,1.65,3.732,1.65,5.784c0,2.549-0.537,4.619-1.601,6.152C423.006,725.119,422.034,725.324,421.223,725.324z"/>
		<path d="M528.15,690.561h19.432c0.652,0,1.258-0.192,1.776-0.518c0.933-0.592,1.554-1.621,1.554-2.813v-37.074
			c0-1.376-0.836-2.553-2.02-3.063c-0.4-0.17-0.844-0.267-1.311-0.267h-77.094c-1.842,0-3.33,1.487-3.33,3.33v15.37
			c0,0.91,0.363,1.776,1.021,2.405c0.652,0.629,1.525,0.97,2.436,0.925c0.518-0.022,1.014-0.03,1.494-0.03
			c5.654,0,6.756,1.377,6.919,1.65c0.022,0.037,0.037,0.074,0.06,0.104c0.125,0.304,0.732,2.153,0.732,9.598
			c0,5.742-0.133,7.688-0.215,8.347c-0.429,2.301-1.42,3.871-3.107,4.929c-1.006,0.629-1.605,1.739-1.569,2.93
			c0.037,1.184,0.703,2.257,1.747,2.82c0.621,0.34,2.508,1.361,3.041,5.461c0.008,0.022,0.008,0.044,0.015,0.066
			c0.022,0.34,0.089,1.939,0.089,9.272v7.8c-0.222,2.286-0.629,3.308-0.844,3.7h-8.488c-1.842,0-3.33,1.495-3.33,3.33v15.377
			c0,1.835,1.488,3.33,3.33,3.33h76.717c1.842,0,3.33-1.495,3.33-3.33v-36.719c0-1.842-1.488-3.33-3.33-3.33h-18.174
			c-0.408,0-0.814,0.074-1.185,0.215v-13.823C527.943,690.561,528.047,690.561,528.15,690.561z M525.804,709.838
			c0.016,0.473,0.022,0.896,0.022,1.272v1.628c0,7.755-1.354,12.765-3.441,12.765h-9.205v-15.407h11.338
			C524.968,710.097,525.404,710.008,525.804,709.838z M513.18,685.352v-15.947h5.195c0.178,0,1.213,0.074,3.67,1.509
			c2.775,1.731,2.775,3.182,2.775,3.663v10.789c-0.104-0.007-0.2-0.015-0.303-0.015H513.18z M525.516,665.231
			c-0.022-0.015-0.045-0.03-0.066-0.037c-2.842-1.672-5.092-2.449-7.074-2.449h-8.525c-1.843,0-3.33,1.487-3.33,3.33v22.607
			c0,1.843,1.487,3.33,3.33,3.33h11.338v11.426H509.85c-1.843,0-3.33,1.495-3.33,3.33v22.067c0,1.842,1.487,3.33,3.33,3.33h12.535
			c6.697,0,10.102-6.534,10.102-19.425v-1.628c0-0.096,0-0.192-0.008-0.289h11.396v30.059h-70.057v-8.717h5.566
			c2.818,0,6.334-1.717,7.08-9.901c0.008-0.096,0.016-0.2,0.016-0.303v-7.955c0-8.51-0.074-9.79-0.17-10.323
			c-0.414-3.056-1.422-5.557-2.998-7.481c1.443-1.791,2.398-3.989,2.865-6.564c0.006-0.044,0.015-0.089,0.021-0.141
			c0.119-0.874,0.281-2.79,0.281-9.316c0-9.095-0.844-11.766-1.776-13.18c-1.798-2.96-5.372-4.529-10.886-4.795v-8.718h70.434
			v30.414h-12.772v-9.324C531.479,671.995,530.444,668.28,525.516,665.231z"/>
		<path d="M633.452,646.827h-75.095c-1.836,0-3.33,1.487-3.33,3.33v37.799c0,1.843,1.494,3.33,3.33,3.33h19.055
			c0.555,0,1.072-0.133,1.531-0.37c-0.577,0.851-1.377,1.917-2.471,3.249c-0.585,0.71-0.852,1.628-0.733,2.538
			c0.118,0.917,0.606,1.739,1.354,2.272c1.769,1.28,2.805,2.923,3.166,5.032c0.082,0.651,0.215,2.819,0.215,9.998v9.605
			c-0.096,0.881-0.354,1.48-2.078,1.754c-0.074,0.015-0.156,0.03-0.223,0.044c-0.369,0.029-1.643,0.096-5.898,0.096
			c-1.842,0-3.33,1.495-3.33,3.33v15.377c0,1.835,1.488,3.33,3.33,3.33h47.257c1.843,0,3.33-1.495,3.33-3.33v-15.377
			c0-0.984-0.437-1.924-1.198-2.553c-0.755-0.636-1.754-0.902-2.724-0.725c-0.466,0.089-0.902,0.133-1.288,0.133h-1.754
			c-3.5,0-3.98-1.213-4.18-1.887c-0.066-0.385-0.26-2.153-0.26-9.797c0-7.038,0.052-8.695,0.082-9.08
			c0.007-0.015,0.007-0.03,0.007-0.038c0.259-1.828,0.94-4.95,2.59-5.394c1.185-0.326,2.102-1.273,2.376-2.479
			c0.273-1.199-0.141-2.45-1.074-3.256c-0.185-0.163-0.517-0.489-1.042-1.133c-0.489-0.592-1.007-1.25-1.532-1.954
			c0.488,0.274,1.051,0.437,1.658,0.437h18.929c1.835,0,3.33-1.495,3.33-3.33v-37.622
			C636.782,648.314,635.287,646.827,633.452,646.827z M630.122,684.449h-12.269v-12.772c0-0.081-0.008-0.17-0.016-0.251
			c-0.126-1.621-0.703-3.278-1.775-5.076c-0.541-0.888-2.169-3.604-5.055-3.604h-3.004c-1.844,0-3.33,1.487-3.33,3.33v22.244
			c0,1.051,0.332,2.19,1.014,3.463c0.488,0.925,1.088,1.865,1.768,2.775c0.274,0.363,0.541,0.718,0.808,1.058
			c-1.657,1.857-2.761,4.603-3.294,8.207c-0.104,0.533-0.17,1.709-0.17,10.183c0,9.131,0.252,10.745,0.504,11.596
			c0.725,2.516,3.07,6.749,10.596,6.749h0.305v8.532h-40.598v-8.731c2.701-0.03,3.648-0.119,4.197-0.267
			c4.284-0.814,6.947-3.641,7.318-7.814c0.014-0.096,0.014-0.2,0.014-0.296v-9.768c0-7.978-0.162-10.064-0.281-10.945
			c0-0.029-0.007-0.059-0.014-0.096c-0.452-2.724-1.547-5.084-3.271-7.06c2.479-3.345,3.566-5.75,3.566-7.763v-21.704
			c0-0.688-0.207-1.354-0.599-1.917c-1.251-1.776-3.515-1.776-4.484-1.776c-4.914,0-7.97,2.938-7.97,7.667v14.215h-12.396v-31.14
			h68.436V684.449z"/>
		<path d="M471.71,861.146c0.548,0,1.14,0.037,1.769,0.096c0.881,0.089,1.746-0.185,2.428-0.74c0.044-0.037,0.096-0.066,0.141-0.104
			c0.695-0.629,1.095-1.531,1.095-2.472v-15.007c0-1.539-1.051-2.819-2.464-3.204c-0.281-0.074-0.57-0.126-0.866-0.126h-41.995
			c-1.635,0-3.02,1.177-3.285,2.79c-1.909,11.589-3.611,21.675-5.069,29.985c-0.036,0.171-0.066,0.341-0.097,0.511
			c-1.242-9.161-2.678-19.455-4.299-30.792c-0.236-1.643-1.643-2.856-3.293-2.856h-42.498c-1.842,0-3.33,1.487-3.33,3.33v15.369
			c0,0.999,0.444,1.946,1.221,2.583c0.77,0.629,1.791,0.88,2.768,0.681c0.511-0.104,0.762-0.111,0.844-0.111h1.377
			c2.205,0,2.598,0.644,2.752,1.155c0.06,0.518,0.186,2.419,0.186,9.264c0,6.261-0.06,7.785-0.082,8.148
			c-0.525,2.671-1.649,4.654-3.418,6.061c-0.792,0.629-1.251,1.576-1.258,2.582c-0.016,0.999,0.436,1.953,1.206,2.598
			c1.717,1.413,2.804,3.521,3.345,6.438c0.037,0.318,0.104,1.08,0.147,2.834c0.045,1.555,0.06,3.656,0.06,6.246
			c0,7.326-0.133,9.198-0.186,9.657c-0.399,1.531-1.08,2.027-2.752,2.027h-1.377c-0.089,0-0.34-0.015-0.822-0.11
			c-0.982-0.208-2.005,0.037-2.781,0.674c-0.777,0.628-1.229,1.582-1.229,2.582v15.377c0,1.836,1.488,3.33,3.33,3.33h29.334
			c1.834,0,3.33-1.494,3.33-3.33v-0.793l0.303,1.467c0.318,1.546,1.68,2.656,3.256,2.656h15.799c1.555,0,2.901-1.08,3.249-2.598
			l1.065-4.721v3.988c0,1.836,1.495,3.33,3.33,3.33h40.87c0.318,0,0.622-0.06,0.911-0.148c1.391-0.399,2.419-1.665,2.419-3.182
			v-15.377c0-1.021-0.474-1.984-1.272-2.62c-0.082-0.06-0.164-0.11-0.244-0.163c-0.763-0.502-1.71-0.674-2.605-0.451
			c-0.236,0.059-0.473,0.089-0.717,0.089h-1.377c-2.064,0-2.648-0.681-2.997-2.027c-0.06-0.452-0.192-2.317-0.192-9.657v-1.266
			c0-0.658-0.037-1.339-0.126-2.02v-2.687c0-4.313,1.222-7.452,3.723-9.583c0.77-0.658,1.198-1.628,1.169-2.643
			c-0.037-1.014-0.525-1.953-1.34-2.561c-1.725-1.287-2.775-3.063-3.211-5.445c-0.082-0.652-0.215-2.605-0.215-8.525
			c0-6.896,0.215-8.828,0.311-9.346C468.462,861.546,469.697,861.146,471.71,861.146z M401.433,917.955
			c-2.265,0-2.265-0.539-2.265-1.605v-13.238l3.064,14.814C401.958,917.941,401.684,917.955,401.433,917.955z M434.191,917.955
			c-0.303,0-0.637-0.014-0.983-0.036c-0.089-0.007-0.179-0.015-0.259-0.015l3.434-15.178v13.986
			C436.383,917.52,436.383,917.955,434.191,917.955z M461.816,859.955c-0.393,0.984-0.74,2.611-0.74,11.721
			c0,6.705,0.162,8.637,0.281,9.502c0.008,0.045,0.016,0.089,0.022,0.125c0.495,2.775,1.546,5.158,3.138,7.127
			c-2.368,3.16-3.566,7.178-3.566,12.003v2.894c0,0.155,0.014,0.303,0.029,0.451c0.066,0.475,0.096,0.918,0.096,1.361v1.266
			c0,8.073,0.155,10.035,0.304,10.885c0.007,0.067,0.022,0.135,0.036,0.201c1.074,4.469,4.367,7.096,9.065,7.252v8.539h-34.21v-8.82
			c4.277-0.658,6.771-3.457,6.771-7.748v-43.771c0-1.694-1.273-3.123-2.961-3.308c-1.672-0.192-3.24,0.918-3.618,2.575
			l-13.831,61.072h-10.419l-13.112-63.366c-0.348-1.673-1.91-2.805-3.604-2.634c-1.695,0.17-2.99,1.605-2.99,3.307v45.762
			c0,4.471,2.486,7.385,6.771,8.096v8.836h-22.674v-8.539c4.537-0.163,7.732-2.783,8.806-7.252c0.015-0.066,0.03-0.142,0.044-0.208
			c0.148-0.858,0.297-2.819,0.297-10.878c0-2.649-0.015-4.811-0.06-6.424c-0.052-1.724-0.118-2.871-0.222-3.61
			c0-0.052-0.008-0.097-0.022-0.142c-0.548-3.092-1.62-5.719-3.183-7.851c1.621-2.071,2.724-4.588,3.294-7.519
			c0.103-0.48,0.192-1.191,0.192-9.361c0-7.74-0.148-9.656-0.297-10.516c-0.014-0.096-0.037-0.191-0.059-0.287
			c-0.606-2.287-2.553-6.099-8.791-6.268v-8.54h36.275c2.633,18.53,4.772,34.151,6.355,46.472c0.066,0.518,0.223,0.969,0.519,1.398
			c0.17,0.385,0.399,0.77,0.688,1.176c0.776,1.104,2.131,1.629,3.441,1.34c1.309-0.296,2.315-1.34,2.56-2.664
			c0.918-5.062,2.116-11.824,3.574-20.09c1.347-7.66,2.901-16.828,4.625-27.27h35.838v8.281
			C465.043,854.886,462.771,857.616,461.816,859.955z"/>
		<path d="M534.107,861.257c0.962,0,1.82-0.407,2.426-1.065c0.556-0.592,0.904-1.384,0.904-2.265v-15.369
			c0-1.354-0.808-2.509-1.961-3.035c-0.423-0.185-0.881-0.295-1.369-0.295h-49.892c-1.843,0-3.33,1.487-3.33,3.33v15.369
			c0,0.984,0.437,1.925,1.192,2.554c0.754,0.637,1.746,0.902,2.715,0.725c0.578-0.096,1.162-0.178,1.717-0.229
			c0.585-0.052,1.117-0.073,1.591-0.073c2.272,0,3.597,0.443,3.923,1.332c0.081,0.436,0.266,2.249,0.266,9.264
			c0,7.016-0.059,8.569-0.089,8.902c0,0.008,0,0.008,0,0.016c-0.37,2.479-1.397,4.24-3.248,5.535
			c-0.873,0.606-1.398,1.583-1.421,2.648c-0.029,1.059,0.451,2.064,1.287,2.717c1.68,1.295,2.746,3.1,3.264,5.513
			c0.082,0.71,0.207,2.894,0.207,9.575c0,7.829-0.191,9.605-0.258,9.99c-0.156,0.555-0.482,1.694-3.805,1.694h-1.879
			c-0.496,0-1.036-0.052-1.599-0.14c-0.962-0.156-1.946,0.117-2.694,0.746c-0.74,0.637-1.169,1.563-1.169,2.539v15.377
			c0,1.836,1.487,3.33,3.33,3.33h49.892c0.503,0,0.977-0.126,1.398-0.326c1.139-0.525,1.932-1.672,1.932-3.004v-15.377
			c0-1-0.452-1.881-1.14-2.486c-0.593-0.519-1.347-0.844-2.19-0.844h-7.601c-0.192-0.378-0.548-1.317-0.747-3.33
			c0-0.045,0-0.052-0.008-0.097c-0.021-0.222-0.104-1.458-0.104-8.073c0-6.883,0.06-8.518,0.089-8.902
			c0.007-0.029,0.007-0.059,0.015-0.088c0.378-3.027,1.443-5.114,3.242-6.365c0.888-0.629,1.42-1.643,1.42-2.73
			c0-1.087-0.525-2.102-1.413-2.73c-2.339-1.635-3.478-4.536-3.478-8.85v-2.494c0.088-0.666,0.125-1.207,0.125-1.666v-0.902
			c0-0.096,0-0.191-0.008-0.288c-0.081-0.925-0.141-1.754-0.184-2.517c-0.037-0.688-0.053-1.324-0.053-1.894
			c0-3.952,0.621-5.335,0.858-5.721H534.107z M518.744,866.978c0,0.694,0.022,1.458,0.066,2.249c0.037,0.785,0.098,1.643,0.178,2.59
			v0.762c0,0.09-0.007,0.371-0.088,1c-0.022,0.148-0.037,0.304-0.037,0.451v2.709c0,4.824,1.154,8.709,3.434,11.596
			c-1.658,2.139-2.709,4.854-3.138,8.109c-0.097,0.549-0.171,1.85-0.171,9.961c0,6.89,0.074,8.288,0.148,8.88
			c0.777,7.667,4.203,9.279,6.948,9.279h4.692v8.718h-43.231v-8.533h0.681c7.313,0,9.539-4.113,10.22-6.585
			c0.259-0.888,0.503-2.62,0.503-11.759c0-7.659-0.162-9.709-0.281-10.582c-0.007-0.074-0.021-0.148-0.037-0.222
			c-0.54-2.627-1.546-4.906-3.004-6.815c1.65-1.998,2.708-4.439,3.146-7.289c0.096-0.504,0.177-1.621,0.177-9.998
			c0-7.999-0.229-9.997-0.48-10.966c-0.008-0.038-0.022-0.075-0.029-0.111c-0.689-2.31-2.945-6.179-10.339-6.179
			c-0.185,0-0.37,0-0.555,0.007v-8.362h43.231v8.709h-4.692C522.733,854.597,518.744,856.75,518.744,866.978z"/>
		<path d="M629.878,839.228H597.28c-1.835,0-3.33,1.487-3.33,3.33v11.744l-3.885-12.721c-0.429-1.398-1.724-2.353-3.188-2.353
			h-41.996c-1.835,0-3.33,1.487-3.33,3.33v15.369c0,0.925,0.385,1.813,1.066,2.442c0.673,0.629,1.591,0.947,2.508,0.881
			c0.667-0.045,1.295-0.074,1.873-0.074c2.567,0,3.471,0.474,3.691,0.613c0.098,0.727,0.268,2.976,0.268,9.709
			c0,6.801-0.06,8.363-0.09,8.718c-0.436,2.457-1.627,4.337-3.625,5.735c-1.007,0.695-1.539,1.887-1.406,3.101
			c0.141,1.214,0.925,2.249,2.058,2.716c0.555,0.222,2.234,0.902,2.841,5.135c0.037,0.273,0.111,1.014,0.163,2.982
			c0.036,1.605,0.06,3.797,0.06,6.52c0,7.326-0.133,9.198-0.192,9.664c-0.348,1.34-0.933,2.021-2.997,2.021h-1.377
			c-0.244,0-0.48-0.03-0.717-0.089c-0.992-0.244-2.043-0.015-2.842,0.614c-0.807,0.636-1.281,1.599-1.281,2.62v15.377
			c0,1.836,1.495,3.33,3.33,3.33h33.597c1.843,0,3.33-1.494,3.33-3.33v-11.033l3.641,11.994c0.421,1.406,1.716,2.369,3.188,2.369
			h30.459c1.835,0,3.33-1.494,3.33-3.33V896.91c0.104-0.511,0.43-1.524,1.421-3.285c0.792-1.281,1.266-1.851,1.473-2.072
			c0.948-0.414,1.665-1.258,1.909-2.295c0.304-1.287-0.193-2.634-1.25-3.433c-1.725-1.28-2.775-3.063-3.219-5.446
			c-0.082-0.645-0.208-2.575-0.208-8.34c0-6.934,0.296-9.102,0.429-9.717c0.281-0.236,1.592-1.072,6.01-1.072
			c0.266,0,0.539,0,0.813,0.007c0.896,0.022,1.761-0.317,2.397-0.947c0.645-0.629,1.007-1.487,1.007-2.383v-15.369
			C633.208,840.715,631.713,839.228,629.878,839.228z M597.732,861.227c0.65-0.088,1.242-0.133,1.775-0.133
			c2.473,0,2.473,0.682,2.473,1.902v17.523l-5.973-19.514C596.549,861.227,597.141,861.309,597.732,861.227z M578.478,917.904
			c-0.155,0-0.319,0.015-0.474,0.037c-1.258,0.177-2.486,0.141-3.671-0.134c-0.073-0.015-0.155-0.03-0.229-0.044
			c-1.657-0.26-1.82-0.77-1.82-1.954v-21.667l7.252,23.932C579.195,917.963,578.84,917.904,578.478,917.904z M626.548,854.656
			c-3.115,0.214-7.651,1.08-9.53,4.632c-0.57,1.103-1.126,2.989-1.126,12.751c0,6.541,0.163,8.458,0.281,9.324
			c0.007,0.044,0.015,0.081,0.022,0.125c0.488,2.716,1.51,5.069,3.049,7.016c-0.348,0.496-0.719,1.059-1.104,1.688
			c-0.021,0.037-0.043,0.074-0.066,0.11c-1.31,2.316-2.049,4.241-2.279,5.876c-0.021,0.155-0.029,0.304-0.029,0.459v36.645h-24.664
			l-18.959-62.574c-0.48-1.576-2.042-2.568-3.678-2.324c-1.635,0.244-2.842,1.644-2.842,3.293v44.134
			c0,4.647,2.672,7.748,7.342,8.518c0.717,0.155,1.45,0.267,2.183,0.325v8.629h-26.937v-8.539c4.699-0.156,7.992-2.783,9.065-7.252
			c0.015-0.066,0.03-0.142,0.044-0.208c0.141-0.858,0.297-2.819,0.297-10.878c0-2.782-0.023-5.032-0.066-6.689
			c-0.045-1.791-0.111-2.975-0.215-3.73c-0.504-3.507-1.672-5.912-3.057-7.555c1.613-1.99,2.664-4.352,3.152-7.061
			c0.096-0.48,0.186-1.354,0.186-9.871c0-10.559-0.393-11.676-0.859-12.535c-1.287-2.709-4.158-4.188-8.547-4.41v-8.666h36.201
			l17.708,57.875c0.481,1.576,2.05,2.567,3.679,2.316c1.627-0.245,2.841-1.644,2.841-3.294v-39.789c0-5.003-2.982-8.125-8.029-8.518
			v-8.591h25.938V854.656z"/>
	</g>
</g>
</svg>
