<?xml version="1.0" encoding="utf-8"?>
<!-- Generator: Adobe Illustrator 16.0.0, SVG Export Plug-In . SVG Version: 6.00 Build 0)  -->
<!DOCTYPE svg PUBLIC "-//W3C//DTD SVG 1.1//EN" "http://www.w3.org/Graphics/SVG/1.1/DTD/svg11.dtd">
<svg version="1.1" id="Layer_1" xmlns="http://www.w3.org/2000/svg" xmlns:xlink="http://www.w3.org/1999/xlink" x="0px" y="0px"
	 width="1024px" height="1024px" viewBox="0 0 1024 1024" enable-background="new 0 0 1024 1024" xml:space="preserve">
<g id="More">
	<g>
		
			<radialGradient id="SVGID_1_" cx="85.3076" cy="288.8125" r="841.2551" gradientTransform="matrix(1 0 -1.426682e-004 1 428.9546 205.0039)" gradientUnits="userSpaceOnUse">
			<stop  offset="0" style="stop-color:#010101"/>
			<stop  offset="0.0916" style="stop-color:#080808"/>
			<stop  offset="0.2173" style="stop-color:#191918"/>
			<stop  offset="0.3629" style="stop-color:#353635"/>
			<stop  offset="0.5234" style="stop-color:#5E5E5E"/>
			<stop  offset="0.6961" style="stop-color:#919191"/>
			<stop  offset="0.8762" style="stop-color:#D0D1D1"/>
			<stop  offset="1" style="stop-color:#FFFFFF"/>
		</radialGradient>
		<path fill="url(#SVGID_1_)" stroke="#010101" stroke-width="4.699" stroke-miterlimit="10" d="M845.89,10H178.113
			c-10.388,0-18.813,8.427-18.813,18.813v432.646c0,10.388,8.425,18.811,18.813,18.811H845.89c10.39,0,18.812-8.423,18.812-18.811
			V28.813C864.701,18.426,856.279,10,845.89,10z M818.266,440.38c0,9.02-7.313,16.333-16.332,16.333H222.07
			c-9.021,0-16.337-7.313-16.337-16.333V64.693c0-9.021,7.316-16.337,16.337-16.337h579.863c9.02,0,16.332,7.317,16.332,16.337
			V440.38z"/>
		
			<radialGradient id="SVGID_2_" cx="82.46" cy="22.8721" r="467.7441" gradientTransform="matrix(1 0 0 1 428.7998 229.6621)" gradientUnits="userSpaceOnUse">
			<stop  offset="0" style="stop-color:#FFFFFF"/>
			<stop  offset="0.1238" style="stop-color:#D0D1D1"/>
			<stop  offset="0.3039" style="stop-color:#919191"/>
			<stop  offset="0.4766" style="stop-color:#5E5E5E"/>
			<stop  offset="0.6371" style="stop-color:#353635"/>
			<stop  offset="0.7827" style="stop-color:#191918"/>
			<stop  offset="0.9084" style="stop-color:#080808"/>
			<stop  offset="1" style="stop-color:#010101"/>
		</radialGradient>
		<path fill="url(#SVGID_2_)" stroke="#010101" stroke-width="4.699" stroke-miterlimit="10" d="M801.193,48.356H221.331
			c-9.021,0-16.337,7.317-16.337,16.337v375.686c0,9.019,7.316,16.333,16.337,16.333h579.863c9.02,0,16.333-7.314,16.333-16.333
			V64.693C817.526,55.673,810.213,48.356,801.193,48.356z M796.281,427.348c0,8.396-6.805,15.202-15.2,15.202h-539.64
			c-8.395,0-15.203-6.806-15.203-15.202V77.723c0-8.396,6.809-15.203,15.203-15.203h539.64c8.396,0,15.2,6.808,15.2,15.203V427.348z
			"/>
	</g>
	<g>
		
			<linearGradient id="SVGID_3_" gradientUnits="userSpaceOnUse" x1="-416.2207" y1="2091.7646" x2="153.8223" y2="2091.7646" gradientTransform="matrix(1 0 0 -1 643.1992 2344.2988)">
			<stop  offset="0" style="stop-color:#4E1615"/>
			<stop  offset="0.168" style="stop-color:#611B1A"/>
			<stop  offset="0.372" style="stop-color:#752222"/>
			<stop  offset="0.4854" style="stop-color:#7B2524"/>
			<stop  offset="0.759" style="stop-color:#7C1E1E"/>
			<stop  offset="1" style="stop-color:#7D1618"/>
		</linearGradient>
		<path fill="url(#SVGID_3_)" stroke="#010101" stroke-width="4.699" stroke-miterlimit="10" d="M781.821,62.519H242.183
			c-8.396,0-15.204,6.807-15.204,15.203v349.625c0,8.396,6.809,15.202,15.204,15.202h539.639c8.396,0,15.2-6.806,15.2-15.202V77.722
			C797.021,69.328,790.217,62.519,781.821,62.519z M772.165,415.75c0,7.76-6.292,14.049-14.047,14.049H259.382
			c-7.758,0-14.051-6.289-14.051-14.049V92.627c0-7.759,6.293-14.051,14.051-14.051h498.736c7.755,0,14.047,6.292,14.047,14.051
			V415.75L772.165,415.75z"/>
		
			<linearGradient id="SVGID_4_" gradientUnits="userSpaceOnUse" x1="-397.8677" y1="2090.1113" x2="128.9658" y2="2090.1113" gradientTransform="matrix(1 0 0 -1 643.1992 2344.2988)">
			<stop  offset="0" style="stop-color:#7D1618"/>
			<stop  offset="0.241" style="stop-color:#7C1E1E"/>
			<stop  offset="0.5146" style="stop-color:#7B2524"/>
			<stop  offset="0.628" style="stop-color:#752222"/>
			<stop  offset="0.832" style="stop-color:#611B1A"/>
			<stop  offset="1" style="stop-color:#4E1615"/>
		</linearGradient>
		<path fill="url(#SVGID_4_)" stroke="#010101" stroke-width="4.699" stroke-miterlimit="10" d="M758.118,78.576H259.382
			c-7.758,0-14.051,6.292-14.051,14.051V415.75c0,7.76,6.293,14.049,14.051,14.049h498.736c7.755,0,14.047-6.289,14.047-14.049
			V92.627C772.165,84.868,765.873,78.576,758.118,78.576z"/>
	</g>
	<g>
		<path fill="none" d="M472.351,361.204c-0.327,0.339-0.679,0.655-1.055,0.945c-0.116,0.255-0.291,0.696-0.485,1.385
			c-0.672,2.377-1.012,4.675-1.012,6.834c0,3.95,0.666,7.114,1.927,9.148c0.383,0.618,0.646,0.834,0.705,0.878
			c0.001,0,0.003,0,0.006,0c0.023,0,0.1,0.009,0.226,0.009c0.242,0,0.403-0.018,0.499-0.034c0.313-0.436,1.616-2.66,1.616-9.429
			c0-5.733-0.856-8.011-1.151-8.627C473.167,361.98,472.741,361.608,472.351,361.204z"/>
		<path fill="none" d="M481.764,171.571c0.022,0.57,0.066,2.561,0.066,9.257v6.031h-2.99c-0.274,0-0.54,0.015-0.807,0.037
			c0.2-1.731-0.067-3.537-0.851-5.202c-3.804-8.081-6.771-13.387-9.324-16.665c-0.2-0.259-0.407-0.518-0.607-0.762
			c1.754-2.405,3.426-5.832,5.306-10.812c1.45-3.493,2.197-4.965,2.493-5.498c2.065-2.42,2.813-5.735,1.947-8.835
			c0.732,0.148,1.48,0.214,2.242,0.177c0.918-0.037,1.791-0.029,2.435,0.008c0.082,1.28,0.156,3.152,0.156,5.838
			c0,5.55-0.111,7.415-0.156,7.948c-0.066,0.326-0.207,0.88-0.399,1.014c-2.782,1.843-4.418,4.995-4.307,8.333
			c0.104,3.204,1.791,6.142,4.499,7.836C481.542,170.484,481.667,170.891,481.764,171.571z"/>
		<path fill="none" d="M470.377,344.53c0.052,0.203,0.379,1.256,1.991,3.294c1.677-2.021,2.035-5.643,2.035-8.37
			c0-5.563-1.107-7.35-1.331-7.653c-0.115-0.032-0.395-0.091-0.909-0.091c-0.294,0-0.486,0.024-0.596,0.044
			c-0.29,0.428-1.394,2.45-1.394,8.273c0,2.972,0.14,4.139,0.181,4.414C470.362,344.471,470.37,344.5,470.377,344.53z"/>
		<path fill="none" d="M527.459,336.591c0,6.053-0.045,8.014-0.066,8.614c-0.066,0.407-0.133,0.725-0.199,0.969
			c-1.104,0.629-2.051,1.48-2.813,2.464c-0.127-0.155-0.252-0.311-0.385-0.459c-0.133-0.185-0.696-1.014-1.777-3.182
			c-0.021-0.037-0.043-0.082-0.066-0.126c-1.064-2.057-1.242-3.026-1.265-3.204c-0.015-0.104-0.03-0.208-0.052-0.318
			c-0.992-5.676-2.331-10.708-3.943-15.17c0.568,1.213,1.391,2.309,2.426,3.204c2.124,1.828,4.936,2.634,7.711,2.22
			c0.134-0.022,0.267-0.044,0.393-0.06C527.444,332.839,527.459,334.49,527.459,336.591z"/>
		<path fill="none" d="M627.507,363.971c0.022,0.57,0.074,2.561,0.074,9.258v6.031h-2.989c-1.732,0-3.353,0.459-4.751,1.258
			c-0.6-0.333-1.222-0.614-1.858-0.822v-8.376c0-4.019-1.109-9.68-5.949-15.207c1.251-1.747,2.168-3.323,2.746-4.329
			c1.168-1.939,2.346-4.055,3.507-6.305c1.088-2.109,2.22-4.314,3.39-6.624c1.206-2.36,1.347-5.046,0.532-7.452
			c0.903,0.237,1.836,0.341,2.775,0.296c0.917-0.037,1.79-0.03,2.435,0.007c0.089,1.28,0.163,3.152,0.163,5.838
			c0,5.55-0.111,7.415-0.155,7.955c-0.067,0.326-0.207,0.88-0.408,1.006c-2.781,1.843-4.41,4.995-4.306,8.333
			c0.104,3.204,1.798,6.142,4.499,7.836C627.292,362.884,627.418,363.291,627.507,363.971z"/>
		<path fill="none" d="M527.459,373.036c0,2.857-0.045,4.877-0.097,6.29c-0.362-0.007-0.755-0.022-1.153-0.052
			c-2.657-0.163-5.262,0.77-7.201,2.59c-0.215,0.2-0.414,0.414-0.614,0.636c1.614-4.884,2.923-10.286,3.937-16.258
			c1.021-2.753,1.754-4.492,2.243-5.558c0.658,0.785,1.442,1.48,2.346,2.035c0.06,0.111,0.192,0.407,0.311,0.94
			C527.289,364.126,527.459,366.14,527.459,373.036z"/>
		<path fill="#B97C2B" d="M432.231,177.925c-0.348-0.576-1.246-1.918-2.038-1.918h-7.827v15.587h7.075
			c0.812,0,1.784-0.206,2.842-1.733c1.062-1.532,1.6-3.602,1.6-6.151C433.882,181.657,433.342,179.765,432.231,177.925z"/>
		<path fill="#B97C2B" d="M432.337,149.492c1.04-1.769,1.545-3.739,1.545-6.023c0-2.007-0.569-3.713-1.741-5.217
			c-0.959-1.231-1.869-1.856-2.701-1.856h-7.075v14.864h7.827C430.495,151.259,431.296,151.259,432.337,149.492z"/>
		<path fill="#B97C2B" d="M521.396,176.368v15.406h9.205c2.09,0,3.439-5.012,3.439-12.768v-1.628c0-0.377-0.007-0.798-0.021-1.268
			c-0.396,0.166-0.83,0.257-1.286,0.257H521.396z"/>
		<path fill="#B97C2B" d="M530.262,137.183c-2.457-1.438-3.488-1.511-3.671-1.511h-5.194v15.949h11.337
			c0.103,0,0.204,0.004,0.305,0.014v-10.792C533.038,140.364,533.038,138.912,530.262,137.183z"/>
		<path fill="#B97C2B" d="M641.5,103.846h-74.777c-2.071,0-3.98,0.667-5.549,1.776c-1.569-1.11-3.486-1.776-5.558-1.776h-76.775
			c-5.313,0-9.62,4.314-9.62,9.62v6.719c-1.006-1.924-1.99-3.574-2.96-4.965c-0.052-0.081-0.111-0.147-0.163-0.222
			c-5.402-7.297-12.736-11.152-21.208-11.152H378.97c-5.313,0-9.62,4.314-9.62,9.62v16.221c0,5.313,4.307,9.62,9.62,9.62h4.055
			c-0.015,0.259-0.029,0.555-0.051,0.873c-0.097,1.598-0.141,2.849-0.141,3.818c0,6.305-0.2,8.221-0.259,8.636
			c-0.067,0.377-0.133,0.681-0.192,0.91c-2.361,1.576-3.944,4.137-4.24,7.038c-0.348,3.389,1.125,6.697,3.84,8.702
			c0.133,0.304,0.385,1.021,0.57,2.383c0.067,0.473,0.282,2.53,0.282,9.161c0,0.215,0.007,0.422,0.022,0.629l0.104,1.598v3.115
			c0,0.244,0,0.474-0.007,0.688h-3.981c-5.313,0-9.62,4.307-9.62,9.62v16.221c0,5.313,4.307,9.62,9.62,9.62h69.035
			c4.721,0,9.428-1.946,14.4-5.942c0.06-0.052,0.119-0.096,0.178-0.148c2.634-2.228,4.854-4.625,6.638-7.164v3.634
			c0,5.313,4.307,9.62,9.62,9.62h76.405c5.313,0,9.62-4.307,9.62-9.62v-38.739c0-5.313-4.308-9.62-9.62-9.62h-12.979v-2.131h13.35
			c1.835,0,3.552-0.525,5.009-1.421c1.658,1.361,3.782,2.183,6.098,2.183h11.02c0.007,0.133,0.021,0.259,0.045,0.392
			c0.324,2.545,1.656,4.854,3.699,6.409c0.422,0.325,0.666,0.621,0.799,1.31c0.045,0.54,0.163,2.642,0.163,9.746v6.024
			c-0.54,0.007-1.155,0.007-1.865,0.007c-5.313,0-9.62,4.307-9.62,9.62v16.221c0,5.313,4.307,9.62,9.62,9.62h47.064
			c5.313,0,9.62-4.307,9.62-9.62V196.48c0-2.871-1.28-5.595-3.493-7.415c-2.183-1.806-5.039-2.553-7.813-2.057
			c-0.03-1.414-0.053-3.404-0.053-6.179c0-6.46,0.045-8.436,0.066-9.028c0.082-0.577,0.17-1.021,0.26-1.347
			c2.257-1.31,3.922-3.508,4.535-6.12c0.119-0.518,0.2-1.036,0.23-1.554h10.5c5.313,0,9.62-4.307,9.62-9.62v-39.694
			C651.12,108.161,646.813,103.846,641.5,103.846z M470.701,187.622c-0.77,0.585-1.199,1.295-1.384,2.294
			c-0.007,0.052-0.015,0.104-0.03,0.148c-1.139,4.951-2.064,8.207-2.812,9.968c-0.022,0.052-0.052,0.104-0.074,0.155
			c-1.635,3.33-4.262,6.446-7.807,9.28c-0.022,0.015-0.045,0.029-0.06,0.044c-3.811,2.894-7.215,4.299-10.419,4.299H378.8
			c-1.843,0-3.33-1.495-3.33-3.33v-15.377c0-1.835,1.487-3.33,3.33-3.33h9.391c0.266-0.444,0.939-2.005,0.939-6.438v-3.138
			l-0.118-1.694c-0.007-0.074-0.007-0.155-0.007-0.229c0-5.928-0.185-8.414-0.34-9.458c-0.437-3.078-1.399-5.083-2.841-5.979
			c-1.088-0.666-1.688-1.895-1.569-3.16c0.126-1.266,0.962-2.346,2.153-2.79c1.384-0.518,2.02-3.049,2.272-4.507
			c0.141-0.91,0.326-3.248,0.326-9.013c0-0.814,0.044-1.887,0.133-3.286c0.074-1.266,0.118-2.235,0.118-2.864
			c0-4.092-1.132-4.092-1.562-4.092H378.8c-1.843,0-3.33-1.487-3.33-3.33v-15.37c0-1.842,1.487-3.33,3.33-3.33h66.186
			c6.482,0,11.914,2.738,16.154,8.148c0.022,0.022,0.044,0.052,0.059,0.074c2.886,3.907,6.105,10.678,9.85,20.712
			c0.473,1.288,0.118,2.731-0.896,3.641c-0.214,0.274-1.08,1.547-3.293,6.586c-2.183,5.469-3.952,8.628-5.735,10.234
			c-0.777,0.726-1.694,1.362-2.745,1.895c1.643,1.169,3.175,2.635,4.603,4.374c2.257,2.746,5.099,7.563,8.673,14.733
			C472.374,184.921,471.966,186.653,470.701,187.622z M467.859,165.03c-0.2-0.259-0.407-0.518-0.607-0.762
			c1.754-2.405,3.426-5.832,5.306-10.812c1.45-3.493,2.197-4.965,2.493-5.498c2.065-2.42,2.813-5.735,1.947-8.835
			c0.732,0.148,1.48,0.214,2.242,0.177c0.918-0.037,1.791-0.029,2.435,0.008c0.082,1.28,0.156,3.152,0.156,5.838
			c0,5.55-0.111,7.415-0.156,7.948c-0.066,0.326-0.207,0.88-0.399,1.014c-2.782,1.843-4.418,4.995-4.307,8.333
			c0.104,3.204,1.791,6.142,4.499,7.836c0.074,0.208,0.2,0.614,0.296,1.295c0.022,0.57,0.066,2.561,0.066,9.257v6.031h-2.99
			c-0.274,0-0.54,0.015-0.807,0.037c0.2-1.731-0.067-3.537-0.851-5.202C473.38,173.614,470.412,168.308,467.859,165.03z
			 M555.801,156.831h-19.433c-0.104,0-0.206,0-0.304-0.007v13.823c0.37-0.141,0.77-0.215,1.185-0.215h18.175
			c1.842,0,3.33,1.488,3.33,3.33v36.719c0,1.835-1.488,3.33-3.33,3.33h-76.716c-1.842,0-3.33-1.495-3.33-3.33v-15.377
			c0-1.835,1.488-3.33,3.33-3.33h8.488c0.215-0.393,0.622-1.414,0.844-3.7v-7.799c0-7.333-0.067-8.932-0.089-9.272
			c-0.007-0.022-0.007-0.044-0.015-0.066c-0.533-4.1-2.42-5.121-3.042-5.461c-1.043-0.563-1.709-1.635-1.747-2.819
			c-0.037-1.191,0.563-2.301,1.569-2.93c1.688-1.059,2.679-2.627,3.108-4.929c0.081-0.659,0.214-2.604,0.214-8.347
			c0-7.444-0.607-9.294-0.733-9.598c-0.022-0.03-0.044-0.066-0.059-0.104c-0.163-0.273-1.265-1.65-6.918-1.65
			c-0.481,0-0.977,0.007-1.495,0.03c-0.91,0.044-1.784-0.296-2.435-0.925c-0.659-0.628-1.021-1.495-1.021-2.405v-15.37
			c0-1.842,1.488-3.33,3.33-3.33h77.093c0.467,0,0.91,0.097,1.311,0.267c1.184,0.51,2.02,1.687,2.02,3.063V153.5
			c0,1.191-0.622,2.22-1.555,2.812C557.059,156.638,556.452,156.831,555.801,156.831z M644.992,154.048
			c0,1.835-1.486,3.33-3.33,3.33h-18.929c-0.599,0-1.161-0.163-1.649-0.437c0.525,0.703,1.043,1.362,1.531,1.954
			c0.525,0.644,0.858,0.97,1.043,1.132c0.934,0.807,1.348,2.057,1.074,3.256c-0.274,1.206-1.191,2.153-2.376,2.479
			c-1.649,0.443-2.331,3.566-2.591,5.394c0,0.008-0.006,0.022-0.006,0.037c-0.03,0.385-0.082,2.042-0.082,9.08
			c0,7.644,0.185,9.413,0.26,9.797c0.199,0.673,0.68,1.887,4.18,1.887h1.754c0.385,0,0.822-0.044,1.281-0.133
			c0.977-0.177,1.975,0.089,2.73,0.725c0.762,0.629,1.198,1.569,1.198,2.553v15.377c0,1.835-1.487,3.33-3.33,3.33h-47.257
			c-1.842,0-3.33-1.495-3.33-3.33v-15.377c0-1.835,1.488-3.33,3.33-3.33c4.256,0,5.528-0.067,5.891-0.097
			c0.074-0.014,0.148-0.029,0.229-0.044c1.725-0.274,1.983-0.873,2.079-1.754v-9.605c0-7.178-0.133-9.346-0.215-9.998
			c-0.361-2.109-1.398-3.752-3.166-5.032c-0.748-0.533-1.236-1.354-1.354-2.272c-0.118-0.91,0.147-1.828,0.733-2.538
			c1.094-1.332,1.887-2.398,2.471-3.249c-0.459,0.237-0.977,0.37-1.531,0.37h-19.056c-1.835,0-3.33-1.487-3.33-3.33v-37.799
			c0-1.842,1.495-3.33,3.33-3.33h75.087c1.844,0,3.33,1.488,3.33,3.33V154.048z"/>
		<path fill="#B97C2B" d="M342.64,382.621c0,1.067,0,1.603,2.264,1.603c0.256,0,0.523-0.01,0.802-0.031l-3.066-14.813V382.621z"/>
		<path fill="#B97C2B" d="M379.854,382.982v-13.985l-3.437,15.177c0.088,0,0.176,0.003,0.264,0.011
			c0.347,0.028,0.677,0.042,0.982,0.042C379.854,384.227,379.854,383.785,379.854,382.982z"/>
		<path fill="#B97C2B" d="M477.621,357.804c-0.874-0.523-1.46-1.418-1.591-2.428c-0.131-1.01,0.207-2.024,0.918-2.754
			c2.533-2.597,3.818-6.622,3.818-11.963c0-13.129-6.012-13.129-8.579-13.129c-2.492,0-8.328,0-8.328,13.672
			c0,4.069,0.271,5.261,0.353,5.53c0.012,0.039,0.023,0.077,0.034,0.116c0.441,1.639,1.709,3.678,3.668,5.896
			c0.661,0.749,0.951,1.755,0.791,2.741c-0.161,0.985-0.756,1.847-1.621,2.347c-0.509,0.294-1.493,1.222-2.362,4.129
			c-0.822,2.748-1.239,5.438-1.239,8c0,4.86,0.955,8.779,2.838,11.646c1.636,2.493,3.66,3.653,6.368,3.653
			c2.312,0,8.453,0,8.453-14.757C481.142,363.674,479.892,359.164,477.621,357.804z M471.567,331.754
			c0.11-0.021,0.302-0.044,0.596-0.044c0.514,0,0.794,0.059,0.909,0.091c0.224,0.304,1.331,2.091,1.331,7.653
			c0,2.727-0.358,6.349-2.035,8.37c-1.612-2.038-1.939-3.091-1.991-3.294c-0.007-0.029-0.015-0.059-0.022-0.088
			c-0.041-0.275-0.181-1.442-0.181-4.414C470.174,334.204,471.278,332.183,471.567,331.754z M473.162,380.37
			c-0.096,0.016-0.257,0.034-0.499,0.034c-0.126,0-0.203-0.009-0.226-0.009c-0.002,0-0.005,0-0.006,0
			c-0.059-0.044-0.322-0.26-0.705-0.878c-1.261-2.034-1.927-5.198-1.927-9.148c0-2.159,0.34-4.457,1.012-6.834
			c0.194-0.689,0.369-1.13,0.485-1.385c0.376-0.29,0.729-0.606,1.055-0.945c0.39,0.404,0.816,0.776,1.276,1.11
			c0.295,0.616,1.151,2.894,1.151,8.627C474.778,377.709,473.475,379.934,473.162,380.37z"/>
		<path fill="#B97C2B" d="M577.154,342.034c0.014-0.027,0.028-0.054,0.043-0.081c0.99-1.809,1.471-3.771,1.471-5.998
			c0-2.176-0.52-4.1-1.592-5.88c-0.729-1.209-1.435-1.823-2.098-1.823h-7.952v16.13h8.327
			C575.351,344.383,576.084,344.123,577.154,342.034z"/>
		<path fill="#B97C2B" d="M678.521,368.768h-11.336v15.406h9.205c2.09,0,3.439-5.012,3.439-12.768v-1.628
			c0-0.373-0.008-0.796-0.022-1.268C679.412,368.676,678.977,368.768,678.521,368.768z"/>
		<path fill="#B97C2B" d="M678.826,344.035v-10.792c0-0.479,0-1.931-2.777-3.66c-2.456-1.438-3.487-1.511-3.67-1.511h-5.193v15.949
			h11.336C678.625,344.021,678.727,344.025,678.826,344.035z"/>
		<path fill="#B97C2B" d="M701.367,354.61c5.313,0,9.619-4.307,9.619-9.62v-39.124c0-5.306-4.307-9.62-9.619-9.62h-76.775
			c-5.314,0-9.62,4.314-9.62,9.62v8.54c-2.45-4.255-5.661-7.948-9.636-11.026c-6.186-4.729-12.854-7.134-19.816-7.134h-59.926
			c-5.313,0-9.619,4.314-9.619,9.62v16.221c0,0.932,0.147,1.843,0.398,2.716c-9.841-25.515-29.118-31.413-44.836-31.413
			c-21.164,0-36.43,9.983-44.178,28.882c-0.695,1.598-1.583,4.469-3.959,16.976c-1.184,6.023-2.805,7.933-3.278,8.377
			c-0.103,0.096-0.192,0.207-0.296,0.311c-0.407-0.481-0.866-0.932-1.369-1.332c-0.222-0.178-0.673-0.533-0.932-1.857
			c-0.044-0.525-0.155-2.397-0.155-8.155c0-2.05,0.015-3.648,0.044-4.884c2.257-0.074,4.433-0.94,6.135-2.472
			c2.027-1.82,3.182-4.418,3.182-7.148v-15.836c0-5.313-4.307-9.62-9.62-9.62h-41.817c-3.219,0-6.112,1.591-7.866,4.078
			c-1.717-2.701-4.736-4.462-8.118-4.462h-42.32c-5.313,0-9.62,4.314-9.62,9.62v16.221c0,2.908,1.347,5.653,3.611,7.481
			c1.569,1.272,3.5,1.998,5.483,2.116c0.015,1.221,0.022,2.768,0.022,4.714c0,5.202-0.037,7.171-0.059,7.889
			c-0.4,1.776-1.043,2.316-1.266,2.501c-2.146,1.813-3.396,4.47-3.419,7.274c-0.029,2.805,1.177,5.483,3.286,7.326
			c0.548,0.481,1.014,1.598,1.295,3.078c0.022,0.267,0.067,0.925,0.104,2.324c0.037,1.591,0.059,3.759,0.059,6.438
			c0,2.686-0.015,4.64-0.037,6.045c-1.983,0.111-3.9,0.836-5.484,2.102c-2.272,1.828-3.596,4.588-3.596,7.504v16.221
			c0,5.313,4.307,9.62,9.62,9.62h29.215c1.206,0,2.368-0.229,3.433-0.637c1.073,0.415,2.228,0.637,3.434,0.637h15.725
			c1.347,0,2.634-0.281,3.811-0.785c1.169,0.503,2.457,0.785,3.804,0.785h40.7c5.313,0,9.62-4.307,9.62-9.62V388.88
			c0-2.975-1.376-5.78-3.722-7.6c-1.628-1.265-3.589-1.954-5.602-2.02c-0.022-1.406-0.037-3.345-0.037-6.031v-1.333
			c0-0.806-0.044-1.627-0.126-2.449v-2.517c0-4.114,1.273-5.261,1.695-5.638c0.155-0.148,0.303-0.304,0.451-0.459
			c0.311,0.362,0.636,0.717,1.006,1.036c1.095,0.962,1.621,1.51,1.82,1.747c0.718,1.805,1.147,3.537,1.288,5.158
			c0.969,11.44,4.691,21.867,11.063,30.977c0.022,0.044,0.052,0.074,0.074,0.111c7.237,10.049,15.599,15.547,24.864,16.339
			c4.772,0.533,7.888,0.866,9.79,1.051c0.214,0.022,0.407,0.037,0.577,0.052c0.732,0.185,1.502,0.281,2.294,0.281
			c13.809,0,24.99-4.144,33.233-12.314l0.148-0.147c4.174-4.322,7.636-9.687,10.427-16.162v16.14c0,5.313,4.307,9.62,9.619,9.62
			h45.939c3.5,0,6.564-1.872,8.251-4.669c3.456,3.101,7.134,4.669,10.974,4.669h24.347c1.724,0,3.337-0.466,4.743-1.258
			c1.398,0.792,3.012,1.258,4.744,1.258h76.396c5.314,0,9.62-4.307,9.62-9.62v-38.739c0-5.313-4.306-9.62-9.62-9.62h-12.971v-2.131
			H701.367z M419.337,384.884c0.807,0.636,1.273,1.598,1.273,2.62v15.377c0,1.835-1.487,3.33-3.33,3.33h-40.863
			c-1.843,0-3.33-1.495-3.33-3.33v-3.989l-1.073,4.722c-0.34,1.517-1.688,2.597-3.249,2.597h-15.792
			c-1.576,0-2.938-1.11-3.263-2.656l-0.304-1.465v0.792c0,1.835-1.487,3.33-3.33,3.33h-29.333c-1.835,0-3.33-1.495-3.33-3.33
			v-15.377c0-0.999,0.451-1.954,1.228-2.583c0.785-0.637,1.806-0.881,2.783-0.673c0.481,0.096,0.74,0.111,0.829,0.111h1.376
			c1.665,0,2.354-0.496,2.745-2.028c0.06-0.459,0.192-2.331,0.192-9.657c0-2.583-0.022-4.684-0.059-6.246
			c-0.052-1.754-0.119-2.516-0.156-2.827c-0.533-2.922-1.628-5.032-3.337-6.445c-0.777-0.644-1.221-1.598-1.214-2.597
			c0.008-1.007,0.474-1.954,1.258-2.583c1.776-1.406,2.894-3.39,3.419-6.061c0.03-0.363,0.088-1.887,0.088-8.147
			c0-6.838-0.125-8.747-0.185-9.265c-0.163-0.511-0.547-1.155-2.752-1.155h-1.376c-0.089,0-0.34,0.015-0.844,0.111
			c-0.977,0.2-1.998-0.052-2.768-0.681c-0.777-0.636-1.228-1.583-1.228-2.583v-15.37c0-1.843,1.495-3.33,3.33-3.33h42.498
			c1.658,0,3.064,1.221,3.293,2.856c1.621,11.33,3.056,21.623,4.307,30.792l0.089-0.511c1.458-8.295,3.16-18.389,5.069-29.985
			c0.267-1.613,1.658-2.79,3.286-2.79h41.995c1.843,0,3.33,1.487,3.33,3.33v15.007c0,0.94-0.4,1.843-1.095,2.472
			c-0.696,0.629-1.628,0.94-2.561,0.843c-0.636-0.059-1.229-0.096-1.769-0.096c-2.02,0-3.249,0.399-3.663,1.184
			c-0.089,0.466-0.311,2.382-0.311,9.346c0,5.92,0.126,7.874,0.208,8.525c0.444,2.383,1.495,4.159,3.211,5.446
			c0.814,0.607,1.31,1.547,1.339,2.561c0.037,1.014-0.399,1.983-1.169,2.642c-2.501,2.131-3.715,5.269-3.715,9.583v2.679
			c0.082,0.681,0.125,1.362,0.125,2.028v1.265c0,7.341,0.133,9.206,0.185,9.657c0.348,1.347,0.94,2.028,3.004,2.028h1.377
			c0.244,0,0.473-0.03,0.717-0.089C417.487,384.025,418.539,384.255,419.337,384.884z M519.318,329.384
			c2.124,1.828,4.936,2.634,7.711,2.22c0.134-0.022,0.267-0.044,0.393-0.06c0.022,1.295,0.037,2.945,0.037,5.047
			c0,6.053-0.045,8.014-0.066,8.614c-0.066,0.407-0.133,0.725-0.199,0.969c-1.104,0.629-2.051,1.48-2.813,2.464
			c-0.127-0.155-0.252-0.311-0.385-0.459c-0.133-0.185-0.696-1.014-1.777-3.182c-0.021-0.037-0.043-0.082-0.066-0.126
			c-1.064-2.057-1.242-3.026-1.265-3.204c-0.015-0.104-0.03-0.208-0.052-0.318c-0.992-5.676-2.331-10.708-3.943-15.17
			C517.461,327.393,518.283,328.488,519.318,329.384z M501.092,398.944c-7.096,6.638-16.805,9.975-28.904,9.975
			c-0.37,0-0.725-0.059-1.051-0.17c-0.273-0.022-0.658-0.06-1.198-0.111c-1.865-0.17-4.995-0.488-9.835-0.999
			c-7.378-0.57-14.245-4.95-20.402-13.031c-5.802-7.844-9.183-16.791-10.071-26.633c-0.207-2.338-0.896-4.795-2.042-7.296
			c-0.059-0.089-0.251-0.341-0.718-0.851c-0.562-0.607-1.384-1.354-2.435-2.22c-0.747-0.622-1.191-1.532-1.206-2.509
			c-0.022-0.969,0.385-1.902,1.117-2.545c2.279-2.035,3.996-5.735,5.091-11.011c2.22-11.041,3.086-13.823,3.611-14.956
			c6.822-15.799,19.78-23.806,38.509-23.806c23.717,0,38.273,13.675,43.26,40.641c0.008,0.037,0.015,0.074,0.022,0.119
			c0.192,1.288,0.828,2.916,1.879,4.847c1.629,3.071,2.436,4.033,2.709,4.307c1.066,1.081,1.273,2.746,0.496,4.047
			c-0.607,1.029-1.709,3.219-3.522,7.859C513.688,380.118,508.537,391.669,501.092,398.944z M518.394,382.501
			c1.614-4.884,2.923-10.286,3.937-16.258c1.021-2.753,1.754-4.492,2.243-5.558c0.658,0.785,1.442,1.48,2.346,2.035
			c0.06,0.111,0.192,0.407,0.311,0.94c0.06,0.466,0.229,2.479,0.229,9.375c0,2.857-0.045,4.877-0.097,6.29
			c-0.362-0.007-0.755-0.022-1.153-0.052c-2.657-0.163-5.262,0.77-7.201,2.59C518.793,382.064,518.594,382.279,518.394,382.501z
			 M618.672,402.88c0,1.835-1.488,3.33-3.33,3.33h-24.443c-3.049,0-6.037-1.739-9.153-5.298c-2.871-3.256-4.329-6.793-4.329-10.516
			v-15.37c0-1.073-0.533-2.168-1.627-3.352c-1.406-1.524-2.088-1.643-2.095-1.643h-7.171v10.234c0,2.102,0.289,3.115,0.474,3.56
			c0.74,0.066,2.146,0.185,4.81,0.355c1.754,0.111,3.116,1.569,3.116,3.323v15.377c0,1.835-1.488,3.33-3.33,3.33h-46.132
			c-1.836,0-3.33-1.495-3.33-3.33v-15.377c0-0.917,0.377-1.791,1.051-2.42c0.666-0.637,1.555-0.955,2.479-0.903
			c4.137,0.244,7.001-0.377,7.52-1.591c0.014-0.037,0.029-0.082,0.051-0.119c0.104-0.451,0.438-2.435,0.438-9.982
			c0-7.385-0.223-9.361-0.318-9.872c-0.475-2.279-1.48-3.818-3.16-4.788c-1.14-0.659-1.791-1.932-1.643-3.249
			c0.141-1.31,1.051-2.412,2.309-2.812c1.347-0.422,2.264-2.139,2.723-5.099c0.023-0.333,0.09-1.865,0.09-8.725
			c0-7.903-0.215-9.553-0.281-9.879c-0.171-0.673-2.51-1.058-5.328-0.821c-0.63,0.059-1.354,0.141-2.124,0.251
			c-0.962,0.133-1.924-0.148-2.657-0.784c-0.725-0.629-1.146-1.547-1.146-2.516v-15.37c0-1.843,1.494-3.33,3.33-3.33h60.17
			c5.542,0,10.922,1.857,15.991,5.513c6.638,4.854,10.789,11.707,12.357,20.372c0.008,0.044,0.015,0.089,0.022,0.141
			c0.082,0.17,0.436,0.814,1.701,2.087c1.029,1.043,1.259,2.634,0.563,3.929c-1.169,2.176-2.302,4.255-3.39,6.253
			c-1.117,2.042-2.25,3.952-3.359,5.683c-1.924,3.167-3.871,5.609-5.869,7.356c0.578,0.429,1.148,0.888,1.711,1.384
			c4.344,3.655,6.541,7.911,6.541,12.646v12.306c0,0.044,0.148,0.281,0.821,0.584c0.933,0.452,1.398,0.563,1.562,0.592
			c0.606-0.2,1.243-0.2,1.85-0.052c0.34,0.082,0.674,0.2,0.977,0.393c0.97,0.606,1.563,1.672,1.563,2.819V402.88z M619.841,380.518
			c-0.6-0.333-1.222-0.614-1.858-0.822v-8.376c0-4.019-1.109-9.68-5.949-15.207c1.251-1.747,2.168-3.323,2.746-4.329
			c1.168-1.939,2.346-4.055,3.507-6.305c1.088-2.109,2.22-4.314,3.39-6.624c1.206-2.36,1.347-5.046,0.532-7.452
			c0.903,0.237,1.836,0.341,2.775,0.296c0.917-0.037,1.79-0.03,2.435,0.007c0.089,1.28,0.163,3.152,0.163,5.838
			c0,5.55-0.111,7.415-0.155,7.955c-0.067,0.326-0.207,0.88-0.408,1.006c-2.781,1.843-4.41,4.995-4.306,8.333
			c0.104,3.204,1.798,6.142,4.499,7.836c0.081,0.208,0.207,0.614,0.296,1.295c0.022,0.57,0.074,2.561,0.074,9.258v6.031h-2.989
			C622.859,379.26,621.239,379.719,619.841,380.518z M683.036,362.832h18.175c1.835,0,3.33,1.488,3.33,3.33v36.719
			c0,1.835-1.495,3.33-3.33,3.33h-76.717c-1.842,0-3.33-1.495-3.33-3.33v-15.377c0-1.835,1.488-3.33,3.33-3.33h8.488
			c0.215-0.392,0.622-1.406,0.844-3.7v-7.8c0-7.326-0.066-8.932-0.089-9.272c-0.007-0.022-0.007-0.044-0.015-0.066
			c-0.533-4.1-2.42-5.121-3.041-5.461c-1.044-0.563-1.709-1.636-1.747-2.82c-0.036-1.191,0.563-2.301,1.569-2.93
			c1.688-1.058,2.679-2.627,3.107-4.929c0.082-0.659,0.215-2.604,0.215-8.347c0-7.445-0.607-9.294-0.725-9.598
			c-0.022-0.03-0.045-0.066-0.067-0.104c-0.163-0.274-1.265-1.65-6.919-1.65c-0.48,0-0.977,0.008-1.494,0.03
			c-0.91,0.044-1.783-0.296-2.435-0.925c-0.651-0.628-1.022-1.495-1.022-2.405v-15.37c0-1.843,1.488-3.33,3.33-3.33h77.094
			c1.836,0,3.33,1.487,3.33,3.33V345.9c0,1.843-1.494,3.33-3.33,3.33h-19.432c-0.104,0-0.207,0-0.304-0.007v13.823
			C682.223,362.906,682.629,362.832,683.036,362.832z"/>
		<path fill="#FFF6CC" d="M454.471,204.233c2.726-2.179,4.713-4.499,5.911-6.897c0.41-0.988,1.152-3.3,2.403-8.703
			c0.309-1.616,0.928-3.046,1.849-4.276c-2.809-5.48-5.092-9.301-6.799-11.371c-3.186-3.896-6.889-5.675-11.326-5.484
			c-1.472,0.06-2.813-0.848-3.293-2.243c-0.48-1.394,0.014-2.938,1.214-3.795c0.676-0.482,1.439-0.722,3.268-1.026
			c0.998-0.167,2.428-0.482,4.248-0.939c0.073-0.019,0.147-0.035,0.222-0.048c2.019-0.363,3.519-0.992,4.459-1.869
			c0.378-0.342,1.657-1.795,4.068-7.843c0.014-0.034,0.028-0.068,0.043-0.103c1.577-3.601,2.642-5.696,3.426-6.979
			c-3.188-8.361-5.974-14.19-8.29-17.341c-2.95-3.742-6.512-5.561-10.889-5.561h-62.858v8.714h5.57
			c2.471,0,8.219,1.047,8.219,10.746c0,0.781-0.043,1.854-0.132,3.281c-0.079,1.247-0.119,2.21-0.119,2.868
			c0,5.12-0.133,8.333-0.418,10.113c-0.497,2.861-1.396,5.131-2.688,6.802c1.353,1.958,2.256,4.491,2.696,7.574
			c0.272,1.836,0.407,5.213,0.41,10.303l0.117,1.694c0.005,0.077,0.008,0.153,0.008,0.23v3.255c0,8.691-2.47,13.097-7.341,13.097
			h-6.323v8.714h65.992C449.263,207.148,451.292,206.642,454.471,204.233z M415.706,133.065c0-1.839,1.491-3.33,3.33-3.33h10.404
			c2.991,0,5.667,1.489,7.955,4.423c2.088,2.681,3.147,5.813,3.147,9.31c0,3.455-0.829,6.618-2.465,9.4
			c-2.458,4.175-5.645,5.051-7.885,5.051h-11.157c-1.839,0-3.33-1.491-3.33-3.33V133.065z M429.44,198.253h-10.404
			c-1.839,0-3.33-1.491-3.33-3.33v-22.247c0-1.839,1.491-3.33,3.33-3.33h11.157c2.114,0,5.172,0.891,7.738,5.134
			c1.733,2.87,2.612,5.975,2.612,9.229c0,3.931-0.938,7.277-2.787,9.945C435.121,197.456,431.78,198.253,429.44,198.253z"/>
		<path fill="#FFF6CC" d="M482.035,128.476c5.517,0.261,9.09,1.836,10.889,4.792c0.93,1.413,1.772,4.083,1.772,13.181
			c0,6.525-0.161,8.444-0.282,9.32c-0.006,0.044-0.013,0.089-0.021,0.133c-0.464,2.579-1.422,4.775-2.86,6.566
			c1.576,1.927,2.579,4.429,2.994,7.485c0.094,0.533,0.169,1.865,0.169,10.319v7.958c0,0.101-0.004,0.202-0.014,0.303
			c-0.749,8.182-4.262,9.899-7.077,9.899h-5.57v8.714h70.059v-30.057h-11.395c0.002,0.098,0.002,0.193,0.002,0.287v1.628
			c0,12.891-3.398,19.427-10.1,19.427h-12.535c-1.84,0-3.33-1.491-3.33-3.33v-22.066c0-1.839,1.49-3.33,3.33-3.33h11.337v-11.427
			h-11.337c-1.84,0-3.33-1.491-3.33-3.33v-22.608c0-1.839,1.49-3.33,3.33-3.33h8.524c1.984,0,4.233,0.778,7.077,2.448
			c0.021,0.013,0.044,0.026,0.065,0.039c4.931,3.05,5.965,6.765,5.965,9.344v9.331h12.771v-30.419h-70.434V128.476z"/>
		<path fill="#FFF6CC" d="M582.302,136.683c0-4.731,3.054-7.671,7.968-7.671c0.968,0,3.234,0,4.482,1.781
			c0.393,0.56,0.604,1.228,0.604,1.911v21.705c0,2.018-1.09,4.419-3.57,7.768c1.723,1.973,2.82,4.335,3.273,7.059
			c0.006,0.031,0.01,0.062,0.015,0.093c0.12,0.878,0.282,2.969,0.282,10.945v9.767c0,0.1-0.005,0.2-0.014,0.299
			c-0.377,4.17-3.037,7-7.322,7.81c-0.545,0.153-1.493,0.237-4.197,0.269v8.73h40.599v-8.533h-0.305
			c-7.526,0-9.87-4.229-10.596-6.749c-0.251-0.846-0.506-2.463-0.506-11.593c0-8.476,0.072-9.646,0.175-10.178
			c0.529-3.607,1.631-6.351,3.291-8.209c-0.266-0.342-0.534-0.696-0.804-1.059c-0.683-0.913-1.28-1.85-1.773-2.778
			c-0.681-1.271-1.015-2.407-1.015-3.459v-22.247c0-1.839,1.491-3.33,3.33-3.33h3.008c2.887,0,4.514,2.715,5.05,3.607
			c1.075,1.798,1.656,3.457,1.78,5.074c0.007,0.085,0.011,0.171,0.011,0.256v12.767h12.269v-30.961h-68.428v31.142h12.394V136.683z"
			/>
		<path fill="#FFF6CC" d="M383.555,335.902c1.685,0.189,2.96,1.614,2.96,3.31v43.771c0,4.294-2.491,7.087-6.769,7.751v8.814h34.206
			v-8.541c-4.698-0.156-7.987-2.778-9.059-7.249c-0.017-0.067-0.03-0.135-0.042-0.203c-0.148-0.85-0.3-2.808-0.3-10.883v-1.266
			c0-0.439-0.032-0.896-0.095-1.359c-0.021-0.149-0.031-0.299-0.031-0.45v-2.894c0-4.825,1.197-8.848,3.563-12.004
			c-1.588-1.971-2.639-4.355-3.135-7.123c-0.007-0.042-0.015-0.084-0.02-0.126c-0.122-0.868-0.283-2.798-0.283-9.504
			c0-9.107,0.348-10.739,0.736-11.718c0.959-2.344,3.231-5.072,8.666-5.43v-8.281h-35.838c-1.727,10.458-3.28,19.622-4.624,27.271
			c-1.453,8.264-2.656,15.025-3.576,20.095c-0.24,1.321-1.25,2.37-2.562,2.658c-1.311,0.289-2.668-0.239-3.44-1.338
			c-0.29-0.413-0.514-0.796-0.684-1.172c-0.293-0.433-0.454-0.884-0.521-1.402c-1.584-12.333-3.721-27.956-6.355-46.472h-36.276
			v8.54c6.237,0.174,8.184,3.98,8.789,6.271c0.025,0.094,0.046,0.19,0.063,0.286c0.148,0.858,0.299,2.779,0.299,10.513
			c0,8.175-0.089,8.885-0.195,9.364c-0.569,2.931-1.674,5.447-3.296,7.519c1.566,2.132,2.634,4.759,3.188,7.852
			c0.008,0.046,0.016,0.092,0.022,0.138c0.101,0.74,0.169,1.888,0.217,3.614c0.042,1.621,0.064,3.78,0.064,6.422
			c0,8.058-0.151,10.02-0.299,10.877c-0.012,0.07-0.026,0.14-0.043,0.209c-1.071,4.466-4.27,7.088-8.809,7.249v8.541h22.673v-8.834
			c-4.28-0.71-6.769-3.624-6.769-8.094v-45.76c0-1.708,1.292-3.139,2.991-3.313c1.704-0.173,3.254,0.966,3.6,2.638l13.114,63.363
			h10.423l13.829-61.072C380.311,336.822,381.862,335.71,383.555,335.902z"/>
		<path fill="#FFF6CC" d="M510.861,351.541c-1.419-2.588-2.277-4.88-2.597-6.96c-4.394-23.646-16.4-35.138-36.704-35.138
			c-16.07,0-26.673,6.487-32.417,19.833c-0.02,0.047-0.042,0.094-0.064,0.14c-0.167,0.37-0.902,2.466-3.114,13.461
			c-1.048,5.034-2.603,8.958-4.722,11.893c0.183,0.183,0.354,0.361,0.516,0.536c0.95,1.029,1.495,1.767,1.825,2.47
			c1.5,3.246,2.4,6.47,2.684,9.601c0.775,8.609,3.723,16.425,8.762,23.235c4.938,6.478,10.205,9.987,15.624,10.395
			c0.033,0.002,0.065,0.005,0.097,0.009c4.841,0.506,7.955,0.821,9.8,0.991c0.767,0.07,1.342,0.128,1.726,0.173
			c0.183,0.021,0.356,0.048,0.521,0.081c10.07-0.105,18.038-2.837,23.692-8.125c6.422-6.279,10.951-16.723,13.408-30.992
			c0.038-0.218,0.097-0.433,0.177-0.639c1.156-2.979,2.159-5.334,3.036-7.12C512.431,354.377,511.692,353.111,510.861,351.541z
			 M472.688,391.919c-4.948,0-9.075-2.302-11.935-6.657c-2.608-3.972-3.931-9.121-3.931-15.302c0-3.209,0.511-6.542,1.519-9.908
			c0.661-2.214,1.507-4.007,2.556-5.406c-1.529-2.097-2.539-4.081-3.068-6.012c-0.298-0.991-0.63-2.753-0.63-7.432
			c0-17.691,9.39-20.332,14.988-20.332c5.691,0,15.239,2.571,15.239,19.789c0,5.626-1.193,10.29-3.552,13.915
			c2.638,3.285,3.928,8.544,3.928,15.929C487.802,388.204,479.583,391.919,472.688,391.919z"/>
		<path fill="#FFF6CC" d="M612.014,399.548v-8.917c-0.664-0.202-1.37-0.485-2.129-0.851c-4.031-1.845-4.642-4.939-4.642-6.617
			v-12.299c0-2.726-1.374-5.205-4.2-7.579c-0.023-0.019-0.047-0.039-0.068-0.059c-1.803-1.598-3.699-2.701-5.639-3.28
			c-1.542-0.46-2.534-1.958-2.357-3.557s1.472-2.844,3.078-2.956c2.204-0.155,4.971-2.8,7.789-7.448
			c0.016-0.025,0.03-0.05,0.047-0.075c1.035-1.61,2.092-3.397,3.139-5.313c0.734-1.347,1.49-2.737,2.266-4.169
			c-1.135-1.441-1.736-2.717-1.889-3.972c-1.291-6.975-4.465-12.229-9.701-16.061c-3.951-2.85-7.906-4.241-12.074-4.241h-56.84
			v8.374c0.36-0.014,0.713-0.021,1.057-0.021c7.374,0,9.428,3.722,9.996,5.94c0.248,0.96,0.48,3.023,0.48,11.498
			c0,8.276-0.082,9.337-0.182,9.834c-0.547,3.454-1.668,5.809-2.988,7.413c1.316,1.676,2.229,3.728,2.725,6.137
			c0.197,1.043,0.445,3.27,0.445,11.162c0,9.561-0.484,11.716-1.095,12.873c-1.528,3.397-5.036,5.245-10.438,5.501v8.682h39.471
			v-8.935c-3.181-0.241-3.531-0.369-3.953-0.522c-0.168-0.062-0.331-0.136-0.487-0.224c-3.958-2.217-3.958-7.772-3.958-9.598
			v-13.565c0-1.839,1.49-3.33,3.33-3.33h10.529c2.329,0,4.605,1.237,6.959,3.782c2.25,2.437,3.392,5.084,3.392,7.868v15.374
			c0,2.076,0.875,4.077,2.676,6.116c2.458,2.816,3.796,3.034,4.147,3.034H612.014z M560.366,324.923c0-1.839,1.491-3.33,3.33-3.33
			h11.282c2.173,0,5.291,0.876,7.804,5.049c1.689,2.808,2.546,5.941,2.546,9.314c0,3.311-0.764,6.391-2.268,9.155
			c-2.027,3.936-4.62,5.932-7.707,5.932h-11.657c-1.839,0-3.33-1.491-3.33-3.33V324.923z"/>
		<path fill="#FFF6CC" d="M686.49,369.779v1.628c0,12.891-3.398,19.427-10.1,19.427h-12.535c-1.84,0-3.33-1.491-3.33-3.33v-22.066
			c0-1.839,1.49-3.33,3.33-3.33h11.336v-11.428h-11.336c-1.84,0-3.33-1.491-3.33-3.33v-22.609c0-1.839,1.49-3.33,3.33-3.33h8.523
			c1.984,0,4.234,0.778,7.076,2.448c0.021,0.013,0.044,0.026,0.065,0.039c4.932,3.05,5.966,6.765,5.966,9.344v9.331h12.771v-30.419
			h-70.434v8.721c5.518,0.261,9.089,1.836,10.888,4.792c0.931,1.412,1.773,4.083,1.773,13.182c0,6.524-0.162,8.444-0.283,9.32
			c-0.006,0.044-0.014,0.088-0.021,0.132c-0.464,2.58-1.422,4.776-2.859,6.567c1.576,1.926,2.579,4.429,2.994,7.484
			c0.095,0.534,0.17,1.864,0.17,10.319v7.958c0,0.101-0.004,0.202-0.014,0.303c-0.748,8.182-4.262,9.899-7.077,9.899h-5.57v8.714
			h70.058v-30.057h-11.393C686.489,369.589,686.49,369.685,686.49,369.779z"/>
		<path d="M471.655,183.493c-3.574-7.171-6.416-11.988-8.673-14.733c-1.428-1.739-2.96-3.204-4.603-4.374
			c1.051-0.532,1.968-1.169,2.745-1.895c1.784-1.605,3.552-4.765,5.735-10.234c2.213-5.039,3.079-6.312,3.293-6.586
			c1.014-0.91,1.369-2.353,0.896-3.641c-3.745-10.034-6.963-16.805-9.85-20.712c-0.015-0.022-0.037-0.052-0.059-0.074
			c-4.24-5.41-9.672-8.148-16.154-8.148H378.8c-1.843,0-3.33,1.488-3.33,3.33v15.37c0,1.843,1.487,3.33,3.33,3.33h8.895
			c0.43,0,1.562,0,1.562,4.092c0,0.629-0.044,1.598-0.118,2.864c-0.089,1.398-0.133,2.472-0.133,3.286
			c0,5.765-0.185,8.103-0.326,9.013c-0.252,1.458-0.888,3.989-2.272,4.507c-1.191,0.444-2.027,1.524-2.153,2.79
			c-0.118,1.265,0.481,2.494,1.569,3.16c1.442,0.896,2.405,2.901,2.841,5.979c0.155,1.043,0.34,3.53,0.34,9.458
			c0,0.074,0,0.155,0.007,0.229l0.118,1.694v3.138c0,4.433-0.673,5.994-0.939,6.438H378.8c-1.843,0-3.33,1.495-3.33,3.33v15.377
			c0,1.835,1.487,3.33,3.33,3.33h69.316c3.204,0,6.608-1.406,10.419-4.299c0.015-0.015,0.037-0.03,0.06-0.044
			c3.544-2.834,6.171-5.95,7.807-9.28c0.022-0.052,0.052-0.104,0.074-0.155c0.748-1.761,1.672-5.017,2.812-9.968
			c0.015-0.044,0.022-0.096,0.03-0.148c0.185-0.999,0.614-1.709,1.384-2.294C471.966,186.653,472.374,184.921,471.655,183.493z
			 M462.783,188.636c-1.251,5.402-1.991,7.711-2.398,8.703c-1.199,2.397-3.189,4.713-5.913,6.896
			c-3.182,2.405-5.209,2.916-6.356,2.916H382.13v-8.717h6.319c4.87,0,7.341-4.403,7.341-13.098v-3.256c0-0.074,0-0.148-0.007-0.229
			l-0.118-1.695c0-5.091-0.141-8.465-0.407-10.301c-0.444-3.085-1.347-5.616-2.701-7.578c1.295-1.665,2.19-3.937,2.694-6.801
			c0.281-1.776,0.415-4.995,0.415-10.108c0-0.659,0.037-1.628,0.118-2.872c0.089-1.428,0.133-2.501,0.133-3.278
			c0-9.702-5.75-10.752-8.222-10.752h-5.564v-8.71h62.855c4.374,0,7.94,1.82,10.885,5.558c2.316,3.152,5.106,8.984,8.295,17.346
			c-0.784,1.28-1.85,3.375-3.426,6.978c-0.015,0.03-0.029,0.067-0.044,0.104c-2.412,6.046-3.692,7.497-4.07,7.844
			c-0.94,0.873-2.442,1.502-4.455,1.865c-0.082,0.015-0.156,0.03-0.229,0.052c-1.82,0.452-3.249,0.77-4.248,0.939
			c-1.828,0.304-2.59,0.541-3.264,1.021c-1.199,0.858-1.694,2.405-1.213,3.796c0.481,1.398,1.82,2.301,3.293,2.242
			c4.433-0.192,8.14,1.591,11.322,5.483c1.709,2.072,3.997,5.89,6.801,11.374C463.715,185.587,463.094,187.015,462.783,188.636z"/>
		<path d="M419.036,157.919h11.157c2.24,0,5.427-0.876,7.885-5.051c1.636-2.782,2.465-5.945,2.465-9.4
			c0-3.497-1.059-6.629-3.147-9.31c-2.287-2.935-4.963-4.423-7.955-4.423h-10.404c-1.839,0-3.33,1.491-3.33,3.33v21.524
			C415.706,156.428,417.197,157.919,419.036,157.919z M422.366,136.396h7.075c0.832,0,1.741,0.625,2.701,1.856
			c1.172,1.504,1.741,3.21,1.741,5.217c0,2.284-0.506,4.254-1.545,6.023c-1.041,1.768-1.842,1.768-2.144,1.768h-7.827V136.396z"/>
		<path d="M437.931,174.48c-2.565-4.244-5.624-5.134-7.738-5.134h-11.157c-1.839,0-3.33,1.491-3.33,3.33v22.247
			c0,1.839,1.491,3.33,3.33,3.33h10.404c2.339,0,5.681-0.798,8.315-4.599c1.849-2.668,2.787-6.015,2.787-9.945
			C440.542,180.455,439.664,177.35,437.931,174.48z M429.44,191.594h-7.075v-15.587h7.827c0.792,0,1.69,1.343,2.038,1.918
			c1.111,1.84,1.651,3.732,1.651,5.785c0,2.549-0.539,4.62-1.6,6.151C431.224,191.388,430.252,191.594,429.44,191.594z"/>
		<path d="M536.368,156.831h19.433c0.651,0,1.258-0.192,1.775-0.518c0.933-0.592,1.555-1.621,1.555-2.812v-37.074
			c0-1.376-0.836-2.553-2.02-3.063c-0.4-0.17-0.844-0.267-1.311-0.267h-77.093c-1.842,0-3.33,1.488-3.33,3.33v15.37
			c0,0.91,0.363,1.776,1.021,2.405c0.651,0.629,1.524,0.97,2.435,0.925c0.518-0.022,1.014-0.03,1.495-0.03
			c5.653,0,6.756,1.376,6.918,1.65c0.015,0.038,0.037,0.074,0.059,0.104c0.126,0.303,0.733,2.153,0.733,9.598
			c0,5.743-0.133,7.688-0.214,8.347c-0.43,2.301-1.421,3.87-3.108,4.929c-1.006,0.629-1.605,1.739-1.569,2.93
			c0.037,1.184,0.703,2.257,1.747,2.819c0.622,0.341,2.508,1.362,3.042,5.461c0.007,0.022,0.007,0.044,0.015,0.066
			c0.022,0.34,0.089,1.939,0.089,9.272v7.799c-0.222,2.287-0.629,3.308-0.844,3.7h-8.488c-1.842,0-3.33,1.495-3.33,3.33v15.377
			c0,1.835,1.488,3.33,3.33,3.33h76.716c1.842,0,3.33-1.495,3.33-3.33v-36.719c0-1.842-1.488-3.33-3.33-3.33h-18.175
			c-0.415,0-0.814,0.074-1.185,0.215v-13.823C536.162,156.831,536.265,156.831,536.368,156.831z M534.022,176.108
			c0.015,0.473,0.022,0.895,0.022,1.272v1.628c0,7.755-1.354,12.765-3.441,12.765h-9.205v-15.407h11.336
			C533.187,176.366,533.623,176.278,534.022,176.108z M521.398,151.621v-15.947h5.194c0.178,0,1.214,0.074,3.671,1.51
			c2.774,1.731,2.774,3.182,2.774,3.663v10.789c-0.103-0.007-0.199-0.015-0.304-0.015H521.398z M533.734,131.5
			c-0.022-0.015-0.045-0.03-0.066-0.037c-2.842-1.672-5.092-2.449-7.075-2.449h-8.524c-1.843,0-3.33,1.487-3.33,3.33v22.606
			c0,1.843,1.487,3.33,3.33,3.33h11.336v11.426h-11.336c-1.843,0-3.33,1.495-3.33,3.33v22.067c0,1.842,1.487,3.33,3.33,3.33h12.535
			c6.697,0,10.102-6.534,10.102-19.425v-1.628c0-0.096-0.008-0.192-0.008-0.289h11.396v30.059h-70.056v-8.717h5.564
			c2.82,0,6.334-1.717,7.082-9.901c0.007-0.096,0.015-0.2,0.015-0.303v-7.955c0-8.451-0.082-9.783-0.17-10.323
			c-0.415-3.049-1.42-5.557-2.997-7.481c1.436-1.791,2.398-3.989,2.864-6.564c0.008-0.044,0.015-0.089,0.015-0.133
			c0.125-0.881,0.289-2.797,0.289-9.324c0-9.094-0.844-11.766-1.776-13.179c-1.798-2.96-5.373-4.529-10.886-4.795v-8.717h70.433
			v30.414h-12.772v-9.324C539.698,138.264,538.662,134.549,533.734,131.5z"/>
		<path d="M641.662,113.096h-75.087c-1.835,0-3.33,1.488-3.33,3.33v37.799c0,1.843,1.495,3.33,3.33,3.33h19.056
			c0.555,0,1.072-0.133,1.531-0.37c-0.584,0.851-1.377,1.917-2.471,3.249c-0.586,0.71-0.852,1.628-0.733,2.538
			c0.118,0.917,0.606,1.739,1.354,2.272c1.768,1.28,2.805,2.923,3.166,5.032c0.082,0.651,0.215,2.819,0.215,9.998v9.605
			c-0.096,0.881-0.354,1.48-2.079,1.754c-0.081,0.015-0.155,0.03-0.229,0.044c-0.362,0.03-1.635,0.097-5.891,0.097
			c-1.842,0-3.33,1.495-3.33,3.33v15.377c0,1.835,1.488,3.33,3.33,3.33h47.257c1.843,0,3.33-1.495,3.33-3.33v-15.377
			c0-0.984-0.437-1.924-1.198-2.553c-0.756-0.636-1.754-0.902-2.73-0.725c-0.459,0.089-0.896,0.133-1.281,0.133h-1.754
			c-3.5,0-3.98-1.214-4.18-1.887c-0.075-0.385-0.26-2.153-0.26-9.797c0-7.038,0.052-8.695,0.082-9.08
			c0-0.015,0.006-0.029,0.006-0.037c0.26-1.828,0.941-4.951,2.591-5.394c1.185-0.326,2.102-1.273,2.376-2.479
			c0.273-1.199-0.141-2.45-1.074-3.256c-0.185-0.163-0.518-0.488-1.043-1.132c-0.488-0.592-1.006-1.25-1.531-1.954
			c0.488,0.274,1.051,0.437,1.649,0.437h18.929c1.844,0,3.33-1.495,3.33-3.33v-37.622
			C644.992,114.584,643.506,113.096,641.662,113.096z M638.333,150.718h-12.27v-12.772c0-0.082,0-0.17-0.007-0.251
			c-0.126-1.621-0.703-3.278-1.783-5.077c-0.533-0.888-2.161-3.604-5.047-3.604h-3.005c-1.843,0-3.33,1.487-3.33,3.33v22.244
			c0,1.051,0.333,2.19,1.015,3.463c0.488,0.925,1.087,1.865,1.768,2.775c0.273,0.363,0.541,0.718,0.807,1.058
			c-1.657,1.857-2.76,4.603-3.293,8.207c-0.104,0.533-0.17,1.709-0.17,10.183c0,9.131,0.252,10.745,0.504,11.596
			c0.725,2.516,3.07,6.749,10.596,6.749h0.304v8.532h-40.597v-8.732c2.701-0.029,3.648-0.118,4.197-0.267
			c4.283-0.813,6.94-3.641,7.318-7.814c0.014-0.097,0.014-0.2,0.014-0.296v-9.768c0-7.978-0.162-10.064-0.281-10.945
			c-0.007-0.029-0.007-0.059-0.014-0.096c-0.452-2.723-1.547-5.083-3.271-7.06c2.479-3.345,3.566-5.75,3.566-7.763v-21.704
			c0-0.688-0.207-1.354-0.6-1.917c-1.25-1.776-3.515-1.776-4.484-1.776c-4.913,0-7.969,2.938-7.969,7.666v14.215h-12.396v-31.139
			h68.428V150.718z"/>
		<path d="M415.186,327.416c0.54,0,1.132,0.037,1.769,0.096c0.932,0.097,1.865-0.214,2.561-0.843
			c0.695-0.629,1.095-1.532,1.095-2.472v-15.007c0-1.843-1.487-3.33-3.33-3.33h-41.995c-1.628,0-3.019,1.176-3.286,2.79
			c-1.909,11.596-3.611,21.689-5.069,29.985l-0.089,0.511c-1.25-9.169-2.686-19.462-4.307-30.792
			c-0.229-1.635-1.635-2.856-3.293-2.856h-42.498c-1.835,0-3.33,1.487-3.33,3.33v15.37c0,0.999,0.451,1.946,1.228,2.583
			c0.77,0.629,1.791,0.881,2.768,0.681c0.503-0.096,0.755-0.111,0.844-0.111h1.376c2.205,0,2.59,0.644,2.752,1.155
			c0.06,0.518,0.185,2.427,0.185,9.265c0,6.26-0.059,7.785-0.088,8.147c-0.525,2.671-1.643,4.654-3.419,6.061
			c-0.785,0.629-1.25,1.576-1.258,2.583c-0.007,0.999,0.437,1.954,1.214,2.597c1.709,1.414,2.805,3.523,3.337,6.445
			c0.037,0.311,0.104,1.073,0.156,2.827c0.037,1.562,0.059,3.663,0.059,6.246c0,7.326-0.133,9.198-0.192,9.657
			c-0.392,1.532-1.08,2.028-2.745,2.028h-1.376c-0.089,0-0.348-0.015-0.829-0.111c-0.977-0.208-1.998,0.037-2.783,0.673
			c-0.777,0.629-1.228,1.583-1.228,2.583v15.377c0,1.835,1.495,3.33,3.33,3.33h29.333c1.843,0,3.33-1.495,3.33-3.33v-0.792
			l0.304,1.465c0.325,1.546,1.687,2.656,3.263,2.656h15.792c1.562,0,2.909-1.08,3.249-2.597l1.073-4.722v3.989
			c0,1.835,1.487,3.33,3.33,3.33h40.863c1.843,0,3.33-1.495,3.33-3.33v-15.377c0-1.021-0.466-1.983-1.273-2.62
			c-0.799-0.629-1.85-0.858-2.842-0.614c-0.244,0.059-0.474,0.089-0.717,0.089h-1.377c-2.064,0-2.656-0.681-3.004-2.028
			c-0.052-0.451-0.185-2.316-0.185-9.657v-1.265c0-0.666-0.044-1.347-0.125-2.028v-2.679c0-4.314,1.213-7.452,3.715-9.583
			c0.77-0.659,1.206-1.628,1.169-2.642c-0.029-1.014-0.525-1.954-1.339-2.561c-1.717-1.287-2.767-3.063-3.211-5.446
			c-0.081-0.651-0.208-2.604-0.208-8.525c0-6.963,0.222-8.88,0.311-9.346C411.938,327.815,413.166,327.416,415.186,327.416z
			 M344.901,384.225c-2.257,0-2.257-0.54-2.257-1.605v-13.239l3.063,14.814C345.426,384.21,345.16,384.225,344.901,384.225z
			 M377.661,384.225c-0.304,0-0.629-0.015-0.977-0.037c-0.089-0.008-0.178-0.015-0.267-0.015l3.434-15.177v13.986
			C379.851,383.781,379.851,384.225,377.661,384.225z M405.285,326.231c-0.385,0.977-0.732,2.604-0.732,11.714
			c0,6.705,0.163,8.636,0.281,9.501c0.007,0.044,0.015,0.089,0.022,0.134c0.496,2.768,1.546,5.15,3.13,7.119
			c-2.368,3.16-3.56,7.178-3.56,12.002v2.894c0,0.155,0.008,0.304,0.03,0.451c0.059,0.467,0.096,0.918,0.096,1.362v1.265
			c0,8.073,0.148,10.035,0.296,10.885c0.015,0.066,0.03,0.133,0.044,0.2c1.073,4.47,4.358,7.097,9.058,7.252v8.54h-34.203v-8.813
			c4.278-0.666,6.764-3.463,6.764-7.755v-43.771c0-1.695-1.272-3.123-2.96-3.308c-1.687-0.192-3.241,0.917-3.611,2.575
			l-13.831,61.072h-10.427l-13.113-63.366c-0.348-1.673-1.895-2.812-3.596-2.635c-1.702,0.17-2.99,1.606-2.99,3.308v45.762
			c0,4.469,2.486,7.385,6.763,8.095v8.835h-22.673v-8.54c4.543-0.163,7.741-2.782,8.813-7.252c0.015-0.066,0.029-0.14,0.037-0.207
			c0.148-0.858,0.303-2.819,0.303-10.878c0-2.642-0.022-4.803-0.066-6.423c-0.044-1.724-0.111-2.871-0.215-3.611
			c-0.007-0.051-0.015-0.096-0.022-0.14c-0.555-3.094-1.621-5.72-3.189-7.852c1.621-2.072,2.73-4.588,3.3-7.519
			c0.104-0.481,0.192-1.191,0.192-9.361c0-7.74-0.148-9.657-0.303-10.515c-0.015-0.097-0.037-0.193-0.059-0.289
			c-0.607-2.286-2.553-6.098-8.792-6.268v-8.54h36.282c2.634,18.515,4.766,34.137,6.349,46.472c0.066,0.518,0.229,0.97,0.525,1.398
			c0.17,0.378,0.393,0.763,0.681,1.177c0.77,1.095,2.131,1.628,3.441,1.34c1.31-0.289,2.324-1.34,2.561-2.664
			c0.917-5.069,2.124-11.825,3.574-20.091c1.347-7.652,2.901-16.813,4.625-27.269h35.838v8.281
			C408.519,321.155,406.247,323.886,405.285,326.231z"/>
		<path d="M519.43,352.694c-0.273-0.274-1.08-1.236-2.709-4.307c-1.051-1.931-1.687-3.559-1.879-4.847
			c-0.008-0.044-0.015-0.082-0.022-0.119c-4.987-26.965-19.543-40.641-43.26-40.641c-18.729,0-31.687,8.007-38.509,23.806
			c-0.525,1.132-1.391,3.915-3.611,14.956c-1.095,5.276-2.812,8.976-5.091,11.011c-0.732,0.644-1.14,1.576-1.117,2.545
			c0.015,0.977,0.459,1.887,1.206,2.509c1.051,0.866,1.873,1.613,2.435,2.22c0.466,0.51,0.659,0.762,0.718,0.851
			c1.147,2.501,1.835,4.958,2.042,7.296c0.888,9.842,4.27,18.789,10.071,26.633c6.157,8.081,13.024,12.461,20.402,13.031
			c4.84,0.511,7.97,0.829,9.835,0.999c0.54,0.052,0.925,0.089,1.198,0.111c0.326,0.111,0.681,0.17,1.051,0.17
			c12.099,0,21.808-3.337,28.904-9.975c7.445-7.274,12.595-18.826,15.311-34.344c1.813-4.64,2.915-6.83,3.522-7.859
			C520.703,355.439,520.496,353.774,519.43,352.694z M510.076,362.499c-0.082,0.207-0.141,0.421-0.177,0.644
			c-2.457,14.267-6.986,24.708-13.409,30.991c-5.654,5.284-13.624,8.021-23.695,8.125c-0.163-0.037-0.34-0.059-0.518-0.081
			c-0.385-0.044-0.962-0.104-1.724-0.17c-1.85-0.17-4.958-0.488-9.805-0.992c-0.03-0.007-0.059-0.007-0.097-0.007
			c-5.417-0.414-10.686-3.922-15.621-10.397c-5.04-6.808-7.985-14.63-8.762-23.236c-0.289-3.13-1.184-6.356-2.687-9.598
			c-0.325-0.703-0.873-1.443-1.82-2.472c-0.163-0.177-0.34-0.355-0.518-0.54c2.116-2.93,3.67-6.86,4.721-11.892
			c2.213-10.989,2.945-13.09,3.115-13.46c0.022-0.044,0.044-0.089,0.059-0.141c5.75-13.342,16.354-19.832,32.419-19.832
			c20.306,0,32.309,11.492,36.704,35.143c0.318,2.08,1.177,4.366,2.598,6.956c0.829,1.569,1.569,2.841,2.25,3.84
			C512.229,357.171,511.23,359.524,510.076,362.499z"/>
		<path d="M483.874,354.574c2.359-3.625,3.552-8.289,3.552-13.915c0-17.218-9.547-19.789-15.239-19.789
			c-5.598,0-14.988,2.641-14.988,20.332c0,4.679,0.333,6.441,0.63,7.432c0.529,1.931,1.539,3.915,3.068,6.012
			c-1.049,1.399-1.895,3.192-2.556,5.406c-1.008,3.366-1.519,6.699-1.519,9.908c0,6.182,1.323,11.33,3.931,15.302
			c2.86,4.355,6.986,6.657,11.935,6.657c6.895,0,15.113-3.715,15.113-21.417C487.802,363.118,486.511,357.859,483.874,354.574z
			 M472.688,385.26c-2.708,0-4.731-1.161-6.368-3.653c-1.883-2.867-2.838-6.786-2.838-11.646c0-2.562,0.417-5.252,1.239-8
			c0.869-2.907,1.853-3.835,2.362-4.129c0.865-0.5,1.459-1.361,1.621-2.347c0.161-0.986-0.129-1.992-0.791-2.741
			c-1.959-2.218-3.227-4.257-3.668-5.896c-0.01-0.039-0.021-0.078-0.034-0.116c-0.083-0.269-0.353-1.461-0.353-5.53
			c0-13.672,5.836-13.672,8.328-13.672c2.567,0,8.579,0,8.579,13.129c0,5.341-1.285,9.366-3.818,11.963
			c-0.711,0.73-1.049,1.744-0.918,2.754c0.131,1.01,0.717,1.904,1.591,2.428c2.271,1.36,3.521,5.87,3.521,12.698
			C481.142,385.26,475,385.26,472.688,385.26z"/>
		<path d="M617.109,384.684c-0.303-0.193-0.637-0.311-0.977-0.393c-0.606-0.147-1.243-0.147-1.85,0.052
			c-0.163-0.03-0.629-0.141-1.562-0.592c-0.673-0.303-0.821-0.54-0.821-0.584v-12.306c0-4.736-2.197-8.991-6.541-12.646
			c-0.563-0.496-1.133-0.955-1.711-1.384c1.998-1.747,3.945-4.189,5.869-7.356c1.109-1.731,2.242-3.641,3.359-5.683
			c1.088-1.998,2.221-4.077,3.39-6.253c0.695-1.295,0.466-2.886-0.563-3.929c-1.266-1.273-1.619-1.917-1.701-2.087
			c-0.008-0.052-0.015-0.096-0.022-0.141c-1.568-8.666-5.72-15.518-12.357-20.372c-5.069-3.656-10.449-5.513-15.991-5.513h-60.17
			c-1.836,0-3.33,1.487-3.33,3.33v15.37c0,0.969,0.422,1.887,1.146,2.516c0.733,0.636,1.695,0.917,2.657,0.784
			c0.77-0.111,1.494-0.192,2.124-0.251c2.818-0.237,5.157,0.148,5.328,0.821c0.066,0.326,0.281,1.976,0.281,9.879
			c0,6.86-0.066,8.392-0.09,8.725c-0.459,2.96-1.376,4.677-2.723,5.099c-1.258,0.399-2.168,1.502-2.309,2.812
			c-0.148,1.317,0.503,2.59,1.643,3.249c1.68,0.969,2.686,2.508,3.16,4.788c0.096,0.511,0.318,2.486,0.318,9.872
			c0,7.548-0.334,9.531-0.438,9.982c-0.021,0.037-0.037,0.082-0.051,0.119c-0.519,1.214-3.383,1.835-7.52,1.591
			c-0.924-0.052-1.813,0.266-2.479,0.903c-0.674,0.629-1.051,1.502-1.051,2.42v15.377c0,1.835,1.494,3.33,3.33,3.33h46.132
			c1.842,0,3.33-1.495,3.33-3.33v-15.377c0-1.754-1.362-3.212-3.116-3.323c-2.664-0.17-4.069-0.289-4.81-0.355
			c-0.185-0.444-0.474-1.458-0.474-3.56v-10.234h7.171c0.007,0,0.688,0.119,2.095,1.643c1.094,1.184,1.627,2.279,1.627,3.352v15.37
			c0,3.723,1.458,7.26,4.329,10.516c3.116,3.56,6.104,5.298,9.153,5.298h24.443c1.842,0,3.33-1.495,3.33-3.33v-15.377
			C618.672,386.356,618.079,385.291,617.109,384.684z M612.012,399.55h-21.113c-0.355,0-1.687-0.222-4.15-3.034
			c-1.799-2.042-2.672-4.041-2.672-6.12v-15.37c0-2.79-1.139-5.432-3.396-7.874c-2.354-2.538-4.625-3.782-6.956-3.782h-10.53
			c-1.835,0-3.33,1.495-3.33,3.33v13.564c0,1.828,0,7.385,3.959,9.598c0.156,0.089,0.318,0.163,0.488,0.229
			c0.422,0.148,0.77,0.281,3.952,0.518v8.939h-39.472v-8.687c5.402-0.252,8.91-2.102,10.441-5.499
			c0.607-1.154,1.096-3.315,1.096-12.876c0-7.889-0.252-10.116-0.445-11.159c-0.495-2.413-1.413-4.462-2.73-6.135
			c1.325-1.605,2.442-3.959,2.99-7.415c0.104-0.496,0.186-1.562,0.186-9.835c0-8.473-0.237-10.537-0.482-11.5
			c-0.568-2.212-2.619-5.935-9.996-5.935c-0.341,0-0.696,0.007-1.059,0.015v-8.37h56.84c4.173,0,8.125,1.392,12.076,4.24
			c5.239,3.833,8.414,9.087,9.701,16.058c0.155,1.258,0.756,2.531,1.888,3.974c-0.778,1.436-1.532,2.827-2.265,4.173
			c-1.051,1.909-2.102,3.7-3.139,5.306c-0.014,0.029-0.029,0.052-0.043,0.081c-2.82,4.647-5.588,7.289-7.793,7.445
			c-1.605,0.111-2.9,1.354-3.078,2.96c-0.178,1.598,0.814,3.093,2.361,3.552c1.938,0.577,3.832,1.688,5.639,3.278
			c0.021,0.022,0.043,0.044,0.066,0.059c2.826,2.375,4.195,4.854,4.195,7.578v12.306c0,1.672,0.614,4.766,4.647,6.616
			c0.755,0.362,1.465,0.644,2.124,0.851V399.55z"/>
		<path d="M563.696,351.043h11.657c3.087,0,5.68-1.996,7.707-5.932c1.504-2.765,2.268-5.844,2.268-9.155
			c0-3.373-0.856-6.506-2.546-9.314c-2.513-4.173-5.631-5.049-7.804-5.049h-11.282c-1.839,0-3.33,1.491-3.33,3.33v22.79
			C560.366,349.552,561.857,351.043,563.696,351.043z M567.026,328.253h7.952c0.663,0,1.369,0.614,2.098,1.823
			c1.072,1.78,1.592,3.704,1.592,5.88c0,2.227-0.48,4.189-1.471,5.998c-0.015,0.026-0.029,0.053-0.043,0.081
			c-1.07,2.088-1.804,2.349-1.801,2.349h-8.327V328.253z"/>
		<path d="M682.156,349.23h19.432c1.836,0,3.33-1.487,3.33-3.33v-37.074c0-1.843-1.494-3.33-3.33-3.33h-77.094
			c-1.842,0-3.33,1.487-3.33,3.33v15.37c0,0.91,0.371,1.776,1.022,2.405c0.651,0.629,1.524,0.97,2.435,0.925
			c0.518-0.022,1.014-0.03,1.494-0.03c5.654,0,6.756,1.376,6.919,1.65c0.022,0.037,0.045,0.074,0.067,0.104
			c0.117,0.304,0.725,2.153,0.725,9.598c0,5.742-0.133,7.688-0.215,8.347c-0.429,2.301-1.42,3.871-3.107,4.929
			c-1.006,0.629-1.605,1.739-1.569,2.93c0.038,1.184,0.703,2.257,1.747,2.82c0.621,0.34,2.508,1.361,3.041,5.461
			c0.008,0.022,0.008,0.044,0.015,0.066c0.022,0.34,0.089,1.947,0.089,9.272v7.8c-0.222,2.294-0.629,3.308-0.844,3.7h-8.488
			c-1.842,0-3.33,1.495-3.33,3.33v15.377c0,1.835,1.488,3.33,3.33,3.33h76.717c1.835,0,3.33-1.495,3.33-3.33v-36.719
			c0-1.842-1.495-3.33-3.33-3.33h-18.175c-0.407,0-0.813,0.074-1.184,0.215v-13.823C681.949,349.23,682.053,349.23,682.156,349.23z
			 M679.81,368.508c0.015,0.473,0.022,0.896,0.022,1.272v1.628c0,7.755-1.354,12.765-3.44,12.765h-9.206v-15.407h11.337
			C678.974,368.767,679.41,368.678,679.81,368.508z M667.186,344.021v-15.947h5.195c0.177,0,1.213,0.074,3.67,1.509
			c2.775,1.731,2.775,3.182,2.775,3.663v10.789c-0.097-0.007-0.2-0.015-0.304-0.015H667.186z M679.521,323.9
			c-0.022-0.015-0.045-0.03-0.066-0.037c-2.842-1.672-5.092-2.449-7.074-2.449h-8.525c-1.843,0-3.33,1.487-3.33,3.33v22.607
			c0,1.843,1.487,3.33,3.33,3.33h11.338v11.426h-11.338c-1.843,0-3.33,1.495-3.33,3.33v22.067c0,1.842,1.487,3.33,3.33,3.33h12.536
			c6.704,0,10.101-6.534,10.101-19.425v-1.628c0-0.096,0-0.192-0.008-0.289h11.396v30.059h-70.057v-8.717h5.565
			c2.819,0,6.335-1.717,7.082-9.901c0.007-0.096,0.015-0.2,0.015-0.303v-7.955c0-8.458-0.074-9.783-0.17-10.323
			c-0.414-3.056-1.42-5.557-2.998-7.481c1.437-1.791,2.398-3.989,2.864-6.564c0.009-0.044,0.016-0.089,0.016-0.133
			c0.126-0.881,0.288-2.797,0.288-9.324c0-9.095-0.844-11.766-1.775-13.18c-1.799-2.96-5.373-4.529-10.887-4.795v-8.718h70.434
			v30.414h-12.771v-9.324C685.486,330.664,684.449,326.949,679.521,323.9z"/>
	</g>
</g>
<g id="Less">
	<g>
		
			<radialGradient id="SVGID_5_" cx="85.3838" cy="822.5435" r="841.2551" gradientTransform="matrix(1 0 -1.426682e-004 1 428.9546 205.0039)" gradientUnits="userSpaceOnUse">
			<stop  offset="0" style="stop-color:#010101"/>
			<stop  offset="0.0916" style="stop-color:#080808"/>
			<stop  offset="0.2173" style="stop-color:#191918"/>
			<stop  offset="0.3629" style="stop-color:#353635"/>
			<stop  offset="0.5234" style="stop-color:#5E5E5E"/>
			<stop  offset="0.6961" style="stop-color:#919191"/>
			<stop  offset="0.8762" style="stop-color:#D0D1D1"/>
			<stop  offset="1" style="stop-color:#FFFFFF"/>
		</radialGradient>
		<path fill="url(#SVGID_5_)" stroke="#010101" stroke-width="4.699" stroke-miterlimit="10" d="M845.89,543.729H178.113
			c-10.388,0-18.813,8.427-18.813,18.814v432.646c0,10.387,8.425,18.811,18.813,18.811H845.89c10.39,0,18.812-8.423,18.812-18.811
			V562.543C864.701,552.156,856.279,543.729,845.89,543.729z M818.266,974.109c0,9.021-7.313,16.333-16.332,16.333H222.07
			c-9.021,0-16.337-7.313-16.337-16.333V598.423c0-9.021,7.316-16.337,16.337-16.337h579.863c9.02,0,16.332,7.317,16.332,16.337
			V974.109z"/>
		
			<radialGradient id="SVGID_6_" cx="82.46" cy="556.6025" r="467.7441" gradientTransform="matrix(1 0 0 1 428.7998 229.6621)" gradientUnits="userSpaceOnUse">
			<stop  offset="0" style="stop-color:#FFFFFF"/>
			<stop  offset="0.1238" style="stop-color:#D0D1D1"/>
			<stop  offset="0.3039" style="stop-color:#919191"/>
			<stop  offset="0.4766" style="stop-color:#5E5E5E"/>
			<stop  offset="0.6371" style="stop-color:#353635"/>
			<stop  offset="0.7827" style="stop-color:#191918"/>
			<stop  offset="0.9084" style="stop-color:#080808"/>
			<stop  offset="1" style="stop-color:#010101"/>
		</radialGradient>
		<path fill="url(#SVGID_6_)" stroke="#010101" stroke-width="4.699" stroke-miterlimit="10" d="M801.193,582.086H221.331
			c-9.021,0-16.337,7.317-16.337,16.337v375.686c0,9.019,7.316,16.333,16.337,16.333h579.863c9.02,0,16.333-7.314,16.333-16.333
			V598.423C817.526,589.403,810.213,582.086,801.193,582.086z M796.281,961.079c0,8.396-6.805,15.202-15.2,15.202h-539.64
			c-8.395,0-15.203-6.806-15.203-15.202V611.453c0-8.396,6.809-15.203,15.203-15.203h539.64c8.396,0,15.2,6.808,15.2,15.203V961.079
			z"/>
	</g>
	<g>
		
			<linearGradient id="SVGID_7_" gradientUnits="userSpaceOnUse" x1="-416.2202" y1="1558.0352" x2="153.8223" y2="1558.0352" gradientTransform="matrix(1 0 0 -1 643.1992 2344.2988)">
			<stop  offset="0" style="stop-color:#4E1615"/>
			<stop  offset="0.168" style="stop-color:#611B1A"/>
			<stop  offset="0.372" style="stop-color:#752222"/>
			<stop  offset="0.4854" style="stop-color:#7B2524"/>
			<stop  offset="0.759" style="stop-color:#7C1E1E"/>
			<stop  offset="1" style="stop-color:#7D1618"/>
		</linearGradient>
		<path fill="url(#SVGID_7_)" stroke="#010101" stroke-width="4.699" stroke-miterlimit="10" d="M781.821,596.249H242.182
			c-8.395,0-15.203,6.807-15.203,15.204v349.625c0,8.396,6.809,15.202,15.203,15.202h539.639c8.396,0,15.2-6.806,15.2-15.202
			V611.452C797.021,603.058,790.217,596.249,781.821,596.249z M772.165,949.48c0,7.76-6.292,14.05-14.047,14.05H259.383
			c-7.758,0-14.051-6.29-14.051-14.05V626.357c0-7.759,6.293-14.051,14.051-14.051h498.735c7.755,0,14.047,6.292,14.047,14.051
			V949.48L772.165,949.48z"/>
		
			<linearGradient id="SVGID_8_" gradientUnits="userSpaceOnUse" x1="-397.8677" y1="1556.3809" x2="128.9658" y2="1556.3809" gradientTransform="matrix(1 0 0 -1 643.1992 2344.2988)">
			<stop  offset="0" style="stop-color:#7D1618"/>
			<stop  offset="0.241" style="stop-color:#7C1E1E"/>
			<stop  offset="0.5146" style="stop-color:#7B2524"/>
			<stop  offset="0.628" style="stop-color:#752222"/>
			<stop  offset="0.832" style="stop-color:#611B1A"/>
			<stop  offset="1" style="stop-color:#4E1615"/>
		</linearGradient>
		<path fill="url(#SVGID_8_)" stroke="#010101" stroke-width="4.699" stroke-miterlimit="10" d="M758.118,612.306H259.383
			c-7.758,0-14.051,6.292-14.051,14.051V949.48c0,7.76,6.293,14.05,14.051,14.05h498.735c7.755,0,14.047-6.29,14.047-14.05V626.357
			C772.165,618.598,765.873,612.306,758.118,612.306z"/>
	</g>
	<g>
		<path fill="none" d="M510.409,892.558c-1.643-1.302-3.715-2.085-5.972-2.085h-12.979v-2.132h13.349
			c1.443,0,2.805-0.325,4.033-0.895C509.277,889.28,509.81,890.982,510.409,892.558z"/>
		<path fill="none" d="M431.022,906.959v6.031h-2.856v-16.524c0-1.074-0.185-2.109-0.51-3.071c0.762,1.198,1.769,2.234,3.004,3.012
			c0.074,0.207,0.2,0.614,0.296,1.295C430.978,898.271,431.022,900.261,431.022,906.959z"/>
		<path fill="none" d="M481.764,705.301c0.022,0.57,0.066,2.561,0.066,9.257v6.031h-2.99c-0.274,0-0.54,0.015-0.807,0.037
			c0.2-1.731-0.067-3.537-0.851-5.202c-3.804-8.081-6.771-13.386-9.324-16.665c-0.2-0.259-0.407-0.518-0.607-0.762
			c1.754-2.405,3.426-5.832,5.306-10.812c1.45-3.493,2.197-4.965,2.493-5.498c2.065-2.42,2.813-5.735,1.947-8.835
			c0.732,0.148,1.48,0.214,2.242,0.177c0.918-0.037,1.791-0.029,2.435,0.008c0.082,1.28,0.156,3.152,0.156,5.838
			c0,5.55-0.111,7.415-0.156,7.948c-0.066,0.326-0.207,0.88-0.399,1.014c-2.782,1.842-4.418,4.995-4.307,8.333
			c0.104,3.204,1.791,6.142,4.499,7.836C481.542,704.213,481.667,704.621,481.764,705.301z"/>
		<path fill="#B97C2B" d="M432.231,711.655c-0.348-0.576-1.246-1.918-2.038-1.918h-7.827v15.587h7.075
			c0.812,0,1.784-0.206,2.842-1.733c1.062-1.532,1.6-3.602,1.6-6.151C433.882,715.387,433.342,713.495,432.231,711.655z"/>
		<path fill="#B97C2B" d="M432.337,683.222c1.04-1.769,1.545-3.739,1.545-6.023c0-2.007-0.569-3.713-1.741-5.217
			c-0.959-1.231-1.869-1.856-2.701-1.856h-7.075v14.864h7.827C430.495,684.989,431.296,684.989,432.337,683.222z"/>
		<path fill="#B97C2B" d="M530.262,670.913c-2.457-1.438-3.488-1.511-3.671-1.511h-5.194v15.949h11.337
			c0.103,0,0.204,0.004,0.305,0.014v-10.792C533.038,674.094,533.038,672.642,530.262,670.913z"/>
		<path fill="#B97C2B" d="M521.396,710.098v15.406h9.205c2.09,0,3.439-5.012,3.439-12.768v-1.628c0-0.377-0.007-0.798-0.021-1.268
			c-0.396,0.166-0.83,0.257-1.286,0.257H521.396z"/>
		<path fill="#B97C2B" d="M641.5,637.576h-74.777c-2.071,0-3.98,0.667-5.549,1.776c-1.569-1.11-3.486-1.776-5.558-1.776h-76.775
			c-5.313,0-9.62,4.314-9.62,9.62v6.719c-1.006-1.924-1.99-3.574-2.96-4.965c-0.052-0.081-0.111-0.147-0.163-0.222
			c-5.402-7.297-12.736-11.152-21.208-11.152H378.97c-5.313,0-9.62,4.314-9.62,9.62v16.221c0,5.313,4.307,9.62,9.62,9.62h4.055
			c-0.015,0.259-0.029,0.555-0.051,0.873c-0.097,1.598-0.141,2.849-0.141,3.818c0,6.305-0.2,8.221-0.259,8.636
			c-0.067,0.377-0.133,0.681-0.192,0.91c-2.361,1.576-3.944,4.137-4.24,7.038c-0.348,3.389,1.125,6.697,3.84,8.702
			c0.133,0.304,0.385,1.021,0.57,2.383c0.067,0.474,0.282,2.531,0.282,9.161c0,0.215,0.007,0.422,0.022,0.629l0.104,1.598v3.115
			c0,0.244,0,0.474-0.007,0.688h-3.981c-5.313,0-9.62,4.307-9.62,9.62v16.221c0,5.313,4.307,9.62,9.62,9.62h69.035
			c4.721,0,9.428-1.946,14.4-5.942c0.06-0.052,0.119-0.097,0.178-0.148c2.634-2.228,4.854-4.625,6.638-7.164v3.634
			c0,5.313,4.307,9.62,9.62,9.62h76.405c5.313,0,9.62-4.307,9.62-9.62v-38.739c0-5.313-4.308-9.62-9.62-9.62h-12.979v-2.131h13.35
			c1.835,0,3.552-0.525,5.009-1.421c1.658,1.361,3.782,2.183,6.098,2.183h11.02c0.007,0.133,0.021,0.259,0.045,0.392
			c0.324,2.545,1.656,4.854,3.699,6.409c0.422,0.325,0.666,0.621,0.799,1.31c0.045,0.54,0.163,2.642,0.163,9.746v6.024
			c-0.54,0.007-1.155,0.007-1.865,0.007c-5.313,0-9.62,4.307-9.62,9.62v16.221c0,5.313,4.307,9.62,9.62,9.62h47.064
			c5.313,0,9.62-4.307,9.62-9.62V730.21c0-2.872-1.28-5.595-3.493-7.415c-2.183-1.806-5.039-2.553-7.813-2.057
			c-0.03-1.414-0.053-3.404-0.053-6.179c0-6.46,0.045-8.436,0.066-9.028c0.082-0.577,0.17-1.021,0.26-1.347
			c2.257-1.31,3.922-3.508,4.535-6.12c0.119-0.518,0.2-1.036,0.23-1.554h10.5c5.313,0,9.62-4.307,9.62-9.62v-39.694
			C651.12,641.891,646.813,637.576,641.5,637.576z M481.468,704.006c0.074,0.207,0.2,0.614,0.296,1.295
			c0.022,0.57,0.066,2.561,0.066,9.257v6.031h-2.99c-0.274,0-0.54,0.015-0.807,0.037c0.2-1.731-0.067-3.537-0.851-5.202
			c-3.804-8.081-6.771-13.386-9.324-16.665c-0.2-0.259-0.407-0.518-0.607-0.762c1.754-2.405,3.426-5.832,5.306-10.812
			c1.45-3.493,2.197-4.965,2.493-5.498c2.065-2.42,2.813-5.735,1.947-8.835c0.732,0.148,1.48,0.214,2.242,0.177
			c0.918-0.037,1.791-0.029,2.435,0.008c0.082,1.28,0.156,3.152,0.156,5.838c0,5.55-0.111,7.415-0.156,7.948
			c-0.066,0.326-0.207,0.88-0.399,1.014c-2.782,1.842-4.418,4.995-4.307,8.333C477.072,699.374,478.759,702.312,481.468,704.006z
			 M466.476,733.762c-0.022,0.052-0.052,0.104-0.074,0.155c-1.635,3.33-4.262,6.446-7.807,9.28c-0.022,0.015-0.045,0.029-0.06,0.044
			c-3.811,2.894-7.215,4.299-10.419,4.299H378.8c-1.843,0-3.33-1.495-3.33-3.33v-15.377c0-1.835,1.487-3.33,3.33-3.33h9.391
			c0.266-0.444,0.939-2.005,0.939-6.438v-3.138l-0.118-1.694c-0.007-0.074-0.007-0.156-0.007-0.229c0-5.928-0.185-8.414-0.34-9.458
			c-0.437-3.078-1.399-5.083-2.841-5.979c-1.088-0.666-1.688-1.895-1.569-3.16c0.126-1.266,0.962-2.346,2.153-2.79
			c1.384-0.518,2.02-3.049,2.272-4.507c0.141-0.91,0.326-3.248,0.326-9.013c0-0.814,0.044-1.887,0.133-3.286
			c0.074-1.266,0.118-2.235,0.118-2.864c0-4.092-1.132-4.092-1.562-4.092H378.8c-1.843,0-3.33-1.487-3.33-3.33v-15.37
			c0-1.842,1.487-3.33,3.33-3.33h66.186c6.482,0,11.914,2.738,16.154,8.148c0.022,0.022,0.044,0.052,0.059,0.074
			c2.886,3.907,6.105,10.678,9.85,20.712c0.473,1.288,0.118,2.731-0.896,3.641c-0.214,0.274-1.08,1.547-3.293,6.586
			c-2.183,5.469-3.952,8.628-5.735,10.234c-0.777,0.726-1.694,1.362-2.745,1.895c1.643,1.169,3.175,2.635,4.603,4.374
			c2.257,2.746,5.099,7.563,8.673,14.733c0.718,1.428,0.311,3.16-0.955,4.129c-0.77,0.585-1.199,1.295-1.384,2.294
			c-0.007,0.052-0.015,0.104-0.03,0.148C468.148,728.745,467.223,732,466.476,733.762z M559.131,687.23
			c0,1.191-0.622,2.22-1.555,2.812c-0.518,0.326-1.124,0.518-1.775,0.518h-19.433c-0.104,0-0.206,0-0.304-0.007v13.823
			c0.37-0.14,0.77-0.214,1.185-0.214h18.175c1.842,0,3.33,1.488,3.33,3.33v36.719c0,1.835-1.488,3.33-3.33,3.33h-76.716
			c-1.842,0-3.33-1.495-3.33-3.33v-15.377c0-1.835,1.488-3.33,3.33-3.33h8.488c0.215-0.393,0.622-1.414,0.844-3.7v-7.799
			c0-7.333-0.067-8.932-0.089-9.272c-0.007-0.022-0.007-0.044-0.015-0.066c-0.533-4.1-2.42-5.121-3.042-5.461
			c-1.043-0.563-1.709-1.635-1.747-2.819c-0.037-1.191,0.563-2.301,1.569-2.93c1.688-1.059,2.679-2.627,3.108-4.929
			c0.081-0.659,0.214-2.604,0.214-8.347c0-7.444-0.607-9.294-0.733-9.598c-0.022-0.03-0.044-0.066-0.059-0.104
			c-0.163-0.273-1.265-1.65-6.918-1.65c-0.481,0-0.977,0.007-1.495,0.03c-0.91,0.037-1.784-0.296-2.435-0.925
			c-0.659-0.628-1.021-1.495-1.021-2.405v-15.37c0-1.842,1.488-3.33,3.33-3.33h77.093c0.467,0,0.91,0.097,1.311,0.267
			c1.184,0.51,2.02,1.687,2.02,3.063V687.23z M644.992,687.778c0,1.835-1.486,3.33-3.33,3.33h-18.929
			c-0.599,0-1.161-0.163-1.649-0.437c0.525,0.703,1.043,1.362,1.531,1.954c0.525,0.644,0.858,0.97,1.043,1.132
			c0.934,0.807,1.348,2.057,1.074,3.256c-0.274,1.206-1.191,2.153-2.376,2.479c-1.649,0.443-2.331,3.566-2.591,5.394
			c0,0.008-0.006,0.022-0.006,0.037c-0.03,0.385-0.082,2.042-0.082,9.08c0,7.644,0.185,9.413,0.26,9.797
			c0.199,0.673,0.68,1.887,4.18,1.887h1.754c0.385,0,0.822-0.044,1.281-0.133c0.977-0.177,1.975,0.089,2.73,0.725
			c0.762,0.629,1.198,1.569,1.198,2.553v15.377c0,1.835-1.487,3.33-3.33,3.33h-47.257c-1.842,0-3.33-1.495-3.33-3.33v-15.377
			c0-1.835,1.488-3.33,3.33-3.33c4.256,0,5.528-0.067,5.891-0.097c0.074-0.014,0.148-0.029,0.229-0.044
			c1.725-0.274,1.983-0.873,2.079-1.754v-9.605c0-7.178-0.133-9.346-0.215-9.998c-0.361-2.109-1.398-3.752-3.166-5.032
			c-0.748-0.533-1.236-1.354-1.354-2.271c-0.118-0.91,0.147-1.828,0.733-2.538c1.094-1.332,1.887-2.398,2.471-3.249
			c-0.459,0.237-0.977,0.37-1.531,0.37h-19.056c-1.835,0-3.33-1.487-3.33-3.33v-37.799c0-1.842,1.495-3.33,3.33-3.33h75.087
			c1.844,0,3.33,1.488,3.33,3.33V687.778z"/>
		<path fill="#B97C2B" d="M479.43,863.313c-2.455-1.438-3.487-1.51-3.67-1.51h-5.194v15.948h11.336c0.103,0,0.205,0.004,0.306,0.014
			v-10.792C482.208,866.495,482.208,865.043,479.43,863.313z"/>
		<path fill="#B97C2B" d="M470.565,902.499v15.406h9.206c2.089,0,3.439-5.013,3.439-12.768v-1.627c0-0.372-0.007-0.795-0.022-1.268
			c-0.396,0.165-0.831,0.257-1.287,0.257H470.565z"/>
		<path fill="#B97C2B" d="M553.479,860.174c-6.949,0-6.949,2.897-6.949,4.629c0,3.304,1.037,5.351,6.197,5.351
			c1.046,0,2.633-0.27,4.323-2.603c0.632-0.872,1.64-1.376,2.696-1.376c0.176,0,0.355,0.014,0.533,0.043
			c1.242,0.202,2.266,1.085,2.643,2.286c0.413,1.31,1.029,2.377,1.877,3.226c-0.592-5.733-2.051-8.281-3.226-9.412
			C560.072,860.903,557.34,860.174,553.479,860.174z"/>
		<path fill="#B97C2B" d="M554.481,916.819c7.702,0,7.702-2.447,7.702-3.368c0-2.133-0.363-3.899-4.819-3.899
			c-4.224,0-4.581,1.6-4.772,2.46c-0.314,1.408-1.5,2.454-2.936,2.59c-1.439,0.139-2.797-0.667-3.37-1.99
			c-1.165-2.685-2.468-4.6-3.802-5.598c0.008,0.059,0.015,0.119,0.021,0.179C542.904,911.675,544.627,916.819,554.481,916.819z"/>
		<path fill="#B97C2B" d="M637.968,860.174c-6.948,0-6.948,2.897-6.948,4.629c0,3.304,1.036,5.351,6.197,5.351
			c1.045,0,2.631-0.27,4.323-2.604c0.632-0.873,1.64-1.375,2.695-1.375c0.178,0,0.356,0.014,0.534,0.043
			c1.243,0.202,2.265,1.086,2.643,2.287c0.412,1.309,1.029,2.376,1.876,3.225c-0.593-5.733-2.051-8.282-3.226-9.413
			C644.563,860.903,641.83,860.174,637.968,860.174z"/>
		<path fill="#B97C2B" d="M638.971,916.819c7.701,0,7.701-2.447,7.701-3.368c0-2.133-0.362-3.899-4.817-3.899
			c-4.225,0-4.581,1.6-4.772,2.458c-0.314,1.408-1.499,2.454-2.936,2.591c-1.429,0.133-2.796-0.666-3.371-1.99
			c-1.164-2.685-2.467-4.6-3.802-5.598c0.009,0.059,0.015,0.119,0.021,0.179C627.395,911.675,629.116,916.819,638.971,916.819z"/>
		<path fill="#B97C2B" d="M680.105,884.026c-0.081-0.155-0.154-0.304-0.236-0.452c-0.799-1.428-1.738-2.819-2.826-4.173
			c2.086-1.769,3.418-4.41,3.418-7.363v-32.441c0-5.313-4.307-9.62-9.619-9.62h-16.104c-1.412,0-2.789,0.311-4.047,0.896
			c-5.165-2.627-10.782-3.944-16.806-3.944c-10.153,0-19.292,3.589-27.106,10.626c-4.75,4.218-8.354,9.288-10.833,15.148v-13.105
			c0-5.313-4.308-9.62-9.62-9.62h-16.104c-1.413,0-2.789,0.311-4.047,0.896c-5.158-2.627-10.782-3.944-16.799-3.944
			c-10.159,0-19.291,3.589-27.113,10.626c-3.092,2.746-5.705,5.854-7.836,9.302v-7.259c0-5.313-4.307-9.62-9.621-9.62h-76.775
			c-5.313,0-9.62,4.307-9.62,9.62v16.221c0,2.627,1.073,5.128,2.96,6.941c1.895,1.82,4.44,2.775,7.06,2.671
			c0.917-0.038,1.791-0.029,2.435,0.007c0.082,1.28,0.155,3.152,0.155,5.838c0,5.55-0.111,7.415-0.155,7.948
			c-0.067,0.325-0.207,0.888-0.4,1.014c-2.782,1.843-4.417,4.995-4.307,8.333c0.03,0.954,0.215,1.886,0.518,2.775
			c-1.702-2.701-4.707-4.5-8.133-4.5h-18.974c-0.118,0-0.229,0-0.348,0.007c-0.355-2.383-1.598-4.603-3.559-6.149
			c-0.511-0.399-1.073-1.021-1.369-2.605v-0.007c-0.037-0.259-0.207-1.843-0.207-7.385c0-2.368,0.037-4.145,0.081-5.454h0.281
			c0.044,0,0.289,0,0.814,0.081c2.768,0.415,5.587-0.392,7.711-2.22c2.124-1.828,3.345-4.491,3.345-7.296v-16.221
			c0-5.313-4.307-9.62-9.62-9.62H345.02c-5.313,0-9.62,4.307-9.62,9.62v16.221c0,5.313,4.307,9.62,9.62,9.62h3.485v0.681
			c0,0.007,0,0.155-0.044,0.496c-0.052,0.407-0.082,0.814-0.082,1.229v2.479c0,0.881,0.052,2.005,0.148,3.419
			c0.089,1.325,0.104,1.894,0.104,2.117c0,3.182-1.006,4.514-1.879,5.313c-2.228,2.042-3.36,5.017-3.071,8.021
			c0.274,2.804,1.761,5.335,4.048,6.94c0.119,0.311,0.326,0.977,0.459,2.169c0.007,0.06,0.015,0.096,0.022,0.155
			c0.029,0.244,0.17,1.821,0.17,8.503c0,0.207,0.007,0.422,0.022,0.628l0.104,1.599v3.116c0,0.244,0,0.473-0.008,0.688h-3.478
			c-5.313,0-9.62,4.307-9.62,9.62v16.221c0,5.313,4.307,9.62,9.62,9.62h73.526c1.725,0,3.345-0.467,4.744-1.259
			c1.398,0.792,3.02,1.259,4.743,1.259h76.405c2.827,0,5.365-1.229,7.126-3.175c1.694,1.496,3.915,2.412,6.349,2.412h18.854
			c1.85,0,3.634-0.532,5.166-1.509c5.505,2.649,11.373,3.989,17.553,3.989c9.627,0,18.219-3.138,25.553-9.333
			c0.021-0.015,0.043-0.036,0.066-0.052c3.049-2.619,5.615-5.617,7.703-8.976v6.26c0,5.314,4.307,9.62,9.619,9.62h18.855
			c1.85,0,3.633-0.532,5.166-1.509c5.505,2.649,11.373,3.989,17.553,3.989c9.619,0,18.219-3.138,25.552-9.333
			c0.022-0.015,0.044-0.036,0.066-0.052c9.598-8.243,14.46-20.201,14.46-35.542C684.08,896.421,682.777,889.488,680.105,884.026z
			 M422.053,936.611c0,1.835-1.495,3.33-3.33,3.33h-73.837c-1.835,0-3.33-1.495-3.33-3.33v-15.378c0-1.834,1.495-3.33,3.33-3.33
			h8.895c0.266-0.444,0.94-2.005,0.94-6.438v-3.138l-0.119-1.694c-0.007-0.075-0.007-0.156-0.007-0.23
			c0-6.245-0.141-8.178-0.222-8.769c-0.377-3.168-1.339-5.188-2.879-6.076c-0.933-0.541-1.547-1.495-1.65-2.567
			c-0.096-1.074,0.325-2.125,1.14-2.834c2.597-2.25,3.862-5.269,3.862-9.236c0-0.503-0.037-1.302-0.118-2.382
			c-0.089-1.229-0.133-2.161-0.133-2.864v-2.353c0-0.148,0.007-0.303,0.03-0.452c0.066-0.458,0.096-0.85,0.096-1.176v-1.265
			c0-0.525-0.037-5.173-1.436-5.173h-8.399c-1.835,0-3.33-1.487-3.33-3.33v-15.37c0-1.843,1.495-3.33,3.33-3.33h51.896
			c1.843,0,3.33,1.487,3.33,3.33v15.37c0,0.97-0.414,1.887-1.147,2.516c-0.725,0.636-1.695,0.925-2.649,0.784
			c-0.688-0.096-1.295-0.148-1.791-0.148h-1.88c-2.841,0-4.085,0.607-4.285,1.125c-0.081,0.229-0.532,1.924-0.532,9.834
			c0,5.898,0.214,7.563,0.311,7.999c0.511,2.598,1.695,4.536,3.611,5.965c1.066,0.792,1.562,2.139,1.258,3.434
			c-0.252,1.065-0.999,1.923-1.991,2.322c-0.222,0.215-0.777,0.815-1.776,2.25c-1.317,1.902-1.406,2.635-1.413,2.664v21.045
			c0.103,0.009,0.2,0.009,0.311,0.009c2.102,0,3.892-0.6,5.476-1.836c1.865-1.428,2.723-3.344,2.723-6.053v-13.379
			c0-1.843,1.495-3.33,3.33-3.33h19.055c1.835,0,3.33,1.487,3.33,3.33V936.611z M430.66,896.407c0.074,0.207,0.2,0.614,0.296,1.295
			c0.022,0.569,0.066,2.56,0.066,9.257v6.031h-2.856v-16.524c0-1.074-0.185-2.109-0.51-3.071
			C428.417,894.593,429.424,895.629,430.66,896.407z M507.923,936.611c0,1.835-1.495,3.33-3.33,3.33h-76.716
			c-1.842,0-3.33-1.495-3.33-3.33v-15.378c0-1.834,1.488-3.33,3.33-3.33h8.488c0.215-0.392,0.614-1.405,0.836-3.7v-7.799
			c0-7.326-0.06-8.932-0.082-9.271c-0.007-0.023-0.007-0.045-0.015-0.067c-0.533-4.1-2.42-5.122-3.042-5.461
			c-1.043-0.563-1.709-1.636-1.747-2.82c-0.037-1.191,0.563-2.301,1.562-2.93c1.695-1.058,2.686-2.627,3.116-4.929
			c0.081-0.658,0.207-2.604,0.207-8.347c0-7.444-0.6-9.294-0.726-9.598c-0.022-0.03-0.044-0.066-0.066-0.104
			c-0.155-0.274-1.258-1.65-6.912-1.65c-0.481,0-0.977,0.007-1.495,0.03c-0.896,0.029-1.783-0.304-2.435-0.925
			c-0.659-0.628-1.021-1.494-1.021-2.405v-15.37c0-1.843,1.488-3.33,3.33-3.33h77.093c1.835,0,3.33,1.487,3.33,3.33v37.074
			c0,0.637-0.192,1.221-0.496,1.731c-0.585,0.955-1.636,1.599-2.834,1.599h-19.432c-0.104,0-0.208,0-0.304-0.007v13.823
			c0.37-0.14,0.77-0.215,1.184-0.215h18.174c1.835,0,3.33,1.487,3.33,3.33V936.611z M504.438,890.472h-12.979v-2.132h13.349
			c1.443,0,2.805-0.325,4.033-0.895c0.437,1.834,0.97,3.537,1.569,5.112C508.766,891.255,506.694,890.472,504.438,890.472z
			 M593.414,904.776c0,2.79-0.213,5.424-0.605,7.932c-1.414,9.02-5.351,16.206-11.789,21.424c-6.193,4.936-13.43,7.436-21.526,7.436
			c-6.956,0-13.482-1.917-19.484-5.712c0.009,0.754-0.244,1.501-0.725,2.102c-0.63,0.791-1.591,1.257-2.605,1.257H517.75
			c-1.835,0-3.33-1.495-3.33-3.33v-28.393c0-1.843,1.495-3.33,3.33-3.33h11.596c-0.252-0.083-0.48-0.156-0.695-0.237
			c-0.089-0.031-0.178-0.067-0.259-0.104c-9.851-4.558-14.845-14.089-14.845-28.349c0-13.149,4.321-23.443,12.847-30.584
			c6.675-5.676,14.4-8.554,22.947-8.554c6.489,0,12.432,1.761,17.753,5.247c0.148-0.488,0.406-0.932,0.762-1.309
			c0.629-0.667,1.502-1.044,2.42-1.044h16.168c1.844,0,3.33,1.487,3.33,3.33v30.747c0,1.843-1.486,3.33-3.33,3.33h-7.369
			c5.023,3.167,8.68,6.653,10.87,10.352c0.03,0.052,0.06,0.104,0.082,0.156c2.278,4.381,3.381,10.138,3.388,17.611V904.776z
			 M665.514,934.132c-6.201,4.936-13.439,7.436-21.527,7.436c-6.955,0-13.482-1.917-19.484-5.712
			c0.008,0.754-0.244,1.501-0.725,2.102c-0.629,0.791-1.591,1.257-2.604,1.257h-18.93c-1.843,0-3.329-1.495-3.329-3.33v-28.393
			c0-1.843,1.486-3.33,3.329-3.33h11.589c-0.244-0.083-0.475-0.156-0.696-0.237c-0.089-0.031-0.169-0.067-0.259-0.104
			c-9.85-4.558-14.845-14.089-14.845-28.349c0-13.149,4.321-23.443,12.854-30.584c6.667-5.676,14.4-8.554,22.947-8.554
			c6.482,0,12.432,1.761,17.745,5.247c0.155-0.488,0.407-0.932,0.763-1.309c0.629-0.667,1.51-1.044,2.426-1.044h16.17
			c1.835,0,3.33,1.487,3.33,3.33v30.747c0,1.843-1.495,3.33-3.33,3.33h-7.379c5.025,3.167,8.688,6.653,10.871,10.352
			c0.03,0.052,0.06,0.104,0.09,0.156c2.279,4.381,3.382,10.152,3.382,17.634C677.901,917.592,673.734,927.463,665.514,934.132z"/>
		<path fill="#FFF6CC" d="M454.471,737.963c2.726-2.179,4.713-4.499,5.911-6.897c0.41-0.988,1.152-3.3,2.403-8.703
			c0.309-1.616,0.928-3.046,1.849-4.276c-2.809-5.481-5.092-9.301-6.799-11.371c-3.186-3.896-6.889-5.673-11.326-5.484
			c-1.472,0.062-2.813-0.848-3.293-2.243c-0.48-1.394,0.014-2.938,1.214-3.795c0.676-0.482,1.439-0.722,3.268-1.026
			c0.998-0.167,2.428-0.482,4.248-0.939c0.073-0.019,0.147-0.035,0.222-0.048c2.019-0.363,3.519-0.992,4.459-1.869
			c0.378-0.342,1.657-1.795,4.068-7.843c0.014-0.034,0.028-0.068,0.043-0.103c1.577-3.601,2.642-5.696,3.426-6.979
			c-3.188-8.361-5.974-14.19-8.29-17.341c-2.95-3.742-6.512-5.561-10.889-5.561h-62.858v8.714h5.57
			c2.471,0,8.219,1.047,8.219,10.746c0,0.781-0.043,1.854-0.132,3.281c-0.079,1.247-0.119,2.21-0.119,2.868
			c0,5.12-0.133,8.333-0.418,10.113c-0.497,2.861-1.396,5.131-2.688,6.802c1.353,1.958,2.256,4.491,2.696,7.574
			c0.272,1.836,0.407,5.213,0.41,10.303l0.117,1.694c0.005,0.077,0.008,0.153,0.008,0.23v3.255c0,8.691-2.47,13.097-7.341,13.097
			h-6.323v8.714h65.992C449.263,740.878,451.292,740.372,454.471,737.963z M415.706,666.795c0-1.839,1.491-3.33,3.33-3.33h10.404
			c2.991,0,5.667,1.489,7.955,4.423c2.088,2.681,3.147,5.813,3.147,9.31c0,3.455-0.829,6.618-2.465,9.4
			c-2.458,4.175-5.645,5.05-7.885,5.05h-11.157c-1.839,0-3.33-1.491-3.33-3.33V666.795z M429.44,731.983h-10.404
			c-1.839,0-3.33-1.491-3.33-3.33v-22.247c0-1.839,1.491-3.33,3.33-3.33h11.157c2.114,0,5.172,0.891,7.738,5.134
			c1.733,2.87,2.612,5.975,2.612,9.229c0,3.931-0.938,7.277-2.787,9.945C435.121,731.186,431.78,731.983,429.44,731.983z"/>
		<path fill="#FFF6CC" d="M482.035,662.206c5.517,0.261,9.09,1.836,10.889,4.792c0.93,1.413,1.772,4.083,1.772,13.181
			c0,6.525-0.161,8.444-0.282,9.319c-0.006,0.044-0.013,0.089-0.021,0.134c-0.464,2.579-1.422,4.775-2.86,6.566
			c1.576,1.927,2.579,4.429,2.994,7.485c0.094,0.533,0.169,1.865,0.169,10.319v7.958c0,0.101-0.004,0.202-0.014,0.303
			c-0.749,8.182-4.262,9.899-7.077,9.899h-5.57v8.714h70.059v-30.057h-11.395c0.002,0.098,0.002,0.193,0.002,0.287v1.628
			c0,12.891-3.398,19.427-10.1,19.427h-12.535c-1.84,0-3.33-1.491-3.33-3.33v-22.066c0-1.839,1.49-3.33,3.33-3.33h11.337v-11.427
			h-11.337c-1.84,0-3.33-1.491-3.33-3.33v-22.608c0-1.839,1.49-3.33,3.33-3.33h8.524c1.984,0,4.233,0.778,7.077,2.448
			c0.021,0.013,0.044,0.026,0.065,0.04c4.931,3.05,5.965,6.765,5.965,9.344v9.331h12.771v-30.419h-70.434V662.206z"/>
		<path fill="#FFF6CC" d="M582.302,670.413c0-4.731,3.054-7.671,7.968-7.671c0.968,0,3.234,0,4.482,1.781
			c0.393,0.56,0.604,1.227,0.604,1.911v21.705c0,2.018-1.09,4.419-3.57,7.768c1.723,1.973,2.82,4.335,3.273,7.059
			c0.006,0.031,0.01,0.062,0.015,0.093c0.12,0.878,0.282,2.969,0.282,10.945v9.767c0,0.1-0.005,0.2-0.014,0.299
			c-0.377,4.17-3.037,7-7.322,7.81c-0.545,0.153-1.493,0.237-4.197,0.269v8.73h40.599v-8.533h-0.305
			c-7.526,0-9.87-4.229-10.596-6.749c-0.251-0.846-0.506-2.463-0.506-11.593c0-8.476,0.072-9.646,0.175-10.178
			c0.529-3.607,1.631-6.351,3.291-8.209c-0.266-0.342-0.534-0.696-0.804-1.059c-0.683-0.913-1.28-1.85-1.773-2.778
			c-0.681-1.271-1.015-2.407-1.015-3.459v-22.247c0-1.839,1.491-3.33,3.33-3.33h3.008c2.887,0,4.514,2.715,5.05,3.607
			c1.075,1.798,1.656,3.457,1.78,5.074c0.007,0.085,0.011,0.171,0.011,0.256v12.767h12.269v-30.961h-68.428v31.142h12.394V670.413z"
			/>
		<path fill="#FFF6CC" d="M415.393,899.786h-12.394v10.054c0,4.744-1.838,8.66-5.315,11.325c-2.741,2.131-5.959,3.219-9.547,3.219
			c-1.07,0-1.924-0.036-2.609-0.108c-0.857-0.088-1.571-0.237-2.167-0.455c-1.314-0.48-2.189-1.729-2.189-3.127v-24.056
			c0-1.821,0.826-3.86,2.599-6.418c0.41-0.591,0.793-1.119,1.158-1.585c-1.651-2.029-2.762-4.46-3.317-7.268
			c-0.201-0.964-0.439-2.93-0.439-9.327c0-8.501,0.489-10.942,0.966-12.208c0.953-2.479,3.543-5.411,10.512-5.411h0.807v-8.533
			h-45.237v8.714h5.068c3.023,0,8.094,1.537,8.094,11.832v1.266c0,0.567-0.042,1.172-0.125,1.845v2.134
			c0,0.364,0.02,1.071,0.116,2.379c0.091,1.26,0.135,2.196,0.135,2.866c0,4.524-1.208,8.392-3.597,11.545
			c1.63,2.068,2.66,4.851,3.073,8.319c0.112,0.811,0.271,2.752,0.273,9.501l0.117,1.694c0.006,0.077,0.008,0.155,0.008,0.231v3.255
			c0,8.69-2.47,13.097-7.341,13.097h-5.821v8.714h67.174V899.786z"/>
		<path fill="#FFF6CC" d="M431.204,854.605c5.518,0.262,9.09,1.837,10.889,4.793c0.93,1.413,1.772,4.083,1.772,13.181
			c0,6.525-0.161,8.444-0.282,9.319c-0.006,0.044-0.014,0.089-0.021,0.133c-0.464,2.579-1.422,4.775-2.86,6.566
			c1.575,1.926,2.578,4.427,2.993,7.479c0.098,0.536,0.17,1.814,0.17,10.324v7.959c0,0.101-0.005,0.202-0.014,0.303
			c-0.749,8.181-4.262,9.899-7.077,9.899h-5.57v8.714h70.058v-30.057h-11.393c0.001,0.098,0.001,0.194,0.001,0.288v1.627
			c0,12.891-3.398,19.428-10.099,19.428h-12.536c-1.839,0-3.33-1.491-3.33-3.33v-22.066c0-1.84,1.491-3.33,3.33-3.33h11.336v-11.428
			h-11.336c-1.839,0-3.33-1.491-3.33-3.33v-22.608c0-1.839,1.491-3.33,3.33-3.33h8.524c1.958,0,4.273,0.801,7.077,2.448
			c0.022,0.013,0.044,0.026,0.066,0.04c4.93,3.05,5.965,6.765,5.965,9.343v9.331h12.771v-30.419h-70.434V854.605z"/>
		<path fill="#FFF6CC" d="M586.752,904.775c0-6.25-0.871-11.122-2.591-14.48c-1.596-2.661-4.362-5.271-8.231-7.764
			c-1.97-0.541-3.6-0.961-4.972-1.282c-1.634-0.382-2.874-0.685-3.79-0.927c-3.557-0.906-6.377-2.722-8.334-5.334
			c-2.203,1.445-4.398,1.827-6.107,1.827c-8.171,0-12.857-4.378-12.857-12.011c0-3.395,1.326-11.289,13.609-11.289
			c5.617,0,9.886,1.34,12.688,3.982c2.716,2.614,4.4,6.708,5.134,12.478h11.816v-24.088h-9.44c-0.046,1.435-0.212,2.522-0.505,3.368
			c-0.371,1.071-1.262,1.879-2.363,2.146s-2.264-0.045-3.083-0.829c-5.341-5.1-11.354-7.579-18.384-7.579
			c-7.021,0-13.121,2.285-18.652,6.984c-7.061,5.916-10.484,14.251-10.484,25.498c0,11.52,3.547,18.795,10.843,22.237
			c0.38,0.128,1.038,0.321,2.128,0.552c0.978,0.211,2.233,0.372,3.74,0.479c3.555,0.286,6.213,0.954,8.16,2.044
			c1.689,0.902,3.211,2.296,4.581,4.208c1.7-1.226,4.155-2.102,7.707-2.102c7.296,0,11.479,3.849,11.479,10.56
			c0,3.745-1.866,10.027-14.361,10.027c-9.935,0-16.272-4.466-18.14-12.661h-15.26v21.737h11.893c0-0.036,0-0.072,0-0.107
			c0-1.33,0.155-2.677,0.461-4.003c0.264-1.142,1.109-2.063,2.225-2.422c0.334-0.107,0.678-0.159,1.02-0.159
			c0.799,0,1.584,0.288,2.201,0.83c6.279,5.527,13.023,8.214,20.615,8.214c6.64,0,12.316-1.953,17.354-5.968
			C583.506,923.545,586.752,915.635,586.752,904.775z"/>
		<path fill="#FFF6CC" d="M671.242,904.775c0-6.248-0.873-11.12-2.592-14.482c-1.595-2.66-4.363-5.27-8.232-7.763
			c-1.967-0.54-3.596-0.96-4.97-1.283c-1.626-0.379-2.866-0.682-3.79-0.926c-3.559-0.906-6.379-2.721-8.334-5.334
			c-2.203,1.444-4.399,1.827-6.107,1.827c-8.172,0-12.857-4.378-12.857-12.011c0-3.395,1.326-11.289,13.608-11.289
			c5.616,0,9.886,1.34,12.689,3.982c2.715,2.614,4.399,6.708,5.133,12.478h11.817v-24.088h-9.441
			c-0.045,1.432-0.211,2.518-0.503,3.363c-0.37,1.072-1.261,1.882-2.362,2.15c-1.102,0.267-2.265-0.044-3.085-0.828
			c-5.342-5.1-11.356-7.579-18.384-7.579c-7.021,0-13.123,2.285-18.654,6.984c-7.061,5.916-10.484,14.251-10.484,25.498
			c0,11.52,3.548,18.795,10.844,22.235c0.381,0.13,1.039,0.322,2.129,0.555c0.977,0.209,2.233,0.37,3.74,0.477
			c3.555,0.286,6.214,0.954,8.16,2.044c1.688,0.902,3.209,2.296,4.58,4.208c1.699-1.226,4.156-2.102,7.708-2.102
			c7.294,0,11.478,3.849,11.478,10.56c0,3.745-1.865,10.027-14.361,10.027c-9.934,0-16.271-4.466-18.139-12.661h-15.261v21.737
			h11.894c0-0.036,0-0.072,0-0.107c0-1.334,0.155-2.681,0.461-4.005c0.265-1.143,1.109-2.063,2.226-2.421
			c0.334-0.107,0.679-0.159,1.019-0.159c0.799,0,1.584,0.288,2.2,0.83c6.279,5.527,13.022,8.214,20.614,8.214
			c6.639,0,12.316-1.953,17.355-5.968C667.996,923.545,671.242,915.635,671.242,904.775z"/>
		<path d="M471.655,717.223c-3.574-7.171-6.416-11.988-8.673-14.733c-1.428-1.739-2.96-3.204-4.603-4.374
			c1.051-0.533,1.968-1.169,2.745-1.895c1.784-1.605,3.552-4.765,5.735-10.234c2.213-5.039,3.079-6.312,3.293-6.586
			c1.014-0.91,1.369-2.353,0.896-3.641c-3.745-10.034-6.963-16.805-9.85-20.712c-0.015-0.022-0.037-0.052-0.059-0.074
			c-4.24-5.41-9.672-8.148-16.154-8.148H378.8c-1.843,0-3.33,1.488-3.33,3.33v15.37c0,1.843,1.487,3.33,3.33,3.33h8.895
			c0.43,0,1.562,0,1.562,4.092c0,0.629-0.044,1.598-0.118,2.864c-0.089,1.398-0.133,2.472-0.133,3.286
			c0,5.765-0.185,8.103-0.326,9.013c-0.252,1.458-0.888,3.989-2.272,4.507c-1.191,0.444-2.027,1.524-2.153,2.79
			c-0.118,1.265,0.481,2.494,1.569,3.16c1.442,0.896,2.405,2.901,2.841,5.979c0.155,1.043,0.34,3.53,0.34,9.458
			c0,0.074,0,0.155,0.007,0.229l0.118,1.694v3.138c0,4.433-0.673,5.994-0.939,6.438H378.8c-1.843,0-3.33,1.495-3.33,3.33v15.377
			c0,1.835,1.487,3.33,3.33,3.33h69.316c3.204,0,6.608-1.406,10.419-4.299c0.015-0.015,0.037-0.03,0.06-0.044
			c3.544-2.834,6.171-5.95,7.807-9.28c0.022-0.052,0.052-0.104,0.074-0.155c0.748-1.761,1.672-5.017,2.812-9.968
			c0.015-0.044,0.022-0.096,0.03-0.148c0.185-0.999,0.614-1.709,1.384-2.294C471.966,720.383,472.374,718.651,471.655,717.223z
			 M462.783,722.366c-1.251,5.402-1.991,7.71-2.398,8.703c-1.199,2.397-3.189,4.713-5.913,6.896
			c-3.182,2.405-5.209,2.916-6.356,2.916H382.13v-8.717h6.319c4.87,0,7.341-4.403,7.341-13.098v-3.256c0-0.074,0-0.148-0.007-0.229
			l-0.118-1.695c0-5.091-0.141-8.465-0.407-10.301c-0.444-3.085-1.347-5.616-2.701-7.578c1.295-1.665,2.19-3.937,2.694-6.801
			c0.281-1.776,0.415-4.995,0.415-10.108c0-0.659,0.037-1.628,0.118-2.872c0.089-1.428,0.133-2.501,0.133-3.278
			c0-9.702-5.75-10.752-8.222-10.752h-5.564v-8.71h62.855c4.374,0,7.94,1.82,10.885,5.558c2.316,3.152,5.106,8.984,8.295,17.346
			c-0.784,1.28-1.85,3.375-3.426,6.978c-0.015,0.03-0.029,0.067-0.044,0.104c-2.412,6.046-3.692,7.497-4.07,7.844
			c-0.94,0.873-2.442,1.502-4.455,1.865c-0.082,0.015-0.156,0.03-0.229,0.052c-1.82,0.452-3.249,0.77-4.248,0.939
			c-1.828,0.304-2.59,0.541-3.264,1.021c-1.199,0.858-1.694,2.405-1.213,3.796c0.481,1.398,1.82,2.301,3.293,2.242
			c4.433-0.185,8.14,1.591,11.322,5.483c1.709,2.072,3.997,5.89,6.801,11.374C463.715,719.317,463.094,720.745,462.783,722.366z"/>
		<path d="M419.036,691.649h11.157c2.24,0,5.427-0.875,7.885-5.05c1.636-2.782,2.465-5.945,2.465-9.4
			c0-3.497-1.059-6.629-3.147-9.31c-2.287-2.935-4.963-4.423-7.955-4.423h-10.404c-1.839,0-3.33,1.491-3.33,3.33v21.524
			C415.706,690.158,417.197,691.649,419.036,691.649z M422.366,670.125h7.075c0.832,0,1.741,0.625,2.701,1.856
			c1.172,1.504,1.741,3.21,1.741,5.217c0,2.284-0.506,4.254-1.545,6.023c-1.041,1.768-1.842,1.768-2.144,1.768h-7.827V670.125z"/>
		<path d="M437.931,708.21c-2.565-4.244-5.624-5.134-7.738-5.134h-11.157c-1.839,0-3.33,1.491-3.33,3.33v22.247
			c0,1.839,1.491,3.33,3.33,3.33h10.404c2.339,0,5.681-0.798,8.315-4.599c1.849-2.668,2.787-6.015,2.787-9.945
			C440.542,714.185,439.664,711.08,437.931,708.21z M429.44,725.324h-7.075v-15.587h7.827c0.792,0,1.69,1.343,2.038,1.918
			c1.111,1.84,1.651,3.732,1.651,5.785c0,2.549-0.539,4.62-1.6,6.151C431.224,725.118,430.252,725.324,429.44,725.324z"/>
		<path d="M536.368,690.561h19.433c0.651,0,1.258-0.192,1.775-0.518c0.933-0.592,1.555-1.621,1.555-2.812v-37.074
			c0-1.376-0.836-2.553-2.02-3.063c-0.4-0.17-0.844-0.267-1.311-0.267h-77.093c-1.842,0-3.33,1.488-3.33,3.33v15.37
			c0,0.91,0.363,1.776,1.021,2.405c0.651,0.629,1.524,0.962,2.435,0.925c0.518-0.022,1.014-0.03,1.495-0.03
			c5.653,0,6.756,1.376,6.918,1.65c0.015,0.038,0.037,0.074,0.059,0.104c0.126,0.303,0.733,2.153,0.733,9.598
			c0,5.743-0.133,7.688-0.214,8.347c-0.43,2.301-1.421,3.87-3.108,4.929c-1.006,0.629-1.605,1.739-1.569,2.93
			c0.037,1.184,0.703,2.257,1.747,2.819c0.622,0.34,2.508,1.362,3.042,5.461c0.007,0.022,0.007,0.044,0.015,0.066
			c0.022,0.34,0.089,1.939,0.089,9.272v7.799c-0.222,2.287-0.629,3.308-0.844,3.7h-8.488c-1.842,0-3.33,1.495-3.33,3.33v15.377
			c0,1.835,1.488,3.33,3.33,3.33h76.716c1.842,0,3.33-1.495,3.33-3.33v-36.719c0-1.842-1.488-3.33-3.33-3.33h-18.175
			c-0.415,0-0.814,0.074-1.185,0.214v-13.823C536.162,690.561,536.265,690.561,536.368,690.561z M534.022,709.838
			c0.015,0.473,0.022,0.895,0.022,1.272v1.628c0,7.755-1.354,12.765-3.441,12.765h-9.205v-15.407h11.336
			C533.187,710.096,533.623,710.008,534.022,709.838z M521.398,685.351v-15.947h5.194c0.178,0,1.214,0.074,3.671,1.51
			c2.774,1.731,2.774,3.182,2.774,3.663v10.79c-0.103-0.007-0.199-0.015-0.304-0.015H521.398z M533.734,665.23
			c-0.022-0.015-0.045-0.03-0.066-0.037c-2.842-1.672-5.092-2.449-7.075-2.449h-8.524c-1.843,0-3.33,1.487-3.33,3.33v22.606
			c0,1.843,1.487,3.33,3.33,3.33h11.336v11.426h-11.336c-1.843,0-3.33,1.495-3.33,3.33v22.067c0,1.842,1.487,3.33,3.33,3.33h12.535
			c6.697,0,10.102-6.534,10.102-19.425v-1.628c0-0.096-0.008-0.192-0.008-0.289h11.396v30.059h-70.056v-8.717h5.564
			c2.82,0,6.334-1.717,7.082-9.902c0.007-0.096,0.015-0.199,0.015-0.303v-7.955c0-8.451-0.082-9.783-0.17-10.323
			c-0.415-3.049-1.42-5.557-2.997-7.481c1.436-1.791,2.398-3.989,2.864-6.564c0.008-0.044,0.015-0.089,0.015-0.133
			c0.125-0.881,0.289-2.797,0.289-9.324c0-9.094-0.844-11.766-1.776-13.179c-1.798-2.96-5.373-4.529-10.886-4.795v-8.717h70.433
			V683.9h-12.772v-9.324C539.698,671.994,538.662,668.279,533.734,665.23z"/>
		<path d="M641.662,646.826h-75.087c-1.835,0-3.33,1.488-3.33,3.33v37.799c0,1.843,1.495,3.33,3.33,3.33h19.056
			c0.555,0,1.072-0.133,1.531-0.37c-0.584,0.851-1.377,1.917-2.471,3.249c-0.586,0.71-0.852,1.628-0.733,2.538
			c0.118,0.917,0.606,1.739,1.354,2.271c1.768,1.28,2.805,2.923,3.166,5.032c0.082,0.651,0.215,2.819,0.215,9.998v9.605
			c-0.096,0.881-0.354,1.48-2.079,1.754c-0.081,0.015-0.155,0.03-0.229,0.044c-0.362,0.03-1.635,0.097-5.891,0.097
			c-1.842,0-3.33,1.495-3.33,3.33v15.377c0,1.835,1.488,3.33,3.33,3.33h47.257c1.843,0,3.33-1.495,3.33-3.33v-15.377
			c0-0.984-0.437-1.924-1.198-2.553c-0.756-0.636-1.754-0.902-2.73-0.725c-0.459,0.089-0.896,0.133-1.281,0.133h-1.754
			c-3.5,0-3.98-1.214-4.18-1.887c-0.075-0.385-0.26-2.153-0.26-9.797c0-7.038,0.052-8.695,0.082-9.08
			c0-0.015,0.006-0.029,0.006-0.037c0.26-1.828,0.941-4.951,2.591-5.394c1.185-0.326,2.102-1.273,2.376-2.479
			c0.273-1.199-0.141-2.45-1.074-3.256c-0.185-0.163-0.518-0.488-1.043-1.132c-0.488-0.592-1.006-1.25-1.531-1.954
			c0.488,0.274,1.051,0.437,1.649,0.437h18.929c1.844,0,3.33-1.495,3.33-3.33v-37.622
			C644.992,648.314,643.506,646.826,641.662,646.826z M638.333,684.448h-12.27v-12.772c0-0.082,0-0.17-0.007-0.251
			c-0.126-1.621-0.703-3.278-1.783-5.077c-0.533-0.888-2.161-3.604-5.047-3.604h-3.005c-1.843,0-3.33,1.487-3.33,3.33v22.244
			c0,1.051,0.333,2.19,1.015,3.463c0.488,0.925,1.087,1.865,1.768,2.775c0.273,0.362,0.541,0.718,0.807,1.058
			c-1.657,1.857-2.76,4.603-3.293,8.207c-0.104,0.533-0.17,1.709-0.17,10.183c0,9.131,0.252,10.745,0.504,11.596
			c0.725,2.516,3.07,6.749,10.596,6.749h0.304v8.532h-40.597v-8.732c2.701-0.029,3.648-0.118,4.197-0.267
			c4.283-0.813,6.94-3.641,7.318-7.814c0.014-0.097,0.014-0.2,0.014-0.296v-9.768c0-7.978-0.162-10.064-0.281-10.945
			c-0.007-0.029-0.007-0.059-0.014-0.096c-0.452-2.723-1.547-5.083-3.271-7.06c2.479-3.345,3.566-5.75,3.566-7.763v-21.704
			c0-0.688-0.207-1.354-0.6-1.917c-1.25-1.776-3.515-1.776-4.484-1.776c-4.913,0-7.969,2.938-7.969,7.666v14.215h-12.396v-31.139
			h68.428V684.448z"/>
		<path d="M418.723,893.128h-19.055c-1.835,0-3.33,1.487-3.33,3.33v13.379c0,2.708-0.858,4.625-2.723,6.053
			c-1.584,1.236-3.375,1.836-5.476,1.836c-0.111,0-0.208,0-0.311-0.009v-21.045c0.007-0.029,0.096-0.762,1.413-2.664
			c0.999-1.435,1.554-2.035,1.776-2.25c0.992-0.399,1.739-1.257,1.991-2.322c0.303-1.295-0.192-2.642-1.258-3.434
			c-1.916-1.429-3.1-3.367-3.611-5.965c-0.096-0.436-0.311-2.101-0.311-7.999c0-7.911,0.451-9.605,0.532-9.834
			c0.2-0.518,1.443-1.125,4.285-1.125h1.88c0.496,0,1.103,0.052,1.791,0.148c0.955,0.141,1.924-0.148,2.649-0.784
			c0.733-0.629,1.147-1.546,1.147-2.516v-15.37c0-1.843-1.487-3.33-3.33-3.33h-51.896c-1.835,0-3.33,1.487-3.33,3.33v15.37
			c0,1.843,1.495,3.33,3.33,3.33h8.399c1.398,0,1.436,4.647,1.436,5.173v1.265c0,0.326-0.03,0.718-0.096,1.176
			c-0.022,0.148-0.03,0.304-0.03,0.452v2.353c0,0.703,0.044,1.636,0.133,2.864c0.082,1.08,0.118,1.879,0.118,2.382
			c0,3.967-1.265,6.986-3.862,9.236c-0.814,0.71-1.236,1.761-1.14,2.834c0.103,1.072,0.717,2.026,1.65,2.567
			c1.54,0.889,2.501,2.908,2.879,6.076c0.081,0.591,0.222,2.523,0.222,8.769c0,0.074,0,0.155,0.007,0.23l0.119,1.694v3.138
			c0,4.433-0.674,5.994-0.94,6.438h-8.895c-1.835,0-3.33,1.496-3.33,3.33v15.378c0,1.835,1.495,3.33,3.33,3.33h73.837
			c1.835,0,3.33-1.495,3.33-3.33v-40.152C422.053,894.616,420.559,893.128,418.723,893.128z M415.394,933.281h-67.178v-8.718h5.824
			c4.869,0,7.34-4.402,7.34-13.097v-3.256c0-0.074,0-0.155-0.007-0.229l-0.119-1.695c0-6.748-0.163-8.688-0.274-9.501
			c-0.415-3.47-1.443-6.252-3.071-8.318c2.39-3.152,3.596-7.022,3.596-11.544c0-0.673-0.044-1.605-0.133-2.871
			c-0.097-1.302-0.119-2.013-0.119-2.375v-2.131c0.081-0.674,0.125-1.281,0.125-1.85v-1.265c0-10.294-5.069-11.833-8.095-11.833
			h-5.069v-8.709h45.236v8.532h-0.807c-6.963,0-9.553,2.93-10.508,5.41c-0.481,1.266-0.969,3.708-0.969,12.21
			c0,6.394,0.244,8.362,0.444,9.324c0.555,2.812,1.665,5.24,3.315,7.268c-0.362,0.473-0.747,0.999-1.162,1.591
			c-1.769,2.552-2.597,4.595-2.597,6.416v24.058c0,1.397,0.873,2.649,2.19,3.129c0.599,0.215,1.31,0.363,2.168,0.452
			c0.688,0.074,1.539,0.111,2.612,0.111c3.582,0,6.8-1.088,9.546-3.22c3.478-2.664,5.313-6.584,5.313-11.328v-10.049h12.395V933.281
			z"/>
		<path d="M485.538,882.96h19.432c1.199,0,2.25-0.644,2.834-1.599c0.303-0.51,0.496-1.095,0.496-1.731v-37.074
			c0-1.843-1.495-3.33-3.33-3.33h-77.093c-1.842,0-3.33,1.487-3.33,3.33v15.37c0,0.911,0.363,1.776,1.021,2.405
			c0.651,0.622,1.539,0.955,2.435,0.925c0.518-0.022,1.014-0.03,1.495-0.03c5.654,0,6.756,1.376,6.912,1.65
			c0.022,0.037,0.044,0.074,0.066,0.104c0.126,0.304,0.726,2.153,0.726,9.598c0,5.743-0.126,7.689-0.207,8.347
			c-0.43,2.302-1.421,3.871-3.116,4.929c-0.999,0.629-1.598,1.739-1.562,2.93c0.037,1.184,0.703,2.257,1.747,2.82
			c0.622,0.339,2.508,1.361,3.042,5.461c0.007,0.022,0.007,0.043,0.015,0.067c0.022,0.339,0.082,1.945,0.082,9.271v7.799
			c-0.222,2.295-0.622,3.309-0.836,3.7h-8.488c-1.842,0-3.33,1.496-3.33,3.33v15.378c0,1.835,1.488,3.33,3.33,3.33h76.716
			c1.835,0,3.33-1.495,3.33-3.33v-36.72c0-1.843-1.495-3.33-3.33-3.33h-18.174c-0.415,0-0.814,0.075-1.184,0.215v-13.823
			C485.331,882.96,485.434,882.96,485.538,882.96z M483.185,902.237c0.015,0.474,0.022,0.903,0.022,1.273v1.627
			c0,7.755-1.347,12.765-3.433,12.765h-9.206v-15.406h11.337C482.356,902.497,482.792,902.408,483.185,902.237z M470.567,877.751
			v-15.947h5.195c0.178,0,1.214,0.074,3.671,1.509c2.775,1.731,2.775,3.182,2.775,3.663v10.79c-0.104-0.008-0.2-0.015-0.304-0.015
			H470.567z M482.903,857.631c-0.022-0.016-0.044-0.03-0.066-0.038c-2.805-1.65-5.121-2.449-7.075-2.449h-8.525
			c-1.842,0-3.33,1.487-3.33,3.33v22.607c0,1.843,1.488,3.33,3.33,3.33h11.337v11.426h-11.337c-1.842,0-3.33,1.495-3.33,3.33v22.066
			c0,1.843,1.488,3.33,3.33,3.33h12.536c6.697,0,10.093-6.534,10.093-19.425v-1.917h11.396v30.06h-70.056v-8.718h5.564
			c2.82,0,6.334-1.715,7.082-9.9c0.007-0.097,0.007-0.199,0.007-0.303v-7.955c0-8.51-0.066-9.791-0.17-10.322
			c-0.415-3.057-1.414-5.559-2.99-7.482c1.436-1.791,2.398-3.988,2.856-6.563c0.015-0.044,0.022-0.089,0.022-0.133
			c0.125-0.881,0.281-2.797,0.281-9.324c0-9.095-0.836-11.766-1.769-13.179c-1.798-2.96-5.372-4.529-10.885-4.795v-8.717h70.433
			V876.3h-12.772v-9.324C488.868,864.394,487.832,860.679,482.903,857.631z"/>
		<path d="M590.026,887.142c-0.022-0.052-0.052-0.104-0.082-0.156c-2.19-3.699-5.847-7.185-10.87-10.352h7.369
			c1.844,0,3.33-1.487,3.33-3.33v-30.747c0-1.843-1.486-3.33-3.33-3.33h-16.168c-0.918,0-1.791,0.377-2.42,1.044
			c-0.355,0.377-0.613,0.821-0.762,1.309c-5.321-3.485-11.264-5.247-17.753-5.247c-8.547,0-16.272,2.878-22.947,8.554
			c-8.525,7.142-12.847,17.435-12.847,30.584c0,14.26,4.994,23.791,14.845,28.349c0.081,0.038,0.17,0.074,0.259,0.104
			c0.215,0.081,0.443,0.154,0.695,0.237H517.75c-1.835,0-3.33,1.487-3.33,3.33v28.393c0,1.835,1.495,3.33,3.33,3.33h18.929
			c1.015,0,1.976-0.467,2.605-1.257c0.48-0.6,0.733-1.347,0.725-2.102c6.002,3.795,12.528,5.712,19.484,5.712
			c8.097,0,15.333-2.5,21.526-7.436c6.438-5.218,10.375-12.404,11.789-21.424c0.393-2.508,0.605-5.143,0.605-7.932v-0.023
			C593.407,897.28,592.305,891.523,590.026,887.142z M576.846,928.936c-5.031,4.02-10.707,5.972-17.353,5.972
			c-7.593,0-14.334-2.686-20.616-8.214c-0.613-0.541-1.398-0.828-2.198-0.828c-0.341,0-0.688,0.051-1.021,0.155
			c-1.117,0.363-1.961,1.281-2.221,2.427c-0.311,1.325-0.466,2.672-0.466,3.996v0.111H521.08v-21.733h15.258
			c1.873,8.19,8.208,12.654,18.146,12.654c12.49,0,14.355-6.283,14.355-10.028c0-6.705-4.182-10.56-11.478-10.56
			c-3.552,0-6.009,0.88-7.704,2.102c-1.368-1.909-2.893-3.3-4.58-4.203c-1.945-1.095-4.61-1.762-8.162-2.049
			c-1.51-0.104-2.76-0.267-3.736-0.474c-1.096-0.229-1.754-0.422-2.132-0.555c-7.296-3.441-10.841-10.716-10.841-22.237
			c0-11.248,3.418-19.581,10.485-25.493c5.528-4.699,11.626-6.985,18.648-6.985c7.03,0,13.046,2.479,18.382,7.578
			c0.821,0.784,1.982,1.095,3.085,0.829c1.103-0.266,1.991-1.073,2.361-2.146c0.296-0.843,0.458-1.932,0.51-3.367h9.435v24.087
			h-11.81c-0.74-5.772-2.419-9.864-5.136-12.477c-2.805-2.642-7.074-3.981-12.691-3.981c-12.283,0-13.607,7.896-13.607,11.285
			c0,7.637,4.684,12.011,12.861,12.011c1.701,0,3.898-0.378,6.104-1.82c1.953,2.611,4.772,4.425,8.332,5.327
			c0.918,0.244,2.153,0.548,3.789,0.933c1.376,0.318,3.005,0.74,4.973,1.28c3.87,2.494,6.638,5.1,8.229,7.763
			c1.725,3.359,2.598,8.228,2.598,14.482C586.755,915.632,583.506,923.542,576.846,928.936z M542.48,907.011
			c1.34,0.999,2.643,2.916,3.805,5.602c0.576,1.324,1.932,2.13,3.373,1.99c1.437-0.14,2.62-1.184,2.931-2.59
			c0.192-0.858,0.548-2.464,4.773-2.464c4.455,0,4.817,1.769,4.817,3.899c0,0.925,0,3.368-7.695,3.368
			c-9.857,0-11.582-5.144-11.981-9.62C542.496,907.129,542.496,907.07,542.48,907.011z M564.799,871.728
			c-0.851-0.844-1.465-1.917-1.879-3.227c-0.378-1.199-1.398-2.079-2.643-2.279c-0.178-0.03-0.355-0.044-0.533-0.044
			c-1.058,0-2.063,0.503-2.693,1.375c-1.693,2.332-3.277,2.598-4.32,2.598c-5.166,0-6.201-2.043-6.201-5.351
			c0-1.731,0-4.625,6.947-4.625c3.863,0,6.594,0.726,8.097,2.146C562.75,863.447,564.207,866,564.799,871.728z"/>
		<path d="M674.52,887.142c-0.03-0.052-0.06-0.104-0.09-0.156c-2.183-3.699-5.846-7.185-10.871-10.352h7.379
			c1.835,0,3.33-1.487,3.33-3.33v-30.747c0-1.843-1.495-3.33-3.33-3.33h-16.17c-0.916,0-1.797,0.377-2.426,1.044
			c-0.355,0.377-0.607,0.821-0.763,1.309c-5.313-3.485-11.263-5.247-17.745-5.247c-8.547,0-16.28,2.878-22.947,8.554
			c-8.533,7.142-12.854,17.435-12.854,30.584c0,14.26,4.995,23.791,14.845,28.349c0.09,0.038,0.17,0.074,0.259,0.104
			c0.222,0.081,0.452,0.154,0.696,0.237h-11.589c-1.843,0-3.329,1.487-3.329,3.33v28.393c0,1.835,1.486,3.33,3.329,3.33h18.93
			c1.014,0,1.976-0.467,2.604-1.257c0.48-0.6,0.732-1.347,0.725-2.102c6.002,3.795,12.529,5.712,19.484,5.712
			c8.088,0,15.326-2.5,21.527-7.436c8.221-6.669,12.388-16.541,12.388-29.356C677.901,897.294,676.799,891.523,674.52,887.142z
			 M661.34,928.936c-5.039,4.02-10.715,5.972-17.354,5.972c-7.592,0-14.334-2.686-20.616-8.214
			c-0.614-0.541-1.398-0.828-2.197-0.828c-0.341,0-0.688,0.051-1.021,0.155c-1.118,0.363-1.961,1.281-2.228,2.419
			c-0.303,1.325-0.459,2.672-0.459,4.003v0.111h-11.892v-21.733h15.259c1.865,8.19,8.207,12.654,18.138,12.654
			c12.498,0,14.363-6.283,14.363-10.028c0-6.705-4.181-10.56-11.478-10.56c-3.553,0-6.009,0.88-7.711,2.102
			c-1.369-1.909-2.893-3.3-4.58-4.203c-1.946-1.095-4.604-1.762-8.155-2.049c-1.51-0.104-2.767-0.267-3.744-0.474
			c-1.088-0.229-1.747-0.422-2.132-0.555c-7.289-3.441-10.841-10.716-10.841-22.237c0-11.24,3.427-19.581,10.485-25.493
			c5.529-4.699,11.634-6.985,18.656-6.985s13.039,2.479,18.382,7.578c0.821,0.784,1.983,1.095,3.086,0.829
			c1.103-0.266,1.989-1.081,2.36-2.153c0.296-0.844,0.459-1.932,0.502-3.36h9.443v24.087h-11.818
			c-0.732-5.772-2.42-9.864-5.135-12.477c-2.797-2.642-7.066-3.981-12.684-3.981c-12.284,0-13.609,7.896-13.609,11.285
			c0,7.637,4.685,12.011,12.854,12.011c1.709,0,3.907-0.378,6.104-1.82c1.961,2.611,4.781,4.425,8.34,5.327
			c0.918,0.244,2.161,0.548,3.789,0.933c1.377,0.318,3.004,0.74,4.965,1.28c3.871,2.494,6.639,5.106,8.237,7.763
			c1.716,3.359,2.59,8.235,2.59,14.482C671.241,915.632,667.992,923.542,661.34,928.936z M626.975,907.011
			c1.332,0.999,2.634,2.916,3.803,5.602c0.57,1.324,1.939,2.123,3.367,1.99c1.436-0.14,2.627-1.184,2.938-2.59
			c0.193-0.858,0.548-2.464,4.773-2.464c4.455,0,4.817,1.769,4.817,3.899c0,0.925,0,3.368-7.703,3.368
			c-9.857,0-11.573-5.144-11.974-9.62C626.988,907.129,626.981,907.07,626.975,907.011z M649.285,871.728
			c-0.844-0.844-1.458-1.917-1.872-3.219c-0.378-1.207-1.399-2.086-2.642-2.287c-0.178-0.03-0.355-0.044-0.533-0.044
			c-1.059,0-2.064,0.503-2.701,1.375c-1.688,2.332-3.277,2.598-4.321,2.598c-5.157,0-6.194-2.043-6.194-5.351
			c0-1.731,0-4.625,6.949-4.625c3.863,0,6.593,0.726,8.096,2.138C647.235,863.447,648.693,866,649.285,871.728z"/>
	</g>
</g>
</svg>
