<?xml version="1.0" encoding="utf-8"?>
<!-- Generator: Adobe Illustrator 16.0.0, SVG Export Plug-In . SVG Version: 6.00 Build 0)  -->
<!DOCTYPE svg PUBLIC "-//W3C//DTD SVG 1.1//EN" "http://www.w3.org/Graphics/SVG/1.1/DTD/svg11.dtd">
<svg version="1.1" id="Layer_1" xmlns="http://www.w3.org/2000/svg" xmlns:xlink="http://www.w3.org/1999/xlink" x="0px" y="0px"
	 width="486.332px" height="537.373px" viewBox="0 0 486.332 537.373" enable-background="new 0 0 486.332 537.373"
	 xml:space="preserve">
<g>
	<g>
		<g>
			
				<linearGradient id="SVGID_1_" gradientUnits="userSpaceOnUse" x1="-142.2385" y1="39.0193" x2="-7.7105" y2="13.3533" gradientTransform="matrix(1 0 0 1 428.7998 183.1992)">
				<stop  offset="0" style="stop-color:#49392D"/>
				<stop  offset="1" style="stop-color:#574537"/>
			</linearGradient>
			<polygon fill="url(#SVGID_1_)" stroke="#000000" stroke-linejoin="round" stroke-miterlimit="10" points="446.431,230.485 
				442.611,232.145 442.601,232.145 410.231,246.205 387.581,238.177 387.581,238.167 355.011,226.615 328.421,217.177 
				327.651,216.905 318.631,213.705 316.271,212.865 280.421,201.096 280.409,201.096 279.501,175.985 			"/>
			
				<linearGradient id="SVGID_2_" gradientUnits="userSpaceOnUse" x1="-161.9812" y1="73.6731" x2="15.677" y2="5.9935" gradientTransform="matrix(1 0 0 1 428.7998 183.1992)">
				<stop  offset="0" style="stop-color:#49392D"/>
				<stop  offset="1" style="stop-color:#574537"/>
			</linearGradient>
			<polygon fill="url(#SVGID_2_)" stroke="#000000" stroke-linejoin="round" stroke-miterlimit="10" points="316.271,212.865 
				315.771,287.226 315.601,287.298 285.901,300.195 280.421,201.096 			"/>
			
				<linearGradient id="SVGID_3_" gradientUnits="userSpaceOnUse" x1="-94.5125" y1="111.0852" x2="-124.5801" y2="10.9679" gradientTransform="matrix(1 0 0 1 428.7998 183.1992)">
				<stop  offset="0" style="stop-color:#866850"/>
				<stop  offset="1" style="stop-color:#5D4937"/>
			</linearGradient>
			<polygon fill="url(#SVGID_3_)" stroke="#000000" stroke-linejoin="round" stroke-miterlimit="10" points="327.641,216.917 
				326.501,282.565 326.391,282.615 315.771,287.226 315.601,287.298 316.271,212.865 318.631,213.705 326.391,216.468 			"/>
			
				<linearGradient id="SVGID_4_" gradientUnits="userSpaceOnUse" x1="-104.428" y1="66.7502" x2="-73.8712" y2="64.5674" gradientTransform="matrix(1 0 0 1 428.7998 183.1992)">
				<stop  offset="0" style="stop-color:#49392D"/>
				<stop  offset="1" style="stop-color:#574537"/>
			</linearGradient>
			<polygon fill="url(#SVGID_4_)" stroke="#000000" stroke-linejoin="round" stroke-miterlimit="10" points="355.011,226.615 
				352.301,271.365 326.501,282.565 326.391,282.615 327.651,216.905 			"/>
			
				<linearGradient id="SVGID_5_" gradientUnits="userSpaceOnUse" x1="-42.676" y1="64.2742" x2="-18.9387" y2="65.9943" gradientTransform="matrix(1 0 0 1 428.7998 183.1992)">
				<stop  offset="0" style="stop-color:#49392D"/>
				<stop  offset="1" style="stop-color:#574537"/>
			</linearGradient>
			<polygon fill="url(#SVGID_5_)" stroke="#000000" stroke-linejoin="round" stroke-miterlimit="10" points="410.231,246.205 
				385.74,256.846 385.731,256.846 387.571,238.177 387.581,238.177 			"/>
			
				<linearGradient id="SVGID_6_" gradientUnits="userSpaceOnUse" x1="-75.4622" y1="65.7869" x2="-38.9003" y2="66.2696" gradientTransform="matrix(1 0 0 1 428.7998 183.1992)">
				<stop  offset="0" style="stop-color:#49392D"/>
				<stop  offset="1" style="stop-color:#574537"/>
			</linearGradient>
			<polygon fill="url(#SVGID_6_)" stroke="#000000" stroke-linejoin="round" stroke-miterlimit="10" points="387.581,238.155 
				387.581,238.177 385.74,256.846 385.731,256.846 352.301,271.365 355.011,226.615 			"/>
		</g>
		<g>
			
				<linearGradient id="SVGID_7_" gradientUnits="userSpaceOnUse" x1="-415.9036" y1="34.6404" x2="-105.8103" y2="80.5035" gradientTransform="matrix(1 0 0 1 428.7998 183.1992)">
				<stop  offset="0" style="stop-color:#4B3A2D"/>
				<stop  offset="1" style="stop-color:#3C2F23"/>
			</linearGradient>
			<polygon fill="url(#SVGID_7_)" stroke="#000000" stroke-linejoin="round" stroke-miterlimit="10" points="285.901,300.195 
				261.289,310.886 253.681,211.596 280.409,201.096 280.421,201.096 			"/>
			
				<linearGradient id="SVGID_8_" gradientUnits="userSpaceOnUse" x1="-176.4758" y1="22.2092" x2="-176.1901" y2="113.819" gradientTransform="matrix(1 0 0 1 428.7998 183.1992)">
				<stop  offset="0" style="stop-color:#534030"/>
				<stop  offset="1" style="stop-color:#6D5441"/>
			</linearGradient>
			<polygon fill="url(#SVGID_8_)" stroke="#000000" stroke-linejoin="round" stroke-miterlimit="10" points="261.289,310.886 
				252.571,314.677 243.721,215.516 253.681,211.596 			"/>
			
				<linearGradient id="SVGID_9_" gradientUnits="userSpaceOnUse" x1="-342.3464" y1="103.1077" x2="-318.4663" y2="97.9667" gradientTransform="matrix(1 0 0 1 428.7998 183.1992)">
				<stop  offset="0" style="stop-color:#4B3A2D"/>
				<stop  offset="0.3858" style="stop-color:#48372A"/>
				<stop  offset="0.9844" style="stop-color:#3C2F23"/>
				<stop  offset="1" style="stop-color:#3C2F23"/>
			</linearGradient>
			<polygon fill="url(#SVGID_9_)" stroke="#000000" stroke-linejoin="round" stroke-miterlimit="10" points="113.171,293.655 
				82.329,278.905 109.501,268.245 			"/>
			
				<linearGradient id="SVGID_10_" gradientUnits="userSpaceOnUse" x1="-316.0042" y1="104.1267" x2="-284.9979" y2="99.3381" gradientTransform="matrix(1 0 0 1 428.7998 183.1992)">
				<stop  offset="0" style="stop-color:#4B3A2D"/>
				<stop  offset="0.3858" style="stop-color:#48372A"/>
				<stop  offset="0.9844" style="stop-color:#3C2F23"/>
				<stop  offset="1" style="stop-color:#3C2F23"/>
			</linearGradient>
			<polygon fill="url(#SVGID_10_)" stroke="#000000" stroke-linejoin="round" stroke-miterlimit="10" points="144.521,308.645 
				113.171,293.655 109.501,268.245 136.949,257.468 137.289,257.325 			"/>
			
				<linearGradient id="SVGID_11_" gradientUnits="userSpaceOnUse" x1="-284.7014" y1="70.0432" x2="-282.5738" y2="127.8357" gradientTransform="matrix(1 0 0 1 428.7998 183.1992)">
				<stop  offset="0" style="stop-color:#534030"/>
				<stop  offset="1" style="stop-color:#6D5441"/>
			</linearGradient>
			<polygon fill="url(#SVGID_11_)" stroke="#000000" stroke-linejoin="round" stroke-miterlimit="10" points="153.251,312.825 
				144.521,308.645 137.289,257.325 145.441,254.136 			"/>
			
				<linearGradient id="SVGID_12_" gradientUnits="userSpaceOnUse" x1="-370.5911" y1="107.052" x2="-139.0712" y2="97.8397" gradientTransform="matrix(1 0 0 1 428.7998 183.1992)">
				<stop  offset="0" style="stop-color:#4B3A2D"/>
				<stop  offset="1" style="stop-color:#3C2F23"/>
			</linearGradient>
			<polygon fill="url(#SVGID_12_)" stroke="#000000" stroke-linejoin="round" stroke-miterlimit="10" points="188.071,329.468 
				153.251,312.825 145.441,254.136 178.659,241.075 			"/>
			
				<linearGradient id="SVGID_13_" gradientUnits="userSpaceOnUse" x1="-244.0007" y1="103.8621" x2="-223.9573" y2="101.0346" gradientTransform="matrix(1 0 0 1 428.7998 183.1992)">
				<stop  offset="0" style="stop-color:#4B3A2D"/>
				<stop  offset="0.3858" style="stop-color:#48372A"/>
				<stop  offset="0.9844" style="stop-color:#3C2F23"/>
				<stop  offset="1" style="stop-color:#3C2F23"/>
			</linearGradient>
			<polygon fill="url(#SVGID_13_)" stroke="#000000" stroke-linejoin="round" stroke-miterlimit="10" points="209.561,333.355 
				202.551,336.395 188.071,329.468 178.659,241.075 198.441,233.298 			"/>
			
				<linearGradient id="SVGID_14_" gradientUnits="userSpaceOnUse" x1="-222.9109" y1="96.3914" x2="-202.0659" y2="94.2417" gradientTransform="matrix(1 0 0 1 428.7998 183.1992)">
				<stop  offset="0" style="stop-color:#4B3A2D"/>
				<stop  offset="0.3858" style="stop-color:#48372A"/>
				<stop  offset="0.9844" style="stop-color:#3C2F23"/>
				<stop  offset="1" style="stop-color:#3C2F23"/>
			</linearGradient>
			<polygon fill="url(#SVGID_14_)" stroke="#000000" stroke-linejoin="round" stroke-miterlimit="10" points="232.801,323.258 
				209.561,333.355 198.441,233.298 222.881,223.695 			"/>
			
				<linearGradient id="SVGID_15_" gradientUnits="userSpaceOnUse" x1="-200.7322" y1="89.3162" x2="-177.2027" y2="82.095" gradientTransform="matrix(1 0 0 1 428.7998 183.1992)">
				<stop  offset="0" style="stop-color:#4B3A2D"/>
				<stop  offset="0.3858" style="stop-color:#48372A"/>
				<stop  offset="0.9844" style="stop-color:#3C2F23"/>
				<stop  offset="1" style="stop-color:#3C2F23"/>
			</linearGradient>
			<polygon fill="url(#SVGID_15_)" stroke="#000000" stroke-linejoin="round" stroke-miterlimit="10" points="252.571,314.677 
				232.801,323.258 222.881,223.695 243.721,215.516 			"/>
		</g>
		
			<linearGradient id="SVGID_16_" gradientUnits="userSpaceOnUse" x1="-198.0808" y1="263.2986" x2="28.9706" y2="249.2231" gradientTransform="matrix(1 0 0 1 428.7998 183.1992)">
			<stop  offset="0" style="stop-color:#624937"/>
			<stop  offset="1" style="stop-color:#533E2D"/>
		</linearGradient>
		<polygon fill="url(#SVGID_16_)" stroke="#000000" stroke-linejoin="round" stroke-miterlimit="10" points="442.534,364.091 
			439.438,397.87 240.224,515.186 239.896,472.241 340.673,418.464 340.673,418.448 370.95,402.298 		"/>
		
			<linearGradient id="SVGID_17_" gradientUnits="userSpaceOnUse" x1="-135.3054" y1="123.032" x2="62.0714" y2="152.2242" gradientTransform="matrix(1 0 0 1 428.7998 183.1992)">
			<stop  offset="0" style="stop-color:#624937"/>
			<stop  offset="1" style="stop-color:#533E2D"/>
		</linearGradient>
		<polygon fill="url(#SVGID_17_)" stroke="#000000" stroke-linejoin="round" stroke-miterlimit="10" points="477.153,263.343 
			463.563,383.671 439.438,397.87 442.534,364.091 442.534,364.073 450.63,276.052 		"/>
		
			<linearGradient id="SVGID_18_" gradientUnits="userSpaceOnUse" x1="-231.7791" y1="270.4929" x2="-26.7207" y2="302.0541" gradientTransform="matrix(1 0 0 1 428.7998 183.1992)">
			<stop  offset="0" style="stop-color:#624937"/>
			<stop  offset="1" style="stop-color:#533E2D"/>
		</linearGradient>
		<polygon fill="url(#SVGID_18_)" stroke="#000000" stroke-linejoin="round" stroke-miterlimit="10" points="240.229,515.183 
			202.548,537.373 199.899,396.175 239.179,377.352 239.819,462.483 239.899,472.243 		"/>
		
			<line fill="none" stroke="#000000" stroke-linejoin="round" stroke-miterlimit="10" x1="480.179" y1="236.551" x2="480.179" y2="236.535"/>
		
			<linearGradient id="SVGID_19_" gradientUnits="userSpaceOnUse" x1="-237.948" y1="142.282" x2="54.9492" y2="124.3804" gradientTransform="matrix(1 0 0 1 428.7998 183.1992)">
			<stop  offset="0" style="stop-color:#624937"/>
			<stop  offset="1" style="stop-color:#533E2D"/>
		</linearGradient>
		<polygon fill="url(#SVGID_19_)" stroke="#000000" stroke-linejoin="round" stroke-miterlimit="10" points="480.179,236.551 
			477.153,263.343 450.63,276.052 440.749,280.792 420.081,290.685 395.837,302.296 376.212,311.712 343.251,327.509 
			335.175,331.366 334.833,331.528 307.606,344.567 274.349,360.498 239.181,377.351 199.901,396.173 199.306,364.551 
			200.944,365.386 		"/>
		
			<line fill="none" stroke="#000000" stroke-linejoin="round" stroke-miterlimit="10" x1="199.306" y1="364.551" x2="199.306" y2="364.507"/>
		
			<linearGradient id="SVGID_20_" gradientUnits="userSpaceOnUse" x1="-416.8484" y1="59.0076" x2="-225.1651" y2="198.1321" gradientTransform="matrix(1 0 0 1 428.7998 183.1992)">
			<stop  offset="0" style="stop-color:#897041"/>
			<stop  offset="1" style="stop-color:#FFEBC1"/>
		</linearGradient>
		<polygon fill="url(#SVGID_20_)" stroke="#000000" stroke-linejoin="round" stroke-miterlimit="10" points="200.941,350.056 
			200.941,365.386 199.311,364.556 199.301,364.548 6.021,266.645 3.381,265.306 1.159,253.895 		"/>
		
			<linearGradient id="SVGID_21_" gradientUnits="userSpaceOnUse" x1="23.2976" y1="78.3972" x2="-129.2398" y2="-74.1404" gradientTransform="matrix(1 0 0 1 428.7998 183.1992)">
			<stop  offset="0" style="stop-color:#695830"/>
			<stop  offset="1" style="stop-color:#E3CB9B"/>
		</linearGradient>
		<polygon fill="url(#SVGID_21_)" stroke="#000000" stroke-linejoin="round" stroke-miterlimit="10" points="486.331,221.766 
			466.501,221.766 279.501,163.065 279.501,154.485 		"/>
		
			<linearGradient id="SVGID_22_" gradientUnits="userSpaceOnUse" x1="-405.4094" y1="163.3953" x2="-258.8113" y2="135.4265" gradientTransform="matrix(1 0 0 1 428.7998 183.1992)">
			<stop  offset="0" style="stop-color:#604837"/>
			<stop  offset="1" style="stop-color:#6E5441"/>
		</linearGradient>
		<polygon fill="url(#SVGID_22_)" stroke="#000000" stroke-linejoin="round" stroke-miterlimit="10" points="199.899,396.175 
			157.208,373.813 122.798,355.323 122.798,355.313 87.89,336.553 59.489,321.273 58.669,320.844 46.548,314.313 11.31,295.384 
			6.019,266.653 199.31,364.553 		"/>
		
			<linearGradient id="SVGID_23_" gradientUnits="userSpaceOnUse" x1="-425.0803" y1="-45.4041" x2="-268.6302" y2="-42.9787" gradientTransform="matrix(1 0 0 1 428.7998 183.1992)">
			<stop  offset="0" style="stop-color:#604837"/>
			<stop  offset="1" style="stop-color:#705542"/>
		</linearGradient>
		<path fill="url(#SVGID_23_)" stroke="#000000" stroke-linejoin="round" stroke-miterlimit="10" d="M182.811,101.508l-0.029,0.01
			v0.01l-1.938,1.49l-22.932,0.319c-0.5-1.579-1-3.132-1.561-4.609c-3.39-9.33-7.92-16.69-13.3-22.22
			c-8.7-8.98-19.62-13.11-31.59-12.78c-21.19,0.609-45.69,15.17-67.03,41.54l-0.062,0.09c-1.96,2.44-3.898,4.97-5.811,7.6
			c-19.64,27.11-28.439,74.433-24.569,105.882L3.309,239.609c-4.569-43.979,9.08-107.84,36.11-144.37
			c20.358-27.5,41.08-45.05,60.448-52.81c4.99-2.013,9.899-3.353,14.689-4.051c0.051-0.012,0.11-0.012,0.16-0.021
			c4.66-0.67,9.2-0.72,13.608-0.14c0.32,0.027,0.631,0.067,0.932,0.118c3.148,0.472,6.24,1.271,9.229,2.392
			c0.3,0.108,0.602,0.229,0.899,0.35c1.561,0.603,3.091,1.3,4.591,2.09c2.529,1.32,4.979,2.883,7.359,4.69
			c0.05,0.04,0.101,0.07,0.148,0.12c1.932,1.47,3.812,3.108,5.63,4.897c0.222,0.211,0.432,0.433,0.642,0.65
			c0.351,0.37,0.71,0.75,1.061,1.13c0.069,0.08,0.141,0.16,0.22,0.24c2.632,2.83,5.15,5.979,7.5,9.5h0.012
			c1.33,1.99,2.63,4.09,3.88,6.31c2.42,4.29,4.67,8.98,6.729,14.103C179.24,89.945,181.119,95.516,182.811,101.508z"/>
		
			<linearGradient id="SVGID_24_" gradientUnits="userSpaceOnUse" x1="-154.7878" y1="-64.1833" x2="-56.3678" y2="-62.6575" gradientTransform="matrix(1 0 0 1 428.7998 183.1992)">
			<stop  offset="0" style="stop-color:#49392D"/>
			<stop  offset="1" style="stop-color:#594638"/>
		</linearGradient>
		<path fill="url(#SVGID_24_)" stroke="#000000" stroke-linejoin="round" stroke-miterlimit="10" d="M286.29,128.945l-4.681,9.03
			l-0.101,0.06l-0.142,0.092l-0.318,0.21l-0.302,0.198c-0.77,0.5-1.88,1.25-2.938,1.99l-0.521,0.36l-2.051,1.397l-0.391,0.263
			l-0.109,0.067c-0.41-7.09-0.58-13.43-0.34-19.92c0.21-6.02,0.77-12.17,1.79-19.16c0.26-1.817,0.56-3.698,0.89-5.658l8.12-2.102
			l0.649-0.16c-0.051,0.36-0.101,0.71-0.142,1.063c-0.09,0.659-0.17,1.31-0.25,1.938c-0.148,1.381-0.278,2.69-0.39,3.95
			c-0.08,0.92-0.141,1.8-0.19,2.67c-0.02,0.41-0.038,0.82-0.06,1.23c-0.03,0.71-0.051,1.409-0.061,2.1
			c-0.012,0.7-0.021,1.4-0.021,2.08c0.01,0.43,0.01,0.85,0.021,1.26c0,0.4,0.01,0.802,0.028,1.2c0.011,0.2,0.011,0.4,0.021,0.59
			c0.021,0.48,0.04,0.96,0.069,1.432c0.039,0.681,0.08,1.358,0.131,2.028c0.05,0.671,0.108,1.353,0.17,2.03
			c0,0.05,0.011,0.102,0.011,0.149c0.061,0.631,0.13,1.261,0.188,1.898c0.069,0.682,0.149,1.38,0.229,2.091
			c0.028,0.301,0.069,0.609,0.108,0.92c0.041,0.381,0.091,0.762,0.131,1.142c0.091,0.688,0.17,1.398,0.261,2.12
			C286.171,127.976,286.231,128.455,286.29,128.945z"/>
		
			<linearGradient id="SVGID_25_" gradientUnits="userSpaceOnUse" x1="-151.9788" y1="-86.4412" x2="-85.7684" y2="-85.4148" gradientTransform="matrix(1 0 0 1 428.7998 183.1992)">
			<stop  offset="0" style="stop-color:#85683B"/>
			<stop  offset="1" style="stop-color:#9B7A47"/>
		</linearGradient>
		<path fill="url(#SVGID_25_)" stroke="#000000" stroke-linejoin="round" stroke-miterlimit="10" d="M285.199,95.775l-8.118,2.1
			c0.01-0.077,0.028-0.157,0.038-0.237C280.199,96.825,282.031,96.535,285.199,95.775z"/>
		
			<linearGradient id="SVGID_26_" gradientUnits="userSpaceOnUse" x1="-16.5662" y1="-9.5042" x2="257.709" y2="-69.6886" gradientTransform="matrix(1.0328 0.2058 0.5515 1.0781 142.4243 39.7056)">
			<stop  offset="0" style="stop-color:#9D775A"/>
			<stop  offset="1" style="stop-color:#87644A"/>
		</linearGradient>
		<path fill="url(#SVGID_26_)" stroke="#000000" stroke-linejoin="round" stroke-miterlimit="10" d="M377.501,1.065L143.983,43.167
			c-7.729-3.768-14.646-6.351-29.427-4.794L344.374,2.781C358.833,0.015,355.833-0.934,377.501,1.065z"/>
		
			<linearGradient id="SVGID_27_" gradientUnits="userSpaceOnUse" x1="-424.4094" y1="-13.2478" x2="-270.6913" y2="-10.8646" gradientTransform="matrix(1 0 0 1 428.7998 183.1992)">
			<stop  offset="0" style="stop-color:#604837"/>
			<stop  offset="1" style="stop-color:#705542"/>
		</linearGradient>
		<polygon fill="url(#SVGID_27_)" stroke="#000000" stroke-linejoin="round" stroke-miterlimit="10" points="180.841,103.016 
			24.361,223.615 23.921,223.955 3.311,239.605 13.99,218.837 157.909,103.337 		"/>
		
			<linearGradient id="SVGID_28_" gradientUnits="userSpaceOnUse" x1="15.927" y1="7.864" x2="292.054" y2="-82.4334" gradientTransform="matrix(1.0328 0.2058 0.5515 1.0781 142.4243 39.7056)">
			<stop  offset="0" style="stop-color:#936F54"/>
			<stop  offset="1" style="stop-color:#7D5D44"/>
		</linearGradient>
		<path fill="url(#SVGID_28_)" stroke="#000000" stroke-linejoin="round" stroke-miterlimit="10" d="M405.493,15.815L166.546,64.394
			c-8.044-11.162-12.961-15.828-22.563-21.229L377.501,1.064C388.333,2.316,398.583,9.066,405.493,15.815z"/>
		
			<linearGradient id="SVGID_29_" gradientUnits="userSpaceOnUse" x1="-253.303" y1="-90.9368" x2="-20.4911" y2="-177.6923" gradientTransform="matrix(1 0 0 1 428.7998 183.1992)">
			<stop  offset="0" style="stop-color:#8B694F"/>
			<stop  offset="1" style="stop-color:#75573F"/>
		</linearGradient>
		<path fill="url(#SVGID_29_)" stroke="#000000" stroke-linejoin="round" stroke-miterlimit="10" d="M419.001,32.726l-241.842,52.08
			c-4.488-9.91-4.891-10.7-10.619-20.41h0.011l238.938-48.58C412.781,24.025,414.46,26.298,419.001,32.726z"/>
		
			<linearGradient id="SVGID_30_" gradientUnits="userSpaceOnUse" x1="-240.6199" y1="-70.2834" x2="-11.0433" y2="-164.5366" gradientTransform="matrix(1 0 0 1 428.7998 183.1992)">
			<stop  offset="0" style="stop-color:#806149"/>
			<stop  offset="1" style="stop-color:#6B4F39"/>
		</linearGradient>
		<path fill="url(#SVGID_30_)" stroke="#000000" stroke-linejoin="round" stroke-miterlimit="10" d="M426.251,47.806l-241.58,52.26
			l-1.86,1.44c-1.689-5.99-3.569-11.563-5.649-16.7l241.842-52.08c3.5,6.42,4.88,9.59,6.729,14.74
			C425.811,47.667,426.04,47.726,426.251,47.806z"/>
		
			<linearGradient id="SVGID_31_" gradientUnits="userSpaceOnUse" x1="-249.3552" y1="-89.8181" x2="-248.2836" y2="-90.2581" gradientTransform="matrix(1 0 0 1 428.7998 183.1992)">
			<stop  offset="0" style="stop-color:#806149"/>
			<stop  offset="1" style="stop-color:#6B4F39"/>
		</linearGradient>
		<path fill="url(#SVGID_31_)" stroke="#000000" stroke-linejoin="round" stroke-miterlimit="10" d="M182.811,101.508l-0.029,0.01
			c-2.09-6.99-2.688-8.74-5.62-16.71C179.24,89.945,181.119,95.516,182.811,101.508z"/>
		
			<linearGradient id="SVGID_32_" gradientUnits="userSpaceOnUse" x1="49.0427" y1="-0.7502" x2="-206.3598" y2="206.8282" gradientTransform="matrix(1 0 0 1 428.7998 183.1992)">
			<stop  offset="0" style="stop-color:#897041"/>
			<stop  offset="1" style="stop-color:#FFEBC1"/>
		</linearGradient>
		<polygon fill="url(#SVGID_32_)" stroke="#000000" stroke-linejoin="round" stroke-miterlimit="10" points="486.331,221.766 
			484.261,234.677 480.181,236.548 200.941,365.386 200.941,350.056 		"/>
		
			<linearGradient id="SVGID_33_" gradientUnits="userSpaceOnUse" x1="-369.8635" y1="106.676" x2="-162.017" y2="-101.1705" gradientTransform="matrix(1 0 0 1 428.7998 183.1992)">
			<stop  offset="0" style="stop-color:#695830"/>
			<stop  offset="1" style="stop-color:#E3CB9B"/>
		</linearGradient>
		<polygon fill="url(#SVGID_33_)" stroke="#000000" stroke-linejoin="round" stroke-miterlimit="10" points="279.501,154.485 
			279.501,163.065 26.039,251.985 1.159,253.895 		"/>
		
			<linearGradient id="SVGID_34_" gradientUnits="userSpaceOnUse" x1="-413.4099" y1="196.1531" x2="-263.3287" y2="138.9793" gradientTransform="matrix(1 0 0 1 428.7998 183.1992)">
			<stop  offset="0" style="stop-color:#604837"/>
			<stop  offset="1" style="stop-color:#6E5441"/>
		</linearGradient>
		<polygon fill="url(#SVGID_34_)" stroke="#000000" stroke-linejoin="round" stroke-miterlimit="10" points="65.136,445.927 
			35.392,426.138 11.312,295.38 46.552,314.317 60.321,411.815 		"/>
		
			<linearGradient id="SVGID_35_" gradientUnits="userSpaceOnUse" x1="-351.9548" y1="240.9055" x2="-393.1223" y2="103.8294" gradientTransform="matrix(1 0 0 1 428.7998 183.1992)">
			<stop  offset="0" style="stop-color:#9D775A"/>
			<stop  offset="1" style="stop-color:#745841"/>
		</linearGradient>
		<polygon fill="url(#SVGID_35_)" stroke="#000000" stroke-linejoin="round" stroke-miterlimit="10" points="69.173,408.376 
			60.321,411.815 46.552,314.317 58.667,320.845 		"/>
		
			<linearGradient id="SVGID_36_" gradientUnits="userSpaceOnUse" x1="-366.0691" y1="190.4597" x2="-337.9634" y2="188.4519" gradientTransform="matrix(1 0 0 1 428.7998 183.1992)">
			<stop  offset="0" style="stop-color:#604837"/>
			<stop  offset="1" style="stop-color:#6E5441"/>
		</linearGradient>
		<polygon fill="url(#SVGID_36_)" stroke="#000000" stroke-linejoin="round" stroke-miterlimit="10" points="96.069,424.382 
			69.173,408.376 58.667,320.845 59.487,321.276 87.89,336.551 		"/>
		
			<linearGradient id="SVGID_37_" gradientUnits="userSpaceOnUse" x1="-310.3933" y1="224.7273" x2="-262.5217" y2="228.1963" gradientTransform="matrix(1 0 0 1 428.7998 183.1992)">
			<stop  offset="0" style="stop-color:#604837"/>
			<stop  offset="1" style="stop-color:#6E5441"/>
		</linearGradient>
		<polygon fill="url(#SVGID_37_)" stroke="#000000" stroke-linejoin="round" stroke-miterlimit="10" points="162.769,464.063 
			130.358,444.783 122.798,355.323 157.208,373.813 		"/>
		
			<linearGradient id="SVGID_38_" gradientUnits="userSpaceOnUse" x1="-373.4114" y1="301.1501" x2="-219.7843" y2="242.6254" gradientTransform="matrix(1 0 0 1 428.7998 183.1992)">
			<stop  offset="0" style="stop-color:#604837"/>
			<stop  offset="1" style="stop-color:#6E5441"/>
		</linearGradient>
		<polygon fill="url(#SVGID_38_)" stroke="#000000" stroke-linejoin="round" stroke-miterlimit="10" points="165.839,512.933 
			65.198,446.363 65.14,445.925 60.319,411.813 163.366,473.585 		"/>
		
			<linearGradient id="SVGID_39_" gradientUnits="userSpaceOnUse" x1="-340.6863" y1="207.1882" x2="-294.6229" y2="207.7965" gradientTransform="matrix(1 0 0 1 428.7998 183.1992)">
			<stop  offset="0" style="stop-color:#604837"/>
			<stop  offset="1" style="stop-color:#6E5441"/>
		</linearGradient>
		<polygon fill="url(#SVGID_39_)" stroke="#000000" stroke-linejoin="round" stroke-miterlimit="10" points="130.356,444.778 
			96.069,424.382 87.89,336.551 122.804,355.311 122.804,355.327 		"/>
		
			<linearGradient id="SVGID_40_" gradientUnits="userSpaceOnUse" x1="9.1438" y1="-63.9104" x2="-228.6336" y2="-134.2826" gradientTransform="matrix(1 0 0 1 428.7998 183.1992)">
			<stop  offset="0" style="stop-color:#897041"/>
			<stop  offset="1" style="stop-color:#FFEBC1"/>
		</linearGradient>
		<polygon fill="url(#SVGID_40_)" stroke="#000000" stroke-linejoin="round" stroke-miterlimit="10" points="436.831,54.815 
			192.001,115.895 185.761,102.417 184.671,100.065 426.251,47.806 426.261,47.806 428.931,47.226 		"/>
		
			<linearGradient id="SVGID_41_" gradientUnits="userSpaceOnUse" x1="-318.7927" y1="262.1619" x2="-312.1256" y2="252.4946" gradientTransform="matrix(1 0 0 1 428.7998 183.1992)">
			<stop  offset="0" style="stop-color:#9D775A"/>
			<stop  offset="1" style="stop-color:#745841"/>
		</linearGradient>
		<polygon fill="url(#SVGID_41_)" stroke="#000000" stroke-linejoin="round" stroke-miterlimit="10" points="163.366,473.585 
			60.319,411.813 69.169,408.373 96.069,424.384 130.358,444.783 162.769,464.063 		"/>
		
			<linearGradient id="SVGID_42_" gradientUnits="userSpaceOnUse" x1="-357.6199" y1="334.283" x2="-223.851" y2="258.1186" gradientTransform="matrix(1 0 0 1 428.7998 183.1992)">
			<stop  offset="0" style="stop-color:#604837"/>
			<stop  offset="1" style="stop-color:#6E5441"/>
		</linearGradient>
		<polygon fill="url(#SVGID_42_)" stroke="#000000" stroke-linejoin="round" stroke-miterlimit="10" points="202.548,537.373 
			165.839,512.933 163.366,473.585 162.769,464.063 157.208,373.813 199.899,396.175 		"/>
		
			<linearGradient id="SVGID_43_" gradientUnits="userSpaceOnUse" x1="-143.0945" y1="253.8933" x2="-141.0339" y2="257.6106" gradientTransform="matrix(1 0 0 1 428.7998 183.1992)">
			<stop  offset="0" style="stop-color:#664B36"/>
			<stop  offset="1" style="stop-color:#87644B"/>
		</linearGradient>
		<polygon fill="url(#SVGID_43_)" stroke="#000000" stroke-linejoin="round" stroke-miterlimit="10" points="340.673,418.464 
			239.896,472.241 239.821,462.479 273.261,444.719 306.415,427.12 333.685,412.638 		"/>
		
			<line fill="none" stroke="#000000" stroke-linejoin="round" stroke-miterlimit="10" x1="442.554" y1="364.091" x2="442.534" y2="364.091"/>
		
			<linearGradient id="SVGID_44_" gradientUnits="userSpaceOnUse" x1="13.6672" y1="87.5911" x2="13.9111" y2="165.8019" gradientTransform="matrix(1 0 0 1 428.7998 183.1992)">
			<stop  offset="0" style="stop-color:#6A4F3A"/>
			<stop  offset="1" style="stop-color:#84634B"/>
		</linearGradient>
		<polygon fill="url(#SVGID_44_)" stroke="#000000" stroke-linejoin="round" stroke-miterlimit="10" points="450.63,276.052 
			442.534,364.073 434.597,359.647 440.749,280.792 		"/>
		
			<line fill="none" stroke="#000000" stroke-linejoin="round" stroke-miterlimit="10" x1="442.554" y1="364.091" x2="442.534" y2="364.091"/>
		
			<linearGradient id="SVGID_45_" gradientUnits="userSpaceOnUse" x1="-197.0623" y1="230.8372" x2="-147.9892" y2="225.9021" gradientTransform="matrix(1 0 0 1 428.7998 183.1992)">
			<stop  offset="0" style="stop-color:#624937"/>
			<stop  offset="0.3858" style="stop-color:#5F4634"/>
			<stop  offset="0.9844" style="stop-color:#533E2D"/>
			<stop  offset="1" style="stop-color:#533E2D"/>
		</linearGradient>
		<polygon fill="url(#SVGID_45_)" stroke="#000000" stroke-linejoin="round" stroke-miterlimit="10" points="274.349,360.498 
			273.261,444.719 239.821,462.479 239.181,377.351 		"/>
		
			<linearGradient id="SVGID_46_" gradientUnits="userSpaceOnUse" x1="-160.4949" y1="216.2068" x2="-115.1817" y2="206.4517" gradientTransform="matrix(1 0 0 1 428.7998 183.1992)">
			<stop  offset="0" style="stop-color:#624937"/>
			<stop  offset="0.3858" style="stop-color:#5F4634"/>
			<stop  offset="0.9844" style="stop-color:#533E2D"/>
			<stop  offset="1" style="stop-color:#533E2D"/>
		</linearGradient>
		<polygon fill="url(#SVGID_46_)" stroke="#000000" stroke-linejoin="round" stroke-miterlimit="10" points="307.606,344.567 
			306.415,427.12 273.261,444.719 274.349,360.498 		"/>
		
			<linearGradient id="SVGID_47_" gradientUnits="userSpaceOnUse" x1="-128.4109" y1="199.1951" x2="-82.9933" y2="192.1807" gradientTransform="matrix(1 0 0 1 428.7998 183.1992)">
			<stop  offset="0" style="stop-color:#624937"/>
			<stop  offset="0.3858" style="stop-color:#5F4634"/>
			<stop  offset="0.9844" style="stop-color:#533E2D"/>
			<stop  offset="1" style="stop-color:#533E2D"/>
		</linearGradient>
		<polygon fill="url(#SVGID_47_)" stroke="#000000" stroke-linejoin="round" stroke-miterlimit="10" points="335.175,331.366 
			333.685,412.638 306.415,427.12 307.606,344.567 334.833,331.528 		"/>
		
			<linearGradient id="SVGID_48_" gradientUnits="userSpaceOnUse" x1="-91.9441" y1="143.0935" x2="-88.6661" y2="232.1297" gradientTransform="matrix(1 0 0 1 428.7998 183.1992)">
			<stop  offset="0" style="stop-color:#6A4F3A"/>
			<stop  offset="1" style="stop-color:#84634B"/>
		</linearGradient>
		<polygon fill="url(#SVGID_48_)" stroke="#000000" stroke-linejoin="round" stroke-miterlimit="10" points="343.251,327.509 
			340.673,418.448 340.673,418.464 333.685,412.638 335.175,331.366 		"/>
		
			<linearGradient id="SVGID_49_" gradientUnits="userSpaceOnUse" x1="-179.0955" y1="186.2078" x2="53.3323" y2="176.9595" gradientTransform="matrix(1 0 0 1 428.7998 183.1992)">
			<stop  offset="0" style="stop-color:#624937"/>
			<stop  offset="1" style="stop-color:#533E2D"/>
		</linearGradient>
		<polygon fill="url(#SVGID_49_)" stroke="#000000" stroke-linejoin="round" stroke-miterlimit="10" points="376.212,311.712 
			371.519,392.608 370.95,402.298 340.673,418.448 343.251,327.509 		"/>
		
			<linearGradient id="SVGID_50_" gradientUnits="userSpaceOnUse" x1="-59.1794" y1="166.2366" x2="-28.1491" y2="161.8594" gradientTransform="matrix(1 0 0 1 428.7998 183.1992)">
			<stop  offset="0" style="stop-color:#624937"/>
			<stop  offset="0.3858" style="stop-color:#5F4634"/>
			<stop  offset="0.9844" style="stop-color:#533E2D"/>
			<stop  offset="1" style="stop-color:#533E2D"/>
		</linearGradient>
		<polygon fill="url(#SVGID_50_)" stroke="#000000" stroke-linejoin="round" stroke-miterlimit="10" points="395.837,302.296 
			391.636,382.104 371.519,392.608 376.212,311.712 		"/>
		
			<linearGradient id="SVGID_51_" gradientUnits="userSpaceOnUse" x1="-37.739" y1="154.7224" x2="-6.6949" y2="151.5209" gradientTransform="matrix(1 0 0 1 428.7998 183.1992)">
			<stop  offset="0" style="stop-color:#624937"/>
			<stop  offset="0.3858" style="stop-color:#5F4634"/>
			<stop  offset="0.9844" style="stop-color:#533E2D"/>
			<stop  offset="1" style="stop-color:#533E2D"/>
		</linearGradient>
		<polygon fill="url(#SVGID_51_)" stroke="#000000" stroke-linejoin="round" stroke-miterlimit="10" points="420.081,290.685 
			414.853,369.962 391.636,382.104 395.837,302.296 		"/>
		
			<linearGradient id="SVGID_52_" gradientUnits="userSpaceOnUse" x1="-26.3586" y1="192.2253" x2="-23.3746" y2="197.6088" gradientTransform="matrix(1 0 0 1 428.7998 183.1992)">
			<stop  offset="0" style="stop-color:#664B36"/>
			<stop  offset="1" style="stop-color:#87644B"/>
		</linearGradient>
		<polygon fill="url(#SVGID_52_)" stroke="#000000" stroke-linejoin="round" stroke-miterlimit="10" points="442.534,364.073 
			442.534,364.091 370.95,402.298 371.519,392.608 391.636,382.104 414.853,369.962 434.597,359.647 		"/>
		
			<linearGradient id="SVGID_53_" gradientUnits="userSpaceOnUse" x1="-13.3416" y1="145.9646" x2="15.1515" y2="137.22" gradientTransform="matrix(1 0 0 1 428.7998 183.1992)">
			<stop  offset="0" style="stop-color:#624937"/>
			<stop  offset="0.3858" style="stop-color:#5F4634"/>
			<stop  offset="0.9844" style="stop-color:#533E2D"/>
			<stop  offset="1" style="stop-color:#533E2D"/>
		</linearGradient>
		<polygon fill="url(#SVGID_53_)" stroke="#000000" stroke-linejoin="round" stroke-miterlimit="10" points="440.749,280.792 
			434.597,359.647 414.853,369.962 420.081,290.685 		"/>
		
			<linearGradient id="SVGID_54_" gradientUnits="userSpaceOnUse" x1="-207.3279" y1="-805.9451" x2="-166.8306" y2="-818.4442" gradientTransform="matrix(0.8364 -1.1303 0.1898 0.9391 379.5385 651.4973)">
			<stop  offset="0" style="stop-color:#604837"/>
			<stop  offset="1" style="stop-color:#82634D"/>
		</linearGradient>
		<path fill="url(#SVGID_54_)" stroke="#000000" stroke-linejoin="round" stroke-miterlimit="10" d="M111.454,63.728l-82.243,71.328
			c4.014-11.055,9.11-21.328,15.163-29.701l0.062-0.086C65.775,78.891,90.27,64.338,111.454,63.728z"/>
		
			<linearGradient id="SVGID_55_" gradientUnits="userSpaceOnUse" x1="-269.9456" y1="-778.616" x2="-213.8022" y2="-836.6694" gradientTransform="matrix(0.8364 -1.1303 0.1898 0.9391 379.5385 651.4973)">
			<stop  offset="0" style="stop-color:#9D775A"/>
			<stop  offset="1" style="stop-color:#533E2D"/>
		</linearGradient>
		<path fill="url(#SVGID_55_)" stroke="#000000" stroke-linejoin="round" stroke-miterlimit="10" d="M44.374,105.355
			c-6.053,8.373-11.149,18.646-15.163,29.701l-0.014,0.018c-4.785,13.146-8.092,27.412-9.759,40.912
			c-1.478,11.901-1.71,23.244-0.587,32.734l-4.859,10.113c-3.877-31.446,4.934-78.77,24.569-105.879
			C40.475,110.322,42.408,107.799,44.374,105.355z"/>
		
			<linearGradient id="SVGID_56_" gradientUnits="userSpaceOnUse" x1="-450.3796" y1="22.5583" x2="-213.947" y2="-36.8684" gradientTransform="matrix(1 0 0 1 428.7998 183.1992)">
			<stop  offset="0" style="stop-color:#897041"/>
			<stop  offset="1" style="stop-color:#FFEBC1"/>
		</linearGradient>
		<path fill="url(#SVGID_56_)" stroke="#000000" stroke-linejoin="round" stroke-miterlimit="10" d="M192.001,115.895
			l-160.62,116.15h-0.012l-30.21,21.85c-0.688-5.51-0.771-7.68-1.158-11.5l23.92-18.44l0.438-0.34l156.479-120.6l1.938-1.49v-0.01
			l0.029-0.01l1.86-1.44l1.09,2.35L192.001,115.895z"/>
		
			<linearGradient id="SVGID_57_" gradientUnits="userSpaceOnUse" x1="-228.1003" y1="-769.8396" x2="-159.7347" y2="-792.0494" gradientTransform="matrix(0.8364 -1.1303 0.1898 0.9391 379.5385 651.4973)">
			<stop  offset="0" style="stop-color:#604837"/>
			<stop  offset="1" style="stop-color:#82634D"/>
		</linearGradient>
		<path fill="url(#SVGID_57_)" stroke="#000000" stroke-linejoin="round" stroke-miterlimit="10" d="M143.056,76.506l-123.615,99.48
			c1.667-13.5,4.975-27.766,9.759-40.912l0.014-0.018l82.243-71.328C123.436,63.4,134.355,67.525,143.056,76.506z"/>
		
			<linearGradient id="SVGID_58_" gradientUnits="userSpaceOnUse" x1="-193.97" y1="-733.428" x2="-164.5526" y2="-777.1093" gradientTransform="matrix(0.8364 -1.1303 0.1898 0.9391 379.5385 651.4973)">
			<stop  offset="0" style="stop-color:#604837"/>
			<stop  offset="1" style="stop-color:#82634D"/>
		</linearGradient>
		<path fill="url(#SVGID_58_)" stroke="#000000" stroke-linejoin="round" stroke-miterlimit="10" d="M156.355,98.725L18.854,208.721
			c-1.123-9.49-0.891-20.833,0.587-32.734l123.615-99.48C148.428,82.038,152.961,89.399,156.355,98.725z"/>
		
			<linearGradient id="SVGID_59_" gradientUnits="userSpaceOnUse" x1="-182.2791" y1="-742.8567" x2="-180.8023" y2="-746.3359" gradientTransform="matrix(0.8364 -1.1303 0.1898 0.9391 379.5385 651.4973)">
			<stop  offset="0" style="stop-color:#9D775A"/>
			<stop  offset="1" style="stop-color:#745841"/>
		</linearGradient>
		<path fill="url(#SVGID_59_)" stroke="#000000" stroke-linejoin="round" stroke-miterlimit="10" d="M157.906,103.335
			L13.992,218.836l4.859-10.113L156.354,98.726C156.906,100.211,157.409,101.758,157.906,103.335z"/>
		
			<line fill="none" stroke="#000000" stroke-linejoin="round" stroke-miterlimit="10" x1="31.101" y1="206.822" x2="31.085" y2="206.822"/>
	</g>
	
		<linearGradient id="SVGID_60_" gradientUnits="userSpaceOnUse" x1="-427.6404" y1="117.8215" x2="-226.2488" y2="117.8215" gradientTransform="matrix(1 0 0 1 428.7998 183.1992)">
		<stop  offset="0" style="stop-color:#897041"/>
		<stop  offset="1" style="stop-color:#FFEBC1"/>
	</linearGradient>
	<polygon fill="url(#SVGID_60_)" stroke="#000000" stroke-linejoin="round" stroke-miterlimit="10" points="202.551,336.395 
		202.511,336.718 200.941,350.056 1.159,253.895 26.039,251.985 46.551,261.798 82.329,278.905 113.171,293.655 144.521,308.645 
		153.251,312.825 188.071,329.468 	"/>
	
		<linearGradient id="SVGID_61_" gradientUnits="userSpaceOnUse" x1="-402.7605" y1="29.2322" x2="-149.2986" y2="29.2322" gradientTransform="matrix(1 0 0 1 428.7998 183.1992)">
		<stop  offset="0" style="stop-color:#695830"/>
		<stop  offset="1" style="stop-color:#E3CB9B"/>
	</linearGradient>
	<polygon fill="url(#SVGID_61_)" stroke="#000000" stroke-linejoin="round" stroke-miterlimit="10" points="279.501,163.065 
		279.501,175.985 46.551,261.798 26.039,251.985 	"/>
	
		<linearGradient id="SVGID_62_" gradientUnits="userSpaceOnUse" x1="52.1326" y1="54.2083" x2="-218.9223" y2="143.5167" gradientTransform="matrix(1 0 0 1 428.7998 183.1992)">
		<stop  offset="0" style="stop-color:#897041"/>
		<stop  offset="1" style="stop-color:#FFEBC1"/>
	</linearGradient>
	<polygon fill="url(#SVGID_62_)" stroke="#000000" stroke-linejoin="round" stroke-miterlimit="10" points="486.331,221.766 
		200.941,350.056 202.511,336.718 202.551,336.395 209.561,333.355 232.801,323.258 252.571,314.677 261.289,310.886 
		285.901,300.195 315.601,287.298 315.771,287.226 326.391,282.615 326.501,282.565 352.301,271.365 385.731,256.846 
		385.74,256.846 410.231,246.205 442.601,232.145 442.611,232.145 466.501,221.766 	"/>
	
		<linearGradient id="SVGID_63_" gradientUnits="userSpaceOnUse" x1="40.6965" y1="14.4246" x2="-146.3132" y2="14.3934" gradientTransform="matrix(1 0 0 1 428.7998 183.1992)">
		<stop  offset="0" style="stop-color:#695830"/>
		<stop  offset="1" style="stop-color:#E3CB9B"/>
	</linearGradient>
	<polygon fill="url(#SVGID_63_)" stroke="#000000" stroke-linejoin="round" stroke-miterlimit="10" points="466.501,221.766 
		442.611,232.145 442.601,232.145 279.501,175.985 279.501,163.065 	"/>
	
		<linearGradient id="SVGID_64_" gradientUnits="userSpaceOnUse" x1="-1.6624" y1="-78.5496" x2="-158.9924" y2="-78.5496" gradientTransform="matrix(1 0 0 1 428.7998 183.1992)">
		<stop  offset="0" style="stop-color:#695830"/>
		<stop  offset="1" style="stop-color:#E3CB9B"/>
	</linearGradient>
	<polygon fill="url(#SVGID_64_)" stroke="#000000" stroke-linejoin="round" stroke-miterlimit="10" points="436.831,54.815 
		279.501,154.485 279.501,147.565 405.311,64.766 	"/>
	
		<linearGradient id="SVGID_65_" gradientUnits="userSpaceOnUse" x1="-427.6404" y1="17.531" x2="-149.2986" y2="17.531" gradientTransform="matrix(1 0 0 1 428.7998 183.1992)">
		<stop  offset="0" style="stop-color:#695830"/>
		<stop  offset="1" style="stop-color:#E3CB9B"/>
	</linearGradient>
	<polygon fill="url(#SVGID_65_)" stroke="#000000" stroke-linejoin="round" stroke-miterlimit="10" points="279.501,147.565 
		279.501,154.485 1.159,253.895 31.079,234.315 	"/>
	
		<line fill="none" stroke="#000000" stroke-linejoin="round" stroke-miterlimit="10" x1="31.369" y1="232.048" x2="31.079" y2="232.145"/>
	
		<line fill="none" stroke="#000000" stroke-linejoin="round" stroke-miterlimit="10" x1="406.74" y1="64.395" x2="405.311" y2="64.766"/>
	
		<linearGradient id="SVGID_66_" gradientUnits="userSpaceOnUse" x1="-2.1809" y1="-95.8689" x2="-247.0085" y2="-95.8689" gradientTransform="matrix(1 0 0 1 428.7998 183.1992)">
		<stop  offset="0" style="stop-color:#695830"/>
		<stop  offset="1" style="stop-color:#E3CB9B"/>
	</linearGradient>
	<path fill="url(#SVGID_66_)" stroke="#000000" stroke-linejoin="round" stroke-miterlimit="10" d="M436.831,54.815l-31.521,9.95
		l-24.779,6.398l-15.891,4.102l-49.069,12.67l-0.688,0.18l-29.03,7.5l-0.649,0.16c-3.17,0.76-5,1.05-8.078,1.86
		c-0.012,0.08-0.03,0.16-0.041,0.239l-85.079,21.971v-3.95L436.831,54.815z"/>
	
		<linearGradient id="SVGID_67_" gradientUnits="userSpaceOnUse" x1="-151.7185" y1="-86.3743" x2="-143.6003" y2="-86.3743" gradientTransform="matrix(1 0 0 1 428.7998 183.1992)">
		<stop  offset="0" style="stop-color:#604837"/>
		<stop  offset="1" style="stop-color:#705542"/>
	</linearGradient>
	<path fill="url(#SVGID_67_)" stroke="#000000" stroke-linejoin="round" stroke-miterlimit="10" d="M285.199,95.775l-8.118,2.1
		c0.01-0.077,0.028-0.157,0.038-0.237C280.199,96.825,282.031,96.535,285.199,95.775z"/>
	
		<linearGradient id="SVGID_68_" gradientUnits="userSpaceOnUse" x1="-427.6404" y1="1.696" x2="-236.7986" y2="1.696" gradientTransform="matrix(1 0 0 1 428.7998 183.1992)">
		<stop  offset="0" style="stop-color:#695830"/>
		<stop  offset="1" style="stop-color:#E3CB9B"/>
	</linearGradient>
	<polygon fill="url(#SVGID_68_)" stroke="#000000" stroke-linejoin="round" stroke-miterlimit="10" points="192.001,115.895 
		192.001,119.846 174.671,132.177 111.681,176.985 60.731,213.226 31.079,234.315 1.159,253.895 31.369,232.048 31.381,232.048 	"/>
	
		<linearGradient id="SVGID_69_" gradientUnits="userSpaceOnUse" x1="-23.4885" y1="-77.0334" x2="-154.0598" y2="-77.0335" gradientTransform="matrix(1 0 0 1 428.7998 183.1992)">
		<stop  offset="0" style="stop-color:#695830"/>
		<stop  offset="1" style="stop-color:#E3CB9B"/>
	</linearGradient>
	<polygon fill="url(#SVGID_69_)" stroke="#000000" stroke-linejoin="round" stroke-miterlimit="10" points="405.311,64.766 
		279.501,147.565 274.74,142.615 274.851,142.548 275.24,142.285 277.29,140.886 277.811,140.525 280.751,138.535 281.051,138.337 
		281.369,138.127 281.511,138.035 281.611,137.976 380.531,71.167 	"/>
	
		<line fill="none" stroke="#000000" stroke-linejoin="round" stroke-miterlimit="10" x1="275.24" y1="142.285" x2="274.851" y2="142.548"/>
	
		<linearGradient id="SVGID_70_" gradientUnits="userSpaceOnUse" x1="-397.7205" y1="5.2659" x2="-149.2986" y2="5.2659" gradientTransform="matrix(1 0 0 1 428.7998 183.1992)">
		<stop  offset="0" style="stop-color:#695830"/>
		<stop  offset="1" style="stop-color:#E3CB9B"/>
	</linearGradient>
	<polygon fill="url(#SVGID_70_)" stroke="#000000" stroke-linejoin="round" stroke-miterlimit="10" points="279.501,147.565 
		31.079,234.315 60.731,213.226 274.74,142.615 	"/>
	
		<linearGradient id="SVGID_71_" gradientUnits="userSpaceOnUse" x1="-144.0603" y1="-81.093" x2="-64.1589" y2="-81.093" gradientTransform="matrix(1 0 0 1 428.7998 183.1992)">
		<stop  offset="0" style="stop-color:#49392D"/>
		<stop  offset="1" style="stop-color:#6B5443"/>
	</linearGradient>
	<path fill="url(#SVGID_71_)" stroke="#000000" stroke-linejoin="round" stroke-miterlimit="10" d="M364.641,75.266l-78.351,53.68
		c-0.061-0.489-0.119-0.97-0.181-1.438c-0.091-0.723-0.17-1.433-0.261-2.12c-0.04-0.38-0.09-0.761-0.13-1.143
		c-0.04-0.31-0.08-0.618-0.109-0.92c-0.08-0.71-0.16-1.408-0.229-2.09c-0.062-0.64-0.13-1.27-0.189-1.898
		c0-0.052-0.011-0.102-0.011-0.149c-0.062-0.68-0.12-1.36-0.17-2.03c-0.051-0.67-0.09-1.35-0.13-2.029
		c-0.03-0.471-0.05-0.948-0.07-1.431c-0.01-0.188-0.01-0.39-0.021-0.59c-0.021-0.4-0.029-0.8-0.029-1.2
		c-0.01-0.41-0.01-0.83-0.021-1.26l30.83-22.71L364.641,75.266z"/>
	
		<linearGradient id="SVGID_72_" gradientUnits="userSpaceOnUse" x1="-144.0593" y1="-83.908" x2="-113.2292" y2="-83.908" gradientTransform="matrix(1 0 0 1 428.7998 183.1992)">
		<stop  offset="0" style="stop-color:#49392D"/>
		<stop  offset="1" style="stop-color:#6B5443"/>
	</linearGradient>
	<path fill="url(#SVGID_72_)" stroke="#000000" stroke-linejoin="round" stroke-miterlimit="10" d="M315.571,87.936l-30.83,22.71
		c0-0.68,0.011-1.38,0.021-2.08c0.01-0.688,0.028-1.39,0.061-2.1c0.021-0.41,0.04-0.82,0.062-1.23c0.05-0.87,0.108-1.75,0.188-2.67
		c0.109-1.26,0.239-2.57,0.392-3.95c0.08-0.63,0.158-1.278,0.25-1.938c0.039-0.353,0.09-0.7,0.14-1.063l29.03-7.5L315.571,87.936z"
		/>
	
		<linearGradient id="SVGID_73_" gradientUnits="userSpaceOnUse" x1="-147.1892" y1="-78.6277" x2="-48.2693" y2="-78.6277" gradientTransform="matrix(1 0 0 1 428.7998 183.1992)">
		<stop  offset="0" style="stop-color:#49392D"/>
		<stop  offset="1" style="stop-color:#594638"/>
	</linearGradient>
	<polygon fill="url(#SVGID_73_)" stroke="#000000" stroke-linejoin="round" stroke-miterlimit="10" points="380.531,71.167 
		281.611,137.976 286.29,128.945 364.641,75.266 	"/>
	
		<linearGradient id="SVGID_74_" gradientUnits="userSpaceOnUse" x1="-368.0701" y1="-15.239" x2="-154.0603" y2="-15.239" gradientTransform="matrix(1 0 0 1 428.7998 183.1992)">
		<stop  offset="0" style="stop-color:#49392D"/>
		<stop  offset="1" style="stop-color:#6B5443"/>
	</linearGradient>
	<path fill="url(#SVGID_74_)" stroke="#000000" stroke-linejoin="round" stroke-miterlimit="10" d="M274.74,142.615l-214.01,70.61
		l50.949-36.24l162.721-54.29C274.159,129.186,274.331,135.525,274.74,142.615z"/>
	
		<linearGradient id="SVGID_75_" gradientUnits="userSpaceOnUse" x1="-317.1199" y1="-42.9392" x2="-152.6091" y2="-42.9392" gradientTransform="matrix(1 0 0 1 428.7998 183.1992)">
		<stop  offset="0" style="stop-color:#49392D"/>
		<stop  offset="1" style="stop-color:#6B5443"/>
	</linearGradient>
	<path fill="url(#SVGID_75_)" stroke="#000000" stroke-linejoin="round" stroke-miterlimit="10" d="M276.191,103.535
		c-1.021,6.99-1.58,13.143-1.79,19.16l-162.721,54.29l62.99-44.81L276.191,103.535z"/>
	
		<linearGradient id="SVGID_76_" gradientUnits="userSpaceOnUse" x1="-254.1306" y1="-68.1721" x2="-151.7185" y2="-68.1721" gradientTransform="matrix(1 0 0 1 428.7998 183.1992)">
		<stop  offset="0" style="stop-color:#49392D"/>
		<stop  offset="1" style="stop-color:#6B5443"/>
	</linearGradient>
	<path fill="url(#SVGID_76_)" stroke="#000000" stroke-linejoin="round" stroke-miterlimit="10" d="M277.081,97.877
		c-0.33,1.96-0.632,3.841-0.892,5.658l-101.521,28.643l17.328-12.33L277.081,97.877z"/>
	<path fill="none" stroke="#000000" stroke-linejoin="round" stroke-miterlimit="10" d="M83.888,279.65"/>
	<path fill="none" stroke="#000000" stroke-linejoin="round" stroke-miterlimit="10" d="M280.41,201.096"/>
	
		<linearGradient id="SVGID_77_" gradientUnits="userSpaceOnUse" x1="-382.2488" y1="44.2458" x2="-148.3904" y2="44.2458" gradientTransform="matrix(1 0 0 1 428.7998 183.1992)">
		<stop  offset="0" style="stop-color:#4B3A2D"/>
		<stop  offset="1" style="stop-color:#3C2F23"/>
	</linearGradient>
	<polygon fill="url(#SVGID_77_)" stroke="#000000" stroke-linejoin="round" stroke-miterlimit="10" points="280.409,201.096 
		253.681,211.596 243.721,215.516 222.881,223.695 198.441,233.298 178.659,241.075 145.441,254.136 137.289,257.325 
		136.949,257.468 109.501,268.245 82.329,278.905 46.551,261.798 279.501,175.985 	"/>
</g>
</svg>
