<?xml version="1.0" encoding="utf-8"?>
<!-- Generator: Adobe Illustrator 16.0.0, SVG Export Plug-In . SVG Version: 6.00 Build 0)  -->
<!DOCTYPE svg PUBLIC "-//W3C//DTD SVG 1.1//EN" "http://www.w3.org/Graphics/SVG/1.1/DTD/svg11.dtd">
<svg version="1.1" id="Layer_1" xmlns="http://www.w3.org/2000/svg" xmlns:xlink="http://www.w3.org/1999/xlink" x="0px" y="0px"
	 width="512px" height="512px" viewBox="0 0 512 512" enable-background="new 0 0 512 512" xml:space="preserve">
<g>
	
		<linearGradient id="SVGID_1_" gradientUnits="userSpaceOnUse" x1="28.6536" y1="197.9343" x2="255.7053" y2="212.0098" gradientTransform="matrix(1 0 0 -1 214.3999 604.0991)">
		<stop  offset="0" style="stop-color:#764B41"/>
		<stop  offset="1" style="stop-color:#684137"/>
	</linearGradient>
	<polygon fill="url(#SVGID_1_)" stroke="#000000" stroke-linejoin="round" stroke-miterlimit="10" points="454.867,323.756 
		451.771,357.537 252.556,474.854 252.228,431.908 353.005,378.129 353.005,378.115 383.282,361.963 	"/>
	
		<linearGradient id="SVGID_2_" gradientUnits="userSpaceOnUse" x1="91.4255" y1="338.2009" x2="288.8024" y2="309.0087" gradientTransform="matrix(1 0 0 -1 214.3999 604.0991)">
		<stop  offset="0" style="stop-color:#764B41"/>
		<stop  offset="1" style="stop-color:#684137"/>
	</linearGradient>
	<polygon fill="url(#SVGID_2_)" stroke="#000000" stroke-linejoin="round" stroke-miterlimit="10" points="489.484,223.008 
		475.895,343.336 451.771,357.537 454.867,323.756 454.867,323.74 462.961,235.719 	"/>
	
		<linearGradient id="SVGID_3_" gradientUnits="userSpaceOnUse" x1="-5.0476" y1="190.739" x2="200.0108" y2="159.178" gradientTransform="matrix(1 0 0 -1 214.3999 604.0991)">
		<stop  offset="0" style="stop-color:#764B41"/>
		<stop  offset="1" style="stop-color:#684137"/>
	</linearGradient>
	<polygon fill="url(#SVGID_3_)" stroke="#000000" stroke-linejoin="round" stroke-miterlimit="10" points="252.561,474.85 
		214.88,497.04 212.23,355.84 251.51,337.02 252.15,422.15 252.23,431.91 	"/>
	
		<line fill="none" stroke="#000000" stroke-linejoin="round" stroke-miterlimit="10" x1="492.51" y1="196.217" x2="492.51" y2="196.201"/>
	
		<linearGradient id="SVGID_4_" gradientUnits="userSpaceOnUse" x1="-11.2195" y1="318.9539" x2="281.6797" y2="336.8556" gradientTransform="matrix(1 0 0 -1 214.3999 604.0991)">
		<stop  offset="0" style="stop-color:#764B41"/>
		<stop  offset="1" style="stop-color:#684137"/>
	</linearGradient>
	<polygon fill="url(#SVGID_4_)" stroke="#000000" stroke-linejoin="round" stroke-miterlimit="10" points="492.51,196.217 
		489.484,223.008 462.961,235.719 453.08,240.457 432.412,250.352 408.168,261.961 388.544,271.377 355.582,287.174 
		347.506,291.033 347.163,291.195 319.938,304.234 286.68,320.164 251.512,337.018 212.232,355.838 211.637,324.218 
		213.276,325.053 	"/>
	
		<line fill="none" stroke="#000000" stroke-linejoin="round" stroke-miterlimit="10" x1="211.637" y1="324.218" x2="211.637" y2="324.172"/>
	
		<linearGradient id="SVGID_5_" gradientUnits="userSpaceOnUse" x1="-190.115" y1="402.2263" x2="1.5682" y2="263.1018" gradientTransform="matrix(1 0 0 -1 214.3999 604.0991)">
		<stop  offset="0" style="stop-color:#777475"/>
		<stop  offset="1" style="stop-color:#A8ABAD"/>
	</linearGradient>
	<polygon fill="url(#SVGID_5_)" stroke="#000000" stroke-linejoin="round" stroke-miterlimit="10" points="213.276,309.719 
		213.276,325.053 211.637,324.218 18.354,226.316 15.716,224.977 13.495,213.561 	"/>
	
		<linearGradient id="SVGID_6_" gradientUnits="userSpaceOnUse" x1="-178.6804" y1="297.8386" x2="-32.0819" y2="325.8074" gradientTransform="matrix(1 0 0 -1 214.3999 604.0991)">
		<stop  offset="0" style="stop-color:#734B40"/>
		<stop  offset="1" style="stop-color:#815549"/>
	</linearGradient>
	<polygon fill="url(#SVGID_6_)" stroke="#000000" stroke-linejoin="round" stroke-miterlimit="10" points="212.23,355.84 
		169.54,333.48 135.13,314.99 135.13,314.98 100.221,296.22 71.82,280.94 71,280.51 58.88,273.98 23.641,255.05 18.35,226.32 
		211.641,324.22 	"/>
	
		<linearGradient id="SVGID_7_" gradientUnits="userSpaceOnUse" x1="-198.2312" y1="400.0417" x2="-26.2313" y2="397.3752" gradientTransform="matrix(1 0 0 -1 214.3999 604.0991)">
		<stop  offset="0" style="stop-color:#734B40"/>
		<stop  offset="1" style="stop-color:#82564A"/>
	</linearGradient>
	<path fill="url(#SVGID_7_)" stroke="#000000" stroke-linejoin="round" stroke-miterlimit="10" d="M211.101,290.555l-23.842-28.326
		c-0.164-1.877-0.343-3.74-0.581-5.604c-1.416-11.637-4.277-22.918-8.271-33.617c-6.469-17.346-15.944-33.139-27.255-46.401
		c-20.013-23.439-45.776-38.951-70.825-41.008h-0.074c-2.311-0.179-4.604-0.254-6.899-0.209
		c-23.588,0.477-40.844,30.102-43.169,60.782l-13.977,5.289c4.053-41.946,28.997-79.915,61.317-79.915
		c24.333,0,47.133,8.747,66.786,24.141c16.213,12.694,30.28,29.922,41.292,50.485c8.493,15.841,15.169,33.662,19.61,52.929
		C208.269,262.303,210.266,276.177,211.101,290.555z"/>
	
		<linearGradient id="SVGID_8_" gradientUnits="userSpaceOnUse" x1="-192.8699" y1="325.1003" x2="-5.9622" y2="372.0791" gradientTransform="matrix(1 0 0 -1 214.3999 604.0991)">
		<stop  offset="0" style="stop-color:#777475"/>
		<stop  offset="1" style="stop-color:#A8ABAD"/>
	</linearGradient>
	<path fill="url(#SVGID_8_)" stroke="#000000" stroke-linejoin="round" stroke-miterlimit="10" d="M213.276,309.719l-199.78-96.158
		c0-3.771-0.357-7.822,0-11.459l198.768,92.953L213.276,309.719z"/>
	
		<linearGradient id="SVGID_9_" gradientUnits="userSpaceOnUse" x1="-116.4236" y1="467.6433" x2="182.0768" y2="533.1435" gradientTransform="matrix(1 0 0 -1 214.3999 604.0991)">
		<stop  offset="0" style="stop-color:#AC7360"/>
		<stop  offset="1" style="stop-color:#986352"/>
	</linearGradient>
	<path fill="url(#SVGID_9_)" stroke="#000000" stroke-linejoin="round" stroke-miterlimit="10" d="M420.625,76.216l-276.313,69.471
		c-19.653-15.394-42.453-24.141-66.786-24.141l293.553-58.354C386.264,63.192,403.714,67.827,420.625,76.216z"/>
	
		<linearGradient id="SVGID_10_" gradientUnits="userSpaceOnUse" x1="-47.1565" y1="433.9177" x2="234.1774" y2="525.918" gradientTransform="matrix(1 0 0 -1 214.3999 604.0991)">
		<stop  offset="0" style="stop-color:#A26D5B"/>
		<stop  offset="1" style="stop-color:#8E5D4D"/>
	</linearGradient>
	<path fill="url(#SVGID_10_)" stroke="#000000" stroke-linejoin="round" stroke-miterlimit="10" d="M461.173,105.587
		l-275.568,90.585c-11.012-20.563-25.079-37.791-41.292-50.485l276.313-69.471C435.123,83.415,449.237,93.385,461.173,105.587z"/>
	
		<linearGradient id="SVGID_11_" gradientUnits="userSpaceOnUse" x1="-20.5588" y1="380.8787" x2="262.1093" y2="486.2127" gradientTransform="matrix(1 0 0 -1 214.3999 604.0991)">
		<stop  offset="0" style="stop-color:#9A6756"/>
		<stop  offset="1" style="stop-color:#865748"/>
	</linearGradient>
	<path fill="url(#SVGID_11_)" stroke="#000000" stroke-linejoin="round" stroke-miterlimit="10" d="M485.879,141.244L205.215,249.1
		c-4.441-19.267-11.117-37.088-19.61-52.929l275.568-90.585C471.336,115.974,479.933,127.969,485.879,141.244z"/>
	
		<linearGradient id="SVGID_12_" gradientUnits="userSpaceOnUse" x1="-10.2629" y1="332.6199" x2="280.4033" y2="451.9534" gradientTransform="matrix(1 0 0 -1 214.3999 604.0991)">
		<stop  offset="0" style="stop-color:#906050"/>
		<stop  offset="1" style="stop-color:#7D5142"/>
	</linearGradient>
	<path fill="url(#SVGID_12_)" stroke="#000000" stroke-linejoin="round" stroke-miterlimit="10" d="M493.746,168.336
		l-282.646,122.22c-0.835-14.379-2.832-28.252-5.886-41.455l280.664-107.855c3.665,8.197,6.317,16.885,7.703,25.959
		C493.643,167.576,493.688,167.963,493.746,168.336z"/>
	
		<linearGradient id="SVGID_13_" gradientUnits="userSpaceOnUse" x1="275.7737" y1="461.9861" x2="20.3723" y2="254.4086" gradientTransform="matrix(1 0 0 -1 214.3999 604.0991)">
		<stop  offset="0" style="stop-color:#777475"/>
		<stop  offset="1" style="stop-color:#A8ABAD"/>
	</linearGradient>
	<polygon fill="url(#SVGID_13_)" stroke="#000000" stroke-linejoin="round" stroke-miterlimit="10" points="498.663,181.434 
		496.592,194.338 492.51,196.217 213.276,325.053 213.276,309.719 	"/>
	
		<linearGradient id="SVGID_14_" gradientUnits="userSpaceOnUse" x1="-186.6785" y1="265.0818" x2="-36.596" y2="322.2563" gradientTransform="matrix(1 0 0 -1 214.3999 604.0991)">
		<stop  offset="0" style="stop-color:#734B40"/>
		<stop  offset="1" style="stop-color:#815549"/>
	</linearGradient>
	<polygon fill="url(#SVGID_14_)" stroke="#000000" stroke-linejoin="round" stroke-miterlimit="10" points="77.467,405.594 
		47.724,385.805 23.643,255.045 58.884,273.984 72.653,371.482 	"/>
	
		<linearGradient id="SVGID_15_" gradientUnits="userSpaceOnUse" x1="-125.2224" y1="220.3269" x2="-166.3897" y2="357.4032" gradientTransform="matrix(1 0 0 -1 214.3999 604.0991)">
		<stop  offset="0" style="stop-color:#AC7360"/>
		<stop  offset="1" style="stop-color:#855849"/>
	</linearGradient>
	<polygon fill="url(#SVGID_15_)" stroke="#000000" stroke-linejoin="round" stroke-miterlimit="10" points="81.505,368.041 
		72.653,371.482 58.884,273.984 70.999,280.512 	"/>
	
		<linearGradient id="SVGID_16_" gradientUnits="userSpaceOnUse" x1="-139.3367" y1="270.7742" x2="-111.2304" y2="272.782" gradientTransform="matrix(1 0 0 -1 214.3999 604.0991)">
		<stop  offset="0" style="stop-color:#734B40"/>
		<stop  offset="1" style="stop-color:#815549"/>
	</linearGradient>
	<polygon fill="url(#SVGID_16_)" stroke="#000000" stroke-linejoin="round" stroke-miterlimit="10" points="108.401,384.047 
		81.505,368.041 70.999,280.512 71.818,280.943 100.221,296.218 	"/>
	
		<linearGradient id="SVGID_17_" gradientUnits="userSpaceOnUse" x1="-83.6619" y1="236.5056" x2="-35.7913" y2="233.0367" gradientTransform="matrix(1 0 0 -1 214.3999 604.0991)">
		<stop  offset="0" style="stop-color:#734B40"/>
		<stop  offset="1" style="stop-color:#815549"/>
	</linearGradient>
	<polygon fill="url(#SVGID_17_)" stroke="#000000" stroke-linejoin="round" stroke-miterlimit="10" points="175.1,423.73 
		142.689,404.45 135.13,314.99 169.54,333.48 	"/>
	
		<linearGradient id="SVGID_18_" gradientUnits="userSpaceOnUse" x1="-146.6794" y1="160.0828" x2="6.9478" y2="218.6076" gradientTransform="matrix(1 0 0 -1 214.3999 604.0991)">
		<stop  offset="0" style="stop-color:#734B40"/>
		<stop  offset="1" style="stop-color:#815549"/>
	</linearGradient>
	<polygon fill="url(#SVGID_18_)" stroke="#000000" stroke-linejoin="round" stroke-miterlimit="10" points="178.17,472.6 
		77.529,406.03 77.471,405.59 72.65,371.48 175.7,433.25 	"/>
	
		<linearGradient id="SVGID_19_" gradientUnits="userSpaceOnUse" x1="-113.9553" y1="254.0476" x2="-67.8929" y2="253.4393" gradientTransform="matrix(1 0 0 -1 214.3999 604.0991)">
		<stop  offset="0" style="stop-color:#734B40"/>
		<stop  offset="1" style="stop-color:#815549"/>
	</linearGradient>
	<polygon fill="url(#SVGID_19_)" stroke="#000000" stroke-linejoin="round" stroke-miterlimit="10" points="142.688,404.445 
		108.401,384.047 100.221,296.218 135.135,314.979 135.135,314.994 	"/>
	
		<linearGradient id="SVGID_20_" gradientUnits="userSpaceOnUse" x1="-210.1155" y1="462.3376" x2="-90.764" y2="346.7935" gradientTransform="matrix(1 0 0 -1 214.3999 604.0991)">
		<stop  offset="0" style="stop-color:#95979A"/>
		<stop  offset="1" style="stop-color:#E2E3E4"/>
	</linearGradient>
	<polygon fill="url(#SVGID_20_)" stroke="#000000" stroke-linejoin="round" stroke-miterlimit="10" points="212.263,295.055 
		13.495,202.102 16.208,201.461 211.101,290.555 	"/>
	
		<linearGradient id="SVGID_21_" gradientUnits="userSpaceOnUse" x1="276.5823" y1="324.4724" x2="24.8556" y2="398.9732" gradientTransform="matrix(1 0 0 -1 214.3999 604.0991)">
		<stop  offset="0" style="stop-color:#777475"/>
		<stop  offset="1" style="stop-color:#A8ABAD"/>
	</linearGradient>
	<polygon fill="url(#SVGID_21_)" stroke="#000000" stroke-linejoin="round" stroke-miterlimit="10" points="498.663,169.617 
		498.663,181.434 213.276,309.719 212.263,295.055 	"/>
	
		<linearGradient id="SVGID_22_" gradientUnits="userSpaceOnUse" x1="279.1819" y1="435.6892" x2="284.2639" y2="435.6892" gradientTransform="matrix(1 0 0 -1 214.3999 604.0991)">
		<stop  offset="0" style="stop-color:#777475"/>
		<stop  offset="1" style="stop-color:#A8ABAD"/>
	</linearGradient>
	<path fill="url(#SVGID_22_)" stroke="#000000" stroke-linejoin="round" stroke-miterlimit="10" d="M498.663,169.617l-4.917-1.281
		c-0.06-0.373-0.104-0.76-0.164-1.133L498.663,169.617z"/>
	
		<linearGradient id="SVGID_23_" gradientUnits="userSpaceOnUse" x1="275.8518" y1="465.2966" x2="57.4098" y2="317.9956" gradientTransform="matrix(1 0 0 -1 214.3999 604.0991)">
		<stop  offset="0" style="stop-color:#95979A"/>
		<stop  offset="1" style="stop-color:#E2E3E4"/>
	</linearGradient>
	<polygon fill="url(#SVGID_23_)" stroke="#000000" stroke-linejoin="round" stroke-miterlimit="10" points="498.663,169.617 
		212.263,295.055 211.101,290.555 493.746,168.336 	"/>
	
		<linearGradient id="SVGID_24_" gradientUnits="userSpaceOnUse" x1="-92.0603" y1="199.072" x2="-85.3938" y2="208.7383" gradientTransform="matrix(1 0 0 -1 214.3999 604.0991)">
		<stop  offset="0" style="stop-color:#AC7360"/>
		<stop  offset="1" style="stop-color:#855849"/>
	</linearGradient>
	<polygon fill="url(#SVGID_24_)" stroke="#000000" stroke-linejoin="round" stroke-miterlimit="10" points="175.7,433.25 
		72.65,371.48 81.5,368.04 108.4,384.05 142.689,404.45 175.1,423.73 	"/>
	
		<linearGradient id="SVGID_25_" gradientUnits="userSpaceOnUse" x1="-130.885" y1="126.9509" x2="2.8808" y2="203.1135" gradientTransform="matrix(1 0 0 -1 214.3999 604.0991)">
		<stop  offset="0" style="stop-color:#734B40"/>
		<stop  offset="1" style="stop-color:#815549"/>
	</linearGradient>
	<polygon fill="url(#SVGID_25_)" stroke="#000000" stroke-linejoin="round" stroke-miterlimit="10" points="214.88,497.04 
		178.17,472.6 175.7,433.25 175.1,423.73 169.54,333.48 212.23,355.84 	"/>
	
		<linearGradient id="SVGID_26_" gradientUnits="userSpaceOnUse" x1="83.637" y1="207.3416" x2="85.6978" y2="203.6239" gradientTransform="matrix(1 0 0 -1 214.3999 604.0991)">
		<stop  offset="0" style="stop-color:#784D40"/>
		<stop  offset="1" style="stop-color:#986353"/>
	</linearGradient>
	<polygon fill="url(#SVGID_26_)" stroke="#000000" stroke-linejoin="round" stroke-miterlimit="10" points="353.005,378.129 
		252.228,431.908 252.153,422.146 285.592,404.385 318.745,386.787 346.016,372.305 	"/>
	
		<line fill="none" stroke="#000000" stroke-linejoin="round" stroke-miterlimit="10" x1="454.885" y1="323.756" x2="454.867" y2="323.756"/>
	
		<linearGradient id="SVGID_27_" gradientUnits="userSpaceOnUse" x1="240.3987" y1="373.6404" x2="240.6426" y2="295.4329" gradientTransform="matrix(1 0 0 -1 214.3999 604.0991)">
		<stop  offset="0" style="stop-color:#7C5143"/>
		<stop  offset="1" style="stop-color:#956252"/>
	</linearGradient>
	<polygon fill="url(#SVGID_27_)" stroke="#000000" stroke-linejoin="round" stroke-miterlimit="10" points="462.961,235.719 
		454.867,323.74 446.928,319.314 453.08,240.457 	"/>
	
		<line fill="none" stroke="#000000" stroke-linejoin="round" stroke-miterlimit="10" x1="454.885" y1="323.756" x2="454.867" y2="323.756"/>
	
		<linearGradient id="SVGID_28_" gradientUnits="userSpaceOnUse" x1="29.6702" y1="230.3948" x2="78.7421" y2="235.3297" gradientTransform="matrix(1 0 0 -1 214.3999 604.0991)">
		<stop  offset="0" style="stop-color:#764B41"/>
		<stop  offset="0.4404" style="stop-color:#72483E"/>
		<stop  offset="1" style="stop-color:#684137"/>
	</linearGradient>
	<polygon fill="url(#SVGID_28_)" stroke="#000000" stroke-linejoin="round" stroke-miterlimit="10" points="286.68,320.164 
		285.592,404.385 252.153,422.146 251.512,337.018 	"/>
	
		<linearGradient id="SVGID_29_" gradientUnits="userSpaceOnUse" x1="66.2375" y1="245.0261" x2="111.5499" y2="254.7811" gradientTransform="matrix(1 0 0 -1 214.3999 604.0991)">
		<stop  offset="0" style="stop-color:#764B41"/>
		<stop  offset="0.4404" style="stop-color:#72483E"/>
		<stop  offset="1" style="stop-color:#684137"/>
	</linearGradient>
	<polygon fill="url(#SVGID_29_)" stroke="#000000" stroke-linejoin="round" stroke-miterlimit="10" points="319.938,304.234 
		318.745,386.787 285.592,404.385 286.68,320.164 	"/>
	
		<linearGradient id="SVGID_30_" gradientUnits="userSpaceOnUse" x1="98.3191" y1="262.0369" x2="143.7377" y2="269.0513" gradientTransform="matrix(1 0 0 -1 214.3999 604.0991)">
		<stop  offset="0" style="stop-color:#764B41"/>
		<stop  offset="0.4404" style="stop-color:#72483E"/>
		<stop  offset="1" style="stop-color:#684137"/>
	</linearGradient>
	<polygon fill="url(#SVGID_30_)" stroke="#000000" stroke-linejoin="round" stroke-miterlimit="10" points="347.506,291.033 
		346.016,372.305 318.745,386.787 319.938,304.234 347.163,291.195 	"/>
	
		<linearGradient id="SVGID_31_" gradientUnits="userSpaceOnUse" x1="134.7864" y1="318.1414" x2="138.0645" y2="229.1051" gradientTransform="matrix(1 0 0 -1 214.3999 604.0991)">
		<stop  offset="0" style="stop-color:#7C5143"/>
		<stop  offset="1" style="stop-color:#956252"/>
	</linearGradient>
	<polygon fill="url(#SVGID_31_)" stroke="#000000" stroke-linejoin="round" stroke-miterlimit="10" points="355.582,287.174 
		353.005,378.115 353.005,378.129 346.016,372.305 347.506,291.033 	"/>
	
		<linearGradient id="SVGID_32_" gradientUnits="userSpaceOnUse" x1="47.6365" y1="275.0261" x2="280.0613" y2="284.2743" gradientTransform="matrix(1 0 0 -1 214.3999 604.0991)">
		<stop  offset="0" style="stop-color:#764B41"/>
		<stop  offset="1" style="stop-color:#684137"/>
	</linearGradient>
	<polygon fill="url(#SVGID_32_)" stroke="#000000" stroke-linejoin="round" stroke-miterlimit="10" points="388.544,271.377 
		383.851,352.275 383.282,361.963 353.005,378.115 355.582,287.174 	"/>
	
		<linearGradient id="SVGID_33_" gradientUnits="userSpaceOnUse" x1="167.5554" y1="294.9978" x2="198.5841" y2="299.375" gradientTransform="matrix(1 0 0 -1 214.3999 604.0991)">
		<stop  offset="0" style="stop-color:#764B41"/>
		<stop  offset="0.4404" style="stop-color:#72483E"/>
		<stop  offset="1" style="stop-color:#684137"/>
	</linearGradient>
	<polygon fill="url(#SVGID_33_)" stroke="#000000" stroke-linejoin="round" stroke-miterlimit="10" points="408.168,261.961 
		403.967,341.771 383.851,352.275 388.544,271.377 	"/>
	
		<linearGradient id="SVGID_34_" gradientUnits="userSpaceOnUse" x1="188.99" y1="306.5115" x2="220.0349" y2="309.713" gradientTransform="matrix(1 0 0 -1 214.3999 604.0991)">
		<stop  offset="0" style="stop-color:#764B41"/>
		<stop  offset="0.4404" style="stop-color:#72483E"/>
		<stop  offset="1" style="stop-color:#684137"/>
	</linearGradient>
	<polygon fill="url(#SVGID_34_)" stroke="#000000" stroke-linejoin="round" stroke-miterlimit="10" points="432.412,250.352 
		427.184,329.627 403.967,341.771 408.168,261.961 	"/>
	
		<linearGradient id="SVGID_35_" gradientUnits="userSpaceOnUse" x1="200.3743" y1="269.0066" x2="203.3575" y2="263.6248" gradientTransform="matrix(1 0 0 -1 214.3999 604.0991)">
		<stop  offset="0" style="stop-color:#784D40"/>
		<stop  offset="1" style="stop-color:#986353"/>
	</linearGradient>
	<polygon fill="url(#SVGID_35_)" stroke="#000000" stroke-linejoin="round" stroke-miterlimit="10" points="454.867,323.74 
		454.867,323.756 383.282,361.963 383.851,352.275 403.967,341.771 427.184,329.627 446.928,319.314 	"/>
	
		<linearGradient id="SVGID_36_" gradientUnits="userSpaceOnUse" x1="213.3889" y1="315.2693" x2="241.8828" y2="324.0141" gradientTransform="matrix(1 0 0 -1 214.3999 604.0991)">
		<stop  offset="0" style="stop-color:#764B41"/>
		<stop  offset="0.4404" style="stop-color:#72483E"/>
		<stop  offset="1" style="stop-color:#684137"/>
	</linearGradient>
	<polygon fill="url(#SVGID_36_)" stroke="#000000" stroke-linejoin="round" stroke-miterlimit="10" points="453.08,240.457 
		446.928,319.314 427.184,329.627 432.412,250.352 	"/>
	
		<line fill="none" stroke="#000000" stroke-linejoin="round" stroke-miterlimit="10" x1="205.215" y1="249.1" x2="205.199" y2="249.1"/>
	
		<line fill="none" stroke="#000000" stroke-linejoin="round" stroke-miterlimit="10" x1="185.604" y1="196.172" x2="185.59" y2="196.172"/>
	
		<linearGradient id="SVGID_37_" gradientUnits="userSpaceOnUse" x1="-130.3796" y1="438.8103" x2="-89.8799" y2="451.3102" gradientTransform="matrix(1 0 0 -1 214.3999 604.0991)">
		<stop  offset="0" style="stop-color:#734B40"/>
		<stop  offset="1" style="stop-color:#946255"/>
	</linearGradient>
	<path fill="url(#SVGID_37_)" stroke="#000000" stroke-linejoin="round" stroke-miterlimit="10" d="M151.153,176.605l-90.778-33.303
		c5.871-4.709,12.605-7.541,19.879-7.705h0.074C105.376,137.654,131.141,153.166,151.153,176.605z"/>
	
		<linearGradient id="SVGID_38_" gradientUnits="userSpaceOnUse" x1="-192.9949" y1="411.4832" x2="-136.853" y2="469.5352" gradientTransform="matrix(1 0 0 -1 214.3999 604.0991)">
		<stop  offset="0" style="stop-color:#AC7360"/>
		<stop  offset="1" style="stop-color:#684137"/>
	</linearGradient>
	<path fill="url(#SVGID_38_)" stroke="#000000" stroke-linejoin="round" stroke-miterlimit="10" d="M80.253,135.598
		c-7.272,0.164-14.008,2.996-19.879,7.705h-0.016c-6.987,5.588-12.8,13.782-16.927,23.186c-3.651,8.285-6.021,17.51-6.766,26.717
		l-6.482,2.967c2.325-30.682,19.581-60.307,43.169-60.782C75.648,135.344,77.943,135.42,80.253,135.598z"/>
	
		<linearGradient id="SVGID_39_" gradientUnits="userSpaceOnUse" x1="-151.1506" y1="402.7087" x2="-82.7823" y2="424.9193" gradientTransform="matrix(1 0 0 -1 214.3999 604.0991)">
		<stop  offset="0" style="stop-color:#734B40"/>
		<stop  offset="1" style="stop-color:#946255"/>
	</linearGradient>
	<path fill="url(#SVGID_39_)" stroke="#000000" stroke-linejoin="round" stroke-miterlimit="10" d="M178.406,223.008l-134.975-56.52
		c4.127-9.402,9.938-17.598,16.927-23.186h0.016l90.778,33.303C162.463,189.869,171.939,205.662,178.406,223.008z"/>
	
		<linearGradient id="SVGID_40_" gradientUnits="userSpaceOnUse" x1="-117.0188" y1="366.2976" x2="-87.6019" y2="409.9781" gradientTransform="matrix(1 0 0 -1 214.3999 604.0991)">
		<stop  offset="0" style="stop-color:#734B40"/>
		<stop  offset="1" style="stop-color:#946255"/>
	</linearGradient>
	<path fill="url(#SVGID_40_)" stroke="#000000" stroke-linejoin="round" stroke-miterlimit="10" d="M186.678,256.625l-150.011-63.42
		c0.745-9.207,3.113-18.432,6.766-26.717l134.976,56.52C182.4,233.707,185.262,244.988,186.678,256.625z"/>
	<path fill="none" stroke="#000000" stroke-linejoin="round" stroke-miterlimit="10" d="M187.303,262.809
		c-0.015-0.193-0.029-0.388-0.044-0.58"/>
	
		<linearGradient id="SVGID_41_" gradientUnits="userSpaceOnUse" x1="-105.3279" y1="375.7253" x2="-103.8515" y2="379.2034" gradientTransform="matrix(1 0 0 -1 214.3999 604.0991)">
		<stop  offset="0" style="stop-color:#AC7360"/>
		<stop  offset="1" style="stop-color:#855849"/>
	</linearGradient>
	<path fill="url(#SVGID_41_)" stroke="#000000" stroke-linejoin="round" stroke-miterlimit="10" d="M187.259,262.229L30.185,196.172
		l6.482-2.967l150.011,63.42C186.916,258.488,187.095,260.352,187.259,262.229z"/>
	
		<linearGradient id="SVGID_42_" gradientUnits="userSpaceOnUse" x1="-198.8157" y1="362.364" x2="-26.8167" y2="359.6975" gradientTransform="matrix(1 0 0 -1 214.3999 604.0991)">
		<stop  offset="0" style="stop-color:#734B40"/>
		<stop  offset="1" style="stop-color:#82564A"/>
	</linearGradient>
	<polygon fill="url(#SVGID_42_)" stroke="#000000" stroke-linejoin="round" stroke-miterlimit="10" points="211.101,290.555 
		16.208,201.461 30.185,196.172 187.259,262.229 	"/>
	
		<line fill="none" stroke="#000000" stroke-linejoin="round" stroke-miterlimit="10" x1="43.433" y1="166.488" x2="43.417" y2="166.488"/>
	
		<line fill="none" stroke="#000000" stroke-linejoin="round" stroke-miterlimit="10" x1="151.183" y1="176.621" x2="151.153" y2="176.605"/>
</g>
</svg>
