<?xml version="1.0" encoding="utf-8"?>
<!-- Generator: Adobe Illustrator 16.0.0, SVG Export Plug-In . SVG Version: 6.00 Build 0)  -->
<!DOCTYPE svg PUBLIC "-//W3C//DTD SVG 1.1//EN" "http://www.w3.org/Graphics/SVG/1.1/DTD/svg11.dtd">
<svg version="1.1" id="Layer_1" xmlns="http://www.w3.org/2000/svg" xmlns:xlink="http://www.w3.org/1999/xlink" x="0px" y="0px"
	 width="486.332px" height="537.373px" viewBox="537.668 486.627 486.332 537.373"
	 enable-background="new 537.668 486.627 486.332 537.373" xml:space="preserve">
<g>
	<g>
		
			<linearGradient id="SVGID_1_" gradientUnits="userSpaceOnUse" x1="609.8284" y1="407.2537" x2="744.3569" y2="432.9198" gradientTransform="matrix(1 0 0 -1 214.3999 1116.0991)">
			<stop  offset="0" style="stop-color:#543931"/>
			<stop  offset="1" style="stop-color:#62433A"/>
		</linearGradient>
		<polygon fill="url(#SVGID_1_)" stroke="#000000" stroke-linejoin="round" stroke-miterlimit="10" points="984.098,717.112 
			980.278,718.772 980.268,718.772 947.898,732.832 925.248,724.803 925.248,724.793 892.678,713.242 866.088,703.803 
			865.318,703.532 856.298,700.332 853.938,699.492 818.088,687.723 818.077,687.723 817.168,662.612 		"/>
		
			<linearGradient id="SVGID_2_" gradientUnits="userSpaceOnUse" x1="590.0862" y1="372.6013" x2="767.7429" y2="440.2803" gradientTransform="matrix(1 0 0 -1 214.3999 1116.0991)">
			<stop  offset="0" style="stop-color:#543931"/>
			<stop  offset="1" style="stop-color:#62433A"/>
		</linearGradient>
		<polygon fill="url(#SVGID_2_)" stroke="#000000" stroke-linejoin="round" stroke-miterlimit="10" points="853.938,699.492 
			853.438,773.853 853.268,773.924 823.568,786.822 818.088,687.723 		"/>
		
			<linearGradient id="SVGID_3_" gradientUnits="userSpaceOnUse" x1="657.5549" y1="335.1882" x2="627.4872" y2="435.3055" gradientTransform="matrix(1 0 0 -1 214.3999 1116.0991)">
			<stop  offset="0" style="stop-color:#8D6151"/>
			<stop  offset="1" style="stop-color:#66463A"/>
		</linearGradient>
		<polygon fill="url(#SVGID_3_)" stroke="#000000" stroke-linejoin="round" stroke-miterlimit="10" points="865.308,703.543 
			864.168,769.192 864.058,769.242 853.438,773.853 853.268,773.924 853.938,699.492 856.298,700.332 864.058,703.094 		"/>
		
			<linearGradient id="SVGID_4_" gradientUnits="userSpaceOnUse" x1="647.6399" y1="379.5242" x2="678.1967" y2="381.707" gradientTransform="matrix(1 0 0 -1 214.3999 1116.0991)">
			<stop  offset="0" style="stop-color:#573932"/>
			<stop  offset="1" style="stop-color:#492F28"/>
		</linearGradient>
		<polygon fill="url(#SVGID_4_)" stroke="#000000" stroke-linejoin="round" stroke-miterlimit="10" points="892.678,713.242 
			889.968,757.992 864.168,769.192 864.058,769.242 865.318,703.532 		"/>
		
			<linearGradient id="SVGID_5_" gradientUnits="userSpaceOnUse" x1="709.3909" y1="381.9993" x2="733.1293" y2="380.2791" gradientTransform="matrix(1 0 0 -1 214.3999 1116.0991)">
			<stop  offset="0" style="stop-color:#573932"/>
			<stop  offset="1" style="stop-color:#492F28"/>
		</linearGradient>
		<polygon fill="url(#SVGID_5_)" stroke="#000000" stroke-linejoin="round" stroke-miterlimit="10" points="947.898,732.832 
			923.407,743.473 923.398,743.473 925.238,724.803 925.248,724.803 		"/>
		
			<linearGradient id="SVGID_6_" gradientUnits="userSpaceOnUse" x1="676.6057" y1="380.4851" x2="713.1676" y2="380.0024" gradientTransform="matrix(1 0 0 -1 214.3999 1116.0991)">
			<stop  offset="0" style="stop-color:#573932"/>
			<stop  offset="1" style="stop-color:#492F28"/>
		</linearGradient>
		<polygon fill="url(#SVGID_6_)" stroke="#000000" stroke-linejoin="round" stroke-miterlimit="10" points="925.248,724.782 
			925.248,724.803 923.407,743.473 923.398,743.473 889.968,757.992 892.678,713.242 		"/>
	</g>
	<g>
		
			<linearGradient id="SVGID_7_" gradientUnits="userSpaceOnUse" x1="336.1643" y1="411.6326" x2="646.2576" y2="365.7695" gradientTransform="matrix(1 0 0 -1 214.3999 1116.0991)">
			<stop  offset="0" style="stop-color:#573932"/>
			<stop  offset="1" style="stop-color:#492F28"/>
		</linearGradient>
		<polygon fill="url(#SVGID_7_)" stroke="#000000" stroke-linejoin="round" stroke-miterlimit="10" points="823.568,786.822 
			798.957,797.513 791.348,698.223 818.077,687.723 818.088,687.723 		"/>
		
			<linearGradient id="SVGID_8_" gradientUnits="userSpaceOnUse" x1="575.593" y1="424.0642" x2="575.8787" y2="332.4531" gradientTransform="matrix(1 0 0 -1 214.3999 1116.0991)">
			<stop  offset="0" style="stop-color:#5D3F34"/>
			<stop  offset="1" style="stop-color:#765043"/>
		</linearGradient>
		<polygon fill="url(#SVGID_8_)" stroke="#000000" stroke-linejoin="round" stroke-miterlimit="10" points="798.957,797.513 
			790.238,801.303 781.388,702.143 791.348,698.223 		"/>
		
			<linearGradient id="SVGID_9_" gradientUnits="userSpaceOnUse" x1="409.7209" y1="343.1658" x2="433.6014" y2="348.3069" gradientTransform="matrix(1 0 0 -1 214.3999 1116.0991)">
			<stop  offset="0" style="stop-color:#573932"/>
			<stop  offset="1" style="stop-color:#492F28"/>
		</linearGradient>
		<polygon fill="url(#SVGID_9_)" stroke="#000000" stroke-linejoin="round" stroke-miterlimit="10" points="650.838,780.282 
			619.997,765.532 647.168,754.872 		"/>
		
			<linearGradient id="SVGID_10_" gradientUnits="userSpaceOnUse" x1="436.0632" y1="342.1458" x2="467.0695" y2="346.9344" gradientTransform="matrix(1 0 0 -1 214.3999 1116.0991)">
			<stop  offset="0" style="stop-color:#573932"/>
			<stop  offset="1" style="stop-color:#492F28"/>
		</linearGradient>
		<polygon fill="url(#SVGID_10_)" stroke="#000000" stroke-linejoin="round" stroke-miterlimit="10" points="682.188,795.272 
			650.838,780.282 647.168,754.872 674.617,744.094 674.957,743.952 		"/>
		
			<linearGradient id="SVGID_11_" gradientUnits="userSpaceOnUse" x1="467.3665" y1="376.2302" x2="469.4942" y2="318.4367" gradientTransform="matrix(1 0 0 -1 214.3999 1116.0991)">
			<stop  offset="0" style="stop-color:#5D3F34"/>
			<stop  offset="1" style="stop-color:#765043"/>
		</linearGradient>
		<polygon fill="url(#SVGID_11_)" stroke="#000000" stroke-linejoin="round" stroke-miterlimit="10" points="690.918,799.452 
			682.188,795.272 674.957,743.952 683.108,740.763 		"/>
		
			<linearGradient id="SVGID_12_" gradientUnits="userSpaceOnUse" x1="381.4744" y1="339.2214" x2="612.9971" y2="348.4338" gradientTransform="matrix(1 0 0 -1 214.3999 1116.0991)">
			<stop  offset="0" style="stop-color:#573932"/>
			<stop  offset="1" style="stop-color:#492F28"/>
		</linearGradient>
		<polygon fill="url(#SVGID_12_)" stroke="#000000" stroke-linejoin="round" stroke-miterlimit="10" points="725.738,816.094 
			690.918,799.452 683.108,740.763 716.327,727.702 		"/>
		
			<linearGradient id="SVGID_13_" gradientUnits="userSpaceOnUse" x1="508.0652" y1="342.4109" x2="528.1086" y2="345.2383" gradientTransform="matrix(1 0 0 -1 214.3999 1116.0991)">
			<stop  offset="0" style="stop-color:#573932"/>
			<stop  offset="1" style="stop-color:#492F28"/>
		</linearGradient>
		<polygon fill="url(#SVGID_13_)" stroke="#000000" stroke-linejoin="round" stroke-miterlimit="10" points="747.228,819.982 
			740.218,823.022 725.738,816.094 716.327,727.702 736.108,719.924 		"/>
		
			<linearGradient id="SVGID_14_" gradientUnits="userSpaceOnUse" x1="529.1565" y1="349.8811" x2="550.0015" y2="352.0308" gradientTransform="matrix(1 0 0 -1 214.3999 1116.0991)">
			<stop  offset="0" style="stop-color:#573932"/>
			<stop  offset="1" style="stop-color:#492F28"/>
		</linearGradient>
		<polygon fill="url(#SVGID_14_)" stroke="#000000" stroke-linejoin="round" stroke-miterlimit="10" points="770.468,809.884 
			747.228,819.982 736.108,719.924 760.548,710.322 		"/>
		
			<linearGradient id="SVGID_15_" gradientUnits="userSpaceOnUse" x1="551.3362" y1="356.9583" x2="574.8654" y2="364.1794" gradientTransform="matrix(1 0 0 -1 214.3999 1116.0991)">
			<stop  offset="0" style="stop-color:#573932"/>
			<stop  offset="1" style="stop-color:#492F28"/>
		</linearGradient>
		<polygon fill="url(#SVGID_15_)" stroke="#000000" stroke-linejoin="round" stroke-miterlimit="10" points="790.238,801.303 
			770.468,809.884 760.548,710.322 781.388,702.143 		"/>
	</g>
	
		<linearGradient id="SVGID_16_" gradientUnits="userSpaceOnUse" x1="553.9875" y1="182.9734" x2="781.0394" y2="197.0489" gradientTransform="matrix(1 0 0 -1 214.3999 1116.0991)">
		<stop  offset="0" style="stop-color:#764B41"/>
		<stop  offset="1" style="stop-color:#684137"/>
	</linearGradient>
	<polygon fill="url(#SVGID_16_)" stroke="#000000" stroke-linejoin="round" stroke-miterlimit="10" points="980.202,850.717 
		977.105,884.497 777.891,1001.813 777.563,958.868 878.34,905.09 878.34,905.075 908.618,888.924 	"/>
	
		<linearGradient id="SVGID_17_" gradientUnits="userSpaceOnUse" x1="616.762" y1="323.24" x2="814.1388" y2="294.0478" gradientTransform="matrix(1 0 0 -1 214.3999 1116.0991)">
		<stop  offset="0" style="stop-color:#764B41"/>
		<stop  offset="1" style="stop-color:#684137"/>
	</linearGradient>
	<polygon fill="url(#SVGID_17_)" stroke="#000000" stroke-linejoin="round" stroke-miterlimit="10" points="1014.82,749.969 
		1001.23,870.297 977.105,884.497 980.202,850.717 980.202,850.7 988.297,762.679 	"/>
	
		<linearGradient id="SVGID_18_" gradientUnits="userSpaceOnUse" x1="520.2874" y1="175.7791" x2="725.3492" y2="144.2174" gradientTransform="matrix(1 0 0 -1 214.3999 1116.0991)">
		<stop  offset="0" style="stop-color:#764B41"/>
		<stop  offset="1" style="stop-color:#684137"/>
	</linearGradient>
	<polygon fill="url(#SVGID_18_)" stroke="#000000" stroke-linejoin="round" stroke-miterlimit="10" points="777.896,1001.81 
		740.215,1024 737.566,882.801 776.846,863.979 777.486,949.11 777.566,958.87 	"/>
	
		<line fill="none" stroke="#000000" stroke-linejoin="round" stroke-miterlimit="10" x1="1017.846" y1="723.177" x2="1017.846" y2="723.162"/>
	
		<linearGradient id="SVGID_19_" gradientUnits="userSpaceOnUse" x1="514.1184" y1="303.9939" x2="807.0156" y2="321.8955" gradientTransform="matrix(1 0 0 -1 214.3999 1116.0991)">
		<stop  offset="0" style="stop-color:#764B41"/>
		<stop  offset="1" style="stop-color:#684137"/>
	</linearGradient>
	<polygon fill="url(#SVGID_19_)" stroke="#000000" stroke-linejoin="round" stroke-miterlimit="10" points="1017.846,723.177 
		1014.82,749.969 988.297,762.679 978.416,767.418 957.748,777.312 933.504,788.922 913.879,798.338 880.918,814.135 
		872.842,817.993 872.5,818.155 845.273,831.194 812.016,847.125 776.848,863.978 737.568,882.799 736.973,851.177 738.611,852.013 
			"/>
	
		<line fill="none" stroke="#000000" stroke-linejoin="round" stroke-miterlimit="10" x1="736.973" y1="851.177" x2="736.973" y2="851.133"/>
	
		<linearGradient id="SVGID_20_" gradientUnits="userSpaceOnUse" x1="335.2175" y1="387.2634" x2="526.8992" y2="248.1401" gradientTransform="matrix(1 0 0 -1 214.3999 1116.0991)">
		<stop  offset="0" style="stop-color:#777475"/>
		<stop  offset="1" style="stop-color:#A8ABAD"/>
	</linearGradient>
	<polygon fill="url(#SVGID_20_)" stroke="#000000" stroke-linejoin="round" stroke-miterlimit="10" points="738.608,836.683 
		738.608,852.013 736.978,851.183 736.968,851.174 543.688,753.272 541.048,751.933 538.827,740.522 	"/>
	
		<linearGradient id="SVGID_21_" gradientUnits="userSpaceOnUse" x1="775.3645" y1="367.8752" x2="622.8271" y2="520.4128" gradientTransform="matrix(1 0 0 -1 214.3999 1116.0991)">
		<stop  offset="0" style="stop-color:#575355"/>
		<stop  offset="1" style="stop-color:#828B91"/>
	</linearGradient>
	<polygon fill="url(#SVGID_21_)" stroke="#000000" stroke-linejoin="round" stroke-miterlimit="10" points="1023.998,708.393 
		1004.168,708.393 817.168,649.692 817.168,641.112 	"/>
	
		<linearGradient id="SVGID_22_" gradientUnits="userSpaceOnUse" x1="346.6575" y1="282.8787" x2="493.2556" y2="310.8475" gradientTransform="matrix(1 0 0 -1 214.3999 1116.0991)">
		<stop  offset="0" style="stop-color:#734B40"/>
		<stop  offset="1" style="stop-color:#815549"/>
	</linearGradient>
	<polygon fill="url(#SVGID_22_)" stroke="#000000" stroke-linejoin="round" stroke-miterlimit="10" points="737.566,882.801 
		694.875,860.44 660.465,841.95 660.465,841.94 625.557,823.18 597.156,807.9 596.336,807.47 584.215,800.94 548.977,782.01 
		543.686,753.28 736.977,851.18 	"/>
	
		<linearGradient id="SVGID_23_" gradientUnits="userSpaceOnUse" x1="326.9875" y1="491.6785" x2="483.4367" y2="489.2531" gradientTransform="matrix(1 0 0 -1 214.3999 1116.0991)">
		<stop  offset="0" style="stop-color:#734B40"/>
		<stop  offset="1" style="stop-color:#815549"/>
	</linearGradient>
	<path fill="url(#SVGID_23_)" stroke="#000000" stroke-linejoin="round" stroke-miterlimit="10" d="M720.478,588.134l-0.029,0.01
		v0.01l-1.939,1.49l-22.931,0.319c-0.5-1.579-1-3.131-1.561-4.609c-3.39-9.33-7.92-16.69-13.3-22.22
		c-8.7-8.98-19.62-13.11-31.59-12.78c-21.19,0.609-45.69,15.17-67.03,41.54l-0.061,0.09c-1.96,2.44-3.899,4.97-5.811,7.6
		c-19.64,27.11-28.439,74.432-24.569,105.881l-10.681,20.771c-4.569-43.979,9.08-107.84,36.11-144.37
		c20.359-27.5,41.08-45.05,60.449-52.81c4.99-2.012,9.899-3.352,14.689-4.051c0.051-0.011,0.11-0.011,0.16-0.021
		c4.66-0.67,9.2-0.72,13.609-0.14c0.32,0.028,0.631,0.068,0.931,0.119c3.149,0.471,6.24,1.271,9.229,2.391
		c0.3,0.109,0.601,0.229,0.899,0.35c1.561,0.602,3.091,1.3,4.591,2.09c2.529,1.32,4.979,2.882,7.359,4.69
		c0.05,0.04,0.101,0.07,0.149,0.12c1.931,1.47,3.811,3.109,5.63,4.898c0.221,0.211,0.431,0.432,0.641,0.65
		c0.351,0.37,0.71,0.75,1.061,1.13c0.069,0.08,0.141,0.16,0.22,0.24c2.631,2.83,5.15,5.979,7.5,9.5h0.011
		c1.33,1.99,2.63,4.09,3.88,6.31c2.42,4.29,4.67,8.98,6.729,14.102C716.907,576.572,718.787,582.143,720.478,588.134z"/>
	
		<linearGradient id="SVGID_24_" gradientUnits="userSpaceOnUse" x1="597.2786" y1="510.4543" x2="695.7187" y2="508.9282" gradientTransform="matrix(1 0 0 -1 214.3999 1116.0991)">
		<stop  offset="0" style="stop-color:#543931"/>
		<stop  offset="1" style="stop-color:#62433A"/>
	</linearGradient>
	<path fill="url(#SVGID_24_)" stroke="#000000" stroke-linejoin="round" stroke-miterlimit="10" d="M823.957,615.572l-4.68,9.03
		l-0.101,0.06l-0.141,0.091l-0.319,0.21l-0.301,0.199c-0.77,0.5-1.88,1.25-2.939,1.99l-0.52,0.36l-2.051,1.398l-0.391,0.262
		l-0.109,0.068c-0.41-7.09-0.58-13.43-0.34-19.92c0.21-6.02,0.77-12.17,1.79-19.16c0.26-1.818,0.56-3.699,0.89-5.659l8.12-2.101
		l0.649-0.16c-0.05,0.36-0.1,0.71-0.141,1.062c-0.09,0.659-0.17,1.31-0.25,1.938c-0.149,1.381-0.279,2.69-0.39,3.95
		c-0.08,0.92-0.141,1.8-0.19,2.67c-0.02,0.41-0.039,0.82-0.06,1.23c-0.03,0.71-0.051,1.409-0.061,2.1
		c-0.011,0.7-0.021,1.4-0.021,2.08c0.01,0.43,0.01,0.85,0.021,1.26c0,0.4,0.01,0.801,0.029,1.2c0.011,0.2,0.011,0.4,0.021,0.59
		c0.021,0.48,0.04,0.96,0.07,1.431c0.039,0.681,0.08,1.359,0.13,2.029c0.05,0.671,0.109,1.352,0.17,2.03
		c0,0.05,0.011,0.101,0.011,0.149c0.061,0.631,0.13,1.261,0.189,1.899c0.069,0.681,0.149,1.38,0.229,2.091
		c0.029,0.3,0.069,0.609,0.109,0.92c0.04,0.38,0.09,0.761,0.13,1.141c0.091,0.689,0.17,1.399,0.261,2.12
		C823.838,614.603,823.898,615.082,823.957,615.572z"/>
	
		<linearGradient id="SVGID_25_" gradientUnits="userSpaceOnUse" x1="600.0891" y1="532.7156" x2="666.2995" y2="531.6892" gradientTransform="matrix(1 0 0 -1 214.3999 1116.0991)">
		<stop  offset="0" style="stop-color:#85683B"/>
		<stop  offset="1" style="stop-color:#9B7A47"/>
	</linearGradient>
	<path fill="url(#SVGID_25_)" stroke="#000000" stroke-linejoin="round" stroke-miterlimit="10" d="M822.867,582.402l-8.119,2.1
		c0.01-0.078,0.029-0.158,0.039-0.238C817.867,583.452,819.698,583.162,822.867,582.402z"/>
	
		<linearGradient id="SVGID_26_" gradientUnits="userSpaceOnUse" x1="588.5881" y1="544.3376" x2="862.8645" y2="604.5223" gradientTransform="matrix(1.0328 0.2058 -0.5515 -1.0781 350.047 978.3934)">
		<stop  offset="0" style="stop-color:#AC7360"/>
		<stop  offset="1" style="stop-color:#986352"/>
	</linearGradient>
	<path fill="url(#SVGID_26_)" stroke="#000000" stroke-linejoin="round" stroke-miterlimit="10" d="M915.168,487.692L681.65,529.793
		c-7.73-3.767-14.647-6.35-29.427-4.793l229.818-35.592C896.5,486.642,893.5,485.693,915.168,487.692z"/>
	
		<linearGradient id="SVGID_27_" gradientUnits="userSpaceOnUse" x1="327.658" y1="459.5208" x2="481.3765" y2="457.1376" gradientTransform="matrix(1 0 0 -1 214.3999 1116.0991)">
		<stop  offset="0" style="stop-color:#734B40"/>
		<stop  offset="1" style="stop-color:#815549"/>
	</linearGradient>
	<polygon fill="url(#SVGID_27_)" stroke="#000000" stroke-linejoin="round" stroke-miterlimit="10" points="718.508,589.643 
		562.028,710.242 561.588,710.582 540.978,726.232 551.657,705.463 695.577,589.963 	"/>
	
		<linearGradient id="SVGID_28_" gradientUnits="userSpaceOnUse" x1="621.0823" y1="526.9666" x2="897.2092" y2="617.264" gradientTransform="matrix(1.0328 0.2058 -0.5515 -1.0781 350.047 978.3934)">
		<stop  offset="0" style="stop-color:#A26D5B"/>
		<stop  offset="1" style="stop-color:#8E5D4D"/>
	</linearGradient>
	<path fill="url(#SVGID_28_)" stroke="#000000" stroke-linejoin="round" stroke-miterlimit="10" d="M943.161,502.442
		l-238.948,48.579c-8.044-11.162-12.961-15.828-22.563-21.229l233.519-42.101C926,488.943,936.25,495.693,943.161,502.442z"/>
	
		<linearGradient id="SVGID_29_" gradientUnits="userSpaceOnUse" x1="488.4456" y1="579.1609" x2="741.7441" y2="579.1609" gradientTransform="matrix(1 0 0 -1 214.3999 1116.0991)">
		<stop  offset="0" style="stop-color:#9A6756"/>
		<stop  offset="1" style="stop-color:#865748"/>
	</linearGradient>
	<path fill="url(#SVGID_29_)" stroke="#000000" stroke-linejoin="round" stroke-miterlimit="10" d="M956.668,519.353l-241.841,52.08
		c-4.489-9.91-4.891-10.7-10.62-20.41h0.011l238.939-48.58C950.448,510.652,952.127,512.924,956.668,519.353z"/>
	
		<linearGradient id="SVGID_30_" gradientUnits="userSpaceOnUse" x1="501.071" y1="562.3552" x2="752.7728" y2="562.3552" gradientTransform="matrix(1 0 0 -1 214.3999 1116.0991)">
		<stop  offset="0" style="stop-color:#906050"/>
		<stop  offset="1" style="stop-color:#7D5142"/>
	</linearGradient>
	<path fill="url(#SVGID_30_)" stroke="#000000" stroke-linejoin="round" stroke-miterlimit="10" d="M963.918,534.433l-241.58,52.26
		l-1.86,1.44c-1.689-5.99-3.569-11.562-5.649-16.7l241.841-52.08c3.5,6.42,4.88,9.59,6.729,14.74
		C963.478,534.293,963.707,534.353,963.918,534.433z"/>
	
		<linearGradient id="SVGID_31_" gradientUnits="userSpaceOnUse" x1="502.7107" y1="536.0925" x2="503.7828" y2="536.5327" gradientTransform="matrix(1 0 0 -1 214.3999 1116.0991)">
		<stop  offset="0" style="stop-color:#806149"/>
		<stop  offset="1" style="stop-color:#6B4F39"/>
	</linearGradient>
	<path fill="url(#SVGID_31_)" stroke="#000000" stroke-linejoin="round" stroke-miterlimit="10" d="M720.478,588.134l-0.029,0.01
		c-2.09-6.99-2.689-8.74-5.62-16.71C716.907,576.572,718.787,582.143,720.478,588.134z"/>
	
		<linearGradient id="SVGID_32_" gradientUnits="userSpaceOnUse" x1="801.1096" y1="447.0242" x2="545.7067" y2="239.4454" gradientTransform="matrix(1 0 0 -1 214.3999 1116.0991)">
		<stop  offset="0" style="stop-color:#777475"/>
		<stop  offset="1" style="stop-color:#A8ABAD"/>
	</linearGradient>
	<polygon fill="url(#SVGID_32_)" stroke="#000000" stroke-linejoin="round" stroke-miterlimit="10" points="1023.998,708.393 
		1021.928,721.303 1017.848,723.174 738.608,852.013 738.608,836.683 	"/>
	
		<linearGradient id="SVGID_33_" gradientUnits="userSpaceOnUse" x1="382.2029" y1="339.5974" x2="590.0494" y2="547.444" gradientTransform="matrix(1 0 0 -1 214.3999 1116.0991)">
		<stop  offset="0" style="stop-color:#575355"/>
		<stop  offset="1" style="stop-color:#828B91"/>
	</linearGradient>
	<polygon fill="url(#SVGID_33_)" stroke="#000000" stroke-linejoin="round" stroke-miterlimit="10" points="817.168,641.112 
		817.168,649.692 563.707,738.612 538.827,740.522 	"/>
	
		<linearGradient id="SVGID_34_" gradientUnits="userSpaceOnUse" x1="338.6575" y1="250.1204" x2="488.7372" y2="307.2936" gradientTransform="matrix(1 0 0 -1 214.3999 1116.0991)">
		<stop  offset="0" style="stop-color:#734B40"/>
		<stop  offset="1" style="stop-color:#815549"/>
	</linearGradient>
	<polygon fill="url(#SVGID_34_)" stroke="#000000" stroke-linejoin="round" stroke-miterlimit="10" points="602.803,932.554 
		573.059,912.765 548.979,782.006 584.219,800.944 597.988,898.442 	"/>
	
		<linearGradient id="SVGID_35_" gradientUnits="userSpaceOnUse" x1="400.1116" y1="205.3679" x2="358.9446" y2="342.4427" gradientTransform="matrix(1 0 0 -1 214.3999 1116.0991)">
		<stop  offset="0" style="stop-color:#AC7360"/>
		<stop  offset="1" style="stop-color:#855849"/>
	</linearGradient>
	<polygon fill="url(#SVGID_35_)" stroke="#000000" stroke-linejoin="round" stroke-miterlimit="10" points="606.84,895.002 
		597.988,898.442 584.219,800.944 596.334,807.472 	"/>
	
		<linearGradient id="SVGID_36_" gradientUnits="userSpaceOnUse" x1="385.9983" y1="255.8123" x2="414.1044" y2="257.8202" gradientTransform="matrix(1 0 0 -1 214.3999 1116.0991)">
		<stop  offset="0" style="stop-color:#764B41"/>
		<stop  offset="1" style="stop-color:#684137"/>
	</linearGradient>
	<polygon fill="url(#SVGID_36_)" stroke="#000000" stroke-linejoin="round" stroke-miterlimit="10" points="633.736,911.008 
		606.84,895.002 596.334,807.472 597.154,807.903 625.557,823.177 	"/>
	
		<linearGradient id="SVGID_37_" gradientUnits="userSpaceOnUse" x1="445.5813" y1="219.7791" x2="485.7794" y2="219.7791" gradientTransform="matrix(1 0 0 -1 214.3999 1116.0991)">
		<stop  offset="0" style="stop-color:#764B41"/>
		<stop  offset="1" style="stop-color:#684137"/>
	</linearGradient>
	<polygon fill="url(#SVGID_37_)" stroke="#000000" stroke-linejoin="round" stroke-miterlimit="10" points="700.436,950.69 
		668.025,931.41 660.465,841.95 694.875,860.44 	"/>
	
		<linearGradient id="SVGID_38_" gradientUnits="userSpaceOnUse" x1="378.657" y1="145.1223" x2="532.2823" y2="203.6463" gradientTransform="matrix(1 0 0 -1 214.3999 1116.0991)">
		<stop  offset="0" style="stop-color:#734B40"/>
		<stop  offset="1" style="stop-color:#815549"/>
	</linearGradient>
	<polygon fill="url(#SVGID_38_)" stroke="#000000" stroke-linejoin="round" stroke-miterlimit="10" points="703.506,999.56 
		602.865,932.99 602.807,932.551 597.986,898.44 701.034,960.211 	"/>
	
		<linearGradient id="SVGID_39_" gradientUnits="userSpaceOnUse" x1="411.3806" y1="239.0837" x2="457.444" y2="238.4754" gradientTransform="matrix(1 0 0 -1 214.3999 1116.0991)">
		<stop  offset="0" style="stop-color:#764B41"/>
		<stop  offset="1" style="stop-color:#684137"/>
	</linearGradient>
	<polygon fill="url(#SVGID_39_)" stroke="#000000" stroke-linejoin="round" stroke-miterlimit="10" points="668.023,931.405 
		633.736,911.008 625.557,823.177 660.471,841.938 660.471,841.954 	"/>
	
		<linearGradient id="SVGID_40_" gradientUnits="userSpaceOnUse" x1="761.2112" y1="510.1848" x2="523.4338" y2="580.557" gradientTransform="matrix(1 0 0 -1 214.3999 1116.0991)">
		<stop  offset="0" style="stop-color:#777475"/>
		<stop  offset="1" style="stop-color:#A8ABAD"/>
	</linearGradient>
	<polygon fill="url(#SVGID_40_)" stroke="#000000" stroke-linejoin="round" stroke-miterlimit="10" points="974.498,541.442 
		729.668,602.522 723.428,589.043 722.338,586.692 963.918,534.433 963.928,534.433 966.598,533.853 	"/>
	
		<linearGradient id="SVGID_41_" gradientUnits="userSpaceOnUse" x1="433.2747" y1="184.1111" x2="439.9418" y2="193.7784" gradientTransform="matrix(1 0 0 -1 214.3999 1116.0991)">
		<stop  offset="0" style="stop-color:#AC7360"/>
		<stop  offset="1" style="stop-color:#855849"/>
	</linearGradient>
	<polygon fill="url(#SVGID_41_)" stroke="#000000" stroke-linejoin="round" stroke-miterlimit="10" points="701.034,960.211 
		597.986,898.44 606.836,895 633.736,911.01 668.025,931.41 700.436,950.69 	"/>
	
		<linearGradient id="SVGID_42_" gradientUnits="userSpaceOnUse" x1="394.448" y1="111.99" x2="528.2161" y2="188.1539" gradientTransform="matrix(1 0 0 -1 214.3999 1116.0991)">
		<stop  offset="0" style="stop-color:#734B40"/>
		<stop  offset="1" style="stop-color:#815549"/>
	</linearGradient>
	<polygon fill="url(#SVGID_42_)" stroke="#000000" stroke-linejoin="round" stroke-miterlimit="10" points="740.215,1024 
		703.506,999.56 701.034,960.211 700.436,950.69 694.875,860.44 737.566,882.801 	"/>
	
		<linearGradient id="SVGID_43_" gradientUnits="userSpaceOnUse" x1="608.9729" y1="192.3811" x2="611.0337" y2="188.6635" gradientTransform="matrix(1 0 0 -1 214.3999 1116.0991)">
		<stop  offset="0" style="stop-color:#784D40"/>
		<stop  offset="1" style="stop-color:#986353"/>
	</linearGradient>
	<polygon fill="url(#SVGID_43_)" stroke="#000000" stroke-linejoin="round" stroke-miterlimit="10" points="878.34,905.09 
		777.563,958.868 777.488,949.106 810.928,931.345 844.082,913.747 871.352,899.265 	"/>
	
		<line fill="none" stroke="#000000" stroke-linejoin="round" stroke-miterlimit="10" x1="980.221" y1="850.717" x2="980.202" y2="850.717"/>
	
		<linearGradient id="SVGID_44_" gradientUnits="userSpaceOnUse" x1="765.7346" y1="358.6814" x2="765.9785" y2="280.4723" gradientTransform="matrix(1 0 0 -1 214.3999 1116.0991)">
		<stop  offset="0" style="stop-color:#7C5143"/>
		<stop  offset="1" style="stop-color:#956252"/>
	</linearGradient>
	<polygon fill="url(#SVGID_44_)" stroke="#000000" stroke-linejoin="round" stroke-miterlimit="10" points="988.297,762.679 
		980.202,850.7 972.264,846.274 978.416,767.418 	"/>
	
		<line fill="none" stroke="#000000" stroke-linejoin="round" stroke-miterlimit="10" x1="980.221" y1="850.717" x2="980.202" y2="850.717"/>
	
		<linearGradient id="SVGID_45_" gradientUnits="userSpaceOnUse" x1="559.926" y1="217.9836" x2="598.8524" y2="217.9836" gradientTransform="matrix(1 0 0 -1 214.3999 1116.0991)">
		<stop  offset="0" style="stop-color:#764B41"/>
		<stop  offset="1" style="stop-color:#684137"/>
	</linearGradient>
	<polygon fill="url(#SVGID_45_)" stroke="#000000" stroke-linejoin="round" stroke-miterlimit="10" points="812.016,847.125 
		810.928,931.345 777.488,949.106 776.848,863.978 	"/>
	
		<linearGradient id="SVGID_46_" gradientUnits="userSpaceOnUse" x1="591.5725" y1="230.0652" x2="636.8861" y2="239.8204" gradientTransform="matrix(1 0 0 -1 214.3999 1116.0991)">
		<stop  offset="0" style="stop-color:#764B41"/>
		<stop  offset="1" style="stop-color:#684137"/>
	</linearGradient>
	<polygon fill="url(#SVGID_46_)" stroke="#000000" stroke-linejoin="round" stroke-miterlimit="10" points="845.273,831.194 
		844.082,913.747 810.928,931.345 812.016,847.125 	"/>
	
		<linearGradient id="SVGID_47_" gradientUnits="userSpaceOnUse" x1="623.6565" y1="247.0779" x2="669.0741" y2="254.0923" gradientTransform="matrix(1 0 0 -1 214.3999 1116.0991)">
		<stop  offset="0" style="stop-color:#764B41"/>
		<stop  offset="1" style="stop-color:#684137"/>
	</linearGradient>
	<polygon fill="url(#SVGID_47_)" stroke="#000000" stroke-linejoin="round" stroke-miterlimit="10" points="872.842,817.993 
		871.352,899.265 844.082,913.747 845.273,831.194 872.5,818.155 	"/>
	
		<linearGradient id="SVGID_48_" gradientUnits="userSpaceOnUse" x1="660.1223" y1="303.1799" x2="663.4003" y2="214.1437" gradientTransform="matrix(1 0 0 -1 214.3999 1116.0991)">
		<stop  offset="0" style="stop-color:#7C5143"/>
		<stop  offset="1" style="stop-color:#956252"/>
	</linearGradient>
	<polygon fill="url(#SVGID_48_)" stroke="#000000" stroke-linejoin="round" stroke-miterlimit="10" points="880.918,814.135 
		878.34,905.075 878.34,905.09 871.352,899.265 872.842,817.993 	"/>
	
		<linearGradient id="SVGID_49_" gradientUnits="userSpaceOnUse" x1="572.9709" y1="260.0662" x2="805.4015" y2="269.3145" gradientTransform="matrix(1 0 0 -1 214.3999 1116.0991)">
		<stop  offset="0" style="stop-color:#764B41"/>
		<stop  offset="1" style="stop-color:#684137"/>
	</linearGradient>
	<polygon fill="url(#SVGID_49_)" stroke="#000000" stroke-linejoin="round" stroke-miterlimit="10" points="913.879,798.338 
		909.186,879.235 908.618,888.924 878.34,905.075 880.918,814.135 	"/>
	
		<linearGradient id="SVGID_50_" gradientUnits="userSpaceOnUse" x1="692.8879" y1="280.0369" x2="723.9182" y2="284.4141" gradientTransform="matrix(1 0 0 -1 214.3999 1116.0991)">
		<stop  offset="0" style="stop-color:#764B41"/>
		<stop  offset="1" style="stop-color:#684137"/>
	</linearGradient>
	<polygon fill="url(#SVGID_50_)" stroke="#000000" stroke-linejoin="round" stroke-miterlimit="10" points="933.504,788.922 
		929.303,868.731 909.186,879.235 913.879,798.338 	"/>
	
		<linearGradient id="SVGID_51_" gradientUnits="userSpaceOnUse" x1="714.3274" y1="291.5515" x2="745.3723" y2="294.7531" gradientTransform="matrix(1 0 0 -1 214.3999 1116.0991)">
		<stop  offset="0" style="stop-color:#764B41"/>
		<stop  offset="1" style="stop-color:#684137"/>
	</linearGradient>
	<polygon fill="url(#SVGID_51_)" stroke="#000000" stroke-linejoin="round" stroke-miterlimit="10" points="957.748,777.312 
		952.52,856.588 929.303,868.731 933.504,788.922 	"/>
	
		<linearGradient id="SVGID_52_" gradientUnits="userSpaceOnUse" x1="725.7102" y1="254.0476" x2="728.694" y2="248.6647" gradientTransform="matrix(1 0 0 -1 214.3999 1116.0991)">
		<stop  offset="0" style="stop-color:#784D40"/>
		<stop  offset="1" style="stop-color:#986353"/>
	</linearGradient>
	<polygon fill="url(#SVGID_52_)" stroke="#000000" stroke-linejoin="round" stroke-miterlimit="10" points="980.202,850.7 
		980.202,850.717 908.618,888.924 909.186,879.235 929.303,868.731 952.52,856.588 972.264,846.274 	"/>
	
		<linearGradient id="SVGID_53_" gradientUnits="userSpaceOnUse" x1="738.7258" y1="300.3093" x2="767.2186" y2="309.0538" gradientTransform="matrix(1 0 0 -1 214.3999 1116.0991)">
		<stop  offset="0" style="stop-color:#764B41"/>
		<stop  offset="1" style="stop-color:#684137"/>
	</linearGradient>
	<polygon fill="url(#SVGID_53_)" stroke="#000000" stroke-linejoin="round" stroke-miterlimit="10" points="978.416,767.418 
		972.264,846.274 952.52,856.588 957.748,777.312 	"/>
	
		<linearGradient id="SVGID_54_" gradientUnits="userSpaceOnUse" x1="451.7151" y1="760.2439" x2="492.2124" y2="772.743" gradientTransform="matrix(0.8364 -1.1303 -0.1898 -0.9391 357.3068 1840.1201)">
		<stop  offset="0" style="stop-color:#734B40"/>
		<stop  offset="1" style="stop-color:#946255"/>
	</linearGradient>
	<path fill="url(#SVGID_54_)" stroke="#000000" stroke-linejoin="round" stroke-miterlimit="10" d="M649.122,550.355l-82.244,71.328
		c4.014-11.055,9.111-21.328,15.163-29.701l0.062-0.086C603.442,565.518,627.937,550.964,649.122,550.355z"/>
	
		<linearGradient id="SVGID_55_" gradientUnits="userSpaceOnUse" x1="389.0994" y1="732.9099" x2="445.2428" y2="790.9633" gradientTransform="matrix(0.8364 -1.1303 -0.1898 -0.9391 357.3068 1840.1201)">
		<stop  offset="0" style="stop-color:#AC7360"/>
		<stop  offset="1" style="stop-color:#684137"/>
	</linearGradient>
	<path fill="url(#SVGID_55_)" stroke="#000000" stroke-linejoin="round" stroke-miterlimit="10" d="M582.041,591.982
		c-6.052,8.373-11.149,18.646-15.163,29.701l-0.013,0.018c-4.785,13.146-8.092,27.412-9.759,40.912
		c-1.478,11.901-1.71,23.244-0.587,32.734l-4.859,10.113c-3.877-31.446,4.933-78.769,24.569-105.878
		C578.142,596.949,580.076,594.425,582.041,591.982z"/>
	
		<linearGradient id="SVGID_56_" gradientUnits="userSpaceOnUse" x1="301.6877" y1="423.7141" x2="538.1199" y2="483.1407" gradientTransform="matrix(1 0 0 -1 214.3999 1116.0991)">
		<stop  offset="0" style="stop-color:#777475"/>
		<stop  offset="1" style="stop-color:#A8ABAD"/>
	</linearGradient>
	<path fill="url(#SVGID_56_)" stroke="#000000" stroke-linejoin="round" stroke-miterlimit="10" d="M729.668,602.522l-160.62,116.15
		h-0.011l-30.21,21.85c-0.689-5.51-0.771-7.68-1.159-11.5l23.92-18.44l0.439-0.34l156.479-120.6l1.939-1.49v-0.01l0.029-0.01
		l1.86-1.44l1.09,2.35L729.668,602.522z"/>
	
		<linearGradient id="SVGID_57_" gradientUnits="userSpaceOnUse" x1="430.9426" y1="724.1355" x2="499.3088" y2="746.3455" gradientTransform="matrix(0.8364 -1.1303 -0.1898 -0.9391 357.3068 1840.1201)">
		<stop  offset="0" style="stop-color:#734B40"/>
		<stop  offset="1" style="stop-color:#946255"/>
	</linearGradient>
	<path fill="url(#SVGID_57_)" stroke="#000000" stroke-linejoin="round" stroke-miterlimit="10" d="M680.723,563.132
		l-123.615,99.481c1.667-13.5,4.975-27.766,9.759-40.912l0.013-0.018l82.244-71.328
		C661.103,550.027,672.022,554.152,680.723,563.132z"/>
	
		<linearGradient id="SVGID_58_" gradientUnits="userSpaceOnUse" x1="465.0735" y1="687.7253" x2="494.4904" y2="731.4058" gradientTransform="matrix(0.8364 -1.1303 -0.1898 -0.9391 357.3068 1840.1201)">
		<stop  offset="0" style="stop-color:#734B40"/>
		<stop  offset="1" style="stop-color:#946255"/>
	</linearGradient>
	<path fill="url(#SVGID_58_)" stroke="#000000" stroke-linejoin="round" stroke-miterlimit="10" d="M694.022,585.352
		L556.521,695.348c-1.123-9.49-0.891-20.833,0.587-32.734l123.615-99.481C686.095,568.665,690.628,576.026,694.022,585.352z"/>
	
		<linearGradient id="SVGID_59_" gradientUnits="userSpaceOnUse" x1="476.7649" y1="697.1521" x2="478.2414" y2="700.6307" gradientTransform="matrix(0.8364 -1.1303 -0.1898 -0.9391 357.3068 1840.1201)">
		<stop  offset="0" style="stop-color:#734B40"/>
		<stop  offset="1" style="stop-color:#815549"/>
	</linearGradient>
	<path fill="url(#SVGID_59_)" stroke="#000000" stroke-linejoin="round" stroke-miterlimit="10" d="M695.573,589.961L551.66,705.462
		l4.859-10.113l137.502-109.996C694.574,586.837,695.077,588.384,695.573,589.961z"/>
	
		<line fill="none" stroke="#000000" stroke-linejoin="round" stroke-miterlimit="10" x1="568.768" y1="693.449" x2="568.752" y2="693.449"/>
</g>
<linearGradient id="SVGID_60_" gradientUnits="userSpaceOnUse" x1="324.4275" y1="328.4514" x2="525.8186" y2="328.4514" gradientTransform="matrix(1 0 0 -1 214.3999 1116.0991)">
	<stop  offset="0" style="stop-color:#777475"/>
	<stop  offset="1" style="stop-color:#A8ABAD"/>
</linearGradient>
<polygon fill="url(#SVGID_60_)" stroke="#000000" stroke-linejoin="round" stroke-miterlimit="10" points="740.218,823.022 
	740.178,823.344 738.608,836.683 538.827,740.522 563.707,738.612 584.218,748.424 619.997,765.532 650.838,780.282 
	682.188,795.272 690.918,799.452 725.738,816.094 "/>
<linearGradient id="SVGID_61_" gradientUnits="userSpaceOnUse" x1="349.3074" y1="417.0413" x2="602.7678" y2="417.0413" gradientTransform="matrix(1 0 0 -1 214.3999 1116.0991)">
	<stop  offset="0" style="stop-color:#575355"/>
	<stop  offset="1" style="stop-color:#828B91"/>
</linearGradient>
<polygon fill="url(#SVGID_61_)" stroke="#000000" stroke-linejoin="round" stroke-miterlimit="10" points="817.168,649.692 
	817.168,662.612 584.218,748.424 563.707,738.612 "/>
<linearGradient id="SVGID_62_" gradientUnits="userSpaceOnUse" x1="804.1995" y1="392.0652" x2="533.1447" y2="302.7567" gradientTransform="matrix(1 0 0 -1 214.3999 1116.0991)">
	<stop  offset="0" style="stop-color:#777475"/>
	<stop  offset="1" style="stop-color:#A8ABAD"/>
</linearGradient>
<polygon fill="url(#SVGID_62_)" stroke="#000000" stroke-linejoin="round" stroke-miterlimit="10" points="1023.998,708.393 
	738.608,836.683 740.178,823.344 740.218,823.022 747.228,819.982 770.468,809.884 790.238,801.303 798.957,797.513 
	823.568,786.822 853.268,773.924 853.438,773.853 864.058,769.242 864.168,769.192 889.968,757.992 923.398,743.473 
	923.407,743.473 947.898,732.832 980.268,718.772 980.278,718.772 1004.168,708.393 "/>
<linearGradient id="SVGID_63_" gradientUnits="userSpaceOnUse" x1="792.7639" y1="431.8494" x2="605.7542" y2="431.8806" gradientTransform="matrix(1 0 0 -1 214.3999 1116.0991)">
	<stop  offset="0" style="stop-color:#575355"/>
	<stop  offset="1" style="stop-color:#828B91"/>
</linearGradient>
<polygon fill="url(#SVGID_63_)" stroke="#000000" stroke-linejoin="round" stroke-miterlimit="10" points="1004.168,708.393 
	980.278,718.772 980.268,718.772 817.168,662.612 817.168,649.692 "/>
<linearGradient id="SVGID_64_" gradientUnits="userSpaceOnUse" x1="750.4045" y1="524.823" x2="593.0745" y2="524.823" gradientTransform="matrix(1 0 0 -1 214.3999 1116.0991)">
	<stop  offset="0" style="stop-color:#575355"/>
	<stop  offset="1" style="stop-color:#828B91"/>
</linearGradient>
<polygon fill="url(#SVGID_64_)" stroke="#000000" stroke-linejoin="round" stroke-miterlimit="10" points="974.498,541.442 
	817.168,641.112 817.168,634.192 942.978,551.393 "/>
<linearGradient id="SVGID_65_" gradientUnits="userSpaceOnUse" x1="324.4275" y1="428.7419" x2="602.7678" y2="428.7419" gradientTransform="matrix(1 0 0 -1 214.3999 1116.0991)">
	<stop  offset="0" style="stop-color:#575355"/>
	<stop  offset="1" style="stop-color:#828B91"/>
</linearGradient>
<polygon fill="url(#SVGID_65_)" stroke="#000000" stroke-linejoin="round" stroke-miterlimit="10" points="817.168,634.192 
	817.168,641.112 538.827,740.522 568.747,720.942 "/>
<line fill="none" stroke="#000000" stroke-linejoin="round" stroke-miterlimit="10" x1="569.037" y1="718.674" x2="568.747" y2="718.772"/>
<line fill="none" stroke="#000000" stroke-linejoin="round" stroke-miterlimit="10" x1="944.407" y1="551.022" x2="942.978" y2="551.393"/>
<linearGradient id="SVGID_66_" gradientUnits="userSpaceOnUse" x1="749.886" y1="542.1433" x2="505.0579" y2="542.1433" gradientTransform="matrix(1 0 0 -1 214.3999 1116.0991)">
	<stop  offset="0" style="stop-color:#575355"/>
	<stop  offset="1" style="stop-color:#828B91"/>
</linearGradient>
<path fill="url(#SVGID_66_)" stroke="#000000" stroke-linejoin="round" stroke-miterlimit="10" d="M974.498,541.442l-31.521,9.95
	l-24.779,6.398l-15.891,4.102l-49.069,12.67l-0.689,0.18l-29.03,7.5l-0.649,0.16c-3.17,0.76-5,1.05-8.079,1.86
	c-0.011,0.08-0.03,0.16-0.041,0.239l-85.079,21.971v-3.95L974.498,541.442z"/>
<linearGradient id="SVGID_67_" gradientUnits="userSpaceOnUse" x1="600.3479" y1="532.6472" x2="608.467" y2="532.6472" gradientTransform="matrix(1 0 0 -1 214.3999 1116.0991)">
	<stop  offset="0" style="stop-color:#604837"/>
	<stop  offset="1" style="stop-color:#705542"/>
</linearGradient>
<path fill="url(#SVGID_67_)" stroke="#000000" stroke-linejoin="round" stroke-miterlimit="10" d="M822.867,582.402l-8.119,2.1
	c0.01-0.078,0.029-0.158,0.039-0.238C817.867,583.452,819.698,583.162,822.867,582.402z"/>
<linearGradient id="SVGID_68_" gradientUnits="userSpaceOnUse" x1="324.4275" y1="444.5769" x2="515.2678" y2="444.5769" gradientTransform="matrix(1 0 0 -1 214.3999 1116.0991)">
	<stop  offset="0" style="stop-color:#575355"/>
	<stop  offset="1" style="stop-color:#828B91"/>
</linearGradient>
<polygon fill="url(#SVGID_68_)" stroke="#000000" stroke-linejoin="round" stroke-miterlimit="10" points="729.668,602.522 
	729.668,606.473 712.338,618.803 649.348,663.612 598.398,699.853 568.747,720.942 538.827,740.522 569.037,718.674 
	569.048,718.674 "/>
<linearGradient id="SVGID_69_" gradientUnits="userSpaceOnUse" x1="728.5774" y1="523.3074" x2="598.0071" y2="523.3074" gradientTransform="matrix(1 0 0 -1 214.3999 1116.0991)">
	<stop  offset="0" style="stop-color:#575355"/>
	<stop  offset="1" style="stop-color:#828B91"/>
</linearGradient>
<polygon fill="url(#SVGID_69_)" stroke="#000000" stroke-linejoin="round" stroke-miterlimit="10" points="942.978,551.393 
	817.168,634.192 812.407,629.242 812.518,629.174 812.907,628.912 814.957,627.513 815.478,627.152 818.418,625.162 
	818.718,624.963 819.037,624.753 819.178,624.662 819.278,624.603 918.198,557.793 "/>
<line fill="none" stroke="#000000" stroke-linejoin="round" stroke-miterlimit="10" x1="812.907" y1="628.912" x2="812.518" y2="629.174"/>
<linearGradient id="SVGID_70_" gradientUnits="userSpaceOnUse" x1="354.3474" y1="441.0071" x2="602.7678" y2="441.0071" gradientTransform="matrix(1 0 0 -1 214.3999 1116.0991)">
	<stop  offset="0" style="stop-color:#575355"/>
	<stop  offset="1" style="stop-color:#828B91"/>
</linearGradient>
<polygon fill="url(#SVGID_70_)" stroke="#000000" stroke-linejoin="round" stroke-miterlimit="10" points="817.168,634.192 
	568.747,720.942 598.398,699.853 812.407,629.242 "/>
<linearGradient id="SVGID_71_" gradientUnits="userSpaceOnUse" x1="608.0081" y1="527.366" x2="687.9084" y2="527.366" gradientTransform="matrix(1 0 0 -1 214.3999 1116.0991)">
	<stop  offset="0" style="stop-color:#543931"/>
	<stop  offset="1" style="stop-color:#755046"/>
</linearGradient>
<path fill="url(#SVGID_71_)" stroke="#000000" stroke-linejoin="round" stroke-miterlimit="10" d="M902.308,561.893l-78.351,53.68
	c-0.06-0.489-0.119-0.97-0.18-1.438c-0.091-0.722-0.17-1.432-0.261-2.12c-0.04-0.38-0.09-0.761-0.13-1.142
	c-0.04-0.31-0.08-0.619-0.109-0.92c-0.08-0.71-0.16-1.409-0.229-2.09c-0.061-0.64-0.13-1.27-0.189-1.899
	c0-0.051-0.011-0.101-0.011-0.149c-0.061-0.68-0.12-1.36-0.17-2.03s-0.09-1.35-0.13-2.03c-0.03-0.47-0.05-0.948-0.07-1.43
	c-0.01-0.188-0.01-0.39-0.021-0.59c-0.021-0.4-0.029-0.8-0.029-1.2c-0.01-0.41-0.01-0.83-0.021-1.26l30.83-22.71L902.308,561.893z"
	/>
<linearGradient id="SVGID_72_" gradientUnits="userSpaceOnUse" x1="608.0081" y1="530.1814" x2="638.8381" y2="530.1814" gradientTransform="matrix(1 0 0 -1 214.3999 1116.0991)">
	<stop  offset="0" style="stop-color:#543931"/>
	<stop  offset="1" style="stop-color:#755046"/>
</linearGradient>
<path fill="url(#SVGID_72_)" stroke="#000000" stroke-linejoin="round" stroke-miterlimit="10" d="M853.238,574.563l-30.83,22.71
	c0-0.68,0.011-1.38,0.021-2.08c0.01-0.689,0.029-1.39,0.061-2.1c0.021-0.41,0.04-0.82,0.061-1.23c0.05-0.87,0.109-1.75,0.189-2.67
	c0.109-1.26,0.239-2.57,0.391-3.95c0.08-0.63,0.159-1.279,0.25-1.938c0.039-0.352,0.09-0.7,0.14-1.062l29.03-7.5L853.238,574.563z"
	/>
<linearGradient id="SVGID_73_" gradientUnits="userSpaceOnUse" x1="604.8772" y1="524.9011" x2="703.7971" y2="524.9011" gradientTransform="matrix(1 0 0 -1 214.3999 1116.0991)">
	<stop  offset="0" style="stop-color:#543931"/>
	<stop  offset="1" style="stop-color:#62433A"/>
</linearGradient>
<polygon fill="url(#SVGID_73_)" stroke="#000000" stroke-linejoin="round" stroke-miterlimit="10" points="918.198,557.793 
	819.278,624.603 823.957,615.572 902.308,561.893 "/>
<linearGradient id="SVGID_74_" gradientUnits="userSpaceOnUse" x1="383.9978" y1="461.512" x2="598.0081" y2="461.512" gradientTransform="matrix(1 0 0 -1 214.3999 1116.0991)">
	<stop  offset="0" style="stop-color:#543931"/>
	<stop  offset="1" style="stop-color:#755046"/>
</linearGradient>
<path fill="url(#SVGID_74_)" stroke="#000000" stroke-linejoin="round" stroke-miterlimit="10" d="M812.407,629.242l-214.01,70.61
	l50.949-36.24l162.721-54.29C811.827,615.813,811.998,622.152,812.407,629.242z"/>
<linearGradient id="SVGID_75_" gradientUnits="userSpaceOnUse" x1="434.947" y1="489.2122" x2="599.4573" y2="489.2122" gradientTransform="matrix(1 0 0 -1 214.3999 1116.0991)">
	<stop  offset="0" style="stop-color:#543931"/>
	<stop  offset="1" style="stop-color:#755046"/>
</linearGradient>
<path fill="url(#SVGID_75_)" stroke="#000000" stroke-linejoin="round" stroke-miterlimit="10" d="M813.858,590.162
	c-1.021,6.99-1.58,13.142-1.79,19.16l-162.721,54.29l62.99-44.81L813.858,590.162z"/>
<linearGradient id="SVGID_76_" gradientUnits="userSpaceOnUse" x1="497.9373" y1="514.446" x2="600.3479" y2="514.446" gradientTransform="matrix(1 0 0 -1 214.3999 1116.0991)">
	<stop  offset="0" style="stop-color:#543931"/>
	<stop  offset="1" style="stop-color:#755046"/>
</linearGradient>
<path fill="url(#SVGID_76_)" stroke="#000000" stroke-linejoin="round" stroke-miterlimit="10" d="M814.748,584.503
	c-0.33,1.96-0.631,3.841-0.891,5.659l-101.521,28.642l17.329-12.33L814.748,584.503z"/>
<path fill="none" stroke="#000000" stroke-linejoin="round" stroke-miterlimit="10" d="M621.555,766.277"/>
<path fill="none" stroke="#000000" stroke-linejoin="round" stroke-miterlimit="10" d="M818.078,687.723"/>
<linearGradient id="SVGID_77_" gradientUnits="userSpaceOnUse" x1="369.8181" y1="402.0271" x2="603.678" y2="402.0271" gradientTransform="matrix(1 0 0 -1 214.3999 1116.0991)">
	<stop  offset="0" style="stop-color:#573932"/>
	<stop  offset="1" style="stop-color:#492F28"/>
</linearGradient>
<polygon fill="url(#SVGID_77_)" stroke="#000000" stroke-linejoin="round" stroke-miterlimit="10" points="818.077,687.723 
	791.348,698.223 781.388,702.143 760.548,710.322 736.108,719.924 716.327,727.702 683.108,740.763 674.957,743.952 
	674.617,744.094 647.168,754.872 619.997,765.532 584.218,748.424 817.168,662.612 "/>
</svg>
