<?xml version="1.0" encoding="utf-8"?>
<!-- Generator: Adobe Illustrator 16.0.0, SVG Export Plug-In . SVG Version: 6.00 Build 0)  -->
<!DOCTYPE svg PUBLIC "-//W3C//DTD SVG 1.1//EN" "http://www.w3.org/Graphics/SVG/1.1/DTD/svg11.dtd">
<svg version="1.1" id="Layer_1" xmlns="http://www.w3.org/2000/svg" xmlns:xlink="http://www.w3.org/1999/xlink" x="0px" y="0px"
	 width="512px" height="512px" viewBox="0 0 512 512" enable-background="new 0 0 512 512" xml:space="preserve">
<g>
	<linearGradient id="SVGID_1_" gradientUnits="userSpaceOnUse" x1="243.0547" y1="406.165" x2="470.1054" y2="392.0896">
		<stop  offset="0" style="stop-color:#B88D50"/>
		<stop  offset="1" style="stop-color:#A17C46"/>
	</linearGradient>
	<polygon fill="url(#SVGID_1_)" stroke="#000000" stroke-linejoin="round" stroke-miterlimit="10" points="454.868,323.756 
		451.771,357.537 252.556,474.854 252.228,431.908 353.005,378.129 353.005,378.115 383.283,361.963 	"/>
	<linearGradient id="SVGID_2_" gradientUnits="userSpaceOnUse" x1="305.8203" y1="265.8965" x2="503.204" y2="295.0897">
		<stop  offset="0" style="stop-color:#B88D50"/>
		<stop  offset="1" style="stop-color:#A17C46"/>
	</linearGradient>
	<polygon fill="url(#SVGID_2_)" stroke="#000000" stroke-linejoin="round" stroke-miterlimit="10" points="489.484,223.008 
		475.895,343.336 451.771,357.537 454.868,323.756 454.868,323.74 462.961,235.719 	"/>
	<linearGradient id="SVGID_3_" gradientUnits="userSpaceOnUse" x1="209.3525" y1="413.3604" x2="414.4109" y2="444.9214">
		<stop  offset="0" style="stop-color:#B88D50"/>
		<stop  offset="1" style="stop-color:#A17C46"/>
	</linearGradient>
	<polygon fill="url(#SVGID_3_)" stroke="#000000" stroke-linejoin="round" stroke-miterlimit="10" points="252.561,474.85 
		214.88,497.04 212.23,355.84 251.51,337.02 252.15,422.15 252.23,431.91 	"/>
	
		<line fill="none" stroke="#000000" stroke-linejoin="round" stroke-miterlimit="10" x1="492.51" y1="196.216" x2="492.51" y2="196.202"/>
	<linearGradient id="SVGID_4_" gradientUnits="userSpaceOnUse" x1="203.1807" y1="285.1455" x2="496.0798" y2="267.2438">
		<stop  offset="0" style="stop-color:#B88D50"/>
		<stop  offset="1" style="stop-color:#A17C46"/>
	</linearGradient>
	<polygon fill="url(#SVGID_4_)" stroke="#000000" stroke-linejoin="round" stroke-miterlimit="10" points="492.51,196.216 
		489.484,223.008 462.961,235.719 453.081,240.457 432.413,250.352 408.168,261.961 388.544,271.377 355.582,287.174 
		347.506,291.033 347.164,291.195 319.938,304.234 286.68,320.164 251.512,337.018 212.232,355.838 211.637,324.217 
		213.276,325.053 	"/>
	
		<line fill="none" stroke="#000000" stroke-linejoin="round" stroke-miterlimit="10" x1="211.637" y1="324.217" x2="211.637" y2="324.172"/>
	<linearGradient id="SVGID_5_" gradientUnits="userSpaceOnUse" x1="24.2861" y1="201.873" x2="215.9694" y2="340.9976">
		<stop  offset="0" style="stop-color:#6B382A"/>
		<stop  offset="1" style="stop-color:#AA6A55"/>
	</linearGradient>
	<polygon fill="url(#SVGID_5_)" stroke="#000000" stroke-linejoin="round" stroke-miterlimit="10" points="213.276,309.719 
		213.276,325.053 211.637,324.217 18.354,226.316 15.716,224.977 13.495,213.562 	"/>
	<linearGradient id="SVGID_6_" gradientUnits="userSpaceOnUse" x1="35.7197" y1="306.2607" x2="182.3186" y2="278.2918">
		<stop  offset="0" style="stop-color:#B38C53"/>
		<stop  offset="1" style="stop-color:#C99D5D"/>
	</linearGradient>
	<polygon fill="url(#SVGID_6_)" stroke="#000000" stroke-linejoin="round" stroke-miterlimit="10" points="212.23,355.84 
		169.54,333.48 135.13,314.99 135.13,314.98 100.221,296.22 71.82,280.94 71,280.51 58.88,273.98 23.641,255.05 18.35,226.32 
		211.641,324.22 	"/>
	<linearGradient id="SVGID_7_" gradientUnits="userSpaceOnUse" x1="16.168" y1="204.0576" x2="188.1679" y2="206.7241">
		<stop  offset="0" style="stop-color:#B38C53"/>
		<stop  offset="1" style="stop-color:#CA9E5E"/>
	</linearGradient>
	<path fill="url(#SVGID_7_)" stroke="#000000" stroke-linejoin="round" stroke-miterlimit="10" d="M211.101,290.555l-23.842-28.326
		c-0.164-1.877-0.343-3.74-0.581-5.604c-1.416-11.637-4.277-22.918-8.271-33.617c-6.468-17.345-15.944-33.14-27.254-46.401
		c-20.013-23.439-45.777-38.951-70.826-41.01h-0.074c-2.31-0.178-4.604-0.252-6.899-0.207c-23.588,0.477-40.844,30.1-43.169,60.781
		l-13.977,5.291c4.053-41.947,28.997-79.916,61.318-79.916c24.333,0,47.132,8.748,66.786,24.141
		c16.213,12.695,30.28,29.92,41.292,50.484c8.493,15.84,15.169,33.663,19.61,52.929
		C208.269,262.303,210.266,276.176,211.101,290.555z"/>
	<linearGradient id="SVGID_8_" gradientUnits="userSpaceOnUse" x1="21.5303" y1="278.998" x2="208.438" y2="232.0192">
		<stop  offset="0" style="stop-color:#6B382A"/>
		<stop  offset="1" style="stop-color:#AA6A55"/>
	</linearGradient>
	<path fill="url(#SVGID_8_)" stroke="#000000" stroke-linejoin="round" stroke-miterlimit="10" d="M213.276,309.719L13.495,213.562
		c0-3.771-0.357-7.824,0-11.459l198.768,92.952L213.276,309.719z"/>
	<linearGradient id="SVGID_9_" gradientUnits="userSpaceOnUse" x1="97.9766" y1="136.4556" x2="396.4758" y2="70.9557">
		<stop  offset="0" style="stop-color:#FECA76"/>
		<stop  offset="1" style="stop-color:#EEB666"/>
	</linearGradient>
	<path fill="url(#SVGID_9_)" stroke="#000000" stroke-linejoin="round" stroke-miterlimit="10" d="M420.626,76.216l-276.313,69.471
		c-19.654-15.393-42.453-24.141-66.786-24.141L371.08,63.193C386.264,63.193,403.714,67.827,420.626,76.216z"/>
	<linearGradient id="SVGID_10_" gradientUnits="userSpaceOnUse" x1="167.2441" y1="170.1812" x2="448.5771" y2="78.1812">
		<stop  offset="0" style="stop-color:#F7C573"/>
		<stop  offset="1" style="stop-color:#DFAB60"/>
	</linearGradient>
	<path fill="url(#SVGID_10_)" stroke="#000000" stroke-linejoin="round" stroke-miterlimit="10" d="M461.173,105.587
		l-275.568,90.584c-11.012-20.564-25.079-37.789-41.292-50.484l276.313-69.471C435.124,83.415,449.237,93.384,461.173,105.587z"/>
	<linearGradient id="SVGID_11_" gradientUnits="userSpaceOnUse" x1="193.8408" y1="223.2202" x2="476.509" y2="117.8862">
		<stop  offset="0" style="stop-color:#EABB6E"/>
		<stop  offset="1" style="stop-color:#D3A25B"/>
	</linearGradient>
	<path fill="url(#SVGID_11_)" stroke="#000000" stroke-linejoin="round" stroke-miterlimit="10" d="M485.879,141.245L205.215,249.1
		c-4.441-19.266-11.117-37.089-19.61-52.929l275.568-90.584C471.336,115.974,479.933,127.968,485.879,141.245z"/>
	<linearGradient id="SVGID_12_" gradientUnits="userSpaceOnUse" x1="204.1367" y1="271.4785" x2="494.8029" y2="152.1449">
		<stop  offset="0" style="stop-color:#DCB068"/>
		<stop  offset="1" style="stop-color:#C49754"/>
	</linearGradient>
	<path fill="url(#SVGID_12_)" stroke="#000000" stroke-linejoin="round" stroke-miterlimit="10" d="M493.747,168.335
		l-282.646,122.22c-0.835-14.379-2.832-28.252-5.886-41.455l280.664-107.854c3.665,8.195,6.318,16.883,7.704,25.959
		C493.643,167.575,493.688,167.964,493.747,168.335z"/>
	<linearGradient id="SVGID_13_" gradientUnits="userSpaceOnUse" x1="490.1729" y1="142.1128" x2="234.7724" y2="349.6896">
		<stop  offset="0" style="stop-color:#6B382A"/>
		<stop  offset="1" style="stop-color:#AA6A55"/>
	</linearGradient>
	<polygon fill="url(#SVGID_13_)" stroke="#000000" stroke-linejoin="round" stroke-miterlimit="10" points="498.664,181.435 
		496.592,194.339 492.51,196.216 213.276,325.053 213.276,309.719 	"/>
	<linearGradient id="SVGID_14_" gradientUnits="userSpaceOnUse" x1="27.7227" y1="339.0176" x2="177.8023" y2="281.8443">
		<stop  offset="0" style="stop-color:#B38C53"/>
		<stop  offset="1" style="stop-color:#C99D5D"/>
	</linearGradient>
	<polygon fill="url(#SVGID_14_)" stroke="#000000" stroke-linejoin="round" stroke-miterlimit="10" points="77.467,405.594 
		47.724,385.805 23.643,255.045 58.884,273.984 72.653,371.482 	"/>
	<linearGradient id="SVGID_15_" gradientUnits="userSpaceOnUse" x1="89.1768" y1="383.7715" x2="48.0098" y2="246.6966">
		<stop  offset="0" style="stop-color:#FECA76"/>
		<stop  offset="1" style="stop-color:#CBA360"/>
	</linearGradient>
	<polygon fill="url(#SVGID_15_)" stroke="#000000" stroke-linejoin="round" stroke-miterlimit="10" points="81.505,368.041 
		72.653,371.482 58.884,273.984 70.999,280.512 	"/>
	<linearGradient id="SVGID_16_" gradientUnits="userSpaceOnUse" x1="75.0625" y1="333.3252" x2="103.1697" y2="331.3173">
		<stop  offset="0" style="stop-color:#B38C53"/>
		<stop  offset="1" style="stop-color:#C99D5D"/>
	</linearGradient>
	<polygon fill="url(#SVGID_16_)" stroke="#000000" stroke-linejoin="round" stroke-miterlimit="10" points="108.401,384.047 
		81.505,368.041 70.999,280.512 71.818,280.943 100.221,296.217 	"/>
	<linearGradient id="SVGID_17_" gradientUnits="userSpaceOnUse" x1="130.7383" y1="367.5938" x2="178.6089" y2="371.0627">
		<stop  offset="0" style="stop-color:#B38C53"/>
		<stop  offset="1" style="stop-color:#C99D5D"/>
	</linearGradient>
	<polygon fill="url(#SVGID_17_)" stroke="#000000" stroke-linejoin="round" stroke-miterlimit="10" points="175.1,423.73 
		142.689,404.45 135.13,314.99 169.54,333.48 	"/>
	<linearGradient id="SVGID_18_" gradientUnits="userSpaceOnUse" x1="67.7207" y1="444.0166" x2="221.3479" y2="385.4918">
		<stop  offset="0" style="stop-color:#B38C53"/>
		<stop  offset="1" style="stop-color:#C99D5D"/>
	</linearGradient>
	<polygon fill="url(#SVGID_18_)" stroke="#000000" stroke-linejoin="round" stroke-miterlimit="10" points="178.17,472.6 
		77.529,406.03 77.471,405.59 72.65,371.48 175.7,433.25 	"/>
	<linearGradient id="SVGID_19_" gradientUnits="userSpaceOnUse" x1="100.4443" y1="350.0547" x2="146.5078" y2="350.6629">
		<stop  offset="0" style="stop-color:#B38C53"/>
		<stop  offset="1" style="stop-color:#C99D5D"/>
	</linearGradient>
	<polygon fill="url(#SVGID_19_)" stroke="#000000" stroke-linejoin="round" stroke-miterlimit="10" points="142.688,404.445 
		108.401,384.047 100.221,296.217 135.135,314.979 135.135,314.994 	"/>
	<linearGradient id="SVGID_20_" gradientUnits="userSpaceOnUse" x1="4.2842" y1="141.7612" x2="123.6357" y2="257.3055">
		<stop  offset="0" style="stop-color:#7E695C"/>
		<stop  offset="1" style="stop-color:#C8A892"/>
	</linearGradient>
	<polygon fill="url(#SVGID_20_)" stroke="#000000" stroke-linejoin="round" stroke-miterlimit="10" points="212.263,295.055 
		13.495,202.103 16.208,201.462 211.101,290.555 	"/>
	<linearGradient id="SVGID_21_" gradientUnits="userSpaceOnUse" x1="490.9814" y1="279.625" x2="239.2567" y2="205.1248">
		<stop  offset="0" style="stop-color:#6B382A"/>
		<stop  offset="1" style="stop-color:#AA6A55"/>
	</linearGradient>
	<polygon fill="url(#SVGID_21_)" stroke="#000000" stroke-linejoin="round" stroke-miterlimit="10" points="498.664,169.616 
		498.664,181.435 213.276,309.719 212.263,295.055 	"/>
	<linearGradient id="SVGID_22_" gradientUnits="userSpaceOnUse" x1="493.583" y1="168.4102" x2="498.6641" y2="168.4102">
		<stop  offset="0" style="stop-color:#6B382A"/>
		<stop  offset="1" style="stop-color:#AA6A55"/>
	</linearGradient>
	<path fill="url(#SVGID_22_)" stroke="#000000" stroke-linejoin="round" stroke-miterlimit="10" d="M498.664,169.616l-4.917-1.281
		c-0.06-0.371-0.104-0.76-0.164-1.131L498.664,169.616z"/>
	<linearGradient id="SVGID_23_" gradientUnits="userSpaceOnUse" x1="490.252" y1="138.8022" x2="271.81" y2="286.1033">
		<stop  offset="0" style="stop-color:#7E695C"/>
		<stop  offset="1" style="stop-color:#C8A892"/>
	</linearGradient>
	<polygon fill="url(#SVGID_23_)" stroke="#000000" stroke-linejoin="round" stroke-miterlimit="10" points="498.664,169.616 
		212.263,295.055 211.101,290.555 493.747,168.335 	"/>
	<linearGradient id="SVGID_24_" gradientUnits="userSpaceOnUse" x1="122.3398" y1="405.0273" x2="129.0066" y2="395.3607">
		<stop  offset="0" style="stop-color:#FECA76"/>
		<stop  offset="1" style="stop-color:#CBA360"/>
	</linearGradient>
	<polygon fill="url(#SVGID_24_)" stroke="#000000" stroke-linejoin="round" stroke-miterlimit="10" points="175.7,433.25 
		72.65,371.48 81.5,368.04 108.4,384.05 142.689,404.45 175.1,423.73 	"/>
	<linearGradient id="SVGID_25_" gradientUnits="userSpaceOnUse" x1="83.5137" y1="477.1484" x2="217.2802" y2="400.9854">
		<stop  offset="0" style="stop-color:#B38C53"/>
		<stop  offset="1" style="stop-color:#C99D5D"/>
	</linearGradient>
	<polygon fill="url(#SVGID_25_)" stroke="#000000" stroke-linejoin="round" stroke-miterlimit="10" points="214.88,497.04 
		178.17,472.6 175.7,433.25 175.1,423.73 169.54,333.48 212.23,355.84 	"/>
	<linearGradient id="SVGID_26_" gradientUnits="userSpaceOnUse" x1="298.0381" y1="396.7578" x2="300.0987" y2="400.4752">
		<stop  offset="0" style="stop-color:#BC9152"/>
		<stop  offset="1" style="stop-color:#EDB666"/>
	</linearGradient>
	<polygon fill="url(#SVGID_26_)" stroke="#000000" stroke-linejoin="round" stroke-miterlimit="10" points="353.005,378.129 
		252.228,431.908 252.153,422.146 285.592,404.385 318.746,386.787 346.016,372.305 	"/>
	
		<line fill="none" stroke="#000000" stroke-linejoin="round" stroke-miterlimit="10" x1="454.885" y1="323.756" x2="454.868" y2="323.756"/>
	<linearGradient id="SVGID_27_" gradientUnits="userSpaceOnUse" x1="454.7979" y1="230.458" x2="455.0418" y2="308.6664">
		<stop  offset="0" style="stop-color:#C29756"/>
		<stop  offset="1" style="stop-color:#E8B467"/>
	</linearGradient>
	<polygon fill="url(#SVGID_27_)" stroke="#000000" stroke-linejoin="round" stroke-miterlimit="10" points="462.961,235.719 
		454.868,323.74 446.928,319.314 453.081,240.457 	"/>
	
		<line fill="none" stroke="#000000" stroke-linejoin="round" stroke-miterlimit="10" x1="454.885" y1="323.756" x2="454.868" y2="323.756"/>
	<linearGradient id="SVGID_28_" gradientUnits="userSpaceOnUse" x1="244.0703" y1="373.7031" x2="293.1423" y2="368.7682">
		<stop  offset="0" style="stop-color:#B88D50"/>
		<stop  offset="0.3858" style="stop-color:#B2884D"/>
		<stop  offset="0.9844" style="stop-color:#A17C46"/>
		<stop  offset="1" style="stop-color:#A17C46"/>
	</linearGradient>
	<polygon fill="url(#SVGID_28_)" stroke="#000000" stroke-linejoin="round" stroke-miterlimit="10" points="286.68,320.164 
		285.592,404.385 252.153,422.146 251.512,337.018 	"/>
	<linearGradient id="SVGID_29_" gradientUnits="userSpaceOnUse" x1="280.6367" y1="359.0742" x2="325.9507" y2="349.3189">
		<stop  offset="0" style="stop-color:#B88D50"/>
		<stop  offset="0.3858" style="stop-color:#B2884D"/>
		<stop  offset="0.9844" style="stop-color:#A17C46"/>
		<stop  offset="1" style="stop-color:#A17C46"/>
	</linearGradient>
	<polygon fill="url(#SVGID_29_)" stroke="#000000" stroke-linejoin="round" stroke-miterlimit="10" points="319.938,304.234 
		318.746,386.787 285.592,404.385 286.68,320.164 	"/>
	<linearGradient id="SVGID_30_" gradientUnits="userSpaceOnUse" x1="312.7197" y1="342.0625" x2="358.1373" y2="335.0481">
		<stop  offset="0" style="stop-color:#B88D50"/>
		<stop  offset="0.3858" style="stop-color:#B2884D"/>
		<stop  offset="0.9844" style="stop-color:#A17C46"/>
		<stop  offset="1" style="stop-color:#A17C46"/>
	</linearGradient>
	<polygon fill="url(#SVGID_30_)" stroke="#000000" stroke-linejoin="round" stroke-miterlimit="10" points="347.506,291.033 
		346.016,372.305 318.746,386.787 319.938,304.234 347.164,291.195 	"/>
	<linearGradient id="SVGID_31_" gradientUnits="userSpaceOnUse" x1="349.1875" y1="285.959" x2="352.4655" y2="374.9953">
		<stop  offset="0" style="stop-color:#C29756"/>
		<stop  offset="1" style="stop-color:#E8B467"/>
	</linearGradient>
	<polygon fill="url(#SVGID_31_)" stroke="#000000" stroke-linejoin="round" stroke-miterlimit="10" points="355.582,287.174 
		353.005,378.115 353.005,378.129 346.016,372.305 347.506,291.033 	"/>
	<linearGradient id="SVGID_32_" gradientUnits="userSpaceOnUse" x1="262.0391" y1="329.0732" x2="494.4582" y2="319.8253">
		<stop  offset="0" style="stop-color:#B88D50"/>
		<stop  offset="1" style="stop-color:#A17C46"/>
	</linearGradient>
	<polygon fill="url(#SVGID_32_)" stroke="#000000" stroke-linejoin="round" stroke-miterlimit="10" points="388.544,271.377 
		383.851,352.275 383.283,361.963 353.005,378.115 355.582,287.174 	"/>
	<linearGradient id="SVGID_33_" gradientUnits="userSpaceOnUse" x1="381.9551" y1="309.0996" x2="412.9829" y2="304.7226">
		<stop  offset="0" style="stop-color:#B88D50"/>
		<stop  offset="0.3858" style="stop-color:#B2884D"/>
		<stop  offset="0.9844" style="stop-color:#A17C46"/>
		<stop  offset="1" style="stop-color:#A17C46"/>
	</linearGradient>
	<polygon fill="url(#SVGID_33_)" stroke="#000000" stroke-linejoin="round" stroke-miterlimit="10" points="408.168,261.961 
		403.967,341.771 383.851,352.275 388.544,271.377 	"/>
	<linearGradient id="SVGID_34_" gradientUnits="userSpaceOnUse" x1="403.3916" y1="297.5889" x2="434.4364" y2="294.3873">
		<stop  offset="0" style="stop-color:#B88D50"/>
		<stop  offset="0.3858" style="stop-color:#B2884D"/>
		<stop  offset="0.9844" style="stop-color:#A17C46"/>
		<stop  offset="1" style="stop-color:#A17C46"/>
	</linearGradient>
	<polygon fill="url(#SVGID_34_)" stroke="#000000" stroke-linejoin="round" stroke-miterlimit="10" points="432.413,250.352 
		427.184,329.627 403.967,341.771 408.168,261.961 	"/>
	<linearGradient id="SVGID_35_" gradientUnits="userSpaceOnUse" x1="414.7754" y1="335.0918" x2="417.7595" y2="340.4753">
		<stop  offset="0" style="stop-color:#BC9152"/>
		<stop  offset="1" style="stop-color:#EDB666"/>
	</linearGradient>
	<polygon fill="url(#SVGID_35_)" stroke="#000000" stroke-linejoin="round" stroke-miterlimit="10" points="454.868,323.74 
		454.868,323.756 383.283,361.963 383.851,352.275 403.967,341.771 427.184,329.627 446.928,319.314 	"/>
	<linearGradient id="SVGID_36_" gradientUnits="userSpaceOnUse" x1="427.791" y1="288.8291" x2="456.2843" y2="280.0845">
		<stop  offset="0" style="stop-color:#B88D50"/>
		<stop  offset="0.3858" style="stop-color:#B2884D"/>
		<stop  offset="0.9844" style="stop-color:#A17C46"/>
		<stop  offset="1" style="stop-color:#A17C46"/>
	</linearGradient>
	<polygon fill="url(#SVGID_36_)" stroke="#000000" stroke-linejoin="round" stroke-miterlimit="10" points="453.081,240.457 
		446.928,319.314 427.184,329.627 432.413,250.352 	"/>
	
		<line fill="none" stroke="#000000" stroke-linejoin="round" stroke-miterlimit="10" x1="205.215" y1="249.1" x2="205.199" y2="249.1"/>
	
		<line fill="none" stroke="#000000" stroke-linejoin="round" stroke-miterlimit="10" x1="185.604" y1="196.171" x2="185.59" y2="196.171"/>
	<linearGradient id="SVGID_37_" gradientUnits="userSpaceOnUse" x1="84.0205" y1="165.2891" x2="124.5205" y2="152.7891">
		<stop  offset="0" style="stop-color:#B38C53"/>
		<stop  offset="1" style="stop-color:#E6B36A"/>
	</linearGradient>
	<path fill="url(#SVGID_37_)" stroke="#000000" stroke-linejoin="round" stroke-miterlimit="10" d="M151.153,176.606l-90.779-33.305
		c5.871-4.709,12.606-7.539,19.879-7.705h0.074C105.376,137.655,131.141,153.167,151.153,176.606z"/>
	<linearGradient id="SVGID_38_" gradientUnits="userSpaceOnUse" x1="21.4072" y1="192.6167" x2="77.5499" y2="134.5639">
		<stop  offset="0" style="stop-color:#FECA76"/>
		<stop  offset="1" style="stop-color:#A17C46"/>
	</linearGradient>
	<path fill="url(#SVGID_38_)" stroke="#000000" stroke-linejoin="round" stroke-miterlimit="10" d="M80.253,135.597
		c-7.272,0.166-14.008,2.996-19.879,7.705h-0.015c-6.988,5.588-12.8,13.783-16.927,23.188c-3.651,8.283-6.021,17.508-6.766,26.717
		l-6.482,2.965c2.325-30.682,19.581-60.305,43.169-60.781C75.648,135.345,77.943,135.419,80.253,135.597z"/>
	<linearGradient id="SVGID_39_" gradientUnits="userSpaceOnUse" x1="63.25" y1="201.3906" x2="131.618" y2="179.1801">
		<stop  offset="0" style="stop-color:#B38C53"/>
		<stop  offset="1" style="stop-color:#E6B36A"/>
	</linearGradient>
	<path fill="url(#SVGID_39_)" stroke="#000000" stroke-linejoin="round" stroke-miterlimit="10" d="M178.407,223.008L43.433,166.489
		c4.127-9.404,9.938-17.6,16.927-23.188h0.015l90.779,33.305C162.463,189.868,171.939,205.663,178.407,223.008z"/>
	<linearGradient id="SVGID_40_" gradientUnits="userSpaceOnUse" x1="97.3799" y1="237.8037" x2="126.7976" y2="194.122">
		<stop  offset="0" style="stop-color:#B38C53"/>
		<stop  offset="1" style="stop-color:#E6B36A"/>
	</linearGradient>
	<path fill="url(#SVGID_40_)" stroke="#000000" stroke-linejoin="round" stroke-miterlimit="10" d="M186.678,256.625L36.667,193.206
		c0.745-9.209,3.114-18.434,6.766-26.717l134.975,56.519C182.4,233.707,185.262,244.988,186.678,256.625z"/>
	<path fill="none" stroke="#000000" stroke-linejoin="round" stroke-miterlimit="10" d="M187.303,262.809
		c-0.015-0.193-0.029-0.387-0.044-0.58"/>
	<linearGradient id="SVGID_41_" gradientUnits="userSpaceOnUse" x1="109.0713" y1="228.374" x2="110.5474" y2="224.8965">
		<stop  offset="0" style="stop-color:#FECA76"/>
		<stop  offset="1" style="stop-color:#CBA360"/>
	</linearGradient>
	<path fill="url(#SVGID_41_)" stroke="#000000" stroke-linejoin="round" stroke-miterlimit="10" d="M187.259,262.229L30.185,196.171
		l6.482-2.965l150.011,63.419C186.916,258.488,187.095,260.352,187.259,262.229z"/>
	<linearGradient id="SVGID_42_" gradientUnits="userSpaceOnUse" x1="15.584" y1="241.7344" x2="187.5839" y2="244.4009">
		<stop  offset="0" style="stop-color:#B38C53"/>
		<stop  offset="1" style="stop-color:#CA9E5E"/>
	</linearGradient>
	<polygon fill="url(#SVGID_42_)" stroke="#000000" stroke-linejoin="round" stroke-miterlimit="10" points="211.101,290.555 
		16.208,201.462 30.185,196.171 187.259,262.229 	"/>
	
		<line fill="none" stroke="#000000" stroke-linejoin="round" stroke-miterlimit="10" x1="43.433" y1="166.489" x2="43.417" y2="166.489"/>
	
		<line fill="none" stroke="#000000" stroke-linejoin="round" stroke-miterlimit="10" x1="151.183" y1="176.62" x2="151.153" y2="176.606"/>
</g>
</svg>
