<?xml version="1.0" encoding="utf-8"?>
<!-- Generator: Adobe Illustrator 16.0.0, SVG Export Plug-In . SVG Version: 6.00 Build 0)  -->
<!DOCTYPE svg PUBLIC "-//W3C//DTD SVG 1.1//EN" "http://www.w3.org/Graphics/SVG/1.1/DTD/svg11.dtd">
<svg version="1.1" id="Layer_1" xmlns="http://www.w3.org/2000/svg" xmlns:xlink="http://www.w3.org/1999/xlink" x="0px" y="0px"
	 width="1024px" height="1024px" viewBox="0 0 1024 1024" enable-background="new 0 0 1024 1024" xml:space="preserve">
<g>
	<g>
		<linearGradient id="SVGID_1_" gradientUnits="userSpaceOnUse" x1="824.2275" y1="708.8467" x2="958.7569" y2="683.1804">
			<stop  offset="0" style="stop-color:#85683B"/>
			<stop  offset="1" style="stop-color:#997846"/>
		</linearGradient>
		<polygon fill="url(#SVGID_1_)" stroke="#000000" stroke-linejoin="round" stroke-miterlimit="10" points="984.098,717.112 
			980.278,718.772 980.268,718.772 947.898,732.832 925.248,724.803 925.248,724.792 892.678,713.242 866.088,703.803 
			865.318,703.532 856.298,700.332 853.938,699.492 818.088,687.723 818.078,687.723 817.168,662.612 		"/>
		<linearGradient id="SVGID_2_" gradientUnits="userSpaceOnUse" x1="804.4854" y1="743.499" x2="982.1451" y2="675.819">
			<stop  offset="0" style="stop-color:#85683B"/>
			<stop  offset="1" style="stop-color:#997846"/>
		</linearGradient>
		<polygon fill="url(#SVGID_2_)" stroke="#000000" stroke-linejoin="round" stroke-miterlimit="10" points="853.938,699.492 
			853.438,773.853 853.268,773.923 823.568,786.822 818.088,687.723 		"/>
		<linearGradient id="SVGID_3_" gradientUnits="userSpaceOnUse" x1="871.9551" y1="780.9111" x2="841.8878" y2="680.7952">
			<stop  offset="0" style="stop-color:#AD8C52"/>
			<stop  offset="1" style="stop-color:#806639"/>
		</linearGradient>
		<polygon fill="url(#SVGID_3_)" stroke="#000000" stroke-linejoin="round" stroke-miterlimit="10" points="865.308,703.542 
			864.168,769.192 864.058,769.242 853.438,773.853 853.268,773.923 853.938,699.492 856.298,700.332 864.058,703.093 		"/>
		<linearGradient id="SVGID_4_" gradientUnits="userSpaceOnUse" x1="862.041" y1="736.5771" x2="892.5978" y2="734.3942">
			<stop  offset="0" style="stop-color:#85683B"/>
			<stop  offset="1" style="stop-color:#997846"/>
		</linearGradient>
		<polygon fill="url(#SVGID_4_)" stroke="#000000" stroke-linejoin="round" stroke-miterlimit="10" points="892.678,713.242 
			889.968,757.992 864.168,769.192 864.058,769.242 865.318,703.532 		"/>
		<linearGradient id="SVGID_5_" gradientUnits="userSpaceOnUse" x1="923.79" y1="734.0996" x2="947.5284" y2="735.8198">
			<stop  offset="0" style="stop-color:#85683B"/>
			<stop  offset="1" style="stop-color:#997846"/>
		</linearGradient>
		<polygon fill="url(#SVGID_5_)" stroke="#000000" stroke-linejoin="round" stroke-miterlimit="10" points="947.898,732.832 
			923.408,743.473 923.398,743.473 925.238,724.803 925.248,724.803 		"/>
		<linearGradient id="SVGID_6_" gradientUnits="userSpaceOnUse" x1="891.0059" y1="735.6143" x2="927.5678" y2="736.097">
			<stop  offset="0" style="stop-color:#85683B"/>
			<stop  offset="1" style="stop-color:#997846"/>
		</linearGradient>
		<polygon fill="url(#SVGID_6_)" stroke="#000000" stroke-linejoin="round" stroke-miterlimit="10" points="925.248,724.782 
			925.248,724.803 923.408,743.473 923.398,743.473 889.968,757.992 892.678,713.242 		"/>
	</g>
	<g>
		<linearGradient id="SVGID_7_" gradientUnits="userSpaceOnUse" x1="550.5645" y1="704.4648" x2="860.6577" y2="750.3278">
			<stop  offset="0" style="stop-color:#8B6A3A"/>
			<stop  offset="1" style="stop-color:#765A2F"/>
		</linearGradient>
		<polygon fill="url(#SVGID_7_)" stroke="#000000" stroke-linejoin="round" stroke-miterlimit="10" points="823.568,786.822 
			798.958,797.513 791.348,698.223 818.078,687.723 818.088,687.723 		"/>
		<linearGradient id="SVGID_8_" gradientUnits="userSpaceOnUse" x1="789.9922" y1="692.0342" x2="790.2779" y2="783.6461">
			<stop  offset="0" style="stop-color:#795E31"/>
			<stop  offset="1" style="stop-color:#9D7A44"/>
		</linearGradient>
		<polygon fill="url(#SVGID_8_)" stroke="#000000" stroke-linejoin="round" stroke-miterlimit="10" points="798.958,797.513 
			790.238,801.303 781.388,702.143 791.348,698.223 		"/>
		<linearGradient id="SVGID_9_" gradientUnits="userSpaceOnUse" x1="624.1211" y1="772.9336" x2="648.0016" y2="767.7925">
			<stop  offset="0" style="stop-color:#8B6A3A"/>
			<stop  offset="0.3858" style="stop-color:#856638"/>
			<stop  offset="0.9844" style="stop-color:#765A2F"/>
			<stop  offset="1" style="stop-color:#765A2F"/>
		</linearGradient>
		<polygon fill="url(#SVGID_9_)" stroke="#000000" stroke-linejoin="round" stroke-miterlimit="10" points="650.838,780.282 
			619.998,765.532 647.168,754.872 		"/>
		<linearGradient id="SVGID_10_" gradientUnits="userSpaceOnUse" x1="650.4629" y1="773.9541" x2="681.4692" y2="769.1654">
			<stop  offset="0" style="stop-color:#8B6A3A"/>
			<stop  offset="0.3858" style="stop-color:#856638"/>
			<stop  offset="0.9844" style="stop-color:#765A2F"/>
			<stop  offset="1" style="stop-color:#765A2F"/>
		</linearGradient>
		<polygon fill="url(#SVGID_10_)" stroke="#000000" stroke-linejoin="round" stroke-miterlimit="10" points="682.188,795.272 
			650.838,780.282 647.168,754.872 674.618,744.093 674.958,743.952 		"/>
		<linearGradient id="SVGID_11_" gradientUnits="userSpaceOnUse" x1="681.7656" y1="739.8691" x2="683.8934" y2="797.6635">
			<stop  offset="0" style="stop-color:#795E31"/>
			<stop  offset="1" style="stop-color:#9D7A44"/>
		</linearGradient>
		<polygon fill="url(#SVGID_11_)" stroke="#000000" stroke-linejoin="round" stroke-miterlimit="10" points="690.918,799.452 
			682.188,795.272 674.958,743.952 683.108,740.763 		"/>
		<linearGradient id="SVGID_12_" gradientUnits="userSpaceOnUse" x1="595.874" y1="776.877" x2="827.3968" y2="767.6647">
			<stop  offset="0" style="stop-color:#8B6A3A"/>
			<stop  offset="1" style="stop-color:#765A2F"/>
		</linearGradient>
		<polygon fill="url(#SVGID_12_)" stroke="#000000" stroke-linejoin="round" stroke-miterlimit="10" points="725.738,816.093 
			690.918,799.452 683.108,740.763 716.328,727.702 		"/>
		<linearGradient id="SVGID_13_" gradientUnits="userSpaceOnUse" x1="722.4648" y1="773.6855" x2="742.5073" y2="770.8582">
			<stop  offset="0" style="stop-color:#8B6A3A"/>
			<stop  offset="0.3858" style="stop-color:#856638"/>
			<stop  offset="0.9844" style="stop-color:#765A2F"/>
			<stop  offset="1" style="stop-color:#765A2F"/>
		</linearGradient>
		<polygon fill="url(#SVGID_13_)" stroke="#000000" stroke-linejoin="round" stroke-miterlimit="10" points="747.228,819.982 
			740.218,823.022 725.738,816.093 716.328,727.702 736.108,719.923 		"/>
		<linearGradient id="SVGID_14_" gradientUnits="userSpaceOnUse" x1="743.5566" y1="766.2178" x2="764.4016" y2="764.0681">
			<stop  offset="0" style="stop-color:#8B6A3A"/>
			<stop  offset="0.3858" style="stop-color:#856638"/>
			<stop  offset="0.9844" style="stop-color:#765A2F"/>
			<stop  offset="1" style="stop-color:#765A2F"/>
		</linearGradient>
		<polygon fill="url(#SVGID_14_)" stroke="#000000" stroke-linejoin="round" stroke-miterlimit="10" points="770.468,809.883 
			747.228,819.982 736.108,719.923 760.548,710.322 		"/>
		<linearGradient id="SVGID_15_" gradientUnits="userSpaceOnUse" x1="765.7354" y1="759.1406" x2="789.2652" y2="751.9193">
			<stop  offset="0" style="stop-color:#8B6A3A"/>
			<stop  offset="0.3858" style="stop-color:#856638"/>
			<stop  offset="0.9844" style="stop-color:#765A2F"/>
			<stop  offset="1" style="stop-color:#765A2F"/>
		</linearGradient>
		<polygon fill="url(#SVGID_15_)" stroke="#000000" stroke-linejoin="round" stroke-miterlimit="10" points="790.238,801.303 
			770.468,809.883 760.548,710.322 781.388,702.143 		"/>
	</g>
	<linearGradient id="SVGID_16_" gradientUnits="userSpaceOnUse" x1="768.3877" y1="933.125" x2="995.4395" y2="919.0495">
		<stop  offset="0" style="stop-color:#B88D50"/>
		<stop  offset="1" style="stop-color:#A17C46"/>
	</linearGradient>
	<polygon fill="url(#SVGID_16_)" stroke="#000000" stroke-linejoin="round" stroke-miterlimit="10" points="980.203,850.716 
		977.105,884.497 777.891,1001.813 777.563,958.868 878.34,905.089 878.34,905.075 908.619,888.923 	"/>
	<linearGradient id="SVGID_17_" gradientUnits="userSpaceOnUse" x1="831.1563" y1="792.8564" x2="1028.5399" y2="822.0496">
		<stop  offset="0" style="stop-color:#B88D50"/>
		<stop  offset="1" style="stop-color:#A17C46"/>
	</linearGradient>
	<polygon fill="url(#SVGID_17_)" stroke="#000000" stroke-linejoin="round" stroke-miterlimit="10" points="1014.82,749.968 
		1001.23,870.296 977.105,884.497 980.203,850.716 980.203,850.7 988.297,762.679 	"/>
	<linearGradient id="SVGID_18_" gradientUnits="userSpaceOnUse" x1="734.6885" y1="940.3193" x2="939.7503" y2="971.8809">
		<stop  offset="0" style="stop-color:#B88D50"/>
		<stop  offset="1" style="stop-color:#A17C46"/>
	</linearGradient>
	<polygon fill="url(#SVGID_18_)" stroke="#000000" stroke-linejoin="round" stroke-miterlimit="10" points="777.896,1001.81 
		740.215,1024 737.566,882.8 776.846,863.979 777.486,949.11 777.566,958.87 	"/>
	
		<line fill="none" stroke="#000000" stroke-linejoin="round" stroke-miterlimit="10" x1="1017.846" y1="723.176" x2="1017.846" y2="723.162"/>
	<linearGradient id="SVGID_19_" gradientUnits="userSpaceOnUse" x1="728.5176" y1="812.1055" x2="1021.4148" y2="794.2039">
		<stop  offset="0" style="stop-color:#B88D50"/>
		<stop  offset="1" style="stop-color:#A17C46"/>
	</linearGradient>
	<polygon fill="url(#SVGID_19_)" stroke="#000000" stroke-linejoin="round" stroke-miterlimit="10" points="1017.846,723.176 
		1014.82,749.968 988.297,762.679 978.416,767.417 957.748,777.312 933.504,788.921 913.879,798.337 880.918,814.134 
		872.842,817.993 872.5,818.155 845.273,831.194 812.016,847.124 776.848,863.978 737.568,882.798 736.973,851.177 738.611,852.013 
			"/>
	
		<line fill="none" stroke="#000000" stroke-linejoin="round" stroke-miterlimit="10" x1="736.973" y1="851.177" x2="736.973" y2="851.132"/>
	<linearGradient id="SVGID_20_" gradientUnits="userSpaceOnUse" x1="549.6191" y1="728.833" x2="741.3016" y2="867.9569">
		<stop  offset="0" style="stop-color:#6B382A"/>
		<stop  offset="1" style="stop-color:#AA6A55"/>
	</linearGradient>
	<polygon fill="url(#SVGID_20_)" stroke="#000000" stroke-linejoin="round" stroke-miterlimit="10" points="738.608,836.683 
		738.608,852.013 736.978,851.183 736.968,851.173 543.688,753.272 541.048,751.933 538.828,740.522 	"/>
	<linearGradient id="SVGID_21_" gradientUnits="userSpaceOnUse" x1="989.7646" y1="748.2246" x2="837.2272" y2="595.6871">
		<stop  offset="0" style="stop-color:#4F2619"/>
		<stop  offset="1" style="stop-color:#8A5643"/>
	</linearGradient>
	<polygon fill="url(#SVGID_21_)" stroke="#000000" stroke-linejoin="round" stroke-miterlimit="10" points="1023.998,708.393 
		1004.168,708.393 817.168,649.692 817.168,641.112 	"/>
	<linearGradient id="SVGID_22_" gradientUnits="userSpaceOnUse" x1="561.0576" y1="833.2207" x2="707.6557" y2="805.2519">
		<stop  offset="0" style="stop-color:#B38C53"/>
		<stop  offset="1" style="stop-color:#C99D5D"/>
	</linearGradient>
	<polygon fill="url(#SVGID_22_)" stroke="#000000" stroke-linejoin="round" stroke-miterlimit="10" points="737.566,882.8 
		694.875,860.44 660.465,841.95 660.465,841.94 625.557,823.18 597.156,807.9 596.336,807.47 584.215,800.94 548.977,782.01 
		543.686,753.28 736.977,851.18 	"/>
	<linearGradient id="SVGID_23_" gradientUnits="userSpaceOnUse" x1="541.3887" y1="624.4199" x2="697.837" y2="626.8453">
		<stop  offset="0" style="stop-color:#B38C53"/>
		<stop  offset="1" style="stop-color:#CA9E5E"/>
	</linearGradient>
	<path fill="url(#SVGID_23_)" stroke="#000000" stroke-linejoin="round" stroke-miterlimit="10" d="M720.478,588.133l-0.029,0.01
		v0.01l-1.94,1.49l-22.93,0.319c-0.5-1.579-1-3.13-1.561-4.609c-3.39-9.33-7.92-16.69-13.3-22.22c-8.7-8.98-19.62-13.11-31.59-12.78
		c-21.19,0.609-45.69,15.17-67.03,41.54l-0.06,0.09c-1.96,2.44-3.9,4.97-5.811,7.6c-19.64,27.11-28.439,74.431-24.569,105.88
		l-10.681,20.771c-4.569-43.98,9.08-107.84,36.11-144.37c20.36-27.5,41.08-45.05,60.45-52.81c4.99-2.011,9.899-3.351,14.689-4.051
		c0.051-0.01,0.11-0.01,0.16-0.02c4.66-0.67,9.2-0.72,13.61-0.14c0.32,0.029,0.63,0.069,0.93,0.119
		c3.15,0.471,6.24,1.271,9.23,2.391c0.3,0.109,0.6,0.229,0.899,0.35c1.561,0.601,3.091,1.3,4.591,2.09
		c2.529,1.32,4.979,2.881,7.359,4.69c0.05,0.04,0.101,0.07,0.15,0.12c1.93,1.47,3.81,3.109,5.63,4.899
		c0.22,0.21,0.43,0.431,0.64,0.65c0.351,0.37,0.71,0.75,1.061,1.13c0.069,0.08,0.14,0.16,0.22,0.24c2.63,2.83,5.15,5.979,7.5,9.5
		h0.01c1.33,1.99,2.63,4.09,3.88,6.31c2.42,4.29,4.67,8.98,6.73,14.101C716.908,576.572,718.788,582.143,720.478,588.133z"/>
	<linearGradient id="SVGID_24_" gradientUnits="userSpaceOnUse" x1="811.6787" y1="605.6445" x2="910.1148" y2="607.1706">
		<stop  offset="0" style="stop-color:#85683B"/>
		<stop  offset="1" style="stop-color:#9B7A47"/>
	</linearGradient>
	<path fill="url(#SVGID_24_)" stroke="#000000" stroke-linejoin="round" stroke-miterlimit="10" d="M823.958,615.572l-4.68,9.03
		l-0.101,0.06l-0.14,0.09l-0.32,0.21l-0.3,0.2c-0.77,0.5-1.88,1.25-2.94,1.99l-0.52,0.36l-2.05,1.399l-0.391,0.261l-0.109,0.069
		c-0.41-7.09-0.58-13.43-0.34-19.92c0.21-6.02,0.77-12.17,1.79-19.16c0.26-1.819,0.56-3.7,0.89-5.66l8.12-2.1l0.649-0.16
		c-0.05,0.36-0.1,0.71-0.14,1.061c-0.09,0.659-0.17,1.31-0.25,1.939c-0.15,1.38-0.28,2.69-0.39,3.95c-0.08,0.92-0.141,1.8-0.19,2.67
		c-0.02,0.41-0.04,0.82-0.06,1.23c-0.03,0.71-0.051,1.409-0.061,2.1c-0.01,0.7-0.02,1.4-0.02,2.08c0.01,0.43,0.01,0.85,0.02,1.26
		c0,0.4,0.01,0.8,0.03,1.2c0.01,0.2,0.01,0.4,0.02,0.59c0.021,0.48,0.04,0.96,0.07,1.43c0.04,0.681,0.08,1.36,0.13,2.03
		s0.11,1.351,0.17,2.03c0,0.05,0.011,0.1,0.011,0.149c0.06,0.631,0.13,1.261,0.189,1.9c0.07,0.68,0.15,1.38,0.23,2.09
		c0.029,0.3,0.069,0.61,0.109,0.92c0.04,0.38,0.09,0.761,0.13,1.141c0.091,0.689,0.17,1.399,0.261,2.12
		C823.838,614.603,823.898,615.082,823.958,615.572z"/>
	<linearGradient id="SVGID_25_" gradientUnits="userSpaceOnUse" x1="814.4893" y1="583.3848" x2="880.6997" y2="584.4112">
		<stop  offset="0" style="stop-color:#85683B"/>
		<stop  offset="1" style="stop-color:#9B7A47"/>
	</linearGradient>
	<path fill="url(#SVGID_25_)" stroke="#000000" stroke-linejoin="round" stroke-miterlimit="10" d="M822.868,582.402l-8.12,2.1
		c0.01-0.079,0.03-0.159,0.04-0.239C817.868,583.452,819.698,583.162,822.868,582.402z"/>
	
		<linearGradient id="SVGID_26_" gradientUnits="userSpaceOnUse" x1="769.2617" y1="530.5439" x2="1043.5389" y2="470.3591" gradientTransform="matrix(1.0328 0.2058 0.5515 1.0781 -429.3481 -217.6168)">
		<stop  offset="0" style="stop-color:#FECA76"/>
		<stop  offset="1" style="stop-color:#EEB666"/>
	</linearGradient>
	<path fill="url(#SVGID_26_)" stroke="#000000" stroke-linejoin="round" stroke-miterlimit="10" d="M915.168,487.692l-233.518,42.1
		c-7.731-3.766-14.648-6.349-29.427-4.792l229.819-35.592C896.501,486.642,893.501,485.693,915.168,487.692z"/>
	<linearGradient id="SVGID_27_" gradientUnits="userSpaceOnUse" x1="542.0576" y1="656.5791" x2="695.7766" y2="658.9622">
		<stop  offset="0" style="stop-color:#B38C53"/>
		<stop  offset="1" style="stop-color:#CA9E5E"/>
	</linearGradient>
	<polygon fill="url(#SVGID_27_)" stroke="#000000" stroke-linejoin="round" stroke-miterlimit="10" points="718.508,589.643 
		562.028,710.242 561.588,710.582 540.978,726.232 551.658,705.462 695.578,589.962 	"/>
	
		<linearGradient id="SVGID_28_" gradientUnits="userSpaceOnUse" x1="801.7549" y1="547.9131" x2="1077.8827" y2="457.6153" gradientTransform="matrix(1.0328 0.2058 0.5515 1.0781 -429.3481 -217.6168)">
		<stop  offset="0" style="stop-color:#F7C573"/>
		<stop  offset="1" style="stop-color:#DFAB60"/>
	</linearGradient>
	<path fill="url(#SVGID_28_)" stroke="#000000" stroke-linejoin="round" stroke-miterlimit="10" d="M943.162,502.442
		l-238.949,48.579c-8.044-11.162-12.961-15.828-22.563-21.229l233.518-42.1C926.001,488.943,936.251,495.693,943.162,502.442z"/>
	<linearGradient id="SVGID_29_" gradientUnits="userSpaceOnUse" x1="713.166" y1="578.8877" x2="945.9761" y2="492.1329">
		<stop  offset="0" style="stop-color:#EABB6E"/>
		<stop  offset="1" style="stop-color:#D3A25B"/>
	</linearGradient>
	<path fill="url(#SVGID_29_)" stroke="#000000" stroke-linejoin="round" stroke-miterlimit="10" d="M956.668,519.353l-241.84,52.08
		c-4.49-9.91-4.891-10.7-10.62-20.41h0.01l238.94-48.58C950.448,510.652,952.128,512.923,956.668,519.353z"/>
	<linearGradient id="SVGID_30_" gradientUnits="userSpaceOnUse" x1="725.8467" y1="599.542" x2="955.4233" y2="505.2888">
		<stop  offset="0" style="stop-color:#DCB068"/>
		<stop  offset="1" style="stop-color:#C49754"/>
	</linearGradient>
	<path fill="url(#SVGID_30_)" stroke="#000000" stroke-linejoin="round" stroke-miterlimit="10" d="M963.918,534.433l-241.58,52.26
		l-1.86,1.44c-1.689-5.99-3.569-11.561-5.649-16.7l241.84-52.08c3.5,6.42,4.88,9.59,6.73,14.74
		C963.478,534.292,963.708,534.353,963.918,534.433z"/>
	<linearGradient id="SVGID_31_" gradientUnits="userSpaceOnUse" x1="717.1104" y1="580.0049" x2="718.1825" y2="579.5647">
		<stop  offset="0" style="stop-color:#DCB068"/>
		<stop  offset="1" style="stop-color:#C49754"/>
	</linearGradient>
	<path fill="url(#SVGID_31_)" stroke="#000000" stroke-linejoin="round" stroke-miterlimit="10" d="M720.478,588.133l-0.029,0.01
		c-2.09-6.99-2.69-8.74-5.62-16.71C716.908,576.572,718.788,582.143,720.478,588.133z"/>
	<linearGradient id="SVGID_32_" gradientUnits="userSpaceOnUse" x1="1015.5098" y1="669.0742" x2="760.1069" y2="876.653">
		<stop  offset="0" style="stop-color:#6B382A"/>
		<stop  offset="1" style="stop-color:#AA6A55"/>
	</linearGradient>
	<polygon fill="url(#SVGID_32_)" stroke="#000000" stroke-linejoin="round" stroke-miterlimit="10" points="1023.998,708.393 
		1021.928,721.303 1017.848,723.173 738.608,852.013 738.608,836.683 	"/>
	<linearGradient id="SVGID_33_" gradientUnits="userSpaceOnUse" x1="596.6035" y1="776.5029" x2="804.4508" y2="568.6556">
		<stop  offset="0" style="stop-color:#4F2619"/>
		<stop  offset="1" style="stop-color:#8A5643"/>
	</linearGradient>
	<polygon fill="url(#SVGID_33_)" stroke="#000000" stroke-linejoin="round" stroke-miterlimit="10" points="817.168,641.112 
		817.168,649.692 563.708,738.612 538.828,740.522 	"/>
	<linearGradient id="SVGID_34_" gradientUnits="userSpaceOnUse" x1="553.0566" y1="865.9775" x2="703.1363" y2="808.8042">
		<stop  offset="0" style="stop-color:#B38C53"/>
		<stop  offset="1" style="stop-color:#C99D5D"/>
	</linearGradient>
	<polygon fill="url(#SVGID_34_)" stroke="#000000" stroke-linejoin="round" stroke-miterlimit="10" points="602.803,932.554 
		573.059,912.765 548.979,782.005 584.219,800.944 597.988,898.442 	"/>
	<linearGradient id="SVGID_35_" gradientUnits="userSpaceOnUse" x1="614.5117" y1="910.7314" x2="573.3448" y2="773.6566">
		<stop  offset="0" style="stop-color:#FECA76"/>
		<stop  offset="1" style="stop-color:#CBA360"/>
	</linearGradient>
	<polygon fill="url(#SVGID_35_)" stroke="#000000" stroke-linejoin="round" stroke-miterlimit="10" points="606.84,895.001 
		597.988,898.442 584.219,800.944 596.334,807.472 	"/>
	<linearGradient id="SVGID_36_" gradientUnits="userSpaceOnUse" x1="600.3975" y1="860.2852" x2="628.5046" y2="858.2772">
		<stop  offset="0" style="stop-color:#B38C53"/>
		<stop  offset="1" style="stop-color:#C99D5D"/>
	</linearGradient>
	<polygon fill="url(#SVGID_36_)" stroke="#000000" stroke-linejoin="round" stroke-miterlimit="10" points="633.736,911.007 
		606.84,895.001 596.334,807.472 597.154,807.903 625.557,823.177 	"/>
	<linearGradient id="SVGID_37_" gradientUnits="userSpaceOnUse" x1="656.0742" y1="894.5557" x2="703.9458" y2="898.0247">
		<stop  offset="0" style="stop-color:#B38C53"/>
		<stop  offset="1" style="stop-color:#C99D5D"/>
	</linearGradient>
	<polygon fill="url(#SVGID_37_)" stroke="#000000" stroke-linejoin="round" stroke-miterlimit="10" points="700.436,950.69 
		668.025,931.41 660.465,841.95 694.875,860.44 	"/>
	<linearGradient id="SVGID_38_" gradientUnits="userSpaceOnUse" x1="593.0576" y1="970.9775" x2="746.683" y2="912.4535">
		<stop  offset="0" style="stop-color:#B38C53"/>
		<stop  offset="1" style="stop-color:#C99D5D"/>
	</linearGradient>
	<polygon fill="url(#SVGID_38_)" stroke="#000000" stroke-linejoin="round" stroke-miterlimit="10" points="703.506,999.56 
		602.865,932.99 602.807,932.55 597.986,898.44 701.035,960.21 	"/>
	<linearGradient id="SVGID_39_" gradientUnits="userSpaceOnUse" x1="625.7803" y1="877.0146" x2="671.8437" y2="877.6229">
		<stop  offset="0" style="stop-color:#B38C53"/>
		<stop  offset="1" style="stop-color:#C99D5D"/>
	</linearGradient>
	<polygon fill="url(#SVGID_39_)" stroke="#000000" stroke-linejoin="round" stroke-miterlimit="10" points="668.023,931.405 
		633.736,911.007 625.557,823.177 660.471,841.938 660.471,841.954 	"/>
	<linearGradient id="SVGID_40_" gradientUnits="userSpaceOnUse" x1="975.6104" y1="605.915" x2="737.833" y2="535.5427">
		<stop  offset="0" style="stop-color:#6B382A"/>
		<stop  offset="1" style="stop-color:#AA6A55"/>
	</linearGradient>
	<polygon fill="url(#SVGID_40_)" stroke="#000000" stroke-linejoin="round" stroke-miterlimit="10" points="974.498,541.442 
		729.668,602.522 723.428,589.042 722.338,586.692 963.918,534.433 963.928,534.433 966.598,533.853 	"/>
	<linearGradient id="SVGID_41_" gradientUnits="userSpaceOnUse" x1="647.6738" y1="931.9873" x2="654.3406" y2="922.3206">
		<stop  offset="0" style="stop-color:#FECA76"/>
		<stop  offset="1" style="stop-color:#CBA360"/>
	</linearGradient>
	<polygon fill="url(#SVGID_41_)" stroke="#000000" stroke-linejoin="round" stroke-miterlimit="10" points="701.035,960.21 
		597.986,898.44 606.836,895 633.736,911.01 668.025,931.41 700.436,950.69 	"/>
	<linearGradient id="SVGID_42_" gradientUnits="userSpaceOnUse" x1="608.8506" y1="1004.1084" x2="742.6171" y2="927.9454">
		<stop  offset="0" style="stop-color:#B38C53"/>
		<stop  offset="1" style="stop-color:#C99D5D"/>
	</linearGradient>
	<polygon fill="url(#SVGID_42_)" stroke="#000000" stroke-linejoin="round" stroke-miterlimit="10" points="740.215,1024 
		703.506,999.56 701.035,960.21 700.436,950.69 694.875,860.44 737.566,882.8 	"/>
	<linearGradient id="SVGID_43_" gradientUnits="userSpaceOnUse" x1="823.373" y1="923.7188" x2="825.4336" y2="927.4361">
		<stop  offset="0" style="stop-color:#BC9152"/>
		<stop  offset="1" style="stop-color:#EDB666"/>
	</linearGradient>
	<polygon fill="url(#SVGID_43_)" stroke="#000000" stroke-linejoin="round" stroke-miterlimit="10" points="878.34,905.089 
		777.563,958.868 777.488,949.106 810.928,931.345 844.082,913.747 871.352,899.265 	"/>
	
		<line fill="none" stroke="#000000" stroke-linejoin="round" stroke-miterlimit="10" x1="980.221" y1="850.716" x2="980.203" y2="850.716"/>
	<linearGradient id="SVGID_44_" gradientUnits="userSpaceOnUse" x1="980.1328" y1="757.418" x2="980.3767" y2="835.6263">
		<stop  offset="0" style="stop-color:#C29756"/>
		<stop  offset="1" style="stop-color:#E8B467"/>
	</linearGradient>
	<polygon fill="url(#SVGID_44_)" stroke="#000000" stroke-linejoin="round" stroke-miterlimit="10" points="988.297,762.679 
		980.203,850.7 972.264,846.274 978.416,767.417 	"/>
	
		<line fill="none" stroke="#000000" stroke-linejoin="round" stroke-miterlimit="10" x1="980.221" y1="850.716" x2="980.203" y2="850.716"/>
	<linearGradient id="SVGID_45_" gradientUnits="userSpaceOnUse" x1="769.4053" y1="900.6631" x2="818.4794" y2="895.7279">
		<stop  offset="0" style="stop-color:#B88D50"/>
		<stop  offset="0.3858" style="stop-color:#B2884D"/>
		<stop  offset="0.9844" style="stop-color:#A17C46"/>
		<stop  offset="1" style="stop-color:#A17C46"/>
	</linearGradient>
	<polygon fill="url(#SVGID_45_)" stroke="#000000" stroke-linejoin="round" stroke-miterlimit="10" points="812.016,847.124 
		810.928,931.345 777.488,949.106 776.848,863.978 	"/>
	<linearGradient id="SVGID_46_" gradientUnits="userSpaceOnUse" x1="805.9727" y1="886.0322" x2="851.2855" y2="876.2772">
		<stop  offset="0" style="stop-color:#B88D50"/>
		<stop  offset="0.3858" style="stop-color:#B2884D"/>
		<stop  offset="0.9844" style="stop-color:#A17C46"/>
		<stop  offset="1" style="stop-color:#A17C46"/>
	</linearGradient>
	<polygon fill="url(#SVGID_46_)" stroke="#000000" stroke-linejoin="round" stroke-miterlimit="10" points="845.273,831.194 
		844.082,913.747 810.928,931.345 812.016,847.124 	"/>
	<linearGradient id="SVGID_47_" gradientUnits="userSpaceOnUse" x1="838.0566" y1="869.0225" x2="883.4742" y2="862.0081">
		<stop  offset="0" style="stop-color:#B88D50"/>
		<stop  offset="0.3858" style="stop-color:#B2884D"/>
		<stop  offset="0.9844" style="stop-color:#A17C46"/>
		<stop  offset="1" style="stop-color:#A17C46"/>
	</linearGradient>
	<polygon fill="url(#SVGID_47_)" stroke="#000000" stroke-linejoin="round" stroke-miterlimit="10" points="872.842,817.993 
		871.352,899.265 844.082,913.747 845.273,831.194 872.5,818.155 	"/>
	<linearGradient id="SVGID_48_" gradientUnits="userSpaceOnUse" x1="874.5225" y1="812.918" x2="877.8005" y2="901.9543">
		<stop  offset="0" style="stop-color:#C29756"/>
		<stop  offset="1" style="stop-color:#E8B467"/>
	</linearGradient>
	<polygon fill="url(#SVGID_48_)" stroke="#000000" stroke-linejoin="round" stroke-miterlimit="10" points="880.918,814.134 
		878.34,905.075 878.34,905.089 871.352,899.265 872.842,817.993 	"/>
	<linearGradient id="SVGID_49_" gradientUnits="userSpaceOnUse" x1="787.3721" y1="856.0322" x2="1019.7969" y2="846.7841">
		<stop  offset="0" style="stop-color:#B88D50"/>
		<stop  offset="1" style="stop-color:#A17C46"/>
	</linearGradient>
	<polygon fill="url(#SVGID_49_)" stroke="#000000" stroke-linejoin="round" stroke-miterlimit="10" points="913.879,798.337 
		909.186,879.235 908.619,888.923 878.34,905.075 880.918,814.134 	"/>
	<linearGradient id="SVGID_50_" gradientUnits="userSpaceOnUse" x1="907.2891" y1="836.0605" x2="938.3194" y2="831.6832">
		<stop  offset="0" style="stop-color:#B88D50"/>
		<stop  offset="0.3858" style="stop-color:#B2884D"/>
		<stop  offset="0.9844" style="stop-color:#A17C46"/>
		<stop  offset="1" style="stop-color:#A17C46"/>
	</linearGradient>
	<polygon fill="url(#SVGID_50_)" stroke="#000000" stroke-linejoin="round" stroke-miterlimit="10" points="933.504,788.921 
		929.303,868.731 909.186,879.235 913.879,798.337 	"/>
	<linearGradient id="SVGID_51_" gradientUnits="userSpaceOnUse" x1="928.7275" y1="824.5479" x2="959.7716" y2="821.3464">
		<stop  offset="0" style="stop-color:#B88D50"/>
		<stop  offset="0.3858" style="stop-color:#B2884D"/>
		<stop  offset="0.9844" style="stop-color:#A17C46"/>
		<stop  offset="1" style="stop-color:#A17C46"/>
	</linearGradient>
	<polygon fill="url(#SVGID_51_)" stroke="#000000" stroke-linejoin="round" stroke-miterlimit="10" points="957.748,777.312 
		952.52,856.587 929.303,868.731 933.504,788.921 	"/>
	<linearGradient id="SVGID_52_" gradientUnits="userSpaceOnUse" x1="940.1113" y1="862.0527" x2="943.0951" y2="867.4356">
		<stop  offset="0" style="stop-color:#BC9152"/>
		<stop  offset="1" style="stop-color:#EDB666"/>
	</linearGradient>
	<polygon fill="url(#SVGID_52_)" stroke="#000000" stroke-linejoin="round" stroke-miterlimit="10" points="980.203,850.7 
		980.203,850.716 908.619,888.923 909.186,879.235 929.303,868.731 952.52,856.587 972.264,846.274 	"/>
	<linearGradient id="SVGID_53_" gradientUnits="userSpaceOnUse" x1="953.126" y1="815.7891" x2="981.6187" y2="807.0446">
		<stop  offset="0" style="stop-color:#B88D50"/>
		<stop  offset="0.3858" style="stop-color:#B2884D"/>
		<stop  offset="0.9844" style="stop-color:#A17C46"/>
		<stop  offset="1" style="stop-color:#A17C46"/>
	</linearGradient>
	<polygon fill="url(#SVGID_53_)" stroke="#000000" stroke-linejoin="round" stroke-miterlimit="10" points="978.416,767.417 
		972.264,846.274 952.52,856.587 957.748,777.312 	"/>
	
		<linearGradient id="SVGID_54_" gradientUnits="userSpaceOnUse" x1="635.6436" y1="583.7773" x2="676.1415" y2="571.278" gradientTransform="matrix(0.8364 -1.1303 0.1898 0.9391 -51.6248 785.8481)">
		<stop  offset="0" style="stop-color:#B38C53"/>
		<stop  offset="1" style="stop-color:#E6B36A"/>
	</linearGradient>
	<path fill="url(#SVGID_54_)" stroke="#000000" stroke-linejoin="round" stroke-miterlimit="10" d="M649.123,550.355l-82.245,71.328
		c4.014-11.055,9.112-21.328,15.163-29.701l0.062-0.086C603.442,565.518,627.937,550.963,649.123,550.355z"/>
	
		<linearGradient id="SVGID_55_" gradientUnits="userSpaceOnUse" x1="573.0273" y1="611.1074" x2="629.1707" y2="553.054" gradientTransform="matrix(0.8364 -1.1303 0.1898 0.9391 -51.6248 785.8481)">
		<stop  offset="0" style="stop-color:#FECA76"/>
		<stop  offset="1" style="stop-color:#A17C46"/>
	</linearGradient>
	<path fill="url(#SVGID_55_)" stroke="#000000" stroke-linejoin="round" stroke-miterlimit="10" d="M582.041,591.982
		c-6.051,8.373-11.149,18.646-15.163,29.701l-0.012,0.018c-4.785,13.146-8.092,27.412-9.759,40.912
		c-1.478,11.901-1.71,23.244-0.587,32.734l-4.859,10.113c-3.877-31.446,4.932-78.768,24.569-105.877
		C578.142,596.949,580.077,594.424,582.041,591.982z"/>
	<linearGradient id="SVGID_56_" gradientUnits="userSpaceOnUse" x1="516.0879" y1="692.3857" x2="752.5221" y2="632.9586">
		<stop  offset="0" style="stop-color:#6B382A"/>
		<stop  offset="1" style="stop-color:#AA6A55"/>
	</linearGradient>
	<path fill="url(#SVGID_56_)" stroke="#000000" stroke-linejoin="round" stroke-miterlimit="10" d="M729.668,602.522l-160.62,116.15
		h-0.01l-30.21,21.85c-0.69-5.51-0.771-7.68-1.16-11.5l23.92-18.44l0.44-0.34l156.479-120.6l1.94-1.49v-0.01l0.029-0.01l1.86-1.44
		l1.09,2.35L729.668,602.522z"/>
	
		<linearGradient id="SVGID_57_" gradientUnits="userSpaceOnUse" x1="614.8701" y1="619.8809" x2="683.2357" y2="597.6711" gradientTransform="matrix(0.8364 -1.1303 0.1898 0.9391 -51.6248 785.8481)">
		<stop  offset="0" style="stop-color:#B38C53"/>
		<stop  offset="1" style="stop-color:#E6B36A"/>
	</linearGradient>
	<path fill="url(#SVGID_57_)" stroke="#000000" stroke-linejoin="round" stroke-miterlimit="10" d="M680.723,563.131
		l-123.615,99.482c1.667-13.5,4.974-27.766,9.759-40.912l0.012-0.018l82.245-71.328
		C661.103,550.027,672.022,554.152,680.723,563.131z"/>
	
		<linearGradient id="SVGID_58_" gradientUnits="userSpaceOnUse" x1="649" y1="656.292" x2="678.4169" y2="612.6115" gradientTransform="matrix(0.8364 -1.1303 0.1898 0.9391 -51.6248 785.8481)">
		<stop  offset="0" style="stop-color:#B38C53"/>
		<stop  offset="1" style="stop-color:#E6B36A"/>
	</linearGradient>
	<path fill="url(#SVGID_58_)" stroke="#000000" stroke-linejoin="round" stroke-miterlimit="10" d="M694.022,585.352
		L556.521,695.348c-1.123-9.49-0.891-20.833,0.587-32.734l123.615-99.482C686.095,568.665,690.628,576.026,694.022,585.352z"/>
	
		<linearGradient id="SVGID_59_" gradientUnits="userSpaceOnUse" x1="660.6934" y1="646.8662" x2="662.1699" y2="643.3876" gradientTransform="matrix(0.8364 -1.1303 0.1898 0.9391 -51.6248 785.8481)">
		<stop  offset="0" style="stop-color:#FECA76"/>
		<stop  offset="1" style="stop-color:#CBA360"/>
	</linearGradient>
	<path fill="url(#SVGID_59_)" stroke="#000000" stroke-linejoin="round" stroke-miterlimit="10" d="M695.573,589.96L551.661,705.461
		l4.859-10.113l137.502-109.996C694.575,586.836,695.078,588.383,695.573,589.96z"/>
	
		<line fill="none" stroke="#000000" stroke-linejoin="round" stroke-miterlimit="10" x1="568.768" y1="693.449" x2="568.752" y2="693.449"/>
</g>
<linearGradient id="SVGID_60_" gradientUnits="userSpaceOnUse" x1="538.8281" y1="787.6475" x2="740.2178" y2="787.6475">
	<stop  offset="0" style="stop-color:#6B382A"/>
	<stop  offset="1" style="stop-color:#AA6A55"/>
</linearGradient>
<polygon fill="url(#SVGID_60_)" stroke="#000000" stroke-linejoin="round" stroke-miterlimit="10" points="740.218,823.022 
	740.178,823.343 738.608,836.683 538.828,740.522 563.708,738.612 584.218,748.423 619.998,765.532 650.838,780.282 
	682.188,795.272 690.918,799.452 725.738,816.093 "/>
<linearGradient id="SVGID_61_" gradientUnits="userSpaceOnUse" x1="563.708" y1="699.0576" x2="817.168" y2="699.0576">
	<stop  offset="0" style="stop-color:#4F2619"/>
	<stop  offset="1" style="stop-color:#8A5643"/>
</linearGradient>
<polygon fill="url(#SVGID_61_)" stroke="#000000" stroke-linejoin="round" stroke-miterlimit="10" points="817.168,649.692 
	817.168,662.612 584.218,748.423 563.708,738.612 "/>
<linearGradient id="SVGID_62_" gradientUnits="userSpaceOnUse" x1="1018.6006" y1="724.0332" x2="747.5449" y2="813.342">
	<stop  offset="0" style="stop-color:#6B382A"/>
	<stop  offset="1" style="stop-color:#AA6A55"/>
</linearGradient>
<polygon fill="url(#SVGID_62_)" stroke="#000000" stroke-linejoin="round" stroke-miterlimit="10" points="1023.998,708.393 
	738.608,836.683 740.178,823.343 740.218,823.022 747.228,819.982 770.468,809.883 790.238,801.303 798.958,797.513 
	823.568,786.822 853.268,773.923 853.438,773.853 864.058,769.242 864.168,769.192 889.968,757.992 923.398,743.473 
	923.408,743.473 947.898,732.832 980.268,718.772 980.278,718.772 1004.168,708.393 "/>
<linearGradient id="SVGID_63_" gradientUnits="userSpaceOnUse" x1="1007.1631" y1="684.251" x2="820.1533" y2="684.2197">
	<stop  offset="0" style="stop-color:#4F2619"/>
	<stop  offset="1" style="stop-color:#8A5643"/>
</linearGradient>
<polygon fill="url(#SVGID_63_)" stroke="#000000" stroke-linejoin="round" stroke-miterlimit="10" points="1004.168,708.393 
	980.278,718.772 980.268,718.772 817.168,662.612 817.168,649.692 "/>
<linearGradient id="SVGID_64_" gradientUnits="userSpaceOnUse" x1="964.8047" y1="591.2773" x2="807.4746" y2="591.2773">
	<stop  offset="0" style="stop-color:#4F2619"/>
	<stop  offset="1" style="stop-color:#8A5643"/>
</linearGradient>
<polygon fill="url(#SVGID_64_)" stroke="#000000" stroke-linejoin="round" stroke-miterlimit="10" points="974.498,541.442 
	817.168,641.112 817.168,634.192 942.978,551.393 "/>
<linearGradient id="SVGID_65_" gradientUnits="userSpaceOnUse" x1="538.8281" y1="687.3574" x2="817.168" y2="687.3574">
	<stop  offset="0" style="stop-color:#4F2619"/>
	<stop  offset="1" style="stop-color:#8A5643"/>
</linearGradient>
<polygon fill="url(#SVGID_65_)" stroke="#000000" stroke-linejoin="round" stroke-miterlimit="10" points="817.168,634.192 
	817.168,641.112 538.828,740.522 568.748,720.942 "/>
<line fill="none" stroke="#000000" stroke-linejoin="round" stroke-miterlimit="10" x1="569.038" y1="718.673" x2="568.748" y2="718.772"/>
<line fill="none" stroke="#000000" stroke-linejoin="round" stroke-miterlimit="10" x1="944.408" y1="551.022" x2="942.978" y2="551.393"/>
<linearGradient id="SVGID_66_" gradientUnits="userSpaceOnUse" x1="964.2861" y1="573.957" x2="719.4561" y2="573.957">
	<stop  offset="0" style="stop-color:#4F2619"/>
	<stop  offset="1" style="stop-color:#8A5643"/>
</linearGradient>
<path fill="url(#SVGID_66_)" stroke="#000000" stroke-linejoin="round" stroke-miterlimit="10" d="M974.498,541.442l-31.521,9.95
	l-24.779,6.399l-15.891,4.101l-49.069,12.67l-0.69,0.18l-29.03,7.5l-0.649,0.16c-3.17,0.76-5,1.05-8.08,1.86
	c-0.01,0.08-0.03,0.16-0.04,0.239l-85.08,21.971v-3.95L974.498,541.442z"/>
<linearGradient id="SVGID_67_" gradientUnits="userSpaceOnUse" x1="814.748" y1="583.4521" x2="822.8682" y2="583.4521">
	<stop  offset="0" style="stop-color:#B38C53"/>
	<stop  offset="1" style="stop-color:#CA9E5E"/>
</linearGradient>
<path fill="url(#SVGID_67_)" stroke="#000000" stroke-linejoin="round" stroke-miterlimit="10" d="M822.868,582.402l-8.12,2.1
	c0.01-0.079,0.03-0.159,0.04-0.239C817.868,583.452,819.698,583.162,822.868,582.402z"/>
<linearGradient id="SVGID_68_" gradientUnits="userSpaceOnUse" x1="538.8281" y1="671.5225" x2="729.668" y2="671.5225">
	<stop  offset="0" style="stop-color:#4F2619"/>
	<stop  offset="1" style="stop-color:#8A5643"/>
</linearGradient>
<polygon fill="url(#SVGID_68_)" stroke="#000000" stroke-linejoin="round" stroke-miterlimit="10" points="729.668,602.522 
	729.668,606.473 712.338,618.803 649.348,663.612 598.398,699.853 568.748,720.942 538.828,740.522 569.038,718.673 
	569.048,718.673 "/>
<linearGradient id="SVGID_69_" gradientUnits="userSpaceOnUse" x1="942.9775" y1="592.793" x2="812.4082" y2="592.793">
	<stop  offset="0" style="stop-color:#4F2619"/>
	<stop  offset="1" style="stop-color:#8A5643"/>
</linearGradient>
<polygon fill="url(#SVGID_69_)" stroke="#000000" stroke-linejoin="round" stroke-miterlimit="10" points="942.978,551.393 
	817.168,634.192 812.408,629.242 812.518,629.173 812.908,628.912 814.958,627.513 815.478,627.152 818.418,625.162 
	818.718,624.962 819.038,624.752 819.178,624.662 819.278,624.603 918.198,557.792 "/>
<line fill="none" stroke="#000000" stroke-linejoin="round" stroke-miterlimit="10" x1="812.908" y1="628.912" x2="812.518" y2="629.173"/>
<linearGradient id="SVGID_70_" gradientUnits="userSpaceOnUse" x1="568.748" y1="675.0928" x2="817.168" y2="675.0928">
	<stop  offset="0" style="stop-color:#4F2619"/>
	<stop  offset="1" style="stop-color:#8A5643"/>
</linearGradient>
<polygon fill="url(#SVGID_70_)" stroke="#000000" stroke-linejoin="round" stroke-miterlimit="10" points="817.168,634.192 
	568.748,720.942 598.398,699.853 812.408,629.242 "/>
<linearGradient id="SVGID_71_" gradientUnits="userSpaceOnUse" x1="822.4082" y1="588.7324" x2="902.3076" y2="588.7324">
	<stop  offset="0" style="stop-color:#85683B"/>
	<stop  offset="1" style="stop-color:#9B7A47"/>
</linearGradient>
<path fill="url(#SVGID_71_)" stroke="#000000" stroke-linejoin="round" stroke-miterlimit="10" d="M902.308,561.893l-78.35,53.68
	c-0.06-0.49-0.12-0.97-0.18-1.439c-0.091-0.721-0.17-1.431-0.261-2.12c-0.04-0.38-0.09-0.761-0.13-1.141
	c-0.04-0.31-0.08-0.62-0.109-0.92c-0.08-0.71-0.16-1.41-0.23-2.09c-0.06-0.64-0.13-1.27-0.189-1.9c0-0.05-0.011-0.1-0.011-0.149
	c-0.06-0.68-0.12-1.36-0.17-2.03s-0.09-1.35-0.13-2.03c-0.03-0.47-0.05-0.949-0.07-1.43c-0.01-0.189-0.01-0.39-0.02-0.59
	c-0.021-0.4-0.03-0.8-0.03-1.2c-0.01-0.41-0.01-0.83-0.02-1.26l30.83-22.71L902.308,561.893z"/>
<linearGradient id="SVGID_72_" gradientUnits="userSpaceOnUse" x1="822.4082" y1="585.917" x2="853.2383" y2="585.917">
	<stop  offset="0" style="stop-color:#85683B"/>
	<stop  offset="1" style="stop-color:#9B7A47"/>
</linearGradient>
<path fill="url(#SVGID_72_)" stroke="#000000" stroke-linejoin="round" stroke-miterlimit="10" d="M853.238,574.563l-30.83,22.71
	c0-0.68,0.01-1.38,0.02-2.08c0.01-0.69,0.03-1.39,0.061-2.1c0.02-0.41,0.04-0.82,0.06-1.23c0.05-0.87,0.11-1.75,0.19-2.67
	c0.109-1.26,0.239-2.57,0.39-3.95c0.08-0.63,0.16-1.28,0.25-1.939c0.04-0.351,0.09-0.7,0.14-1.061l29.03-7.5L853.238,574.563z"/>
<linearGradient id="SVGID_73_" gradientUnits="userSpaceOnUse" x1="819.2783" y1="591.1973" x2="918.1982" y2="591.1973">
	<stop  offset="0" style="stop-color:#85683B"/>
	<stop  offset="1" style="stop-color:#9B7A47"/>
</linearGradient>
<polygon fill="url(#SVGID_73_)" stroke="#000000" stroke-linejoin="round" stroke-miterlimit="10" points="918.198,557.792 
	819.278,624.603 823.958,615.572 902.308,561.893 "/>
<linearGradient id="SVGID_74_" gradientUnits="userSpaceOnUse" x1="598.3984" y1="654.5869" x2="812.4082" y2="654.5869">
	<stop  offset="0" style="stop-color:#85683B"/>
	<stop  offset="1" style="stop-color:#9B7A47"/>
</linearGradient>
<path fill="url(#SVGID_74_)" stroke="#000000" stroke-linejoin="round" stroke-miterlimit="10" d="M812.408,629.242l-214.01,70.61
	l50.949-36.24l162.721-54.29C811.828,615.813,811.998,622.152,812.408,629.242z"/>
<linearGradient id="SVGID_75_" gradientUnits="userSpaceOnUse" x1="649.3477" y1="626.8877" x2="813.8584" y2="626.8877">
	<stop  offset="0" style="stop-color:#85683B"/>
	<stop  offset="1" style="stop-color:#9B7A47"/>
</linearGradient>
<path fill="url(#SVGID_75_)" stroke="#000000" stroke-linejoin="round" stroke-miterlimit="10" d="M813.858,590.162
	c-1.021,6.99-1.58,13.141-1.79,19.16l-162.721,54.29l62.99-44.81L813.858,590.162z"/>
<linearGradient id="SVGID_76_" gradientUnits="userSpaceOnUse" x1="712.3379" y1="601.6523" x2="814.748" y2="601.6523">
	<stop  offset="0" style="stop-color:#85683B"/>
	<stop  offset="1" style="stop-color:#9B7A47"/>
</linearGradient>
<path fill="url(#SVGID_76_)" stroke="#000000" stroke-linejoin="round" stroke-miterlimit="10" d="M814.748,584.502
	c-0.33,1.96-0.63,3.841-0.89,5.66l-101.521,28.641l17.33-12.33L814.748,584.502z"/>
<path fill="none" stroke="#000000" stroke-linejoin="round" stroke-miterlimit="10" d="M621.555,766.277"/>
<path fill="none" stroke="#000000" stroke-linejoin="round" stroke-miterlimit="10" d="M818.079,687.723"/>
<linearGradient id="SVGID_77_" gradientUnits="userSpaceOnUse" x1="584.2178" y1="714.0723" x2="818.0781" y2="714.0723">
	<stop  offset="0" style="stop-color:#8B6A3A"/>
	<stop  offset="1" style="stop-color:#765A2F"/>
</linearGradient>
<polygon fill="url(#SVGID_77_)" stroke="#000000" stroke-linejoin="round" stroke-miterlimit="10" points="818.078,687.723 
	791.348,698.223 781.388,702.143 760.548,710.322 736.108,719.923 716.328,727.702 683.108,740.763 674.958,743.952 
	674.618,744.093 647.168,754.872 619.998,765.532 584.218,748.423 817.168,662.612 "/>
</svg>
