<?xml version="1.0" encoding="utf-8"?>
<!-- Generator: Adobe Illustrator 16.0.0, SVG Export Plug-In . SVG Version: 6.00 Build 0)  -->
<!DOCTYPE svg PUBLIC "-//W3C//DTD SVG 1.1//EN" "http://www.w3.org/Graphics/SVG/1.1/DTD/svg11.dtd">
<svg version="1.1" xmlns="http://www.w3.org/2000/svg" xmlns:xlink="http://www.w3.org/1999/xlink" x="0px" y="0px" width="1024px"
	 height="1024px" viewBox="0 0 1024 1024" enable-background="new 0 0 1024 1024" xml:space="preserve">
<g id="Tool" display="none">
	<g display="inline">
		
			<radialGradient id="SVGID_1_" cx="515" cy="848.0332" r="1136.8319" gradientTransform="matrix(1 -2.690684e-004 2.175077e-004 0.8084 -0.1843 162.6444)" gradientUnits="userSpaceOnUse">
			<stop  offset="0" style="stop-color:#000000"/>
			<stop  offset="0.0916" style="stop-color:#060606"/>
			<stop  offset="0.2173" style="stop-color:#181818"/>
			<stop  offset="0.3629" style="stop-color:#353535"/>
			<stop  offset="0.5234" style="stop-color:#5D5D5D"/>
			<stop  offset="0.6961" style="stop-color:#919191"/>
			<stop  offset="0.8762" style="stop-color:#D0D0D0"/>
			<stop  offset="1" style="stop-color:#FFFFFF"/>
		</radialGradient>
		<path fill="url(#SVGID_1_)" stroke="#000000" stroke-width="6.355" stroke-miterlimit="10" d="M988.623,804.33
			c0,14.038-11.381,25.419-25.419,25.419H60.8c-14.038,0-25.424-11.381-25.424-25.419V219.674c0-14.038,11.386-25.424,25.424-25.424
			h902.404c14.038,0,25.419,11.386,25.419,25.424V804.33z"/>
		
			<radialGradient id="SVGID_2_" cx="504.7119" cy="507.4736" r="632.1165" gradientTransform="matrix(1 0 0 0.6241 0 190.7837)" gradientUnits="userSpaceOnUse">
			<stop  offset="0" style="stop-color:#FFFFFF"/>
			<stop  offset="0.1238" style="stop-color:#D0D0D0"/>
			<stop  offset="0.3039" style="stop-color:#919191"/>
			<stop  offset="0.4766" style="stop-color:#5D5D5D"/>
			<stop  offset="0.6371" style="stop-color:#353535"/>
			<stop  offset="0.7827" style="stop-color:#181818"/>
			<stop  offset="0.9084" style="stop-color:#060606"/>
			<stop  offset="1" style="stop-color:#000000"/>
		</radialGradient>
		<path fill="url(#SVGID_2_)" stroke="#000000" stroke-width="6.355" stroke-miterlimit="10" d="M918.586,761.317
			c0,12.19-9.883,22.073-22.072,22.073H112.915c-12.19,0-22.077-9.883-22.077-22.073V253.634c0-12.19,9.887-22.077,22.077-22.077
			h783.599c12.189,0,22.072,9.887,22.072,22.077V761.317z"/>
		<linearGradient id="SVGID_3_" gradientUnits="userSpaceOnUse" x1="119.5474" y1="507.4736" x2="889.877" y2="507.4736">
			<stop  offset="0" style="stop-color:#4F1110"/>
			<stop  offset="0.168" style="stop-color:#611A19"/>
			<stop  offset="0.372" style="stop-color:#742121"/>
			<stop  offset="0.4854" style="stop-color:#7B2424"/>
			<stop  offset="0.759" style="stop-color:#7C1D1D"/>
			<stop  offset="1" style="stop-color:#7D1416"/>
		</linearGradient>
		<path fill="url(#SVGID_3_)" stroke="#000000" stroke-width="5.1355" stroke-miterlimit="10" d="M889.877,743.709
			c0,11.345-9.197,20.542-20.541,20.542H140.092c-11.344,0-20.545-9.197-20.545-20.542V271.242c0-11.345,9.201-20.545,20.545-20.545
			h729.244c11.344,0,20.541,9.201,20.541,20.545V743.709z"/>
	</g>
</g>
<g id="_x35_">
</g>
<g id="_x34_">
</g>
<g id="_x33_">
</g>
<g id="_x32_">
</g>
<g id="_x31_">
	<g>
		<path d="M886.648,752.729c-2.229-6.137-4.938-12.031-7.56-17.732c-1.229-2.67-2.498-5.432-3.68-8.139
			c-2.833-6.49-5.091-13.211-7.376-20.194c-3.938-12.032-8.401-25.669-17.696-36.221c-5.037-5.717-11.276-9.915-18.045-12.138
			c-4.99-1.64-9.898-1.597-14.227-1.559c-3.621,0.031-7.04,0.061-9.83-0.912c-5.284-1.844-10.09-6.915-14.559-11.95
			c-1.622-1.828-3.254-3.742-4.831-5.593c-3.361-3.944-6.838-8.023-10.703-11.854c-29.505-29.247-59.513-49.105-89.191-59.021
			c-3.203-1.07-6.435-2.003-9.561-2.906c-0.326-0.094-0.647-0.188-0.971-0.281c-1.883-1.604-3.881-3.076-6.037-4.376
			c-4.017-2.421-10.141-5.64-14.959-3.803c-2.141-1.207-4.262-2.512-6.396-3.877c2.317-0.398,4.616-0.835,6.884-1.272
			c12.657-2.441,25.603-3.667,38.461-4.362c6.604-0.357,13.262-0.727,19.809-1.699c2.691-0.4,5.671-0.863,8.036-2.34
			c3.7-0.707,7.183-1.746,10.501-3.023c0.098-0.022,0.196-0.04,0.293-0.065c7.339-1.963,13.85-4.506,18.771-10.484
			c3.479-2.436,6.847-4.993,10.18-7.531c1.534-1.168,3.076-2.342,4.634-3.509c4.137-3.096,8.505-5.809,13.173-8.189
			c1.42-0.192,2.839-0.373,4.25-0.552c1.037,0.388,2.277,0.397,3.689-0.16c0.355-0.14,0.699-0.303,1.047-0.459
			c9.409-1.292,18.52-3.695,27.832-5.522c13.752-2.697,28.078-4.423,41.25-9.446c3.874-1.477,8.252-3.699,11.937-6.587
			c5.62-2.803,9.984-7.138,9.139-14.028c-0.138-1.12-0.45-2.236-0.931-3.317c-0.042-0.094-0.093-0.182-0.138-0.273
			c0.599-1.885,0.69-3.896,0.812-6.354c0.107-2.174-1.067-3.819-2.691-4.743c0.662-0.688,1.307-1.402,2.092-1.974
			c1.643-1.195,3.561-1.704,5.373-2.548c0.76-0.354,0.398-1.655-0.43-1.587c-2.967,0.245-7.523,2.41-9.213,5.354
			c-2.168-0.335-4.49,0.428-5.671,2.643c-0.363,0.61-0.671,1.246-0.925,1.908c-0.139,0.325-0.239,0.576-0.324,0.797
			c-0.068-0.057-0.194-0.056-0.423,0.068c-2.024,1.096-3.685,3.729-3.488,6.083c0.119,1.425-0.099,3.071-0.007,2.874
			c-0.438,0.939-1.518,1.908-2.816,3.037c-0.633,0.55-1.368,1.056-2.163,1.528c-1.966,0.513-4.429,1.059-7.543,1.623
			c-0.686,0.124-1.285,0.233-1.773,0.33c-6.931,1.366-14.047,2.602-20.929,3.797c-5.529,0.96-11.22,1.954-16.87,3.019
			c5.165-8.298,8.615-17.407,12.366-26.432c3.971-9.555,5.803-19.529,11.497-28.348c1.573-2.436,2.562-4.966,4.461-7.248
			c1.646-1.976,3.662-3.701,5.431-5.569c3.787-4,6.629-8.258,9.261-13.101c0.64-1.177-0.97-2.018-1.74-1.018
			c-3.317,4.307-7.642,7.496-11.945,10.765c-4.004,3.042-7.178,6.83-10.937,10.126c-3.16,2.772-4.978,7.965-6.645,11.704
			c-1.912,4.29-3.513,8.705-5.132,13.11c-3.713,10.102-9.45,18.339-15.451,27.174c-2.966,4.366-6.249,8.488-9.814,12.378
			c-0.429,0.468-0.872,0.925-1.321,1.375c-3.957,1.275-7.761,2.694-11.404,4.28c-1.533,0.232-3.059,0.474-4.567,0.75
			c-3.674,0.674-7.161,1.618-10.523,2.932c0.682-1.13,1.343-2.277,1.971-3.462c2.229-4.205,3.493-8.923,6.877-12.386
			c1.43-1.462-0.373-3.639-2.12-2.749c-8.32,4.237-11.257,12.144-16.409,19.373c-1.752,2.458-3.825,4.933-5.769,7.512
			c-1.975,1.96-3.604,4.132-5.05,6.537c-1.653,2.748-3.127,5.535-5.162,7.884c-5.524,3.438-11.273,6.197-17.653,7.647
			c-0.288-0.12-0.572-0.247-0.865-0.355c-5.913-1.626-13.403,0.236-19.454,0.521c-1.312,0.062-2.626,0.119-3.941,0.176
			c4.011-3.54,7.9-7.208,11.862-10.803c3.78-3.431,9.581-6.615,10.928-11.837c1.027-3.989-1.872-6.876-5.59-7.338
			c-4.908-0.608-8.668,3.665-11.904,6.712c-4.025,3.789-7.938,7.734-11.748,11.738c-3.335,3.503-6.626,7.045-10.139,10.374
			c-0.464,0.439-0.951,0.902-1.437,1.374c-13.689-0.164-26.577,2.508-40.108,4.465c-5.316,0.769-11.264,1.303-16.195-1.188
			c-4.527-2.288-8.346-5.656-12.727-8.172c-11.368-6.529-26.38-6.584-38.188-1.518c-4.828,2.072-9.057,3.958-14.264,5.149
			c-4.057,0.927-7.585-2.438-11.322-5c-5.959-4.085-12.983-6.233-19.763-8.567c-6.704-2.307-13.161-5.286-19.852-7.542
			c-9.366-3.158-23.33-1.877-30.576-9.421c-1.569-1.634-4.399-2.529-6.594-1.743c-0.31,0.111-0.626,0.218-0.945,0.324
			c-2.867-1.1-5.814-2.101-8.881-2.885c-0.784-0.201-1.568-0.249-2.329-0.182c-0.317-0.069-0.623-0.133-0.901-0.186
			c-4.464-0.854-8.654-1.268-13.033-2.627c-0.706-0.219-1.431-0.186-2.158-0.111c-2.528-0.997-5.123-1.485-7.122-0.449
			c-0.274,0.007-0.544,0.009-0.829,0.034c-0.229,0.021-0.386,0.142-0.486,0.293c-3.298-0.489-6.51-1.009-9.781-1.969
			c-0.727-2.193-2.188-3.885-4.468-5.296c-2.394-1.481-3.649-3.218-3.534-6.058c0.022-0.538,0.076-1.131,0.142-1.75
			c3.832-2.032,8.026-4.044,12.379-6.131c9.234-4.425,18.673-8.958,26.633-14.574c2.304,0.446,4.587,0.681,6.873,0.681
			c6.121,0,12.259-1.615,18.857-4.913c0.673-0.336,1.287-0.779,1.819-1.312c0.688-0.688,1.438-1.174,2.934-2.123
			c0.629-0.399,1.306-0.829,2.05-1.325c0.142-0.095,0.28-0.194,0.414-0.299c2.87-2.232,5.324-4.582,7.696-6.854
			c4.245-4.065,7.911-7.576,12.874-9.381c8.236-2.995,17.405-3.789,26.534-2.296l0.818,0.182
			c23.124,5.142,47.036,10.459,71.878,2.177c0.108-0.036,0.217-0.075,0.323-0.117c13.16-5.118,28.912-10.712,45.98-13.421
			c7.739-0.931,15.346,1.958,23.408,5.015c4.062,1.54,8.261,3.133,12.654,4.309c6.099,1.731,12.005,1.906,17.626,0.537
			c0.123,0.057,0.232,0.125,0.359,0.178c4.205,1.754,9.785,1.539,14.565,0.932c4.304,0.93,9.041,0.403,13.379,0.107
			c5.309-0.362,9.713-3.006,14.817-4.137c3.498-0.775,8.456-1.394,11.605-3.062c5.045-2.674,9.983-3.521,15.648-3.119
			c0.738,0.052,0.896-1.14,0.175-1.289c-4.166-0.861-8.473-0.965-12.713-0.751c-1.771,0.089-3.609-0.568-5.364-0.186
			c-2.883,0.627-5.696,1.201-8.641,1.479c-1.702,0.161-4.465,0.721-6.08,0.024c-2.437-1.052-4.371-2.072-6.934-2.727
			c0.885-0.387,1.771-0.774,2.655-1.175c13.052-4.351,26.533-8.879,39.261-17.062c0.097-0.062,0.19-0.126,0.283-0.192
			c13.054-9.324,23.564-19.978,33.729-30.28c4.402-4.462,8.954-9.075,13.638-13.501c3.633-3.3,7.338-6.403,10.922-9.403
			c5.851-4.899,11.377-9.526,16.638-14.952c2.046-2.109,2.493-5.174,1.373-7.706c4.579-2.435,9.404-4.812,14.058-5.147
			c2.282-0.165,2.327-3.513,0-3.578c-5.852-0.164-11.079-0.026-16.456,0.926c0.972-1.654,1.869-3.351,2.655-5.093
			c1.753-3.884,2.274-7.829,3.509-11.849c0.241-0.784-1.003-1.335-1.342-0.566c-3.228,7.323-11.155,13.309-16.663,18.945
			c-1.228,1.256-2.512,2.572-3.795,3.938c-1.117,0.569-2.223,1.149-3.313,1.722c-3.402,1.789-7.712,4.045-8.727,8.028
			c-0.484,1.902,0.329,3.584,1.77,4.502c-0.241,0.557-0.469,1.118-0.667,1.684c-0.009,0.026-0.013,0.057-0.021,0.084
			c-3.083,2.588-6.234,5.266-9.407,8.15c-0.032,0.03-0.065,0.06-0.098,0.09c-4.881,4.61-9.537,9.33-14.04,13.894
			c-10.157,10.295-19.755,20.021-31.76,28.62c-11.322,7.247-23.467,11.296-36.321,15.581c-0.232,0.077-0.46,0.167-0.683,0.268
			c-4.633,2.106-9.405,4.058-14.02,5.946c-4.71,1.927-9.58,3.919-14.43,6.121c-4.2,1.784-8.463,1.955-13.409,0.541
			c-0.04-0.011-0.079-0.022-0.119-0.033c-3.726-0.993-7.432-2.399-11.356-3.887c-4.221-1.601-8.509-3.221-12.974-4.392
			c-0.668-0.979-1.886-1.594-3.087-1.173c-0.08,0.002-0.162,0-0.242,0.008c1.203-1.29,2.43-2.563,3.692-3.814
			c5.161-5.11,9.371-10.582,14.11-16c2.023-2.313,3.935-4.761,5.735-7.287c0.056,0.185,0.206,0.336,0.456,0.336
			c0.641,0,0.643-0.984,0.012-0.998c1.782-2.544,3.453-5.165,4.986-7.829c1.732-3.01,2.562-6.552,4.749-9.313
			c2.444-3.085,4.96-6.086,7.717-8.897c0.609-0.621-0.279-1.435-0.928-0.928c-5.146,4.026-9.574,8.71-14.598,12.858
			c-5.53,4.567-9.044,11.071-13.828,16.358c-4.71,5.204-10.886,9.192-16.016,14.095c-3.747,3.582-7.535,7.288-10.88,11.313
			c-18.092,2.934-34.481,8.729-48.168,14.046c-21.107,6.979-42.067,2.319-64.254-2.614l-1.009-0.225
			c-0.122-0.027-0.245-0.051-0.368-0.071c-11.561-1.925-23.247-0.917-33.798,2.919c-7.733,2.813-12.836,7.7-17.772,12.427
			c-2.15,2.06-4.185,4.008-6.408,5.758c-0.563,0.372-1.081,0.7-1.566,1.007c-1.5,0.951-2.93,1.857-4.406,3.169
			c-1.344,0.639-2.625,1.155-3.874,1.587c5.984-8.956,9.464-19.542,12.845-29.844c2.688-8.192,5.228-15.93,8.82-22.233
			c5.537-9.714,13.832-14.234,24.946-19.56c12.061-5.778,17.485-10.986,25.697-18.868l1.948-1.867
			c2.854-2.729,7.311-5.417,12.178-8.223c1.591,0.257,3.173,0.481,4.57,0.889c4.259,1.243,8.312,3.086,12.583,4.301
			c8.883,2.527,17.966,1.851,26.871-0.048c10.457-2.231,20.367-5.592,30.228-9.702c4.688-1.955,9.365-3.94,13.927-6.175
			c5.592-2.741,10.321-7.469,16.156-9.524c1.637-0.577,0.956-3.171-0.723-2.622c-5,1.635-10.441,1.675-15.597,2.817
			c-5.011,1.11-9.935,3.709-14.676,5.622c-9.944,4.012-20.006,7.215-30.445,9.653c-9.035,2.11-16.868,2.011-25.646-1.294
			c-1.201-0.452-2.609-1.088-4.143-1.783c7.189-4.823,13.501-10.553,15.835-18.285c1.083-3.587-0.857-7.36-4.348-8.605
			c-0.582-1.833-1.291-3.591-2.188-5.273c3.514-2.813,6.368-6.426,9.686-9.531c5.487-5.135,12.295-1.126,18.833-1.969
			c6.915-0.892,12.664-4.756,16.324-10.563c2.553-4.051,4.338-11.655,0.77-15.52c-0.672-0.729-1.82-0.47-2.319,0.299
			c-1.242,1.914-1.232,3.98-1.746,6.158c-0.708,3.004-2.234,5.467-4.609,7.401c-5.343,4.349-11.103,3.996-17.349,2.592
			c-5.312-1.193-10.431,0.066-14.848,3.165c-4.731,3.319-8.12,9.168-13.568,11.368c-3.716,1.501-5.131,5.601-2.316,8.773
			c2.216,2.496,3.227,5.412,3.956,8.502c-2.466,5.906-11.781,11.253-20.06,15.995c-6.435,3.685-12.512,7.166-17.01,11.465
			l-1.969,1.887c-7.18,6.891-11.38,10.915-19.938,15.293c0.668-4.603,1.137-9.228,1.36-13.739
			c0.329-6.657-0.726-13.823-5.026-18.512c6.018-8.326,14.141-14.873,19.604-23.648c3.229-5.188,4.646-11.038,6.451-16.796
			c0.795-2.54,1.593-5.071,2.667-7.513c0.987-2.242,2.696-3.858,3.749-6.019c0.407-0.835-0.079-1.859-1.072-1.869
			c-4.442-0.046-8.483,4.015-10.923,7.366c-3.717,5.107-4.891,11.746-8.116,17.156c-3.162,5.305-7.824,9.562-12.174,13.866
			c-4.867,4.817-9.152,10.116-12.629,16.023c-1.954,3.319-0.002,7.015,3.352,8.238c4.678,1.707,2.637,12.829,2.254,16.264
			c-0.592,5.31-2.246,10.775-3.021,16.195c-7.76,4.608-14.515,10.283-19.648,19.29c-4.291,7.529-7.172,16.309-9.959,24.8
			c-3.681,11.217-7.488,22.817-14.363,30.588c-7.208,8.147-20.102,14.327-32.571,20.303c-0.352,0.168-0.696,0.334-1.045,0.502
			c-0.615-1.007-1.23-2.009-1.876-2.988c0.091-1.484-0.541-2.881-1.601-3.946c-1.083-2.695-2.6-5.255-3.93-7.882
			c0.114-2.582,0.077-5.097,0.846-7.716c1.302-4.435-1.313-7.34-4.656-8.077c0.11-0.706,0.206-1.41,0.273-2.105
			c0.566-5.847-0.021-16.374-7.017-18.344c-0.477-0.134-0.908,0.237-0.93,0.708c-0.262,5.629,1.517,10.878,0.599,16.641
			c-0.535,3.359-1.502,6.305-3.214,8.736c-1.674,1.724-3.492,3.218-5.525,4.705c-1.942,0.989-2.813,2.493-2.911,4.056
			c-0.652-0.07-1.308-0.076-1.977-0.021c-1.834-0.469-3.7-0.667-5.486-1.359c-2.197-0.851-4.232-2.038-6.338-3.088
			c-1.974-0.984-3.574-2.302-5.256-3.731c-0.359-0.436-0.614-0.693-0.776-0.79c-0.159-1.122-0.467-2.235-0.798-3.298
			c-0.742-2.386-2.351-3.846-4.204-4.48c-0.671-1.545-1.284-3.252-1.918-5.021c-1.881-5.247-4.014-11.194-8.79-15.349
			c-6.828-5.939-15.872-6.863-23.851-7.678c-4.71-0.481-9.16-0.936-12.648-2.285c-6.906-2.672-12.956-6.47-18.752-10.828
			c-0.318-1.853-1.255-3.577-2.803-4.698c1.657-2.358,2.456-5.318,2.772-8.377c0.542-5.231,0.333-11.956-1.279-16.579
			c-0.536-1.538-1.618-2.794-2.938-3.65c0.099-0.349,0.119-0.739,0.004-1.173c-0.473-1.784-0.685-3.37,0.291-5.014
			c1.385-2.333-2.129-4.33-3.603-2.105c-1.458,2.202-1.633,4.604-1.264,7.081c-1.875,0.161-3.64,1.162-4.706,3.265
			c-2.225,4.385-2.09,8.233-1.026,13.003c0.37,1.657,0.378,3.482,0.434,5.173c0.012,0.363-0.039,0.889-0.096,1.417
			c-5.199-4.408-10.588-8.888-16.46-12.864c-9.834-6.658-23.254-6.869-36.232-7.072c-18.352-0.288-29.825-1.157-34.393-10.782
			c-0.797-1.68-0.624-4.819-0.456-7.855c0.161-2.918,0.328-5.936-0.157-9.02c-0.652-4.141-1.719-7.811-3.162-11.256
			c7.844-8.092,15.135-16.733,21.948-25.697c4.654-6.124,8.977-12.52,12.664-19.274c2.481-4.545,5.487-10.815,4.464-16.124
			c-0.269-1.393-2.02-1.27-2.699-0.353c-3.155,4.258-5.217,9.728-7.935,14.325c-3.794,6.418-8.339,12.397-13.043,18.167
			c-6.05,7.422-12.542,14.551-19.4,21.272c-1.703-2.749-3.655-5.471-5.845-8.314c-8.42-10.931-17.717-20.434-26.885-27.481
			c-4.821-3.706-10.179-5.998-14.906-8.02c-4.167-1.782-8.102-3.465-10.897-5.773c-2.981-2.462-7.394-2.04-9.854,0.942
			c-2.461,2.981-2.039,7.394,0.942,9.854c4.349,3.59,9.41,5.755,14.304,7.848c4.351,1.861,8.459,3.618,11.879,6.247
			c8.222,6.32,16.634,14.939,24.327,24.925c5.691,7.39,9.014,12.907,10.269,20.886c0.254,1.617,0.135,3.781,0.008,6.071
			c-0.252,4.562-0.538,9.733,1.787,14.631c8.627,18.179,28.918,18.497,46.821,18.778c10.926,0.171,22.225,0.348,28.602,4.666
			c3.437,2.327,6.699,4.869,9.953,7.531c-1.991,0.139-3.925,1.101-5.742,2.058c-2.997,1.578-5.605,3.851-8.583,5.513
			c-2.591,1.447-0.319,5.072,2.279,3.899c2.936-1.326,5.858-2.241,8.937-3.166c1.608-0.483,3.317-0.964,4.785-1.795
			c0.297,0.212,0.674,0.345,1.138,0.345c1.811,0,2.345-1.968,1.614-3.143c0.002-0.007,0.006-0.014,0.009-0.021
			c0.854,0.722,1.702,1.437,2.567,2.172c7.89,6.706,15.989,13.58,25.629,18.898c-10.184,4.865-17.444,15.921-24.233,24.345
			c-1.71,2.122,0.398,5.299,2.997,3.884c6.01-3.275,10.06-7.476,14.848-12.306c4.6-4.639,9.586-8.347,15.065-11.793
			c0.321,0.129,0.635,0.267,0.96,0.392c5.244,2.029,10.853,2.602,16.277,3.156c6.483,0.663,12.606,1.288,16.085,4.313
			c2.019,1.756,3.37,5.523,4.799,9.511c1.218,3.396,2.477,6.907,4.451,10.202c0.671,1.121,1.608,1.981,2.681,2.559
			c1.826,3.55,5.445,5.792,9.526,7.898c2.916,1.506,5.636,3.304,8.508,4.913c2.083,1.167,3.795,2.794,5.603,4.319
			c1.263,2.385,3.483,3.967,5.986,5.373c-0.097-0.243-0.193-0.485-0.289-0.728c0.246,0.415,0.517,0.804,0.808,1.173
			c-1.365,0.378-2.714,0.805-4.037,1.268c-1.982,0.693-4.121,1.533-6.234,2.537c-1.071-0.953-2.559-1.595-3.859-1.465
			c-6.417,0.645-11.248,3.577-15.986,7.138c-0.37,0.037-0.74,0.07-1.11,0.116c-0.344-0.225-0.732-0.411-1.185-0.531
			c-7.244-1.929-22.174-4.548-24.209,5.583c-0.402,2.005,2.004,3.716,3.578,2.083c1.216-1.262,5.467-1.643,7.111-1.775
			c2.797-0.225,5.549,0.1,8.129,1.059c0.183,1.213,0.582,2.369,1.238,3.546c1.218,2.187,4.218,2.952,6.351,1.666
			c1.821-1.099,3.596-2.265,5.393-3.394c0.768,0.721,1.725,1.276,2.877,1.578c0.814,0.566,1.899,0.827,2.939,0.687
			c6.413-0.865,11.849-5.773,17.932-8.07c3.431-1.295,7.112-2.083,10.744-2.549c0.374-0.048,0.749-0.081,1.124-0.107
			c-12.173,8.164-22.339,18.528-32.19,28.58c-13.155,13.422-25.58,26.1-41.92,33.159c-10.575,4.568-19.265,5.739-30.266,7.222
			c-2.207,0.297-4.475,0.603-6.831,0.947c-8.682,1.266-16.513,4.758-23.716,9.204c-4.043-2.876-8.393-5.327-12.246-8.446
			c-4.633-3.75-9.334-7.417-14.161-10.917c-0.102-0.074-0.207-0.143-0.309-0.216c-0.167-5.229-2.282-11.219-3.803-14.659
			c-4.008-9.063-9.308-16.622-17.198-22.74c-0.995-0.771-2.394,0.502-1.426,1.425c6.28,5.984,11.081,13.473,14.19,21.563
			c1.224,3.183,1.851,6.829,2.177,10.3c-2.948-1.889-5.964-3.67-9.068-5.297c-4.729-2.478-9.9-3.953-14.612-6.438
			c-3.02-1.593-5.32-4.465-7.697-6.841c-3.864-3.862-8.326-7.542-12.887-10.549c-4.211-2.776-9.449-4.274-14.469-3.564
			c-5.746,0.813-11.482,4.984-17.341,4.011c-1.955-0.324-3.914,2.052-2.121,3.643c3.478,3.088,7.371,3.54,11.858,2.776
			c6.158-1.048,10.414-3.416,16.453-0.176c8.003,4.292,13.078,12.439,20.308,17.699c3.384,2.462,7.711,3.697,11.5,5.362
			c5.486,2.411,10.611,5.618,15.557,8.976c5.194,3.526,10.101,7.456,14.958,11.426c3.65,2.982,6.781,6.501,10.184,9.73
			c-3.526,2.697-6.909,5.487-10.173,8.185l-0.88,0.727c-5.458,4.508-10.193,9.69-14.772,14.701
			c-5.578,6.104-10.892,11.911-17.05,16.083c-1.861-0.145-3.798,0.653-4.746,2.43c-0.078,0.145-0.143,0.294-0.213,0.442
			c-7.192,3.448-14.782,4.048-22.782,4.673c-3.525,0.275-7.12,0.565-10.784,1.087c-1.011-1.57-2.735-2.643-5.158-2.559
			c-5.46,0.189-10.16,2.957-13.706,7.065c-2.715,3.145-6.55,7.842-6.47,12.275c-2.946,5.825-7.824,10.784-8.565,17.556
			c-0.19,1.735,2.358,2.713,3.454,1.431c2.034-2.379,3.41-5.204,5.071-7.845c0.833-1.325,1.752-2.592,2.669-3.859
			c0.726-0.948,1.46-1.889,2.204-2.822c0.908-0.003,1.754-0.231,2.538-0.687c2.818-1.697,6.062-3.391,9.134-5.302
			c0.615,0.176,1.252,0.286,1.906,0.286c0.621,0,1.251-0.083,1.879-0.258c5.452-1.515,11.021-1.95,16.918-2.411
			c6.923-0.541,14.014-1.103,21.249-3.42c0.503,3.763,1.288,7.482,2.433,11.104c1.557,4.928,4.401,9.515,7.936,13.448
			c-13.938,2.52-26.488,9.012-33.133,22.732c-2,4.13-3.334,8.583-4.141,13.09c-0.844,4.709-2.546,8.572-4.788,12.798
			c-2.142,4.037-10.451,16.258-4.031,19.956c0.703,0.405,1.539,0.144,1.967-0.516c1.367-2.108,2.092-4.603,3.317-6.838
			c2.073-3.782,4.254-7.485,6.427-11.211c1.803-3.09,3.491-6.245,4.773-9.588c1.517-3.956,1.859-8.263,3.531-12.214
			c6.369-15.057,21.563-19.683,36.71-20.339c4.644-0.201,6.011-5.912,2.289-8.451c-6.663-4.545-9.056-10.869-10.894-18.402
			c-0.851-3.487-1.101-7.042-1.396-10.605c8.593-5.25,15.294-12.579,21.788-19.684c4.45-4.87,8.652-9.469,13.354-13.352l0.883-0.73
			c11.542-9.54,23.476-19.404,37.143-21.397c2.304-0.336,4.522-0.635,6.68-0.926c7.31-0.985,14.356-1.942,21.835-3.995
			c-6.014,14.889-5.201,31.254-4.836,38.498c0.353,7.007,1.093,13.998,1.808,20.759c0.417,3.94,0.848,8.014,1.191,11.994
			c1.414,16.433,1.345,32.625-0.203,48.128c-0.63,6.312-1.535,12.4-2.71,18.251c-1.134,0.497-2.135,1.472-2.745,3.049
			c-4.782,12.374-8.142,25.252-13.726,37.321c-2.684,5.801-5.875,11.365-8.195,17.331c-2.141,5.507-2.21,10.235-1.237,15.944
			c0.17,0.997,1.727,0.933,1.943,0c2.48-10.684,9.063-20.447,14.109-30.21c0.419,0.352,0.88,0.665,1.392,0.918
			c0.999,0.495,2.058,0.729,3.102,0.729c2.577,0,5.057-1.429,6.278-3.895c7.833-15.814,12.992-34.233,15.362-54.781
			c10.822-1.267,20.06-12.371,26.652-20.163c2.316-2.737,2.67-6.273,0.525-9.104c12.791,5.417,21.587,19.122,27.428,31.141
			c8.502,17.495,16.082,35.332,23.623,53.25c0.283,0.672,1.394,0.391,1.115-0.308c-7.679-19.266-9.838-40.292-18.606-59.259
			c-8.667-18.747-20.706-37.466-42.951-40.053c-4.519-0.525-6.9,4.495-6.234,8.185c0.682,3.777,0.979,6.947,2.007,10.014
			c-2.44,2.571-4.939,5.075-7.623,7.418c-1.541,1.346-3.123,2.524-4.676,3.696c0.671-12.665,0.448-25.667-0.682-38.803
			c-0.354-4.117-0.793-8.261-1.217-12.268c-0.696-6.572-1.415-13.368-1.748-19.99c-1.322-26.269,4.458-41.8,18.192-48.878
			c1.702-0.877,2.889-2.355,3.442-4.041c10.192-7.489,19.043-16.505,27.699-25.336c8.167-8.333,15.988-16.303,24.727-22.978
			c2.528,7.522,11.224,16.241,18.82,12.12c5.206,1.777,11.036,3.45,16.383,3.886c1.588,0.13,3.257-0.976,4.022-2.307
			c0.07-0.123,0.133-0.245,0.193-0.367c2.019,0.77,3.956,1.792,5.898,2.778c1.69,1.387,3.301,2.875,5.099,4.378
			c3.305,2.763,10.969,7.256,16.469,6.658c1.345,0.572,2.7,1.164,4.075,1.764c0.006,0.003,0.013,0.006,0.02,0.008
			c5.95,4.14,13.643,6.087,20.525,7.779c11.08,2.724,21.447,7.953,32.004,12.344c0.607,0.674,1.183,1.356,1.718,1.968
			c1.36,1.558,2.325,4.589,3.414,6.451c2.013,3.44,3.289,7.246,4.416,11.054c4.661,15.752,0.169,31.52-4.261,46.74
			c-1.438,5.617,6.905,7.871,8.637,2.381c0.073-0.232,0.146-0.464,0.219-0.697c2.292-5.937,14.604-4.142,19.249-3.626
			c8.108,0.899,17.091,2.979,24.313,6.894c14.244,7.719-2.521,37.499,19.9,37.614c3.082,0.016,3.038-4.585,0-4.75
			c-5.21-0.282-6.626-2.987-7.125-7.769c-0.503-4.822-0.012-9.713-0.344-14.55c-0.669-9.745-5.05-16.175-13.988-19.825
			c-9.478-3.87-19.849-6.25-30.089-6.597c-2.706-0.092-5.634,0.082-8.429,0.673c3.68-14.001,5.541-28.095,1.519-42.616
			c-0.335-1.207-0.723-2.402-1.131-3.592c4.411,2.415,9.041,4.252,14.547,4.187c6.254-0.074,12.531-2.448,18.203-4.872
			c1.88-0.804,3.542-1.569,5.241-2.178c2.08-0.252,4.217-0.361,6.402-0.295c4.306,0.133,8.533,0.884,12.689,2.065
			c4.064,2.22,7.769,5.298,13.033,8.049c3.983,2.082,8.133,3.312,12.368,3.948c2.457,1.511,4.888,3.065,7.285,4.627
			c1.191,0.776,2.383,1.563,3.576,2.352c6.411,4.235,13.039,8.615,20.409,11.854c2.279,1.002,4.582,1.871,6.887,2.662
			c3.478,3.378,6.868,6.843,9.993,10.553c7.357,8.736,13.537,18.407,21,27.079c3.845,4.467,7.46,9.115,11.406,13.498
			c3.836,4.26,7.885,8.307,11.19,13.01c3.261,4.64,6.699,10.011,8.488,15.396c1.221,3.676,3.473,6.77,6.949,8.146
			c-1.128,3.002-1.552,5.877-0.872,9.313c0.919,4.644,5.664,9.716,8.189,13.607c0.485,0.748,1.677,0.064,1.201-0.702
			c-4.34-6.988-9.484-14.741-3.752-22.568c0.422-0.577,0.382-1.579,0-2.161c-3.092-4.703-3.421-8.577-4.431-13.985
			c-1.127-6.034-4.471-11.751-7.936-16.718c-6.971-9.992-15.686-18.129-21.652-28.868c-2.953-5.314-6.064-10.501-9.42-15.524
			c24.117,10.178,48.579,27.47,72.877,51.556c3.447,3.416,6.583,7.096,9.903,10.991c1.622,1.904,3.3,3.873,5.016,5.805
			c5.692,6.414,11.958,12.923,20.416,15.875c5.091,1.777,10.126,1.735,14.565,1.693c3.563-0.032,6.935-0.061,9.735,0.86
			c4.401,1.446,8.52,4.244,11.908,8.091c7.392,8.391,11.207,20.048,14.927,31.414c2.364,7.224,4.741,14.293,7.82,21.347
			c1.236,2.832,2.535,5.656,3.791,8.388c2.617,5.692,5.089,11.069,7.119,16.662c1.033,2.845,3.72,4.613,6.581,4.613
			c0.793,0,1.6-0.136,2.388-0.422C886.091,760.378,887.968,756.363,886.648,752.729z"/>
		<path d="M421.667,474.167c0.645,0,0.645-1,0-1S421.022,474.167,421.667,474.167z"/>
	</g>
</g>
<g id="Base">
</g>
</svg>
