<?xml version="1.0" encoding="utf-8"?>
<!-- Generator: Adobe Illustrator 16.0.0, SVG Export Plug-In . SVG Version: 6.00 Build 0)  -->
<!DOCTYPE svg PUBLIC "-//W3C//DTD SVG 1.1//EN" "http://www.w3.org/Graphics/SVG/1.1/DTD/svg11.dtd">
<svg version="1.1" id="Layer_1" xmlns="http://www.w3.org/2000/svg" xmlns:xlink="http://www.w3.org/1999/xlink" x="0px" y="0px"
	 width="1024px" height="1024px" viewBox="0 0 1024 1024" enable-background="new 0 0 1024 1024" xml:space="preserve">
<g>
	
		<linearGradient id="SVGID_1_" gradientUnits="userSpaceOnUse" x1="-301.9646" y1="328.8005" x2="468.3655" y2="328.8005" gradientTransform="matrix(1 0 0 1 428.7998 183.1992)">
		<stop  offset="0" style="stop-color:#4F1110"/>
		<stop  offset="0.168" style="stop-color:#611A19"/>
		<stop  offset="0.372" style="stop-color:#742121"/>
		<stop  offset="0.4854" style="stop-color:#7B2424"/>
		<stop  offset="0.759" style="stop-color:#7C1D1D"/>
		<stop  offset="1" style="stop-color:#7D1416"/>
	</linearGradient>
	<path fill="url(#SVGID_1_)" stroke="#000000" stroke-width="6.35" stroke-miterlimit="10" d="M876.624,255.222H147.381
		c-11.345,0-20.546,9.199-20.546,20.545v472.467c0,11.346,9.201,20.543,20.546,20.543h729.243c11.345,0,20.541-9.197,20.541-20.543
		V275.767C897.165,264.424,887.969,255.222,876.624,255.222z M863.574,732.562c0,10.486-8.501,18.985-18.983,18.985H170.624
		c-10.483,0-18.987-8.499-18.987-18.985V295.909c0-10.484,8.504-18.987,18.987-18.987h673.967c10.482,0,18.984,8.503,18.984,18.987
		L863.574,732.562L863.574,732.562z"/>
	
		<linearGradient id="SVGID_2_" gradientUnits="userSpaceOnUse" x1="-301.9636" y1="331.0354" x2="468.3665" y2="331.0354" gradientTransform="matrix(1 0 0 1 428.7998 183.1992)">
		<stop  offset="0" style="stop-color:#4F1110"/>
		<stop  offset="0.168" style="stop-color:#611A19"/>
		<stop  offset="0.372" style="stop-color:#742121"/>
		<stop  offset="0.4854" style="stop-color:#7B2424"/>
		<stop  offset="0.759" style="stop-color:#7C1D1D"/>
		<stop  offset="1" style="stop-color:#7D1416"/>
	</linearGradient>
	<path fill="url(#SVGID_2_)" stroke="#000000" stroke-width="6.35" stroke-miterlimit="10" d="M844.591,276.922H170.624
		c-10.483,0-18.987,8.502-18.987,18.987v436.653c0,10.486,8.504,18.985,18.987,18.985h673.967c10.482,0,18.984-8.499,18.984-18.985
		V295.909C863.574,285.425,855.073,276.922,844.591,276.922z"/>
	
		<linearGradient id="SVGID_3_" gradientUnits="userSpaceOnUse" x1="-277.1628" y1="331.0354" x2="434.7756" y2="331.0354" gradientTransform="matrix(1 0 0 1 428.7998 183.1992)">
		<stop  offset="0" style="stop-color:#7D1416"/>
		<stop  offset="0.241" style="stop-color:#7C1D1D"/>
		<stop  offset="0.5146" style="stop-color:#7B2424"/>
		<stop  offset="0.628" style="stop-color:#742121"/>
		<stop  offset="0.832" style="stop-color:#611A19"/>
		<stop  offset="1" style="stop-color:#4F1110"/>
	</linearGradient>
	<path fill="url(#SVGID_3_)" stroke="#000000" stroke-width="6.35" stroke-miterlimit="10" d="M844.591,276.922H170.624
		c-10.483,0-18.987,8.502-18.987,18.987v436.653c0,10.486,8.504,18.985,18.987,18.985h673.967c10.482,0,18.984-8.499,18.984-18.985
		V295.909C863.574,285.425,855.073,276.922,844.591,276.922z"/>
</g>
</svg>
