<?xml version="1.0" encoding="utf-8"?>
<!-- Generator: Adobe Illustrator 16.0.0, SVG Export Plug-In . SVG Version: 6.00 Build 0)  -->
<!DOCTYPE svg PUBLIC "-//W3C//DTD SVG 1.1//EN" "http://www.w3.org/Graphics/SVG/1.1/DTD/svg11.dtd">
<svg version="1.1" id="Layer_1" xmlns="http://www.w3.org/2000/svg" xmlns:xlink="http://www.w3.org/1999/xlink" x="0px" y="0px"
	 width="260.9px" height="197.771px" viewBox="0 0 260.9 197.771" enable-background="new 0 0 260.9 197.771" xml:space="preserve">
<g>
	
		<linearGradient id="SVGID_1_" gradientUnits="userSpaceOnUse" x1="138.708" y1="-146.4912" x2="95.8963" y2="54.6956" gradientTransform="matrix(1 0 0 -1 -78.5 45.2695)">
		<stop  offset="0" style="stop-color:#919191"/>
		<stop  offset="0.7029" style="stop-color:#FFFFFF"/>
		<stop  offset="1" style="stop-color:#010101"/>
	</linearGradient>
	
		<path fill="url(#SVGID_1_)" stroke="#010101" stroke-width="1.08" stroke-linecap="round" stroke-linejoin="round" stroke-miterlimit="10" d="
		M70.09,0H10.8C4.83,0,0,4.84,0,10.8v176.17c0,5.972,4.83,10.801,10.8,10.801h59.29c5.96,0,10.8-4.829,10.8-10.801V10.8
		C80.89,4.84,76.05,0,70.09,0z M70.09,176.17c0,5.971-4.83,10.8-10.8,10.8H21.6c-5.97,0-10.8-4.829-10.8-10.8V21.6
		c0-5.96,4.83-10.8,10.8-10.8h37.69c5.97,0,10.8,4.84,10.8,10.8V176.17z"/>
	
		<linearGradient id="SVGID_2_" gradientUnits="userSpaceOnUse" x1="228.707" y1="-146.4912" x2="185.8957" y2="54.6937" gradientTransform="matrix(1 0 0 -1 -78.5 45.2695)">
		<stop  offset="0" style="stop-color:#919191"/>
		<stop  offset="0.7029" style="stop-color:#FFFFFF"/>
		<stop  offset="1" style="stop-color:#010101"/>
	</linearGradient>
	
		<path fill="url(#SVGID_2_)" stroke="#010101" stroke-width="1.08" stroke-linecap="round" stroke-linejoin="round" stroke-miterlimit="10" d="
		M160.09,0H100.8C94.829,0,90,4.84,90,10.8v176.17c0,5.972,4.829,10.801,10.8,10.801h59.29c5.961,0,10.801-4.829,10.801-10.801V10.8
		C170.891,4.84,166.051,0,160.09,0z M160.09,176.17c0,5.971-4.829,10.8-10.8,10.8H111.6c-5.97,0-10.8-4.829-10.8-10.8V21.6
		c0-5.96,4.83-10.8,10.8-10.8h37.69c5.971,0,10.8,4.84,10.8,10.8V176.17z"/>
	
		<linearGradient id="SVGID_3_" gradientUnits="userSpaceOnUse" x1="318.7178" y1="-146.4927" x2="275.9059" y2="54.6942" gradientTransform="matrix(1 0 0 -1 -78.5 45.2695)">
		<stop  offset="0" style="stop-color:#919191"/>
		<stop  offset="0.7029" style="stop-color:#FFFFFF"/>
		<stop  offset="1" style="stop-color:#010101"/>
	</linearGradient>
	
		<path fill="url(#SVGID_3_)" stroke="#010101" stroke-width="1.08" stroke-linecap="round" stroke-linejoin="round" stroke-miterlimit="10" d="
		M250.101,0h-59.29c-5.971,0-10.8,4.84-10.8,10.8v176.17c0,5.972,4.829,10.801,10.8,10.801h59.29c5.96,0,10.8-4.829,10.8-10.801
		V10.8C260.899,4.84,256.06,0,250.101,0z M250.101,176.17c0,5.971-4.83,10.8-10.8,10.8h-37.689c-5.971,0-10.801-4.829-10.801-10.8
		V21.6c0-5.96,4.83-10.8,10.801-10.8h37.689c5.97,0,10.8,4.84,10.8,10.8V176.17z"/>
</g>
</svg>
