<?xml version="1.0" encoding="utf-8"?>
<!-- Generator: Adobe Illustrator 16.0.0, SVG Export Plug-In . SVG Version: 6.00 Build 0)  -->
<!DOCTYPE svg PUBLIC "-//W3C//DTD SVG 1.1//EN" "http://www.w3.org/Graphics/SVG/1.1/DTD/svg11.dtd">
<svg version="1.1" id="Layer_1" xmlns="http://www.w3.org/2000/svg" xmlns:xlink="http://www.w3.org/1999/xlink" x="0px" y="0px"
	 width="260.9px" height="197.771px" viewBox="0 0 260.9 197.771" enable-background="new 0 0 260.9 197.771" xml:space="preserve">
<g>
	
		<linearGradient id="SVGID_1_" gradientUnits="userSpaceOnUse" x1="-75.6917" y1="1079.3904" x2="-118.5031" y2="878.2045" gradientTransform="matrix(1 0 0 1 135.8999 -887.6309)">
		<stop  offset="0" style="stop-color:#919191"/>
		<stop  offset="0.7029" style="stop-color:#FFFFFF"/>
		<stop  offset="1" style="stop-color:#010101"/>
	</linearGradient>
	
		<path fill="url(#SVGID_1_)" stroke="#010101" stroke-width="1.08" stroke-linecap="round" stroke-linejoin="round" stroke-miterlimit="10" d="
		M70.09,0H10.8C4.83,0,0,4.84,0,10.8V186.97c0,5.972,4.83,10.801,10.8,10.801h59.29c5.96,0,10.801-4.829,10.801-10.801V10.8
		C80.89,4.84,76.05,0,70.09,0z M70.09,176.17c0,5.972-4.829,10.801-10.8,10.801H21.6c-5.971,0-10.801-4.829-10.801-10.801V21.6
		C10.8,15.64,15.63,10.8,21.6,10.8H59.29c5.971,0,10.8,4.841,10.8,10.801V176.17z"/>
	
		<linearGradient id="SVGID_2_" gradientUnits="userSpaceOnUse" x1="14.3093" y1="1079.3914" x2="-28.502" y2="878.2065" gradientTransform="matrix(1 0 0 1 135.8999 -887.6309)">
		<stop  offset="0" style="stop-color:#919191"/>
		<stop  offset="0.7029" style="stop-color:#FFFFFF"/>
		<stop  offset="1" style="stop-color:#010101"/>
	</linearGradient>
	
		<path fill="url(#SVGID_2_)" stroke="#010101" stroke-width="1.08" stroke-linecap="round" stroke-linejoin="round" stroke-miterlimit="10" d="
		M160.09,0H100.8C94.829,0,90,4.84,90,10.8V186.97c0,5.972,4.829,10.801,10.8,10.801h59.29c5.961,0,10.803-4.829,10.803-10.801V10.8
		C170.892,4.84,166.051,0,160.09,0z M160.09,176.17c0,5.972-4.828,10.801-10.799,10.801H111.6c-5.971,0-10.801-4.829-10.801-10.801
		V21.6c0-5.96,4.83-10.801,10.801-10.801h37.69c5.971,0,10.799,4.841,10.799,10.801V176.17z"/>
	
		<linearGradient id="SVGID_3_" gradientUnits="userSpaceOnUse" x1="104.3186" y1="1079.3933" x2="61.5065" y2="878.2054" gradientTransform="matrix(1 0 0 1 135.8999 -887.6309)">
		<stop  offset="0" style="stop-color:#919191"/>
		<stop  offset="0.7029" style="stop-color:#FFFFFF"/>
		<stop  offset="1" style="stop-color:#010101"/>
	</linearGradient>
	
		<path fill="url(#SVGID_3_)" stroke="#010101" stroke-width="1.08" stroke-linecap="round" stroke-linejoin="round" stroke-miterlimit="10" d="
		M250.099,0H190.81c-5.973,0-10.801,4.84-10.801,10.8V186.97c0,5.972,4.828,10.801,10.801,10.801h59.289
		c5.961,0,10.801-4.829,10.801-10.801V10.8C260.898,4.84,256.058,0,250.099,0z M250.099,176.17c0,5.972-4.83,10.801-10.801,10.801
		h-37.688c-5.971,0-10.801-4.829-10.801-10.801V21.6c0-5.96,4.83-10.801,10.801-10.801h37.688c5.971,0,10.801,4.841,10.801,10.801
		V176.17z"/>
</g>
</svg>
