<?xml version="1.0" encoding="utf-8"?>
<!-- Generator: Adobe Illustrator 16.0.0, SVG Export Plug-In . SVG Version: 6.00 Build 0)  -->
<!DOCTYPE svg PUBLIC "-//W3C//DTD SVG 1.1//EN" "http://www.w3.org/Graphics/SVG/1.1/DTD/svg11.dtd">
<svg version="1.1" id="Layer_1" xmlns="http://www.w3.org/2000/svg" xmlns:xlink="http://www.w3.org/1999/xlink" x="0px" y="0px"
	 width="476.441px" height="144.004px" viewBox="0 0 476.441 144.004" enable-background="new 0 0 476.441 144.004"
	 xml:space="preserve">
<g id="Payout_Face">
	
		<rect fill="#231F20" stroke="#010101" stroke-width="1.35" stroke-linecap="round" stroke-linejoin="round" stroke-miterlimit="10" width="476.441" height="144.004"/>
	
		<path fill="#DCDBDB" stroke="#7D194F" stroke-width="1.485" stroke-linecap="round" stroke-linejoin="round" stroke-miterlimit="10" d="
		M27.486,55.566h141.209c-2.159,2.697-7.694,6.346-11.205,6.346v74.681h-143.1V68.688C21.626,68.688,27.486,62.828,27.486,55.566z"
		/>
	
		<path fill="#DCDBDB" stroke="#7D194F" stroke-width="1.485" stroke-linecap="round" stroke-linejoin="round" stroke-miterlimit="10" d="
		M463.291,68.688v67.901H320.193V61.91c-3.511,0-9.259-3.854-11.205-6.346h141.209C450.197,62.828,456.058,68.688,463.291,68.688z"
		/>
	
		<path fill="#DCDBDB" stroke="#7D194F" stroke-width="1.485" stroke-linecap="round" stroke-linejoin="round" stroke-miterlimit="10" d="
		M320.193,61.911v74.681H157.489V61.911c3.511,0,6.695-1.378,9.046-3.646c2.513-2.377,4.052-5.725,4.052-9.447h136.512
		c0,3.726,1.538,7.07,4.05,9.447C313.496,60.533,316.684,61.911,320.193,61.911z"/>
	<g>
		
			<line fill="none" stroke="#7D194F" stroke-width="1.215" stroke-linecap="round" stroke-linejoin="round" stroke-miterlimit="10" x1="23.467" y1="85.489" x2="150.191" y2="85.489"/>
		
			<line fill="none" stroke="#7D194F" stroke-width="1.215" stroke-linecap="round" stroke-linejoin="round" stroke-miterlimit="10" x1="174.859" y1="96.078" x2="301.582" y2="96.078"/>
		
			<line fill="none" stroke="#7D194F" stroke-width="1.215" stroke-linecap="round" stroke-linejoin="round" stroke-miterlimit="10" x1="23.674" y1="112.039" x2="150.399" y2="112.039"/>
		
			<line fill="none" stroke="#7D194F" stroke-width="1.215" stroke-linecap="round" stroke-linejoin="round" stroke-miterlimit="10" x1="452.976" y1="85.489" x2="326.25" y2="85.489"/>
		
			<line fill="none" stroke="#7D194F" stroke-width="1.215" stroke-linecap="round" stroke-linejoin="round" stroke-miterlimit="10" x1="453.328" y1="111.928" x2="326.604" y2="111.928"/>
	</g>
	<g id="Play_To_Win_x21__1_">
		<g>
			<g>
				<path fill="#FEF8CB" d="M200.972,5.695c-1.015-0.951-2.324-1.455-3.859-1.455c-0.001,0-0.004,0-0.004,0
					c-4.236,0.139-8.476,0.299-12.725,0.479c-0.303,0.017-0.603,0.056-0.896,0.117c-0.241-0.025-0.512-0.043-0.832-0.043
					c-0.013,0-0.021,0-0.035,0c-5.107,0.23-10.219,0.488-15.325,0.776c-1.331,0.076-2.527,0.645-3.424,1.528
					c-0.955-0.732-2.129-1.106-3.604-1.106c-0.008,0-0.014,0-0.021,0c-6.488,0.403-12.979,0.861-19.463,1.365
					c-1.418,0.108-2.76,0.796-3.684,1.874c-0.936,1.092-1.39,2.485-1.276,3.927l0.387,4.944c0.146,1.85,1.23,3.446,2.786,4.307
					c-0.092,0.295-0.178,0.529-0.245,0.709c-0.892,0.592-1.586,1.437-1.994,2.424c-0.534-0.174-1.101-0.266-1.669-0.266
					c-0.188,0-0.203,0-4.917,0.404c-0.263-0.341-0.562-0.646-0.896-0.917c-0.025-0.204-0.058-0.491-0.099-0.895
					c0.69-0.289,1.336-0.724,1.876-1.28c1.072-1.11,1.629-2.712,1.484-4.271l-0.438-4.854c-0.252-2.799-2.562-4.907-5.368-4.907
					c-0.076,0-0.381,0.014-0.484,0.021c-5.465,0.492-10.926,1.021-16.383,1.581c-1.438,0.146-2.727,0.846-3.633,1.961
					c-0.082,0.102-0.159,0.205-0.233,0.311c-1.802-0.853-3.452-1.269-5.036-1.269c-0.324,0-0.639,0.018-0.946,0.05
					c-6.242,0.695-12.484,1.438-18.718,2.227c-1.435,0.179-2.709,0.902-3.597,2.05c-0.884,1.139-1.271,2.553-1.085,3.979
					l0.619,4.916c0.194,1.558,1.053,2.945,2.348,3.812c0.573,0.385,1.213,0.651,1.879,0.795c0.047,0.384,0.096,0.772,0.132,1.081
					c-0.866,1.171-1.23,2.652-0.984,4.107c0.218,1.292,0.887,2.441,1.877,3.263c0.063,0.438,0.146,1.003,0.232,1.706
					c-0.659,0.328-1.248,0.797-1.729,1.378c-0.943,1.143-1.381,2.643-1.193,4.112l0.619,4.914c0.182,1.435,0.904,2.707,2.047,3.597
					c0.94,0.729,2.115,1.131,3.307,1.131c0.113,0,0.561-0.029,0.678-0.044c5.114-0.646,10.234-1.26,15.354-1.842
					c1.435-0.157,2.717-0.866,3.612-1.995c0.898-1.132,1.308-2.539,1.144-3.972l-0.561-4.924c-0.037-0.344-0.107-0.683-0.214-1.011
					c0.652-0.237,1.314-0.563,1.991-0.968c-0.14,0.584-0.182,1.188-0.121,1.793l0.509,4.934c0.146,1.412,0.861,2.734,1.965,3.635
					c0.96,0.779,2.169,1.207,3.402,1.207c0.096,0,0.471-0.018,0.555-0.022c7.399-0.769,14.984-1.479,22.537-2.113
					c0.349-0.029,0.689-0.096,1.024-0.205c0.225,0.031,0.451,0.046,0.68,0.046c0.071,0,0.367-0.013,0.44-0.021
					c3.925-0.32,7.846-0.625,11.767-0.911c0.522-0.036,1.029-0.147,1.516-0.329c0.412,0.078,0.863,0.119,1.387,0.119
					c0.019,0,0.034,0,0.052,0c4.821-0.338,9.641-0.648,14.467-0.929c1.438-0.086,2.755-0.725,3.716-1.801
					c0.104-0.121,0.205-0.242,0.301-0.371c0.106,0.115,0.223,0.229,0.339,0.334c0.991,0.898,2.276,1.395,3.616,1.395
					c0.028,0,0.247-0.006,0.274-0.007c5.181-0.271,10.356-0.496,15.539-0.696c1.417-0.056,2.788-0.721,3.762-1.823
					c0.969-1.098,1.472-2.5,1.412-3.949l-0.184-4.777c-0.082-2.15-1.396-3.956-3.251-4.752c0.617-0.348,1.165-0.813,1.609-1.374
					c1.153-1.466,1.472-3.392,0.857-5.168c-0.004-0.146,0.015-0.938,0.892-2.617c0.262-0.49,0.488-0.857,0.678-1.13
					c0.955-0.015,1.896-0.278,2.726-0.773c1.675-1.009,2.672-2.849,2.604-4.8l-0.162-4.955
					C202.626,8.014,202.021,6.678,200.972,5.695z M171.656,32.317c-0.124,0.141-0.243,0.286-0.354,0.436
					c-0.729-0.774-1.697-1.344-2.8-1.6c-0.021-0.053-0.038-0.108-0.061-0.166c-0.609-1.741-0.801-2.527-0.854-2.857
					c0.678-1.592,0.596-3.331-0.246-4.752c-0.582-0.988-1.429-1.746-2.429-2.188c-0.104-0.197-0.387-0.826-0.402-0.868
					c0.038-0.035,0.076-0.07,0.113-0.106c0.196,0.148,0.403,0.285,0.623,0.406c0.802,0.449,1.709,0.685,2.63,0.685
					c0.104,0,0.204-0.003,0.309-0.011c0.015,0.021,0.028,0.04,0.044,0.062c0.995,1.32,1.526,2.537,1.585,3.604
					c0,0.006-0.001,0.029-0.004,0.037c-0.271,2.35,0.992,4.58,3.156,5.553l0.223,0.103c0.074,0.11,0.154,0.232,0.239,0.365
					C172.766,31.319,172.161,31.759,171.656,32.317z"/>
				<path fill="#FEF8CB" d="M276.951,20.065c-0.178-0.615-0.397-1.75-0.494-2.24c-0.932-4.762-2.868-14.67-16.602-14.947
					l-0.373-0.004c-4.666,0-8.41,1.221-11.187,3.639c-0.253-0.489-0.578-0.942-0.972-1.342c-0.998-1.006-2.387-1.588-3.813-1.595
					l-5.282-0.012c-6.168,0-12.333,0.046-18.502,0.136c-1.438,0.021-2.785,0.604-3.787,1.637c-1.003,1.031-1.547,2.396-1.525,3.838
					l0.181,12.188c0.021,1.438,0.601,2.785,1.629,3.785c1.039,1.016,2.39,1.526,4.007,1.526c0.002,0,0.856-0.01,1.622-0.021
					c0.207,0.346,0.455,0.665,0.733,0.954c0.012,0.483,0.017,1.135,0.021,1.738c-2.071,0.772-3.543,2.786-3.52,5.116l0.056,4.956
					c0.032,2.941,2.471,5.337,5.455,5.337c4.511-0.051,9.021-0.074,13.529-0.074h0.954c1.418,0,2.808-0.577,3.813-1.58
					c1.021-1.02,1.581-2.373,1.581-3.813l0.003-2.912c1.907,4.313,5.805,8.713,14.711,8.842l0.489,0.003
					c12.869,0,15.263-9.531,16.435-14.203c0.174-0.688,0.394-1.573,0.537-2.121c1.465-0.958,2.403-2.603,2.45-4.392
					C279.145,22.748,278.334,21.104,276.951,20.065z M242.387,30.154c-0.424-0.344-0.912-0.622-1.438-0.824
					c-0.004-0.586-0.006-1.229-0.006-1.674c0.094-0.094,0.184-0.191,0.271-0.289c0.286,0.344,0.614,0.645,0.975,0.888
					c0.183,0.577,0.414,1.651,0.527,2.188C242.611,30.344,242.501,30.247,242.387,30.154z"/>
				<path fill="#FEF8CB" d="M397.962,25.12c-0.002-0.001-0.094-0.206-0.155-0.782c-0.035-0.287-0.093-1.033-0.08-2.805
					c0-0.318-0.026-0.646-0.077-0.926c-0.861-5.006-4.162-8.328-8.828-8.894c-0.441-0.055-0.875-0.079-1.295-0.079
					c-1.027,0-2.813,0.188-4.675,1.243c-0.813-0.703-1.819-1.145-2.907-1.27c-3.427-0.396-6.855-0.771-10.216-1.121
					c-0.114-0.016-0.526-0.037-0.64-0.037c-0.371,0-0.737,0.037-1.1,0.112c-0.511-0.226-1.056-0.368-1.609-0.428
					c-4.418-0.451-8.838-0.887-13.252-1.292c-0.084-0.009-0.418-0.021-0.502-0.021c-0.342,0-0.682,0.031-1.014,0.096
					c-0.466-0.182-0.951-0.297-1.461-0.346c-5.257-0.469-10.514-0.906-16.158-1.326c-0.312,0-0.625,0.029-0.933,0.086
					c-0.433-0.146-0.871-0.238-1.323-0.271c-3.464-0.262-6.931-0.508-10.748-0.747c-0.336,0-0.675,0.028-1.004,0.094
					c-0.436-0.146-0.88-0.229-1.336-0.258c-0.061-0.003-5.914-0.373-6.189-0.373c-0.326,0-0.649,0.024-0.971,0.088
					c-0.416-0.128-0.845-0.205-1.283-0.232c-4.512-0.258-9.021-0.489-13.781-0.71c-1.35,0-2.641,0.499-3.635,1.407
					c-1.063,0.971-1.688,2.297-1.756,3.737l-0.229,4.938c-0.073,1.479,0.533,2.931,1.714,4.099c0.545,0.534,1.211,0.939,1.97,1.206
					c0.041,0.324,0.082,0.714,0.125,1.171c0.059,0.584,0.088,1.015,0.107,1.35c-0.702,0.931-1.098,2.082-1.102,3.248
					c-0.002,1.538,0.662,3.009,1.803,4.034c0.041,0.129,0.088,0.31,0.136,0.551c0.084,0.448,0.153,1.06,0.233,1.79
					c0.088,0.916,0.188,2.035,0.287,3.229c0.168,3.027,0.42,5.125,0.793,6.604c0.582,2.313,2.57,3.947,4.942,4.07
					c7.739,0.426,7.739,0.426,7.804,0.426c0.717,0,1.412-0.137,2.059-0.402c0.701,0.396,1.488,0.627,2.3,0.676
					c7.698,0.502,7.698,0.502,7.774,0.502c2.031,0,3.871-1.153,4.785-2.908c0.221,0.632,0.559,1.224,1.006,1.747
					c0.937,1.092,2.242,1.756,3.683,1.865c5.088,0.396,10.172,0.815,15.336,1.278l0.401,0.016c0.326,0,0.65-0.028,0.969-0.09
					c0.457,0.174,0.938,0.285,1.416,0.328c3.423,0.316,6.841,0.648,10.281,0.993c0.084,0.007,0.414,0.023,0.5,0.023
					c0.353,0,0.699-0.035,1.043-0.104c0.49,0.205,1.013,0.34,1.541,0.396c3.099,0.314,6.193,0.647,9.349,1.002
					c0.079,0.007,0.452,0.022,0.538,0.022c1.561,0,2.979-0.664,3.969-1.74c0.146,0.281,0.325,0.553,0.525,0.81
					c0.895,1.132,2.172,1.848,3.602,2.016l6.26,0.76c0.108,0.018,0.561,0.041,0.668,0.041c2.715,0,5.018-2.03,5.354-4.729
					l0.97-7.822c0.043-0.35,0.051-0.703,0.023-1.051c0.136-0.403,0.218-0.819,0.252-1.242c0.466-5.595,1.857-6.646,1.859-6.646
					c1.229-0.732,2.135-1.945,2.479-3.327C398.906,27.795,398.68,26.293,397.962,25.12z M330.564,32.738
					c-0.466,0.133-0.914,0.326-1.337,0.58c0.063-0.227,0.116-0.432,0.171-0.607c0.152-0.518,0.305-0.889,0.418-1.104
					c0.268-0.24,0.514-0.506,0.729-0.791c0.049,0.063,0.097,0.13,0.146,0.19C330.669,31.363,330.632,31.906,330.564,32.738z"/>
			</g>
			<g>
				<path fill="#BA7D2B" d="M199.74,7.006c-0.665-0.624-1.533-0.969-2.563-0.969c-0.002,0-0.007,0-0.011,0
					c-4.229,0.139-8.464,0.298-12.694,0.479c-0.303,0.016-0.604,0.063-0.891,0.151c-0.26-0.049-0.545-0.076-0.854-0.076
					c-0.009,0-0.019,0-0.023,0c-5.104,0.229-10.205,0.486-15.305,0.775c-1.84,0.104-3.226,1.598-3.33,3.395
					c-0.14-0.796-0.488-1.532-1.105-2.085c-0.647-0.568-1.482-0.89-2.563-0.89c-0.014,0-0.023,0-0.038,0
					c-6.48,0.403-12.961,0.86-19.437,1.364c-0.945,0.075-1.843,0.525-2.457,1.251c-0.623,0.729-0.927,1.658-0.853,2.616l0.388,4.941
					c0.135,1.719,1.49,3.094,3.171,3.291c-0.085,0.351-0.183,0.718-0.29,1.107c-0.3,1.092-0.563,1.702-0.729,2.021
					c-0.912,0.445-1.603,1.266-1.88,2.267c-0.311,1.104-0.071,2.272,0.62,3.166c-0.021,0.219-0.064,0.594-0.17,1.198l-0.054-0.64
					c-0.08-0.96-0.527-1.828-1.264-2.448c-0.646-0.547-1.475-0.85-2.32-0.85c-0.104,0-0.128,0-5.889,0.496
					c-0.28-0.67-0.765-1.254-1.4-1.656c-0.063-0.039-0.143-0.088-0.211-0.334c-0.035-0.147-0.118-0.654-0.26-2.146
					c-0.029-0.361-0.061-0.679-0.079-0.949c0.918-0.025,1.827-0.438,2.513-1.145c0.715-0.742,1.084-1.813,0.988-2.862l-0.438-4.854
					c-0.168-1.866-1.707-3.271-3.577-3.271c-0.056,0-0.271,0.009-0.324,0.014c-5.455,0.49-10.909,1.018-16.355,1.577
					c-0.957,0.1-1.817,0.563-2.424,1.308c-0.398,0.49-0.654,1.063-0.757,1.664c-0.405-0.256-0.837-0.486-1.283-0.688
					c-1.7-0.854-3.215-1.271-4.626-1.271c-0.26,0-0.507,0.013-0.747,0.04c-6.233,0.692-12.471,1.435-18.696,2.219
					c-0.952,0.119-1.803,0.604-2.396,1.367c-0.59,0.76-0.847,1.703-0.725,2.65l0.62,4.918c0.13,1.039,0.703,1.965,1.565,2.54
					c0.592,0.396,1.284,0.606,2.003,0.606c0.157,0,0.314-0.012,0.474-0.03c0.031,0.248,0.347,2.811,0.384,3.142
					c-0.021,0.217-0.06,0.311-0.052,0.311c0,0,0,0,0.002-0.002c-0.831,0.824-1.212,2.003-1.018,3.154
					c0.181,1.063,0.82,1.982,1.744,2.516c0.012,0.023,0.021,0.05,0.028,0.064c0.029,0.129,0.061,0.347,0.104,0.669
					c0.069,0.499,0.168,1.173,0.271,2.026c0.063,0.484,0.106,0.896,0.146,1.239c-0.896,0.118-1.724,0.574-2.298,1.271
					c-0.633,0.763-0.923,1.762-0.798,2.743l0.621,4.919c0.118,0.953,0.604,1.802,1.362,2.394c0.628,0.486,1.41,0.753,2.203,0.753
					c0.076,0,0.377-0.02,0.451-0.024c5.124-0.646,10.25-1.265,15.378-1.848c0.954-0.104,1.811-0.577,2.407-1.328
					c0.602-0.755,0.87-1.691,0.762-2.646l-0.558-4.924c-0.112-1.001-0.63-1.868-1.373-2.443l0.794-0.09
					c1.467-0.162,3.014-0.896,4.729-2.242c1.653-1.306,2.771-2.824,3.33-4.521c0.011-0.025,0.018-0.053,0.024-0.077
					c0.244,0.3,0.537,0.562,0.869,0.771c0.025,0.085,0.063,0.208,0.099,0.375c0.03,0.144,0.126,0.705,0.336,2.739l0.063,0.34
					l0.059,0.583l-0.483,0.049c-0.955,0.103-1.813,0.563-2.425,1.311c-0.598,0.73-0.885,1.695-0.786,2.638l0.506,4.937
					c0.101,0.939,0.573,1.821,1.313,2.425c0.639,0.521,1.443,0.806,2.27,0.806c0.063,0,0.31-0.012,0.368-0.02
					c7.465-0.771,15.062-1.48,22.575-2.113c0.379-0.032,0.716-0.139,1.003-0.273c0.275,0.071,0.563,0.106,0.85,0.106
					c0.048,0,0.246-0.009,0.295-0.013c3.932-0.322,7.855-0.627,11.782-0.913c0.526-0.038,1.03-0.188,1.48-0.438
					c0.428,0.146,0.908,0.229,1.439,0.229c0.011,0,0.022,0,0.032,0c4.828-0.339,9.653-0.649,14.484-0.93
					c0.956-0.058,1.837-0.479,2.479-1.198c0.63-0.708,0.958-1.656,0.903-2.603l-0.287-4.953c-0.11-1.88-1.657-3.354-3.739-3.38
					c-0.126-0.322-0.271-0.722-0.444-1.214c-0.899-2.572-0.962-3.26-0.965-3.281c-0.02-0.313-0.003-0.497-0.026-0.497h-0.004
					c0.641-1.169,0.654-2.478,0.044-3.515c-0.493-0.834-1.23-1.401-2.112-1.631c-0.166-0.257-0.426-0.717-0.765-1.492
					c-0.224-0.506-0.423-1.021-0.603-1.542c0.425-0.185,0.813-0.451,1.146-0.785c0.521-0.534,0.853-1.214,0.969-1.938
					c0.261,0.9,0.854,1.682,1.697,2.15c0.529,0.297,1.138,0.454,1.75,0.454c0.336,0,0.67-0.047,1.002-0.146
					c0.188,0.182,0.454,0.471,0.787,0.912c1.214,1.61,1.868,3.155,1.941,4.595l-0.013,0.339c-0.185,1.566,0.662,3.054,2.102,3.699
					c0.277,0.125,0.515,0.229,0.7,0.315c0.194,0.284,0.424,0.639,0.702,1.066c0.18,0.275,0.308,0.488,0.396,0.643l0.067,1.4
					l-0.094,0.006c-0.96,0.051-1.841,0.469-2.483,1.186c-0.644,0.714-0.971,1.635-0.92,2.593l0.253,4.951
					c0.046,0.942,0.479,1.85,1.182,2.483c0.661,0.602,1.521,0.931,2.41,0.931c0.029,0,0.154-0.006,0.186-0.009
					c5.187-0.266,10.373-0.494,15.562-0.694c1.947-0.074,3.527-1.864,3.449-3.906l-0.187-4.779
					c-0.072-1.938-1.649-3.461-3.593-3.461c-0.008,0-0.142,0.006-0.337,0.017c0-0.911,0.182-1.757,0.539-2.561
					c0.839-0.161,1.596-0.618,2.135-1.306c0.771-0.978,0.979-2.257,0.563-3.43c-0.033-0.102-0.078-0.274-0.09-0.556
					c-0.022-0.604,0.148-1.714,1.102-3.536c0.682-1.271,1.199-1.884,1.466-2.153c0.24,0.052,0.487,0.074,0.735,0.074
					c0.651,0,1.292-0.178,1.856-0.517c1.116-0.673,1.78-1.898,1.736-3.2l-0.164-4.955C200.846,8.555,200.444,7.664,199.74,7.006z"/>
				<path fill="#BA7D2B" d="M275.486,21.25c-0.289-0.495-0.603-2.1-0.793-3.079c-0.906-4.629-2.591-13.248-14.853-13.497
					l-0.356-0.003c-6.861,0-10.416,2.813-12.396,6.063l0.008-1.748c0.002-0.948-0.377-1.874-1.041-2.545
					c-0.668-0.672-1.592-1.062-2.543-1.064l-5.278-0.011c-6.158,0-12.313,0.046-18.475,0.136c-0.959,0.017-1.856,0.402-2.525,1.092
					c-0.672,0.688-1.03,1.6-1.018,2.561l0.179,12.188c0.014,0.962,0.403,1.858,1.09,2.525c0.67,0.655,1.559,1.019,2.748,1.019
					c0.006,0,2.78-0.037,2.78-0.037c0.215,0.771,0.685,1.456,1.333,1.912c0.048,0.438,0.059,2.097,0.063,2.863l0.008,1.192
					c-1.97,0.033-3.551,1.662-3.527,3.638l0.058,4.957c0.021,1.959,1.636,3.557,3.637,3.557c4.519-0.051,9.033-0.075,13.551-0.075
					h0.955c0.943,0,1.869-0.384,2.542-1.055c0.682-0.68,1.055-1.582,1.055-2.542l0.005-4.959c0-1.03-0.523-2.045-1.435-2.781
					c-0.563-0.458-1.313-0.735-2.095-0.785c-0.002-0.338-0.017-3.646-0.008-3.813c0.008-0.053,0.017-0.104,0.022-0.15
					c0.717-0.489,1.245-1.233,1.461-2.104l1.213,0.004c0.238,1.041,0.91,1.923,1.733,2.28c0.316,0.39,0.681,2.066,0.916,3.182
					c0.979,4.576,2.808,13.091,14.712,13.263c0,0,0.469,0.005,0.475,0.005c11.466,0,13.548-8.299,14.666-12.758
					c0.277-1.102,0.695-2.765,0.806-2.999c1.271-0.558,2.117-1.813,2.153-3.206C277.338,23.141,276.629,21.901,275.486,21.25z"/>
				<path fill="#BA7D2B" d="M396.398,26.008c-0.1-0.164-0.279-0.565-0.378-1.453c-0.049-0.396-0.104-1.241-0.095-3.021
					c0-0.211-0.018-0.424-0.053-0.621c-0.729-4.24-3.379-6.941-7.271-7.41c-0.368-0.045-0.729-0.063-1.079-0.063
					c-1.268,0-3.232,0.331-5.064,1.911c-0.104-0.207-0.17-0.435-0.315-0.617c-0.603-0.752-1.454-1.228-2.405-1.332
					c-3.42-0.396-6.847-0.769-10.238-1.123c-0.072-0.011-0.338-0.023-0.41-0.023c-0.448,0-0.891,0.084-1.297,0.242
					c-0.471-0.306-1.016-0.505-1.596-0.563c-4.412-0.454-8.826-0.887-13.234-1.29c-0.059-0.009-0.278-0.019-0.336-0.019
					c-0.408,0-0.813,0.07-1.192,0.205c-0.438-0.256-0.927-0.414-1.438-0.462c-5.25-0.469-10.496-0.905-16-1.319
					c-0.359,0-0.719,0.062-1.07,0.175c-0.409-0.203-0.855-0.329-1.316-0.364c-3.457-0.258-6.916-0.505-10.613-0.743
					c-0.39,0-0.771,0.063-1.129,0.181c-0.412-0.193-0.861-0.313-1.326-0.347c-0.428-0.028-5.906-0.371-6.074-0.371
					c-0.37,0-0.732,0.057-1.079,0.167c-0.397-0.179-0.826-0.286-1.276-0.313c-4.502-0.259-9.007-0.49-13.679-0.707
					c-0.899,0-1.763,0.335-2.425,0.938c-0.711,0.647-1.125,1.532-1.17,2.493l-0.229,4.947c-0.047,0.956,0.373,1.924,1.185,2.726
					c0.547,0.542,1.33,0.901,2.299,1.007c0.086,0.457,0.203,1.228,0.318,2.47c0.139,1.395,0.131,1.975,0.137,2.021
					c-0.01,0.048-0.03,0.117-0.086,0.247c-0.649,0.667-1.026,1.575-1.033,2.513c-0.002,1.157,0.563,2.249,1.507,2.936
					c0.075,0.146,0.248,0.534,0.401,1.323c0.088,0.48,0.166,1.138,0.254,1.938c0.093,0.923,0.193,2.054,0.295,3.307
					c0.16,2.908,0.396,4.899,0.74,6.265c0.39,1.538,1.713,2.629,3.297,2.711c0,0,7.693,0.426,7.705,0.426
					c0.816,0,1.574-0.271,2.187-0.736c0.601,0.584,1.397,0.959,2.289,1.015c0,0,7.644,0.496,7.657,0.496
					c1.604,0,3.023-1.074,3.462-2.617c0.185-0.65,0.392-1.452,0.622-2.414c0.229-0.971,0.468-2.109,0.688-3.398
					c0.204-1.158,0.405-2.167,0.608-3.028c0.204-0.854,0.392-1.563,0.545-2.101c0.403-1.356,0.767-1.776,0.756-1.776
					c0,0,0,0-0.002,0c0.765-0.585,1.271-1.472,1.386-2.434c0.106-0.921-0.15-1.86-0.757-2.663c0.063-0.337,0.233-1.093,0.64-2.651
					c0.205-0.755,0.375-1.327,0.508-1.763c0.066,0.011,0.136,0.021,0.207,0.031c0.187,0.026,0.371,0.043,0.556,0.043
					c0.358,0,0.718-0.058,1.058-0.158c0.396,0.191,0.823,0.311,1.271,0.347c-0.017,0.229-0.033,0.486-0.06,0.772
					c-0.119,1.504-0.19,2.396-0.188,2.604c-0.964,0.577-1.604,1.593-1.722,2.702c-0.119,1.111,0.299,2.233,1.117,3.005
					c0.045,0.043,0.069,0.145,0.073,0.145c0,0,0.003-0.004,0.003-0.01c0.004,0.184-0.021,0.789-0.181,2.771
					c-0.037,0.461-0.069,0.854-0.101,1.188c-0.072-0.005-0.146-0.01-0.215-0.01c-0.75,0-1.474,0.229-2.093,0.668
					c-0.866,0.621-1.413,1.59-1.493,2.652l-0.382,4.942c-0.075,0.957,0.229,1.885,0.854,2.619c0.623,0.729,1.496,1.17,2.453,1.243
					c5.097,0.395,10.188,0.816,15.31,1.276c0.041,0.003,0.248,0.013,0.291,0.013c0.392,0,0.771-0.063,1.135-0.191
					c0.435,0.241,0.918,0.394,1.416,0.438c3.429,0.316,6.851,0.649,10.283,0.993c0.06,0.004,0.274,0.017,0.334,0.017
					c0.422,0,0.84-0.078,1.229-0.228c0.457,0.284,0.979,0.469,1.537,0.527c3.1,0.315,6.2,0.649,9.325,1
					c0.06,0.005,0.313,0.018,0.375,0.018c1.832,0,3.367-1.373,3.572-3.199l1.354-12.306c0.03-0.052,0.067-0.107,0.104-0.167
					c0.032-0.045,0.065-0.085,0.096-0.12c0.675-0.421,1.195-1.06,1.472-1.805c0.012-0.03,0.012-0.063,0.021-0.094
					c0.028,1.245-0.063,2.878-0.289,4.916c-0.037,0.351-0.024,0.693,0.035,1.031c-0.142,0.32-0.233,0.664-0.274,1.021l-0.933,7.822
					c-0.11,0.951,0.155,1.893,0.748,2.646c0.599,0.756,1.448,1.233,2.401,1.346c2.09,0.248,4.181,0.504,6.272,0.764
					c0.069,0.011,0.367,0.023,0.438,0.023c1.812,0,3.345-1.354,3.568-3.149l0.967-7.818c0.043-0.356,0.035-0.715-0.027-1.062
					c0.164-0.368,0.27-0.765,0.302-1.165c0.521-6.275,2.222-7.742,2.729-8.047c0.82-0.485,1.424-1.3,1.654-2.22
					C397.046,27.821,396.895,26.819,396.398,26.008z M350.229,32.699c-0.022,0.459-0.082,1.063-0.166,1.954
					c-0.026,0.273-0.073,0.771-0.125,1.249c-0.269,0.024-0.53,0.084-0.786,0.17c-0.434-0.24-0.914-0.394-1.427-0.438l-0.06-0.004
					c0.029-0.332,0.063-0.726,0.104-1.183c0.132-1.52,0.21-2.408,0.235-2.593c0.045-0.22,0.095-0.343,0.076-0.357
					c0.457-0.287,0.838-0.671,1.119-1.117c0.217,0.592,0.586,1.119,1.072,1.527c0,0.009,0,0.018,0,0.026
					C350.277,32.067,350.257,32.291,350.229,32.699z M351.121,23.453c-0.141,1.475-0.228,2.354-0.211,2.354l0.002-0.002
					c-0.051,0.185-0.072,0.195-0.146,0.239c-0.502,0.294-0.918,0.7-1.22,1.175c-0.196-0.545-0.521-1.024-0.939-1.381
					c0-0.004-0.107-0.24-0.05-0.93c0,0,0.036-0.482,0.036-0.561c0.063-0.302,0.095-0.524,0.089-0.563
					c0.004-0.012,0.067-0.794,0.067-0.891c0-0.166,0-0.319,0.002-0.448c0.269,0.021,0.461,0.036,0.478,0.036
					c0.403,0,0.802-0.068,1.177-0.197c0.252,0.143,0.516,0.252,0.793,0.33C351.177,22.865,351.15,23.144,351.121,23.453z"/>
			</g>
			<g>
				<path fill="#010101" d="M167.346,34.588c-0.035,0-0.069,0.001-0.104,0.002c-0.37,0.022-0.695,0.034-0.976,0.034
					c-0.093,0-0.174-0.001-0.239-0.003c-0.183-0.361-0.491-1.072-0.974-2.445c-0.873-2.496-1.041-3.434-1.063-3.768
					c-0.06-0.962,0.104-1.324,0.152-1.412c0.325-0.561,0.435-1.232,0.104-1.793c-0.32-0.546-0.805-0.862-1.434-0.862
					c-0.013,0-0.025,0-0.039,0c-0.022-0.013-0.578-0.339-1.505-2.456c-0.534-1.229-0.954-2.487-1.256-3.76l0.367-0.01
					c0,0,0.48,0.01,0.506,0.01c0.482,0,0.946-0.194,1.288-0.541c0.354-0.363,0.539-0.861,0.507-1.369l-0.309-4.946
					c-0.028-0.479-0.247-0.923-0.604-1.236c-0.329-0.29-0.754-0.449-1.188-0.449c-0.039,0-0.075,0.001-0.112,0.004
					c-6.474,0.402-12.94,0.858-19.409,1.362c-0.477,0.038-0.917,0.264-1.229,0.626c-0.311,0.363-0.462,0.833-0.426,1.309
					l0.387,4.943c0.073,0.938,0.861,1.656,1.793,1.656c0.046,0,1.739-0.127,1.739-0.127c-0.084,0.932-0.319,2.099-0.713,3.484
					c-0.699,2.55-1.314,3.021-1.277,3.021c-0.646,0.146-1.154,0.637-1.33,1.271c-0.182,0.639,0.008,1.321,0.485,1.778
					c0.061,0.058,0.184,0.176,0.211,0.545c0.015,0.171,0.017,0.925-0.521,3.483c-0.14,0.738-0.278,1.375-0.414,1.881
					c-0.132,0.475-0.246,0.854-0.353,1.11c-0.154,0.384-0.285,0.576-0.359,0.671c-0.066-0.006-0.136-0.006-0.2-0.006
					c-0.211,0-0.407,0.01-0.679,0.029l-0.397,0.032c-0.135,0.01-0.252,0.066-0.376,0.104l-0.525-6.239
					c-0.04-0.478-0.268-0.914-0.633-1.226c-0.325-0.272-0.734-0.425-1.159-0.425c-0.052,0-6.063,0.521-6.063,0.521
					c-0.477,0.043-0.909,0.313-1.217,0.682c-0.309,0.364-0.451,0.88-0.408,1.354l0.375,4.217c0.074,0.836-0.192,1.202-0.455,1.449
					c-0.152,0.149-0.314,0.268-0.493,0.352l-0.552-5.793c0.001-0.008,0.036-0.188,0.272-0.629c0.168-0.31,0.278-0.479,0.344-0.566
					c0.419-0.283,0.708-0.734,0.777-1.252c0.096-0.698-0.229-1.389-0.824-1.765c-0.492-0.311-0.81-0.75-0.995-1.401
					c-0.021-0.069-0.13-0.514-0.309-2.434c-0.155-1.687-0.168-2.441-0.156-2.745c0.118-0.04,0.322-0.089,0.649-0.118l0.589-0.053
					h0.455c0.027,0,0.059,0.001,0.084,0.001c0.492,0,0.961-0.239,1.307-0.596c0.36-0.375,0.541-0.936,0.49-1.455l-0.436-4.85
					c-0.085-0.936-0.869-1.637-1.787-1.637c-0.056,0-0.108,0.003-0.163,0.006c-5.448,0.489-10.895,1.016-16.336,1.576
					c-0.987,0.102-1.706,0.981-1.604,1.972l0.479,4.665l-0.729-1.483c-0.799-1.302-2.032-2.341-3.604-3.054
					c-1.444-0.726-2.694-1.078-3.817-1.078c-0.188,0-0.37,0.013-0.549,0.029c-6.229,0.692-12.45,1.431-18.671,2.216
					c-0.474,0.062-0.903,0.305-1.196,0.684c-0.288,0.379-0.422,0.854-0.36,1.326l0.621,4.919c0.063,0.521,0.353,0.981,0.785,1.271
					c0.299,0.201,0.646,0.304,0.999,0.304c0.157,0,0.315-0.021,0.476-0.063c0.218-0.063,0.422-0.11,0.595-0.146
					c0.17-0.033,0.332-0.067,0.515-0.09c0.078-0.01,0.354-0.018,0.401-0.016c0.067,0.383,0.188,1.15,0.376,2.688
					c0.188,1.492,0.288,2.366,0.304,2.508c-0.046,0.738-0.237,1.269-0.589,1.61c-0.417,0.41-0.608,1.002-0.512,1.579
					c0.098,0.578,0.471,1.074,1.001,1.326c0.377,0.18,0.623,0.74,0.737,1.096c0.041,0.152,0.084,0.438,0.146,0.867
					c0.073,0.51,0.173,1.196,0.278,2.063c0.27,2.183,0.271,2.857,0.316,2.886c-0.08,0.058-0.464,0.276-1.602,0.351
					c-0.493,0.029-0.955,0.264-1.271,0.647c-0.315,0.383-0.461,0.879-0.397,1.368l0.621,4.923c0.06,0.474,0.306,0.901,0.683,1.192
					c0.315,0.246,0.705,0.379,1.103,0.379c0.076,0,0.149-0.006,0.227-0.016c5.134-0.646,10.268-1.262,15.403-1.846
					c0.984-0.111,1.693-1.002,1.583-1.987l-0.561-4.928c-0.104-0.92-0.883-1.6-1.783-1.6c-0.065,0-0.137,0.003-0.203,0.015
					l-1.983,0.229c-0.104-0.167-0.163-0.335-0.187-0.519l-0.235-2.041c1.802-0.206,3.604-0.41,5.403-0.609
					c1.123-0.123,2.369-0.729,3.812-1.865c1.371-1.083,2.291-2.313,2.735-3.667c0.24-0.732,0.445-1.969,0.653-3.915
					c0.116-1.314,0.415-1.905,0.581-2.143c0.461-0.646,0.443-1.514-0.039-2.142c-0.184-0.237-0.414-0.422-0.677-0.537
					c-0.104-0.167-0.274-0.457-0.511-0.942l-0.138-0.279c0.313,0.234,0.688,0.369,1.074,0.369c0.063,0,0.125-0.003,0.188-0.01
					l2.242-0.23c0.061,0.193,0.136,0.523,0.188,1.063l0.025,0.265c0.009,0.104,0.006,0.221,0.004,0.349
					c0,0.063,0.084,0.938,0.084,0.938c0.021,0.229,0.063,0.561,0.136,0.938l0.11,0.739c0.106,1.078-0.123,1.884-0.724,2.527
					c-0.392,0.422-0.558,1.007-0.442,1.572c0.11,0.563,0.488,1.041,1.012,1.283c0.271,0.125,0.52,0.608,0.684,1.375
					c0.021,0.08,0.127,0.596,0.354,2.836l0.082,0.471l0.104,1.027c0.063,0.653,0.063,1.085,0.038,1.352l-2.175,0.221
					c-0.476,0.052-0.908,0.283-1.212,0.654c-0.301,0.369-0.44,0.844-0.396,1.318l0.51,4.935c0.048,0.478,0.282,0.911,0.651,1.212
					c0.321,0.263,0.726,0.402,1.137,0.402c0.061,0,0.122-0.003,0.186-0.009c7.497-0.773,15.104-1.485,22.608-2.116
					c0.364-0.031,0.687-0.266,0.961-0.527c0.306,0.218,0.664,0.354,1.041,0.354c0.048,0,0.102-0.002,0.146-0.008
					c3.934-0.322,7.867-0.63,11.804-0.913c0.613-0.044,1.135-0.396,1.423-0.891c0.332,0.416,0.844,0.683,1.407,0.683
					c0.043,0,0.084-0.002,0.126-0.004c4.835-0.342,9.669-0.649,14.508-0.933c0.477-0.024,0.921-0.242,1.237-0.599
					c0.315-0.357,0.479-0.825,0.453-1.301l-0.289-4.951C169.084,35.326,168.291,34.588,167.346,34.588z M98.438,28.644
					c-0.103,0.283-0.191,0.434-0.176,0.477l-1.101,0.126l-0.602-5.173l1.028-0.118c0.078,0.104,0.185,0.264,0.31,0.501
					c0.396,0.762,0.631,1.465,0.701,2.088C98.689,27.329,98.629,28.053,98.438,28.644z M151.463,36.074
					c-0.104,0.104-0.189,0.225-0.266,0.352c-0.332-0.424-0.848-0.688-1.414-0.688c-0.042,0-1.502,0.104-1.502,0.104
					c0.001-0.035,0.004-0.08,0.011-0.135c1.696-0.125,3.396-0.246,5.096-0.365c0.003,0.022,0.012,0.146,0.012,0.179
					c-0.075,0.008-0.62,0.008-0.642,0.008C152.27,35.524,151.803,35.721,151.463,36.074z"/>
				<path fill="#010101" d="M198.512,8.319c-0.332-0.313-0.771-0.484-1.229-0.484c-0.021,0-0.04,0-0.062,0.001
					c-4.224,0.138-8.448,0.298-12.674,0.479c-0.322,0.014-0.619,0.109-0.875,0.271c-0.25-0.129-0.529-0.196-0.813-0.196
					c-0.023,0-0.054,0-0.08,0.005c-5.097,0.229-10.188,0.483-15.282,0.771c-0.99,0.056-1.748,0.905-1.693,1.897l0.28,4.946
					c0.034,0.617,0.383,1.17,0.922,1.474c0.271,0.147,0.571,0.227,0.875,0.227c0.296,0,0.592-0.072,0.857-0.219
					c0.182-0.098,0.271-0.127,0.273-0.131c0.072,0.004,0.771,0.085,2.093,1.832c1.436,1.903,2.209,3.785,2.303,5.583
					c0.005,0.134,0.003,0.247,0,0.343c0,0.016-0.021,0.279-0.021,0.297c-0.09,0.779,0.334,1.529,1.054,1.854
					c0.543,0.241,0.935,0.424,1.161,0.544c0.07,0.093,0.147,0.202,0.236,0.325c0.209,0.308,0.461,0.691,0.774,1.176
					c0.486,0.752,0.633,1.084,0.658,1.084c0,0,0.003-0.002,0.003-0.01l0.178,3.653l-1.882,0.096
					c-0.991,0.054-1.753,0.896-1.702,1.89l0.254,4.953c0.022,0.477,0.236,0.924,0.592,1.238c0.33,0.303,0.76,0.467,1.203,0.467
					c0.029,0,0.063-0.004,0.094-0.005c5.19-0.266,10.387-0.495,15.582-0.696c0.991-0.038,1.76-1.049,1.722-2.042l-0.183-4.778
					c-0.037-0.97-0.836-1.729-1.798-1.729c-0.022,0-1.97,0.074-1.97,0.074c-0.062-0.279-0.13-0.74-0.159-1.463
					c-0.056-1.324,0.177-2.541,0.697-3.707c0.369-0.813,0.668-0.99,0.753-0.99c0,0,0.127,0.013,0.189,0.013
					c0.546,0,1.068-0.25,1.412-0.688c0.382-0.481,0.487-1.133,0.279-1.715c-0.109-0.313-0.176-0.682-0.19-1.089
					c-0.045-1.2,0.396-2.701,1.313-4.45c1.581-2.962,2.678-3.225,2.896-3.267c0.276,0.157,0.584,0.232,0.892,0.232
					c0.321,0,0.645-0.086,0.932-0.258c0.557-0.336,0.89-0.949,0.865-1.601l-0.164-4.954C199.066,9.096,198.861,8.646,198.512,8.319z
					 M183.944,16.623c0.265,0.152,0.57,0.24,0.896,0.24c0.022,0,0.085-0.004,0.085-0.004c-0.162,0.44-0.413,1.069-0.801,1.957
					c-0.475-0.945-0.734-1.545-0.878-1.917C183.491,16.854,183.729,16.756,183.944,16.623z"/>
				<path fill="#010101" d="M274.512,22.766c-0.836-0.413-1.199-2.272-1.584-4.246c-0.92-4.713-2.313-11.825-13.101-12.047
					L259.48,6.47c-10.467,0-12.081,6.979-13.149,11.598c-0.351,1.518-0.692,2.946-1.223,3.698c0.082-0.2,0.135-0.422,0.135-0.651
					l0.054-12.134c0.002-0.479-0.188-0.938-0.521-1.274c-0.336-0.338-0.793-0.529-1.271-0.531l-5.273-0.011
					c-6.148,0-12.299,0.044-18.446,0.135c-0.992,0.018-1.786,0.832-1.771,1.825l0.182,12.189c0.006,0.477,0.201,0.932,0.545,1.264
					c0.335,0.326,0.785,0.508,1.253,0.508c0.012,0,3.283-0.045,4.912-0.063c-0.185,0.336-0.26,0.725-0.206,1.107
					c0.064,0.48,0.323,0.914,0.715,1.202c0.41,0.303,0.632,0.664,0.717,1.174c0.06,0.379,0.071,2.357,0.081,3.104l0.018,2.945
					c-0.017,0.006-0.03,0.01-0.047,0.014c-0.262,0.02-0.836,0.027-1.717,0.041c-0.992,0.013-1.786,0.827-1.774,1.815l0.057,4.957
					c0.012,0.988,0.813,1.78,1.799,1.78c0.008,0,0.014,0,0.021,0c4.522-0.052,9.047-0.077,13.567-0.077h0.955
					c0.478,0,0.935-0.188,1.271-0.523c0.336-0.34,0.526-0.797,0.526-1.271l0.002-4.958c0-0.543-0.348-1.045-0.771-1.387
					c-0.317-0.259-0.771-0.396-1.208-0.396c-0.137,0-0.271,0.017-0.399,0.041h-0.542c-0.228,0-0.379-0.021-0.463-0.021
					c-0.053,0-0.074,0.011-0.072,0.04c-0.012-0.08-0.071-0.603-0.077-3.062c-0.005-1.625-0.006-2.583,0.016-2.846
					c0.117-0.859,0.313-1.137,0.285-1.149c0.621-0.185,1.097-0.688,1.241-1.316c0.104-0.467,0.022-0.947-0.218-1.347
					c0,0,4.77,0.015,4.771,0.015c0.187,0,0.354-0.053,0.521-0.105c-0.239,0.308-0.41,0.662-0.416,1.068
					c-0.006,0.698,0.392,1.338,1.021,1.641c0.854,0.411,1.259,2.289,1.685,4.277c0.998,4.654,2.508,11.688,12.969,11.842l0.46,0.002
					c10.063,0,11.784-6.854,12.922-11.395c0.496-1.974,0.963-3.83,1.828-4.209c0.639-0.281,1.059-0.904,1.075-1.604
					C275.531,23.721,275.135,23.076,274.512,22.766z M258.652,22.548c-0.521-0.469-1.259-3.41-0.476-5.454
					c0.455-1.188,1.135-1.188,1.461-1.188h0.033c0.528,0.008,1.071,0.162,1.442,1.214c0.729,2.071-0.106,5.007-0.631,5.446
					c-0.511,0.321-0.839,0.873-0.851,1.479c-0.013,0.604,0.271,1.166,0.771,1.508c0.518,0.47,1.229,3.412,0.438,5.463
					c-0.447,1.163-1.082,1.188-1.438,1.188c-0.007,0-0.013,0-0.021,0c-0.509-0.01-1.031-0.16-1.401-1.2
					c-0.74-2.081,0.077-5.021,0.598-5.464c0.511-0.324,0.834-0.876,0.845-1.479C259.434,23.449,259.15,22.889,258.652,22.548z"/>
				<path fill="#010101" d="M380.557,22.101l0.563-4.928c0.053-0.475-0.082-0.947-0.381-1.321c-0.297-0.372-0.729-0.612-1.203-0.667
					c-3.416-0.392-6.836-0.767-10.254-1.125c-0.063-0.01-0.127-0.013-0.191-0.013c-0.648,0-1.235,0.354-1.553,0.896
					c-0.219-0.666-0.813-1.152-1.523-1.229c-4.404-0.452-8.813-0.884-13.223-1.289c-0.055-0.006-0.106-0.007-0.164-0.007
					c-0.418,0-0.824,0.146-1.147,0.414c-0.103,0.084-0.159,0.195-0.239,0.297c-0.273-0.521-0.771-0.918-1.402-0.974
					c-5.242-0.47-10.481-0.907-15.727-1.313c-0.039-0.002-0.076-0.004-0.113-0.004c-0.438,0-0.865,0.191-1.199,0.479
					c-0.016,0.014-0.021,0.036-0.037,0.051c-0.301-0.4-0.75-0.684-1.289-0.724c-3.45-0.261-6.902-0.506-10.355-0.732
					c-0.041-0.003-0.08-0.005-0.121-0.005c-0.435,0-0.854,0.157-1.185,0.445c-0.028,0.021-0.056,0.051-0.082,0.073
					c-0.308-0.395-0.772-0.655-1.306-0.689c-1.948-0.124-5.922-0.366-5.959-0.366c-0.455,0-0.883,0.174-1.207,0.466
					c-0.307-0.352-0.748-0.585-1.252-0.614c-4.498-0.258-8.994-0.49-13.492-0.7c-0.027-0.001-0.057-0.001-0.084-0.001
					c-0.446,0-0.881,0.165-1.213,0.469c-0.352,0.321-0.563,0.769-0.586,1.245l-0.229,4.953c-0.024,0.508,0.291,1,0.651,1.356
					c0.336,0.332,0.896,0.52,1.382,0.52c0.036,0,0.071-0.001,0.106-0.007c0.807,0,0.934,0.243,1.031,0.428
					c0.059,0.104,0.355,0.766,0.623,3.64c0.137,1.378,0.145,2.08,0.129,2.423c-0.002,0.06-0.031,0.291-0.229,0.773
					c-0.082,0.185-0.143,0.293-0.178,0.349c-0.435,0.335-0.695,0.858-0.697,1.417c0,0.635,0.334,1.229,0.882,1.551
					c0.063,0.037,0.608,0.414,0.997,2.376c0.098,0.519,0.184,1.219,0.271,2.09c0.094,0.934,0.196,2.071,0.305,3.385
					c0.15,2.746,0.375,4.683,0.688,5.922c0.189,0.765,0.859,1.313,1.646,1.354c2.5,0.134,7.574,0.425,7.609,0.425
					c0.828,0,1.557-0.57,1.748-1.388c0.273-1.163,0.545-2.276,0.809-3.349c0.117,1.136,0.236,2.271,0.354,3.405
					c0.092,0.875,0.801,1.555,1.678,1.606c2.475,0.154,7.504,0.493,7.545,0.493c0.801,0,1.512-0.532,1.729-1.31
					c0.181-0.634,0.382-1.41,0.604-2.345c0.226-0.937,0.449-2.037,0.662-3.299c0.215-1.196,0.422-2.237,0.637-3.129
					c0.211-0.89,0.402-1.627,0.568-2.199c0.569-1.904,1.153-2.514,1.381-2.687c0.389-0.296,0.637-0.735,0.693-1.218
					c0.056-0.483-0.084-0.972-0.395-1.349c-0.396-0.491-0.424-0.85-0.41-1.067c0.012-0.084,0.082-0.636,0.736-3.164
					c0.654-2.396,0.955-3.063,0.922-3.063c-0.002,0-0.008,0.004-0.012,0.01c0.043-0.049,0.133-0.134,0.453-0.134
					c0.002,0,0.323,0.023,0.323,0.023c0.259,0.021,0.601,0.063,1.043,0.13c0.093,0.016,0.185,0.021,0.272,0.021
					c0.4,0,0.799-0.136,1.117-0.393c0.045-0.035,0.067-0.091,0.108-0.132c0.054,0.063,0.075,0.146,0.136,0.208
					c0.338,0.331,0.791,0.516,1.26,0.516c0.059,0,0.113-0.003,0.172-0.009c0.17-0.016,0.332-0.025,0.605-0.027l0.316,0.013
					c0.244,0.02,0.402,0.053,0.502,0.084c-0.004,0.325-0.031,1.062-0.16,2.645c-0.129,1.607-0.206,2.545-0.24,2.769
					c-0.17,0.766-0.523,1.063-0.813,1.235c-0.48,0.29-0.803,0.791-0.857,1.354c-0.061,0.562,0.146,1.113,0.559,1.501
					c0.371,0.348,0.576,0.808,0.643,1.355c0.01,0.129,0.008,0.68-0.182,3.005c-0.188,2.375-0.291,2.963-0.227,2.974
					c-0.031,0.008-0.13,0.022-0.382,0.022c-0.041,0-0.705-0.045-0.705-0.045c-0.104-0.009-0.22-0.026-0.343-0.062
					c-0.146-0.038-0.305-0.061-0.452-0.061c-0.371,0-0.737,0.115-1.046,0.333c-0.436,0.313-0.707,0.797-0.748,1.329l-0.381,4.941
					c-0.039,0.477,0.115,0.944,0.427,1.311c0.313,0.361,0.752,0.586,1.228,0.622c5.104,0.396,10.201,0.819,15.301,1.276
					c0.054,0.004,0.107,0.007,0.162,0.007c0.543,0,1.019-0.263,1.351-0.655c0.054,0.088,0.081,0.188,0.146,0.271
					c0.305,0.363,0.742,0.598,1.219,0.642c3.433,0.316,6.859,0.647,10.289,0.992c0.056,0.006,0.109,0.008,0.162,0.008
					c0.594,0,1.135-0.323,1.473-0.801c0.246,0.604,0.811,1.041,1.48,1.108c3.104,0.32,6.211,0.654,9.313,0.998
					c0.066,0.011,0.137,0.015,0.201,0.015c0.902,0,1.684-0.685,1.783-1.603l1.391-12.604c0.009-0.021,0.072-0.238,0.432-0.758
					c0.176-0.233,0.293-0.369,0.364-0.447c0.431-0.195,0.772-0.555,0.94-1.018c0.248-0.668,0.076-1.418-0.434-1.91
					c-0.229-0.225-0.533-0.607-0.584-1.312c-0.003-0.358,0.072-1.242,0.229-2.645c0.172-1.543,0.301-2.312,0.344-2.614
					c0.104-0.015,0.244-0.026,0.438-0.026c0.305,0,0.645,0.027,1.021,0.079c0.08,0.015,0.162,0.02,0.242,0.02
					c0.396,0,0.787-0.135,1.104-0.379C380.255,23.021,380.501,22.582,380.557,22.101z M349.341,37.959
					c-0.164,0.104-0.273,0.256-0.396,0.4c-0.056-0.101-0.088-0.207-0.16-0.295c-0.308-0.365-0.744-0.597-1.219-0.642l-1.764-0.151
					c-0.012-0.116-0.02-0.265-0.021-0.438c0.002-0.255,0.067-1.102,0.194-2.54c0.14-1.615,0.226-2.555,0.269-2.807
					c0.236-1.125,0.691-1.397,0.84-1.486c0.494-0.293,0.82-0.808,0.873-1.379c0.054-0.574-0.172-1.137-0.604-1.516
					c-0.188-0.162-0.738-0.649-0.593-2.351l0.034-0.388v-0.229c0.066-0.293,0.104-0.53,0.119-0.71c0-0.006,0.033-0.442,0.033-0.448
					c0-0.278-0.002-0.528,0.008-0.737l0.039-0.628c0.045-0.528,0.111-0.879,0.17-1.104c0,0,2.006,0.179,2.062,0.179
					c0.421,0,0.828-0.146,1.151-0.419c0.099-0.081,0.156-0.19,0.232-0.288c0.064,0.129,0.116,0.265,0.217,0.375
					c0.334,0.371,0.807,0.588,1.307,0.599c0.466,0.011,0.775,0.052,0.977,0.093c-0.021,0.435-0.07,1.203-0.201,2.574
					c-0.147,1.578-0.24,2.495-0.264,2.654c-0.164,0.617-0.468,1.022-0.975,1.319c-0.563,0.329-0.9,0.938-0.893,1.591
					c0.014,0.648,0.377,1.241,0.951,1.549c0.182,0.098,0.311,0.533,0.338,1.133c0.006,0.154-0.011,0.442-0.05,0.917
					c-0.022,0.495-0.086,1.153-0.172,2.039c-0.226,2.366-0.313,2.906-0.485,3.013l-0.438-0.039
					c-0.202-0.076-0.416-0.111-0.629-0.111C349.962,37.683,349.63,37.777,349.341,37.959z"/>
				<path fill="#010101" d="M394.861,26.94c-0.314-0.521-0.523-1.234-0.623-2.162c-0.082-0.653-0.119-1.744-0.105-3.244
					c0-0.105-0.012-0.213-0.025-0.316c-0.596-3.448-2.623-5.557-5.716-5.93c-0.296-0.035-0.584-0.053-0.862-0.053
					c-1.814,0-4.318,0.733-5.986,4.33c-0.078,0.196-0.321,0.801-1.096,3.651c-0.39,1.394-0.77,1.691-0.785,1.705
					c-0.435,0.331-0.691,0.842-0.703,1.392c-0.012,0.547,0.226,1.065,0.646,1.418c0.834,0.697,1.308,2.121,1.399,4.252
					c0.08,1.388-0.014,3.327-0.285,5.768c-0.041,0.385,0.041,0.754,0.218,1.069c-0.248,0.269-0.414,0.614-0.459,1.002l-0.931,7.821
					c-0.114,0.981,0.588,1.879,1.574,1.993c2.094,0.249,4.188,0.502,6.281,0.765c0.073,0.009,0.146,0.014,0.223,0.014
					c0.894,0,1.67-0.668,1.781-1.578l0.969-7.813c0.045-0.375-0.026-0.755-0.207-1.084c0.271-0.292,0.438-0.67,0.474-1.071
					c0.418-5.03,1.661-8.296,3.604-9.444c0.412-0.244,0.711-0.646,0.826-1.108C395.188,27.845,395.111,27.351,394.861,26.94z"/>
			</g>
		</g>
		<path fill="#FEF8CB" d="M108.84,27.774c-0.188,1.737-0.373,2.905-0.57,3.518c-0.334,1.013-1.049,1.949-2.141,2.813
			c-1.157,0.905-2.118,1.402-2.896,1.486c-2.399,0.269-4.803,0.538-7.201,0.818c0.147,1.275,0.297,2.55,0.444,3.826
			c0.063,0.541,0.268,1.045,0.615,1.513c0.354,0.469,0.721,0.677,1.075,0.636c0.819-0.096,1.644-0.188,2.466-0.28
			c0.187,1.645,0.371,3.283,0.559,4.928c-5.145,0.584-10.284,1.2-15.426,1.85c-0.207-1.64-0.413-3.277-0.621-4.921
			c1.865-0.117,2.918-0.634,3.177-1.564c0.119-0.289,0.044-1.518-0.224-3.683c-0.107-0.885-0.208-1.586-0.284-2.104
			c-0.07-0.521-0.135-0.873-0.185-1.063c-0.359-1.129-0.917-1.887-1.705-2.262c0.682-0.67,1.049-1.594,1.12-2.781
			c0.014-0.117-0.093-1.063-0.312-2.838c-0.244-1.967-0.422-3.1-0.538-3.404c-0.273-0.707-1.022-0.984-2.251-0.834
			c-0.216,0.025-0.425,0.068-0.646,0.113s-0.459,0.104-0.713,0.173c-0.208-1.64-0.414-3.278-0.62-4.919
			c6.211-0.783,12.425-1.521,18.645-2.213c0.893-0.099,2.018,0.194,3.36,0.869c1.313,0.598,2.271,1.396,2.875,2.387
			c0.51,1.041,1.019,2.082,1.521,3.123c0.636,1.303,1.1,1.896,1.38,1.79C109.268,25.422,108.959,26.43,108.84,27.774z
			 M99.498,23.627c-0.569-1.07-1.138-1.571-1.686-1.508c-1.081,0.123-2.164,0.246-3.245,0.373c0.338,2.915,0.678,5.83,1.02,8.744
			c0.997-0.116,1.992-0.23,2.991-0.344c0.667-0.077,1.188-0.623,1.555-1.646c0.288-0.891,0.374-1.863,0.257-2.906
			C100.295,25.496,99.996,24.592,99.498,23.627z"/>
		<path fill="#FEF8CB" d="M113.526,45.697c-0.169-1.646-0.34-3.291-0.51-4.938c0.938-0.097,1.879-0.188,2.816-0.282
			c0.816-0.084,1.133-1.166,0.927-3.259c-0.036-0.347-0.069-0.692-0.104-1.043c-0.031-0.19-0.063-0.385-0.098-0.578
			c-0.155-1.585-0.284-2.567-0.378-2.95c-0.288-1.342-0.841-2.201-1.68-2.588c0.952-1.031,1.351-2.343,1.19-3.931
			c-0.019-0.188-0.065-0.471-0.122-0.835c-0.065-0.366-0.104-0.645-0.123-0.838c-0.022-0.251-0.051-0.504-0.074-0.756
			c0.002-0.192,0.002-0.372-0.014-0.526c-0.021-0.19-0.034-0.326-0.041-0.401c-0.182-1.82-0.772-2.683-1.764-2.58
			c-0.877,0.089-1.753,0.177-2.631,0.268c-0.171-1.644-0.341-3.289-0.509-4.932c5.435-0.563,10.871-1.086,16.312-1.574
			c0.149,1.646,0.299,3.293,0.445,4.939c-0.266-0.017-0.512-0.015-0.711,0.005c-0.212,0.019-0.406,0.038-0.589,0.053
			c-1.291,0.117-2.021,0.539-2.22,1.257c-0.123,0.442-0.093,1.629,0.09,3.566c0.139,1.475,0.264,2.396,0.374,2.774
			c0.31,1.066,0.896,1.869,1.765,2.413c-0.21,0.063-0.516,0.458-0.919,1.198c-0.356,0.662-0.519,1.16-0.483,1.512
			c0.238,2.574,0.479,5.147,0.719,7.724c0.104,0.03,0.247,0.045,0.436,0.047c0.188,0.006,0.412-0.007,0.694-0.033
			c0.874-0.08,1.624-0.42,2.242-1.025c0.771-0.729,1.099-1.696,0.989-2.896c-0.127-1.436-0.255-2.865-0.383-4.3
			c1.968-0.177,3.938-0.349,5.905-0.514c0.36,4.304,0.726,8.604,1.086,12.901C128.616,44.211,121.069,44.919,113.526,45.697z"/>
		<path fill="#FEF8CB" d="M153.105,42.271c-0.116-1.65-0.231-3.301-0.349-4.947c0.422,0.015,0.747,0,0.993-0.038
			c0.246-0.036,0.429-0.079,0.556-0.128c0.656-0.276,0.947-0.898,0.881-1.871c-0.038-0.584-0.233-1.188-0.599-1.83
			c-2.599,0.179-5.194,0.365-7.792,0.559c-0.238,0.914-0.343,1.605-0.308,2.07c0.085,1.125,0.585,1.65,1.521,1.58
			c0.592-0.045,1.184-0.087,1.772-0.129c0.12,1.648,0.238,3.297,0.356,4.946c-3.939,0.286-7.881,0.591-11.818,0.915
			c-0.138-1.647-0.271-3.295-0.408-4.943c0.141-0.01,0.299-0.023,0.51-0.041c0.229-0.018,0.511-0.021,0.814-0.004
			c0.755-0.023,1.357-0.617,1.842-1.792c0.127-0.317,0.269-0.761,0.421-1.317c0.149-0.557,0.3-1.231,0.448-2.024
			c0.414-1.979,0.6-3.304,0.546-3.957c-0.057-0.701-0.307-1.269-0.761-1.701c1.026-0.231,1.892-1.664,2.612-4.295
			c0.614-2.191,0.89-3.923,0.791-5.207c-0.479-0.428-0.902-0.633-1.271-0.604c-0.762,0.06-1.521,0.115-2.279,0.179
			c-0.129-1.648-0.258-3.3-0.387-4.944c6.457-0.504,12.919-0.958,19.383-1.36c0.103,1.648,0.204,3.3,0.308,4.947
			c-0.37-0.014-0.691-0.014-0.951,0.002c-0.233,0.015-0.399,0.026-0.506,0.033c-0.576,0.116-1.053,0.38-1.446,0.796
			c0.323,1.886,0.882,3.703,1.638,5.443c1.026,2.353,2.004,3.517,2.968,3.495c-0.328,0.567-0.453,1.375-0.393,2.422
			c0.049,0.776,0.438,2.19,1.157,4.254c0.762,2.169,1.317,3.348,1.692,3.52c0.346,0.135,1.11,0.164,2.297,0.097
			c0.096,1.649,0.188,3.302,0.287,4.95C162.786,41.619,157.945,41.93,153.105,42.271z M149.879,20.398
			c-0.623,2.637-1.244,5.271-1.859,7.913c1.597-0.117,3.193-0.231,4.789-0.346C151.838,25.444,150.861,22.918,149.879,20.398z"/>
		<path fill="#FEF8CB" d="M196.571,14.385c-1.525,0.054-3.036,1.445-4.498,4.188c-1.078,2.063-1.58,3.854-1.521,5.366
			c0.021,0.584,0.12,1.129,0.296,1.618c-1.048-0.106-1.904,0.564-2.578,2.03c-0.642,1.433-0.926,2.938-0.857,4.532
			c0.092,2.176,0.536,3.243,1.326,3.213c0.864-0.035,1.729-0.07,2.599-0.104c0.063,1.648,0.126,3.304,0.188,4.956
			c-5.203,0.197-10.404,0.434-15.604,0.697c-0.083-1.647-0.17-3.303-0.252-4.954c0.862-0.044,1.729-0.088,2.596-0.13
			c0.147-0.045,0.356-0.229,0.632-0.556c0.259-0.322,0.392-0.58,0.383-0.779c-0.065-1.396-0.137-2.794-0.204-4.188
			c-0.019-0.354-0.335-0.999-0.945-1.942c-0.316-0.486-0.583-0.895-0.805-1.215c-0.229-0.32-0.399-0.553-0.548-0.703
			c-0.129-0.104-0.663-0.373-1.6-0.792c0.019-0.157,0.027-0.305,0.03-0.438c0.007-0.141,0.01-0.307-0.003-0.497
			c-0.109-2.181-0.994-4.367-2.658-6.576c-1.328-1.762-2.553-2.607-3.646-2.548c-0.298,0.018-0.628,0.135-1.019,0.347
			c-0.096-1.648-0.188-3.3-0.281-4.951c5.086-0.288,10.175-0.545,15.263-0.771c0.071,1.649,0.146,3.303,0.223,4.954
			c-0.25-0.065-0.563-0.034-0.955,0.103c-0.586,0.223-0.872,0.625-0.848,1.205c0.038,0.813,1.031,2.947,2.962,6.406
			c1.888-3.937,2.825-6.27,2.765-7.005c-0.252-0.457-0.597-0.735-1.016-0.835c-0.384,0.016-0.769,0.029-1.149,0.049
			c-0.069-1.651-0.144-3.306-0.212-4.953c4.219-0.185,8.438-0.342,12.654-0.48c0.056,1.652,0.105,3.308,0.162,4.955
			C197.194,14.444,196.909,14.373,196.571,14.385z"/>
		<path fill="#FEF8CB" d="M237.534,21.094c0-1.729,0-3.462-0.001-5.188c-0.031-0.354-0.169-0.741-0.421-1.166
			c-0.25-0.429-0.476-0.646-0.69-0.646c-0.313,0-0.626,0.001-0.939,0.001c0.006,2.396,0.012,4.785,0.016,7.179
			c0,0.153,0.072,0.358,0.195,0.61c0.137,0.252,0.29,0.506,0.472,0.759c0.188,0.25,0.358,0.485,0.534,0.696
			c0.162,0.215,0.315,0.379,0.442,0.492c-0.828,0.235-1.347,1.113-1.555,2.632c-0.032,0.112-0.037,1.146-0.032,3.089
			c0.005,2.025,0.046,3.164,0.123,3.439c0.265,0.936,1.026,1.396,2.288,1.396c0.178,0,0.355,0,0.542,0
			c0.184,0,0.374-0.018,0.581-0.062c-0.002,1.654-0.005,3.307-0.005,4.96c-4.849-0.005-9.694,0.021-14.545,0.076
			c-0.019-1.653-0.035-3.308-0.055-4.958c1.291-0.02,1.979-0.04,2.058-0.08c0.922-0.164,1.421-0.691,1.488-1.588
			c-0.01-1.05-0.018-2.101-0.024-3.147c-0.017-1.861-0.039-2.995-0.104-3.382c-0.16-0.972-0.638-1.746-1.422-2.324
			c0.979-1.249,1.463-2.128,1.458-2.637c-0.021-2.332-0.038-4.664-0.059-6.994c-0.048-0.078-0.233-0.119-0.546-0.115
			c-0.979,0.013-1.46,0.486-1.45,1.414c0.021,1.889,0.039,3.772,0.058,5.658c-1.979,0.021-3.966,0.045-5.947,0.072
			c-0.06-4.063-0.121-8.125-0.181-12.188c7.896-0.114,15.791-0.155,23.688-0.126c-0.018,4.046-0.034,8.09-0.053,12.138
			C241.479,21.096,239.508,21.092,237.534,21.094z"/>
		<path fill="#FEF8CB" d="M259.803,8.271c-14.369-0.206-9.74,13.481-14.451,15.612c4.662,2.242-0.082,15.74,13.906,15.941
			c13.987,0.282,9.721-13.379,14.453-15.45C269.072,22.067,274.174,8.563,259.803,8.271z M259.357,33.994
			c-4.755-0.076-3.871-8.619-1.742-9.977c-2.078-1.421-2.756-9.992,2.088-9.914c4.845,0.088,3.871,8.637,1.742,9.979
			C263.527,25.514,264.113,34.082,259.357,33.994z"/>
		<path fill="#FEF8CB" d="M329.785,17.239c-0.265-0.021-0.445-0.032-0.547-0.041c-0.72,0.028-1.295,0.28-1.718,0.756
			c-0.258,0.333-0.698,1.587-1.297,3.767c-0.502,1.946-0.769,3.121-0.793,3.509c-0.06,0.813,0.204,1.596,0.81,2.338
			c-0.797,0.608-1.476,1.807-2.013,3.6c-0.177,0.612-0.377,1.377-0.597,2.3c-0.221,0.919-0.436,1.992-0.653,3.229
			c-0.209,1.231-0.429,2.297-0.646,3.194c-0.215,0.902-0.41,1.658-0.584,2.271c-2.479-0.17-4.957-0.334-7.434-0.489
			c-0.451-4.352-0.91-8.704-1.38-13.057c-0.979,3.293-2.086,7.551-3.321,12.771c-2.502-0.146-5.008-0.288-7.513-0.421
			c-0.278-1.102-0.493-2.965-0.64-5.579c-0.108-1.365-0.215-2.521-0.307-3.464c-0.102-0.938-0.195-1.684-0.295-2.229
			c-0.373-1.895-0.988-3.088-1.852-3.602c0.238-0.141,0.477-0.487,0.723-1.043c0.229-0.553,0.357-1.021,0.381-1.411
			c0.025-0.583-0.018-1.479-0.138-2.691c-0.21-2.269-0.483-3.726-0.854-4.361c-0.506-0.959-1.476-1.395-2.935-1.312
			c0.077-1.649,0.155-3.305,0.231-4.952c4.49,0.209,8.982,0.44,13.476,0.703c-0.097,1.647-0.188,3.3-0.284,4.946
			c-0.134-0.045-0.326-0.073-0.584-0.092c-0.559-0.026-1.014,0.08-1.369,0.335c-0.49,0.319-0.707,0.837-0.638,1.538
			c0.38,3.393,0.755,6.779,1.122,10.168c1.426-5.584,2.861-11.168,4.314-16.75c1.947,0.117,3.896,0.238,5.844,0.363
			c0.629,5.652,1.244,11.303,1.85,16.955c0.473-1.994,0.908-3.893,1.316-5.697c0.416-1.807,0.771-3.531,1.104-5.184
			c-0.32-0.729-0.953-1.041-1.91-0.951c0.107-1.649,0.221-3.297,0.328-4.947c3.447,0.229,6.896,0.477,10.346,0.731
			c-0.123,1.646-0.248,3.298-0.371,4.942C330.462,17.311,330.076,17.262,329.785,17.239z"/>
		<path fill="#FEF8CB" d="M331.641,42.88c0.127-1.646,0.254-3.298,0.382-4.942c0.234,0.063,0.452,0.099,0.654,0.111
			c0.21,0.019,0.398,0.031,0.582,0.044c1.207,0.097,1.97-0.293,2.27-1.169c0.098-0.262,0.229-1.422,0.395-3.477
			c0.146-1.783,0.209-2.867,0.188-3.262c-0.123-1.063-0.523-1.916-1.209-2.56c0.854-0.514,1.396-1.308,1.643-2.383
			c0.035-0.114,0.127-1.122,0.279-3.016c0.147-1.863,0.194-2.952,0.143-3.271c-0.166-0.832-0.883-1.3-2.139-1.396
			c-0.188-0.017-0.381-0.021-0.597-0.017c-0.206,0.002-0.418,0.017-0.642,0.034c0.129-1.646,0.257-3.296,0.384-4.944
			c5.235,0.403,10.472,0.843,15.7,1.313c-0.146,1.646-0.295,3.293-0.439,4.938c-0.837-0.071-1.675-0.146-2.513-0.223
			c-0.847-0.073-1.345,0.858-1.513,2.797c-0.018,0.195-0.022,0.414-0.041,0.669c-0.012,0.257-0.012,0.536-0.012,0.853
			c-0.006,0.073-0.017,0.173-0.025,0.288c-0.009,0.113-0.032,0.271-0.08,0.465c-0.021,0.29-0.051,0.58-0.073,0.87
			c-0.149,1.74,0.257,3.021,1.192,3.85c-0.854,0.51-1.418,1.397-1.682,2.663c-0.037,0.115-0.136,1.121-0.3,3.02
			c-0.144,1.627-0.209,2.538-0.2,2.732c0.016,1.37,0.332,2.076,0.946,2.131c0.823,0.071,1.646,0.146,2.472,0.218
			c-0.146,1.646-0.297,3.293-0.445,4.939C341.855,43.7,336.748,43.273,331.641,42.88z"/>
		<path fill="#FEF8CB" d="M375.564,22.476c-0.188,0.295-0.398,1.481-0.63,3.563c-0.168,1.512-0.241,2.46-0.239,2.85
			c0.066,1.068,0.446,1.935,1.129,2.596c-0.215,0.013-0.563,0.349-1.058,0.996c-0.397,0.583-0.661,1.061-0.748,1.443
			c-0.476,4.271-0.948,8.538-1.425,12.81c-3.105-0.349-6.217-0.681-9.327-1c-1.296-7.15-2.628-14.299-3.991-21.444
			c-0.464,4.72-0.93,9.44-1.395,14.162c-0.096,0.964,0.324,1.573,1.263,1.822c0.478,0.165,0.978,0.231,1.5,0.206
			c-0.166,1.646-0.332,3.291-0.498,4.936c-3.435-0.346-6.866-0.678-10.306-0.994c0.152-1.646,0.306-3.293,0.455-4.938
			c0.156,0.059,0.308,0.091,0.459,0.104c0.152,0.015,0.299,0.025,0.429,0.039c1.052,0.097,1.745-0.343,2.069-1.327
			c0.082-0.306,0.207-1.403,0.392-3.305c0.082-0.892,0.149-1.597,0.177-2.122c0.041-0.521,0.057-0.884,0.047-1.078
			c-0.06-1.334-0.479-2.214-1.285-2.643c0.916-0.538,1.514-1.338,1.803-2.406c0.039-0.113,0.146-1.098,0.316-2.954
			c0.207-2.171,0.268-3.353,0.184-3.557c-0.23-0.69-1.125-1.046-2.711-1.077c0.15-1.646,0.304-3.293,0.453-4.938
			c4.402,0.406,8.806,0.835,13.201,1.289c1.271,6.64,2.504,13.277,3.711,19.92c0.457-4.252,0.914-8.503,1.373-12.756
			c0.141-1.313-0.642-1.945-2.34-1.894c0.172-1.646,0.348-3.288,0.521-4.934c3.412,0.359,6.826,0.734,10.236,1.123
			c-0.188,1.644-0.375,3.283-0.562,4.93C377.044,21.663,375.979,21.86,375.564,22.476z"/>
		<path fill="#FEF8CB" d="M388.843,38.717c-2.109-0.262-4.227-0.519-6.342-0.77c0.283-2.55,0.381-4.571,0.291-6.07
			c-0.115-2.635-0.789-4.478-2.041-5.522c0.576-0.441,1.054-1.322,1.422-2.65c0.504-1.857,0.854-3.012,1.033-3.462
			c1.104-2.376,2.764-3.437,4.965-3.167c2.316,0.279,3.697,1.766,4.16,4.447c-0.012,1.564,0.027,2.728,0.123,3.479
			c0.121,1.15,0.406,2.11,0.871,2.872C390.809,29.363,389.32,32.979,388.843,38.717z M381.328,47.854
			c0.312-2.606,0.619-5.217,0.928-7.82c2.109,0.251,4.222,0.506,6.33,0.767c-0.321,2.604-0.645,5.21-0.969,7.815
			C385.521,48.358,383.425,48.103,381.328,47.854z"/>
	</g>
</g>
</svg>
