<?xml version="1.0" encoding="utf-8"?>
<!-- Generator: Adobe Illustrator 16.0.0, SVG Export Plug-In . SVG Version: 6.00 Build 0)  -->
<!DOCTYPE svg PUBLIC "-//W3C//DTD SVG 1.1//EN" "http://www.w3.org/Graphics/SVG/1.1/DTD/svg11.dtd">
<svg version="1.1" id="Layer_1" xmlns="http://www.w3.org/2000/svg" xmlns:xlink="http://www.w3.org/1999/xlink" x="0px" y="0px"
	 width="78.25px" height="44.293px" viewBox="0 0 78.25 44.293" enable-background="new 0 0 78.25 44.293" xml:space="preserve">
<g id="Alarm_Light_1_">
	
		<path fill="#A41E23" stroke="#000000" stroke-width="1.08" stroke-linecap="round" stroke-linejoin="round" stroke-miterlimit="10" d="
		M39.175,1C18.304,1,1.374,19.17,1.374,41.581c0,0.515,0,0.998,0.027,1.539c12.313-1.024,24.949-1.539,37.773-1.539
		c12.824,0,25.463,0.515,37.773,1.539c0.027-0.541,0.027-1.024,0.027-1.539C76.977,19.17,60.046,1,39.175,1z"/>
	<g>
		
			<path fill="#2F1110" stroke="#000000" stroke-width="1.08" stroke-linecap="round" stroke-linejoin="round" stroke-miterlimit="10" d="
			M9.351,29.54c-1.9-4.231-1.521-8.975,0.688-13.807C4.63,22.755,1.374,31.759,1.374,41.581c0,0.515,0,0.998,0.027,1.539
			c9.363-0.781,18.916-1.261,28.595-1.447C19.853,40.076,12.237,35.975,9.351,29.54z"/>
	</g>
</g>
</svg>
