<?xml version="1.0" encoding="utf-8"?>
<!-- Generator: Adobe Illustrator 16.0.0, SVG Export Plug-In . SVG Version: 6.00 Build 0)  -->
<!DOCTYPE svg PUBLIC "-//W3C//DTD SVG 1.1//EN" "http://www.w3.org/Graphics/SVG/1.1/DTD/svg11.dtd">
<svg version="1.1" id="Layer_1" xmlns="http://www.w3.org/2000/svg" xmlns:xlink="http://www.w3.org/1999/xlink" x="0px" y="0px"
	 width="85.457px" height="81.53px" viewBox="0 0 85.457 81.53" enable-background="new 0 0 85.457 81.53" xml:space="preserve">
<g id="Tools">
	<g id="Fruit_Icons">
		<g id="Plum">
			
				<path fill="#2F5629" stroke="#000000" stroke-width="1.26" stroke-linecap="round" stroke-linejoin="round" stroke-miterlimit="10" d="
				M50.318,9.339c-1.854,0.962-3.556,2.292-5.006,4.021c-1.077-0.489-2.145-0.797-3.151-0.9
				c-8.136-0.809-15.397,0.206-24.635,11.236c-1.035-0.007-2.575-0.051-3.459-0.092c-1.272-0.049-2.512-0.339-3.687-0.847
				c-2.352-1.008-4.74-2.732-6.208-4.84C1.598,14.231,0.321,9.288,0.321,4.872c0-1.207,0.127-2.318-0.321-3.325
				c1.963-0.208,3.756,1.547,5.584,2.111c2.435,0.757,4.647,2.002,7.257,2.279c4.641,0.492,8.588-0.592,12.92-2.229
				c3.065-1.155,6.224-2.806,9.471-3.421C41.647-0.938,50.243,1.692,50.318,9.339z"/>
			
				<path fill="#55232E" stroke="#000000" stroke-width="1.26" stroke-linecap="round" stroke-linejoin="round" stroke-miterlimit="10" d="
				M78.689,18.031C73.747,9.038,59.948,4.324,50.318,9.339c-1.854,0.962-3.556,2.292-5.006,4.021
				c8.07,3.652,17.134,17.431,12.89,30.938c-3.522,11.232-2.881,12.037-3.076,13.461c0.195-1.424-0.446-2.229,3.076-13.461
				c4.244-13.507-4.819-27.285-12.89-30.938c-1.077-0.489-2.145-0.797-3.151-0.9c-8.136-0.809-15.397,0.206-24.635,11.236
				c-0.488,0.583-0.991,1.198-1.49,1.84C4.614,40.16,19.793,61.027,22.322,64.187C36.229,81.521,62.869,81.397,64.583,81.53
				c1.72,0.131,1.01-2.809,1.876-5.597c0.462-3.614,11.406-9.712,16.576-22.623C88.198,40.417,84.331,28.297,78.689,18.031z"/>
			
				<path fill="#331925" stroke="#000000" stroke-width="1.26" stroke-linecap="round" stroke-linejoin="round" stroke-miterlimit="10" d="
				M59.124,74.991c0,1.153-2.687,2.085-5.993,2.085c-9.026-1.958-20.312-6.223-27.849-15.62
				c-1.613-2.004-8.316-11.151-10.074-21.308c0-0.007,0-0.007,0-0.015c0.121-2.009,2.072-5.918,3.071-6.065
				c0.556,11.473,8.666,22.56,10.455,24.794C36.996,69.166,49.76,73.301,59.124,74.991z"/>
			
				<path fill="#9490A6" stroke="#000000" stroke-width="1.26" stroke-linecap="round" stroke-linejoin="round" stroke-miterlimit="10" d="
				M74.646,18.661c-0.105,0.284-0.368,0.618-0.518,0.77c-0.348,0.352-0.801,0.475-1.195,0.745c-0.563,0.384-1.035,1.157-1.798,1.136
				c-0.336-0.005-0.769-0.339-0.993-0.566c-0.306-0.309-0.531-0.688-0.815-1.018c-0.331-0.381-0.657-0.782-1.018-1.139
				c-0.962-0.947-2.041-1.76-3.177-2.484c-0.391-0.246-0.83-0.387-1.202-0.666c-0.243-0.183-0.633-0.425-0.64-0.778
				c-0.009-0.501,0.561-0.837,0.801-1.215c0.25-0.392,0.468-0.813,0.729-1.197c0.16-0.235,0.501-0.646,0.804-0.696
				c0.336-0.054,0.76,0.164,1.023,0.345c0.339,0.229,0.671,0.413,1.029,0.602c0.729,0.378,1.443,0.784,2.127,1.232
				c1.522,1,3.021,2.253,4.156,3.686c0.126,0.162,0.251,0.327,0.374,0.496c0.083,0.112,0.341,0.358,0.355,0.492
				C74.698,18.479,74.681,18.567,74.646,18.661z"/>
			
				<path fill="#9490A6" stroke="#000000" stroke-width="1.26" stroke-linecap="round" stroke-linejoin="round" stroke-miterlimit="10" d="
				M50.973,23.599c-0.174,0.603-0.958,0.986-1.516,1.369c-0.484,0.334-1.242,1.132-1.899,1.016c-0.32-0.056-0.647-0.464-0.816-0.71
				c-0.273-0.39-0.545-0.763-0.847-1.13c-0.464-0.561-0.951-1.104-1.437-1.647c-0.16-0.179-0.313-0.372-0.483-0.541
				c-0.411-0.415-0.87-0.771-1.329-1.129c-0.24-0.188-0.822-0.604-0.861-0.942c-0.038-0.306,0.289-0.712,0.479-0.917
				c0.286-0.32,0.556-0.633,0.813-0.976c0.333-0.438,0.772-1.491,1.419-1.547c0.473-0.042,1.206,0.655,1.512,0.947
				c0.51,0.485,0.991,1.002,1.487,1.501c0.724,0.721,1.411,1.496,2.05,2.296c0.418,0.523,0.97,0.96,1.293,1.561
				C51.017,23.076,51.043,23.354,50.973,23.599z"/>
		</g>
	</g>
</g>
</svg>
