<?xml version="1.0" encoding="utf-8"?>
<!-- Generator: Adobe Illustrator 16.0.0, SVG Export Plug-In . SVG Version: 6.00 Build 0)  -->
<!DOCTYPE svg PUBLIC "-//W3C//DTD SVG 1.1//EN" "http://www.w3.org/Graphics/SVG/1.1/DTD/svg11.dtd">
<svg version="1.1" id="Layer_1" xmlns="http://www.w3.org/2000/svg" xmlns:xlink="http://www.w3.org/1999/xlink" x="0px" y="0px"
	 width="113.19px" height="63.31px" viewBox="0 0 113.19 63.31" enable-background="new 0 0 113.19 63.31" xml:space="preserve">
<g id="Tools">
	<g id="Fruit_Icons">
		<g id="Bar">
			<g>
				<path fill="#F0EEE4" d="M113.19,28.055V4.68c0-2.58-2.1-4.68-4.681-4.68H4.68C2.1,0,0,2.1,0,4.68v23.375
					c0,1.456,0.682,2.741,1.727,3.601C0.682,32.515,0,33.8,0,35.255v23.376c0,2.58,2.1,4.679,4.68,4.679h103.83
					c2.581,0,4.681-2.099,4.681-4.679V35.255c0-1.455-0.682-2.74-1.728-3.6C112.509,30.796,113.19,29.511,113.19,28.055z M3.96,4.68
					c0-0.397,0.322-0.721,0.72-0.721h103.83c0.397,0,0.721,0.323,0.721,0.721v23.375c0,0.397-0.323,0.721-0.721,0.721H4.68
					c-0.397,0-0.72-0.323-0.72-0.721V4.68z M109.23,58.631c0,0.396-0.323,0.721-0.721,0.721H4.68c-0.397,0-0.72-0.324-0.72-0.721
					V35.255c0-0.397,0.322-0.721,0.72-0.721h103.83c0.397,0,0.721,0.323,0.721,0.721V58.631z"/>
				<path fill="#4BAFA3" d="M108.51,31.655H4.68c-1.988,0-3.6,1.613-3.6,3.6v23.376c0,1.986,1.611,3.6,3.6,3.6h103.83
					c1.988,0,3.601-1.613,3.601-3.6V35.255C112.11,33.269,110.498,31.655,108.51,31.655z M110.311,58.631
					c0,0.993-0.808,1.8-1.801,1.8H4.68c-0.993,0-1.8-0.807-1.8-1.8V35.255c0-0.991,0.807-1.8,1.8-1.8h103.83
					c0.993,0,1.801,0.809,1.801,1.8V58.631z"/>
				
					<path fill="#4BAFA3" stroke="#FFFFFF" stroke-width="1.26" stroke-linecap="round" stroke-linejoin="round" stroke-miterlimit="10" d="
					M108.51,33.455H4.68c-0.993,0-1.8,0.809-1.8,1.8v23.376c0,0.993,0.807,1.8,1.8,1.8h103.83c0.993,0,1.801-0.807,1.801-1.8V35.255
					C110.311,34.264,109.503,33.455,108.51,33.455z"/>
				<path fill="#4BAFA3" d="M108.51,1.08H4.68c-1.988,0-3.6,1.613-3.6,3.6v23.375c0,1.986,1.611,3.601,3.6,3.601h103.83
					c1.988,0,3.601-1.614,3.601-3.601V4.68C112.11,2.693,110.498,1.08,108.51,1.08z M110.311,28.055
					c0,0.993-0.808,1.801-1.801,1.801H4.68c-0.993,0-1.8-0.808-1.8-1.801V4.68c0-0.991,0.807-1.8,1.8-1.8h103.83
					c0.993,0,1.801,0.809,1.801,1.8V28.055z"/>
				
					<path fill="#4BAFA3" stroke="#FFFFFF" stroke-width="1.26" stroke-linecap="round" stroke-linejoin="round" stroke-miterlimit="10" d="
					M108.51,2.88H4.68c-0.993,0-1.8,0.809-1.8,1.8v23.375c0,0.993,0.807,1.801,1.8,1.801h103.83c0.993,0,1.801-0.808,1.801-1.801
					V4.68C110.311,3.688,109.503,2.88,108.51,2.88z"/>
				<g>
					<g>
						<path fill="#F0EEE4" d="M92.782,25.383c-0.15,0-0.296-0.049-0.427-0.144l-5.604-4.096l-0.035,3.178
							c-0.007,0.591-0.387,1.062-0.853,1.062h-5.172c-0.229,0-0.447-0.115-0.607-0.319c-0.16-0.208-0.249-0.485-0.245-0.773
							l0.178-15.877c0.008-0.591,0.387-1.062,0.853-1.062h9.617c0.34,0,0.666,0.007,0.985,0.024l0.927,0.081l0.317,0.042
							c0.194,0.028,0.389,0.06,0.58,0.099l0.33,0.066c0.153,0.032,0.336,0.078,0.514,0.127l0.265,0.074
							c0.219,0.07,0.421,0.144,0.615,0.218c0.008,0.003,0.147,0.053,0.154,0.056c0.246,0.105,0.48,0.215,0.704,0.338
							c0.004,0.004,0.146,0.092,0.151,0.095c0.452,0.261,0.838,0.542,1.178,0.861c1.307,1.217,1.96,2.711,1.942,4.43
							c-0.016,1.351-0.436,3.252-2.347,4.655c-0.417,0.306-1.057,0.583-1.915,0.833l5.969,4.001c0.347,0.231,0.523,0.73,0.429,1.213
							c-0.095,0.481-0.436,0.818-0.827,0.818H92.782z"/>
						<path d="M94.902,9.162c-0.043-0.014-0.088-0.028-0.131-0.046c-0.183-0.07-0.369-0.137-0.564-0.2
							c-0.082-0.024-0.166-0.046-0.251-0.07c-0.163-0.046-0.328-0.088-0.501-0.123c-0.095-0.024-0.194-0.039-0.291-0.06
							c-0.178-0.035-0.36-0.063-0.546-0.092c-0.096-0.014-0.194-0.028-0.293-0.038c-0.194-0.021-0.396-0.039-0.6-0.057
							c-0.098-0.004-0.193-0.014-0.293-0.021c-0.307-0.018-0.62-0.024-0.946-0.024h-9.617l-0.178,15.873h5.172l0.057-4.942v-0.074
							l6.862,5.017h7.676l-8.181-5.484c0.005,0,0.009,0,0.015-0.003c1.405-0.232,3.278-0.644,4.083-1.234
							c1.266-0.928,1.904-2.176,1.922-3.733c0.015-1.357-0.518-2.542-1.597-3.548c-0.302-0.284-0.646-0.53-1.024-0.748
							c-0.046-0.028-0.088-0.057-0.137-0.085C95.337,9.359,95.124,9.257,94.902,9.162z M92.031,15.688
							c-0.157,0.098-0.344,0.183-0.548,0.26c-0.013,0.004-0.021,0.011-0.033,0.014c-0.053,0.021-0.115,0.035-0.172,0.053
							c-0.128,0.039-0.269,0.078-0.414,0.109c-0.042,0.011-0.076,0.024-0.119,0.035c-0.104,0.021-0.219,0.039-0.332,0.057
							c-0.105,0.018-0.22,0.031-0.334,0.045c-0.058,0.004-0.11,0.018-0.171,0.021c-0.222,0.024-0.464,0.039-0.711,0.046
							c-0.105,0.007-0.208,0.011-0.317,0.014c-0.099,0-0.183,0.007-0.286,0.007h-2.641l0.011-0.956l0.044-3.92h2.642
							c1.134,0,2.033,0.12,2.715,0.349c0.268,0.095,0.508,0.196,0.707,0.323c0.125,0.081,0.223,0.169,0.328,0.253
							c0.062,0.049,0.131,0.099,0.185,0.151c0.085,0.084,0.149,0.172,0.215,0.26c0.04,0.053,0.088,0.103,0.121,0.151
							c0.061,0.102,0.101,0.211,0.14,0.316c0.017,0.049,0.045,0.092,0.059,0.141c0.043,0.154,0.064,0.32,0.063,0.492
							C93.173,14.604,92.796,15.191,92.031,15.688z"/>
					</g>
					<g>
						<path fill="#F0EEE4" d="M60.517,25.383c-0.225,0-0.436-0.179-0.561-0.481l-1.021-2.475h-6.232l-1.163,2.521
							c-0.126,0.274-0.327,0.436-0.54,0.436h-5.3c-0.257,0-0.49-0.231-0.604-0.601c-0.114-0.366-0.088-0.809,0.068-1.132
							L52.73,7.773c0.127-0.268,0.324-0.422,0.534-0.422h5.478c0.217,0,0.42,0.165,0.547,0.446l7.135,15.877
							c0.147,0.327,0.169,0.763,0.054,1.121c-0.115,0.362-0.348,0.587-0.6,0.587H60.517z"/>
						<path d="M53.265,8.431L45.7,24.304H51l1.364-2.956h6.211h0.722l1.22,2.956h5.361L58.742,8.431H53.265z M53.78,17.99
							l0.383-0.96l1.383-3.467l0.391-0.98l2.027,5.407H53.78z"/>
					</g>
					<g>
						<path fill="#F0EEE4" d="M12.96,25.383c-0.289,0-0.566-0.115-0.77-0.319c-0.202-0.208-0.314-0.485-0.311-0.773l0.227-15.877
							c0.009-0.591,0.489-1.062,1.08-1.062h9.803c0.614,0,1.188,0.021,1.726,0.066c0.123,0.008,0.247,0.025,0.371,0.043
							c0.509,0.06,0.865,0.102,1.182,0.161c0.125,0.024,0.255,0.057,0.385,0.095l0.176,0.043c0.27,0.063,0.538,0.13,0.778,0.211
							c0.132,0.045,0.253,0.098,0.371,0.15c2.143,0.896,3.198,2.426,3.17,4.465c-0.017,1.104-0.388,2.047-1.104,2.806
							c-0.001,0,0.14,0.05,0.146,0.053c0.836,0.316,1.473,0.703,1.942,1.188c0.861,0.907,1.285,1.973,1.269,3.178
							c-0.021,1.537-0.758,2.841-2.132,3.772c-1.746,1.195-4.355,1.8-7.754,1.8H12.96z"/>
						<path d="M26.519,8.797c-0.155-0.039-0.296-0.085-0.462-0.113c-0.292-0.06-0.621-0.095-0.946-0.13
							c-0.165-0.018-0.312-0.049-0.484-0.06c-0.51-0.042-1.054-0.063-1.637-0.063h-9.803L12.96,24.304h10.555
							c3.187,0,5.577-0.538,7.147-1.613c1.098-0.745,1.643-1.712,1.658-2.897c0.014-0.914-0.308-1.719-0.964-2.408
							c-0.359-0.369-0.878-0.678-1.549-0.932c-0.048-0.018-0.104-0.031-0.153-0.049c-0.27-0.095-0.563-0.18-0.877-0.253
							c-0.099-0.028-0.197-0.05-0.301-0.07c-0.386-0.085-0.789-0.158-1.237-0.218c0.121-0.046,0.228-0.096,0.341-0.141
							c0.154-0.067,0.305-0.134,0.444-0.204c0.517-0.257,0.935-0.545,1.234-0.868c0.527-0.56,0.796-1.252,0.809-2.082
							c0.022-1.603-0.791-2.731-2.393-3.399c-0.139-0.06-0.266-0.126-0.416-0.176C27.031,8.916,26.773,8.856,26.519,8.797z
							 M20.944,11.57c0.43,0,0.781,0.028,1.094,0.066c0.127,0.015,0.267,0.028,0.374,0.053c0.509,0.113,0.888,0.289,1.143,0.521
							c0.018,0.018,0.03,0.035,0.046,0.053c0.094,0.092,0.165,0.197,0.218,0.306c0.018,0.039,0.035,0.074,0.049,0.109
							c0.048,0.137,0.083,0.281,0.079,0.439c-0.005,0.408-0.207,0.756-0.606,1.033c-0.165,0.116-0.379,0.208-0.613,0.285
							c-0.031,0.011-0.062,0.018-0.091,0.028c-0.063,0.014-0.121,0.038-0.188,0.056c-0.052,0.011-0.101,0.025-0.156,0.035
							c-0.028,0.008-0.063,0.008-0.09,0.015c-0.155,0.028-0.313,0.053-0.488,0.07c-0.005,0-0.009,0.003-0.014,0.003
							c-0.045,0.004-0.099,0.004-0.148,0.008c-0.161,0.01-0.331,0.021-0.51,0.024c-0.049,0-0.09,0.003-0.142,0.003H19.69l0.01-0.643
							l0.001-0.081l0.004-0.261l0.03-2.123H20.944z M24.59,20.795c-0.051,0.018-0.124,0.032-0.181,0.05
							c-0.092,0.028-0.187,0.053-0.294,0.077c-0.058,0.011-0.107,0.028-0.169,0.039c-0.016,0.003-0.037,0.007-0.056,0.01
							c-0.103,0.018-0.223,0.032-0.34,0.05c-0.136,0.018-0.26,0.038-0.413,0.053c-0.016,0.003-0.037,0.003-0.055,0.007
							c-0.246,0.021-0.508,0.042-0.797,0.057c-0.078,0.003-0.164,0.007-0.243,0.007c-0.167,0.007-0.351,0.011-0.53,0.011
							c-0.152,0.003-0.285,0.01-0.446,0.01h-1.469l0.011-0.78l0.002-0.183l0.034-2.384h1.347c1.184,0,2.012,0.021,2.493,0.067
							c0.12,0.01,0.204,0.042,0.314,0.063c0.553,0.088,1.003,0.229,1.313,0.433c0.034,0.024,0.069,0.05,0.102,0.07
							c0.155,0.12,0.276,0.261,0.361,0.415c0.015,0.028,0.023,0.057,0.037,0.088c0.076,0.172,0.122,0.355,0.12,0.563
							C25.725,20.089,25.347,20.511,24.59,20.795z"/>
					</g>
				</g>
				<g>
					<g>
						<path fill="#F0EEE4" d="M92.782,55.959c-0.15,0-0.296-0.05-0.427-0.145l-5.604-4.096l-0.035,3.178
							c-0.007,0.591-0.387,1.063-0.853,1.063h-5.172c-0.229,0-0.447-0.116-0.607-0.32c-0.16-0.207-0.249-0.485-0.245-0.773
							l0.178-15.877c0.008-0.59,0.387-1.062,0.853-1.062h9.617c0.34,0,0.666,0.007,0.985,0.024l0.927,0.081l0.317,0.042
							c0.194,0.028,0.389,0.061,0.58,0.099l0.33,0.067c0.153,0.031,0.336,0.077,0.514,0.126l0.265,0.074
							c0.219,0.07,0.421,0.144,0.615,0.218c0.008,0.004,0.147,0.053,0.154,0.057c0.246,0.105,0.48,0.214,0.704,0.337
							c0.004,0.004,0.146,0.092,0.151,0.095c0.452,0.261,0.838,0.542,1.178,0.861c1.307,1.217,1.96,2.711,1.942,4.43
							c-0.016,1.351-0.436,3.252-2.347,4.655c-0.417,0.306-1.057,0.583-1.915,0.833l5.969,4.001
							c0.347,0.231,0.523,0.731,0.429,1.213s-0.436,0.819-0.827,0.819H92.782z"/>
						<path d="M94.902,39.737c-0.043-0.014-0.088-0.028-0.131-0.046c-0.183-0.07-0.369-0.137-0.564-0.2
							c-0.082-0.024-0.166-0.046-0.251-0.07c-0.163-0.046-0.328-0.088-0.501-0.123c-0.095-0.024-0.194-0.038-0.291-0.06
							c-0.178-0.035-0.36-0.063-0.546-0.092c-0.096-0.014-0.194-0.027-0.293-0.038c-0.194-0.021-0.396-0.039-0.6-0.057
							c-0.098-0.003-0.193-0.014-0.293-0.021c-0.307-0.018-0.62-0.025-0.946-0.025h-9.617l-0.178,15.873h5.172l0.057-4.942v-0.074
							l6.862,5.017h7.676l-8.181-5.484c0.005,0,0.009,0,0.015-0.003c1.405-0.232,3.278-0.644,4.083-1.234
							c1.266-0.928,1.904-2.176,1.922-3.733c0.015-1.357-0.518-2.542-1.597-3.547c-0.302-0.285-0.646-0.531-1.024-0.749
							c-0.046-0.028-0.088-0.057-0.137-0.085C95.337,39.935,95.124,39.832,94.902,39.737z M92.031,46.263
							c-0.157,0.099-0.344,0.183-0.548,0.26c-0.013,0.004-0.021,0.011-0.033,0.015c-0.053,0.021-0.115,0.035-0.172,0.053
							c-0.128,0.038-0.269,0.077-0.414,0.108c-0.042,0.011-0.076,0.024-0.119,0.035c-0.104,0.021-0.219,0.039-0.332,0.057
							c-0.105,0.018-0.22,0.031-0.334,0.046c-0.058,0.003-0.11,0.018-0.171,0.021c-0.222,0.024-0.464,0.039-0.711,0.046
							c-0.105,0.007-0.208,0.011-0.317,0.014c-0.099,0-0.183,0.008-0.286,0.008h-2.641l0.011-0.957l0.044-3.92h2.642
							c1.134,0,2.033,0.12,2.715,0.349c0.268,0.095,0.508,0.196,0.707,0.323c0.125,0.081,0.223,0.169,0.328,0.253
							c0.062,0.05,0.131,0.099,0.185,0.151c0.085,0.084,0.149,0.172,0.215,0.26c0.04,0.053,0.088,0.103,0.121,0.151
							c0.061,0.103,0.101,0.211,0.14,0.316c0.017,0.05,0.045,0.092,0.059,0.141c0.043,0.155,0.064,0.32,0.063,0.492
							C93.173,45.18,92.796,45.767,92.031,46.263z"/>
					</g>
					<g>
						<path fill="#F0EEE4" d="M60.517,55.959c-0.225,0-0.436-0.18-0.561-0.482l-1.021-2.475h-6.232l-1.163,2.521
							c-0.126,0.274-0.327,0.437-0.54,0.437h-5.3c-0.257,0-0.49-0.232-0.604-0.602c-0.114-0.365-0.088-0.809,0.068-1.132
							l7.565-15.877c0.127-0.267,0.324-0.422,0.534-0.422h5.478c0.217,0,0.42,0.165,0.547,0.446l7.135,15.877
							c0.147,0.327,0.169,0.763,0.054,1.121c-0.115,0.362-0.348,0.588-0.6,0.588H60.517z"/>
						<path d="M53.265,39.006L45.7,54.879H51l1.364-2.956h6.211h0.722l1.22,2.956h5.361l-7.136-15.873H53.265z M53.78,48.565
							l0.383-0.96l1.383-3.467l0.391-0.98l2.027,5.407H53.78z"/>
					</g>
					<g>
						<path fill="#F0EEE4" d="M12.96,55.959c-0.289,0-0.566-0.116-0.77-0.32c-0.202-0.207-0.314-0.485-0.311-0.773l0.227-15.877
							c0.009-0.59,0.489-1.062,1.08-1.062h9.803c0.614,0,1.188,0.021,1.726,0.067c0.123,0.007,0.247,0.024,0.371,0.042
							c0.509,0.06,0.865,0.102,1.182,0.161c0.125,0.025,0.255,0.057,0.385,0.096l0.176,0.042c0.27,0.063,0.538,0.13,0.778,0.211
							c0.132,0.046,0.253,0.099,0.371,0.151c2.143,0.896,3.198,2.426,3.17,4.465c-0.017,1.104-0.388,2.046-1.104,2.805
							c-0.001,0,0.14,0.05,0.146,0.053c0.836,0.316,1.473,0.703,1.942,1.188c0.861,0.907,1.285,1.973,1.269,3.179
							c-0.021,1.536-0.758,2.84-2.132,3.771c-1.746,1.195-4.355,1.801-7.754,1.801H12.96z"/>
						<path d="M26.519,39.372c-0.155-0.039-0.296-0.085-0.462-0.112c-0.292-0.061-0.621-0.096-0.946-0.131
							c-0.165-0.018-0.312-0.049-0.484-0.06c-0.51-0.042-1.054-0.063-1.637-0.063h-9.803L12.96,54.879h10.555
							c3.187,0,5.577-0.537,7.147-1.613c1.098-0.745,1.643-1.712,1.658-2.896c0.014-0.914-0.308-1.72-0.964-2.408
							c-0.359-0.369-0.878-0.679-1.549-0.932c-0.048-0.018-0.104-0.032-0.153-0.05c-0.27-0.095-0.563-0.179-0.877-0.253
							c-0.099-0.028-0.197-0.049-0.301-0.07c-0.386-0.084-0.789-0.158-1.237-0.218c0.121-0.046,0.228-0.095,0.341-0.141
							c0.154-0.067,0.305-0.134,0.444-0.204c0.517-0.257,0.935-0.545,1.234-0.868c0.527-0.56,0.796-1.252,0.809-2.081
							c0.022-1.604-0.791-2.732-2.393-3.4c-0.139-0.06-0.266-0.126-0.416-0.176C27.031,39.491,26.773,39.432,26.519,39.372z
							 M20.944,42.146c0.43,0,0.781,0.028,1.094,0.067c0.127,0.014,0.267,0.027,0.374,0.053c0.509,0.112,0.888,0.288,1.143,0.52
							c0.018,0.018,0.03,0.035,0.046,0.053c0.094,0.092,0.165,0.197,0.218,0.307c0.018,0.038,0.035,0.073,0.049,0.108
							c0.048,0.138,0.083,0.281,0.079,0.439c-0.005,0.408-0.207,0.756-0.606,1.034c-0.165,0.115-0.379,0.207-0.613,0.284
							c-0.031,0.011-0.062,0.018-0.091,0.028c-0.063,0.014-0.121,0.039-0.188,0.057c-0.052,0.01-0.101,0.024-0.156,0.035
							c-0.028,0.007-0.063,0.007-0.09,0.014c-0.155,0.028-0.313,0.053-0.488,0.07c-0.005,0-0.009,0.004-0.014,0.004
							c-0.045,0.003-0.099,0.003-0.148,0.007c-0.161,0.011-0.331,0.021-0.51,0.024c-0.049,0-0.09,0.004-0.142,0.004H19.69
							l0.01-0.644l0.001-0.081l0.004-0.26l0.03-2.124H20.944z M24.59,51.371c-0.051,0.018-0.124,0.031-0.181,0.049
							c-0.092,0.028-0.187,0.053-0.294,0.077c-0.058,0.011-0.107,0.028-0.169,0.039c-0.016,0.003-0.037,0.007-0.056,0.011
							c-0.103,0.018-0.223,0.031-0.34,0.049c-0.136,0.018-0.26,0.039-0.413,0.053c-0.016,0.004-0.037,0.004-0.055,0.007
							c-0.246,0.021-0.508,0.042-0.797,0.057c-0.078,0.003-0.164,0.007-0.243,0.007c-0.167,0.007-0.351,0.011-0.53,0.011
							c-0.152,0.003-0.285,0.011-0.446,0.011h-1.469l0.011-0.781l0.002-0.183l0.034-2.384h1.347c1.184,0,2.012,0.021,2.493,0.067
							c0.12,0.011,0.204,0.042,0.314,0.063c0.553,0.088,1.003,0.229,1.313,0.432c0.034,0.025,0.069,0.05,0.102,0.07
							c0.155,0.12,0.276,0.261,0.361,0.415c0.015,0.028,0.023,0.057,0.037,0.088c0.076,0.173,0.122,0.355,0.12,0.563
							C25.725,50.664,25.347,51.086,24.59,51.371z"/>
					</g>
				</g>
			</g>
		</g>
	</g>
</g>
</svg>
