<?xml version="1.0" encoding="utf-8"?>
<!-- Generator: Adobe Illustrator 16.0.0, SVG Export Plug-In . SVG Version: 6.00 Build 0)  -->
<!DOCTYPE svg PUBLIC "-//W3C//DTD SVG 1.1//EN" "http://www.w3.org/Graphics/SVG/1.1/DTD/svg11.dtd">
<svg version="1.1" id="Layer_1" xmlns="http://www.w3.org/2000/svg" xmlns:xlink="http://www.w3.org/1999/xlink" x="0px" y="0px"
	 width="111.03px" height="80.914px" viewBox="0 0 111.03 80.914" enable-background="new 0 0 111.03 80.914" xml:space="preserve">
<g id="Tools">
	<g id="Fruit_Icons">
		<g id="Diamond">
			
				<polygon fill="#AFAFAD" stroke="#000000" stroke-width="1.26" stroke-linecap="round" stroke-linejoin="round" stroke-miterlimit="10" points="
				30.832,12.342 18.499,-0.002 6.164,12.342 18.499,24.677 			"/>
			
				<polygon fill="#4F5468" stroke="#000000" stroke-width="1.26" stroke-linecap="round" stroke-linejoin="round" stroke-miterlimit="10" points="
				30.832,-0.002 18.499,-0.002 30.832,12.342 			"/>
			
				<polygon fill="#ABB7D2" stroke="#000000" stroke-width="1.26" stroke-linecap="round" stroke-linejoin="round" stroke-miterlimit="10" points="
				43.177,-0.002 30.832,-0.002 30.832,12.342 			"/>
			
				<polygon fill="#ABB7D2" stroke="#000000" stroke-width="1.26" stroke-linecap="round" stroke-linejoin="round" stroke-miterlimit="10" points="
				67.843,-0.002 55.51,-0.002 55.51,12.342 			"/>
			
				<polygon fill="#E0E0E0" stroke="#000000" stroke-width="1.26" stroke-linecap="round" stroke-linejoin="round" stroke-miterlimit="10" points="
				43.177,24.677 55.51,12.342 43.177,-0.002 30.832,12.342 			"/>
			
				<polygon fill="#4F5468" stroke="#000000" stroke-width="1.26" stroke-linecap="round" stroke-linejoin="round" stroke-miterlimit="10" points="
				55.51,-0.002 43.177,-0.002 55.51,12.342 			"/>
			
				<polygon fill="#ABB7D2" stroke="#000000" stroke-width="1.26" stroke-linecap="round" stroke-linejoin="round" stroke-miterlimit="10" points="
				92.521,-0.002 80.188,-0.002 80.188,12.342 			"/>
			
				<polygon fill="#AFAFAD" stroke="#000000" stroke-width="1.26" stroke-linecap="round" stroke-linejoin="round" stroke-miterlimit="10" points="
				67.843,24.677 80.188,12.342 80.185,12.342 80.185,12.342 80.185,12.342 67.843,-0.002 55.51,12.342 			"/>
			
				<polygon fill="#4F5468" stroke="#000000" stroke-width="1.26" stroke-linecap="round" stroke-linejoin="round" stroke-miterlimit="10" points="
				80.185,12.338 80.185,12.342 80.188,12.342 80.188,-0.002 67.843,-0.002 80.185,12.342 			"/>
			
				<polygon fill="#ABB7D2" stroke="#000000" stroke-width="1.26" stroke-linecap="round" stroke-linejoin="round" stroke-miterlimit="10" points="
				30.832,12.342 30.832,24.677 30.843,24.677 43.177,24.677 			"/>
			
				<polygon fill="#4F5468" stroke="#000000" stroke-width="1.26" stroke-linecap="round" stroke-linejoin="round" stroke-miterlimit="10" points="
				30.832,12.342 18.499,24.677 30.832,24.677 			"/>
			
				<polygon fill="#ABB7D2" stroke="#000000" stroke-width="1.26" stroke-linecap="round" stroke-linejoin="round" stroke-miterlimit="10" points="
				55.51,12.342 55.51,24.677 67.843,24.677 			"/>
			
				<polygon fill="#4F5468" stroke="#000000" stroke-width="1.26" stroke-linecap="round" stroke-linejoin="round" stroke-miterlimit="10" points="
				43.177,24.677 55.51,24.677 55.51,12.342 			"/>
			
				<polygon fill="#4F5468" stroke="#000000" stroke-width="1.26" stroke-linecap="round" stroke-linejoin="round" stroke-miterlimit="10" points="
				67.843,24.677 80.188,24.677 80.188,12.342 			"/>
			
				<polygon fill="#878787" stroke="#000000" stroke-width="1.26" stroke-linecap="round" stroke-linejoin="round" stroke-miterlimit="10" points="
				92.521,24.677 104.855,12.342 92.521,-0.002 80.188,12.342 			"/>
			
				<polygon fill="#4F5468" stroke="#000000" stroke-width="1.26" stroke-linecap="round" stroke-linejoin="round" stroke-miterlimit="10" points="
				104.855,24.677 104.855,12.342 92.521,24.677 			"/>
			
				<polygon fill="#878787" stroke="#000000" stroke-width="1.26" stroke-linecap="round" stroke-linejoin="round" stroke-miterlimit="10" points="
				6.164,12.342 0,24.677 6.164,24.677 			"/>
			
				<polygon fill="#4F5468" stroke="#000000" stroke-width="1.26" stroke-linecap="round" stroke-linejoin="round" stroke-miterlimit="10" points="
				98.687,-0.002 92.521,-0.002 104.855,12.342 			"/>
			
				<polygon fill="#ABB7D2" stroke="#000000" stroke-width="1.26" stroke-linecap="round" stroke-linejoin="round" stroke-miterlimit="10" points="
				12.333,-0.002 6.164,12.342 18.499,-0.002 			"/>
			
				<polygon fill="#ABB7D2" stroke="#000000" stroke-width="1.26" stroke-linecap="round" stroke-linejoin="round" stroke-miterlimit="10" points="
				18.499,24.677 6.164,12.342 6.164,24.677 			"/>
			
				<polygon fill="#ABB7D2" stroke="#000000" stroke-width="1.26" stroke-linecap="round" stroke-linejoin="round" stroke-miterlimit="10" points="
				80.188,12.342 80.188,24.677 92.521,24.677 			"/>
			
				<polygon fill="#ABB7D2" stroke="#000000" stroke-width="1.26" stroke-linecap="round" stroke-linejoin="round" stroke-miterlimit="10" points="
				0,24.677 27.754,52.796 6.164,24.677 			"/>
			
				<polygon fill="#4F5468" stroke="#000000" stroke-width="1.26" stroke-linecap="round" stroke-linejoin="round" stroke-miterlimit="10" points="
				6.164,24.677 37.009,52.796 18.499,24.677 			"/>
			
				<path fill="#878787" stroke="#000000" stroke-width="1.26" stroke-linecap="round" stroke-linejoin="round" stroke-miterlimit="10" d="
				M6.164,24.677l21.59,28.119L55.51,80.914L37.009,52.796L6.164,24.677z M37.005,52.796l0.002,0.002L37.005,52.796z"/>
			
				<polygon fill="#4F5468" stroke="#000000" stroke-width="1.26" stroke-linecap="round" stroke-linejoin="round" stroke-miterlimit="10" points="
				104.855,24.677 83.276,52.796 111.03,24.677 			"/>
			
				<polygon fill="#E0E0E0" stroke="#000000" stroke-width="1.26" stroke-linecap="round" stroke-linejoin="round" stroke-miterlimit="10" points="
				55.51,24.677 49.342,52.796 55.51,80.914 61.678,52.796 			"/>
			
				<path fill="#AFAFAD" stroke="#000000" stroke-width="1.26" stroke-linecap="round" stroke-linejoin="round" stroke-miterlimit="10" d="
				M80.188,24.677l-18.51,28.119L55.51,80.914l18.512-28.118L80.188,24.677z M74.018,52.798v-0.002V52.798z"/>
			
				<path fill="#878787" stroke="#000000" stroke-width="1.26" stroke-linecap="round" stroke-linejoin="round" stroke-miterlimit="10" d="
				M74.021,52.796L55.51,80.914l27.767-28.118l21.579-28.119L74.021,52.796z M83.271,52.798v-0.002V52.798z"/>
			
				<polygon fill="#ABB7D2" stroke="#000000" stroke-width="1.26" stroke-linecap="round" stroke-linejoin="round" stroke-miterlimit="10" points="
				61.678,52.796 80.188,24.677 67.843,24.677 			"/>
			
				<polygon fill="#4F5468" stroke="#000000" stroke-width="1.26" stroke-linecap="round" stroke-linejoin="round" stroke-miterlimit="10" points="
				55.51,24.677 61.678,52.796 67.843,24.677 			"/>
			
				<polygon fill="#4F5468" stroke="#000000" stroke-width="1.26" stroke-linecap="round" stroke-linejoin="round" stroke-miterlimit="10" points="
				80.188,24.677 74.021,52.796 92.521,24.677 			"/>
			
				<polygon fill="#ABB7D2" stroke="#000000" stroke-width="1.26" stroke-linecap="round" stroke-linejoin="round" stroke-miterlimit="10" points="
				74.021,52.796 104.855,24.677 92.521,24.677 			"/>
			
				<polygon fill="#ABB7D2" stroke="#000000" stroke-width="1.26" stroke-linecap="round" stroke-linejoin="round" stroke-miterlimit="10" points="
				49.342,52.796 55.51,24.677 43.177,24.677 			"/>
			
				<polygon fill="#4F5468" stroke="#000000" stroke-width="1.26" stroke-linecap="round" stroke-linejoin="round" stroke-miterlimit="10" points="
				30.843,24.677 49.342,52.796 43.177,24.677 			"/>
			
				<polygon fill="#AFAFAD" stroke="#000000" stroke-width="1.26" stroke-linecap="round" stroke-linejoin="round" stroke-miterlimit="10" points="
				30.843,24.677 37.009,52.796 55.51,80.914 49.342,52.796 			"/>
			
				<polygon fill="#ABB7D2" stroke="#000000" stroke-width="1.26" stroke-linecap="round" stroke-linejoin="round" stroke-miterlimit="10" points="
				18.499,24.677 37.009,52.796 30.843,24.677 30.832,24.677 			"/>
			
				<polygon fill="#ABB7D2" stroke="#000000" stroke-width="1.26" stroke-linecap="round" stroke-linejoin="round" stroke-miterlimit="10" points="
				111.03,24.677 104.855,12.342 104.855,24.677 			"/>
		</g>
	</g>
</g>
</svg>
