<?xml version="1.0" encoding="utf-8"?>
<!-- Generator: Adobe Illustrator 16.0.0, SVG Export Plug-In . SVG Version: 6.00 Build 0)  -->
<!DOCTYPE svg PUBLIC "-//W3C//DTD SVG 1.1//EN" "http://www.w3.org/Graphics/SVG/1.1/DTD/svg11.dtd">
<svg version="1.1" id="Layer_1" xmlns="http://www.w3.org/2000/svg" xmlns:xlink="http://www.w3.org/1999/xlink" x="0px" y="0px"
	 width="113.19px" height="113.189px" viewBox="-9.977 -15.22 113.19 113.189"
	 enable-background="new -9.977 -15.22 113.19 113.189" xml:space="preserve">
<g id="Bar">
	<g>
		<path fill="#F0EEE4" d="M-5.302,9.715c-2.58,0-4.68,2.11-4.68,4.69v23.37c0,1.46,0.69,2.74,1.73,3.6
			c-1.04,0.86-1.73,2.14-1.73,3.6v23.381c0,2.579,2.1,4.68,4.68,4.68h35.92c0.11-0.36,0.21-0.72,0.3-1.08c0.17-0.6,0.34-1.2,0.5-1.8
			c0.1-0.36,0.2-0.721,0.3-1.08h-37.02c-0.39,0-0.72-0.33-0.72-0.72V44.975c0-0.399,0.33-0.72,0.72-0.72h43.87
			c0.1-0.36,0.2-0.72,0.3-1.08c0.17-0.6,0.33-1.2,0.5-1.8c0.16-0.6,0.33-1.2,0.49-1.8c0.1-0.36,0.2-0.72,0.3-1.08h-45.46
			c-0.39,0-0.72-0.32-0.72-0.72v-23.37c0-0.4,0.33-0.73,0.72-0.73h52.29c0.1-0.36,0.2-0.72,0.3-1.08c0.17-0.6,0.33-1.2,0.49-1.8
			c0.109-0.36,0.2-0.72,0.3-1.08H-5.302z"/>
		<path fill="#4BAFA3" d="M-5.302,43.175h44.17c0.17-0.6,0.33-1.2,0.5-1.8h-44.67c-1.98,0-3.6,1.61-3.6,3.6v23.381
			c0,1.979,1.62,3.6,3.6,3.6h36.22c0.17-0.6,0.34-1.2,0.5-1.8h-36.72c-0.99,0-1.8-0.811-1.8-1.8V44.975
			C-7.102,43.985-6.292,43.175-5.302,43.175z"/>
		
			<path fill="#4BAFA3" stroke="#FFFFFF" stroke-width="1.26" stroke-linecap="round" stroke-linejoin="round" stroke-miterlimit="10" d="
			M38.568,44.255c-2.28,8.271-4.56,16.55-6.85,24.82c-0.1,0.359-0.2,0.72-0.3,1.08h-36.72c-0.99,0-1.8-0.811-1.8-1.8V44.975
			c0-0.989,0.81-1.8,1.8-1.8h44.17C38.768,43.535,38.668,43.895,38.568,44.255z"/>
		<path fill="#4BAFA3" d="M-5.302,12.595h52.59c0.17-0.6,0.33-1.2,0.49-1.8h-53.08c-1.98,0-3.6,1.62-3.6,3.61v23.37
			c0,1.99,1.62,3.6,3.6,3.6h44.67c0.16-0.6,0.33-1.2,0.49-1.8h-45.16c-0.99,0-1.8-0.81-1.8-1.8v-23.37
			C-7.102,13.405-6.292,12.595-5.302,12.595z"/>
		
			<path fill="#4BAFA3" stroke="#FFFFFF" stroke-width="1.26" stroke-linecap="round" stroke-linejoin="round" stroke-miterlimit="10" d="
			M47.288,12.595c-0.1,0.36-0.2,0.72-0.3,1.08c-0.31,1.13-0.62,2.27-0.93,3.4c-0.1,0.36-0.2,0.72-0.3,1.08
			c-1.27,4.63-2.55,9.26-3.83,13.89c-0.27,1.02-0.55,2.03-0.83,3.05c-0.31,1.13-0.63,2.27-0.94,3.4c-0.1,0.36-0.2,0.72-0.3,1.08
			h-45.16c-0.99,0-1.8-0.81-1.8-1.8v-23.37c0-1,0.81-1.81,1.8-1.81H47.288z"/>
		<g>
			<g>
				<path fill="#F0EEE4" d="M43.288,17.075h2.77c-0.1,0.36-0.2,0.72-0.3,1.08c-1.27,4.63-2.55,9.26-3.83,13.89
					c-0.27,1.02-0.55,2.03-0.83,3.05c-0.03,0.01-0.05,0.01-0.08,0.01h-5.3c-0.25,0-0.49-0.23-0.6-0.6s-0.09-0.81,0.07-1.13
					l7.56-15.88C42.878,17.225,43.078,17.075,43.288,17.075z"/>
				<path d="M43.288,18.155l-7.57,15.87h5.3l0.91-1.98c1.28-4.63,2.56-9.26,3.83-13.89H43.288z"/>
			</g>
			<g>
				<path fill="#F0EEE4" d="M2.983,35.103c-0.289,0-0.566-0.114-0.771-0.318c-0.202-0.208-0.313-0.485-0.311-0.773l0.227-15.877
					c0.01-0.591,0.489-1.062,1.08-1.062h9.803c0.614,0,1.188,0.021,1.727,0.065c0.123,0.009,0.247,0.025,0.371,0.043
					c0.509,0.061,0.865,0.103,1.182,0.161c0.125,0.024,0.255,0.058,0.385,0.095l0.177,0.044c0.27,0.063,0.538,0.13,0.777,0.211
					c0.132,0.045,0.253,0.098,0.371,0.149c2.144,0.896,3.198,2.426,3.17,4.465c-0.017,1.104-0.388,2.047-1.104,2.807
					c-0.001,0,0.14,0.05,0.146,0.053c0.836,0.316,1.474,0.703,1.942,1.188c0.861,0.907,1.285,1.974,1.269,3.179
					c-0.021,1.537-0.758,2.841-2.132,3.771c-1.746,1.195-4.354,1.8-7.754,1.8H2.983z"/>
				<path d="M21.378,27.105c-0.36-0.37-0.88-0.68-1.55-0.93c-0.05-0.02-0.1-0.03-0.15-0.05c-0.27-0.09-0.56-0.18-0.88-0.25
					c-0.1-0.03-0.2-0.05-0.3-0.07c-0.39-0.09-0.79-0.16-1.24-0.22c0.12-0.05,0.23-0.1,0.34-0.14c0.16-0.07,0.31-0.14,0.45-0.21
					c0.52-0.25,0.93-0.54,1.23-0.86c0.53-0.56,0.8-1.26,0.81-2.09c0.02-1.6-0.79-2.73-2.39-3.4c-0.14-0.05-0.27-0.12-0.42-0.17
					c-0.22-0.08-0.48-0.14-0.74-0.2c-0.15-0.04-0.29-0.08-0.46-0.11c-0.29-0.06-0.62-0.1-0.94-0.13c-0.17-0.02-0.32-0.05-0.49-0.06
					c-0.51-0.04-1.05-0.06-1.63-0.06h-9.81l-0.23,15.87h10.56c3.19,0,5.58-0.54,7.15-1.61c1.09-0.75,1.64-1.72,1.65-2.9
					C22.358,28.595,22.038,27.795,21.378,27.105z M9.718,23.755l0.01-0.08v-0.26l0.03-2.13h1.21v0.01c0.43,0,0.78,0.02,1.09,0.06
					c0.13,0.02,0.27,0.03,0.38,0.05c0.51,0.12,0.88,0.29,1.14,0.52c0.02,0.02,0.03,0.04,0.05,0.06c0.09,0.09,0.16,0.19,0.21,0.3
					c0.02,0.04,0.04,0.08,0.05,0.11c0.05,0.14,0.09,0.28,0.08,0.44c0,0.41-0.2,0.76-0.6,1.04c-0.17,0.11-0.38,0.2-0.62,0.28
					c-0.03,0.01-0.06,0.02-0.09,0.03c-0.06,0.01-0.12,0.04-0.19,0.05c-0.05,0.02-0.1,0.03-0.15,0.04c-0.03,0.01-0.07,0.01-0.09,0.01
					c-0.16,0.03-0.32,0.06-0.49,0.07c-0.01,0-0.01,0.01-0.01,0.01c-0.05,0-0.1,0-0.15,0.01c-0.16,0-0.33,0.02-0.51,0.02h-1.36
					L9.718,23.755z M14.608,30.515c-0.05,0.02-0.12,0.03-0.18,0.05c-0.09,0.03-0.18,0.05-0.29,0.08c-0.06,0.01-0.11,0.02-0.17,0.04
					c-0.02,0-0.04,0-0.06,0.01c-0.1,0.01-0.22,0.03-0.34,0.05c-0.13,0.01-0.26,0.03-0.41,0.05c-0.01,0-0.04,0-0.05,0.01
					c-0.25,0.02-0.51,0.04-0.8,0.05c-0.08,0.01-0.16,0.01-0.24,0.01c-0.17,0.01-0.35,0.01-0.53,0.01c-0.16,0-0.29,0.01-0.45,0.01
					h-1.47l0.01-0.78v-0.18l0.04-2.39h1.35c1.18,0,2.01,0.02,2.49,0.07c0.12,0.01,0.2,0.04,0.31,0.06c0.56,0.09,1.01,0.23,1.32,0.44
					c0.03,0.02,0.06,0.05,0.1,0.07c0.15,0.12,0.27,0.26,0.36,0.41c0.01,0.03,0.02,0.06,0.04,0.09c0.07,0.17,0.12,0.36,0.12,0.56
					C15.748,29.805,15.368,30.235,14.608,30.515z"/>
			</g>
		</g>
		<g>
			<g>
				<path fill="#F0EEE4" d="M2.983,65.679c-0.289,0-0.566-0.115-0.771-0.319c-0.202-0.207-0.313-0.485-0.311-0.773l0.227-15.877
					c0.01-0.59,0.489-1.062,1.08-1.062h9.803c0.614,0,1.188,0.021,1.727,0.066c0.123,0.007,0.247,0.024,0.371,0.042
					c0.509,0.061,0.865,0.103,1.182,0.161c0.125,0.025,0.255,0.057,0.385,0.096l0.177,0.042c0.27,0.063,0.538,0.13,0.777,0.211
					c0.132,0.046,0.253,0.1,0.371,0.151c2.144,0.896,3.198,2.426,3.17,4.465c-0.017,1.104-0.388,2.046-1.104,2.805
					c-0.001,0,0.14,0.051,0.146,0.054c0.836,0.315,1.474,0.703,1.942,1.188c0.861,0.907,1.285,1.974,1.269,3.18
					c-0.021,1.535-0.758,2.84-2.132,3.771c-1.746,1.195-4.354,1.801-7.754,1.801H2.983z"/>
				<path d="M21.378,57.685c-0.36-0.369-0.88-0.68-1.55-0.93c-0.05-0.02-0.1-0.04-0.15-0.05c-0.27-0.1-0.56-0.18-0.88-0.26
					c-0.1-0.03-0.2-0.051-0.3-0.07c-0.39-0.08-0.79-0.16-1.24-0.22c0.12-0.04,0.23-0.09,0.34-0.141c0.16-0.06,0.31-0.13,0.45-0.199
					c0.52-0.261,0.93-0.551,1.23-0.87c0.53-0.561,0.8-1.25,0.81-2.08c0.02-1.601-0.79-2.73-2.39-3.4c-0.14-0.06-0.27-0.13-0.42-0.18
					c-0.22-0.07-0.48-0.13-0.74-0.19c-0.15-0.04-0.29-0.09-0.46-0.109c-0.29-0.07-0.62-0.101-0.94-0.141
					c-0.17-0.01-0.32-0.05-0.49-0.06c-0.51-0.04-1.05-0.061-1.63-0.061h-9.81l-0.23,15.87h10.56c3.19,0,5.58-0.529,7.15-1.609
					c1.09-0.74,1.64-1.71,1.65-2.9C22.358,59.175,22.038,58.375,21.378,57.685z M9.718,54.335l0.01-0.09v-0.26l0.03-2.12h1.21
					c0.43,0,0.78,0.029,1.09,0.069c0.13,0.011,0.27,0.021,0.38,0.051c0.51,0.109,0.88,0.29,1.14,0.52
					c0.02,0.021,0.03,0.04,0.05,0.05c0.09,0.101,0.16,0.2,0.21,0.311c0.02,0.04,0.04,0.069,0.05,0.109
					c0.05,0.141,0.09,0.28,0.08,0.44c0,0.41-0.2,0.75-0.6,1.03c-0.17,0.12-0.38,0.21-0.62,0.29c-0.03,0.01-0.06,0.01-0.09,0.02
					c-0.06,0.021-0.12,0.04-0.19,0.061c-0.05,0.01-0.1,0.02-0.15,0.04c-0.03,0-0.07,0-0.09,0.01c-0.16,0.029-0.32,0.05-0.49,0.069
					c-0.01,0-0.01,0-0.01,0c-0.05,0.011-0.1,0.011-0.15,0.011c-0.16,0.01-0.33,0.02-0.51,0.02c-0.05,0-0.09,0.01-0.14,0.01h-1.22
					L9.718,54.335z M14.608,61.095c-0.05,0.011-0.12,0.03-0.18,0.04c-0.09,0.03-0.18,0.061-0.29,0.08
					c-0.06,0.01-0.11,0.03-0.17,0.04c-0.02,0-0.04,0.01-0.06,0.01c-0.1,0.021-0.22,0.03-0.34,0.051c-0.13,0.02-0.26,0.04-0.41,0.05
					c-0.01,0.01-0.04,0.01-0.05,0.01c-0.25,0.02-0.51,0.04-0.8,0.06c-0.08,0-0.16,0.011-0.24,0.011c-0.17,0-0.35,0.01-0.53,0.01
					c-0.16,0-0.29,0.01-0.45,0.01h-1.47l0.01-0.78v-0.189l0.04-2.38h1.35c1.18,0,2.01,0.02,2.49,0.069
					c0.12,0.011,0.2,0.04,0.31,0.061c0.56,0.09,1.01,0.229,1.32,0.43c0.03,0.03,0.06,0.05,0.1,0.07c0.15,0.12,0.27,0.26,0.36,0.42
					c0.01,0.02,0.02,0.05,0.04,0.08c0.07,0.18,0.12,0.36,0.12,0.57C15.748,60.385,15.368,60.805,14.608,61.095z"/>
			</g>
		</g>
	</g>
</g>
<g id="Tools">
	<g id="Fruit_Icons">
		<g id="Banana_1_">
			
				<path fill="#68522E" stroke="#000000" stroke-width="1.53" stroke-linecap="round" stroke-linejoin="round" stroke-miterlimit="10" d="
				M99.9-7.288c-3.338,0-3.338,0-3.338-0.878c0.64-0.36,1.357-0.705,1.888-0.699C99.833-8.843,99.707-8.434,99.9-7.288z"/>
			
				<path fill="#F0DC11" stroke="#000000" stroke-width="1.53" stroke-linecap="round" stroke-linejoin="round" stroke-miterlimit="10" d="
				M103.018,15.135c-0.62,13.82-6.95,27.91-15.131,38.16c-3.26,3.51-6.93,7.16-10.289,9.86c-3.021,2.689-7.32,5.47-10.94,8.31
				c-4.97,3.26-9.67,6.48-13.72,9.141c-1.32,0.77-3.04,1.72-4.99,2.729c2.33-8.68,4.689-17.35,7.05-26.02
				c0.4-1.46,0.8-2.931,1.19-4.391c0.529-1.92,1.06-3.85,1.58-5.77c0.84-3.061,1.68-6.12,2.51-9.18c0.37-1.33,0.729-2.66,1.1-3.99
				c0.36-0.32,0.721-0.63,1.08-0.95c2.79-2.82,5.47-5.62,7.78-9.03c1.91-2.93,3.649-6.08,5.46-9.21c2.89-4.9,5.72-9.91,9.67-14.32
				c3.51-3.17,6.62-5.77,10.14-8.06c0.28-0.14,0.65-0.36,1.051-0.59v0.01c0,0.27,0,0.46,0.1,0.59c0.229,0.28,0.94,0.28,3.24,0.28
				v0.01c0.04,0.18,0.069,0.36,0.13,0.58c0.899,2.37,2.02,4.78,2.45,7.4C103.568,5.245,103.228,10.445,103.018,15.135z"/>
			
				<path fill="none" stroke="#000000" stroke-width="1.53" stroke-linecap="round" stroke-linejoin="round" stroke-miterlimit="10" d="
				M94.848,8.425c-0.79,4.18-3.66,9.14-5.681,13.29c-3.729,6.85-7.3,13.79-13.09,19.13c-6.63,6.12-13.69,11.52-21.08,16.47"/>
			
				<path fill="#EDE6B1" stroke="#000000" stroke-width="1.53" stroke-linecap="round" stroke-linejoin="round" stroke-miterlimit="10" d="
				M60.758,49.685c-1.51,1.11-3.029,2.19-4.569,3.24c0.529-1.92,1.06-3.85,1.58-5.77C58.808,47.605,60.738,49.175,60.758,49.685z"/>
			
				<path fill="#EDE6B1" stroke="#000000" stroke-width="1.53" stroke-linecap="round" stroke-linejoin="round" stroke-miterlimit="10" d="
				M95.135,0.153c-0.204,1.516-1.634,1.109-3.369,0.747c-1.705-0.606-2.402-1.721,0.51-3.957c2.15-1.599,3.236-2.113,3.486-1.802
				C95.807-4.586,95.667-2.351,95.135,0.153z"/>
		</g>
	</g>
</g>
<g>
	<path fill-rule="evenodd" clip-rule="evenodd" fill="#B37B2D" d="M63.381-14.479c8.791,0.005,10.638,2.296,8.372,10.583
		C63.195,27.438,54.524,58.74,46.131,90.118c-1.103,4.124-3.818,6.051-7.187,6.681c-4.055,0.759-8.474,1.015-12.014-2.103
		c-1.622-1.428-1.393-3.249-0.857-5.183C35.165,56.632,44.225,23.741,53.27-9.154C54.762-14.572,59.066-14.498,63.381-14.479z
		 M39.746,90.128C48.57,57.733,57.348,25.514,66.08-6.533c-2.779-1.907-4.903-1.864-7.275-0.169
		C50.05,25.27,41.25,57.413,32.375,89.823C35.354,90.619,37.131,90.948,39.746,90.128z"/>
	<path fill-rule="evenodd" clip-rule="evenodd" fill="#F8EEBD" d="M39.746,90.128c-2.615,0.82-4.392,0.491-7.371-0.305
		C41.25,57.413,50.05,25.27,58.804-6.702c2.372-1.695,4.496-1.738,7.275,0.169C57.348,25.514,48.57,57.733,39.746,90.128z"/>
</g>
</svg>
