<?xml version="1.0" encoding="utf-8"?>
<!-- Generator: Adobe Illustrator 16.0.0, SVG Export Plug-In . SVG Version: 6.00 Build 0)  -->
<!DOCTYPE svg PUBLIC "-//W3C//DTD SVG 1.1//EN" "http://www.w3.org/Graphics/SVG/1.1/DTD/svg11.dtd">
<svg version="1.1" id="Layer_1" xmlns="http://www.w3.org/2000/svg" xmlns:xlink="http://www.w3.org/1999/xlink" x="0px" y="0px"
	 width="93.237px" height="82.75px" viewBox="0 0 93.237 82.75" enable-background="new 0 0 93.237 82.75" xml:space="preserve">
<g id="Tools">
	<g id="Fruit_Icons">
		<g id="Banana">
			
				<path fill="#68522E" stroke="#000000" stroke-width="1.26" stroke-linecap="round" stroke-linejoin="round" stroke-miterlimit="10" d="
				M90.489,1.299c-2.749,0-2.749,0-2.749-0.724c0.527-0.296,1.118-0.58,1.554-0.575C90.433,0.018,90.329,0.355,90.489,1.299z"/>
			
				<path fill="#D3A72A" stroke="#000000" stroke-width="1.26" stroke-linecap="round" stroke-linejoin="round" stroke-miterlimit="10" d="
				M5.409,78.027c-1.517,0.224-3.12,1.281-4.672,0.577C-0.15,78.21-0.098,75.25,0.18,74.927c0.612-0.698,1.375-1.132,2.201-1.454
				c0,1.159,0,1.159,1.362,1.159C5.409,74.632,5.409,74.632,5.409,78.027z"/>
			
				<path fill="#F0DC11" stroke="#000000" stroke-width="1.26" stroke-linecap="round" stroke-linejoin="round" stroke-miterlimit="10" d="
				M93.054,19.767c-0.508,11.378-5.725,22.985-12.457,31.426c-2.683,2.892-5.704,5.899-8.472,8.12
				c-2.49,2.216-6.029,4.501-9.012,6.843c-4.094,2.681-7.967,5.337-11.303,7.53c-3.586,2.096-10.83,5.847-16.62,7.65
				c-7.659,2.05-15.607,2.197-22.625-1.769c-2.067-1.174-4.693-1.896-7.156-1.54c0-3.396,0-3.396-1.666-3.396
				c-1.362,0-1.362,0-1.362-1.159c1.849-0.732,4.001-0.905,5.502-2.279c1.332-1.224,2.026-3.092,3.287-4.478
				c1.585-2.318,3.199-4.614,5.623-6.395c5.067-5.699,11.536-8.728,18.712-10.641c8.673-3.54,16.899-8.75,24.148-15.17
				c2.296-2.323,4.508-4.63,6.409-7.437c1.571-2.417,3.006-5.01,4.493-7.589c2.384-4.036,4.713-8.16,7.967-11.788
				c2.89-2.612,5.45-4.753,8.35-6.645c0.229-0.112,0.536-0.295,0.868-0.478c0,0.724,0,0.724,2.749,0.724
				c0.028,0.145,0.057,0.303,0.102,0.481c0.74,1.953,1.667,3.935,2.019,6.093C93.513,11.617,93.228,15.899,93.054,19.767z"/>
			
				<path fill="#F0DC11" stroke="#000000" stroke-width="1.26" stroke-linecap="round" stroke-linejoin="round" stroke-miterlimit="10" d="
				M20.585,70.44c0.664-0.741,2.123-0.756,3.042-1.107c1.18-0.457,2.171-0.967,3.427-1.321c4.542-1.283,8.884-2.936,13.004-5.265
				c11.035-6.246,21.452-13.168,30.808-21.804c4.771-4.402,7.713-10.12,10.782-15.759c1.666-3.418,4.029-7.503,4.678-10.941"/>
			
				<path fill="#EDE6B1" stroke="#000000" stroke-width="1.26" stroke-linecap="round" stroke-linejoin="round" stroke-miterlimit="10" d="
				M58.251,48.215c-6.087,4.472-12.494,8.47-19.125,12.221c-3.02,1.705-6.156,3.052-9.408,4.151
				c8.378-3.745,25.204-15.915,25.703-18.559C56.047,46.028,58.233,47.723,58.251,48.215z"/>
			
				<path fill="#EDE6B1" stroke="#000000" stroke-width="1.26" stroke-linecap="round" stroke-linejoin="round" stroke-miterlimit="10" d="
				M86.565,7.427c-0.168,1.248-1.346,0.914-2.775,0.615c-1.404-0.499-1.978-1.417,0.42-3.259c1.771-1.316,2.665-1.74,2.871-1.483
				C87.118,3.524,87.002,5.365,86.565,7.427z"/>
		</g>
	</g>
</g>
</svg>
