<?xml version="1.0" encoding="utf-8"?>
<!-- Generator: Adobe Illustrator 16.0.0, SVG Export Plug-In . SVG Version: 6.00 Build 0)  -->
<!DOCTYPE svg PUBLIC "-//W3C//DTD SVG 1.1//EN" "http://www.w3.org/Graphics/SVG/1.1/DTD/svg11.dtd">
<svg version="1.1" id="Layer_1" xmlns="http://www.w3.org/2000/svg" xmlns:xlink="http://www.w3.org/1999/xlink" x="0px" y="0px"
	 width="64px" height="64px" viewBox="0 0 64 64" enable-background="new 0 0 64 64" xml:space="preserve">
<g>
	<g>
		
			<path fill="#FFFFFF" stroke="#000000" stroke-width="0.8755" stroke-linecap="round" stroke-linejoin="round" stroke-miterlimit="10" d="
			M12.265,43.689c-4.018,0-7.283-2.92-7.283-6.512V26.821c0-3.592,3.266-6.512,7.283-6.512h28.193c4.084,0,16.69,8.854,18.117,9.861
			c0.276,0.199,0.442,0.518,0.442,0.855v1.946c0,0.34-0.166,0.657-0.442,0.856c-1.427,1.008-14.033,9.86-18.117,9.86H12.265V43.689z
			"/>
		
			<path fill="#FFFFFF" stroke="#000000" stroke-width="0.8755" stroke-linecap="round" stroke-linejoin="round" stroke-miterlimit="10" d="
			M57.966,32.973c0,0-13.641,9.67-17.508,9.67H12.265c-3.443,0-6.234-2.445-6.234-5.463V26.821c0-3.016,2.791-5.463,6.234-5.463
			h28.193c3.867,0,17.508,9.668,17.508,9.668V32.973z"/>
	</g>
	<g display="none">
		
			<path display="inline" fill="#BA7C2B" stroke="#000000" stroke-width="0.8755" stroke-linecap="round" stroke-linejoin="round" stroke-miterlimit="10" d="
			M309.443,35.809c-4.018,0-7.283-2.92-7.283-6.513V18.938c0-3.592,3.268-6.512,7.283-6.512h28.193
			c4.084,0,16.693,8.854,18.117,9.861c0.277,0.199,0.443,0.518,0.443,0.855v1.945c0,0.34-0.166,0.658-0.443,0.857
			c-1.424,1.008-14.033,9.861-18.117,9.861h-28.193V35.809z"/>
		
			<path display="inline" fill="#BA7C2B" stroke="#000000" stroke-width="0.8755" stroke-linecap="round" stroke-linejoin="round" stroke-miterlimit="10" d="
			M355.146,25.089c0,0-13.643,9.671-17.51,9.671h-28.193c-3.439,0-6.23-2.446-6.23-5.464V18.938c0-3.016,2.791-5.463,6.23-5.463
			h28.193c3.867,0,17.51,9.668,17.51,9.668V25.089z"/>
	</g>
	<g display="none">
		
			<path display="inline" fill="#BA7C2B" stroke="#000000" stroke-width="0.8755" stroke-linecap="round" stroke-linejoin="round" stroke-miterlimit="10" d="
			M606.172,35.809c-4.018,0-7.283-2.92-7.283-6.513V18.938c0-3.592,3.266-6.512,7.283-6.512h28.193
			c4.084,0,16.693,8.854,18.119,9.861c0.277,0.199,0.441,0.518,0.441,0.855v1.945c0,0.34-0.164,0.658-0.441,0.857
			c-1.426,1.008-14.035,9.861-18.119,9.861h-28.193V35.809z"/>
		
			<path display="inline" fill="#BA7C2B" stroke="#000000" stroke-width="0.8755" stroke-linecap="round" stroke-linejoin="round" stroke-miterlimit="10" d="
			M651.873,25.089c0,0-13.639,9.671-17.508,9.671h-28.193c-3.439,0-6.232-2.446-6.232-5.464V18.938c0-3.016,2.793-5.463,6.232-5.463
			h28.193c3.869,0,17.508,9.668,17.508,9.668V25.089z"/>
	</g>
	<g display="none">
		
			<path display="inline" fill="#BA7C2B" stroke="#000000" stroke-width="0.8755" stroke-linecap="round" stroke-linejoin="round" stroke-miterlimit="10" d="
			M576.977,35.809c4.016,0,7.281-2.92,7.281-6.513V18.938c0-3.592-3.266-6.512-7.281-6.512h-28.191
			c-4.084,0-16.695,8.854-18.121,9.861c-0.273,0.199-0.441,0.518-0.441,0.855v1.945c0,0.34,0.168,0.658,0.441,0.857
			c1.426,1.008,14.037,9.861,18.121,9.861h28.191V35.809z"/>
		
			<path display="inline" fill="#BA7C2B" stroke="#000000" stroke-width="0.8755" stroke-linecap="round" stroke-linejoin="round" stroke-miterlimit="10" d="
			M531.273,25.089c0,0,13.641,9.671,17.512,9.671h28.191c3.439,0,6.229-2.446,6.229-5.464V18.938c0-3.016-2.789-5.463-6.229-5.463
			h-28.191c-3.871,0-17.512,9.668-17.512,9.668V25.089z"/>
	</g>
	<g display="none">
		
			<path display="inline" fill="#BA7C2B" stroke="#000000" stroke-width="0.8755" stroke-linecap="round" stroke-linejoin="round" stroke-miterlimit="10" d="
			M280.247,35.809c4.019,0,7.282-2.92,7.282-6.513V18.938c0-3.592-3.266-6.512-7.282-6.512h-28.19
			c-4.084,0-16.693,8.854-18.119,9.861c-0.277,0.199-0.443,0.518-0.443,0.855v1.945c0,0.34,0.166,0.658,0.443,0.857
			c1.426,1.008,14.035,9.861,18.119,9.861h28.19V35.809z"/>
		
			<path display="inline" fill="#BA7C2B" stroke="#000000" stroke-width="0.8755" stroke-linecap="round" stroke-linejoin="round" stroke-miterlimit="10" d="
			M234.545,25.089c0,0,13.641,9.671,17.51,9.671h28.191c3.441,0,6.234-2.446,6.234-5.464V18.938c0-3.016-2.793-5.463-6.234-5.463
			h-28.191c-3.869,0-17.51,9.668-17.51,9.668V25.089L234.545,25.089z"/>
	</g>
</g>
</svg>
