<?xml version="1.0" encoding="utf-8"?>
<!-- Generator: Adobe Illustrator 16.0.0, SVG Export Plug-In . SVG Version: 6.00 Build 0)  -->
<!DOCTYPE svg PUBLIC "-//W3C//DTD SVG 1.1//EN" "http://www.w3.org/Graphics/SVG/1.1/DTD/svg11.dtd">
<svg version="1.1" id="Layer_1" xmlns="http://www.w3.org/2000/svg" xmlns:xlink="http://www.w3.org/1999/xlink" x="0px" y="0px"
	 width="256px" height="128px" viewBox="-127.5 256.5 256 128" enable-background="new -127.5 256.5 256 128" xml:space="preserve">
<g>
	<path fill="#898989" stroke="#777777" stroke-linecap="round" stroke-linejoin="round" stroke-miterlimit="10" d="M89.751,257.345
		l-6.901,10.059h-164.7l-6.901-10.059C-88.288,256.219,89.288,256.219,89.751,257.345z"/>
	<path fill="#7F7F7F" stroke="#777777" stroke-linecap="round" stroke-linejoin="round" stroke-miterlimit="10" d="M-81.85,267.403
		c0,19.445-15.747,35.202-35.18,35.202l-9.949-7.021c23.526-5.623,34.654-19.887,38.228-38.239L-81.85,267.403z"/>
	<path fill="#898989" stroke="#777777" stroke-linecap="round" stroke-linejoin="round" stroke-miterlimit="10" d="
		M-117.029,302.605v35.789l-9.949,7.021c-0.695-0.75-0.695-49.082,0-49.832L-117.029,302.605z"/>
	<path fill="#737373" stroke="#777777" stroke-linecap="round" stroke-linejoin="round" stroke-miterlimit="10" d="M118.029,302.605
		v35.789c-19.434,0-35.18,15.756-35.18,35.201h-164.7c0-19.445-15.747-35.201-35.18-35.201v-35.789
		c19.433,0,35.18-15.757,35.18-35.202h164.7C82.85,286.849,98.596,302.605,118.029,302.605z"/>
	<path fill="#6F6F6F" stroke="#777777" stroke-linecap="round" stroke-linejoin="round" stroke-miterlimit="10" d="M127.979,295.584
		l-9.949,7.021c-19.434,0-35.18-15.757-35.18-35.202l6.901-10.059C93.16,274.854,108.287,290.877,127.979,295.584z"/>
	<path fill="#626262" stroke="#777777" stroke-linecap="round" stroke-linejoin="round" stroke-miterlimit="10" d="M127.979,345.416
		l-9.949-7.021v-35.789l9.949-7.021C128.674,296.334,128.674,344.666,127.979,345.416z"/>
	<path fill="#626262" stroke="#777777" stroke-linecap="round" stroke-linejoin="round" stroke-miterlimit="10" d="M89.751,383.654
		c-0.463,1.127-178.039,1.127-178.502,0l6.901-10.059h164.7L89.751,383.654z"/>
	<path fill="#6F6F6F" stroke="#777777" stroke-linecap="round" stroke-linejoin="round" stroke-miterlimit="10" d="M-81.85,373.596
		l-6.901,10.061c-3.451-17.723-15.327-32.766-38.228-38.239l9.949-7.021C-97.596,338.395-81.85,354.15-81.85,373.596z"/>
	<path fill="#5E5E5E" stroke="#777777" stroke-linecap="round" stroke-linejoin="round" stroke-miterlimit="10" d="M127.979,345.416
		c-20.273,4.848-34.56,19.402-38.228,38.238l-6.901-10.059c0-19.445,15.746-35.201,35.18-35.201L127.979,345.416z"/>
</g>
</svg>
