<?xml version="1.0" encoding="utf-8"?>
<!-- Generator: Adobe Illustrator 16.0.0, SVG Export Plug-In . SVG Version: 6.00 Build 0)  -->
<!DOCTYPE svg PUBLIC "-//W3C//DTD SVG 1.1//EN" "http://www.w3.org/Graphics/SVG/1.1/DTD/svg11.dtd">
<svg version="1.1" id="Layer_1" xmlns="http://www.w3.org/2000/svg" xmlns:xlink="http://www.w3.org/1999/xlink" x="0px" y="0px"
	 width="128px" height="128px" viewBox="0 0 128 128" enable-background="new 0 0 128 128" xml:space="preserve">
<g>
	<g>
		
			<linearGradient id="SVGID_1_" gradientUnits="userSpaceOnUse" x1="32.9277" y1="64.2891" x2="158.8901" y2="64.2891" gradientTransform="matrix(1 -0.0054 0.0054 1 -32.1014 28.2897)">
			<stop  offset="0" style="stop-color:#E6C7A7"/>
			<stop  offset="0.0806" style="stop-color:#E7CEB4"/>
			<stop  offset="0.2154" style="stop-color:#E7D7C4"/>
			<stop  offset="0.3564" style="stop-color:#E8DCCE"/>
			<stop  offset="0.512" style="stop-color:#E8DED1"/>
			<stop  offset="0.6384" style="stop-color:#E7DCCE"/>
			<stop  offset="0.7595" style="stop-color:#E4D5C3"/>
			<stop  offset="0.8786" style="stop-color:#E0CAB2"/>
			<stop  offset="0.9958" style="stop-color:#D9BB9B"/>
			<stop  offset="1" style="stop-color:#D9BB9A"/>
		</linearGradient>
		<path fill="url(#SVGID_1_)" stroke="#010101" stroke-width="0.4" stroke-miterlimit="10" d="M126.941,56.333l0.078,14.832
			c0.036,6.465-1.675,13.819-4.829,20.298c-3.145,8.318-7.749,12.173-13.389,18.835c-5.692,4.075-12.44,11.006-19.958,12.012
			c-7.53,0.48-15.812,2.194-24.505,4.345c-8.698,2.041-16.999,0.148-24.542-3.534c-7.556-5.835-14.346-4.56-20.099-12.344
			c-5.718-8.055-10.346-9.435-13.575-17.236c-3.229-7.207-5.017-13.397-5.063-21.7L0.981,57.009
			c0.044,8.308,1.833,14.492,5.062,21.7c0.676,1.612,1.416,2.956,2.22,4.196c2.99,4.401,6.836,6.642,11.357,12.988
			c5.754,7.837,12.541,6.556,20.096,12.394c7.543,3.628,15.844,5.577,24.54,3.539c8.698-2.205,16.98-3.916,24.505-4.337
			c7.52-1.009,14.27-7.95,19.958-12.074c4.441-5.199,8.215-8.669,11.148-14.023c0.824-1.404,1.579-3.033,2.243-4.814
			C125.263,70.15,126.973,62.805,126.941,56.333z"/>
		
			<line fill="none" stroke="#CFA686" stroke-width="0.24" stroke-miterlimit="10" x1="19.62" y1="95.893" x2="19.698" y2="110.778"/>
		
			<line fill="none" stroke="#CFA686" stroke-width="0.24" stroke-miterlimit="10" x1="88.761" y1="107.488" x2="88.844" y2="122.311"/>
		<path fill="none" stroke="#010101" stroke-width="0.4" stroke-miterlimit="10" d="M126.941,56.333l0.078,14.832
			c0.036,6.465-1.675,13.819-4.829,20.298c-3.145,8.318-7.749,12.173-13.389,18.835c-5.692,4.075-12.44,11.006-19.958,12.012
			c-7.53,0.48-15.812,2.194-24.505,4.345c-8.698,2.041-16.999,0.148-24.542-3.534c-7.556-5.835-14.346-4.56-20.099-12.344
			c-5.718-8.055-10.346-9.435-13.575-17.236c-3.229-7.207-5.017-13.397-5.063-21.7L0.981,57.009
			c0.044,8.308,1.833,14.492,5.062,21.7c0.676,1.612,1.416,2.956,2.22,4.196c2.99,4.401,6.836,6.642,11.357,12.988
			c5.754,7.837,12.541,6.556,20.096,12.394c7.543,3.628,15.844,5.577,24.54,3.539c8.698-2.205,16.98-3.916,24.505-4.337
			c7.52-1.009,14.27-7.95,19.958-12.074c4.441-5.199,8.215-8.669,11.148-14.023c0.824-1.404,1.579-3.033,2.243-4.814
			C125.263,70.15,126.973,62.805,126.941,56.333z"/>
		<path fill="#F4EFC5" stroke="#010101" stroke-width="0.4207" stroke-miterlimit="10" d="M126.941,56.333
			c0.032,6.472-1.679,13.817-4.831,20.244c-0.664,1.781-1.419,3.41-2.243,4.814c-2.933,5.354-6.707,8.825-11.148,14.023
			c-5.688,4.124-12.438,11.065-19.958,12.074c-7.525,0.421-15.808,2.132-24.505,4.337c-8.696,2.039-16.997,0.09-24.54-3.539
			c-7.555-5.838-14.342-4.557-20.096-12.394c-4.521-6.346-8.367-8.586-11.357-12.988c-0.804-1.24-1.544-2.583-2.22-4.196
			c-3.229-7.208-5.018-13.393-5.062-21.7c-0.038-7.061,1.671-16.022,4.833-21.214c3.175-2.765,7.749-11.359,13.39-17.86
			c5.676-6.175,12.467-6.755,19.96-13.098c7.502-3.711,15.793-3.918,24.5-3.312c8.708,0.166,16.975-4.137,24.548,3.798
			c7.551,4.814,14.351,6.936,20.089,12.134c5.674,0.082,10.375,13.794,13.589,18.363C125.109,41.518,126.896,47.925,126.941,56.333z
			"/>
	</g>
	<g>
		<g>
			<path fill="#A7825F" d="M30.979,60.432C41.1,46.209,43.048,39.497,46.029,25.9c2.107,18.078,3.847,19.18,11.54,24.049
				c0.768,0.486,1.596,1.01,2.49,1.594c-2.549-0.277-4.752-0.413-6.714-0.413C44.264,51.13,39.324,53.975,30.979,60.432z
				 M45.395,34.937c-1.618,5.979-3.673,11.523-8.443,19.14l-0.484,0.773l0.779-0.475c5.172-3.154,9.767-4.452,15.858-4.481
				l0.276-0.001c0.314,0,0.63,0.005,0.953,0.011l0.735,0.014l-0.611-0.408c-5.132-3.429-7.1-6.013-8.643-14.554l-0.17-0.942
				L45.395,34.937z"/>
			<path fill="#F1D089" d="M45.966,27.188c2.071,16.983,4.088,18.261,11.487,22.944c0.54,0.342,1.12,0.709,1.734,1.104
				c-2.183-0.216-4.107-0.321-5.843-0.321c-8.729,0-13.651,2.604-21.371,8.481C41.109,46.352,43.204,39.632,45.966,27.188
				 M35.8,55.509l1.559-0.95c5.136-3.132,9.698-4.421,15.75-4.45l0.272-0.001c0.313,0,0.628,0.005,0.949,0.011l1.47,0.027
				l-1.223-0.817c-5.075-3.391-7.021-5.949-8.55-14.413l-0.34-1.884l-0.5,1.848c-1.613,5.961-3.662,11.487-8.417,19.082L35.8,55.509
				 M46.095,24.586c-3.271,15.031-5.064,21.571-16.161,36.933c9.106-7.129,14.093-10.173,23.41-10.173
				c2.24,0,4.729,0.176,7.586,0.513C50.339,44.833,48.535,46.233,46.095,24.586L46.095,24.586z M37.134,54.191
				c4.484-7.161,6.678-12.583,8.468-19.198c1.588,8.798,3.689,11.324,8.735,14.695c-0.324-0.006-0.642-0.011-0.957-0.011
				c-0.092,0-0.185,0-0.277,0.001C46.626,49.709,42.078,51.176,37.134,54.191L37.134,54.191z"/>
		</g>
		<path fill="#695049" d="M45.403,41.893c-1.026,2.765-2.208,5.379-3.656,8.075c2.474-0.951,4.979-1.522,7.742-1.791
			C47.689,46.488,46.407,44.603,45.403,41.893z"/>
		<path fill="#A7825F" d="M45.603,34.993c-1.79,6.614-3.984,12.037-8.468,19.198c4.944-3.015,9.492-4.482,15.969-4.513
			c0.406-0.004,0.815,0.002,1.234,0.01C49.292,46.317,47.191,43.791,45.603,34.993z M45.403,41.893
			c1.004,2.71,2.287,4.595,4.086,6.284c-2.763,0.268-5.268,0.84-7.742,1.791C43.194,47.272,44.377,44.658,45.403,41.893z"/>
		<g>
			<path fill="#A7825F" d="M85.545,85.963c-10.104-2.861-17.287-3.941-25.89-3.941c-4.856,0-10.333,0.356-17.606,1.149
				c12.083-5.055,21.518-10.011,24.586-20.489c0.206,1.032,0.377,1.989,0.539,2.887C68.642,73.747,69.222,76.977,85.545,85.963z
				 M59.654,80.782c5.833,0,10.944,0.497,16.573,1.61l1.052,0.208l-0.89-0.598c-7.35-4.942-9.086-8.21-10.2-13.666l-0.112-0.548
				l-0.285,0.481c-2.86,4.831-7.535,8.67-15.159,12.447l-0.98,0.486l1.091-0.078c2.99-0.212,5.728-0.324,8.37-0.341L59.654,80.782z"
				/>
			<path fill="#F1D089" d="M66.587,63.561c0.138,0.724,0.261,1.41,0.375,2.046c1.392,7.755,2.021,11.261,16.907,19.667
				c-9.231-2.508-16.09-3.468-24.213-3.468c-4.535,0-9.609,0.31-16.175,0.996C54.656,78.046,63.379,73.188,66.587,63.561
				 M48.577,81.495l2.183-0.155c2.985-0.212,5.718-0.324,8.355-0.34l0.539-0.001c5.818,0,10.917,0.495,16.531,1.606l2.104,0.417
				l-1.78-1.197c-7.924-5.329-9.147-8.816-10.109-13.53l-0.224-1.096l-0.57,0.962c-2.837,4.793-7.485,8.606-15.069,12.364
				L48.577,81.495 M66.665,61.752C63.91,72.697,54.597,77.761,40.569,83.553c7.545-0.855,13.614-1.315,19.086-1.315
				c9.491,0,17.194,1.382,27.726,4.48C66.97,75.713,69.051,73.076,66.665,61.752L66.665,61.752z M50.729,80.909
				c6.644-3.292,11.996-7.036,15.249-12.53c1.057,5.177,2.594,8.625,10.291,13.802c-5.739-1.135-10.875-1.614-16.615-1.614
				c-0.18,0-0.36,0-0.542,0.001C56.54,80.584,53.804,80.69,50.729,80.909L50.729,80.909z"/>
		</g>
		<path fill="#695049" d="M59.101,78.903c3.799-0.021,7.303,0.154,10.801,0.573c-2.437-2.28-3.812-4.417-4.723-6.84
			c-1.916,2.254-4.332,4.312-7.373,6.28C58.246,78.909,58.677,78.902,59.101,78.903z"/>
		<path fill="#A7825F" d="M65.978,68.379c-3.253,5.495-8.605,9.239-15.249,12.53c3.074-0.219,5.81-0.325,8.383-0.341
			c5.961-0.031,11.238,0.442,17.156,1.613C68.572,77.004,67.035,73.556,65.978,68.379z M65.179,72.636
			c0.911,2.423,2.286,4.56,4.723,6.84c-3.498-0.418-7.002-0.593-10.801-0.573c-0.424-0.001-0.855,0.006-1.295,0.013
			C60.848,76.948,63.263,74.89,65.179,72.636z"/>
		<g>
			<path fill="#A7825F" d="M104.361,58.399c-10.371-6.449-15.689-7.665-22.143-7.665c-1.982,0-4.041,0.12-6.425,0.258
				c-1.078,0.063-2.213,0.128-3.421,0.188c10.542-7.84,13.995-12.967,13.76-27.314c0.492,1.476,0.951,2.874,1.388,4.205
				C91.689,40.779,93.859,47.394,104.361,58.399z M82.221,49.495c4.62,0,8.95,0.593,15.066,3.485l0.812,0.384l-0.549-0.71
				c-4.963-6.422-7.272-11.754-10.031-19.943l-0.279-0.828l-0.138,0.863c-1.091,6.815-3.844,11.301-10.158,16.551l-0.5,0.416
				l0.649-0.035c1.761-0.094,3.341-0.172,4.843-0.182L82.221,49.495z"/>
			<path fill="#F1D089" d="M86.359,25.233c0.332,1.004,0.649,1.971,0.956,2.906c4.029,12.281,6.197,18.885,15.787,29.237
				c-9.525-5.744-14.682-6.856-20.884-6.856c-1.989,0-4.05,0.12-6.438,0.258c-0.865,0.05-1.767,0.103-2.714,0.152
				C82.901,43.525,86.354,38.392,86.359,25.233 M75.806,49.961l1.298-0.069c1.758-0.094,3.335-0.172,4.833-0.181l0.284-0.001
				c4.591,0,8.894,0.589,14.975,3.465l1.624,0.768l-1.098-1.421c-4.944-6.397-7.246-11.714-9.998-19.88l-0.558-1.656l-0.276,1.725
				c-1.082,6.757-3.814,11.207-10.083,16.419L75.806,49.961 M85.882,22.443c0.499,15.815-3.077,20.798-14.209,28.986
				c4.181-0.189,7.489-0.478,10.545-0.478c6.811,0,12.371,1.433,23.55,8.592C92.682,46.221,91.599,39.402,85.882,22.443
				L85.882,22.443z M77.081,49.461c5.949-4.946,9.074-9.44,10.233-16.682c2.568,7.621,4.894,13.315,10.065,20.006
				c-5.982-2.829-10.271-3.506-15.159-3.506c-0.095,0-0.19,0-0.287,0.001C80.407,49.289,78.813,49.369,77.081,49.461L77.081,49.461z
				"/>
		</g>
		<path fill="#695049" d="M81.926,47.615c3.454-0.02,6.754,0.256,10.588,1.434c-2.009-3.197-3.529-6.381-4.943-9.974
			c-1.24,3.08-3.105,5.805-5.81,8.539C81.812,47.613,81.87,47.616,81.926,47.615z"/>
		<path fill="#A7825F" d="M87.314,32.779c-1.159,7.242-4.285,11.736-10.233,16.682c1.732-0.092,3.326-0.172,4.853-0.182
			c5.007-0.026,9.347,0.621,15.445,3.505C92.208,46.094,89.882,40.4,87.314,32.779z M92.514,49.049
			c-3.833-1.178-7.134-1.453-10.588-1.434c-0.057,0.001-0.114-0.002-0.165-0.001c2.705-2.734,4.57-5.459,5.81-8.539
			C88.985,42.667,90.505,45.852,92.514,49.049z"/>
	</g>
</g>
</svg>
