<?xml version="1.0" encoding="utf-8"?>
<!-- Generator: Adobe Illustrator 16.0.0, SVG Export Plug-In . SVG Version: 6.00 Build 0)  -->
<!DOCTYPE svg PUBLIC "-//W3C//DTD SVG 1.1//EN" "http://www.w3.org/Graphics/SVG/1.1/DTD/svg11.dtd">
<svg version="1.1" id="Layer_1" xmlns="http://www.w3.org/2000/svg" xmlns:xlink="http://www.w3.org/1999/xlink" x="0px" y="0px"
	 width="256px" height="256px" viewBox="0 0 256 256" enable-background="new 0 0 256 256" xml:space="preserve">
<path display="none" stroke="#B0B0AE" stroke-width="1.89" stroke-linecap="round" stroke-linejoin="round" stroke-miterlimit="10" d="
	M255,221.266C255,239.896,239.898,255,221.266,255H34.734C16.101,255,1,239.896,1,221.266V34.734C1,16.103,16.101,1,34.734,1
	h186.532C239.898,1,255,16.103,255,34.734V221.266z"/>
<path stroke="#BA7C2B" stroke-width="1.1979" stroke-linecap="round" stroke-linejoin="round" stroke-miterlimit="10" d="
	M23.183,58.281h209.631c0,12.122,9.825,21.948,21.947,21.948v95.545c-12.122,0-21.947,9.824-21.947,21.944H23.183
	c0-12.12-9.825-21.944-21.945-21.944V80.229C13.358,80.229,23.183,70.403,23.183,58.281z"/>
</svg>
