<?xml version="1.0" encoding="utf-8"?>
<!-- Generator: Adobe Illustrator 16.0.0, SVG Export Plug-In . SVG Version: 6.00 Build 0)  -->
<!DOCTYPE svg PUBLIC "-//W3C//DTD SVG 1.1//EN" "http://www.w3.org/Graphics/SVG/1.1/DTD/svg11.dtd">
<svg version="1.1" id="Layer_1" xmlns="http://www.w3.org/2000/svg" xmlns:xlink="http://www.w3.org/1999/xlink" x="0px" y="0px"
	 width="256px" height="448px" viewBox="-511.5 416.5 256 448" enable-background="new -511.5 416.5 256 448" xml:space="preserve">
<path display="none" stroke="#B0B0AE" stroke-width="1.89" stroke-linecap="round" stroke-linejoin="round" stroke-miterlimit="10" d="
	M255,221.266C255,239.896,239.898,255,221.266,255H34.734C16.101,255,1,239.896,1,221.266V34.734C1,16.103,16.101,1,34.734,1
	h186.532C239.898,1,255,16.103,255,34.734V221.266z"/>
<path stroke="#BA7C2B" stroke-width="1.89" stroke-linecap="round" stroke-linejoin="round" stroke-miterlimit="10" d="
	M-462.033,430.105h157.063c0,19.127,15.502,34.629,34.627,34.629v351.537c-19.125,0-34.627,15.5-34.627,34.623h-157.063
	c0-19.123-15.502-34.623-34.625-34.623V464.734C-477.535,464.734-462.033,449.232-462.033,430.105z"/>
</svg>
