<?xml version="1.0" encoding="utf-8"?>
<!-- Generator: Adobe Illustrator 16.0.0, SVG Export Plug-In . SVG Version: 6.00 Build 0)  -->
<!DOCTYPE svg PUBLIC "-//W3C//DTD SVG 1.1//EN" "http://www.w3.org/Graphics/SVG/1.1/DTD/svg11.dtd">
<svg version="1.1" id="Layer_1" xmlns="http://www.w3.org/2000/svg" xmlns:xlink="http://www.w3.org/1999/xlink" x="0px" y="0px"
	 width="256px" height="256px" viewBox="0 0 256 256" enable-background="new 0 0 256 256" xml:space="preserve">
<g display="none">
	<path display="inline" fill="#FFFFFF" d="M54.3,186.529l0.082,4.66c0.051,2.938-2.287,5.36-5.227,5.412l-10.309,0.18
		c-0.279,0.005-0.54-0.021-0.811-0.057c-0.045-0.27-0.079-0.529-0.084-0.809l-0.082-4.658c-0.051-2.941,2.287-5.361,5.227-5.412
		l10.309-0.181c0.28-0.005,0.551,0.021,0.811,0.056C54.261,185.99,54.295,186.25,54.3,186.529z"/>
	<path display="inline" fill="#FFFFFF" d="M49.788,161.193l0.082,4.66c0.051,2.929-2.307,5.361-5.246,5.412l-10.299,0.18
		c-0.28,0.006-0.551-0.02-0.812-0.056c-0.045-0.269-0.079-0.528-0.084-0.808l-0.081-4.66c-0.052-2.939,2.287-5.36,5.236-5.412
		l10.299-0.18c0.279-0.005,0.54,0.021,0.82,0.057C49.739,160.646,49.783,160.914,49.788,161.193z"/>
	<path display="inline" fill="#FFFFFF" d="M47.885,135.813l0.081,4.65c0.051,2.93-2.287,5.361-5.227,5.412l-10.309,0.18
		c-0.28,0.006-0.54-0.03-0.812-0.065c-0.044-0.249-0.079-0.528-0.084-0.788l-0.081-4.66c-0.052-2.949,2.287-5.36,5.227-5.412
		l10.309-0.18c0.28-0.005,0.551,0.021,0.811,0.035C47.845,135.265,47.88,135.523,47.885,135.813z"/>
	<path display="inline" fill="#FFFFFF" d="M47.624,109.924l0.081,4.649c0.051,2.94-2.298,5.361-5.237,5.412l-10.308,0.18
		c-0.28,0.005-0.541-0.01-0.812-0.045c-0.044-0.27-0.079-0.539-0.084-0.819l-0.081-4.649c-0.052-2.94,2.297-5.361,5.246-5.413
		l10.288-0.179c0.28-0.005,0.551,0.02,0.832,0.055C47.574,109.375,47.619,109.644,47.624,109.924z"/>
	<path display="inline" fill="#FFFFFF" d="M48.167,84.981l0.081,4.649c0.052,2.94-2.286,5.361-5.226,5.413l-10.309,0.18
		c-0.28,0.005-0.541-0.01-0.812-0.046c-0.045-0.269-0.069-0.539-0.074-0.819l-0.081-4.65c-0.052-2.939,2.287-5.36,5.227-5.412
		l10.299-0.18c0.279-0.005,0.55,0.021,0.811,0.056C48.128,84.432,48.163,84.701,48.167,84.981z"/>
	<path display="inline" fill="#FFFFFF" d="M51.723,59.505l0.082,4.649c0.051,2.939-2.287,5.361-5.227,5.412l-10.299,0.18
		c-0.279,0.005-0.55-0.02-0.821-0.056c-0.044-0.259-0.069-0.529-0.074-0.809l-0.081-4.649c-0.051-2.939,2.287-5.361,5.227-5.413
		l10.299-0.18c0.279-0.005,0.55,0.021,0.82,0.046C51.694,58.955,51.718,59.225,51.723,59.505z"/>
</g>
<g display="none">
	<path display="inline" fill="#FFFFFF" d="M44.585,59.876v3.5c0,2.21-1.79,4-4,4h-7.75c-0.21,0-0.41-0.02-0.61-0.05
		c-0.03-0.2-0.05-0.4-0.05-0.61v-3.5c0-2.21,1.79-4,4-4h7.75c0.21,0,0.41,0.02,0.61,0.05C44.565,59.466,44.585,59.666,44.585,59.876
		z"/>
	<path display="inline" fill="#FFFFFF" d="M41.315,74.316v3.5c0,2.209-1.79,4-4,4h-7.75c-0.21,0-0.41-0.02-0.61-0.05
		c-0.031-0.199-0.05-0.4-0.05-0.609v-3.5c0-2.21,1.79-4,4-4h7.75c0.21,0,0.41,0.02,0.611,0.049
		C41.294,73.906,41.315,74.106,41.315,74.316z"/>
	<path display="inline" fill="#FFFFFF" d="M39.604,94.966v3.5c0,2.209-1.791,4-4,4h-7.75c-0.21,0-0.41-0.021-0.61-0.051
		c-0.03-0.199-0.05-0.4-0.05-0.609v-3.5c0-2.211,1.791-4,4.001-4h7.75c0.21,0,0.41,0.02,0.611,0.05
		C39.584,94.556,39.604,94.755,39.604,94.966z"/>
	<path display="inline" fill="#FFFFFF" d="M38.977,115.864v3.5c0,2.209-1.79,4-4,4h-7.75c-0.21,0-0.41-0.021-0.61-0.05
		c-0.031-0.199-0.051-0.4-0.051-0.609v-3.5c0-2.211,1.79-4,4.001-4h7.749c0.21,0,0.41,0.02,0.611,0.049
		C38.956,115.454,38.977,115.654,38.977,115.864z"/>
	<path display="inline" fill="#FFFFFF" d="M38.977,133.223v3.5c0,2.21-1.79,4-4,4h-7.75c-0.21,0-0.41-0.021-0.61-0.05
		c-0.031-0.199-0.051-0.4-0.051-0.609v-3.5c0-2.211,1.79-4.001,4.001-4.001h7.749c0.21,0,0.41,0.02,0.611,0.05
		C38.956,132.813,38.977,133.013,38.977,133.223z"/>
	<path display="inline" fill="#FFFFFF" d="M39.604,154.12v3.5c0,2.209-1.791,4-4,4h-7.75c-0.21,0-0.41-0.021-0.61-0.051
		c-0.03-0.199-0.05-0.4-0.05-0.609v-3.5c0-2.211,1.791-4,4.001-4h7.75c0.21,0,0.41,0.02,0.611,0.05
		C39.584,153.71,39.604,153.909,39.604,154.12z"/>
	<path display="inline" fill="#FFFFFF" d="M41.315,174.77v3.5c0,2.209-1.79,4-4,4h-7.75c-0.21,0-0.41-0.021-0.61-0.051
		c-0.031-0.199-0.05-0.4-0.05-0.609v-3.5c0-2.211,1.79-4,4-4h7.75c0.21,0,0.41,0.02,0.611,0.049
		C41.294,174.359,41.315,174.559,41.315,174.77z"/>
	<path display="inline" fill="#FFFFFF" d="M44.585,189.211v3.5c0,2.209-1.79,4-4,4h-7.75c-0.21,0-0.41-0.021-0.61-0.051
		c-0.03-0.199-0.05-0.4-0.05-0.609v-3.5c0-2.211,1.79-4,4-4h7.75c0.21,0,0.41,0.02,0.61,0.049
		C44.565,188.801,44.585,189,44.585,189.211z"/>
</g>
<path fill="#FFFFFF" d="M231.83,56.67c-6.5-15.96-60.7-18.85-103.83-18.85S30.67,40.71,24.17,56.67C19.26,68.7,18.5,108.14,18.5,128
	c0,19.86,0.76,59.3,5.67,71.33c6.5,15.96,60.7,18.85,103.83,18.85s97.33-2.89,103.83-18.85c4.91-12.03,5.67-51.47,5.67-71.33
	C237.5,108.14,236.74,68.7,231.83,56.67z M224.38,110.011c0.044,0.249,0.08,0.529,0.084,0.789l0.081,4.659
	c0.052,2.95-2.286,5.361-5.226,5.413l-10.309,0.18c-0.279,0.005-0.551-0.021-0.812-0.036c-0.044-0.28-0.079-0.539-0.084-0.829
	l-0.081-4.65c-0.052-2.929,2.287-5.361,5.226-5.412l10.31-0.18C223.849,109.94,224.108,109.975,224.38,110.011z M222.487,84.61
	c0.044,0.269,0.078,0.529,0.083,0.808l0.081,4.659c0.052,2.94-2.286,5.361-5.237,5.413l-10.297,0.18
	c-0.281,0.005-0.541-0.021-0.821-0.056c-0.034-0.259-0.079-0.527-0.084-0.808l-0.082-4.66c-0.051-2.929,2.308-5.361,5.246-5.413
	l10.3-0.18C221.955,84.549,222.226,84.575,222.487,84.61z M40.53,58.82l10.299-0.18c0.279-0.005,0.55,0.021,0.82,0.046
	c0.045,0.269,0.069,0.539,0.074,0.819l0.082,4.649c0.051,2.939-2.287,5.361-5.227,5.412l-10.299,0.18
	c-0.279,0.005-0.55-0.02-0.821-0.056c-0.044-0.259-0.069-0.529-0.074-0.809l-0.081-4.649C35.252,61.293,37.59,58.871,40.53,58.82z
	 M36.974,84.296l10.299-0.18c0.279-0.005,0.55,0.021,0.811,0.056c0.045,0.26,0.079,0.529,0.084,0.809l0.081,4.649
	c0.052,2.94-2.286,5.361-5.226,5.413l-10.309,0.18c-0.28,0.005-0.541-0.01-0.812-0.046c-0.045-0.269-0.069-0.539-0.074-0.819
	l-0.081-4.65C31.696,86.768,34.035,84.347,36.974,84.296z M31.264,119.301l-0.081-4.649c-0.052-2.94,2.297-5.361,5.246-5.413
	l10.288-0.179c0.28-0.005,0.551,0.02,0.832,0.055c0.024,0.26,0.069,0.529,0.074,0.809l0.081,4.649
	c0.051,2.94-2.298,5.361-5.237,5.412l-10.308,0.18c-0.28,0.005-0.541-0.01-0.812-0.045
	C31.304,119.851,31.269,119.581,31.264,119.301z M31.62,145.989c-0.044-0.249-0.079-0.528-0.084-0.788l-0.081-4.66
	c-0.052-2.949,2.287-5.36,5.227-5.412l10.309-0.18c0.28-0.005,0.551,0.021,0.811,0.035c0.045,0.28,0.08,0.539,0.085,0.828
	l0.081,4.65c0.051,2.93-2.287,5.361-5.227,5.412l-10.309,0.18C32.151,146.061,31.891,146.024,31.62,145.989z M33.513,171.39
	c-0.045-0.269-0.079-0.528-0.084-0.808l-0.081-4.66c-0.052-2.939,2.287-5.36,5.236-5.412l10.299-0.18
	c0.279-0.005,0.54,0.021,0.82,0.057c0.035,0.259,0.079,0.527,0.084,0.807l0.082,4.66c0.051,2.929-2.307,5.361-5.246,5.412
	l-10.299,0.18C34.044,171.451,33.774,171.426,33.513,171.39z M49.156,196.602l-10.309,0.18c-0.279,0.005-0.54-0.021-0.811-0.057
	c-0.045-0.27-0.079-0.529-0.084-0.809l-0.082-4.658c-0.051-2.941,2.287-5.361,5.227-5.412l10.309-0.181
	c0.28-0.005,0.551,0.021,0.811,0.056c0.045,0.27,0.079,0.529,0.084,0.809l0.082,4.66C54.433,194.127,52.095,196.55,49.156,196.602z
	 M106.23,162.57c-4.57-2.971-4.23-65.62,0-69.16s53.76,28.69,53.76,34.58C159.99,133.89,110.79,165.55,106.23,162.57z
	 M201.783,70.279c-0.045-0.269-0.079-0.528-0.084-0.808l-0.082-4.66c-0.051-2.939,2.287-5.361,5.227-5.412l10.309-0.18
	c0.279-0.005,0.54,0.021,0.811,0.056c0.045,0.27,0.079,0.529,0.084,0.809l0.081,4.659c0.052,2.94-2.285,5.361-5.226,5.412
	l-10.308,0.18C202.313,70.34,202.044,70.314,201.783,70.279z M215.471,197.18l-10.299,0.18c-0.279,0.005-0.551-0.02-0.821-0.045
	c-0.044-0.271-0.069-0.539-0.074-0.82l-0.081-4.648c-0.052-2.939,2.286-5.36,5.226-5.412l10.299-0.18
	c0.279-0.004,0.55,0.02,0.821,0.057c0.044,0.259,0.069,0.527,0.074,0.807l0.081,4.65C220.747,194.707,218.41,197.128,215.471,197.18
	z M219.026,171.703l-10.299,0.18c-0.279,0.006-0.551-0.02-0.813-0.055c-0.043-0.26-0.078-0.529-0.083-0.809l-0.081-4.649
	c-0.052-2.94,2.287-5.36,5.226-5.412l10.31-0.18c0.28-0.005,0.54,0.01,0.812,0.046c0.044,0.268,0.069,0.537,0.074,0.817l0.081,4.65
	C224.304,169.231,221.966,171.652,219.026,171.703z M219.57,146.761l-10.288,0.179c-0.28,0.006-0.551-0.02-0.831-0.055
	c-0.024-0.26-0.069-0.529-0.075-0.809l-0.081-4.648c-0.051-2.941,2.298-5.362,5.236-5.414l10.31-0.18
	c0.278-0.005,0.54,0.01,0.811,0.045c0.044,0.271,0.079,0.539,0.084,0.82l0.081,4.648
	C224.868,144.287,222.521,146.709,219.57,146.761z"/>
</svg>
