<?xml version="1.0" encoding="utf-8"?>
<!-- Generator: Adobe Illustrator 16.0.0, SVG Export Plug-In . SVG Version: 6.00 Build 0)  -->
<!DOCTYPE svg PUBLIC "-//W3C//DTD SVG 1.1//EN" "http://www.w3.org/Graphics/SVG/1.1/DTD/svg11.dtd">
<svg version="1.1" id="Layer_1" xmlns="http://www.w3.org/2000/svg" xmlns:xlink="http://www.w3.org/1999/xlink" x="0px" y="0px"
	 width="1024px" height="1024px" viewBox="0 0 1024 1024" enable-background="new 0 0 1024 1024" xml:space="preserve">
<rect x="-1002.835" y="-714.893" display="none" width="3047.39" height="2399.52"/>
<rect x="0" y="0" display="none" fill="#052E53" width="1024" height="1024"/>
<path display="none" fill="none" stroke="#B97C2A" stroke-width="96" stroke-linejoin="round" stroke-miterlimit="10" d="
	M822.539,583.62l-56.149-36.64l56.21-40.71h0.01l0.26-79.48L512,186.36L201.13,426.79l0.26,79.48h0.01l56.21,40.71l-56.149,36.64
	l-2.891,173.971l88.04,64.47c0.12-0.08,166.05-99.73,225.391-131.64c59.34,31.909,225.27,131.56,225.39,131.64l88.04-64.47
	L822.539,583.62z"/>
<path fill="none" stroke="#000000" stroke-width="32" stroke-linejoin="round" stroke-miterlimit="10" d="M822.539,583.62
	l-56.149-36.64l56.21-40.71h0.01l0.26-79.48L512,186.36L201.13,426.79l0.26,79.48h0.01l56.21,40.71l-56.149,36.64l-2.891,173.971
	l88.04,64.47c0.12-0.08,166.05-99.73,225.391-131.64c59.34,31.909,225.27,131.56,225.39,131.64l88.04-64.47L822.539,583.62z"/>
<path fill="#9CD0F1" d="M512,186.36v97.57C438.88,333.18,203.5,506.27,201.4,506.27h-0.01l-0.26-79.48L512,186.36z"/>
<path fill="#9CD0F1" d="M512,380.98v192.03c-67.95,36.54-313.42,184.58-313.431,184.58l2.891-173.971l56.149-36.64L512,380.98z"/>
<path fill="#7AA4BE" d="M822.6,506.27l-56.21,40.71L512,380.98l-254.391,166l-56.21-40.71c2.101,0,237.48-173.09,310.601-222.34
	C585.119,333.18,820.5,506.27,822.6,506.27z"/>
<path fill="#7AA4BE" d="M825.43,757.591l-88.04,64.47c-0.12-0.08-166.05-99.73-225.39-131.64
	C452.659,722.33,286.73,821.98,286.61,822.06l-88.04-64.47c0.011,0,245.48-148.04,313.431-184.58
	C579.949,609.551,825.42,757.591,825.43,757.591z"/>
<path fill="#5795BD" d="M512,186.36v97.57c73.119,49.25,308.5,222.34,310.6,222.34h0.01l0.26-79.48L512,186.36z"/>
<path fill="#5795BD" d="M512,380.98v192.03c67.949,36.54,313.42,184.58,313.43,184.58l-2.891-173.971l-56.149-36.64L512,380.98z"/>
</svg>
