<?xml version="1.0" encoding="utf-8"?>
<!-- Generator: Adobe Illustrator 16.0.0, SVG Export Plug-In . SVG Version: 6.00 Build 0)  -->
<!DOCTYPE svg PUBLIC "-//W3C//DTD SVG 1.1//EN" "http://www.w3.org/Graphics/SVG/1.1/DTD/svg11.dtd">
<svg version="1.1" id="Layer_1" xmlns="http://www.w3.org/2000/svg" xmlns:xlink="http://www.w3.org/1999/xlink" x="0px" y="0px"
	 width="1024px" height="1024px" viewBox="0 0 1024 1024" enable-background="new 0 0 1024 1024" xml:space="preserve">
<path fill="#9CD0F1" stroke="#000000" stroke-width="12" stroke-miterlimit="10" d="M511.265,995.834
	c25.639,0.705,50.961-36.424,75.519-36.424c282.073,0,377.28-193.689,370.713-446.806
	C951.041,263.789,761.805,29.943,511.268,35.419h-0.005C260.726,29.943,71.49,263.789,65.033,512.604
	C58.466,765.72,153.673,959.41,435.746,959.41C460.303,959.41,485.627,996.539,511.265,995.834z"/>
<path fill="none" stroke="#000000" stroke-width="32" stroke-linejoin="round" stroke-miterlimit="10" d="M822.539,583.62
	l-56.149-36.64l56.21-40.71h0.01l0.26-79.48L512,186.36L201.13,426.79l0.26,79.48h0.01l56.21,40.71l-56.149,36.64l-2.891,173.971
	l88.04,64.47c0.12-0.08,166.05-99.73,225.391-131.64c59.34,31.909,225.27,131.56,225.39,131.64l88.04-64.47L822.539,583.62z"/>
<path fill="#3064A0" d="M512,380.98v192.03c-67.95,36.54-313.42,184.58-313.431,184.58l2.891-173.971l56.149-36.64L512,380.98z"/>
<polygon fill="#3064A0" points="512,186.36 512,283.93 201.4,506.27 201.39,506.27 201.13,426.79 "/>
<polygon fill="#4F80C4" points="822.6,506.27 766.39,546.98 512,380.98 257.61,546.98 201.4,506.27 512,283.93 "/>
<polygon fill="#123B6D" points="822.87,426.79 822.611,506.27 822.6,506.27 512,283.93 512,186.36 "/>
<path fill="#4F80C4" d="M825.43,757.591l-88.04,64.47c-0.12-0.08-166.05-99.73-225.39-131.64
	C452.659,722.33,286.73,821.98,286.61,822.06l-88.04-64.47c0.011,0,245.48-148.04,313.431-184.58
	C579.949,609.551,825.42,757.591,825.43,757.591z"/>
<path fill="#123B6D" d="M512,380.98v192.03c67.949,36.54,313.42,184.58,313.43,184.58l-2.891-173.971l-56.149-36.64L512,380.98z"/>
</svg>
