<?xml version="1.0" encoding="utf-8"?>
<!-- Generator: Adobe Illustrator 16.0.0, SVG Export Plug-In . SVG Version: 6.00 Build 0)  -->
<!DOCTYPE svg PUBLIC "-//W3C//DTD SVG 1.1//EN" "http://www.w3.org/Graphics/SVG/1.1/DTD/svg11.dtd">
<svg version="1.1" id="Layer_1" xmlns="http://www.w3.org/2000/svg" xmlns:xlink="http://www.w3.org/1999/xlink" x="0px" y="0px"
	 width="128px" height="128px" viewBox="0 0 128 128" enable-background="new 0 0 128 128" xml:space="preserve">
<g>
	<g>
		
			<linearGradient id="SVGID_1_" gradientUnits="userSpaceOnUse" x1="-392.4922" y1="776.3574" x2="-281.0215" y2="776.3574" gradientTransform="matrix(0.5047 0.8633 -0.8633 0.5047 882.7639 -24.5464)">
			<stop  offset="0" style="stop-color:#E6C7A7"/>
			<stop  offset="0.0806" style="stop-color:#E7CEB4"/>
			<stop  offset="0.2154" style="stop-color:#E7D7C4"/>
			<stop  offset="0.3564" style="stop-color:#E8DCCE"/>
			<stop  offset="0.512" style="stop-color:#E8DED1"/>
			<stop  offset="0.6384" style="stop-color:#E7DCCE"/>
			<stop  offset="0.7595" style="stop-color:#E4D5C3"/>
			<stop  offset="0.8786" style="stop-color:#E0CAB2"/>
			<stop  offset="0.9958" style="stop-color:#D9BB9B"/>
			<stop  offset="1" style="stop-color:#D9BB9A"/>
		</linearGradient>
		<path fill="url(#SVGID_1_)" stroke="#010101" stroke-width="0.648" stroke-miterlimit="10" d="M97.727,108.845l-11.332,6.622
			c-4.941,2.888-11.334,4.831-17.693,5.28c-7.767,1.271-12.759-0.552-20.36-1.928c-5.642-2.559-13.939-4.663-18.037-9.979
			c-3.7-5.561-8.678-11.148-14.172-16.86c-5.414-5.762-7.636-12.962-8.151-20.372c1.129-8.373-2.854-13.012,0.567-20.865
			c3.642-7.945,2.653-12.104,7.202-18.029c4.096-5.664,8.047-9.771,14.391-13.482l11.333-6.622
			c-6.348,3.71-10.296,7.817-14.392,13.481c-0.936,1.23-1.639,2.393-2.231,3.557c-2.052,4.24-2.066,8.178-4.929,14.451
			c-3.463,7.878,0.523,12.512-0.608,20.885c0.557,7.386,2.736,14.611,8.146,20.373c5.538,5.69,10.516,11.281,14.169,16.862
			c4.098,5.316,12.405,7.418,18.082,9.951c5.95,1.104,10.279,2.46,15.681,2.339c1.44,0.012,3.021-0.133,4.681-0.412
			C86.393,113.673,92.78,111.732,97.727,108.845z"/>
		
			<line fill="none" stroke="#CFA686" stroke-width="0.2124" stroke-miterlimit="10" x1="19.922" y1="44.099" x2="8.549" y2="50.743"/>
		
			<line fill="none" stroke="#CFA686" stroke-width="0.2124" stroke-miterlimit="10" x1="41.628" y1="102.22" x2="30.305" y2="108.841"/>
		<path fill="none" stroke="#010101" stroke-width="0.354" stroke-miterlimit="10" d="M97.727,108.845l-11.332,6.622
			c-4.941,2.888-11.334,4.831-17.693,5.28c-7.767,1.271-12.759-0.552-20.36-1.928c-5.642-2.559-13.939-4.663-18.037-9.979
			c-3.7-5.561-8.678-11.148-14.172-16.86c-5.414-5.762-7.636-12.962-8.151-20.372c1.129-8.373-2.854-13.012,0.567-20.865
			c3.642-7.945,2.653-12.104,7.202-18.029c4.096-5.664,8.047-9.771,14.391-13.482l11.333-6.622
			c-6.348,3.71-10.296,7.817-14.392,13.481c-0.936,1.23-1.639,2.393-2.231,3.557c-2.052,4.24-2.066,8.178-4.929,14.451
			c-3.463,7.878,0.523,12.512-0.608,20.885c0.557,7.386,2.736,14.611,8.146,20.373c5.538,5.69,10.516,11.281,14.169,16.862
			c4.098,5.316,12.405,7.418,18.082,9.951c5.95,1.104,10.279,2.46,15.681,2.339c1.44,0.012,3.021-0.133,4.681-0.412
			C86.393,113.673,92.78,111.732,97.727,108.845z"/>
		<path fill="#F4EFC5" stroke="#010101" stroke-width="0.381" stroke-miterlimit="10" d="M97.727,108.845
			c-4.946,2.888-11.334,4.826-17.653,5.254c-1.658,0.278-3.239,0.422-4.683,0.412c-5.4,0.12-9.73-1.236-15.678-2.339
			c-5.678-2.534-13.983-4.636-18.084-9.952c-3.653-5.58-8.63-11.172-14.167-16.861c-5.411-5.762-7.591-12.987-8.147-20.373
			c1.133-8.375-2.853-13.008,0.608-20.885c2.862-6.273,2.877-10.213,4.929-14.451c0.595-1.166,1.296-2.326,2.233-3.559
			c4.096-5.664,8.044-9.771,14.391-13.48c5.395-3.153,13.019-5.809,18.396-5.682c3.524,1.209,12.134,0.911,19.612,2.359
			c7.243,1.616,10.693,6.564,18.87,9.501c6.163,4.107,9.99,10.37,13.378,17.312c3.726,6.747,10.682,11.179,7.951,20.492
			c-0.348,7.918,1.035,14.068-0.41,20.766c2.447,4.384-5.98,14.056-8.061,18.54C108.27,100.886,104.15,105.089,97.727,108.845z"/>
	</g>
	<g>
		<g>
			<path fill="#A7825F" d="M52.124,37.112c15.378,1.465,21.384-0.013,33.124-3.744C72.326,42.981,72.25,44.802,71.923,52.853
				c-0.033,0.803-0.069,1.67-0.12,2.614c-0.915-2.076-1.786-3.824-2.654-5.329C65.131,43.18,60.765,40.651,52.124,37.112z
				 M78.043,36.881c-5.3,1.405-10.457,2.284-18.406,1.998l-0.806-0.028l0.708,0.387c4.706,2.567,7.734,5.515,10.451,10.17
				l0.122,0.212c0.14,0.24,0.276,0.484,0.415,0.735l0.313,0.57l0.041-0.649c0.358-5.45,1.468-8.103,7.331-13.063l0.646-0.547
				L78.043,36.881z"/>
			<path fill="#F1D089" d="M84.232,33.89c-12.099,9.102-12.186,11.213-12.5,18.957c-0.023,0.564-0.048,1.172-0.08,1.816
				c-0.801-1.767-1.571-3.289-2.339-4.619c-3.862-6.689-8.037-9.309-15.957-12.625C67.396,38.647,73.474,37.28,84.232,33.89
				 M58.029,38.63l1.418,0.774c4.673,2.551,7.68,5.476,10.379,10.101l0.121,0.209c0.139,0.24,0.275,0.482,0.411,0.732l0.631,1.138
				l0.085-1.298c0.352-5.39,1.453-8.014,7.263-12.93l1.293-1.095l-1.637,0.435c-5.282,1.402-10.425,2.276-18.348,1.992L58.029,38.63
				 M86.283,32.837c-12.967,4.145-18.772,5.664-35.456,3.957c9.493,3.824,14.032,6.299,18.154,13.44
				c0.991,1.717,1.957,3.701,2.965,6.04C72.645,45.049,70.773,44.285,86.283,32.837L86.283,32.837z M59.63,39.069
				c7.472,0.268,12.598-0.449,18.46-2.004c-6.041,5.109-7.047,7.838-7.396,13.195c-0.14-0.25-0.276-0.496-0.416-0.738
				c-0.04-0.07-0.082-0.142-0.124-0.211C67.266,44.36,64.128,41.525,59.63,39.069L59.63,39.069z"/>
		</g>
		<path fill="#695049" d="M72.713,39.965c-2.573,0.437-5.1,0.688-7.805,0.771c1.822,1.476,3.368,3.143,4.798,5.141
			C70.204,43.749,71.082,41.933,72.713,39.965z"/>
		<path fill="#A7825F" d="M78.09,37.065c-5.86,1.556-10.987,2.273-18.46,2.005c4.497,2.455,7.636,5.291,10.524,10.242
			c0.183,0.309,0.359,0.625,0.539,0.95C71.043,44.903,72.051,42.175,78.09,37.065z M72.713,39.965
			c-1.631,1.968-2.509,3.785-3.007,5.911c-1.428-1.999-2.976-3.664-4.798-5.141C67.613,40.652,70.141,40.403,72.713,39.965z"/>
		<g>
			<path fill="#A7825F" d="M56.702,90.229c-2.278-9.009-4.629-14.994-8.435-21.587c-2.149-3.722-4.847-7.761-8.672-12.983
				c9.22,7.023,17.193,12.063,26.582,9.776c-0.701,0.614-1.359,1.171-1.973,1.692C58.585,71.87,56.367,73.744,56.702,90.229z
				 M49.216,68.093c2.582,4.471,4.461,8.609,6.098,13.416l0.308,0.898l0.063-0.947c0.535-7.819,2.272-10.596,5.961-13.862
				l0.369-0.33l-0.495-0.005c-4.968-0.055-9.98-1.938-16.248-6.11l-0.806-0.536l0.542,0.802c1.485,2.198,2.782,4.247,3.965,6.263
				L49.216,68.093z"/>
			<path fill="#F1D089" d="M65.481,65.787c-0.495,0.427-0.965,0.825-1.402,1.192c-5.327,4.499-7.737,6.533-7.591,21.66
				c-2.161-8.184-4.462-13.864-8.057-20.092c-2.007-3.475-4.488-7.227-7.919-11.955C49.101,63.053,56.684,67.589,65.481,65.787
				 M43.768,59.921l1.086,1.604c1.482,2.193,2.778,4.238,3.957,6.252l0.239,0.413c2.576,4.46,4.451,8.585,6.084,13.382l0.612,1.796
				l0.13-1.896c0.577-8.432,2.709-10.91,5.896-13.732l0.741-0.656l-0.989-0.012c-4.929-0.053-9.909-1.928-16.144-6.078
				L43.768,59.921 M66.9,65.046c-9.606,2.733-17.607-2.164-28.253-10.354c3.994,5.404,7.03,9.854,9.451,14.047
				c4.2,7.274,6.55,13.79,8.835,23.232C56.338,71.46,59.28,71.887,66.9,65.046L66.9,65.046z M45.169,61.31
				c5.462,3.637,10.701,6.081,16.351,6.145c-3.5,3.102-5.463,5.804-6.025,13.992c-1.668-4.9-3.574-9.048-6.115-13.449
				c-0.079-0.137-0.159-0.275-0.241-0.414C47.989,65.62,46.698,63.571,45.169,61.31L45.169,61.31z"/>
		</g>
		<path fill="#695049" d="M50.411,66.838c1.696,2.902,3.113,5.667,4.341,8.534c0.668-2.879,1.697-4.877,3.152-6.646
			c-2.578-0.472-5.221-1.414-8.076-2.872C50.029,66.187,50.224,66.513,50.411,66.838z"/>
		<path fill="#A7825F" d="M61.52,67.454c-5.652-0.063-10.888-2.508-16.351-6.145c1.528,2.26,2.821,4.311,3.97,6.275
			c2.661,4.554,4.634,8.807,6.355,13.861C56.057,73.258,58.02,70.556,61.52,67.454z M57.904,68.726
			c-1.455,1.77-2.484,3.768-3.152,6.646c-1.229-2.865-2.646-5.631-4.341-8.534c-0.188-0.325-0.382-0.651-0.583-0.984
			C52.683,67.312,55.326,68.254,57.904,68.726z"/>
		<g>
			<path fill="#A7825F" d="M86.152,92.454c0.354-10.802-1.068-15.416-3.924-20.362c-0.877-1.519-1.881-3.043-3.041-4.81
				c-0.525-0.799-1.078-1.64-1.659-2.539c10.675,4.61,16.132,4.989,27.022-1.54c-0.914,1.03-1.781,2-2.608,2.925
				C94.049,74.945,89.939,79.535,86.152,92.454z M83.179,71.546c2.044,3.54,3.507,7.121,3.995,13.089l0.066,0.792l0.299-0.736
				c2.727-6.645,5.791-10.772,10.847-16.51l0.511-0.581l-0.723,0.277c-5.705,2.18-10.361,2.055-17.178-0.462l-0.54-0.199
				l0.313,0.482c0.852,1.308,1.61,2.483,2.283,3.631L83.179,71.546z"/>
			<path fill="#F1D089" d="M103.604,63.982c-0.621,0.699-1.224,1.369-1.805,2.019c-7.629,8.52-11.73,13.105-15.422,25.035
				c0.188-9.842-1.241-14.285-3.984-19.037c-0.882-1.526-1.884-3.052-3.047-4.82c-0.422-0.642-0.86-1.309-1.317-2.012
				C88.056,69.425,93.517,69.8,103.604,63.982 M79.984,66.837l0.627,0.962c0.85,1.306,1.607,2.48,2.277,3.625l0.126,0.216
				c2.032,3.519,3.484,7.076,3.971,13.01l0.13,1.585l0.604-1.47c2.714-6.621,5.771-10.735,10.812-16.459l1.023-1.161l-1.445,0.552
				c-5.656,2.161-10.276,2.035-17.045-0.463L79.984,66.837 M105.53,62.38c-11.899,7.383-17.3,6.845-28.501,1.938
				c1.995,3.121,3.68,5.529,5.032,7.871c3.014,5.221,4.374,10.113,3.835,21.85C90.316,78.115,95.064,74.268,105.53,62.38
				L105.53,62.38z M80.931,67.591c6.423,2.371,11.249,2.777,17.313,0.463c-4.705,5.339-8.041,9.642-10.881,16.564
				c-0.478-5.836-1.856-9.424-4.019-13.168c-0.042-0.073-0.085-0.147-0.128-0.22C82.535,70.063,81.768,68.878,80.931,67.591
				L80.931,67.591z"/>
		</g>
		<path fill="#695049" d="M84.488,70.487c1.544,2.639,2.793,5.29,3.586,8.75c1.561-2.955,3.328-5.529,5.457-8.201
			c-2.91,0.412-5.823,0.188-9.115-0.674C84.441,70.399,84.464,70.445,84.488,70.487z"/>
		<path fill="#A7825F" d="M98.244,68.054c-6.064,2.314-10.891,1.908-17.313-0.463c0.837,1.287,1.603,2.474,2.287,3.639
			c2.235,3.828,3.659,7.438,4.147,13.389C90.203,77.695,93.539,73.393,98.244,68.054z M88.075,79.237
			c-0.794-3.459-2.044-6.111-3.585-8.75c-0.026-0.042-0.049-0.088-0.073-0.127c3.292,0.863,6.206,1.087,9.116,0.675
			C91.403,73.708,89.636,76.282,88.075,79.237z"/>
	</g>
</g>
<g id="Basket">
</g>
</svg>
