<?xml version="1.0" encoding="utf-8"?>
<!-- Generator: Adobe Illustrator 16.0.0, SVG Export Plug-In . SVG Version: 6.00 Build 0)  -->
<!DOCTYPE svg PUBLIC "-//W3C//DTD SVG 1.1//EN" "http://www.w3.org/Graphics/SVG/1.1/DTD/svg11.dtd">
<svg version="1.1" id="Layer_1" xmlns="http://www.w3.org/2000/svg" xmlns:xlink="http://www.w3.org/1999/xlink" x="0px" y="0px"
	 width="1024px" height="1024px" viewBox="0 0 1024 1024" enable-background="new 0 0 1024 1024" xml:space="preserve">
<g>
	<g>
		
			<radialGradient id="SVGID_1_" cx="-170.2996" cy="698.1238" r="141.262" fx="-100.7907" fy="719.0272" gradientTransform="matrix(1.2256 0.197 -0.2588 1.2923 545.4364 -26.0861)" gradientUnits="userSpaceOnUse">
			<stop  offset="0.1468" style="stop-color:#2F74AA"/>
			<stop  offset="0.2717" style="stop-color:#2E71A6"/>
			<stop  offset="0.4363" style="stop-color:#2C6C9E"/>
			<stop  offset="0.6228" style="stop-color:#276290"/>
			<stop  offset="0.824" style="stop-color:#1F537C"/>
			<stop  offset="1" style="stop-color:#144367"/>
		</radialGradient>
		
			<path fill="url(#SVGID_1_)" stroke="#231F20" stroke-width="5.8236" stroke-linecap="round" stroke-linejoin="round" stroke-miterlimit="10" d="
			M159.342,856.558c-21.408,32.238-83.612,33.919-118.854,15.554c-24.182-12.58-35.429-35.02-36.423-58.647
			c0,0,0.001-0.012,0.004-0.021c-0.287-6.867,0.282-13.83,1.655-20.687c1.477-7.372,3.878-14.625,7.127-21.484
			c1.71-3.6,3.645-7.085,5.802-10.435c25.669-39.781,100.635-60.37,152.069-40.465l2.799,82.776
			C175.442,821.658,169.386,841.422,159.342,856.558z"/>
		
			<path fill="none" stroke="#231F20" stroke-width="5.8236" stroke-linecap="round" stroke-linejoin="round" stroke-miterlimit="10" d="
			M110.801,821.204c-4.929,7.641-15.84,10.255-24.384,5.836c-10.66-5.522-14.309-17.742-8.144-27.303
			c7.704-11.948,24.761-16.026,38.093-9.123c16.657,8.639,22.358,27.732,12.731,42.662c-12.037,18.66-38.69,25.04-59.522,14.255
			c-26.04-13.485-34.939-43.327-19.891-66.664c18.814-29.153,60.453-39.126,93.008-22.274c19.876,10.302,29.001,26.86,30.831,44.559
			"/>
		
			<linearGradient id="SVGID_2_" gradientUnits="userSpaceOnUse" x1="-440.1355" y1="-0.3499" x2="984.7078" y2="1092.9709" gradientTransform="matrix(0.9843 0.1766 -0.1766 0.9843 488.1713 173.6744)">
			<stop  offset="0.1468" style="stop-color:#2F74AA"/>
			<stop  offset="0.2717" style="stop-color:#2E71A6"/>
			<stop  offset="0.4363" style="stop-color:#2C6C9E"/>
			<stop  offset="0.6228" style="stop-color:#276290"/>
			<stop  offset="0.824" style="stop-color:#1F537C"/>
			<stop  offset="1" style="stop-color:#144367"/>
		</linearGradient>
		
			<path fill="url(#SVGID_2_)" stroke="#231F20" stroke-width="5.1838" stroke-linecap="round" stroke-linejoin="round" stroke-miterlimit="10" d="
			M1017.207,741.272c-17.193,48.729-151.789,74.571-197.445,84.604c-105.086,23.107-212.127,61.71-391.116,33.59
			c-133.79-21.036-172.657-82.462-239.035-129.108c-5.777-4.053-12.126-7.373-18.892-9.984
			c-51.435-19.907-126.403,0.685-152.068,40.466c-2.159,3.35-4.094,6.835-5.804,10.434c-3.247,6.859-5.648,14.112-7.124,21.484
			c15.576-74.47,94.542-556.61,148.087-639.586c23.818-36.897,121.766-65.444,218.664-14.135
			c91.573,48.491,185.207,83.439,278.163,90.407c98.807,7.407,111.223-6.794,139.055-18.382c0,0-2.164-7.359-2.229-7.573
			c-0.986-3.426-0.896-7.183,0.529-10.75c4.195-10.523,16.014-15.596,26.385-11.333c6.709,2.75,11.621,8.552,13.99,14.848
			l188.424,511.226C1020.885,717.847,1021.231,729.85,1017.207,741.272z"/>
		
			<path fill="none" stroke="#231F20" stroke-width="5.1838" stroke-linecap="round" stroke-linejoin="round" stroke-miterlimit="10" d="
			M955.239,712.232c3.824-9.548,14.559-14.153,23.98-10.283c11.777,4.83,17.457,18.428,12.693,30.354
			c-5.957,14.922-22.717,22.133-37.455,16.095c-10.621-4.355-18.324-14.04-21.295-24.394"/>
		
			<path fill="none" stroke="#231F20" stroke-width="5.1838" stroke-linecap="round" stroke-linejoin="round" stroke-miterlimit="10" d="
			M789.694,211.061l143.469,512.943c-2.016-7.028-1.799-14.767,1.113-22.073c8.646-21.63,32.932-32.05,54.264-23.308
			c13.566,5.561,23.289,16.161,28.262,28.853"/>
	</g>
	
		<path fill="#6AB3E3" stroke="#9FE2FF" stroke-width="3.4559" stroke-linecap="round" stroke-linejoin="round" stroke-miterlimit="10" d="
		M313.725,678.969l12.996-149.684l232.295-106.07l233.623,160.643l26.371,116.204c0,0-185.381-110.121-249.027-147.104
		C493.435,587.408,313.725,678.969,313.725,678.969z"/>
	
		<path fill="#6AB3E3" stroke="#9FE2FF" stroke-width="3.4559" stroke-linecap="round" stroke-linejoin="round" stroke-miterlimit="10" d="
		M330.616,471.01l4.055-54.714l213.515-102.759l220.109,155.105l12.332,58.226c0,0-173.021-120.992-226.253-157.75
		C482.341,400.339,330.616,471.01,330.616,471.01z"/>
	<g>
		
			<path fill="none" stroke="#9FE2FF" stroke-width="1.5553" stroke-linecap="round" stroke-linejoin="round" stroke-miterlimit="10" d="
			M350.998,249.695c-11.694,45.911-28.836,395.78-44.549,487.303"/>
		
			<path fill="none" stroke="#9FE2FF" stroke-width="1.5553" stroke-linecap="round" stroke-linejoin="round" stroke-miterlimit="10" d="
			M443.06,286.031c-5.046,33.536,4.338,398.698,4.219,465.885"/>
		
			<path fill="none" stroke="#9FE2FF" stroke-width="1.3844" stroke-linecap="round" stroke-linejoin="round" stroke-miterlimit="10" d="
			M540.978,284.002c18.613,48.543,32.146,386.883,51.021,449.699"/>
		
			<path fill="none" stroke="#9FE2FF" stroke-width="1.3844" stroke-linecap="round" stroke-linejoin="round" stroke-miterlimit="10" d="
			M640.744,328.284c12.701,22.813,48.869,370.145,69.939,400.843"/>
		
			<path fill="none" stroke="#9FE2FF" stroke-width="1.3844" stroke-linecap="round" stroke-linejoin="round" stroke-miterlimit="10" d="
			M738.772,348.198c12.715,21.943,70.584,331.592,83.436,361.622c0.107,0.254,4.957,23.847,5.055,24.057"/>
		
			<path fill="none" stroke="#9FE2FF" stroke-width="1.3844" stroke-linecap="round" stroke-linejoin="round" stroke-miterlimit="10" d="
			M256.544,714.618c46.178-53.925,457.091-201.212,512.726-289.679"/>
		
			<path fill="none" stroke="#9FE2FF" stroke-width="1.3844" stroke-linecap="round" stroke-linejoin="round" stroke-miterlimit="10" d="
			M869.641,714.953C842.123,743.35,418.8,416.992,277.027,450.544"/>
		
			<path fill="none" stroke="#9FE2FF" stroke-width="1.3844" stroke-linecap="round" stroke-linejoin="round" stroke-miterlimit="10" d="
			M251.949,520.396c53.809-59.541,444.031-194.619,464.281-236.357"/>
		
			<path fill="none" stroke="#9FE2FF" stroke-width="1.3844" stroke-linecap="round" stroke-linejoin="round" stroke-miterlimit="10" d="
			M272.427,567.476c46.642-58.063,453.771-202.643,465.692-231.413"/>
		
			<path fill="none" stroke="#9FE2FF" stroke-width="1.3844" stroke-linecap="round" stroke-linejoin="round" stroke-miterlimit="10" d="
			M828.192,539.3c-29.355,4.124-46.76-9.032-143.129-79.181c-94.578-68.844-286.769-198.227-318.756-192.217"/>
		
			<path fill="none" stroke="#9FE2FF" stroke-width="1.3844" stroke-linecap="round" stroke-linejoin="round" stroke-miterlimit="10" d="
			M841.258,596.039c-32.807,28.104-387.504-282.502-517.384-285.478"/>
		
			<path fill="none" stroke="#9FE2FF" stroke-width="1.3844" stroke-linecap="round" stroke-linejoin="round" stroke-miterlimit="10" d="
			M826.108,489.935c-36.768,15.39-260.828-190.84-372.354-219.954"/>
		
			<path fill="none" stroke="#9FE2FF" stroke-width="1.3844" stroke-linecap="round" stroke-linejoin="round" stroke-miterlimit="10" d="
			M266.856,653.015c123.792,85.985,402.681,96.319,592.373,35.372"/>
		
			<path fill="none" stroke="#9FE2FF" stroke-width="1.3844" stroke-linecap="round" stroke-linejoin="round" stroke-miterlimit="10" d="
			M330.326,250.14c46.829,10.887,104.688,34.527,217.859,63.398c101.557,25.904,106.059,13.722,194.459,12.763"/>
		
			<path fill="none" stroke="#9FE2FF" stroke-width="1.3844" stroke-linecap="round" stroke-linejoin="round" stroke-miterlimit="10" d="
			M622.637,288.23c-21.398-6.693-350.21,154.438-366.093,172.625"/>
	</g>
</g>
</svg>
