<?xml version="1.0" encoding="utf-8"?>
<!-- Generator: Adobe Illustrator 16.0.0, SVG Export Plug-In . SVG Version: 6.00 Build 0)  -->
<!DOCTYPE svg PUBLIC "-//W3C//DTD SVG 1.1//EN" "http://www.w3.org/Graphics/SVG/1.1/DTD/svg11.dtd">
<svg version="1.1" id="Layer_1" xmlns="http://www.w3.org/2000/svg" xmlns:xlink="http://www.w3.org/1999/xlink" x="0px" y="0px"
	 width="512px" height="512px" viewBox="0 0 512 512" enable-background="new 0 0 512 512" xml:space="preserve">
<g id="scrap" display="none">
</g>
<g id="WholeFruits">
	<g id="Layer_6">
	</g>
	<g id="Layer_7">
	</g>
	<g id="Layer_8">
	</g>
</g>
<g id="Single">
	<g id="Outline">
		<path fill="none" stroke="#000000" stroke-width="3.048" stroke-miterlimit="10" d="M509.334,203.549
			c-0.929,0.654-15.971,11.338-18.836,18.455c-15.073,37.46-30.891,56.204-82.035,87.918"/>
		<path fill="none" stroke="#000000" stroke-width="3.048" stroke-miterlimit="10" d="M179.205,164.43
			c6.584-63.933,31.35-79.845,56.129-107.338c12.079-13.366,12.919-10.974,20.469-37.913c0.023-0.086,1.69,0.054,1.714-0.034"/>
		<path fill="none" stroke="#000000" stroke-width="3.048" stroke-miterlimit="10" d="M412.982,500.426c0,0-0.136,1.757-0.463,1.357
			c-2.575-2.211-16.157-14.148-23.321-16.294c-52.121-15.576-87.172-29.292-133.395-66.034
			c-40.127,38.267-78.73,50.049-113.797,59.086c-15.499,4.008-42.216,22.784-43.054,23.363c0.26-0.655,7.132-17.983,8.397-29.626
			c5.7-52.655-6.995-106.636,21.549-145.024C52.729,294.395,43.586,226.958,23.392,215.909
			c-7.774-4.249-19.394-11.165-21.304-12.303c-0.18-0.106,2.204-2.111,2.204-2.111"/>
	</g>
	<g id="MainFlesh">
		
			<linearGradient id="SVGID_1_" gradientUnits="userSpaceOnUse" x1="217.6692" y1="449.7527" x2="202.4248" y2="395.6241" gradientTransform="matrix(1 0 0 -1 214.3999 604.0991)">
			<stop  offset="0" style="stop-color:#8EA634"/>
			<stop  offset="0.1602" style="stop-color:#8CA434"/>
			<stop  offset="0.2617" style="stop-color:#849E35"/>
			<stop  offset="0.3465" style="stop-color:#779436"/>
			<stop  offset="0.375" style="stop-color:#718F37"/>
			<stop  offset="0.6086" style="stop-color:#5E7D33"/>
			<stop  offset="1" style="stop-color:#3A5C29"/>
		</linearGradient>
		<path fill="url(#SVGID_1_)" stroke="#000000" stroke-width="3.048" stroke-linejoin="round" stroke-miterlimit="10" d="
			M509.38,203.518c0,0-11.825,1.494-22.479-0.35c-45.598-7.91-107.945-32.355-152.674-25.102
			c5.715-5.715,20.117-16.55,22.784-22.646c35.433-4.191,82.159,18.684,117.76,20.894c16.87,1.036,28.592,1.295,28.592,1.295
			C506.486,188.568,511.835,191.706,509.38,203.518z"/>
		
			<linearGradient id="SVGID_2_" gradientUnits="userSpaceOnUse" x1="120.0413" y1="523.6521" x2="82.7153" y2="506.4597" gradientTransform="matrix(1 0 0 -1 214.3999 604.0991)">
			<stop  offset="0" style="stop-color:#8EA634"/>
			<stop  offset="0.1602" style="stop-color:#8CA434"/>
			<stop  offset="0.2617" style="stop-color:#849E35"/>
			<stop  offset="0.3465" style="stop-color:#779436"/>
			<stop  offset="0.375" style="stop-color:#718F37"/>
			<stop  offset="0.6086" style="stop-color:#5E7D33"/>
			<stop  offset="1" style="stop-color:#3A5C29"/>
		</linearGradient>
		<path fill="url(#SVGID_2_)" stroke="#000000" stroke-width="3.048" stroke-linejoin="round" stroke-miterlimit="10" d="
			M357.012,155.421c-2.667,6.096-17.069,16.931-22.784,22.646c-0.9-41.604-36.256-98.176-62.804-133.487
			c-4.101-5.439-7.591-17.724-15.622-25.435c11.689,1.31,17.01-10.149,31.29-8.978c0.944,2.195,2.316,13.411,8.656,22.982
			C316.749,64.865,342.275,94.964,357.012,155.421z"/>
		
			<linearGradient id="SVGID_3_" gradientUnits="userSpaceOnUse" x1="218.8064" y1="201.8357" x2="175.0914" y2="194.7759" gradientTransform="matrix(1 0 0 -1 214.3999 604.0991)">
			<stop  offset="0" style="stop-color:#8EA634"/>
			<stop  offset="0.1602" style="stop-color:#8CA434"/>
			<stop  offset="0.2617" style="stop-color:#849E35"/>
			<stop  offset="0.3465" style="stop-color:#779436"/>
			<stop  offset="0.375" style="stop-color:#718F37"/>
			<stop  offset="0.6086" style="stop-color:#5E7D33"/>
			<stop  offset="1" style="stop-color:#3A5C29"/>
		</linearGradient>
		
			<path fill="url(#SVGID_3_)" stroke="#000000" stroke-width="3.048" stroke-linecap="round" stroke-linejoin="round" stroke-miterlimit="10" d="
			M438.15,474.456c-9.311,8.366-21.063,5.104-25.483,27.461c0,0-6.263-18.866-7.924-33.938
			c-4.159-37.689,1.69-94.351-22.038-140.728c6.462-3.749,20.027-13.776,25.758-17.328c11.611,35.602,27.554,96.257,24.489,143.669
			C432.449,461.488,438.15,474.456,438.15,474.456z"/>
		
			<linearGradient id="SVGID_4_" gradientUnits="userSpaceOnUse" x1="-131.0447" y1="446.2205" x2="-120.8416" y2="409.4398" gradientTransform="matrix(1 0 0 -1 214.3999 604.0991)">
			<stop  offset="0" style="stop-color:#8EA634"/>
			<stop  offset="0.1602" style="stop-color:#8CA434"/>
			<stop  offset="0.2617" style="stop-color:#849E35"/>
			<stop  offset="0.3465" style="stop-color:#779436"/>
			<stop  offset="0.375" style="stop-color:#718F37"/>
			<stop  offset="0.6086" style="stop-color:#5E7D33"/>
			<stop  offset="1" style="stop-color:#3A5C29"/>
		</linearGradient>
		<path fill="url(#SVGID_4_)" stroke="#000000" stroke-width="3.048" stroke-linejoin="round" stroke-miterlimit="10" d="
			M179.205,164.43c-0.426,4.145-1.63,15.725-1.889,20.235c-38.283-13.335-98.679-14.661-146.06,12.147
			c-8.748,4.937-29.262,6.736-29.262,6.736c12.542-11.843,22.024-10.211,29.263-20.879c8.275-3.703,11.187-0.672,18.851-4.572
			C71.109,167.384,92.642,152.436,179.205,164.43z"/>
		
			<linearGradient id="SVGID_5_" gradientUnits="userSpaceOnUse" x1="213.2532" y1="558.825" x2="55.3185" y2="327.3683" gradientTransform="matrix(1 0 0 -1 214.3999 604.0991)">
			<stop  offset="0" style="stop-color:#9EB83B"/>
			<stop  offset="0.1602" style="stop-color:#9BB53B"/>
			<stop  offset="0.2617" style="stop-color:#91AD3C"/>
			<stop  offset="0.3465" style="stop-color:#83A23D"/>
			<stop  offset="0.375" style="stop-color:#7D9D3D"/>
			<stop  offset="0.5152" style="stop-color:#8EA73F"/>
			<stop  offset="0.8002" style="stop-color:#BCC647"/>
			<stop  offset="1" style="stop-color:#E4E451"/>
		</linearGradient>
		<path fill="url(#SVGID_5_)" d="M509.334,203.532v0.017c-70.882,33.512-166.574,49.758-251.521,81.198
			c-6.356-74.173,1.037-141.61-2.011-265.602c8.031,7.711,11.521,19.995,15.622,25.435c26.548,35.312,61.903,91.883,62.802,133.487
			c44.73-7.254,107.078,17.191,152.676,25.102C497.143,204.935,508.465,203.625,509.334,203.532z"/>
		
			<linearGradient id="SVGID_6_" gradientUnits="userSpaceOnUse" x1="-133.0085" y1="555.7205" x2="36.9011" y2="330.5176" gradientTransform="matrix(1 0 0 -1 214.3999 604.0991)">
			<stop  offset="0" style="stop-color:#9EB83B"/>
			<stop  offset="0.1602" style="stop-color:#9BB53B"/>
			<stop  offset="0.2617" style="stop-color:#91AD3C"/>
			<stop  offset="0.3465" style="stop-color:#83A23D"/>
			<stop  offset="0.375" style="stop-color:#7D9D3D"/>
			<stop  offset="0.5152" style="stop-color:#8EA73F"/>
			<stop  offset="0.8002" style="stop-color:#BCC647"/>
			<stop  offset="1" style="stop-color:#E4E451"/>
		</linearGradient>
		<path fill="url(#SVGID_6_)" d="M257.814,284.747c-70.591-16.84-165.651-70.172-255.819-81.198c0,0,20.514-1.8,29.262-6.736
			c47.381-26.809,107.776-25.482,146.06-12.147c0.259-4.511,1.463-16.091,1.889-20.235c6.584-63.933,31.35-79.845,56.129-107.338
			c12.116-13.411,12.849-10.729,20.469-37.947C260.128,142.947,251.458,210.573,257.814,284.747z"/>
		
			<linearGradient id="SVGID_7_" gradientUnits="userSpaceOnUse" x1="-228.0359" y1="230.5774" x2="8.8181" y2="307.409" gradientTransform="matrix(1 0 0 -1 214.3999 604.0991)">
			<stop  offset="0" style="stop-color:#9EB83B"/>
			<stop  offset="0.1602" style="stop-color:#9BB53B"/>
			<stop  offset="0.2617" style="stop-color:#91AD3C"/>
			<stop  offset="0.3465" style="stop-color:#83A23D"/>
			<stop  offset="0.375" style="stop-color:#7D9D3D"/>
			<stop  offset="0.5152" style="stop-color:#8EA73F"/>
			<stop  offset="0.8002" style="stop-color:#BCC647"/>
			<stop  offset="1" style="stop-color:#E4E451"/>
		</linearGradient>
		<path fill="url(#SVGID_7_)" d="M107.349,472.276c5.7-52.655-6.995-106.635,21.549-145.023
			C52.729,294.394,43.586,226.956,23.392,215.907c-8.504-4.647-21.397-12.358-21.397-12.358
			c89.978,9.768,185.228,64.358,255.819,81.198c-30.663,47.244-105.719,142.175-158.862,217.155
			C99.212,501.248,106.084,483.92,107.349,472.276z"/>
		
			<linearGradient id="SVGID_8_" gradientUnits="userSpaceOnUse" x1="319.4563" y1="226.281" x2="76.7859" y2="309.8352" gradientTransform="matrix(1 0 0 -1 214.3999 604.0991)">
			<stop  offset="0" style="stop-color:#9EB83B"/>
			<stop  offset="0.1602" style="stop-color:#9BB53B"/>
			<stop  offset="0.2617" style="stop-color:#91AD3C"/>
			<stop  offset="0.3465" style="stop-color:#83A23D"/>
			<stop  offset="0.375" style="stop-color:#7D9D3D"/>
			<stop  offset="0.5152" style="stop-color:#8EA73F"/>
			<stop  offset="0.8002" style="stop-color:#BCC647"/>
			<stop  offset="1" style="stop-color:#E4E451"/>
		</linearGradient>
		<path fill="url(#SVGID_8_)" d="M509.334,203.549c-0.929,0.654-15.971,11.338-18.836,18.455
			c-15.073,37.46-30.891,56.205-82.035,87.918c-5.731,3.552-19.296,13.579-25.758,17.328
			c23.729,46.377,17.878,103.038,22.037,140.728c1.661,15.072,7.924,33.938,7.924,33.938
			c-35.067-59.436-115.504-150.859-154.853-217.17C342.762,253.307,437.921,236.482,509.334,203.549z"/>
		
			<linearGradient id="SVGID_9_" gradientUnits="userSpaceOnUse" x1="40.7434" y1="52.158" x2="43.6289" y2="268.5789" gradientTransform="matrix(1 0 0 -1 214.3999 604.0991)">
			<stop  offset="0" style="stop-color:#9EB83B"/>
			<stop  offset="0.1602" style="stop-color:#9BB53B"/>
			<stop  offset="0.2617" style="stop-color:#91AD3C"/>
			<stop  offset="0.3465" style="stop-color:#83A23D"/>
			<stop  offset="0.375" style="stop-color:#7D9D3D"/>
			<stop  offset="0.5152" style="stop-color:#8EA73F"/>
			<stop  offset="0.8002" style="stop-color:#BCC647"/>
			<stop  offset="1" style="stop-color:#E4E451"/>
		</linearGradient>
		<path fill="url(#SVGID_9_)" d="M412.667,501.917c0,0-15.528-14.051-23.469-16.428c-52.121-15.576-87.171-29.292-133.395-66.034
			c-40.127,38.267-78.729,50.049-113.797,59.086c-15.499,4.008-42.215,22.784-43.053,23.363
			c52.266-75.492,128.199-169.911,158.861-217.155C297.163,351.057,377.723,441.269,412.667,501.917z"/>
	</g>
	<path id="LightPith" fill="#F3ECBD" d="M246.552,278.504c0.994-4.343,2.252-4.848,2.405-9.309
		c0.148-4.276-0.914-8.377-0.577-12.655c0.282-3.583-0.033-7.887,0.851-11.623c0.804-3.403,1.369-6.898,1.879-10.813
		c0.461,1.644,0.035,4.007,1.241,5.48c1.548,1.888,2.994-3.163,3.962-5.05c0.976-1.908,0.875-7.398,2.507-8.722
		c0.72,1.628,0.22,3.301,0.341,5.098c0.112,1.663,0.771,4.899,1.476,5.292c0.51,0.214,2.471-4.465,2.69-4.993
		c-0.101,1.584-1.08,5.977,0.042,7.124c3.687-1.601,2.982,16.699,2.67,19.667c-0.406,3.849-0.853,7.838-0.105,11.677
		c0.236,1.204,0.622,3.11,2.036,3.451c1.223,0.296,2.694-0.616,3.867-0.878c1.913-0.426,3.592,0.022,5.473,0.259
		c1.516,0.19,3.021,0.173,4.51-0.174c3.064-0.715,5.612-2.593,8.47-3.792c5.766-2.42,14.006-4.975,20.964-4.933
		c-1.208,1.108-2.658,1.688-4.027,2.521c3.002,0.825,6.845-1.519,9.594,0.143c-0.672,0.35-1.944,1.616-2.704,1.908
		c1.688-0.309,3.276-0.006,4.675,0.853c-2.141,3.323-9.429-0.27-12.792,2.789c-1.667,1.515-1.823,4.146-4.277,5.533
		c-1.718,0.972-4.521,1.051-6.34,1.568c-4.358,1.238-9.059,2.813-13.231,4.526c-3.094,1.27-10.708,2.856-11.637,6.757
		c-0.942,3.979,2.982,8.773,5.058,11.413c2.651,3.377,4.224,4.589,4.971,9.145c0.739,4.505,4.25,7.234,6.749,11.043
		c2.354,3.596,6.853,4.788,8.532,9.083c-2.975-1.321-6.408-4.271-9.211-4.857c1.86,2.543,4.57,5.917,3.144,9.234
		c-0.755-0.667-1.929-1.091-2.572-2.079c-0.435,2.459-1.035,5.352-1.503,7.867c0-6.615-7.763-13.641-11.657-18.114
		c-4.135-4.744-6.574-13.884-12.804-17.175c-6.036-3.188-9.943-0.396-13.604,3.218c-5.178,5.109-10.191,16.918-13.986,22.908
		c1.217-3.783,2.574-7.589,3.972-11.272c0.688-1.812,1.856-3.345,1.638-4.785c-2.55,2.269-3.422,1.383-5.953,3.67
		c0.296-2.65,1.85-3.147,3.452-5.139c1.417-1.759,1.32-2.803,2.261-4.745c1.388-2.858,7.406-5.134,6.705-7.198
		c-0.621-0.844-4.377,0.442-5.58,0.151c-2.17-0.522-4.81-1.617-6.991-2.103c-4.541-1.012-8.727-1.515-13.241-2.116
		c1.469-1.243,3.229-1.568,4.143-3.264c-3.18-1.06-5.588-0.849-8.203-3.507c1.155-0.134,3.636,0.402,4.83-1.367
		c-0.76-0.423-1.547-1.428-2.38-1.692c2.554-1.165,9.123,0.475,12.497,0.629c3.337,0.155,8.064-0.146,11.396-1.116
		C246.558,286.76,245.679,282.304,246.552,278.504z"/>
	<path id="DarkPith" fill="#F6E08E" d="M313.715,266.581c-2.386,1.298-6.268,1.642-9.192,2.764c-3.157,1.21-6.298,1.916-9.431,2.858
		c-5.941,1.787-11.655,3.417-17.572,5.196c-1.585,0.477-3.231,0.965-4.758,1.419c-1.366,0.406-3.342,1.605-4.742,1.448
		c1.328-2.073,3.536-4.407,5.1-6.563c-1.976,1.35-2.894,3.86-4.933,5.072c-1.812,1.075-4.839,2.049-4.991-0.933
		c-2.945,2.021-2.416-3.281-2.289-4.633c0.259-2.762-0.063-4.81-1.135-7.354c-0.592-0.224-0.932-0.423-1.452-0.775
		c-0.335,1.966,0.855,3.443,0.915,5.313c0.059,1.829-0.676,3.331-0.912,4.996c-0.298,2.127,0.037,3.288-1.326,5.012
		c-1.907,2.406-2.062,0.741-4.172,0.272c0.19,1.541,1.229,0.157,0.19,1.541c-0.021,0.028-9.68-2.857-13.307-3.82
		c-21.824-5.792-30.453-9.786-30.575-9.811c-10.922-3.847-11.122-2.962-24.092-7.024c12.15,4.758,19.245,7.546,25.901,9.978
		c0.067,0.02,25.014,7.351,38.438,11.9c1.898,0.595,2.777,1.069,2.749,1.142c-0.209,0.513-1.282,0.281-1.53,0.674
		c-0.432,0.685,1.599,1.911,1.198,2.609c0.327-0.192,0.836,0.742,1.165,0.51c-0.438,0.787-0.468,1.533-0.924,2.261
		c-0.535,0.854-1.42,1.389-2.101,2.091c-1.094,1.132-1.878,2.352-3.409,2.816c1.634,0.066,5.272-2.985,5.991-0.715
		c-1.688,2.934-1.677,6.003-3.523,8.811c-1.001,1.521-1.755,2.873-2.854,4.328c-1.09,1.443-2.152,2.337-3.652,4.316
		c2.401-1.715,5.286-5.73,6.331-7.191c1.46-2.045,1.686-3.048,3.412-4.93c1.517-1.654,2.968-3.392,4.001-5.335
		c0.783-1.475,2.037-5.059,4.301-4.776c0.796,1.11,4.731,7.016,6.262,7.069c0.041-0.793,0.015-1.622,0.057-2.418
		c0.436,0.154,0.842,0.015,1.271,0.333c-0.167-0.61-0.491-1.242-0.704-1.843c0.255-0.058,0.423-0.178,0.667-0.228
		c-1.547-1.881-4.601-5.71-2.562-7.28c1.854-1.426,3.52-1.15,5.453-1.962c-0.279,0.006-0.435-0.017-0.68-0.074
		c-0.121,0.088,0.608-0.488,0.525-0.317c0.205-0.271,0.132-0.491,0.399-0.697c-0.186-0.067-0.342-0.006-0.526-0.065
		c-0.148-0.243-0.664-1.185-0.705-1.462c2.238-1.577,5.783-1.813,8.286-2.786c2.632-1.022,5.487-1.89,8.183-2.571
		c5.806-1.47,11.485-3.438,16.907-5.098C305.646,269.948,311.191,267.772,313.715,266.581"/>
	<g id="SeedCavity">
		
			<linearGradient id="SVGID_10_" gradientUnits="userSpaceOnUse" x1="11.3586" y1="275.8943" x2="-32.4564" y2="215.315" gradientTransform="matrix(1 0 0 -1 214.3999 604.0991)">
			<stop  offset="0" style="stop-color:#6A4B1D"/>
			<stop  offset="0.3138" style="stop-color:#7E762F"/>
			<stop  offset="0.5319" style="stop-color:#807830"/>
			<stop  offset="0.6103" style="stop-color:#847E31"/>
			<stop  offset="0.6662" style="stop-color:#8B8934"/>
			<stop  offset="0.6695" style="stop-color:#8B8A34"/>
			<stop  offset="0.6821" style="stop-color:#939235"/>
			<stop  offset="0.7181" style="stop-color:#A5A234"/>
			<stop  offset="0.7628" style="stop-color:#B3AF32"/>
			<stop  offset="0.8256" style="stop-color:#BCB831"/>
			<stop  offset="1" style="stop-color:#BFBA31"/>
		</linearGradient>
		<path fill="url(#SVGID_10_)" d="M212.84,355.933c-4.999,6.493-21.214,21.336-29.55,30.541
			c8.077-13.777,15.087-30.632,20.224-37.505c9.8-13.091,17.11-19.649,20.376-18.516
			C226.592,332.241,225.794,339.108,212.84,355.933z"/>
		
			<linearGradient id="SVGID_11_" gradientUnits="userSpaceOnUse" x1="42.8557" y1="363.4265" x2="42.8557" y2="444.6168" gradientTransform="matrix(1 0 0 -1 214.3999 604.0991)">
			<stop  offset="0" style="stop-color:#C5BB3C"/>
			<stop  offset="0.0405" style="stop-color:#B4B03D"/>
			<stop  offset="0.1198" style="stop-color:#9DA13D"/>
			<stop  offset="0.2135" style="stop-color:#8D973D"/>
			<stop  offset="0.3347" style="stop-color:#84913C"/>
			<stop  offset="0.5816" style="stop-color:#828F3C"/>
			<stop  offset="0.7176" style="stop-color:#87A451"/>
			<stop  offset="0.9008" style="stop-color:#87BB6B"/>
			<stop  offset="1" style="stop-color:#86C877"/>
		</linearGradient>
		<path fill="url(#SVGID_11_)" d="M255.68,238.738c-5.029-1.494-1.707-16.033-1.707-35.813c0-19.782-0.198-22.19,1.707-35.814
			C258.089,194.952,267.736,234.257,255.68,238.738z"/>
		
			<linearGradient id="SVGID_12_" gradientUnits="userSpaceOnUse" x1="64.3337" y1="285.0144" x2="117.0137" y2="213.6334" gradientTransform="matrix(1 0 0 -1 214.3999 604.0991)">
			<stop  offset="0" style="stop-color:#7E762F"/>
			<stop  offset="0.039" style="stop-color:#85792F"/>
			<stop  offset="0.0973" style="stop-color:#98832E"/>
			<stop  offset="0.1676" style="stop-color:#B9942B"/>
			<stop  offset="0.2427" style="stop-color:#EAAE22"/>
			<stop  offset="0.2937" style="stop-color:#E2B125"/>
			<stop  offset="0.4079" style="stop-color:#D3B62B"/>
			<stop  offset="0.5399" style="stop-color:#C8B92E"/>
			<stop  offset="0.7042" style="stop-color:#C1BA31"/>
			<stop  offset="1" style="stop-color:#BFBA31"/>
		</linearGradient>
		<path fill="url(#SVGID_12_)" d="M327.019,383.137c-27.599-31.212-46.543-44.838-43.022-57.379
			C297.134,327.253,302.864,348.208,327.019,383.137z"/>
	</g>
	<g id="Seeds">
		<path fill="#4E2D11" d="M213.447,354.34c-3.921,5.212-9.519,7.576-11.62,5.996c-2.102-1.581-0.938-7.643,2.984-12.854
			c3.921-5.214,8.917-7.233,11.019-5.651C217.931,343.411,217.369,349.126,213.447,354.34z"/>
		<path fill="#C7BE98" d="M212.54,353.684c-3.138,4.17-7.614,6.061-9.296,4.794c-1.682-1.263-0.75-6.112,2.387-10.279
			c3.138-4.172,7.134-5.788,8.815-4.523C216.13,344.942,215.678,349.514,212.54,353.684z"/>
		<path fill="#E8E5B4" d="M209.797,351.926c-3.138,4.17-5.138,6.039-5.609,5.607c-0.625-0.571,0.9-2.63,4.038-6.797
			c3.139-4.172,4.741-6.161,5.334-5.479C214.177,345.973,212.935,347.757,209.797,351.926z"/>
		<path fill="#4E2D11" d="M299.046,341.333c1.619,2.127,1.259,4.498,0.096,5.396c-1.158,0.9-3.573,0.511-5.04-1.723
			c-1.509-2.302-1.811-4.76-0.628-5.634C294.117,338.895,297.424,339.211,299.046,341.333z"/>
		<path fill="#C7BE98" d="M298.449,342.005c1.299,1.698,0.736,3.393-0.19,4.11c-0.929,0.719-2.334,0.454-3.633-1.246
			c-1.295-1.699-1.584-4.033-0.653-4.755C294.9,339.397,297.156,340.304,298.449,342.005z"/>
		<path fill="#E8E5B4" d="M296.776,342.894c0.516,0.685,0.365,0.458,0.365,1.34c-0.334,0.262-0.821-0.11-1.239-0.669
			c-0.801-1-0.665-0.949-0.477-1.497C295.95,341.917,296.183,341.986,296.776,342.894z"/>
		<path fill="#4E2D11" d="M260.128,220.131c-0.007,5.026-1.519,8.154-2.805,8.17c-1.282,0.015-2.755-3.328-2.583-8.338
			c0.175-5.164,1.272-9.177,2.56-9.135C257.999,210.858,260.131,215.107,260.128,220.131z"/>
		<path fill="#C7BE98" d="M259.637,220.599c0,4.02-1.572,5.764-2.599,5.774c-1.028,0.012-1.864-1.993-1.861-6.013
			s1.405-7.033,2.435-7.049C258.638,213.3,259.643,216.579,259.637,220.599z"/>
		<path fill="#E8E5B4" d="M257.751,220.835c-0.005,0.935,0.01,0.641-0.459,1.4c-0.372,0.006-0.512-0.64-0.506-1.398
			c-0.025-1.396,0.043-1.261,0.468-1.607C257.7,219.446,257.823,219.656,257.751,220.835z"/>
	</g>
</g>
<g id="Handful">
</g>
<g id="Bunch">
</g>
<g id="BasketFruit">
</g>
<g id="Basket">
</g>
</svg>
