<?xml version="1.0" encoding="utf-8"?>
<!-- Generator: Adobe Illustrator 16.0.0, SVG Export Plug-In . SVG Version: 6.00 Build 0)  -->
<!DOCTYPE svg PUBLIC "-//W3C//DTD SVG 1.1//EN" "http://www.w3.org/Graphics/SVG/1.1/DTD/svg11.dtd">
<svg version="1.1" xmlns="http://www.w3.org/2000/svg" xmlns:xlink="http://www.w3.org/1999/xlink" x="0px" y="0px" width="512px"
	 height="512px" viewBox="0 0 512 512" enable-background="new 0 0 512 512" xml:space="preserve">
<g id="scrap" display="none">
</g>
<g id="WholeFruits">
	<g id="Layer_6">
	</g>
	<g id="Layer_7">
	</g>
	<g id="Layer_8">
	</g>
</g>
<g id="Single">
	<g id="Outline">
		<path fill="none" stroke="#000000" stroke-width="2" stroke-miterlimit="10" d="M422.36,201.89c-0.61,0.43-10.48,7.44-12.36,12.11
			c-9.89,24.58-20.269,36.879-53.829,57.689"/>
		<path fill="none" stroke="#000000" stroke-width="2" stroke-miterlimit="10" d="M205.74,176.221
			c4.32-41.95,20.57-52.391,36.83-70.431c7.925-8.771,8.476-7.2,13.43-24.877c0.016-0.057,1.109,0.035,1.125-0.023"/>
		<path fill="none" stroke="#000000" stroke-width="2" stroke-miterlimit="10" d="M359.136,396.691c0,0-0.089,1.152-0.304,0.891
			c-1.689-1.451-10.601-9.284-15.302-10.692c-34.2-10.22-57.2-19.22-87.53-43.33c-26.33,25.11-51.66,32.841-74.67,38.771
			c-10.17,2.63-27.7,14.95-28.25,15.33c0.17-0.43,4.68-11.8,5.51-19.44c3.74-34.55-4.59-69.97,14.14-95.16
			c-49.98-21.56-55.98-65.81-69.23-73.06c-5.101-2.788-12.725-7.326-13.978-8.073c-0.118-0.07,1.446-1.385,1.446-1.385"/>
	</g>
	<g id="MainFlesh">
		<linearGradient id="SVGID_1_" gradientUnits="userSpaceOnUse" x1="371.6602" y1="169.6064" x2="361.6575" y2="205.1231">
			<stop  offset="0" style="stop-color:#8EA634"/>
			<stop  offset="0.1602" style="stop-color:#8CA434"/>
			<stop  offset="0.2617" style="stop-color:#849E35"/>
			<stop  offset="0.3465" style="stop-color:#779436"/>
			<stop  offset="0.375" style="stop-color:#718F37"/>
			<stop  offset="0.6086" style="stop-color:#5E7D33"/>
			<stop  offset="1" style="stop-color:#3A5C29"/>
		</linearGradient>
		<path fill="url(#SVGID_1_)" stroke="#000000" stroke-width="2" stroke-linejoin="round" stroke-miterlimit="10" d="M422.39,201.87
			c0,0-7.76,0.98-14.75-0.23c-29.92-5.19-70.83-21.23-100.18-16.47c3.75-3.75,13.201-10.86,14.951-14.86
			c23.25-2.75,53.91,12.26,77.27,13.71c11.07,0.68,18.761,0.85,18.761,0.85C420.491,192.06,424,194.12,422.39,201.87z"/>
		<linearGradient id="SVGID_2_" gradientUnits="userSpaceOnUse" x1="307.5996" y1="121.1147" x2="283.1073" y2="132.3959">
			<stop  offset="0" style="stop-color:#8EA634"/>
			<stop  offset="0.1602" style="stop-color:#8CA434"/>
			<stop  offset="0.2617" style="stop-color:#849E35"/>
			<stop  offset="0.3465" style="stop-color:#779436"/>
			<stop  offset="0.375" style="stop-color:#718F37"/>
			<stop  offset="0.6086" style="stop-color:#5E7D33"/>
			<stop  offset="1" style="stop-color:#3A5C29"/>
		</linearGradient>
		<path fill="url(#SVGID_2_)" stroke="#000000" stroke-width="2" stroke-linejoin="round" stroke-miterlimit="10" d="
			M322.411,170.31c-1.75,4-11.201,11.11-14.951,14.86c-0.59-27.3-23.79-64.42-41.21-87.59c-2.69-3.57-4.98-11.63-10.25-16.69
			c7.67,0.86,11.161-6.66,20.531-5.89c0.62,1.44,1.52,8.8,5.68,15.08C295.991,110.89,312.741,130.64,322.411,170.31z"/>
		<linearGradient id="SVGID_3_" gradientUnits="userSpaceOnUse" x1="372.4072" y1="332.2813" x2="343.7225" y2="336.9138">
			<stop  offset="0" style="stop-color:#8EA634"/>
			<stop  offset="0.1602" style="stop-color:#8CA434"/>
			<stop  offset="0.2617" style="stop-color:#849E35"/>
			<stop  offset="0.3465" style="stop-color:#779436"/>
			<stop  offset="0.375" style="stop-color:#718F37"/>
			<stop  offset="0.6086" style="stop-color:#5E7D33"/>
			<stop  offset="1" style="stop-color:#3A5C29"/>
		</linearGradient>
		
			<path fill="url(#SVGID_3_)" stroke="#000000" stroke-width="2" stroke-linecap="round" stroke-linejoin="round" stroke-miterlimit="10" d="
			M375.651,379.65c-6.11,5.49-13.821,3.35-16.722,18.02c0,0-4.109-12.38-5.199-22.27c-2.73-24.73,1.109-61.91-14.461-92.341
			c4.24-2.46,13.142-9.04,16.901-11.37c7.62,23.361,18.08,63.16,16.07,94.271C371.911,371.141,375.651,379.65,375.651,379.65z"/>
		<linearGradient id="SVGID_4_" gradientUnits="userSpaceOnUse" x1="142.8467" y1="171.9224" x2="149.5415" y2="196.0563">
			<stop  offset="0" style="stop-color:#8EA634"/>
			<stop  offset="0.1602" style="stop-color:#8CA434"/>
			<stop  offset="0.2617" style="stop-color:#849E35"/>
			<stop  offset="0.3465" style="stop-color:#779436"/>
			<stop  offset="0.375" style="stop-color:#718F37"/>
			<stop  offset="0.6086" style="stop-color:#5E7D33"/>
			<stop  offset="1" style="stop-color:#3A5C29"/>
		</linearGradient>
		<path fill="url(#SVGID_4_)" stroke="#000000" stroke-width="2" stroke-linejoin="round" stroke-miterlimit="10" d="
			M205.74,176.221c-0.28,2.72-1.07,10.319-1.24,13.279c-25.12-8.75-64.75-9.62-95.84,7.97c-5.74,3.24-19.2,4.42-19.2,4.42
			c8.23-7.77,14.451-6.7,19.201-13.7c5.43-2.43,7.34-0.44,12.37-3C134.811,178.16,148.94,168.351,205.74,176.221z"/>
		<linearGradient id="SVGID_5_" gradientUnits="userSpaceOnUse" x1="368.7627" y1="98.0371" x2="265.1312" y2="249.9113">
			<stop  offset="0" style="stop-color:#9EB83B"/>
			<stop  offset="0.1602" style="stop-color:#9BB53B"/>
			<stop  offset="0.2617" style="stop-color:#91AD3C"/>
			<stop  offset="0.3465" style="stop-color:#83A23D"/>
			<stop  offset="0.375" style="stop-color:#7D9D3D"/>
			<stop  offset="0.5152" style="stop-color:#8EA73F"/>
			<stop  offset="0.8002" style="stop-color:#BCC647"/>
			<stop  offset="1" style="stop-color:#E4E451"/>
		</linearGradient>
		<path fill="url(#SVGID_5_)" d="M422.36,201.88v0.01c-46.511,21.99-109.301,32.65-165.04,53.28C253.15,206.5,258,162.25,256,80.89
			c5.27,5.06,7.56,13.12,10.25,16.69c17.42,23.17,40.62,60.29,41.21,87.59c29.35-4.76,70.26,11.28,100.18,16.47
			C414.36,202.8,421.79,201.94,422.36,201.88z"/>
		<linearGradient id="SVGID_6_" gradientUnits="userSpaceOnUse" x1="141.5576" y1="100.0732" x2="253.0463" y2="247.8433">
			<stop  offset="0" style="stop-color:#9EB83B"/>
			<stop  offset="0.1602" style="stop-color:#9BB53B"/>
			<stop  offset="0.2617" style="stop-color:#91AD3C"/>
			<stop  offset="0.3465" style="stop-color:#83A23D"/>
			<stop  offset="0.375" style="stop-color:#7D9D3D"/>
			<stop  offset="0.5152" style="stop-color:#8EA73F"/>
			<stop  offset="0.8002" style="stop-color:#BCC647"/>
			<stop  offset="1" style="stop-color:#E4E451"/>
		</linearGradient>
		<path fill="url(#SVGID_6_)" d="M257.32,255.17C211,244.12,148.625,209.125,89.46,201.89c0,0,13.46-1.18,19.2-4.42
			c31.09-17.59,70.72-16.72,95.84-7.97c0.17-2.96,0.96-10.559,1.24-13.279c4.32-41.95,20.57-52.391,36.83-70.431
			c7.95-8.8,8.43-7.04,13.43-24.9C258.838,162.125,253.15,206.5,257.32,255.17z"/>
		<linearGradient id="SVGID_7_" gradientUnits="userSpaceOnUse" x1="79.2041" y1="313.4209" x2="234.6191" y2="263.0068">
			<stop  offset="0" style="stop-color:#9EB83B"/>
			<stop  offset="0.1602" style="stop-color:#9BB53B"/>
			<stop  offset="0.2617" style="stop-color:#91AD3C"/>
			<stop  offset="0.3465" style="stop-color:#83A23D"/>
			<stop  offset="0.375" style="stop-color:#7D9D3D"/>
			<stop  offset="0.5152" style="stop-color:#8EA73F"/>
			<stop  offset="0.8002" style="stop-color:#BCC647"/>
			<stop  offset="1" style="stop-color:#E4E451"/>
		</linearGradient>
		<path fill="url(#SVGID_7_)" d="M158.59,378.22c3.74-34.55-4.59-69.97,14.14-95.16c-49.98-21.56-55.98-65.81-69.23-73.06
			c-5.58-3.05-14.04-8.11-14.04-8.11c59.04,6.41,121.54,42.23,167.86,53.28c-20.12,31-69.37,93.29-104.24,142.49
			C153.25,397.23,157.76,385.86,158.59,378.22z"/>
		<linearGradient id="SVGID_8_" gradientUnits="userSpaceOnUse" x1="438.4512" y1="316.2402" x2="279.2181" y2="261.4144">
			<stop  offset="0" style="stop-color:#9EB83B"/>
			<stop  offset="0.1602" style="stop-color:#9BB53B"/>
			<stop  offset="0.2617" style="stop-color:#91AD3C"/>
			<stop  offset="0.3465" style="stop-color:#83A23D"/>
			<stop  offset="0.375" style="stop-color:#7D9D3D"/>
			<stop  offset="0.5152" style="stop-color:#8EA73F"/>
			<stop  offset="0.8002" style="stop-color:#BCC647"/>
			<stop  offset="1" style="stop-color:#E4E451"/>
		</linearGradient>
		<path fill="url(#SVGID_8_)" d="M422.36,201.89c-0.61,0.43-10.48,7.44-12.36,12.11c-9.89,24.58-20.269,36.88-53.829,57.689
			c-3.76,2.33-12.661,8.91-16.901,11.37C354.84,313.49,351,350.67,353.73,375.4c1.09,9.89,5.199,22.27,5.199,22.27
			c-23.01-39-75.79-98.99-101.609-142.5C313.06,234.54,375.5,223.5,422.36,201.89z"/>
		<linearGradient id="SVGID_9_" gradientUnits="userSpaceOnUse" x1="255.5674" y1="430.4941" x2="257.4608" y2="288.4858">
			<stop  offset="0" style="stop-color:#9EB83B"/>
			<stop  offset="0.1602" style="stop-color:#9BB53B"/>
			<stop  offset="0.2617" style="stop-color:#91AD3C"/>
			<stop  offset="0.3465" style="stop-color:#83A23D"/>
			<stop  offset="0.375" style="stop-color:#7D9D3D"/>
			<stop  offset="0.5152" style="stop-color:#8EA73F"/>
			<stop  offset="0.8002" style="stop-color:#BCC647"/>
			<stop  offset="1" style="stop-color:#E4E451"/>
		</linearGradient>
		<path fill="url(#SVGID_9_)" d="M358.93,397.67c0,0-10.189-9.22-15.399-10.78c-34.2-10.22-57.2-19.22-87.53-43.33
			c-26.33,25.11-51.66,32.841-74.67,38.771c-10.17,2.63-27.7,14.95-28.25,15.33c34.295-49.535,84.12-111.49,104.24-142.49
			C283.14,298.68,336,357.875,358.93,397.67z"/>
	</g>
	<path id="LightPith" fill="#F3ECBD" d="M249.931,251.073c0.652-2.85,1.477-3.181,1.578-6.108c0.098-2.806-0.6-5.497-0.379-8.304
		c0.186-2.351-0.021-5.175,0.559-7.626c0.527-2.234,0.898-4.526,1.232-7.095c0.303,1.078,0.024,2.629,0.815,3.596
		c1.015,1.239,1.964-2.075,2.599-3.314c0.641-1.252,0.574-4.854,1.646-5.722c0.471,1.068,0.143,2.166,0.223,3.344
		c0.074,1.092,0.506,3.215,0.968,3.473c0.335,0.141,1.621-2.93,1.766-3.276c-0.067,1.039-0.709,3.922,0.027,4.675
		c2.419-1.051,1.957,10.957,1.752,12.904c-0.267,2.525-0.56,5.143-0.069,7.662c0.155,0.79,0.408,2.041,1.336,2.265
		c0.802,0.194,1.768-0.405,2.538-0.577c1.255-0.279,2.356,0.015,3.591,0.17c0.994,0.125,1.982,0.114,2.959-0.114
		c2.01-0.469,3.682-1.701,5.557-2.488c3.783-1.588,9.191-3.264,13.756-3.237c-0.793,0.728-1.744,1.108-2.643,1.655
		c1.97,0.542,4.492-0.996,6.295,0.094c-0.44,0.229-1.275,1.06-1.774,1.251c1.107-0.202,2.15-0.003,3.067,0.56
		c-1.404,2.181-6.186-0.177-8.393,1.83c-1.094,0.994-1.197,2.721-2.807,3.631c-1.127,0.638-2.966,0.689-4.16,1.029
		c-2.859,0.813-5.943,1.846-8.682,2.97c-2.03,0.833-7.026,1.874-7.635,4.434c-0.619,2.611,1.957,5.756,3.318,7.489
		c1.74,2.216,2.771,3.011,3.262,6c0.485,2.956,2.789,4.747,4.428,7.246c1.545,2.359,4.496,3.142,5.599,5.96
		c-1.952-0.867-4.205-2.803-6.044-3.188c1.221,1.669,2.999,3.883,2.063,6.06c-0.496-0.438-1.266-0.716-1.688-1.364
		c-0.285,1.613-0.68,3.511-0.986,5.162c0-4.341-5.094-8.95-7.65-11.886c-2.713-3.113-4.313-9.11-8.401-11.269
		c-3.96-2.092-6.523-0.26-8.926,2.111c-3.397,3.352-6.687,11.1-9.178,15.031c0.799-2.482,1.69-4.979,2.607-7.396
		c0.451-1.189,1.218-2.195,1.074-3.14c-1.673,1.488-2.245,0.907-3.906,2.408c0.194-1.739,1.214-2.065,2.265-3.372
		c0.93-1.154,0.867-1.839,1.484-3.113c0.91-1.876,4.859-3.369,4.399-4.724c-0.407-0.553-2.872,0.29-3.661,0.1
		c-1.424-0.343-3.156-1.062-4.588-1.38c-2.979-0.664-5.725-0.994-8.688-1.389c0.964-0.815,2.119-1.029,2.719-2.141
		c-2.087-0.696-3.667-0.557-5.383-2.301c0.758-0.088,2.385,0.264,3.169-0.898c-0.498-0.277-1.015-0.936-1.562-1.11
		c1.676-0.765,5.986,0.312,8.2,0.413c2.19,0.102,5.292-0.096,7.478-0.732C249.935,256.491,249.358,253.567,249.931,251.073z"/>
	<path id="DarkPith" fill="#F6E08E" d="M294,243.25c-1.565,0.851-4.112,1.077-6.031,1.813c-2.072,0.794-4.133,1.257-6.188,1.875
		c-3.899,1.173-7.648,2.242-11.531,3.41c-1.04,0.313-2.12,0.633-3.122,0.931c-0.896,0.267-2.192,1.054-3.111,0.95
		c0.871-1.36,2.32-2.891,3.346-4.306c-1.296,0.885-1.899,2.533-3.237,3.328c-1.188,0.706-3.175,1.344-3.275-0.612
		c-1.933,1.327-1.585-2.153-1.502-3.04c0.17-1.812-0.041-3.156-0.744-4.826c-0.389-0.146-0.612-0.277-0.953-0.509
		c-0.22,1.29,0.561,2.26,0.6,3.487c0.038,1.2-0.443,2.185-0.598,3.278c-0.196,1.396,0.024,2.157-0.871,3.288
		c-1.251,1.579-1.352,0.486-2.737,0.179c0.125,1.012,0.807,0.103,0.125,1.012c-0.014,0.018-6.351-1.875-8.731-2.507
		c-14.321-3.801-19.983-6.422-20.063-6.438c-7.167-2.524-7.298-1.943-15.808-4.609c7.972,3.122,12.628,4.951,16.996,6.547
		c0.044,0.012,16.413,4.823,25.221,7.808c1.246,0.391,1.823,0.702,1.804,0.749c-0.137,0.337-0.841,0.185-1.004,0.443
		c-0.283,0.449,1.049,1.254,0.786,1.712c0.215-0.126,0.549,0.487,0.765,0.335c-0.287,0.516-0.307,1.005-0.606,1.483
		c-0.351,0.561-0.932,0.911-1.378,1.372c-0.718,0.742-1.233,1.543-2.238,1.848c1.073,0.044,3.46-1.959,3.932-0.469
		c-1.108,1.925-1.101,3.938-2.313,5.781c-0.656,0.998-1.151,1.885-1.873,2.84c-0.714,0.947-1.412,1.533-2.396,2.832
		c1.576-1.125,3.469-3.76,4.154-4.719c0.958-1.341,1.107-2,2.239-3.234c0.996-1.086,1.948-2.226,2.625-3.501
		c0.514-0.968,1.336-3.319,2.823-3.134c0.522,0.729,3.104,4.604,4.108,4.639c0.027-0.521,0.01-1.065,0.037-1.587
		c0.286,0.102,0.553,0.01,0.834,0.219c-0.109-0.401-0.322-0.816-0.462-1.209c0.167-0.038,0.278-0.117,0.438-0.15
		c-1.015-1.234-3.019-3.747-1.681-4.777c1.217-0.936,2.31-0.755,3.578-1.287c-0.183,0.004-0.285-0.011-0.446-0.049
		c-0.079,0.058,0.399-0.32,0.345-0.208c0.134-0.179,0.087-0.322,0.262-0.458c-0.122-0.044-0.224-0.004-0.345-0.043
		c-0.098-0.159-0.436-0.777-0.463-0.959c1.469-1.035,3.795-1.189,5.437-1.828c1.727-0.671,3.601-1.24,5.369-1.688
		c3.81-0.963,7.537-2.255,11.094-3.344C288.705,245.459,292.344,244.031,294,243.25"/>
	<g id="SeedCavity">
		<linearGradient id="SVGID_10_" gradientUnits="userSpaceOnUse" x1="236.2861" y1="283.6855" x2="207.5362" y2="323.4355">
			<stop  offset="0" style="stop-color:#6A4B1D"/>
			<stop  offset="0.3138" style="stop-color:#7E762F"/>
			<stop  offset="0.5319" style="stop-color:#807830"/>
			<stop  offset="0.6103" style="stop-color:#847E31"/>
			<stop  offset="0.6662" style="stop-color:#8B8934"/>
			<stop  offset="0.6695" style="stop-color:#8B8A34"/>
			<stop  offset="0.6821" style="stop-color:#939235"/>
			<stop  offset="0.7181" style="stop-color:#A5A234"/>
			<stop  offset="0.7628" style="stop-color:#B3AF32"/>
			<stop  offset="0.8256" style="stop-color:#BCB831"/>
			<stop  offset="1" style="stop-color:#BFBA31"/>
		</linearGradient>
		<path fill="url(#SVGID_10_)" d="M227.81,301.88c-3.28,4.26-13.92,14-19.39,20.04c5.3-9.04,9.9-20.1,13.27-24.61
			c6.43-8.59,11.227-12.893,13.37-12.149C236.833,286.334,236.31,290.84,227.81,301.88z"/>
		<linearGradient id="SVGID_11_" gradientUnits="userSpaceOnUse" x1="256.9536" y1="226.25" x2="256.9536" y2="172.9755">
			<stop  offset="0" style="stop-color:#C5BB3C"/>
			<stop  offset="0.0405" style="stop-color:#B4B03D"/>
			<stop  offset="0.1198" style="stop-color:#9DA13D"/>
			<stop  offset="0.2135" style="stop-color:#8D973D"/>
			<stop  offset="0.3347" style="stop-color:#84913C"/>
			<stop  offset="0.5816" style="stop-color:#828F3C"/>
			<stop  offset="0.7176" style="stop-color:#87A451"/>
			<stop  offset="0.9008" style="stop-color:#87BB6B"/>
			<stop  offset="1" style="stop-color:#86C877"/>
		</linearGradient>
		<path fill="url(#SVGID_11_)" d="M255.92,224.98c-3.3-0.98-1.12-10.52-1.12-23.5s-0.13-14.56,1.12-23.5
			C257.5,196.25,263.83,222.04,255.92,224.98z"/>
		<linearGradient id="SVGID_12_" gradientUnits="userSpaceOnUse" x1="271.0469" y1="277.7012" x2="305.6136" y2="324.5388">
			<stop  offset="0" style="stop-color:#7E762F"/>
			<stop  offset="0.039" style="stop-color:#85792F"/>
			<stop  offset="0.0973" style="stop-color:#98832E"/>
			<stop  offset="0.1676" style="stop-color:#B9942B"/>
			<stop  offset="0.2427" style="stop-color:#EAAE22"/>
			<stop  offset="0.2937" style="stop-color:#E2B125"/>
			<stop  offset="0.4079" style="stop-color:#D3B62B"/>
			<stop  offset="0.5399" style="stop-color:#C8B92E"/>
			<stop  offset="0.7042" style="stop-color:#C1BA31"/>
			<stop  offset="1" style="stop-color:#BFBA31"/>
		</linearGradient>
		<path fill="url(#SVGID_12_)" d="M302.73,319.73c-18.11-20.48-30.54-29.421-28.23-37.65C283.12,283.06,286.88,296.81,302.73,319.73
			z"/>
	</g>
	<g id="Seeds">
		<path fill="#4E2D11" d="M228.208,300.834c-2.573,3.42-6.246,4.971-7.625,3.934c-1.379-1.037-0.615-5.014,1.958-8.434
			c2.574-3.421,5.852-4.746,7.231-3.708C231.151,293.663,230.782,297.413,228.208,300.834z"/>
		<path fill="#C7BE98" d="M227.613,300.404c-2.059,2.736-4.997,3.977-6.1,3.146c-1.104-0.829-0.492-4.011,1.566-6.746
			c2.059-2.737,4.681-3.797,5.785-2.967C229.968,294.668,229.672,297.668,227.613,300.404z"/>
		<path fill="#E8E5B4" d="M225.813,299.25c-2.059,2.736-3.371,3.963-3.681,3.679c-0.41-0.375,0.591-1.725,2.65-4.46
			c2.059-2.737,3.111-4.043,3.5-3.594C228.687,295.344,227.872,296.514,225.813,299.25z"/>
		<path fill="#4E2D11" d="M284.375,292.3c1.063,1.395,0.826,2.951,0.063,3.541c-0.76,0.59-2.345,0.335-3.307-1.131
			c-0.99-1.51-1.188-3.123-0.412-3.697C281.141,290.7,283.311,290.907,284.375,292.3z"/>
		<path fill="#C7BE98" d="M283.984,292.74c0.852,1.114,0.483,2.227-0.125,2.697c-0.61,0.472-1.532,0.298-2.384-0.817
			c-0.85-1.115-1.039-2.647-0.429-3.12C281.655,291.029,283.135,291.625,283.984,292.74z"/>
		<path fill="#E8E5B4" d="M282.885,293.324c0.339,0.449,0.24,0.301,0.24,0.879c-0.219,0.172-0.539-0.072-0.813-0.439
			c-0.526-0.656-0.437-0.623-0.313-0.982C282.344,292.682,282.496,292.728,282.885,293.324z"/>
		<path fill="#4E2D11" d="M258.838,212.771c-0.004,3.298-0.996,5.351-1.84,5.361c-0.841,0.009-1.807-2.184-1.695-5.471
			c0.115-3.389,0.835-6.022,1.68-5.994C257.442,206.686,258.84,209.474,258.838,212.771z"/>
		<path fill="#C7BE98" d="M258.516,213.078c0,2.638-1.031,3.782-1.705,3.789c-0.674,0.008-1.223-1.308-1.221-3.945
			c0.002-2.638,0.922-4.616,1.598-4.625C257.861,208.289,258.52,210.44,258.516,213.078z"/>
		<path fill="#E8E5B4" d="M257.279,213.233c-0.003,0.613,0.006,0.42-0.301,0.919c-0.244,0.004-0.336-0.42-0.332-0.918
			c-0.017-0.916,0.028-0.827,0.306-1.055C257.245,212.321,257.326,212.46,257.279,213.233z"/>
	</g>
</g>
<g id="Handful">
</g>
<g id="Bunch">
</g>
<g id="BasketFruit">
</g>
<g id="Basket">
</g>
</svg>
