<?xml version="1.0" encoding="utf-8"?>
<!-- Generator: Adobe Illustrator 16.0.0, SVG Export Plug-In . SVG Version: 6.00 Build 0)  -->
<!DOCTYPE svg PUBLIC "-//W3C//DTD SVG 1.1//EN" "http://www.w3.org/Graphics/SVG/1.1/DTD/svg11.dtd">
<svg version="1.1" id="Layer_1" xmlns="http://www.w3.org/2000/svg" xmlns:xlink="http://www.w3.org/1999/xlink" x="0px" y="0px"
	 width="128px" height="128px" viewBox="0 0 128 128" enable-background="new 0 0 128 128" xml:space="preserve">
<g>
	<g>
		<linearGradient id="SVGID_1_" gradientUnits="userSpaceOnUse" x1="0.6665" y1="91.0664" x2="127.3335" y2="91.0664">
			<stop  offset="0" style="stop-color:#E6C7A7"/>
			<stop  offset="0.0806" style="stop-color:#E7CEB4"/>
			<stop  offset="0.2154" style="stop-color:#E7D7C4"/>
			<stop  offset="0.3564" style="stop-color:#E8DCCE"/>
			<stop  offset="0.512" style="stop-color:#E8DED1"/>
			<stop  offset="0.6384" style="stop-color:#E7DCCE"/>
			<stop  offset="0.7595" style="stop-color:#E4D5C3"/>
			<stop  offset="0.8786" style="stop-color:#E0CAB2"/>
			<stop  offset="0.9958" style="stop-color:#D9BB9B"/>
			<stop  offset="1" style="stop-color:#D9BB9A"/>
		</linearGradient>
		<path fill="url(#SVGID_1_)" d="M127.333,54.681v18.49c0,6.828-1.765,15.465-4.972,20.48c-3.207,2.686-7.823,10.96-13.56,17.221
			c-5.745,5.945-12.572,6.463-20.144,12.562c-7.565,3.563-15.902,3.677-24.661,3.097c-8.722-0.201-17.058,3.934-24.659-3.822
			c-7.568-4.705-14.399-6.767-20.138-11.836C13.494,110.771,8.841,97.48,5.632,93.086c-3.207-5.582-4.966-11.741-4.966-19.915
			v-18.49c0,6.931,1.279,12.464,3.685,17.371c0.386,0.877,0.801,1.655,1.281,2.483c3.209,4.45,7.861,17.741,13.568,17.841
			c5.739,5.07,12.57,7.137,20.138,11.843c7.601,7.707,15.937,3.567,24.659,3.777c8.758,0.618,17.096,0.463,24.661-3.051
			c7.572-6.16,14.399-6.626,20.144-12.569c5.737-6.302,10.353-14.574,13.56-17.225c0.613-0.979,1.189-2.061,1.671-3.251
			C126.183,66.882,127.333,60.218,127.333,54.681z"/>
		<line fill="none" stroke="#CFA686" stroke-width="0.24" stroke-miterlimit="10" x1="19.2" y1="92.376" x2="19.2" y2="110.872"/>
		
			<line fill="none" stroke="#CFA686" stroke-width="0.24" stroke-miterlimit="10" x1="63.997" y1="107.996" x2="63.997" y2="126.53"/>
		
			<line fill="none" stroke="#CFA686" stroke-width="0.24" stroke-miterlimit="10" x1="117.525" y1="81.013" x2="117.525" y2="99.528"/>
		<path fill="none" stroke="#010101" stroke-width="0.4224" stroke-miterlimit="10" d="M127.333,54.681v18.49
			c0,6.828-1.765,15.465-4.972,20.48c-3.207,2.686-7.823,10.96-13.56,17.221c-5.745,5.945-12.572,6.463-20.144,12.562
			c-7.565,3.563-15.902,3.677-24.661,3.097c-8.722-0.201-17.058,3.934-24.659-3.822c-7.568-4.705-14.399-6.767-20.138-11.836
			C13.494,110.771,8.841,97.48,5.632,93.086c-3.207-5.582-4.966-11.741-4.966-19.915v-18.49c0,6.931,1.279,12.464,3.685,17.371
			c0.386,0.877,0.801,1.655,1.281,2.483c3.209,4.45,7.861,17.741,13.568,17.841c5.739,5.07,12.57,7.137,20.138,11.843
			c7.601,7.707,15.937,3.567,24.659,3.777c8.758,0.618,17.096,0.463,24.661-3.051c7.572-6.16,14.399-6.626,20.144-12.569
			c5.737-6.302,10.353-14.574,13.56-17.225c0.613-0.979,1.189-2.061,1.671-3.251C126.183,66.882,127.333,60.218,127.333,54.681z"/>
		<path fill="#F4EFC5" stroke="#010101" stroke-width="0.4224" stroke-miterlimit="10" d="M127.333,54.681
			c0,5.537-1.151,12.201-3.3,17.22c-0.482,1.19-1.058,2.272-1.671,3.251c-3.207,2.65-7.823,10.923-13.56,17.225
			c-5.745,5.943-12.572,6.409-20.144,12.569c-7.565,3.514-15.902,3.669-24.661,3.051c-8.722-0.21-17.058,3.93-24.659-3.777
			C31.77,99.513,24.939,97.446,19.2,92.376c-5.707-0.1-10.359-13.391-13.568-17.841c-0.479-0.828-0.895-1.606-1.281-2.483
			c-2.406-4.907-3.685-10.44-3.685-17.371c0-6.259,1.759-13.387,4.966-19.599c3.209-8.059,7.861-11.735,13.599-18.147
			c5.708-3.93,12.539-10.594,20.107-11.523c7.601-0.414,15.937-2.019,24.659-4.089c8.758-1.959,17.096,0,24.661,3.563
			c7.572,5.637,14.399,4.455,20.144,12.049c5.737,7.806,10.353,9.212,13.56,16.752C125.569,40.666,127.333,46.664,127.333,54.681z"
			/>
	</g>
	<g>
		<g>
			<path fill="#A7825F" d="M56.909,87.719c-8.1-11.46-12.561-17-27.625-26.999c6.66,2.213,11.305,3.404,15.882,3.404
				c4.439,0,8.829-1.088,14.996-3.735c-0.618,0.789-1.196,1.505-1.733,2.169C53.061,69.202,51.842,70.712,56.909,87.719z
				 M37.318,64.752c6.515,4.84,10.853,9.044,15.471,14.995l0.6,0.773l-0.218-0.954c-1.876-8.205-1.027-11.117,2.476-15.704
				l0.413-0.54l-1.084,0.339c-0.244,0.078-0.485,0.155-0.725,0.226c-3.257,0.97-6.143,1.422-9.083,1.422
				c-2.399,0-4.837-0.3-7.672-0.941l-1-0.227L37.318,64.752z"/>
			<path fill="#F1D089" d="M59.47,60.917c-0.426,0.536-0.831,1.038-1.208,1.504c-5.167,6.396-6.584,8.15-1.927,24.111
				c-7.421-10.445-12.02-15.944-25.619-25.115c5.896,1.903,10.198,2.923,14.452,2.923C49.448,64.34,53.678,63.338,59.47,60.917
				 M45.167,65.092c-2.382,0-4.805-0.298-7.625-0.936l-2-0.453l1.646,1.223c6.499,4.827,10.824,9.021,15.429,14.954l1.2,1.547
				l-0.437-1.909c-1.856-8.119-1.02-10.998,2.437-15.524l0.825-1.08l-1.298,0.404l-0.436,0.138
				c-0.242,0.077-0.482,0.154-0.721,0.225C50.952,64.643,48.085,65.092,45.167,65.092 M60.853,59.853h0.005H60.853z M60.853,59.853
				c-6.388,2.809-11.02,4.055-15.686,4.055c-5.015,0-10.07-1.438-17.393-3.923C44.266,70.77,48.525,76.191,57.499,88.93
				C51.332,68.537,53.587,69.294,60.853,59.853L60.853,59.853z M45.167,65.524c2.915,0,5.848-0.448,9.145-1.43
				c0.382-0.113,0.771-0.242,1.163-0.364c-3.448,4.515-4.45,7.422-2.515,15.884c-4.278-5.513-8.469-9.804-15.513-15.036
				C40.154,65.191,42.654,65.524,45.167,65.524L45.167,65.524z"/>
		</g>
		<path fill="#695049" d="M50.072,73.385c-0.111-2.756,0.364-4.838,1.41-6.897c-2.718,0.557-5.318,0.757-8.024,0.605
			C45.884,69.132,48.024,71.163,50.072,73.385z"/>
		<path fill="#A7825F" d="M54.312,64.095c-6.139,1.827-11.017,1.808-16.865,0.483c7.043,5.232,11.235,9.523,15.513,15.036
			c-1.935-8.462-0.933-11.369,2.515-15.884C55.082,63.853,54.694,63.981,54.312,64.095z M50.072,73.385
			c-2.048-2.222-4.188-4.253-6.614-6.292c2.706,0.151,5.306-0.049,8.024-0.605C50.436,68.547,49.961,70.629,50.072,73.385z"/>
		<g>
			<path fill="#A7825F" d="M62.012,48.349c-6.992-8.636-17.822-10.435-31.188-11.556c18.642-3.56,27.452-6.865,39.977-15.066
				C58.862,34.629,59.58,37.741,61.402,45.624C61.598,46.471,61.806,47.373,62.012,48.349z M63.392,27.672
				c-5.001,2.694-9.796,4.664-15.548,6.385c-2.461,0.732-5.093,1.419-8.046,2.097l-1.135,0.261l1.153,0.164
				c8.69,1.241,14.618,3.39,19.219,6.965l0.463,0.359l-0.118-0.574c-1.082-5.271-0.72-8.735,4.288-15.335l0.603-0.795L63.392,27.672
				z"/>
			<path fill="#F1D089" d="M69.508,22.821C58.68,34.804,59.461,38.185,61.191,45.673c0.14,0.604,0.282,1.221,0.425,1.866
				c-6.773-7.8-16.867-9.718-29.229-10.828C49.343,33.388,58.023,30.162,69.508,22.821 M59.826,44.433l-0.236-1.147
				c-0.933-4.546-1.142-8.058,4.249-15.161l1.206-1.589l-1.756,0.946c-4.987,2.688-9.77,4.651-15.507,6.367
				c-2.457,0.731-5.084,1.417-8.033,2.094l-2.271,0.521l2.306,0.329c8.651,1.235,14.547,3.37,19.117,6.921L59.826,44.433
				 M72.216,20.529h0.005H72.216z M72.216,20.529c-13.782,9.231-22.588,12.543-43.011,16.349
				c15.538,1.233,26.311,3.161,33.205,12.332C60.226,38.223,57.233,36.415,72.216,20.529L72.216,20.529z M59.167,43.372
				c-5.224-4.06-11.751-5.927-19.321-7.008c2.995-0.688,5.624-1.375,8.06-2.101c5.641-1.688,10.455-3.635,15.589-6.401
				C58.245,34.779,58.138,38.364,59.167,43.372L59.167,43.372z"/>
		</g>
		<path fill="#695049" d="M56.748,39.738c-0.094-2.466,0.373-4.816,1.782-7.585c-3.14,1.384-6.379,2.555-9.98,3.625
			c-0.407,0.121-0.818,0.241-1.233,0.363C50.961,37.061,54.05,38.231,56.748,39.738z"/>
		<path fill="#A7825F" d="M63.494,27.862c-5.134,2.767-9.948,4.714-15.589,6.401c-2.436,0.726-5.065,1.413-8.06,2.101
			c7.57,1.081,14.097,2.948,19.321,7.008C58.138,38.364,58.245,34.779,63.494,27.862z M58.53,32.153
			c-1.409,2.769-1.876,5.119-1.782,7.585c-2.698-1.507-5.786-2.678-9.431-3.597c0.415-0.122,0.826-0.242,1.233-0.363
			C52.151,34.708,55.39,33.537,58.53,32.153z"/>
		<g>
			<path fill="#A7825F" d="M95.636,78.062c-5.397-13.125-10.658-16.796-23.663-20.884c1.146-0.29,2.228-0.553,3.256-0.803
				c9.711-2.361,14.753-3.587,24.156-15.019c-5.653,13.085-5.115,19.733-4.08,32.523C95.413,75.204,95.525,76.593,95.636,78.062z
				 M94.798,48.365c-4.695,4.44-8.51,6.194-13.142,7.584c-1.425,0.428-2.946,0.81-4.645,1.23l-0.684,0.169l0.661,0.244
				c8.038,2.965,12.399,6.256,16.09,12.142l0.463,0.737l-0.063-0.868c-0.587-8.059-0.494-13.795,1.676-21.019l0.233-0.777
				L94.798,48.365z"/>
			<path fill="#F1D089" d="M98.619,42.611c-5.069,12.262-4.532,18.903-3.529,31.286c0.074,0.917,0.151,1.864,0.228,2.849
				c-5.154-11.971-10.411-15.652-22.552-19.544c0.875-0.218,1.711-0.421,2.514-0.616C84.713,54.292,89.76,53.065,98.619,42.611
				 M93.821,71.324l-0.126-1.736c-0.599-8.215-0.505-13.709,1.667-20.94l0.467-1.555l-1.179,1.115
				c-4.665,4.411-8.454,6.153-13.056,7.533c-1.42,0.427-2.938,0.809-4.634,1.229l-1.368,0.338l1.322,0.488
				c7.988,2.946,12.319,6.213,15.982,12.054L93.821,71.324 M100.239,39.959h0.005H100.239z M100.239,39.959
				C88.977,54.056,84.173,53.824,71.178,57.156c13.729,4.241,19.052,7.746,24.777,22.277C94.72,62.356,93.079,55.845,100.239,39.959
				L100.239,39.959z M93.263,69.619c-3.928-6.263-8.646-9.443-16.199-12.229c1.673-0.414,3.207-0.799,4.654-1.233
				c4.74-1.422,8.594-3.25,13.229-7.634C92.672,56.097,92.704,61.954,93.263,69.619L93.263,69.619z"/>
		</g>
		<path fill="#695049" d="M91.815,53.33c-3.171,2.161-6.177,3.372-9.453,4.342c-0.05,0.021-0.1,0.029-0.157,0.051
			c3.627,1.705,6.458,3.655,8.838,6.099C90.97,60.146,91.163,56.804,91.815,53.33z"/>
		<path fill="#A7825F" d="M94.947,48.522c-4.635,4.384-8.489,6.212-13.229,7.634c-1.448,0.435-2.981,0.819-4.654,1.233
			c7.553,2.786,12.271,5.967,16.199,12.229C92.704,61.954,92.672,56.097,94.947,48.522z M82.206,57.723
			c0.057-0.021,0.107-0.03,0.157-0.051c3.275-0.97,6.282-2.181,9.453-4.342c-0.652,3.474-0.846,6.816-0.771,10.491
			C88.664,61.378,85.833,59.428,82.206,57.723z"/>
	</g>
</g>
</svg>
