<?xml version="1.0" encoding="utf-8"?>
<!-- Generator: Adobe Illustrator 16.0.0, SVG Export Plug-In . SVG Version: 6.00 Build 0)  -->
<!DOCTYPE svg PUBLIC "-//W3C//DTD SVG 1.1//EN" "http://www.w3.org/Graphics/SVG/1.1/DTD/svg11.dtd">
<svg version="1.1" id="Layer_1" xmlns="http://www.w3.org/2000/svg" xmlns:xlink="http://www.w3.org/1999/xlink" x="0px" y="0px"
	 width="128px" height="128px" viewBox="0 0 128 128" enable-background="new 0 0 128 128" xml:space="preserve">
<g>
	<g>
		
			<linearGradient id="SVGID_1_" gradientUnits="userSpaceOnUse" x1="-217.6362" y1="-667.8223" x2="-90.832" y2="-667.8223" gradientTransform="matrix(0.9997 0.0258 -0.0258 0.9997 200.2299 763.7254)">
			<stop  offset="0" style="stop-color:#E6C7A7"/>
			<stop  offset="0.0806" style="stop-color:#E7CEB4"/>
			<stop  offset="0.2154" style="stop-color:#E7D7C4"/>
			<stop  offset="0.3564" style="stop-color:#E8DCCE"/>
			<stop  offset="0.512" style="stop-color:#E8DED1"/>
			<stop  offset="0.6384" style="stop-color:#E7DCCE"/>
			<stop  offset="0.7595" style="stop-color:#E4D5C3"/>
			<stop  offset="0.8786" style="stop-color:#E0CAB2"/>
			<stop  offset="0.9958" style="stop-color:#D9BB9B"/>
			<stop  offset="1" style="stop-color:#D9BB9A"/>
		</linearGradient>
		<path fill="url(#SVGID_1_)" stroke="#010101" stroke-width="0.4" stroke-miterlimit="10" d="M127.574,58.165l-0.386,14.926
			c-0.167,6.508-2.119,13.855-5.496,20.272c-3.427,8.271-8.18,12.005-14.064,18.534c-5.856,3.922-12.863,10.683-20.457,11.459
			c-7.592,0.246-15.978,1.711-24.794,3.604c-8.815,1.781-17.108-0.385-24.583-4.326c-7.419-6.108-14.292-5.037-19.835-13.051
			c-5.5-8.286-10.113-9.819-13.118-17.77c-3.023-7.352-4.629-13.639-4.414-21.993l0.386-14.926
			C0.596,63.256,2.203,69.536,5.226,76.89c0.628,1.643,1.331,3.019,2.102,4.29c2.87,4.524,6.669,6.896,11.021,13.424
			c5.543,8.065,12.411,6.99,19.83,13.102c7.477,3.887,15.768,6.106,24.581,4.33c8.821-1.945,17.208-3.408,24.792-3.593
			c7.598-0.781,14.609-7.556,20.461-11.525c4.632-5.093,8.538-8.465,11.657-13.761c0.875-1.386,1.685-3,2.409-4.773
			C125.451,72.015,127.402,64.68,127.574,58.165z"/>
		
			<line fill="none" stroke="#CFA686" stroke-width="0.24" stroke-miterlimit="10" x1="18.348" y1="94.604" x2="17.958" y2="109.584"/>
		
			<line fill="none" stroke="#CFA686" stroke-width="0.24" stroke-miterlimit="10" x1="87.551" y1="108.442" x2="87.171" y2="123.357"/>
		<path fill="none" stroke="#010101" stroke-width="0.4" stroke-miterlimit="10" d="M127.574,58.165l-0.386,14.926
			c-0.167,6.508-2.119,13.855-5.496,20.272c-3.427,8.271-8.18,12.005-14.064,18.534c-5.856,3.922-12.863,10.683-20.457,11.459
			c-7.592,0.246-15.978,1.711-24.794,3.604c-8.815,1.781-17.108-0.385-24.583-4.326c-7.419-6.108-14.292-5.037-19.835-13.051
			c-5.5-8.286-10.113-9.819-13.118-17.77c-3.023-7.352-4.629-13.639-4.414-21.993l0.386-14.926
			C0.596,63.256,2.203,69.536,5.226,76.89c0.628,1.643,1.331,3.019,2.102,4.29c2.87,4.524,6.669,6.896,11.021,13.424
			c5.543,8.065,12.411,6.99,19.83,13.102c7.477,3.887,15.768,6.106,24.581,4.33c8.821-1.945,17.208-3.408,24.792-3.593
			c7.598-0.781,14.609-7.556,20.461-11.525c4.632-5.093,8.538-8.465,11.657-13.761c0.875-1.386,1.685-3,2.409-4.773
			C125.451,72.015,127.402,64.68,127.574,58.165z"/>
		<path fill="#F4EFC5" stroke="#010101" stroke-width="0.4207" stroke-miterlimit="10" d="M127.574,58.165
			c-0.171,6.515-2.123,13.85-5.496,20.218c-0.724,1.773-1.533,3.387-2.409,4.773c-3.119,5.296-7.025,8.667-11.657,13.761
			c-5.852,3.969-12.863,10.744-20.461,11.525c-7.584,0.185-15.971,1.648-24.792,3.593c-8.813,1.777-17.104-0.442-24.581-4.33
			c-7.419-6.112-14.287-5.037-19.83-13.102c-4.352-6.527-8.151-8.9-11.021-13.424c-0.771-1.271-1.474-2.647-2.102-4.29
			c-3.022-7.354-4.629-13.634-4.413-21.995C0.996,47.79,2.997,38.826,6.339,33.7c3.281-2.681,8.154-11.186,14.034-17.55
			c5.904-6.035,12.756-6.406,20.496-12.554c7.665-3.5,16.011-3.445,24.755-2.563c8.756,0.439,17.21-3.629,24.579,4.591
			c7.447,5.08,14.221,7.429,19.833,12.84c5.707,0.261,10.007,14.205,13.098,18.903C126.195,43.202,127.791,49.704,127.574,58.165z"
			/>
	</g>
	<g>
		<g>
			<path fill="#A7825F" d="M101.105,59.289c-8.137-5.898-13.193-8.684-21.549-8.684c-2.283,0-4.91,0.212-8.005,0.646
				c0.883-0.616,1.701-1.17,2.46-1.685C81.6,44.425,83.315,43.264,84.87,25C88.296,38.592,90.465,45.285,101.105,59.289z
				 M79.588,49.354c5.625,0,9.975,1.167,15.014,4.028l0.794,0.451l-0.508-0.758c-5.042-7.52-7.283-13.032-9.097-18.995l-0.279-0.917
				l-0.141,0.948c-1.281,8.642-3.181,11.304-8.238,14.917l-0.6,0.428l0.736-0.038c0.416-0.021,0.824-0.039,1.232-0.049
				C78.87,49.359,79.231,49.354,79.588,49.354z"/>
			<path fill="#F1D089" d="M84.973,26.285c3.171,12.447,5.488,19.144,15.105,32c-7.516-5.358-12.506-7.896-20.522-7.896
				c-2.072,0-4.422,0.173-7.145,0.527c0.609-0.419,1.185-0.81,1.721-1.172C81.433,44.799,83.42,43.451,84.973,26.285 M75.807,49.708
				l1.473-0.076c0.414-0.021,0.821-0.039,1.228-0.049c0.366-0.01,0.726-0.015,1.081-0.015c5.584,0,9.903,1.159,14.907,4l1.587,0.901
				l-1.017-1.517c-5.027-7.498-7.261-12.993-9.069-18.938l-0.558-1.833l-0.281,1.896c-1.271,8.565-3.149,11.201-8.15,14.773
				L75.807,49.708 M84.763,23.688c-1.777,21.855-3.637,20.505-14.074,27.905c3.404-0.509,6.295-0.773,8.868-0.773
				c8.599,0,13.664,2.945,22.626,9.521C90.534,45.232,88.523,38.708,84.763,23.688L84.763,23.688z M77.258,49.202
				c4.969-3.549,7.006-6.157,8.326-15.06c2.008,6.601,4.387,11.987,9.124,19.053c-4.782-2.715-9.166-4.057-15.12-4.057
				c-0.358,0-0.722,0.005-1.092,0.015C78.086,49.163,77.676,49.181,77.258,49.202L77.258,49.202z"/>
		</g>
		<path fill="#695049" d="M86.002,41.081c1.117,2.749,2.391,5.341,3.931,8.009c-2.518-0.879-5.058-1.378-7.844-1.56
			C83.845,45.775,85.076,43.837,86.002,41.081z"/>
		<path fill="#A7825F" d="M77.258,49.202c0.418-0.021,0.828-0.039,1.238-0.049c6.521-0.171,11.143,1.164,16.212,4.042
			c-4.737-7.066-7.116-12.452-9.124-19.053C84.264,43.045,82.227,45.653,77.258,49.202z M89.933,49.09
			c-2.518-0.879-5.058-1.378-7.844-1.56c1.756-1.754,2.987-3.692,3.913-6.449C87.119,43.83,88.393,46.422,89.933,49.09z"/>
		<g>
			<path fill="#A7825F" d="M46.981,86.688c16.152-9.56,16.635-12.827,17.856-21.104c0.135-0.91,0.278-1.881,0.453-2.928
				c3.416,10.456,13.069,15.147,25.391,19.854c-5.751-0.447-10.363-0.656-14.417-0.656C66.048,81.855,58.189,83.134,46.981,86.688z
				 M65.917,68.337c-0.948,5.525-2.593,8.869-9.833,14.073l-0.871,0.626l1.045-0.241c5.785-1.334,11.081-1.999,17.169-2.156
				c0.935-0.022,1.893-0.034,2.88-0.034c1.787,0,3.602,0.037,5.55,0.114l1.092,0.043l-0.994-0.454
				c-7.788-3.56-12.612-7.276-15.644-12.05l-0.3-0.472L65.917,68.337z"/>
			<path fill="#F1D089" d="M65.366,63.534c3.528,9.601,12.466,14.215,23.872,18.653c-5.087-0.372-9.263-0.547-12.974-0.547
				c-9.71,0-17.294,1.152-27.629,4.308c14.733-8.937,15.257-12.482,16.415-20.332C65.146,64.968,65.249,64.271,65.366,63.534
				 M54.215,83.488l2.09-0.482c5.771-1.331,11.053-1.994,17.125-2.15c0.942-0.023,1.91-0.034,2.875-0.034
				c1.784,0,3.596,0.037,5.542,0.114l2.185,0.086l-1.988-0.909c-7.747-3.542-12.543-7.233-15.552-11.969l-0.6-0.944l-0.189,1.103
				c-0.819,4.774-1.94,8.323-9.747,13.934L54.215,83.488 M65.231,61.729C63.185,73.197,65.36,75.785,45.17,87.5
				c11.692-3.839,19.926-5.429,31.094-5.429c4.643,0,9.791,0.274,15.909,0.776C77.876,77.46,68.347,72.654,65.231,61.729
				L65.231,61.729z M56.209,82.585c7.581-5.449,9.021-8.969,9.92-14.211c3.447,5.428,8.95,9.028,15.736,12.13
				c-1.977-0.078-3.815-0.114-5.559-0.114c-0.99,0-1.949,0.012-2.886,0.034C67.421,80.579,62.125,81.221,56.209,82.585
				L56.209,82.585z"/>
		</g>
		<path fill="#695049" d="M73.38,78.748c-3.824,0.101-7.346,0.387-10.85,0.917c2.379-2.372,3.697-4.565,4.536-7.032
			c1.998,2.207,4.494,4.205,7.615,6.086C74.241,78.727,73.807,78.734,73.38,78.748z"/>
		<path fill="#A7825F" d="M56.209,82.585c5.916-1.364,11.212-2.007,17.212-2.162c2.589-0.062,5.346-0.042,8.444,0.08
			c-6.786-3.102-12.289-6.702-15.736-12.13C65.229,73.617,63.79,77.136,56.209,82.585z M74.682,78.719
			c-0.44,0.008-0.875,0.015-1.302,0.028c-3.824,0.101-7.346,0.387-10.85,0.917c2.379-2.372,3.697-4.565,4.536-7.032
			C69.064,74.84,71.561,76.838,74.682,78.719z"/>
		<g>
			<path fill="#A7825F" d="M27.189,59.546C37.414,48.137,39.39,41.415,43.187,28.497c0.399-1.358,0.818-2.783,1.269-4.29
				c0.213,14.454,3.848,19.502,14.708,27.063c-1.221-0.021-2.367-0.052-3.456-0.081c-1.645-0.044-3.158-0.084-4.593-0.084
				C43.419,51.105,37.98,52.354,27.189,59.546z M43.34,33.161c-2.521,8.326-4.678,13.765-9.469,20.381l-0.526,0.727l0.799-0.409
				c6.155-3.149,10.433-3.86,15.339-3.987c0.497-0.012,1.001-0.018,1.515-0.018c1.071,0,2.185,0.022,3.362,0.049l0.65,0.015
				l-0.512-0.4c-6.519-5.087-9.429-9.515-10.739-16.336l-0.165-0.858L43.34,33.161z"/>
			<path fill="#F1D089" d="M44.271,25.581c0.417,13.257,4.052,18.313,14.189,25.46c-0.958-0.02-1.871-0.044-2.747-0.067
				c-1.625-0.043-3.16-0.084-4.6-0.084c-7.412,0-12.741,1.151-22.697,7.591c9.333-10.724,11.306-17.436,14.976-29.923
				C43.675,27.601,43.966,26.61,44.271,25.581 M32.644,54.87l1.599-0.818c6.119-3.131,10.37-3.837,15.246-3.963
				c0.495-0.013,0.997-0.018,1.509-0.018c1.083,0,2.206,0.023,3.357,0.049l1.3,0.029l-1.025-0.8
				c-6.472-5.051-9.361-9.444-10.66-16.208l-0.33-1.715l-0.506,1.672c-2.515,8.303-4.665,13.726-9.437,20.317L32.644,54.87
				 M44.661,22.777C39.44,40.02,38.565,46.917,25.817,60.733c12.006-8.229,17.52-9.413,25.297-9.413c2.567,0,5.38,0.129,8.755,0.176
				C48.411,43.608,44.657,38.707,44.661,22.777L44.661,22.777z M34.046,53.668c4.992-6.896,7.153-12.696,9.5-20.445
				c1.393,7.25,4.679,11.674,10.818,16.466c-1.179-0.026-2.294-0.049-3.367-0.049c-0.516,0-1.021,0.005-1.52,0.018
				C44.438,49.788,40.091,50.576,34.046,53.668L34.046,53.668z"/>
		</g>
		<path fill="#695049" d="M49.432,47.983c-3.476,0.088-6.787,0.469-10.608,1.775c1.922-3.281,3.351-6.533,4.662-10.192
			c1.343,3.06,3.307,5.743,6.111,8.411C49.547,47.978,49.49,47.983,49.432,47.983z"/>
		<path fill="#A7825F" d="M34.046,53.668c6.045-3.093,10.392-3.88,15.432-4.01c1.536-0.039,3.142-0.008,4.887,0.031
			c-6.14-4.792-9.426-9.216-10.818-16.466C41.199,40.973,39.038,46.773,34.046,53.668z M43.485,39.566
			c1.343,3.06,3.307,5.743,6.111,8.411c-0.05,0.001-0.106,0.007-0.165,0.007c-3.476,0.088-6.787,0.469-10.608,1.775
			C40.745,46.478,42.174,43.225,43.485,39.566z"/>
	</g>
</g>
</svg>
