<?xml version="1.0" encoding="utf-8"?>
<!-- Generator: Adobe Illustrator 16.0.0, SVG Export Plug-In . SVG Version: 6.00 Build 0)  -->
<!DOCTYPE svg PUBLIC "-//W3C//DTD SVG 1.1//EN" "http://www.w3.org/Graphics/SVG/1.1/DTD/svg11.dtd">
<svg version="1.1" id="Layer_1" xmlns="http://www.w3.org/2000/svg" xmlns:xlink="http://www.w3.org/1999/xlink" x="0px" y="0px"
	 width="128px" height="128px" viewBox="0 0 128 128" enable-background="new 0 0 128 128" xml:space="preserve">
<g>
	<g>
		<linearGradient id="SVGID_1_" gradientUnits="userSpaceOnUse" x1="0.6675" y1="92.4375" x2="127.3335" y2="92.4375">
			<stop  offset="0" style="stop-color:#E6C7A7"/>
			<stop  offset="0.0806" style="stop-color:#E7CEB4"/>
			<stop  offset="0.2154" style="stop-color:#E7D7C4"/>
			<stop  offset="0.3564" style="stop-color:#E8DCCE"/>
			<stop  offset="0.512" style="stop-color:#E8DED1"/>
			<stop  offset="0.6384" style="stop-color:#E7DCCE"/>
			<stop  offset="0.7595" style="stop-color:#E4D5C3"/>
			<stop  offset="0.8786" style="stop-color:#E0CAB2"/>
			<stop  offset="0.9958" style="stop-color:#D9BB9B"/>
			<stop  offset="1" style="stop-color:#D9BB9A"/>
		</linearGradient>
		<path fill="url(#SVGID_1_)" d="M127.333,57.37v13.379c-0.033,6.6-1.799,13.997-5.005,20.545
			c-3.206,8.425-7.819,12.291-13.562,18.996c-5.737,4.128-12.565,11.159-20.128,12.123c-7.564,0.43-15.901,2.084-24.654,4.284
			c-8.72,2.043-17.057,0-24.649-3.75c-7.568-5.95-14.4-4.673-20.104-12.657c-5.739-8.16-10.356-9.607-13.562-17.497
			c-3.206-7.345-5.001-13.621-5.001-22.044V57.37c0,8.367,1.795,14.699,5.001,21.991c0.739,1.823,1.541,3.269,2.405,4.559
			c2.949,4.347,6.733,6.653,11.157,12.98c5.704,7.942,12.536,6.706,20.104,12.605c7.593,3.812,15.929,5.794,24.649,3.76
			c8.753-2.147,17.09-3.865,24.654-4.243c7.563-0.963,14.392-7.993,20.128-12.122c4.458-5.206,8.211-8.686,11.157-13.946
			c0.898-1.497,1.667-3.164,2.405-5.098C125.535,71.367,127.301,63.914,127.333,57.37z"/>
		
			<line fill="none" stroke="#CFA686" stroke-width="0.24" stroke-miterlimit="10" x1="16.602" y1="93.484" x2="16.602" y2="106.78"/>
		
			<line fill="none" stroke="#CFA686" stroke-width="0.24" stroke-miterlimit="10" x1="79.487" y1="110.018" x2="79.487" y2="123.462"/>
		
			<line fill="none" stroke="#CFA686" stroke-width="0.24" stroke-miterlimit="10" x1="124.194" y1="86.947" x2="124.194" y2="73.944"/>
		<path fill="none" stroke="#010101" stroke-width="0.4246" stroke-miterlimit="10" d="M127.333,57.37v13.379
			c-0.033,6.6-1.799,13.997-5.005,20.545c-3.206,8.425-7.819,12.291-13.562,18.996c-5.737,4.128-12.565,11.159-20.128,12.123
			c-7.564,0.43-15.901,2.084-24.654,4.284c-8.72,2.043-17.057,0-24.649-3.75c-7.568-5.95-14.4-4.673-20.104-12.657
			c-5.739-8.16-10.356-9.607-13.562-17.497c-3.206-7.345-5.001-13.621-5.001-22.044V57.37c0,8.367,1.795,14.699,5.001,21.991
			c0.739,1.823,1.541,3.269,2.405,4.559c2.949,4.347,6.733,6.653,11.157,12.98c5.704,7.942,12.536,6.706,20.104,12.605
			c7.593,3.812,15.929,5.794,24.649,3.76c8.753-2.147,17.09-3.865,24.654-4.243c7.563-0.963,14.392-7.993,20.128-12.122
			c4.458-5.206,8.211-8.686,11.157-13.946c0.898-1.497,1.667-3.164,2.405-5.098C125.535,71.367,127.301,63.914,127.333,57.37z"/>
		<path fill="#F4EFC5" stroke="#010101" stroke-width="0.4246" stroke-miterlimit="10" d="M127.333,57.37
			c-0.033,6.544-1.799,13.997-5.005,20.486c-0.738,1.934-1.506,3.601-2.405,5.098c-2.946,5.261-6.699,8.74-11.157,13.946
			c-5.737,4.129-12.565,11.159-20.128,12.122c-7.564,0.378-15.901,2.096-24.654,4.243c-8.72,2.034-17.057,0.052-24.649-3.76
			c-7.568-5.899-14.4-4.663-20.104-12.605c-4.424-6.327-8.208-8.634-11.157-12.98c-0.864-1.29-1.666-2.735-2.405-4.559
			C2.462,72.069,0.667,65.737,0.667,57.37c0-7.136,1.795-16.206,5.001-21.46c3.175-2.794,7.823-11.482,13.562-18.082
			c5.704-6.218,12.536-6.706,20.104-13.14c7.593-3.758,15.929-3.866,24.683-3.216c8.72,0.208,17.057-4.133,24.621,3.964
			c7.591,4.941,14.392,7.082,20.128,12.392c5.743,0.11,10.356,14.06,13.562,18.67C125.535,42.344,127.301,48.841,127.333,57.37z"/>
	</g>
	<g>
		<g>
			<path fill="#A7825F" d="M27.65,59.035c10.143-14.104,12.117-20.771,15.152-34.271C44.8,42.754,46.524,43.86,54.147,48.746
				c0.764,0.489,1.586,1.017,2.476,1.604c-2.633-0.302-4.902-0.448-6.912-0.448C40.872,49.901,35.762,52.832,27.65,59.035z
				 M42.121,33.745c-1.959,7.103-4.342,12.429-8.5,18.997l-0.489,0.771l0.782-0.472c5.147-3.107,9.726-4.374,15.803-4.374
				c0.399,0,0.805,0.004,1.221,0.019l0.75,0.025l-0.622-0.42c-5.089-3.439-7.035-6.021-8.525-14.526l-0.166-0.943L42.121,33.745z"/>
			<path fill="#F1D089" d="M42.732,26.052c1.967,16.895,3.966,18.177,11.299,22.876c0.536,0.344,1.112,0.713,1.723,1.11
				c-2.266-0.237-4.255-0.353-6.042-0.353c-8.487,0-13.55,2.675-21.063,8.322C37.8,45.076,39.922,38.401,42.732,26.052
				 M32.462,54.171l1.564-0.944c5.111-3.085,9.657-4.344,15.691-4.344c0.397,0,0.8,0.004,1.213,0.019l1.5,0.053l-1.244-0.841
				c-5.032-3.4-6.957-5.957-8.433-14.385l-0.331-1.888l-0.509,1.848c-1.953,7.079-4.329,12.389-8.474,18.938L32.462,54.171
				 M42.876,23.45c-3.335,14.944-5.159,21.437-16.274,36.664c9.019-6.984,13.99-9.997,23.109-9.998c2.29,0,4.839,0.19,7.782,0.555
				C46.989,43.615,45.186,45.006,42.876,23.45L42.876,23.45z M33.803,52.857c4.497-7.104,6.71-12.476,8.525-19.055
				c1.535,8.761,3.613,11.286,8.617,14.668c-0.418-0.015-0.826-0.019-1.228-0.019C43.271,48.452,38.734,49.881,33.803,52.857
				L33.803,52.857z"/>
		</g>
		<path fill="#695049" d="M41.867,40.668c-1.047,2.744-2.249,5.337-3.721,8.015c2.492-0.933,5.017-1.486,7.796-1.738
			C44.139,45.258,42.861,43.37,41.867,40.668z"/>
		<path fill="#A7825F" d="M42.104,33.803c-1.834,6.579-4.071,11.95-8.614,19.055c4.982-2.977,9.565-4.405,16.079-4.405
			c0.406,0,0.818,0.004,1.241,0.019C45.754,45.089,43.655,42.563,42.104,33.803z M41.867,40.668c0.994,2.702,2.272,4.59,4.076,6.276
			c-2.78,0.252-5.304,0.806-7.796,1.738C39.619,46.005,40.82,43.412,41.867,40.668z"/>
		<g>
			<path fill="#A7825F" d="M81.79,84.733c-10.205-2.949-17.489-4.063-26.258-4.063c-4.709,0-9.997,0.326-16.989,1.052
				c12.047-4.966,21.458-9.848,24.568-20.252c0.198,1.024,0.363,1.976,0.519,2.867C65.046,72.487,65.604,75.705,81.79,84.733z
				 M55.529,79.441c6.063,0,11.311,0.521,17.018,1.692l1.056,0.217l-0.891-0.606c-7.285-4.955-8.996-8.218-10.073-13.658
				l-0.109-0.549l-0.288,0.48c-2.87,4.796-7.542,8.592-15.149,12.307l-0.982,0.479l1.091-0.071
				C50.216,79.536,52.94,79.441,55.529,79.441z"/>
			<path fill="#F1D089" d="M63.057,62.349c0.132,0.717,0.25,1.396,0.36,2.026c1.343,7.726,1.952,11.22,16.702,19.661
				c-9.337-2.59-16.299-3.581-24.587-3.581c-4.385,0-9.268,0.282-15.556,0.905C51.116,76.688,59.814,71.901,63.057,62.349
				 M45.034,80.09l2.182-0.143c3.01-0.195,5.729-0.291,8.313-0.291c6.047,0,11.283,0.521,16.975,1.688l2.11,0.434l-1.781-1.212
				c-7.854-5.342-9.052-8.822-9.983-13.522l-0.218-1.099l-0.575,0.961c-2.848,4.759-7.492,8.528-15.058,12.224L45.034,80.09
				 M63.146,60.541c-2.8,10.879-12.091,15.863-26.085,21.556c7.271-0.786,13.163-1.21,18.471-1.21c9.688,0,17.434,1.412,28.09,4.611
				C63.376,74.438,65.457,71.821,63.146,60.541L63.146,60.541z M47.188,79.518c6.625-3.235,11.975-6.936,15.239-12.39
				c1.022,5.161,2.534,8.605,10.164,13.795c-5.879-1.206-11.13-1.697-17.062-1.697C52.974,79.226,50.249,79.318,47.188,79.518
				L47.188,79.518z"/>
		</g>
		<path fill="#695049" d="M55.441,77.563c3.823,0,7.338,0.203,10.851,0.625c-2.435-2.273-3.806-4.411-4.705-6.828
			c-1.945,2.235-4.381,4.272-7.449,6.218C54.577,77.563,55.013,77.563,55.441,77.563z"/>
		<path fill="#A7825F" d="M62.411,67.128c-3.298,5.454-8.704,9.154-15.397,12.39c3.093-0.199,5.846-0.292,8.427-0.292
			c5.993,0,11.298,0.491,17.238,1.697C64.97,75.733,63.443,72.289,62.411,67.128z M61.587,71.359
			c0.898,2.417,2.27,4.555,4.705,6.828c-3.513-0.422-7.028-0.625-10.851-0.625c-0.428,0-0.864,0-1.303,0.015
			C57.207,75.632,59.643,73.595,61.587,71.359z"/>
		<g>
			<path fill="#A7825F" d="M100.665,57.403c-10.357-6.513-15.719-7.74-22.258-7.74c-1.89,0-3.849,0.103-6.117,0.222
				c-1.072,0.056-2.202,0.115-3.404,0.167c10.523-7.741,13.986-12.824,13.833-27.098c0.479,1.462,0.925,2.847,1.35,4.166
				C88.149,39.794,90.274,46.393,100.665,57.403z M78.403,48.436c4.867,0,9.118,0.593,15.258,3.544l0.812,0.39l-0.547-0.715
				c-4.897-6.402-7.168-11.727-9.876-19.904l-0.275-0.831l-0.143,0.863c-1.115,6.777-3.877,11.228-10.19,16.421l-0.505,0.415
				l0.653-0.034C75.637,48.479,77.076,48.436,78.403,48.436z"/>
			<path fill="#F1D089" d="M82.938,24.321c0.321,0.989,0.628,1.943,0.925,2.864c3.944,12.249,6.065,18.836,15.551,29.189
				c-9.521-5.804-14.721-6.928-21.007-6.928c-1.896,0-3.857,0.103-6.128,0.222c-0.859,0.045-1.756,0.093-2.697,0.136
				C79.394,42.495,82.856,37.404,82.938,24.321 M72.295,48.866L73.6,48.8c2.044-0.104,3.48-0.149,4.803-0.149
				c4.837,0,9.061,0.59,15.165,3.523l1.623,0.78l-1.094-1.431c-4.878-6.379-7.142-11.687-9.842-19.842l-0.55-1.662l-0.284,1.728
				c-1.105,6.719-3.847,11.134-10.115,16.289L72.295,48.866 M82.477,21.529c0.407,15.737-3.173,20.679-14.291,28.768
				c4.036-0.16,7.256-0.419,10.221-0.419c6.9,0,12.422,1.397,23.658,8.675C89.116,45.227,88.072,38.438,82.477,21.529L82.477,21.529
				z M73.578,48.369c5.941-4.887,9.081-9.347,10.267-16.552c2.517,7.6,4.797,13.283,9.909,19.968
				c-6.055-2.91-10.368-3.565-15.351-3.565C76.886,48.22,75.3,48.281,73.578,48.369L73.578,48.369z"/>
		</g>
		<path fill="#695049" d="M78.552,46.55c3.478,0,6.793,0.3,10.639,1.488c-2.003-3.192-3.513-6.365-4.911-9.954
			c-1.27,3.059-3.16,5.763-5.89,8.466C78.444,46.55,78.499,46.55,78.552,46.55z"/>
		<path fill="#A7825F" d="M84.05,31.817c-1.198,7.205-4.37,11.665-10.373,16.552c1.74-0.088,3.342-0.149,4.875-0.149
			c5.035,0,9.393,0.655,15.51,3.565C88.896,45.101,86.593,39.417,84.05,31.817z M89.191,48.038
			c-3.846-1.188-7.162-1.488-10.639-1.488c-0.053,0-0.108,0-0.162,0c2.73-2.703,4.621-5.407,5.89-8.466
			C85.678,41.673,87.188,44.846,89.191,48.038z"/>
	</g>
</g>
</svg>
