<?xml version="1.0" encoding="utf-8"?>
<!-- Generator: Adobe Illustrator 16.0.0, SVG Export Plug-In . SVG Version: 6.00 Build 0)  -->
<!DOCTYPE svg PUBLIC "-//W3C//DTD SVG 1.1//EN" "http://www.w3.org/Graphics/SVG/1.1/DTD/svg11.dtd">
<svg version="1.1" id="Layer_1" xmlns="http://www.w3.org/2000/svg" xmlns:xlink="http://www.w3.org/1999/xlink" x="0px" y="0px"
	 width="128px" height="128px" viewBox="0 0 128 128" enable-background="new 0 0 128 128" xml:space="preserve">
<g>
	<g>
		
			<linearGradient id="SVGID_1_" gradientUnits="userSpaceOnUse" x1="398.9736" y1="90.8086" x2="525.3076" y2="90.8086" gradientTransform="matrix(-1 0 0 1 526.1406 0)">
			<stop  offset="0" style="stop-color:#E6C7A7"/>
			<stop  offset="0.0806" style="stop-color:#E7CEB4"/>
			<stop  offset="0.2154" style="stop-color:#E7D7C4"/>
			<stop  offset="0.3564" style="stop-color:#E8DCCE"/>
			<stop  offset="0.512" style="stop-color:#E8DED1"/>
			<stop  offset="0.6384" style="stop-color:#E7DCCE"/>
			<stop  offset="0.7595" style="stop-color:#E4D5C3"/>
			<stop  offset="0.8786" style="stop-color:#E0CAB2"/>
			<stop  offset="0.9958" style="stop-color:#D9BB9B"/>
			<stop  offset="1" style="stop-color:#D9BB9A"/>
		</linearGradient>
		<path fill="url(#SVGID_1_)" d="M0.833,54.104v19.65c0,6.76,1.757,15.314,4.956,20.283c3.198,2.659,7.801,10.855,13.528,17.054
			c5.724,5.889,12.537,6.403,20.086,12.443c7.55,3.527,15.864,3.64,24.598,3.067c8.7-0.201,17.015,3.894,24.592-3.788
			c7.553-4.66,14.361-6.701,20.09-11.723c5.691-0.099,10.332-13.261,13.53-17.615c3.198-5.527,4.954-11.629,4.954-19.722v-19.65
			c0,6.861-1.281,12.344-3.679,17.204c-0.382,0.871-0.8,1.641-1.275,2.46c-3.199,4.404-7.839,17.565-13.53,17.667
			c-5.729,5.021-12.537,7.067-20.09,11.729c-7.577,7.633-15.892,3.533-24.592,3.738c-8.733,0.614-17.048,0.461-24.598-3.02
			c-7.549-6.102-14.362-6.563-20.086-12.448C13.59,85.192,8.987,76.999,5.789,74.379c-0.607-0.973-1.183-2.041-1.665-3.221
			C1.983,66.188,0.833,59.585,0.833,54.104z"/>
		
			<line fill="none" stroke="#CFA686" stroke-width="0.24" stroke-miterlimit="10" x1="108.683" y1="91.435" x2="108.683" y2="111.091"/>
		
			<line fill="none" stroke="#CFA686" stroke-width="0.24" stroke-miterlimit="10" x1="64.001" y1="106.902" x2="64.001" y2="126.602"/>
		<line fill="none" stroke="#CFA686" stroke-width="0.24" stroke-miterlimit="10" x1="10.615" y1="80.18" x2="10.615" y2="99.862"/>
		<path fill="none" stroke="#010101" stroke-width="0.4224" stroke-miterlimit="10" d="M0.833,54.104v19.65
			c0,6.76,1.757,15.314,4.956,20.283c3.198,2.659,7.801,10.855,13.528,17.054c5.724,5.889,12.537,6.403,20.086,12.443
			c7.55,3.527,15.864,3.64,24.598,3.067c8.7-0.201,17.015,3.894,24.592-3.788c7.553-4.66,14.361-6.701,20.09-11.723
			c5.691-0.099,10.332-13.261,13.53-17.615c3.198-5.527,4.954-11.629,4.954-19.722v-19.65c0,6.861-1.281,12.344-3.679,17.204
			c-0.382,0.871-0.8,1.641-1.275,2.46c-3.199,4.404-7.839,17.565-13.53,17.667c-5.729,5.021-12.537,7.067-20.09,11.729
			c-7.577,7.633-15.892,3.533-24.592,3.738c-8.733,0.614-17.048,0.461-24.598-3.02c-7.549-6.102-14.362-6.563-20.086-12.448
			C13.59,85.192,8.987,76.999,5.789,74.379c-0.607-0.973-1.183-2.041-1.665-3.221C1.983,66.188,0.833,59.585,0.833,54.104z"/>
		<path fill="#F4EFC5" stroke="#010101" stroke-width="0.4224" stroke-miterlimit="10" d="M0.833,54.104
			c0,5.481,1.15,12.084,3.292,17.055c0.481,1.18,1.057,2.248,1.665,3.221c3.198,2.62,7.801,10.813,13.528,17.056
			c5.724,5.886,12.537,6.347,20.086,12.448c7.55,3.48,15.864,3.634,24.598,3.02c8.7-0.205,17.015,3.895,24.592-3.738
			c7.553-4.662,14.361-6.708,20.09-11.729c5.691-0.102,10.332-13.263,13.53-17.667c0.475-0.819,0.894-1.589,1.275-2.46
			c2.398-4.86,3.679-10.343,3.679-17.204c0-6.201-1.756-13.262-4.954-19.414c-3.199-7.981-7.839-11.621-13.562-17.972
			c-5.698-3.891-12.506-10.492-20.059-11.413c-7.577-0.41-15.892-2-24.592-4.05c-8.733-1.941-17.048,0-24.598,3.531
			c-7.549,5.581-14.362,4.41-20.086,11.932c-5.727,7.73-10.33,9.122-13.528,16.591C2.59,40.222,0.833,46.162,0.833,54.104z"/>
	</g>
	<g>
		<g>
			<path fill="#A7825F" d="M63.888,45.383c-5.338-10.628-10.321-13.128-23.11-16.699c2.352,0.07,4.497,0.104,6.516,0.104
				c14.486,0,21.929-1.77,35.005-5.446c-16.755,9.853-16.995,11.636-18.038,19.397C64.153,43.549,64.036,44.425,63.888,45.383z
				 M73.173,26.984c-8.081,1.971-14.616,2.792-23.311,2.931l-1.099,0.018l1.024,0.397c5.693,2.211,9.266,4.89,12.333,9.248
				c0.198,0.283,0.397,0.583,0.595,0.882l0.302,0.457l0.089-0.54c0.876-5.272,2.478-7.892,10.234-13.004l1.034-0.682L73.173,26.984z
				"/>
			<path fill="#F1D089" d="M80.784,23.988c-15.457,9.201-15.736,11.28-16.735,18.722c-0.082,0.61-0.171,1.271-0.274,1.979
				c-5.017-9.692-10.084-12.498-21.298-15.745c1.7,0.04,3.295,0.059,4.817,0.059C61.216,29.002,68.642,27.371,80.784,23.988
				 M63.141,41.492l0.18-1.08c0.801-4.821,2.002-7.495,10.141-12.859l2.068-1.364l-2.407,0.587
				c-8.063,1.967-14.585,2.786-23.263,2.925l-2.198,0.035l2.049,0.795c5.65,2.194,9.195,4.852,12.234,9.17
				c0.197,0.283,0.396,0.581,0.593,0.879L63.141,41.492 M83.856,22.679h0.005H83.856z M83.856,22.679
				c-14.207,4.016-21.692,5.894-36.563,5.894c-2.535,0-5.282-0.055-8.316-0.162c14.43,3.939,19.446,6.293,25.018,17.673
				C65.759,35.201,63.459,34.569,83.856,22.679L83.856,22.679z M62.896,40.342c-0.199-0.301-0.399-0.602-0.599-0.888
				c-3.255-4.624-6.972-7.204-12.432-9.324c9.376-0.149,15.869-1.11,23.358-2.937C65.234,32.46,63.758,35.15,62.896,40.342
				L62.896,40.342z"/>
		</g>
		<path fill="#695049" d="M56.369,31.449c2.167,1.331,3.991,2.86,5.622,4.711c0.793-2.076,2.037-3.881,4.25-5.87
			C62.971,30.85,59.779,31.224,56.369,31.449z"/>
		<path fill="#A7825F" d="M49.866,30.13c5.46,2.12,9.177,4.7,12.432,9.324c0.199,0.286,0.4,0.587,0.599,0.888
			c0.862-5.191,2.338-7.882,10.328-13.148C65.735,29.02,59.242,29.98,49.866,30.13z M56.369,31.449
			c3.41-0.226,6.603-0.6,9.872-1.159c-2.213,1.989-3.457,3.794-4.25,5.87C60.359,34.31,58.536,32.78,56.369,31.449z"/>
		<g>
			<path fill="#A7825F" d="M42.188,79.861c-3.213-12.867-7.355-20.022-18.836-32.649c9.91,5.633,17.393,8.874,25.59,8.874
				c2.306,0,4.59-0.256,6.949-0.782c-0.864,0.585-1.677,1.119-2.443,1.622C45.978,61.831,43.046,63.755,42.188,79.861z
				 M29.778,52.52c1.736,2.096,3.204,4.005,4.487,5.837c3.041,4.321,5.162,8.329,6.878,12.995l0.278,0.757l0.135-0.795
				c1.287-7.571,3.688-10.347,8.586-13.702l0.61-0.419l-0.74,0.026c-0.385,0.014-0.768,0.021-1.149,0.021
				c-5.881,0-11.687-1.558-18.827-5.05l-0.897-0.438L29.778,52.52z"/>
			<path fill="#F1D089" d="M24.399,48.049c9.375,5.249,16.621,8.252,24.543,8.252c1.969,0,3.922-0.186,5.919-0.564
				c-0.536,0.356-1.048,0.692-1.53,1.01c-7.114,4.671-10.297,6.761-11.275,21.731C38.962,66.721,34.85,59.674,24.399,48.049
				 M41.499,72.94l0.271-1.591c1.273-7.495,3.65-10.241,8.496-13.562l1.22-0.836l-1.479,0.052c-0.383,0.014-0.763,0.021-1.142,0.021
				c-5.846,0-11.624-1.551-18.732-5.027l-1.795-0.878l1.275,1.538c1.732,2.091,3.197,3.995,4.478,5.823
				c3.029,4.306,5.143,8.298,6.852,12.945L41.499,72.94 M22.267,46.343c12.568,13.681,16.704,20.834,20.064,35.017
				c0.856-19.771,4.523-19.524,14.643-26.536c-2.79,0.716-5.445,1.048-8.032,1.048C40.133,55.871,32.119,52.017,22.267,46.343
				L22.267,46.343z M41.345,71.277c-1.761-4.79-3.911-8.792-6.903-13.044c-1.287-1.838-2.754-3.746-4.498-5.851
				c6.225,3.045,12.277,5.071,18.921,5.071c0.384,0,0.769-0.007,1.157-0.021C45.375,60.618,42.694,63.338,41.345,71.277
				L41.345,71.277z M56.975,54.823h0.005H56.975z"/>
		</g>
		<path fill="#695049" d="M35.448,56.515c0.225,0.313,0.442,0.619,0.656,0.925c1.906,2.716,3.466,5.31,4.784,8.008
			c1.063-2.812,2.519-4.803,4.486-6.581C42.169,58.539,38.921,57.775,35.448,56.515z"/>
		<path fill="#A7825F" d="M34.442,58.233c2.992,4.252,5.142,8.254,6.903,13.044c1.349-7.939,4.029-10.659,8.676-13.844
			c-7.103,0.251-13.493-1.83-20.078-5.051C31.688,54.487,33.155,56.396,34.442,58.233z M36.104,57.439
			c-0.213-0.306-0.431-0.611-0.656-0.925c3.473,1.261,6.721,2.024,9.926,2.352c-1.968,1.778-3.424,3.77-4.486,6.581
			C39.57,62.749,38.01,60.155,36.104,57.439z"/>
		<g>
			<path fill="#A7825F" d="M78.986,80.362c1.67-13.53-1.223-17.132-6.796-24.071c-0.585-0.729-1.202-1.495-1.846-2.315
				c5.39,1.605,9.962,2.661,14.542,2.661c5.623,0,11.327-1.606,19.399-5.503c-1.163,0.987-2.27,1.92-3.328,2.811
				C90.304,62.914,84.78,67.565,78.986,80.362z M74.238,56.669c1.14,1.42,1.912,2.431,2.578,3.38
				c2.44,3.469,3.981,6.784,4.124,12.588l0.018,0.74l0.381-0.635c3.944-6.563,8.124-10.717,14.933-16.534l0.83-0.709l-1.037,0.342
				c-3.992,1.315-7.541,1.928-11.168,1.928c-3.121,0-6.438-0.459-10.439-1.443l-0.616-0.151L74.238,56.669z"/>
			<path fill="#F1D089" d="M102.893,52.031c-0.712,0.602-1.403,1.184-2.074,1.748C90.485,62.48,84.966,67.128,79.353,79.055
				c1.331-12.533-1.571-16.146-6.995-22.897c-0.457-0.569-0.933-1.161-1.426-1.784c5.128,1.503,9.534,2.479,13.954,2.479
				C90.19,56.852,95.562,55.433,102.893,52.031 M84.896,57.554c-3.103,0-6.404-0.457-10.388-1.437l-1.233-0.304l0.795,0.99
				c1.137,1.416,1.906,2.423,2.57,3.368c2.417,3.437,3.944,6.721,4.084,12.471l0.036,1.479l0.762-1.268
				c3.929-6.538,8.096-10.68,14.888-16.481l1.66-1.419l-2.074,0.684C92.028,56.944,88.5,57.554,84.896,57.554 M105.733,50.183h0.005
				H105.733z M105.733,50.183c-8.824,4.408-14.812,6.239-20.848,6.239c-4.591,0-9.209-1.059-15.127-2.847
				c7.304,9.384,11.126,11.772,8.82,28.237C85.374,66.188,91.647,62.218,105.733,50.183L105.733,50.183z M96.132,56.045
				c-6.332,5.409-10.863,9.741-14.978,16.587c-0.14-5.726-1.651-9.137-4.163-12.707c-0.767-1.092-1.63-2.2-2.586-3.391
				c3.79,0.933,7.153,1.449,10.491,1.449C88.503,57.983,92.08,57.38,96.132,56.045L96.132,56.045z"/>
		</g>
		<path fill="#695049" d="M82.476,67.391c2.193-2.937,4.613-5.516,7.503-8.205c-3.692,0.544-7.341,0.489-11.407-0.172
			c0.026,0.042,0.056,0.08,0.081,0.121C80.389,61.605,81.739,64.099,82.476,67.391z"/>
		<path fill="#A7825F" d="M96.132,56.045c-7.802,2.57-13.843,2.429-21.727,0.489c0.956,1.19,1.819,2.299,2.586,3.391
			c2.512,3.57,4.022,6.981,4.163,12.707C85.269,65.786,89.8,61.454,96.132,56.045z M89.979,59.186
			c-2.89,2.689-5.31,5.269-7.503,8.205c-0.737-3.292-2.087-5.785-3.823-8.256c-0.025-0.041-0.055-0.079-0.081-0.121
			C82.638,59.675,86.287,59.729,89.979,59.186z"/>
	</g>
</g>
</svg>
