<?xml version="1.0" encoding="utf-8"?>
<!-- Generator: Adobe Illustrator 16.0.0, SVG Export Plug-In . SVG Version: 6.00 Build 0)  -->
<!DOCTYPE svg PUBLIC "-//W3C//DTD SVG 1.1//EN" "http://www.w3.org/Graphics/SVG/1.1/DTD/svg11.dtd">
<svg version="1.1" id="Layer_1" xmlns="http://www.w3.org/2000/svg" xmlns:xlink="http://www.w3.org/1999/xlink" x="0px" y="0px"
	 width="128px" height="128px" viewBox="0 0 128 128" enable-background="new 0 0 128 128" xml:space="preserve">
<g>
	<g>
		<linearGradient id="SVGID_1_" gradientUnits="userSpaceOnUse" x1="0.6665" y1="90.0068" x2="127.3335" y2="90.0068">
			<stop  offset="0" style="stop-color:#E6C7A7"/>
			<stop  offset="0.0806" style="stop-color:#E7CEB4"/>
			<stop  offset="0.2154" style="stop-color:#E7D7C4"/>
			<stop  offset="0.3564" style="stop-color:#E8DCCE"/>
			<stop  offset="0.512" style="stop-color:#E8DED1"/>
			<stop  offset="0.6384" style="stop-color:#E7DCCE"/>
			<stop  offset="0.7595" style="stop-color:#E4D5C3"/>
			<stop  offset="0.8786" style="stop-color:#E0CAB2"/>
			<stop  offset="0.9958" style="stop-color:#D9BB9B"/>
			<stop  offset="1" style="stop-color:#D9BB9A"/>
		</linearGradient>
		<path fill="url(#SVGID_1_)" stroke="#010101" stroke-width="0.4" stroke-miterlimit="10" d="M127.333,52.583v22.967
			c0,6.001-1.763,12.797-4.969,18.798c-3.207,7.696-7.858,11.248-13.566,17.392c-5.743,3.749-12.573,10.154-20.138,11.051
			c-7.569,0.402-15.906,1.947-24.661,3.897c-8.756,1.854-17.093,0.048-24.659-3.398c-7.568-5.447-14.399-4.296-20.142-11.55
			c-5.707-7.499-10.357-8.796-13.565-16.041C2.427,89.002,0.667,83.25,0.667,75.551V52.583c0,7.696,1.761,13.449,4.968,20.146
			c0.675,1.497,1.414,2.747,2.215,3.899c2.982,4.098,6.83,6.196,11.35,12.094c5.743,7.297,12.574,6.15,20.142,11.599
			c7.566,3.396,15.902,5.242,24.659,3.396c8.754-2.001,17.092-3.547,24.661-3.899c7.565-0.897,14.395-7.3,20.138-11.097
			c4.488-4.799,8.305-7.996,11.288-12.946c0.833-1.299,1.604-2.798,2.278-4.446C125.571,65.381,127.333,58.581,127.333,52.583z"/>
		
			<line fill="none" stroke="#CFA686" stroke-width="0.24" stroke-miterlimit="10" x1="19.199" y1="88.723" x2="19.199" y2="111.74"/>
		
			<line fill="none" stroke="#CFA686" stroke-width="0.24" stroke-miterlimit="10" x1="88.661" y1="99.819" x2="88.661" y2="122.792"/>
		<path fill="none" stroke="#010101" stroke-width="0.4" stroke-miterlimit="10" d="M127.333,52.583v22.967
			c0,6.001-1.763,12.797-4.969,18.798c-3.207,7.696-7.858,11.248-13.566,17.392c-5.743,3.749-12.573,10.154-20.138,11.051
			c-7.569,0.402-15.906,1.947-24.661,3.897c-8.756,1.854-17.093,0.048-24.659-3.398c-7.568-5.447-14.399-4.296-20.142-11.55
			c-5.707-7.499-10.357-8.796-13.565-16.041C2.427,89.002,0.667,83.25,0.667,75.551V52.583c0,7.696,1.761,13.449,4.968,20.146
			c0.675,1.497,1.414,2.747,2.215,3.899c2.982,4.098,6.83,6.196,11.35,12.094c5.743,7.297,12.574,6.15,20.142,11.599
			c7.566,3.396,15.902,5.242,24.659,3.396c8.754-2.001,17.092-3.547,24.661-3.899c7.565-0.897,14.395-7.3,20.138-11.097
			c4.488-4.799,8.305-7.996,11.288-12.946c0.833-1.299,1.604-2.798,2.278-4.446C125.571,65.381,127.333,58.581,127.333,52.583z"/>
		<path fill="#F4EFC5" stroke="#010101" stroke-width="0.4207" stroke-miterlimit="10" d="M127.333,52.583
			c0,5.998-1.763,12.798-4.969,18.747c-0.674,1.647-1.444,3.146-2.278,4.446c-2.983,4.95-6.8,8.147-11.288,12.946
			c-5.743,3.797-12.573,10.2-20.138,11.097c-7.569,0.352-15.906,1.898-24.661,3.899c-8.756,1.845-17.093,0-24.659-3.396
			c-7.568-5.449-14.399-4.302-20.142-11.599c-4.52-5.898-8.367-7.996-11.35-12.094c-0.801-1.152-1.54-2.402-2.215-3.899
			c-3.207-6.697-4.968-12.45-4.968-20.146c0-6.547,1.761-14.846,4.968-19.644c3.208-2.552,7.858-10.503,13.565-16.496
			c5.743-5.703,12.574-6.2,20.142-12.049C46.907,0.993,55.244,0.844,64,1.446c8.754,0.199,17.092-3.749,24.661,3.648
			c7.565,4.499,14.395,6.497,20.138,11.35c5.708,0.097,10.359,12.845,13.566,17.095C125.571,38.836,127.333,44.787,127.333,52.583z"
			/>
	</g>
	<g>
		<g>
			<path fill="#A7825F" d="M84.802,77.04c-2.021-16.791-3.763-17.819-11.475-22.375c-0.754-0.445-1.565-0.924-2.439-1.456
				c2.636,0.277,4.91,0.412,6.926,0.412c8.925,0,14.087-2.726,22.272-8.496C89.865,58.239,87.873,64.454,84.802,77.04z
				 M76.458,55.123c5.145,3.203,7.111,5.607,8.614,13.525l0.165,0.869l0.253-0.848c1.979-6.617,4.386-11.579,8.583-17.697
				l0.519-0.756l-0.802,0.446c-5.204,2.896-9.833,4.078-15.978,4.079c-0.401,0-0.813-0.004-1.235-0.017l-0.797-0.023L76.458,55.123z
				"/>
			<path fill="#F1D089" d="M99.05,46.112C89.852,58.114,87.714,64.337,84.872,75.85C82.88,60.058,80.86,58.865,73.436,54.48
				c-0.505-0.299-1.046-0.618-1.618-0.96c2.244,0.213,4.218,0.317,5.995,0.317C86.37,53.837,91.481,51.354,99.05,46.112
				 M77.813,54.525c-0.399,0-0.808-0.004-1.229-0.017l-1.594-0.045l1.354,0.842c5.085,3.166,7.028,5.544,8.517,13.383l0.33,1.737
				l0.507-1.694c1.972-6.594,4.371-11.539,8.555-17.637l1.038-1.513l-1.603,0.893C88.517,53.352,83.918,54.525,77.813,54.525
				 M101.174,44.088h0.005H101.174z M101.174,44.088c-9.116,6.51-14.139,9.318-23.361,9.318c-2.312,0-4.888-0.176-7.858-0.515
				c10.617,6.572,12.439,5.277,14.773,25.364C88.102,64.329,89.941,58.277,101.174,44.088L101.174,44.088z M77.813,54.957
				c6.518,0,11.102-1.333,16.083-4.105c-4.542,6.62-6.778,11.625-8.612,17.757c-1.55-8.165-3.652-10.519-8.712-13.668
				C76.996,54.952,77.409,54.957,77.813,54.957L77.813,54.957z"/>
		</g>
		<path fill="#695049" d="M85.521,62.211c1.046-2.559,2.248-4.973,3.72-7.471c-2.492,0.871-5.017,1.387-7.798,1.622
			C83.247,57.934,84.524,59.69,85.521,62.211z"/>
		<path fill="#A7825F" d="M85.283,68.608c1.834-6.132,4.07-11.138,8.612-17.757c-4.981,2.772-9.565,4.105-16.083,4.105
			c-0.403,0-0.816-0.004-1.241-0.017C81.631,58.09,83.733,60.443,85.283,68.608z M85.521,62.211
			c-0.996-2.521-2.273-4.277-4.078-5.849c2.781-0.235,5.306-0.751,7.798-1.622C87.769,57.238,86.566,59.652,85.521,62.211z"/>
		<g>
			<path fill="#A7825F" d="M64.276,42.832c-0.201-0.958-0.369-1.847-0.526-2.681c-1.431-7.583-1.998-10.589-18.245-18.958
				c10.25,2.724,17.589,3.753,26.424,3.753c4.736,0,10.055-0.301,17.08-0.969C76.878,28.592,67.409,33.146,64.276,42.832z
				 M54.583,24.883c7.361,4.616,9.088,7.654,10.175,12.718l0.109,0.508l0.282-0.436c2.893-4.464,7.615-8.001,15.309-11.471
				l1.069-0.482l-1.17,0.07c-3.073,0.185-5.827,0.275-8.418,0.275c-6.11,0-11.412-0.486-17.202-1.577l-1.12-0.211L54.583,24.883z"/>
			<path fill="#F1D089" d="M47.279,21.877c9.334,2.375,16.329,3.284,24.65,3.284c4.387,0,9.271-0.257,15.542-0.826
				C76.299,28.67,67.584,33.137,64.33,42.017c-0.132-0.66-0.251-1.289-0.368-1.906C62.608,32.931,61.992,29.667,47.279,21.877
				 M64.766,38.662l0.565-0.872c2.869-4.427,7.562-7.94,15.217-11.391l2.138-0.964l-2.341,0.141
				c-3.068,0.184-5.817,0.274-8.415,0.274c-6.086,0-11.376-0.485-17.153-1.573l-2.239-0.421l1.931,1.21
				c7.932,4.974,9.141,8.211,10.079,12.581L64.766,38.662 M43.549,20.438c20.457,10.304,18.356,12.742,20.693,23.255
				c2.831-10.138,12.219-14.784,26.361-20.089c-7.352,0.731-13.308,1.126-18.674,1.126C62.142,24.73,54.315,23.417,43.549,20.438
				L43.549,20.438z M64.969,37.556c-1.033-4.812-2.562-8.021-10.271-12.855c5.936,1.118,11.243,1.581,17.232,1.581
				c0.003,0,0.006,0,0.01,0c2.586,0,5.336-0.089,8.431-0.275C73.675,29.024,68.265,32.47,64.969,37.556L64.969,37.556z"/>
		</g>
		<path fill="#695049" d="M71.939,27.831c-3.824,0-7.341-0.188-10.855-0.587c2.438,2.123,3.81,4.114,4.711,6.366
			c1.942-2.083,4.378-3.981,7.447-5.793C72.805,27.831,72.37,27.831,71.939,27.831z"/>
		<path fill="#A7825F" d="M64.969,37.556c3.296-5.085,8.706-8.531,15.401-11.55c-3.095,0.186-5.845,0.275-8.431,0.275
			c-5.994,0-11.303-0.462-17.242-1.581C62.407,29.535,63.936,32.744,64.969,37.556z M65.795,33.61
			c-0.901-2.252-2.272-4.243-4.711-6.366c3.515,0.399,7.031,0.587,10.855,0.587c0.431,0,0.865,0,1.303-0.014
			C70.173,29.629,67.737,31.527,65.795,33.61z"/>
		<g>
			<path fill="#A7825F" d="M44.466,78.728c-0.486-1.37-0.939-2.667-1.371-3.903c-4.117-11.789-6.263-17.935-16.718-28.163
				c10.437,6.044,15.846,7.185,22.44,7.185c1.91,0,3.89-0.096,6.183-0.207c1.072-0.052,2.2-0.106,3.399-0.155
				C47.797,60.685,44.31,65.43,44.466,78.728z M33.145,51.993c4.947,5.961,7.242,10.92,9.979,18.54l0.273,0.76l0.142-0.794
				c1.128-6.31,3.917-10.454,10.291-15.29l0.553-0.419l-0.693,0.032c-1.562,0.073-3.232,0.14-4.865,0.14
				c-4.923,0-9.217-0.553-15.426-3.303l-0.839-0.372L33.145,51.993z"/>
			<path fill="#F1D089" d="M27.681,47.653c9.569,5.367,14.808,6.408,21.136,6.408c1.916,0,3.898-0.096,6.193-0.207
				c0.844-0.041,1.724-0.083,2.646-0.124c-9.855,6.786-13.332,11.545-13.41,23.73c-0.33-0.936-0.645-1.836-0.948-2.708
				C39.326,63.379,37.184,57.243,27.681,47.653 M43.466,72.125l0.284-1.59c1.117-6.249,3.884-10.357,10.209-15.156l1.105-0.838
				l-1.386,0.064c-1.559,0.073-3.227,0.14-4.861,0.14c-4.889,0-9.159-0.549-15.333-3.284l-1.679-0.744l1.173,1.413
				c4.926,5.937,7.212,10.879,9.941,18.475L43.466,72.125 M24.91,45.549C38,57.967,39.054,64.293,44.708,80.047
				c-0.412-14.665,3.205-19.27,14.438-26.808c-4.079,0.15-7.333,0.391-10.33,0.391C41.846,53.63,36.264,52.328,24.91,45.549
				L24.91,45.549z M43.326,70.459c-2.544-7.081-4.848-12.376-10.016-18.604c6.117,2.709,10.474,3.321,15.508,3.321
				c0.002,0,0.004,0,0.006,0c1.534,0,3.133-0.059,4.875-0.14C47.697,59.59,44.526,63.746,43.326,70.459L43.326,70.459z
				 M59.146,53.24h0.005H59.146z"/>
		</g>
		<path fill="#695049" d="M48.824,56.732c-3.479,0-6.792-0.28-10.641-1.387c2.004,2.975,3.513,5.929,4.915,9.275
			c1.268-2.85,3.159-5.37,5.889-7.888C48.934,56.732,48.877,56.732,48.824,56.732z"/>
		<path fill="#A7825F" d="M43.326,70.459c1.2-6.713,4.371-10.87,10.373-15.423c-1.742,0.081-3.341,0.14-4.875,0.14
			c-5.036,0-9.395-0.611-15.514-3.321C38.479,58.083,40.782,63.378,43.326,70.459z M38.184,55.346
			c3.849,1.107,7.161,1.387,10.641,1.387c0.053,0,0.109,0,0.163,0c-2.729,2.518-4.621,5.039-5.889,7.888
			C41.696,61.275,40.188,58.32,38.184,55.346z"/>
	</g>
</g>
</svg>
