<?xml version="1.0" encoding="utf-8"?>
<!-- Generator: Adobe Illustrator 16.0.0, SVG Export Plug-In . SVG Version: 6.00 Build 0)  -->
<!DOCTYPE svg PUBLIC "-//W3C//DTD SVG 1.1//EN" "http://www.w3.org/Graphics/SVG/1.1/DTD/svg11.dtd">
<svg version="1.1" id="Layer_1" xmlns="http://www.w3.org/2000/svg" xmlns:xlink="http://www.w3.org/1999/xlink" x="0px" y="0px"
	 width="128px" height="128px" viewBox="0 0 128 128" enable-background="new 0 0 128 128" xml:space="preserve">
<g>
	<g>
		<linearGradient id="SVGID_1_" gradientUnits="userSpaceOnUse" x1="0.6665" y1="90.957" x2="127.3335" y2="90.957">
			<stop  offset="0" style="stop-color:#E6C7A7"/>
			<stop  offset="0.0806" style="stop-color:#E7CEB4"/>
			<stop  offset="0.2154" style="stop-color:#E7D7C4"/>
			<stop  offset="0.3564" style="stop-color:#E8DCCE"/>
			<stop  offset="0.512" style="stop-color:#E8DED1"/>
			<stop  offset="0.6384" style="stop-color:#E7DCCE"/>
			<stop  offset="0.7595" style="stop-color:#E4D5C3"/>
			<stop  offset="0.8786" style="stop-color:#E0CAB2"/>
			<stop  offset="0.9958" style="stop-color:#D9BB9B"/>
			<stop  offset="1" style="stop-color:#D9BB9A"/>
		</linearGradient>
		<path fill="url(#SVGID_1_)" d="M127.333,54.526v18.806c0,6.799-1.767,15.397-4.974,20.396
			c-3.206,2.673-7.822,10.907-13.559,17.146c-5.744,5.922-12.57,6.437-20.143,12.51c-7.566,3.549-15.903,3.659-24.662,3.087
			c-8.719-0.201-17.056,3.912-24.66-3.812c-7.566-4.688-14.399-6.738-20.137-11.785C13.494,110.772,8.84,97.538,5.633,93.163
			c-3.207-5.561-4.966-11.694-4.966-19.831V54.526c0,6.9,1.277,12.409,3.682,17.297c0.389,0.875,0.802,1.649,1.284,2.474
			c3.208,4.419,7.861,17.653,13.566,17.755c5.738,5.047,12.57,7.108,20.137,11.794c7.604,7.674,15.94,3.551,24.66,3.764
			c8.759,0.611,17.096,0.461,24.662-3.039c7.573-6.133,14.399-6.598,20.143-12.519c5.737-6.276,10.353-14.513,13.559-17.141
			c0.614-0.976,1.192-2.053,1.673-3.238C126.18,66.675,127.333,60.037,127.333,54.526z"/>
		
			<line fill="none" stroke="#CFA686" stroke-width="0.24" stroke-miterlimit="10" x1="19.199" y1="92.052" x2="19.199" y2="110.875"/>
		
			<line fill="none" stroke="#CFA686" stroke-width="0.24" stroke-miterlimit="10" x1="63.996" y1="107.609" x2="63.996" y2="126.472"/>
		
			<line fill="none" stroke="#CFA686" stroke-width="0.24" stroke-miterlimit="10" x1="117.525" y1="80.737" x2="117.525" y2="99.578"/>
		<path fill="none" stroke="#010101" stroke-width="0.4224" stroke-miterlimit="10" d="M127.333,54.526v18.806
			c0,6.799-1.767,15.397-4.974,20.396c-3.206,2.673-7.822,10.907-13.559,17.146c-5.744,5.922-12.57,6.437-20.143,12.51
			c-7.566,3.549-15.903,3.659-24.662,3.087c-8.719-0.201-17.056,3.912-24.66-3.812c-7.566-4.688-14.399-6.738-20.137-11.785
			C13.494,110.772,8.84,97.538,5.633,93.163c-3.207-5.561-4.966-11.694-4.966-19.831V54.526c0,6.9,1.277,12.409,3.682,17.297
			c0.389,0.875,0.802,1.649,1.284,2.474c3.208,4.419,7.861,17.653,13.566,17.755c5.738,5.047,12.57,7.108,20.137,11.794
			c7.604,7.674,15.94,3.551,24.66,3.764c8.759,0.611,17.096,0.461,24.662-3.039c7.573-6.133,14.399-6.598,20.143-12.519
			c5.737-6.276,10.353-14.513,13.559-17.141c0.614-0.976,1.192-2.053,1.673-3.238C126.18,66.675,127.333,60.037,127.333,54.526z"/>
		<path fill="#F4EFC5" stroke="#010101" stroke-width="0.4224" stroke-miterlimit="10" d="M127.333,54.526
			c0,5.511-1.153,12.148-3.301,17.146c-0.481,1.186-1.06,2.263-1.673,3.238c-3.206,2.628-7.822,10.864-13.559,17.141
			c-5.744,5.921-12.57,6.386-20.143,12.519c-7.566,3.5-15.903,3.65-24.662,3.039c-8.719-0.213-17.056,3.91-24.66-3.764
			c-7.566-4.686-14.399-6.747-20.137-11.794C13.494,91.95,8.84,78.716,5.633,74.297c-0.482-0.824-0.895-1.599-1.284-2.474
			c-2.405-4.888-3.682-10.396-3.682-17.297c0-6.236,1.759-13.336,4.966-19.52c3.208-8.026,7.861-11.688,13.598-18.073
			c5.706-3.912,12.539-10.55,20.105-11.475c7.604-0.413,15.94-2.011,24.66-4.074c8.759-1.951,17.096,0,24.662,3.551
			c7.573,5.612,14.399,4.436,20.143,11.998c5.737,7.773,10.353,9.172,13.559,16.686C125.566,40.567,127.333,46.541,127.333,54.526z"
			/>
	</g>
	<g>
		<g>
			<path fill="#A7825F" d="M51.896,87.598C43.78,76.175,39.311,70.652,24.274,60.713c6.656,2.202,11.301,3.388,15.878,3.388
				c4.439,0,8.829-1.083,14.996-3.719c-0.62,0.789-1.2,1.504-1.738,2.168C48.048,69.164,46.831,70.664,51.896,87.598z
				 M32.305,64.726c7.503,5.551,11.61,9.982,15.469,14.928l0.6,0.77l-0.219-0.951c-1.878-8.164-1.029-11.064,2.475-15.632
				l0.414-0.539l-1.098,0.343c-0.239,0.076-0.476,0.151-0.71,0.22c-3.267,0.968-6.157,1.419-9.095,1.419
				c-2.401,0-4.835-0.3-7.66-0.941l-1.006-0.229L32.305,64.726z"/>
			<path fill="#F1D089" d="M54.455,60.909c-0.428,0.536-0.834,1.038-1.212,1.504c-5.161,6.366-6.576,8.11-1.921,24.005
				c-7.438-10.413-12.04-15.893-25.612-25.009c5.89,1.894,10.19,2.908,14.443,2.908C44.434,64.317,48.663,63.319,54.455,60.909
				 M40.142,65.065c-2.384,0-4.803-0.297-7.611-0.936l-2.013-0.458l1.66,1.228c7.483,5.536,11.579,9.955,15.427,14.888l1.201,1.539
				l-0.438-1.902c-1.858-8.08-1.021-10.945,2.436-15.452l0.828-1.079l-1.299,0.402l-0.451,0.142
				c-0.237,0.076-0.472,0.151-0.707,0.22C45.928,64.618,43.059,65.065,40.142,65.065 M55.839,59.847h0.005H55.839z M55.839,59.847
				c-6.388,2.797-11.02,4.037-15.687,4.037c-5.015,0-10.07-1.432-17.393-3.906c16.491,10.739,20.75,16.15,29.726,28.825
				C46.32,68.494,48.574,69.259,55.839,59.847L55.839,59.847z M40.142,65.498c2.919,0,5.855-0.449,9.155-1.427
				c0.382-0.111,0.771-0.242,1.162-0.363c-3.448,4.495-4.451,7.393-2.514,15.813c-4.278-5.483-8.469-9.759-15.511-14.969
				C35.136,65.166,37.633,65.498,40.142,65.498L40.142,65.498z"/>
		</g>
		<path fill="#695049" d="M45.057,73.332c-0.109-2.746,0.363-4.827,1.41-6.87c-2.719,0.545-5.318,0.744-8.023,0.594
			C40.87,69.088,43.009,71.109,45.057,73.332z"/>
		<path fill="#A7825F" d="M49.297,64.071c-6.138,1.818-11.017,1.81-16.863,0.48c7.042,5.21,11.232,9.485,15.511,14.969
			c-1.937-8.42-0.934-11.317,2.514-15.813C50.067,63.829,49.679,63.96,49.297,64.071z M45.057,73.332
			c-2.047-2.223-4.187-4.244-6.613-6.276c2.705,0.15,5.304-0.049,8.023-0.594C45.419,68.505,44.948,70.586,45.057,73.332z"/>
		<g>
			<path fill="#A7825F" d="M56.998,48.389c-6.983-8.59-17.815-10.381-31.183-11.497c18.641-3.556,27.451-6.85,39.972-15.013
				c-11.938,12.847-11.219,15.945-9.398,23.796C56.583,46.519,56.792,47.417,56.998,48.389z M58.377,27.795
				c-5.003,2.688-9.799,4.649-15.549,6.361c-2.444,0.726-5.077,1.408-8.047,2.087l-1.141,0.261l1.159,0.164
				c8.695,1.237,14.623,3.38,19.22,6.947l0.462,0.359L54.363,43.4c-1.08-5.258-0.717-8.713,4.289-15.284l0.605-0.794L58.377,27.795z
				"/>
			<path fill="#F1D089" d="M64.49,22.972c-10.822,11.927-10.042,15.296-8.313,22.752c0.14,0.603,0.282,1.216,0.424,1.858
				c-6.765-7.757-16.86-9.667-29.221-10.772C44.331,33.491,53.011,30.276,64.49,22.972 M54.811,44.504l-0.236-1.146
				c-0.931-4.535-1.139-8.037,4.249-15.109l1.21-1.589l-1.76,0.944c-4.989,2.681-9.772,4.638-15.508,6.345
				c-2.44,0.725-5.068,1.406-8.034,2.084l-2.282,0.521l2.317,0.33c8.657,1.231,14.553,3.36,19.118,6.903L54.811,44.504
				 M67.204,20.685h0.005H67.204z M67.204,20.685c-13.782,9.191-22.592,12.491-43.013,16.293
				c15.535,1.228,26.312,3.138,33.204,12.27C55.213,38.305,52.22,36.505,67.204,20.685L67.204,20.685z M54.151,43.444
				c-5.223-4.054-11.75-5.913-19.322-6.99c2.998-0.685,5.625-1.367,8.061-2.091c5.644-1.68,10.458-3.621,15.59-6.378
				C53.23,34.876,53.124,38.444,54.151,43.444L54.151,43.444z"/>
		</g>
		<path fill="#695049" d="M51.734,39.813c-0.094-2.452,0.374-4.786,1.782-7.552c-3.142,1.376-6.38,2.544-9.981,3.621
			c-0.408,0.111-0.817,0.23-1.234,0.353C45.946,37.147,49.035,38.325,51.734,39.813z"/>
		<path fill="#A7825F" d="M58.479,27.985c-5.132,2.757-9.947,4.698-15.59,6.378c-2.436,0.724-5.063,1.406-8.061,2.091
			c7.572,1.077,14.099,2.937,19.322,6.99C53.124,38.444,53.23,34.876,58.479,27.985z M53.516,32.261
			c-1.409,2.766-1.876,5.1-1.782,7.552c-2.699-1.487-5.788-2.665-9.433-3.578c0.417-0.122,0.827-0.241,1.234-0.353
			C47.136,34.805,50.375,33.637,53.516,32.261z"/>
		<path fill="#A7825F" d="M93.881,44.258c-4.635,4.372-8.486,6.197-13.228,7.603c-1.446,0.435-2.981,0.827-4.653,1.229
			c7.554,2.776,12.27,5.953,16.197,12.189C91.639,57.635,91.608,51.808,93.881,44.258z M81.142,53.43
			c0.057-0.02,0.106-0.032,0.157-0.049c3.275-0.978,6.283-2.176,9.452-4.335c-0.652,3.471-0.846,6.787-0.771,10.455
			C87.6,57.067,84.768,55.13,81.142,53.43z"/>
		<path fill="#695049" d="M90.75,49.046c-3.169,2.159-6.176,3.357-9.452,4.335c-0.051,0.017-0.1,0.029-0.157,0.049
			c3.626,1.7,6.458,3.638,8.838,6.071C89.904,55.833,90.098,52.517,90.75,49.046z"/>
		<g>
			<path fill="#A7825F" d="M94.571,73.683C89.175,60.616,83.915,56.959,70.91,52.885c1.141-0.286,2.218-0.547,3.242-0.795
				c9.717-2.351,14.762-3.57,24.167-14.957c-5.651,13.027-5.114,19.649-4.079,32.388C94.348,70.838,94.46,72.221,94.571,73.683z
				 M93.732,44.101c-4.709,4.441-8.52,6.183-13.141,7.552c-1.274,0.384-2.706,0.762-4.642,1.226l-0.696,0.167l0.671,0.247
				c8.032,2.952,12.393,6.231,16.088,12.102l0.462,0.734l-0.063-0.865c-0.599-8.208-0.504-13.7,1.676-20.942l0.234-0.775
				L93.732,44.101z"/>
			<path fill="#F1D089" d="M97.553,38.385c-5.067,12.206-4.53,18.822-3.528,31.153c0.074,0.912,0.15,1.855,0.228,2.834
				C89.1,60.455,83.846,56.788,71.706,52.909c0.868-0.215,1.699-0.416,2.497-0.608C83.641,50.018,88.691,48.796,97.553,38.385
				 M92.754,66.977l-0.126-1.729c-0.597-8.182-0.503-13.654,1.667-20.864l0.467-1.552l-1.178,1.112
				c-4.678,4.412-8.463,6.142-13.056,7.502c-1.27,0.382-2.698,0.759-4.63,1.223l-1.391,0.334l1.343,0.493
				c7.981,2.934,12.313,6.189,15.98,12.014L92.754,66.977 M99.173,35.74h0.005H99.173z M99.173,35.74
				c-11.26,14.035-16.065,13.809-29.062,17.123c13.73,4.228,19.054,7.719,24.778,22.186C93.655,58.047,92.015,51.558,99.173,35.74
				L99.173,35.74z M92.196,65.278C88.27,59.042,83.554,55.865,76,53.089c1.672-0.401,3.207-0.794,4.653-1.229
				c4.742-1.405,8.593-3.23,13.228-7.603C91.608,51.808,91.639,57.635,92.196,65.278L92.196,65.278z"/>
		</g>
	</g>
</g>
</svg>
