<?xml version="1.0" encoding="utf-8"?>
<!-- Generator: Adobe Illustrator 16.0.0, SVG Export Plug-In . SVG Version: 6.00 Build 0)  -->
<!DOCTYPE svg PUBLIC "-//W3C//DTD SVG 1.1//EN" "http://www.w3.org/Graphics/SVG/1.1/DTD/svg11.dtd">
<svg version="1.1" id="Layer_1" xmlns="http://www.w3.org/2000/svg" xmlns:xlink="http://www.w3.org/1999/xlink" x="0px" y="0px"
	 width="128px" height="128px" viewBox="0 0 128 128" enable-background="new 0 0 128 128" xml:space="preserve">
<g>
	<g>
		<linearGradient id="SVGID_1_" gradientUnits="userSpaceOnUse" x1="0.7939" y1="90.874" x2="127.2061" y2="90.874">
			<stop  offset="0" style="stop-color:#E6C7A7"/>
			<stop  offset="0.0806" style="stop-color:#E7CEB4"/>
			<stop  offset="0.2154" style="stop-color:#E7D7C4"/>
			<stop  offset="0.3564" style="stop-color:#E8DCCE"/>
			<stop  offset="0.512" style="stop-color:#E8DED1"/>
			<stop  offset="0.6384" style="stop-color:#E7DCCE"/>
			<stop  offset="0.7595" style="stop-color:#E4D5C3"/>
			<stop  offset="0.8786" style="stop-color:#E0CAB2"/>
			<stop  offset="0.9958" style="stop-color:#D9BB9B"/>
			<stop  offset="1" style="stop-color:#D9BB9A"/>
		</linearGradient>
		<path fill="url(#SVGID_1_)" d="M127.206,54.361v19.131c0,6.777-1.764,15.354-4.964,20.334c-3.2,2.665-7.807,10.882-13.532,17.098
			c-5.733,5.901-12.543,6.418-20.103,12.473c-7.55,3.537-15.87,3.649-24.611,3.074c-8.703-0.2-17.023,3.905-24.606-3.796
			c-7.555-4.672-14.373-6.718-20.101-11.751c-5.694-0.1-10.338-13.295-13.539-17.66C2.55,87.723,0.794,81.607,0.794,73.492V54.361
			c0,6.88,1.28,12.374,3.681,17.247c0.382,0.871,0.799,1.645,1.276,2.465c3.2,4.419,7.844,17.614,13.539,17.714
			c5.728,5.034,12.546,7.086,20.101,11.759c7.583,7.652,15.903,3.542,24.606,3.749c8.741,0.616,17.061,0.461,24.611-3.027
			c7.56-6.116,14.37-6.578,20.103-12.48c5.725-6.257,10.332-14.471,13.532-17.101c0.613-0.974,1.189-2.046,1.67-3.229
			C126.055,66.475,127.206,59.857,127.206,54.361z"/>
		
			<line fill="none" stroke="#CFA686" stroke-width="0.24" stroke-miterlimit="10" x1="19.289" y1="91.787" x2="19.289" y2="110.924"/>
		
			<line fill="none" stroke="#CFA686" stroke-width="0.24" stroke-miterlimit="10" x1="63.996" y1="107.295" x2="63.996" y2="126.471"/>
		
			<line fill="none" stroke="#CFA686" stroke-width="0.24" stroke-miterlimit="10" x1="117.418" y1="80.505" x2="117.418" y2="99.66"/>
		<path fill="none" stroke="#010101" stroke-width="0.4224" stroke-miterlimit="10" d="M127.206,54.361v19.131
			c0,6.777-1.764,15.354-4.964,20.334c-3.2,2.665-7.807,10.882-13.532,17.098c-5.733,5.901-12.543,6.418-20.103,12.473
			c-7.55,3.537-15.87,3.649-24.611,3.074c-8.703-0.2-17.023,3.905-24.606-3.796c-7.555-4.672-14.373-6.718-20.101-11.751
			c-5.694-0.1-10.338-13.295-13.539-17.66C2.55,87.723,0.794,81.607,0.794,73.492V54.361c0,6.88,1.28,12.374,3.681,17.247
			c0.382,0.871,0.799,1.645,1.276,2.465c3.2,4.419,7.844,17.614,13.539,17.714c5.728,5.034,12.546,7.086,20.101,11.759
			c7.583,7.652,15.903,3.542,24.606,3.749c8.741,0.616,17.061,0.461,24.611-3.027c7.56-6.116,14.37-6.578,20.103-12.48
			c5.725-6.257,10.332-14.471,13.532-17.101c0.613-0.974,1.189-2.046,1.67-3.229C126.055,66.475,127.206,59.857,127.206,54.361z"/>
		<path fill="#F4EFC5" stroke="#010101" stroke-width="0.4224" stroke-miterlimit="10" d="M127.206,54.361
			c0,5.496-1.151,12.113-3.294,17.097c-0.481,1.183-1.057,2.255-1.67,3.229c-3.2,2.63-7.807,10.844-13.532,17.101
			c-5.733,5.902-12.543,6.364-20.103,12.48c-7.55,3.488-15.87,3.644-24.611,3.027c-8.703-0.207-17.023,3.903-24.606-3.749
			c-7.555-4.673-14.373-6.725-20.101-11.759c-5.694-0.1-10.338-13.295-13.539-17.714c-0.477-0.82-0.894-1.594-1.276-2.465
			c-2.401-4.873-3.681-10.367-3.681-17.247c0-6.216,1.756-13.293,4.957-19.461c3.2-8,7.844-11.649,13.57-18.016
			c5.697-3.901,12.515-10.519,20.07-11.441c7.583-0.411,15.903-2.005,24.606-4.061c8.741-1.944,17.061,0,24.611,3.539
			c7.56,5.596,14.37,4.423,20.103,11.963c5.725,7.749,10.332,9.144,13.532,16.633C125.442,40.446,127.206,46.402,127.206,54.361z"/>
	</g>
	<g>
		<g>
			<path fill="#A7825F" d="M72.659,84.35c5.053-16.88,3.838-18.378-1.515-24.974c-0.536-0.66-1.114-1.373-1.732-2.158
				c6.148,2.628,10.528,3.708,14.958,3.708c4.563,0,9.202-1.183,15.852-3.377C85.193,67.478,80.74,72.977,72.659,84.35z
				 M73.92,60.661c3.496,4.556,4.342,7.447,2.469,15.59L76.17,77.2l0.6-0.768c3.867-4.946,7.973-9.371,15.44-14.885l0.83-0.612
				l-1.006,0.228c-2.831,0.64-5.264,0.938-7.657,0.938c-2.935,0-5.815-0.45-9.065-1.417c-0.38-0.111-0.765-0.231-1.152-0.359
				l-0.668-0.222L73.92,60.661z"/>
			<path fill="#F1D089" d="M70.106,57.746c5.773,2.401,9.992,3.396,14.264,3.396c4.239,0,8.533-1.012,14.418-2.899
				c-13.562,9.104-18.151,14.563-25.555,24.926c4.643-15.841,3.23-17.582-1.922-23.93C70.936,58.776,70.531,58.278,70.106,57.746
				 M75.741,78.102l1.199-1.535c3.856-4.933,7.951-9.345,15.399-14.844l1.659-1.226l-2.012,0.455
				c-2.815,0.636-5.233,0.933-7.61,0.933c-2.913,0-5.774-0.448-9.005-1.41c-0.377-0.109-0.759-0.229-1.144-0.356l-1.336-0.441
				l0.857,1.116c3.449,4.495,4.283,7.353,2.429,15.41L75.741,78.102 M68.72,56.683c7.25,9.382,9.502,8.622,3.349,28.872
				c8.956-12.645,13.208-18.027,29.666-28.739c-7.31,2.464-12.358,3.894-17.364,3.894C79.714,60.709,75.093,59.473,68.72,56.683
				L68.72,56.683z M76.6,76.3c1.933-8.402,0.931-11.288-2.508-15.771c0.39,0.129,0.777,0.25,1.159,0.361
				c3.29,0.979,6.217,1.427,9.126,1.427c2.508,0,5.002-0.333,7.705-0.943C85.052,66.564,80.871,70.836,76.6,76.3L76.6,76.3z
				 M101.734,56.815h0.005H101.734z"/>
		</g>
		<path fill="#695049" d="M79.481,70.125c0.111-2.738-0.362-4.814-1.406-6.849c2.713,0.545,5.307,0.744,8.007,0.602
			C83.659,65.9,81.525,67.917,79.481,70.125z"/>
		<path fill="#A7825F" d="M74.092,60.529c3.439,4.482,4.441,7.368,2.508,15.771c4.271-5.464,8.452-9.735,15.482-14.926
			c-5.838,1.319-10.706,1.34-16.832-0.483C74.869,60.779,74.481,60.658,74.092,60.529z M78.075,63.276
			c2.713,0.545,5.307,0.744,8.007,0.602c-2.423,2.022-4.557,4.039-6.601,6.247C79.592,67.387,79.119,65.311,78.075,63.276z"/>
		<g>
			<path fill="#A7825F" d="M67.566,45.256c0.205-0.967,0.413-1.861,0.607-2.701c1.817-7.827,2.534-10.919-9.374-23.717
				c12.507,8.142,21.298,11.424,39.88,14.955C85.343,34.906,74.536,36.693,67.566,45.256z M65.914,25.049
				c4.993,6.554,5.356,9.996,4.281,15.231l-0.118,0.573l0.462-0.358c4.577-3.545,10.493-5.68,19.18-6.923l1.159-0.165l-1.142-0.26
				c-2.883-0.655-5.51-1.336-8.03-2.081c-5.773-1.718-10.559-3.673-15.518-6.339l-0.88-0.474L65.914,25.049z"/>
			<path fill="#F1D089" d="M60.096,19.929C71.56,27.213,80.22,30.415,97.111,33.711c-12.329,1.103-22.397,3.008-29.148,10.739
				c0.142-0.639,0.283-1.248,0.422-1.847C70.111,35.169,70.891,31.812,60.096,19.929 M69.748,41.382l0.924-0.716
				c4.546-3.521,10.43-5.642,19.078-6.879l2.319-0.332l-2.285-0.519c-2.878-0.654-5.501-1.334-8.016-2.077
				c-5.759-1.714-10.532-3.664-15.477-6.322L64.53,23.59l1.212,1.591c5.374,7.054,5.168,10.541,4.241,15.057L69.748,41.382
				 M57.381,17.645c14.951,15.764,11.965,17.562,9.787,28.47c6.877-9.104,17.633-11.012,33.139-12.236
				C79.926,30.099,71.132,26.801,57.381,17.645L57.381,17.645z M70.407,40.324c1.022-4.98,0.917-8.53-4.321-15.406
				c5.122,2.754,9.925,4.68,15.559,6.356c2.432,0.719,5.052,1.404,8.044,2.084C82.132,34.439,75.619,36.288,70.407,40.324
				L70.407,40.324z"/>
		</g>
		<path fill="#695049" d="M72.819,36.706c0.093-2.447-0.375-4.772-1.779-7.52c3.135,1.363,6.366,2.53,9.959,3.601
			c0.407,0.119,0.817,0.239,1.231,0.353C78.594,34.05,75.514,35.223,72.819,36.706z"/>
		<path fill="#A7825F" d="M70.407,40.324c5.211-4.036,11.725-5.885,19.282-6.966c-2.992-0.68-5.612-1.365-8.044-2.084
			c-5.633-1.677-10.437-3.603-15.559-6.356C71.325,31.794,71.43,35.344,70.407,40.324z M81,32.787
			c0.407,0.119,0.817,0.239,1.231,0.353c-3.637,0.91-6.717,2.083-9.412,3.566c0.093-2.447-0.375-4.772-1.779-7.52
			C74.176,30.55,77.407,31.717,81,32.787z"/>
		<g>
			<path fill="#A7825F" d="M34.009,74.761c0.111-1.456,0.223-2.835,0.33-4.148c1.032-12.698,1.569-19.299-4.069-32.284
				c9.386,11.348,14.419,12.564,24.115,14.909c1.021,0.247,2.096,0.507,3.235,0.793C44.644,58.09,39.394,61.736,34.009,74.761z
				 M34.49,45.491c2.175,7.213,2.27,12.689,1.673,20.877L36.1,67.232l0.462-0.733c3.689-5.852,8.04-9.121,16.055-12.063l0.67-0.246
				l-0.694-0.167c-1.99-0.48-3.375-0.846-4.632-1.221c-4.612-1.368-8.415-3.104-13.115-7.53l-0.589-0.556L34.49,45.491z"/>
			<path fill="#F1D089" d="M31.036,39.578c8.842,10.375,13.88,11.593,23.297,13.87c0.795,0.192,1.624,0.393,2.489,0.606
				c-12.109,3.864-17.354,7.521-22.495,19.397c0.077-0.975,0.153-1.914,0.227-2.822C35.553,58.338,36.09,51.743,31.036,39.578
				 M35.821,68.08l0.924-1.466c3.66-5.806,7.982-9.052,15.946-11.976l1.34-0.492l-1.388-0.335c-1.986-0.479-3.368-0.843-4.622-1.218
				c-4.582-1.358-8.359-3.084-13.028-7.48l-1.179-1.109l0.467,1.55c2.166,7.18,2.26,12.638,1.665,20.799L35.821,68.08
				 M29.415,36.938c7.144,15.768,5.506,22.238,4.275,39.188c5.713-14.424,11.026-17.904,24.728-22.117
				C45.447,50.702,40.653,50.928,29.415,36.938L29.415,36.938z M36.379,66.384c0.555-7.619,0.586-13.433-1.682-20.955
				c4.625,4.355,8.469,6.177,13.202,7.58c1.445,0.432,2.976,0.821,4.644,1.224C45.004,57,40.297,60.169,36.379,66.384L36.379,66.384
				z"/>
		</g>
		<path fill="#695049" d="M37.822,50.202c3.163,2.148,6.164,3.348,9.433,4.32c0.05,0.014,0.1,0.029,0.155,0.05
			c-3.619,1.695-6.445,3.626-8.819,6.054C38.666,56.97,38.472,53.66,37.822,50.202z"/>
		<path fill="#A7825F" d="M36.379,66.384c3.918-6.215,8.625-9.384,16.163-12.151c-1.668-0.402-3.199-0.792-4.644-1.224
			c-4.732-1.403-8.576-3.225-13.202-7.58C36.965,52.951,36.934,58.765,36.379,66.384z M38.591,60.626
			c0.075-3.656-0.12-6.966-0.769-10.424c3.163,2.148,6.164,3.348,9.433,4.32c0.05,0.014,0.1,0.029,0.155,0.05
			C43.792,56.268,40.965,58.198,38.591,60.626z"/>
	</g>
</g>
</svg>
