<?xml version="1.0" encoding="utf-8"?>
<!-- Generator: Adobe Illustrator 16.0.0, SVG Export Plug-In . SVG Version: 6.00 Build 0)  -->
<!DOCTYPE svg PUBLIC "-//W3C//DTD SVG 1.1//EN" "http://www.w3.org/Graphics/SVG/1.1/DTD/svg11.dtd">
<svg version="1.1" id="Layer_1" xmlns="http://www.w3.org/2000/svg" xmlns:xlink="http://www.w3.org/1999/xlink" x="0px" y="0px"
	 width="513px" height="85.726px" viewBox="0 0 513 85.726" enable-background="new 0 0 513 85.726" xml:space="preserve">
<g id="Coin_Shelf">
	
		<polygon fill="#AFAFAD" stroke="#000000" stroke-width="1.08" stroke-linecap="round" stroke-linejoin="round" stroke-miterlimit="10" points="
		494.101,0 18.901,0 10.8,11.396 0,24.76 513,24.76 502.201,11.396 	"/>
	<linearGradient id="_x21__1_" gradientUnits="userSpaceOnUse" x1="19.3369" y1="0.7344" x2="512.0873" y2="25.9335">
		<stop  offset="0" style="stop-color:#AFAFAD"/>
		<stop  offset="1" style="stop-color:#555655"/>
	</linearGradient>
	
		<polygon id="_x21_" fill="url(#_x21__1_)" stroke="#000000" stroke-width="1.08" stroke-linecap="round" stroke-linejoin="round" stroke-miterlimit="10" points="
		494.101,0 18.901,0 10.8,11.396 0,24.76 513,24.76 502.201,11.396 	"/>
	
		<rect y="24.76" fill="#333333" stroke="#000000" stroke-width="1.485" stroke-linecap="round" stroke-linejoin="round" stroke-miterlimit="10" width="513" height="60.967"/>
	
		<path fill="#992B1F" stroke="#000000" stroke-width="1.08" stroke-linecap="round" stroke-linejoin="round" stroke-miterlimit="10" d="
		M502.201,54.34c0,11.742-9.521,21.262-21.264,21.262H32.063c-11.742,0-21.263-9.52-21.263-21.262l0,0
		c0-11.744,9.521-21.264,21.263-21.264h448.875C492.681,33.076,502.201,42.596,502.201,54.34L502.201,54.34z"/>
</g>
</svg>
