<?xml version="1.0" encoding="utf-8"?>
<!-- Generator: Adobe Illustrator 16.0.0, SVG Export Plug-In . SVG Version: 6.00 Build 0)  -->
<!DOCTYPE svg PUBLIC "-//W3C//DTD SVG 1.1//EN" "http://www.w3.org/Graphics/SVG/1.1/DTD/svg11.dtd">
<svg version="1.1" id="Layer_1" xmlns="http://www.w3.org/2000/svg" xmlns:xlink="http://www.w3.org/1999/xlink" x="0px" y="0px"
	 width="513px" height="159.543px" viewBox="0 0 513 159.543" enable-background="new 0 0 513 159.543" xml:space="preserve">
<g id="Name_Face">
	
		<path fill="#555655" stroke="#000000" stroke-width="1.08" stroke-linecap="round" stroke-linejoin="round" stroke-miterlimit="10" d="
		M513,159.543H0C0,93.771,94.96,12.852,218.728,1.539C231.04,0.514,243.675,0,256.5,0c12.826,0,25.462,0.514,37.774,1.539
		C418.042,12.852,513,93.771,513,159.543z"/>
	<path stroke="#AFAFAD" stroke-width="1.485" stroke-miterlimit="10" d="M11.765,148.742
		C21.802,91.284,109.087,22.406,219.71,12.294c12.039-1.136,24.406-1.71,36.79-1.71c12.386,0,24.753,0.574,36.761,1.707
		C403.911,22.406,491.2,91.284,501.237,148.742H11.765z"/>
	<path fill="none" stroke="#BA7C2B" stroke-width="1.89" stroke-miterlimit="10" d="M45.123,137.942
		c-2.361-5.993-6.624-11.054-12.035-14.426C59.619,79.032,130.374,31.318,220.687,23.04c11.676-1.101,23.717-1.657,35.813-1.657
		c12.114,0,24.136,0.557,35.73,1.654c90.337,8.275,161.091,55.954,187.651,100.424c-5.455,3.369-9.748,8.452-12.116,14.481H45.123z"
		/>
	<g id="He_Loves_the">
		<g>
			<g>
				<path fill="#BA7C2B" d="M98.987,120.7c-1.157,0.771-2.455,1.324-3.661,1.558c-2.131,0.415-3.033-0.352-3.382-0.855
					c-1.499-2.146,2.589-5.716,4.159-6.75c2.505-1.656,4.619-2.685,6.394-3.457c0.957-2.097,1.674-4.455,2.298-7.045
					c-1.85,0.866-3.658,1.209-5.305,0.978c-1.218-0.171-2.318-0.648-3.262-1.409c-2.431,10.368-5.892,20.936-15.251,28.327
					c-4.881,3.807-10.534,4.143-13.464,0.681c-2.068-2.441-1.941-7.267,1.617-10.151c2.516-2.011,5.865-1.824,7.484,0.31
					c1.636,2.158,1.468,5.557-0.114,7.822c0.782-0.23,1.516-0.575,2.053-0.997c5.561-4.433,6.639-18.799,9.093-33.019
					c0.909-5.493,3.252-11.962,6.563-17.779c-2.758,1.47-5.514,2.244-8.194,3.034c-2.71,0.8-5.274,1.596-7.58,3.104
					c-6.844,4.491-11.568,15.421-7.534,20.782c1.146,1.558,3.254,1.673,5.148,0.313c3.472-2.632,8.746-15.335,7.261-17.834
					c-0.099-0.157-0.27-0.256-0.478-0.277c-0.115-0.011-0.344-0.007-0.591,0.154c-2.266,1.483-4.065,5.139-4.469,6.666
					c-0.114,0.419-0.4,0.791-0.769,1.048c-0.311,0.217-0.678,0.352-1.054,0.365c-0.172,0.005-0.345,0.011-0.517,0.018
					c-0.429,0.013-0.809-0.137-1.049-0.421c-0.242-0.284-0.319-0.674-0.217-1.081c0.047-0.25,1.671-6.46,6.177-9.418
					c2.489-1.618,5.812-1.23,7.006,0.721c3.833,6.427-2.987,18.104-9.242,22.77c-0.005,0.003-0.081,0.058-0.085,0.062
					c-3.707,2.661-8.193,2.482-10.498-0.554c-5.875-7.53,1.066-22.157,11.407-28.773c3.12-1.994,5.964-2.896,8.704-3.733
					c2.548-0.774,4.948-1.471,7.349-2.836l0,0c1.503-0.868,2.914-2.296,4.264-4.271c0.204-0.297,0.507-0.559,0.847-0.746
					c0.477-0.263,1.024-0.377,1.457-0.233c0,0,0.807,0.271,0.841,0.286c1.841-1.779,3.745-3.215,5.625-4.181
					c1.944-0.975,2.925-0.215,3.212,0.374c0.131,0.262,0.443,1.18-0.8,2.147c-0.143,0.203-0.243,0.275-0.419,0.365
					c-0.056,0.029-0.192,0.096-0.192,0.096c-6.032,3.101-8.556,12.401-10.703,23.025c-0.052,0.254-0.103,0.508-0.154,0.764
					c1.795-1.797,3.933-3.46,6.088-4.683c1.351-0.754,2.71-1.347,4.132-1.814c4.955-17.606,14.162-29.22,25.095-33.633
					c4.487-1.779,8.026-1.067,8.971,1.543c1.633,4.646-6.845,11.788-13.231,14.707c-0.002,0.001-0.004,0.002-0.006,0.003
					c-0.4,0.177-0.841,0.217-1.228,0.11c-0.387-0.107-0.688-0.353-0.833-0.684c-0.094-0.215-0.188-0.43-0.282-0.645
					c-0.294-0.677,0.136-1.523,0.966-1.894c6.117-2.752,11.288-8.366,10.654-10.106c-0.275-0.73-2.034-0.557-3.569,0.053
					c-7.355,2.978-10.665,13.172-13.178,22.915c-0.677,2.584-1.335,5.244-2.029,7.733c2.203,0.971,3.854,2.551,4.842,4.588
					c3.302,7.083-3.714,17.12-11.92,22.04c-2.65,1.538-5.13,2.53-7.09,3.25c-2.124,2.497-4.518,4.653-7.163,6.442
					C99.177,120.572,98.992,120.697,98.987,120.7z M112.274,106.728c6.611-3.907,12.149-10.853,9.564-16.148
					c-0.542-1.087-1.335-1.952-2.369-2.583c-2.369,7.525-5.102,13.979-8.333,19.362C111.52,107.154,112.274,106.729,112.274,106.728
					z M106.849,88.856c-5.782,3.261-9.915,9.157-8.845,10.86c0.691,1.132,1.563,1.77,2.588,1.908
					c1.052,0.141,2.314-0.229,3.761-1.085c0.417-0.247,0.883-0.305,1.281-0.194c0.409-2,0.807-4.109,1.248-6.315
					c0.377-1.89,0.783-3.832,1.253-5.807C107.679,88.421,107.257,88.627,106.849,88.856C106.85,88.856,106.85,88.856,106.849,88.856
					z"/>
				<path fill="#BA7C2B" d="M141.92,95.584c-1.389,0.606-2.899,0.65-4.276,0.123c-1.294-0.497-2.327-1.45-2.896-2.696
					c-0.547-1.197-0.732-2.696-0.627-4.329c-0.077,0.034-0.153,0.068-0.229,0.102c-0.569,0.26-1.219,0.19-1.645-0.177
					c-0.426-0.369-0.539-0.963-0.283-1.499c0.058-0.12,0.116-0.24,0.174-0.36c2.54-5.461,8.595-16.953,18.743-20.678
					c2.771-1,5.482-0.049,6.177,2.012c1.776,5.488-10.202,13.113-13.01,15.099c-1.317,3.957-2.065,7.09-2.329,8.63
					c2.872-1.833,7.081-7.799,10.014-12.937c0.181-0.321,0.488-0.578,0.852-0.716c0.005-0.003,1.049-0.389,1.049-0.389
					c0.592-0.217,1.236-0.093,1.627,0.308c0.393,0.404,0.456,1.004,0.161,1.515c-4.993,8.729-9.245,14.097-13.428,15.958
					C141.988,95.554,141.924,95.583,141.92,95.584z M149.479,71.199c-0.57,0.813-1.312,2.055-2.184,3.854
					C148.266,73.7,149.084,72.299,149.479,71.199z"/>
				<path fill="#BA7C2B" d="M219.128,75.715c-6.373,0.825-12.804-0.237-19.19-1.11c-4.275,2.472-8.803,4.288-13.928,5.622
					c-0.144,0.037-0.287,0.073-0.431,0.11c-2.99,0.76-5.017,1.091-6.592,1.018c-2.793-0.12-3.802-1.561-4.152-2.767
					c-0.944-3.185,4.385-6.363,8.31-7.372c6.058-1.538,11.417-2.417,16.402-2.803c2.875-2.999,5.778-6.984,9.956-13.197
					c-2.852,0.345-7.162,0.657-11.03-0.11c-4.633-0.926-7.535-3.236-8.296-6.848c-2.072-9.205,12.841-16.657,24.216-18.046
					c6.26-0.79,12.163-0.08,17.644,2.022c4.289-2.697,10.416-5.628,15.935-5.785c5.033-0.11,7.518,1.317,7.503,4.068
					c-0.158,4.598-16.98,14.646-30.795,20.482c-1.64,1.997-3.259,3.981-4.901,5.924c2.718-2.988,7.768-5.135,12.751-5.542
					c5.69-0.433,10.314,3.095,10.469,7.625c0.162,8.156-14.304,15.255-23.678,16.684C219.316,75.69,219.133,75.714,219.128,75.715z
					 M178.455,77.755c0.034-0.01,0.106,0.113,0.692,0.167c1.083,0.098,2.96-0.215,5.598-0.884c0.104-0.027,0.208-0.054,0.312-0.081
					c3.003-0.783,5.502-1.758,7.776-3.083c-3.267-0.182-6.13-0.051-8.732,0.608c-0.149-0.426-0.298-0.852-0.448-1.278
					c0.114,0.435,0.229,0.871,0.343,1.306c-3.257,0.854-5.394,2.701-5.548,3.247C178.449,77.756,178.452,77.756,178.455,77.755z
					 M210.742,68.083c5.697,0.078,10.565,0.265,16.812-0.351c3.063-0.373,11.772-4.874,11.632-8.542
					c-0.134-2.657-2.935-4.679-6.246-4.432c0,0-0.001,0-0.002,0c-6.342,0.515-11.831,4.184-11.449,7.281
					c0.17,1.471,2.467,1.607,3.796,1.474c0.819-0.092,1.819-0.66,2.05-0.872c0.251-0.229,0.578-0.374,0.926-0.408
					c0.063-0.006,0.124-0.008,0.186-0.007c0.417,0.003,0.809,0.163,1.079,0.438c0.171,0.173,0.342,0.346,0.513,0.52
					c0.518,0.529,0.483,1.337-0.075,1.847c-0.178,0.163-1.789,1.584-4.277,1.86c-3.544,0.359-7.505-0.796-7.979-4.391
					c-0.225-1.772,0.377-3.473,1.571-4.994c-3.192,3.748-6.489,7.32-10.258,10.561C209.602,68.071,210.175,68.077,210.742,68.083z
					 M214.85,35c-10.886,1.403-21.935,6.503-20.7,12.441c0.467,2.364,2.36,3.77,5.742,4.385c3.762,0.678,8.141,0.18,10.433-0.156
					c0.003,0,0.007,0,0.01-0.001c0.655-0.102,1.245-0.222,1.818-0.347c4.104-5.915,9.648-11.679,15.503-16.085
					c-3.781-0.736-7.944-0.848-12.358-0.294C215.149,34.962,215,34.981,214.85,35z M235.37,37.881
					c-1.251,1.414-2.514,2.955-3.822,4.589c-0.304,0.38-0.608,0.764-0.919,1.152c2.484-1.467,4.817-2.989,6.927-4.467
					C236.776,38.66,236.062,38.246,235.37,37.881z M237.994,35.116c0.877,0.523,1.8,1.131,2.627,1.805
					c4.417-3.348,7.319-6.164,7.503-7.075C244.824,29.946,241.692,31.531,237.994,35.116z"/>
				<path fill="#BA7C2B" d="M251.554,71.913c-2.453,0.037-3.645-1.04-4.221-1.958c-0.667-1.064-0.795-2.361-0.826-3.491
					c-0.043-1.421,0.176-2.718,0.6-3.951c-0.067,0.012-0.218,0.021-0.225,0.022c-0.359,0.01-0.718,0.021-1.077,0.033
					c-0.603,0.019-1.156-0.286-1.408-0.776s-0.153-1.07,0.255-1.476c7.804-7.774,17.357-12.517,23.436-12.292
					c2.708,0.111,4.223,1.999,4.125,3.654c-0.164,2.698-3.047,6.853-5.653,10.021c0.131,0.031,0.288,0.048,0.48,0.056
					c0.65,0.02,1.734-0.51,2.712-1.31c0.291-0.24,0.68-0.366,1.078-0.348c0.006,0,1.101,0.056,1.101,0.057
					c0.626,0.034,1.167,0.414,1.357,0.949c0.19,0.535-0.008,1.117-0.494,1.462c-0.191,0.141-0.381,0.282-0.571,0.423
					c-1.248,0.944-2.928,2.235-5.562,2.155c-0.878-0.034-1.71-0.293-2.446-0.739c-2.747,2.835-7.676,7.392-12.6,7.508
					C251.61,71.911,251.557,71.912,251.554,71.913z M253.391,66.691c-0.515,0.602-1.231,1.448-1.514,1.926
					c2.464-0.252,6.221-3.1,9.976-7.213c-0.128-0.439-0.154-0.872-0.143-1.34c0.03-1.265,0.42-2.546,1.134-3.603
					C259.583,59.82,256.432,63.232,253.391,66.691z M268.376,52.001c-1.005-0.034-1.611,0.506-2.754,1.641
					c-0.426,0.426-0.851,0.853-1.273,1.281c0.869-0.603,1.932-0.961,3.152-0.95c0.616-1.178,0.694-1.705,0.7-1.857
					C268.259,52.078,268.317,52.04,268.376,52.001z"/>
				<path fill="#BA7C2B" d="M276.74,72.809c-1.163-0.087-2.329-0.743-3.21-1.809c-0.838-1.012-1.287-2.232-1.222-3.355
					c0.179-2.894,1.446-5.185,5.299-8.527c-1.563,1.049-3.179,2.203-4.774,3.418c-0.291,0.22-0.661,0.333-1.042,0.315
					c-0.005-0.001-1.09-0.058-1.09-0.058c-0.614-0.031-1.149-0.396-1.351-0.922c-0.202-0.525-0.024-1.106,0.447-1.463
					c0.108-0.082,0.217-0.164,0.325-0.245c3.089-2.326,6.365-4.679,9.485-6.628c4.708-2.987,7.908-4.099,10.462-3.834
					c1.703,0.19,3.5,1.418,3.139,4.207c-0.344,2.893-2.54,5.124-9.162,10.362c-2.98,2.307-4.379,3.948-5.054,4.917
					c2.476-0.683,7.128-3.103,13.866-8.016c0.912-6.088,4.25-10.308,7.867-9.801c1.727,0.256,2.751,1.683,2.476,3.379
					c-0.43,2.62-3.792,5.76-6.669,8.14c0.111,0.588,0.309,1.256,0.648,1.304c0.321,0.043,1.203-0.19,2.18-0.839
					c0.316-0.207,0.716-0.295,1.111-0.237c0.005,0,1.091,0.169,1.091,0.17c0.604,0.095,1.094,0.506,1.246,1.041
					c0.147,0.532-0.073,1.086-0.556,1.397c-1.625,1.056-3.53,2.108-5.525,1.84c-1.847-0.263-2.81-1.288-3.342-2.343
					c-7.443,5.192-12.816,7.847-16.587,7.593C276.792,72.812,276.743,72.809,276.74,72.809z"/>
				<path fill="#BA7C2B" d="M302.963,75.85c-1.463-0.247-2.723-1.033-3.561-2.223c-0.788-1.122-1.118-2.483-0.914-3.837
					c0.198-1.299,0.852-2.657,1.814-3.968c-0.08-0.012-0.159-0.024-0.239-0.037c-0.605-0.094-1.098-0.506-1.249-1.046
					c-0.15-0.541,0.078-1.101,0.578-1.41c0.111-0.069,0.223-0.138,0.334-0.207c5.007-3.194,16.152-9.536,26.562-7.148
					c2.831,0.665,4.561,2.936,4.016,5.041c-1.523,5.566-15.544,5.456-18.909,5.594c-3.213,2.598-5.515,4.817-6.563,5.967
					c3.33,0.005,10.13-2.751,15.218-5.405c0.325-0.171,0.715-0.221,1.092-0.138c0.005,0,1.079,0.246,1.079,0.247
					c0.604,0.141,1.067,0.594,1.174,1.144c0.105,0.55-0.17,1.087-0.688,1.356c-8.856,4.609-15.243,6.799-19.668,6.084
					C303.032,75.862,302.967,75.851,302.963,75.85z M322.349,59.512c-0.91,0.371-2.191,1.009-3.879,2.04
					C319.999,60.949,321.427,60.219,322.349,59.512z"/>
				<path fill="#BA7C2B" d="M319.913,79.822c-1.651-0.383-3.018-1.406-3.872-2.896c-0.762-1.33-1.028-2.93-0.718-4.395
					c0.519-2.469,2.729-5.244,5.886-5.65c6.712-3.695,14.25-6.74,19.37-8.627c0.901-0.336,1.805-0.668,2.713-0.997
					c0.444-0.209,1.161-0.152,1.605-0.022c1.102,0.326,1.783,1.383,1.5,2.299c-0.214,0.661-0.981,1.007-1.069,1.046
					c-0.162,0.071-0.343,0.114-0.53,0.128c-0.483,0.035-1.49,0.299-2.639,0.821c-0.401,0.18-1.88,1.376-4.12,9.075
					c-0.231,0.793-0.531,1.543-0.895,2.248c0.136-0.059,2.007-0.795,2.008-0.794c0.323-0.124,0.689-0.138,1.037-0.037
					c0.004,0,1.063,0.319,1.063,0.32c0.603,0.182,1.041,0.676,1.101,1.241c0.059,0.563-0.269,1.082-0.82,1.304
					c-0.255,0.103-0.51,0.207-0.765,0.311c-3.597,1.457-8.42,3.544-13.176,4.483c-2.597,0.61-5.296,0.677-7.587,0.164
					C320.002,79.842,319.917,79.823,319.913,79.822z M319.014,75.045c0.208,0.696,0.693,1.238,1.527,1.432
					c3.619,0.815,5.866-2.423,6.906-4.443c0.379-0.734,0.736-1.455,1.085-2.156c0.587-1.181,1.16-2.327,1.77-3.377
					c-1.396,0.639-2.783,1.288-4.159,1.946c0.872,0.907,1.249,2.075,0.96,3.201c-0.729,2.824-3.79,4.607-6.7,3.961
					C319.817,75.478,319.365,75.276,319.014,75.045z"/>
				<path fill="#BA7C2B" d="M364.931,93.687c-2.272-0.951-4.246-2.663-5.444-4.736c-1.268-2.191-1.564-4.529-0.782-6.596
					c1.226-3.259,4.963-4.801,8.48-3.412c2.762,1.113,4.107,3.992,3.079,6.382c-1.005,2.331-3.88,3.419-6.73,2.76
					c0.506,0.964,1.408,1.92,2.716,2.465l0,0c3.311,1.356,6.903,0.949,11.935-1.185c2.759-1.146,5.634-2.646,8.727-4.186
					c3.528-1.757,7.236-3.516,11.187-4.759c6.089-1.883,11.554-2.188,16.638-0.974c-0.553-0.4-1.094-0.794-1.632-1.186
					c-3.036-2.19-5.932-4.242-10.823-6.783c-0.001,0-0.002-0.001-0.003-0.002c-1.931-0.981-4.085-1.86-6.318-2.561
					c3.147,1.824,4.565,4.924,3.346,7.252c-4.146,7.727-16.75,6.671-22.458,4.298c-0.002-0.001-0.079-0.034-0.083-0.036
					c-4.037-1.789-7.3-5.892-5.688-9.893c4-10.444,24.621-9.39,37.159-2.63c7.229,3.842,14.343,7.976,21.325,12.399
					c6.346,3.987,9.083,5.05,11.938,4.195c0.501-0.151,1.094-0.015,1.571,0.312c0.26,0.178,0.485,0.413,0.643,0.688
					c0.083,0.144,0.165,0.287,0.247,0.431c0.414,0.722,0.229,1.489-0.426,1.787c-3.578,1.614-11.501,2.977-19.349-1.88
					c-1.346-0.844-2.555-1.623-3.659-2.354c-0.048,0.08-0.096,0.159-0.144,0.239c-0.284,0.46-0.881,0.669-1.518,0.529
					c-2.576-0.557-6.121,0.375-9.2,1.409c-2.13,0.722-4.378,1.636-6.697,2.617c-4.649,1.963-9.811,4.301-14.916,5.8
					c-6.346,1.843-16.493,2.276-23.003-0.346C365.045,93.733,364.936,93.688,364.931,93.687z M389.262,67.407
					c-6.67-0.892-12.668,0.329-14.482,4.655c-0.465,1.101-0.04,2.143,0.396,2.825c0.637,0.997,1.719,1.88,2.973,2.43
					c3.992,1.658,15.228,1.296,17.487-3.014c0.442-0.881-0.564-2.066-1.755-2.647c-3.017-1.447-6.795-0.292-7.356-0.019
					c-0.355,0.17-0.795,0.191-1.218,0.064c-0.077-0.023-0.154-0.052-0.227-0.084c-0.327-0.146-0.604-0.377-0.79-0.66
					c-0.145-0.219-0.289-0.438-0.435-0.657c-0.24-0.364-0.307-0.776-0.183-1.143c0.121-0.364,0.423-0.643,0.826-0.766
					C385.217,68.109,387.004,67.509,389.262,67.407z"/>
				<path fill="#BA7C2B" d="M407.813,116.19c-2.455-1.566-3.362-4.129-2.127-6.151c2.018-3.332,9.379-4.784,15.466-5.649
					c0.733-0.106,1.523-0.219,2.283-0.333c-0.421-0.015-0.879-0.014-1.382,0c-3.781,0.069-8.897,0.908-14.681,2.573
					c-3.193,0.927-6.347,1.908-9.462,2.941c-0.401,0.133-0.859,0.082-1.247-0.137c0.004-0.024-5.807-3.273-5.816-3.251
					c-0.496-0.269-0.809-0.769-0.812-1.293c-0.001-0.522,0.307-0.98,0.805-1.177c2.968-1.171,5.975-2.297,9.02-3.374
					c-0.036-0.019-1.087-0.609-1.088-0.608c-0.541-0.305-0.869-0.865-0.831-1.423c0.038-0.558,0.437-1.001,1.013-1.12
					c0.123-0.025,0.246-0.05,0.369-0.076c10.986-2.166,12.118-2.199,17.791-2.415c5.807-2.11,26.732-6.162,27.769-6.097
					c0.458-0.072,0.974,0.068,1.4,0.37c0.083,0.058,0.161,0.122,0.237,0.194c0.04,0.036,0.73,0.674,1.727,1.401
					c0.001,0,0.001,0.001,0.003,0.002c1.54,1.107,2.782,1.554,4.005,1.449c0.439-0.038,0.93,0.114,1.337,0.417
					c0.004,0.002,0.877,0.664,0.876,0.665c0.534,0.405,0.842,1.008,0.795,1.553c-0.047,0.545-0.439,0.936-1.012,1.013
					c-9.541,1.275-18.84,3.002-27.871,5.145c1.679,0.347,3.25,0.924,4.565,1.825c2.355,1.639,3.005,4.08,1.663,5.927
					c-2.013,2.759-8.282,3.565-14.189,4.628c-1.447,0.256-3.146,0.571-4.568,0.917c2.663-0.112,6.28-0.528,8.648-0.758
					c0.667-0.065,1.336-0.128,2.006-0.188c0.375-0.034,0.771,0.077,1.105,0.308c0.003,0.001,0.937,0.662,0.936,0.663
					c0.53,0.378,0.802,0.996,0.688,1.554c-0.116,0.557-0.595,0.941-1.199,0.968c-1.486,0.063-3.036,0.249-4.583,0.446
					c-4.931,0.626-9.909,1.434-13.585-0.874C407.862,116.222,407.816,116.193,407.813,116.19z"/>
				<path fill="#BA7C2B" d="M422.31,126.086c-1.247-0.909-2.069-2.207-2.319-3.669c-0.238-1.376,0.057-2.753,0.843-3.875
					c0.756-1.077,1.959-1.991,3.43-2.72c-0.069-0.048-0.138-0.097-0.206-0.146c-0.519-0.366-0.794-0.969-0.694-1.524
					c0.101-0.554,0.555-0.952,1.155-0.998c0.134-0.01,0.268-0.021,0.402-0.03c6.041-0.53,19.17-1,27.818,6.157
					c2.346,1.959,2.962,4.846,1.528,6.481c-3.873,4.267-16.884-2.565-20.061-4.014c-4.132,0.817-7.248,1.731-8.722,2.272
					c3.081,1.589,10.481,2.309,16.52,2.355c0.378,0,0.763,0.144,1.077,0.398c0.003,0.002,0.896,0.739,0.896,0.74
					c0.5,0.415,0.733,1.047,0.589,1.593c-0.143,0.546-0.636,0.897-1.237,0.893c-10.275-0.104-17.168-1.146-20.955-3.869
					C422.369,126.128,422.314,126.089,422.31,126.086z M447.517,120.58c-1.013-0.104-2.488-0.143-4.515-0.017
					C444.694,120.747,446.346,120.773,447.517,120.58z"/>
			</g>
			<g>
				<path fill="#FFF8CA" d="M95.267,97.126c1.616-3.408,5.744-7.349,9.547-9.473c1.457-0.82,3.021-1.442,4.58-1.886
					c3.587-13.704,11.454-28.427,24.409-33.6c2.527-1.016,5.847-1.377,6.708,0.927c1.282,3.545-6.014,10.114-12.165,12.938
					c-0.093-0.215-0.186-0.431-0.278-0.646c6.011-2.754,12.707-9.031,11.632-11.985c-0.617-1.645-3.281-1.527-5.637-0.581
					c-10.666,4.298-13.061,20.861-16.401,32.883c2.297,0.718,4.174,2.141,5.263,4.344c3.142,6.566-3.945,15.949-11.283,20.324
					c-2.408,1.415-4.819,2.386-7.068,3.211c-2.098,2.547-4.536,4.791-7.261,6.622c-2.009,1.35-4.432,1.84-5.036,0.977
					c-0.604-0.867,1.659-3.459,3.708-4.818c2.439-1.626,4.583-2.669,6.634-3.545c3.24-6.672,3.914-16.046,6.563-26.215
					c-1.375,0.426-2.718,0.928-4.026,1.665c-5.938,3.304-11.291,10.134-9.507,12.924c1.829,2.921,4.808,3.262,8.398,1.11
					c0.12,0.201,0.24,0.402,0.36,0.603c-3.994,2.395-7.469,1.879-9.458-1.271c-0.188-0.297-0.373-0.595-0.418-0.98
					c-2.483,11.893-5.631,23.477-15.465,31.188c-3.99,3.139-8.74,3.582-11.229,0.625c-1.718-2.039-1.475-5.922,1.255-8.117
					c1.752-1.414,4.181-1.259,5.34,0.24c1.587,2.055,1.021,5.531-0.79,7.002c-0.942,0.765-1.829,0.31-3.002,0.55
					c0.748,1.658,5.352,1.311,7.847-0.649c6.157-4.856,7.094-18.958,9.704-34.288c1.666-11.073,10.542-27.192,19.412-31.594
					c0.395-0.199,0.818-0.337,0.977-0.023c0.124,0.252-0.3,0.389-0.471,0.633C99.967,70.304,97.866,83.47,95.267,97.126z
					 M84.862,87.663c3.523,5.777-3.16,16.827-8.607,20.875c-2.87,2.079-6.432,2.146-8.38-0.43
					c-5.181-6.667,0.655-20.266,10.877-26.787c5.367-3.443,10.541-3.458,15.795-6.487c2.897-1.665,4.767-4.685,5.058-5.083
					c0.245,0.08,0.489,0.16,0.734,0.24c-0.593,0.792-3.907,6.064-7.214,8.018c-5.351,3.142-11.328,3.226-16.492,6.623
					c-7.261,4.718-12.877,16.692-8.065,22.953c1.685,2.246,4.815,2.167,7.281,0.381c3.845-2.904,9.895-16.439,7.836-19.883
					c-0.601-0.948-2.048-1.104-3.229-0.334c-2.884,1.878-4.822,6.095-5.254,7.769c-0.173,0.005-0.346,0.011-0.52,0.017
					c-0.014,0.008,1.458-5.813,5.392-8.375C81.7,86.097,84.041,86.353,84.862,87.663z M96.371,116.949
					c-1.648,1.093-3.728,3.377-3.405,3.842c0.28,0.401,2.459-0.167,3.956-1.169c2.017-1.354,3.501-3.078,4.763-5.049
					C99.633,115.298,97.753,116.028,96.371,116.949z M106.353,111.245c1.75-0.738,3.601-1.6,5.624-2.775
					c7.283-4.27,13.169-12.006,10.228-18.064c-0.97-1.949-2.611-3.248-4.696-3.916C114.906,95.319,111.406,104.21,106.353,111.245z"
					/>
				<path fill="#FFF8CA" d="M150.376,67.7c1.696-0.62,3.609-0.101,4.093,1.291c1.268,3.765-7.107,10.136-12.749,13.845
					c-1.764,5.3-2.812,10.155-2.556,10.731c0.17,0.386,0.831,0.554,1.537,0.244c3.48-1.554,8.423-8.959,11.302-13.986
					c0.344-0.129,0.688-0.257,1.033-0.385c-2.999,5.211-7.657,13.126-12.661,15.357c-2.096,0.928-4.389-0.025-5.268-1.94
					c-1.44-3.125,0.107-9.094,2.79-13.36c-1.671,2.465-3.159,5.269-4.583,8.079c-0.337,0.154-0.675,0.308-1.012,0.463
					C134.565,83.111,140.562,71.252,150.376,67.7z M150.061,69.459c-0.122-0.329-0.396-0.602-1.008-0.376
					c-1.924,0.709-4.752,6.449-6.785,12.158C145.593,79.604,150.993,72.161,150.061,69.459z"/>
				<path fill="#FFF8CA" d="M246.875,27.833c4.315-0.105,5.7,0.958,5.709,2.708c-0.09,3.354-15.411,13.404-30.081,19.526
					c-5.483,6.742-11.085,13.922-18.486,19.595c8.08-0.213,14.213,0.4,22.58-0.471c3.268-0.395,13.16-5.218,12.982-10.014
					c-0.167-3.505-3.811-5.992-7.881-5.669c-6.56,0.496-13.389,4.601-12.825,8.854c0.273,2.157,2.847,2.895,5.448,2.619
					c1.223-0.132,2.544-0.896,2.97-1.291c0.172,0.172,0.344,0.344,0.516,0.516c-0.001,0-1.354,1.252-3.412,1.474
					c-2.746,0.289-5.945-0.508-6.296-3.22c-0.662-4.885,6.886-9.156,13.547-9.652c4.404-0.349,8.542,2.401,8.715,6.329
					c0.199,6.966-13.037,14.014-22.472,15.386c-6.292,0.839-12.834-0.263-19.307-1.11c-4.163,2.488-8.814,4.459-14.387,5.892
					c-5.052,1.307-8.279,1.614-8.985-0.818c-0.619-2.095,3.773-4.814,7.311-5.71c6.607-1.698,11.983-2.495,16.624-2.841
					c3.732-3.805,7.354-9.092,12.235-16.409c-0.625,0.163-1.263,0.256-1.9,0.355c-7.543,1.1-17.408,1.138-18.892-5.704
					c-1.787-7.999,11.946-15.176,23.065-16.504c6.498-0.839,12.413,0.226,17.324,2.243
					C236.583,30.249,242.391,27.948,246.875,27.833z M182.695,73.458c-3.827,0.98-7.127,3.537-6.751,4.819
					c0.41,1.431,2.061,1.919,8.076,0.349c4.561-1.172,8.206-2.803,11.688-5.55C191.163,72.6,186.668,72.433,182.695,73.458z
					 M229.76,34.722c-4.605-1.322-9.903-1.722-15.845-0.957c-11.44,1.397-24.079,7.082-22.515,14.245
					c1.373,6.429,11.126,6.171,17.973,5.179c0.878-0.134,1.746-0.334,2.617-0.53C216.564,45.899,223.044,39.335,229.76,34.722z
					 M246.893,28.535c-4.736,0.128-8.613,2.849-12.5,6.973c1.403,0.751,2.798,1.582,3.932,2.505
					c-0.16,0.149-0.319,0.299-0.479,0.449c-1.298-0.843-2.607-1.607-4.088-2.279c-3.073,3.378-6.167,7.572-9.802,12.107
					c12.827-6.363,24.577-16.066,24.595-18.391C248.537,28.918,247.924,28.508,246.893,28.535z"/>
				<path fill="#FFF8CA" d="M250.458,70.588c-3.145,0.064-3.51-2.088-3.569-4.127c-0.102-3.579,1.657-6.307,4.442-9.791
					c-0.794,0.494-5.014,3.965-5.599,4.559c-0.361,0.012-0.722,0.024-1.083,0.037c7.548-7.545,16.822-12.153,22.307-11.926
					c1.692,0.064,2.6,1.231,2.553,2.211c-0.107,2.176-2.706,6.336-6.058,10.249c0.592,0.861,1.275,1.23,2.427,1.27
					c1.459,0.05,3.051-1.074,3.78-1.67c0.361,0.017,0.722,0.035,1.083,0.053c-1.372,0.987-2.745,2.395-5.195,2.308
					c-1.073-0.035-1.979-0.622-2.578-1.339C259.134,66.742,254.416,70.511,250.458,70.588z M250.675,70.022
					c3.29-0.063,7.938-4.059,11.774-8.386c-0.296-0.5-0.363-0.921-0.35-1.554c0.052-2.385,1.691-4.884,4.382-4.789
					c0.24,0.009,0.552,0.09,0.79,0.098c0.763-1.306,1.294-2.476,1.329-3.246c0.032-0.703-0.492-1.499-1.295-1.529
					c-1.845-0.069-2.845,0.957-4.075,2.188c-4.207,4.272-8.237,8.632-12.088,13.068c-0.899,1.068-1.935,2.283-1.919,2.917
					C249.24,69.629,249.774,70.038,250.675,70.022z"/>
				<path fill="#FFF8CA" d="M295.887,65.383c0.994,0.136,2.326-0.452,3.286-1.09c0.357,0.053,0.715,0.107,1.073,0.162
					c-1.577,1.037-3.083,1.811-4.456,1.621c-1.599-0.22-2.314-1.231-2.669-3.329c-8.118,5.901-13.83,8.9-17.354,8.646
					c-1.565-0.111-3.175-2.035-3.079-3.718c0.205-3.068,1.727-5.419,8.033-10.192c4.654-3.478,6.932-4.768,6.984-5.333
					c0.023-0.209-0.042-0.359-0.442-0.401c-1.707-0.203-10.587,5.047-16.522,9.702c-0.361-0.018-0.722-0.036-1.083-0.053
					c3.139-2.383,6.53-4.841,9.722-6.841c3.527-2.259,6.944-3.901,9.431-3.631c1.283,0.14,1.896,1.132,1.713,2.665
					c-0.259,2.387-2.112,4.383-8.586,9.565c-5.079,3.997-6.017,6.286-6.074,6.905c-0.032,0.42,0.333,0.589,0.559,0.604
					c2.346,0.177,8.083-2.502,16.75-8.905c0.696-5.502,3.587-9.596,6.236-9.213c0.799,0.115,1.263,0.824,1.112,1.795
					c-0.271,1.808-2.647,4.563-6.699,7.857C294.085,64.358,294.743,65.223,295.887,65.383z"/>
				<path fill="#FFF8CA" d="M324.988,57.064c1.736,0.401,3.037,1.877,2.682,3.306c-1.001,3.845-11.372,4.64-17.995,4.683
					c-4.307,3.486-7.778,6.986-7.878,7.607c-0.069,0.416,0.381,0.916,1.124,1.04c3.68,0.589,11.737-2.934,16.84-5.585
					c0.354,0.079,0.708,0.159,1.061,0.239c-5.302,2.74-13.407,6.847-18.697,5.996c-2.215-0.363-3.572-2.41-3.259-4.495
					c0.504-3.402,4.976-7.563,9.479-9.682c-2.7,1.16-5.426,2.702-8.103,4.282c-0.357-0.055-0.715-0.108-1.073-0.162
					C303.658,61.395,314.956,54.713,324.988,57.064z M323.773,58.368c0.081-0.342,0.002-0.719-0.625-0.862
					c-1.976-0.454-7.413,2.826-12.163,6.508C314.595,64.446,323.078,61.139,323.773,58.368z"/>
				<path fill="#FFF8CA" d="M342.877,58.201c0.1-0.046,0.354-0.041,0.513,0.004c0.236,0.069,0.411,0.34,0.351,0.541
					c-0.021,0.068-0.239,0.225-0.337,0.269c-0.786,0.06-2.005,0.433-3.176,0.974c-1.957,0.903-3.654,6.047-4.74,9.898
					c-0.784,2.771-2.384,4.727-4.432,6.137c2.548-0.912,5.107-2.017,7.681-3.017c0.349,0.103,0.697,0.206,1.045,0.31
					c-3.535,1.436-8.669,3.772-13.599,4.771c-2.492,0.597-4.972,0.651-7.017,0.184c-2.625-0.599-3.963-3.315-3.471-5.653
					c0.481-2.266,2.537-4.489,4.977-4.661C328.772,63.423,338.441,59.803,342.877,58.201z M322.084,68.065
					c0.076,0.018,0.151,0.035,0.227,0.053c1.444,0.334,2.573,1.619,2.254,2.913c-0.508,2.045-2.75,3.522-4.969,3.02
					c-1.189-0.268-1.365-0.881-1.481-1.41c-0.071-0.376-0.072-0.736-0.37-0.802c-0.75-0.162-1.153,0.255-1.301,0.94
					c-0.458,2.13,0.464,4.261,2.732,4.778c3.947,0.904,6.792-1.765,8.548-5.163c1.586-3.073,2.823-5.943,4.497-7.902
					c1.197-1.428,2.617-2.355,2.617-2.354C330.496,64.021,326.243,65.999,322.084,68.065z"/>
				<path fill="#FFF8CA" d="M417.884,82.228c-2.761-0.581-6.192,0.193-10.02,1.505c-6.488,2.238-13.952,6.277-21.41,8.521
					c-6.074,1.806-16.004,2.222-22.013-0.222c-4.046-1.677-6.704-5.979-5.372-9.529c0.943-2.494,3.812-3.819,6.607-2.701
					c1.912,0.762,2.852,2.825,2.144,4.509c-0.87,2.073-3.627,2.674-5.916,1.775c-0.573-0.227-1.095-0.583-1.281-0.954
					c-0.445,2.01,1.073,5.004,4.089,6.251c4.146,1.718,8.447,0.784,13.167-1.217c5.976-2.494,12.559-6.642,19.854-8.95
					c6.473-2.015,13.37-2.606,20.405,0.592C418.054,81.947,417.969,82.087,417.884,82.228z M396.764,74.881
					c-3.694,7.046-15.595,5.92-20.515,3.858c-3.459-1.516-6.084-4.852-4.792-8.039c3.503-9.106,22.709-8.847,35.306-2.04
					c6.81,3.596,13.517,7.451,20.108,11.563c6.564,4.111,10.386,6.167,14.371,4.977c0.083,0.143,0.167,0.286,0.25,0.428
					c-3.268,1.51-10.615,2.795-17.784-1.667c-9.669-5.889-11.883-8.993-21.907-14.241c-10.094-5.307-26.265-7.13-29.583,1.287
					c-1.088,2.666,1.144,5.7,4.315,7.086c4.549,1.905,16.752,1.585,19.477-3.594c0.793-1.565-0.57-3.583-2.636-4.581
					c-3.688-1.784-8.03-0.429-8.843-0.025c-0.146-0.219-0.292-0.439-0.438-0.658c0.09-0.035,5.043-2.143,9.588,0.052
					C396.217,70.51,397.754,72.942,396.764,74.881z"/>
				<path fill="#FFF8CA" d="M429.235,103.102c1.517,1.047,1.974,2.575,1.08,3.834c-3.065,3.989-20.128,4.143-21.66,6.868
					c-0.114,0.178-0.057,0.381,0.208,0.548c2.013,1.271,9.243,0.053,15.026-0.432c0.308,0.215,0.615,0.431,0.922,0.647
					c-6.057,0.289-12.993,2.568-17.214-0.104c-1.632-1.032-2.497-2.715-1.581-4.213c2.729-4.791,20.074-5.089,21.313-6.586
					c0.157-0.231,0.168-0.393-0.037-0.534c-1.24-0.847-3.59-1.246-6.515-1.142c-4.207,0.099-9.571,1.121-14.963,2.717
					c-3.189,0.951-6.34,1.955-9.451,3.012c-1.938-1.104-3.885-2.182-5.843-3.237c7.65-3.031,15.557-5.753,23.704-8.14
					c-3.465,0.207-5.31,0.334-14.819,2.208c-0.323-0.181-0.646-0.362-0.969-0.542c11.388-2.278,12.337-2.278,18.161-2.511
					c5.547-2.1,27.724-6.389,27.855-6.163c0,0,0.79,0.736,1.951,1.574c2.025,1.467,3.767,1.979,5.342,1.84
					c0.288,0.216,0.576,0.432,0.863,0.648c-13.324,1.884-26.17,4.645-38.467,8.183C418.538,101.089,425.433,100.468,429.235,103.102
					z"/>
				<path fill="#FFF8CA" d="M451.048,119.64c1.44,1.195,2.004,3.153,1.044,4.271c-2.624,2.977-12.64-1.292-18.802-4.373
					c-5.533,1.099-10.288,2.621-10.657,3.132c-0.248,0.341-0.049,1.001,0.583,1.46c3.15,2.256,12.184,2.899,18.103,2.956
					c0.294,0.241,0.588,0.482,0.881,0.724c-6.143-0.077-15.482-0.225-20.009-3.469c-1.891-1.366-2.247-3.84-1.037-5.564
					c1.965-2.824,7.939-4.476,13.048-4.26c-3.014-0.229-6.223-0.121-9.396,0.047c-0.307-0.216-0.614-0.432-0.922-0.647
					C429.318,113.407,442.733,112.699,451.048,119.64z M449.343,120.232c0.224-0.269,0.315-0.648-0.205-1.077
					c-1.638-1.355-8.142-1-14.173,0.066C438.124,121.313,447.473,122.392,449.343,120.232z"/>
			</g>
		</g>
	</g>
</g>
</svg>
