<?xml version="1.0" encoding="utf-8"?>
<!-- Generator: Adobe Illustrator 16.0.0, SVG Export Plug-In . SVG Version: 6.00 Build 0)  -->
<!DOCTYPE svg PUBLIC "-//W3C//DTD SVG 1.1//EN" "http://www.w3.org/Graphics/SVG/1.1/DTD/svg11.dtd">
<svg version="1.1" id="Layer_1" xmlns="http://www.w3.org/2000/svg" xmlns:xlink="http://www.w3.org/1999/xlink" x="0px" y="0px"
	 width="99.585px" height="80.91px" viewBox="0 0 99.585 80.91" enable-background="new 0 0 99.585 80.91" xml:space="preserve">
<g id="Tools">
	<g id="Fruit_Icons">
		<g id="Cherries">
			
				<path fill="#73A842" stroke="#000000" stroke-width="1.26" stroke-linecap="round" stroke-linejoin="round" stroke-miterlimit="10" d="
				M81.671,64.707c-0.868,0.283-1.731,0.514-2.567,0.663c-3.632,0.648-7.093-0.162-10.353-1.748c-2-0.974-3.777-2.304-5.401-3.824
				c-0.94-0.879-1.9-1.795-2.749-2.771c-4.182-4.806-6.282-9.876-7.242-16.185c-0.519-3.421-0.867-6.887-1.03-10.339
				c-0.109-2.333-0.004-4.748-0.327-7.075c-0.336-2.417-0.879-4.866-1.69-7.167c-0.876-3.254-2.836-6.279-2.876-9.898
				c-0.013-1.18,0.17-2.694,0.488-3.714C48.396,1.876,49.222,0.318,50.057,0c-0.715,3.069,1.698,7.16,3.103,8.457
				c2.843,2.421,6.356,3.584,10.021,4.366c3.663,0.779,7.477,1.176,10.971,2.052c3.582,0.899,6.78,2.063,9.979,3.923
				c2.462,1.437,5.004,2.73,7.106,4.697c5.157,3.823,8.165,10.002,8.348,16.308c0.057,1.882,0.116,3.925-0.156,5.792
				c-0.496,3.422-1.978,6.509-3.999,9.288c-2.23,3.069-4.419,5.609-7.897,7.326C85.748,63.09,83.7,64.043,81.671,64.707z"/>
			
				<path fill="#4C312F" stroke="#000000" stroke-width="1.26" stroke-linecap="round" stroke-linejoin="round" stroke-miterlimit="10" d="
				M64.013,72.431c-0.826-0.976-2.104-0.451-3.189,0.898c-1.708,2.127-0.446,4.478,1.085,5.776c2.902,2.463,5.722,2.09,7.054,0.787
				c0.753-0.734,2.423-3.067,0.338-4.651c3.521-4.268,7.653-13.781,9.638-18.976c2.342-6.133,1.816-18.021,0.825-21.76
				c-1.663-6.282-3.047-11.2-11.695-12.8c-3.566-0.659-8.146-0.015-11.907,1.047l0.382,3.184c6.338-3.05,15.366-1.954,18.045,4.718
				c2.416,6.011,2.889,16.499,1.463,22.313c-0.002-3.421-2.466-6.515-5.249-8.248c-2.376-1.479-4.582-1.499-7.26-0.198l1.685,3.413
				c3.455-1.343,5.95,2.001,6.774,3.533c0.829,1.54-0.313,6.543-0.563,7.543c-0.661,2.656-1.426,5.464-2.646,7.919
				C67.647,69.235,65.727,70.638,64.013,72.431"/>
			<g>
				
					<circle fill="#8D191B" stroke="#000000" stroke-width="1.26" stroke-linecap="round" stroke-linejoin="round" stroke-miterlimit="10" cx="18.9" cy="46.835" r="18.9"/>
				
					<path fill="#D09298" stroke="#000000" stroke-width="1.26" stroke-linecap="round" stroke-linejoin="round" stroke-miterlimit="8" d="
					M18.169,34.854C10.345,36.19,3.938,46.048,3.938,46.048s2.533-13.636,12.938-14.456C23.287,31.085,20.475,34.46,18.169,34.854z"
					/>
				
					<path fill="#610711" stroke="#000000" stroke-width="1.26" stroke-linecap="round" stroke-linejoin="round" stroke-miterlimit="10" d="
					M19.446,58.346c7.824-1.336,14.231-11.194,14.231-11.194S31.145,60.787,20.74,61.608C14.328,62.114,17.141,58.739,19.446,58.346
					z"/>
			</g>
			<g>
				
					<circle fill="#8D191B" stroke="#000000" stroke-width="1.26" stroke-linecap="round" stroke-linejoin="round" stroke-miterlimit="10" cx="37.8" cy="27.936" r="18.9"/>
				
					<path fill="#D09298" stroke="#000000" stroke-width="1.26" stroke-linecap="round" stroke-linejoin="round" stroke-miterlimit="8" d="
					M37.068,15.954c-7.824,1.336-14.231,11.193-14.231,11.193s2.533-13.635,12.938-14.456
					C42.188,12.186,39.375,15.561,37.068,15.954z"/>
				
					<path fill="#610711" stroke="#000000" stroke-width="1.26" stroke-linecap="round" stroke-linejoin="round" stroke-miterlimit="10" d="
					M38.347,39.445c7.824-1.336,14.231-11.193,14.231-11.193s-2.533,13.635-12.938,14.456C33.228,43.214,36.04,39.839,38.347,39.445
					z"/>
			</g>
			<g>
				
					<circle fill="#8D191B" stroke="#000000" stroke-width="1.26" stroke-linecap="round" stroke-linejoin="round" stroke-miterlimit="10" cx="47.13" cy="53.406" r="18.9"/>
				
					<path fill="#D09298" stroke="#000000" stroke-width="1.26" stroke-linecap="round" stroke-linejoin="round" stroke-miterlimit="8" d="
					M46.399,41.425c-7.824,1.336-14.231,11.193-14.231,11.193s2.533-13.635,12.938-14.456
					C51.518,37.656,48.705,41.031,46.399,41.425z"/>
				
					<path fill="#610711" stroke="#000000" stroke-width="1.26" stroke-linecap="round" stroke-linejoin="round" stroke-miterlimit="10" d="
					M47.677,64.916c7.824-1.336,14.231-11.193,14.231-11.193s-2.533,13.635-12.938,14.456C42.559,68.685,45.371,65.31,47.677,64.916
					z"/>
			</g>
		</g>
	</g>
</g>
</svg>
