<?xml version="1.0" encoding="utf-8"?>
<!-- Generator: Adobe Illustrator 16.0.0, SVG Export Plug-In . SVG Version: 6.00 Build 0)  -->
<!DOCTYPE svg PUBLIC "-//W3C//DTD SVG 1.1//EN" "http://www.w3.org/Graphics/SVG/1.1/DTD/svg11.dtd">
<svg version="1.1" id="Layer_1" xmlns="http://www.w3.org/2000/svg" xmlns:xlink="http://www.w3.org/1999/xlink" x="0px" y="0px"
	 width="67.958px" height="80.959px" viewBox="142.667 230.625 67.958 80.959"
	 enable-background="new 142.667 230.625 67.958 80.959" xml:space="preserve">
<g>
	<path fill="#2F1110" stroke="#000000" stroke-width="1.08" stroke-miterlimit="10" d="M98.465,57.312
		c-1.836,3.591-4.213,6.885-7.129,9.802c-2.809,2.808-6.102,5.238-9.828,7.1c-2.399,1.189-4.885,2.135-7.368,2.781
		c-0.783,0.215-1.597,0.406-2.404,0.566c-0.325,0.055-0.647,0.109-0.971,0.162c-0.298,0.055-0.621,0.107-0.974,0.162
		c-0.026,0-0.057,0.027-0.082,0c-0.242,0.055-0.512,0.082-0.782,0.107c-0.242,0.053-0.511,0.082-0.783,0.082
		c-0.541,0.08-1.078,0.107-1.646,0.135c-1.106,0.082-2.215,0.107-3.321,0.055h-0.324c-0.353,0-0.676-0.027-0.999-0.055
		c-1.835-0.109-3.645-0.352-5.373-0.73c-0.593-0.105-1.16-0.24-1.7-0.404c-0.54-0.105-1.054-0.24-1.565-0.404
		c-0.514-0.135-1.025-0.322-1.54-0.512c-0.08,0-0.161-0.027-0.215-0.082c-9.019-3.157-16.85-9.692-21.521-18.925
		c-7.883-15.689-3.996-34.211,8.371-45.523c-5.399,10.531-5.858,23.355-0.136,34.695c7.724,15.443,24.436,23.327,40.582,20.654
		c3.728-0.594,7.426-1.781,10.936-3.564C92.984,61.767,95.901,59.714,98.465,57.312z"/>
	<path fill="#A41E22" stroke="#000000" stroke-width="1.08" stroke-miterlimit="10" d="M98.575,22.644
		C89.042,3.718,57.989-8.815,38.31,11.628c-5.399,10.531-5.858,23.355-0.136,34.695C45.898,61.766,62.61,69.65,78.756,66.977
		c3.728-0.594,7.426-1.781,10.936-3.564c3.293-1.646,6.21-3.699,8.773-6.102C105.239,46.537,104.27,34.011,98.575,22.644z"/>
</g>
<path fill="#FFF8CA" stroke="#000000" stroke-width="1.08" stroke-miterlimit="10" d="M87.532,152.83
	c0,3.213-3.729,5.832-8.346,5.832s-8.369-2.619-8.369-5.832c0-3.215,3.752-5.807,8.369-5.807S87.532,149.615,87.532,152.83z"/>
<path fill="#FFF8CA" stroke="#000000" stroke-width="1.08" stroke-miterlimit="10" d="M90.959,228.887
	c-3.727,2.727-8.291,2.807-10.178,0.217c-1.891-2.592-0.406-6.914,3.319-9.641c3.726-2.699,8.29-2.809,10.181-0.189
	C96.168,221.868,94.685,226.161,90.959,228.887z"/>
<g>
	<polygon fill="#323232" stroke="#000000" stroke-width="1.08" stroke-miterlimit="10" points="156.215,341.432 156.215,408.877 
		145.417,413.415 145.417,336.897 	"/>
	<g>
		
			<linearGradient id="SVGID_1_" gradientUnits="userSpaceOnUse" x1="320.4155" y1="-216.7017" x2="320.4155" y2="-289.1102" gradientTransform="matrix(1 0 0 -1 -169.5996 123.0166)">
			<stop  offset="0" style="stop-color:#919191"/>
			<stop  offset="0.7029" style="stop-color:#FFFFFF"/>
			<stop  offset="1" style="stop-color:#000000"/>
		</linearGradient>
		<polygon fill="url(#SVGID_1_)" points="156.215,341.432 156.215,408.877 145.417,413.415 145.417,336.897 		"/>
		<polygon fill="none" stroke="#000000" stroke-width="1.08" stroke-miterlimit="10" points="156.215,341.432 156.215,408.877 
			145.417,413.415 145.417,336.897 		"/>
	</g>
	<g>
		<g id="Lever_1_">
			<g>
				<defs>
					<path id="SVGID_2_" d="M189.507,348.237v52.865c0,1.107-0.379,1.512-1.434,1.512h-31.858v-55.809h31.78
						C189.103,346.805,189.507,347.184,189.507,348.237z"/>
				</defs>
				<clipPath id="SVGID_3_">
					<use xlink:href="#SVGID_2_"  overflow="visible"/>
				</clipPath>
				<g clip-path="url(#SVGID_3_)">
					<g>
						<g>
							<defs>
								<rect id="SVGID_4_" x="156.215" y="398.997" width="5.402" height="5.4"/>
							</defs>
							<defs>
								<rect id="SVGID_5_" x="156.215" y="398.997" width="5.402" height="5.4"/>
							</defs>
							<defs>
								<rect id="SVGID_6_" x="156.215" y="398.997" width="5.402" height="5.4"/>
							</defs>
							<defs>
								<rect id="SVGID_7_" x="156.215" y="398.997" width="5.402" height="5.4"/>
							</defs>
							<defs>
								<rect id="SVGID_8_" x="156.215" y="398.997" width="5.402" height="5.4"/>
							</defs>
							<clipPath id="SVGID_9_">
								<use xlink:href="#SVGID_4_"  overflow="visible"/>
							</clipPath>
							<clipPath id="SVGID_10_" clip-path="url(#SVGID_9_)">
								<use xlink:href="#SVGID_5_"  overflow="visible"/>
							</clipPath>
							<clipPath id="SVGID_11_" clip-path="url(#SVGID_10_)">
								<use xlink:href="#SVGID_6_"  overflow="visible"/>
							</clipPath>
							<clipPath id="SVGID_12_" clip-path="url(#SVGID_11_)">
								<use xlink:href="#SVGID_7_"  overflow="visible"/>
							</clipPath>
							<clipPath id="SVGID_13_" clip-path="url(#SVGID_12_)">
								<use xlink:href="#SVGID_8_"  overflow="visible"/>
							</clipPath>
							<g clip-path="url(#SVGID_13_)">
								<path fill="#AFAFAD" d="M160.267,403.047c-0.746,0-1.351,0.604-1.351,1.35c0.746,0,1.351,0.604,1.351,1.35
									c0.746,0,1.351-0.604,1.351-1.35C160.87,404.397,160.267,403.792,160.267,403.047z"/>
								<path fill="#DCDBDB" d="M158.917,404.397c-0.746,0-1.35-0.605-1.35-1.35c-0.748,0-1.352,0.604-1.352,1.35
									c0.748,0,1.352,0.604,1.352,1.35C158.312,405.747,158.917,405.143,158.917,404.397z"/>
							</g>
							<g clip-path="url(#SVGID_13_)">
								<path fill="#555655" d="M161.618,401.696c0,0.746-0.604,1.352-1.352,1.352c0,0.746,0.604,1.35,1.352,1.35
									c0-0.744,0.604-1.35,1.348-1.35C162.965,402.299,162.362,401.696,161.618,401.696z"/>
								<path fill="#231F20" d="M160.267,400.346c0,0.746,0.604,1.35,1.351,1.35c0-0.744,0.604-1.35,1.35-1.35
									c0-0.746-0.604-1.35-1.35-1.35C161.618,399.743,161.013,400.346,160.267,400.346z"/>
							</g>
							<g clip-path="url(#SVGID_13_)">
								<path fill="#AFAFAD" d="M160.267,403.047c-0.746,0-1.351,0.604-1.351,1.35c0.746,0,1.351,0.604,1.351,1.35
									c0.746,0,1.351-0.604,1.351-1.35C160.87,404.397,160.267,403.792,160.267,403.047z"/>
								<path fill="#DCDBDB" d="M158.917,404.397c-0.746,0-1.35-0.605-1.35-1.35c-0.748,0-1.352,0.604-1.352,1.35
									c0.748,0,1.352,0.604,1.352,1.35C158.312,405.747,158.917,405.143,158.917,404.397z"/>
								<path fill="#231F20" d="M157.567,403.047c0,0.744,0.604,1.35,1.35,1.35c0-0.746,0.604-1.35,1.351-1.35
									c0-0.748-0.604-1.352-1.351-1.352C158.917,402.442,158.312,403.047,157.567,403.047z"/>
								<path fill="#AFAFAD" d="M157.567,400.346c-0.748,0-1.352,0.604-1.352,1.35c0.748,0,1.352,0.604,1.352,1.352
									c0.745,0,1.35-0.604,1.35-1.352C158.17,401.696,157.567,401.092,157.567,400.346z"/>
								<path fill="#555655" d="M156.215,401.696c0,0.746-0.604,1.352-1.348,1.352c0,0.746,0.604,1.35,1.348,1.35
									c0-0.744,0.604-1.35,1.353-1.35C157.567,402.299,156.963,401.696,156.215,401.696z"/>
								<path fill="#231F20" d="M154.868,400.346c0,0.746,0.604,1.35,1.348,1.35c0-0.744,0.604-1.35,1.353-1.35
									c0-0.746-0.604-1.35-1.353-1.35C156.215,399.743,155.612,400.346,154.868,400.346z"/>
								<path fill="#555655" d="M161.618,401.696c0,0.746-0.604,1.352-1.352,1.352c0,0.746,0.604,1.35,1.352,1.35
									c0-0.744,0.604-1.35,1.348-1.35C162.965,402.299,162.362,401.696,161.618,401.696z"/>
								<path fill="#DCDBDB" d="M161.618,401.696c-0.748,0-1.352-0.604-1.352-1.35c-0.746,0-1.352,0.604-1.352,1.35
									c0.748,0,1.352,0.604,1.352,1.352C161.013,403.047,161.618,402.442,161.618,401.696z"/>
								<path fill="#231F20" d="M160.267,400.346c0,0.746,0.604,1.35,1.351,1.35c0-0.744,0.604-1.35,1.35-1.35
									c0-0.746-0.604-1.35-1.35-1.35C161.618,399.743,161.013,400.346,160.267,400.346z"/>
								<path fill="#AFAFAD" d="M160.267,397.647c-0.746,0-1.351,0.604-1.351,1.35c0.746,0,1.351,0.605,1.351,1.352
									c0.746,0,1.351-0.605,1.351-1.352C160.87,398.997,160.267,398.393,160.267,397.647z"/>
								<path fill="#555655" d="M158.917,398.997c0,0.746-0.604,1.352-1.35,1.352c0,0.746,0.604,1.35,1.35,1.35
									c0-0.746,0.604-1.35,1.351-1.35C160.267,399.6,159.663,398.997,158.917,398.997z"/>
								<path fill="#DCDBDB" d="M158.917,398.997c-0.746,0-1.35-0.604-1.35-1.35c-0.748,0-1.352,0.604-1.352,1.35
									c0.748,0,1.352,0.605,1.352,1.352C158.312,400.346,158.917,399.743,158.917,398.997z"/>
							</g>
							<g clip-path="url(#SVGID_13_)">
								<path fill="#555655" d="M156.215,401.696c0,0.746-0.604,1.352-1.348,1.352c0,0.746,0.604,1.35,1.348,1.35
									c0-0.744,0.604-1.35,1.353-1.35C157.567,402.299,156.963,401.696,156.215,401.696z"/>
								<path fill="#231F20" d="M154.868,400.346c0,0.746,0.604,1.35,1.348,1.35c0-0.744,0.604-1.35,1.353-1.35
									c0-0.746-0.604-1.35-1.353-1.35C156.215,399.743,155.612,400.346,154.868,400.346z"/>
							</g>
							<g clip-path="url(#SVGID_13_)">
								<path fill="#AFAFAD" d="M160.267,397.647c-0.746,0-1.351,0.604-1.351,1.35c0.746,0,1.351,0.605,1.351,1.352
									c0.746,0,1.351-0.605,1.351-1.352C160.87,398.997,160.267,398.393,160.267,397.647z"/>
								<path fill="#DCDBDB" d="M158.917,398.997c-0.746,0-1.35-0.604-1.35-1.35c-0.748,0-1.352,0.604-1.352,1.35
									c0.748,0,1.352,0.605,1.352,1.352C158.312,400.346,158.917,399.743,158.917,398.997z"/>
							</g>
						</g>
					</g>
				</g>
			</g>
			<g>
				
					<linearGradient id="SVGID_14_" gradientUnits="userSpaceOnUse" x1="342.4614" y1="-224.0044" x2="342.4614" y2="-279.3583" gradientTransform="matrix(1 0 0 -1 -169.5996 123.0166)">
					<stop  offset="0" style="stop-color:#919191"/>
					<stop  offset="0.7029" style="stop-color:#FFFFFF"/>
					<stop  offset="1" style="stop-color:#000000"/>
				</linearGradient>
				<path fill="url(#SVGID_14_)" d="M189.507,348.237v52.865c0,1.107-0.377,1.512-1.43,1.512h-31.862v-55.809h31.78
					C189.104,346.805,189.507,347.184,189.507,348.237z"/>
				<path fill="none" stroke="#000000" stroke-width="1.08" stroke-miterlimit="10" d="M189.507,348.237v52.865
					c0,1.107-0.377,1.512-1.43,1.512h-31.862v-55.809h31.78C189.104,346.805,189.507,347.184,189.507,348.237z"/>
			</g>
			<path fill="#DCDBDB" stroke="#000000" stroke-width="1.08" stroke-miterlimit="10" d="M208.407,374.696
				c0-6.992-8.451-12.689-18.899-12.689v-6.209C199.956,355.797,208.407,364.276,208.407,374.696z"/>
			<path fill="#323232" stroke="#000000" stroke-width="1.08" stroke-miterlimit="10" d="M208.407,374.696
				c0,10.449-8.451,18.9-18.899,18.9v-6.184C199.956,387.413,208.407,381.717,208.407,374.696z"/>
			<path fill="#B7B7B7" stroke="#000000" stroke-width="1.08" stroke-miterlimit="10" d="M208.407,374.696
				c0-3.211-8.451-5.832-18.899-5.832v-6.857C199.956,362.006,208.407,367.704,208.407,374.696z"/>
			<path fill="#4F4F4F" stroke="#000000" stroke-width="1.08" stroke-miterlimit="10" d="M208.407,374.696
				c0,7.021-8.451,12.717-18.899,12.717v-6.855C199.956,380.555,208.407,377.936,208.407,374.696z"/>
			<path fill="#7D7D7D" stroke="#000000" stroke-width="1.08" stroke-miterlimit="10" d="M208.407,374.696
				c0,3.24-8.451,5.859-18.899,5.859v-11.691C199.956,368.864,208.407,371.485,208.407,374.696z"/>
		</g>
	</g>
</g>
<g>
	<g>
		<g id="Lever_5_">
			<path fill="#EEEDED" stroke="#000000" stroke-width="1.08" stroke-miterlimit="10" d="M208.412,271.359
				c0-6.99-8.46-15.79-18.9-15.79v-3.11C199.952,252.458,208.412,260.939,208.412,271.359z"/>
			<path fill="#414141" stroke="#000000" stroke-width="1.08" stroke-miterlimit="10" d="M208.412,271.359
				c0,10.449-8.46,18.899-18.9,18.899v-3.069C199.952,287.189,208.412,278.378,208.412,271.359z"/>
			<path fill="#C9C9C9" stroke="#000000" stroke-width="1.08" stroke-miterlimit="10" d="M208.412,271.359
				c0-3.21-8.46-8.931-18.9-8.931v-6.859C199.952,255.569,208.412,264.369,208.412,271.359z"/>
			<path fill="#5D5D5D" stroke="#000000" stroke-width="1.08" stroke-miterlimit="10" d="M208.412,271.359
				c0,7.02-8.46,15.83-18.9,15.83v-6.86C199.952,280.329,208.412,274.598,208.412,271.359z"/>
			<path fill="#B7B7B7" stroke="#000000" stroke-width="1.08" stroke-miterlimit="10" d="M208.412,271.359
				c0-1.74-8.46-3.48-18.9-3.48v-5.45C199.952,262.428,208.412,268.149,208.412,271.359z"/>
			<path fill="#6B6B6B" stroke="#000000" stroke-width="1.08" stroke-miterlimit="10" d="M208.412,271.359
				c0,3.239-8.46,8.97-18.9,8.97v-5.45C199.952,274.878,208.412,273.119,208.412,271.359z"/>
			<path fill="#4B4B4B" stroke="#000000" stroke-width="1.08" stroke-miterlimit="10" d="M208.412,271.359h-18.9v-3.48
				C199.952,267.878,208.412,269.619,208.412,271.359z"/>
			<path fill="#9A9A9A" stroke="#000000" stroke-width="1.08" stroke-miterlimit="10" d="M208.412,271.359
				c0,1.76-8.46,3.52-18.9,3.52v-3.52H208.412z"/>
		</g>
	</g>
</g>
<linearGradient id="SVGID_15_" gradientUnits="userSpaceOnUse" x1="517.3188" y1="45.9287" x2="484.6207" y2="-236.1217" gradientTransform="matrix(1 0 0 -1 -169.5996 123.0166)">
	<stop  offset="0" style="stop-color:#919191"/>
	<stop  offset="0.551" style="stop-color:#3F3F3F"/>
	<stop  offset="1" style="stop-color:#000000"/>
</linearGradient>
<path opacity="0.5" fill="url(#SVGID_15_)" enable-background="new    " d="M359.473,76.996L324.75,346.805l-0.891,6.508
	c0,2.375-3.834,4.291-8.533,4.291c-4.726,0-8.559-1.916-8.559-4.291c0-0.162,0.027-0.297,0.054-0.434l0.675-6.074l28.622-270.944
	c0.217,0.082,0.432,0.162,0.674,0.217c0.055,0.054,0.136,0.082,0.217,0.082c0.514,0.188,1.026,0.376,1.538,0.512
	c0.514,0.163,1.025,0.297,1.566,0.404c0.54,0.189,1.107,0.298,1.7,0.404c1.729,0.38,3.538,0.621,5.373,0.73
	c0.081,0.027,0.135,0.027,0.217,0.027c0.243,0.026,0.513,0.026,0.782,0.026h0.324c1.107,0.054,2.215,0.028,3.322-0.054
	c0.565-0.027,1.104-0.055,1.645-0.135c0.271,0,0.541-0.028,0.783-0.081c0.271-0.026,0.541-0.054,0.783-0.108
	c0.024,0.027,0.055,0,0.082,0c0.242-0.026,0.51-0.055,0.756-0.108c0.08,0,0.136-0.026,0.217-0.054
	c0.322-0.053,0.646-0.107,0.971-0.162C357.876,77.402,358.689,77.21,359.473,76.996z"/>
<linearGradient id="SVGID_16_" gradientUnits="userSpaceOnUse" x1="623.5073" y1="-91.9873" x2="649.3747" y2="-95.1174" gradientTransform="matrix(1 0 0 -1 -169.5996 123.0166)">
	<stop  offset="0" style="stop-color:#919191"/>
	<stop  offset="0.3926" style="stop-color:#C2C2C2"/>
	<stop  offset="0.6112" style="stop-color:#D9D9D9"/>
	<stop  offset="1" style="stop-color:#000000"/>
</linearGradient>
<path fill="url(#SVGID_16_)" stroke="#000000" stroke-width="1.08" stroke-miterlimit="10" d="M495.473,76.996L460.75,346.805
	l-0.891,6.508c0,2.375-3.834,4.291-8.533,4.291c-4.726,0-8.559-1.916-8.559-4.291c0-0.162,0.027-0.297,0.054-0.434l0.675-6.074
	l28.622-270.944c0.217,0.082,0.432,0.162,0.674,0.217c0.055,0.054,0.136,0.082,0.217,0.082c0.514,0.188,1.026,0.376,1.538,0.512
	c0.514,0.163,1.025,0.297,1.566,0.404c0.54,0.189,1.107,0.298,1.7,0.404c1.729,0.38,3.538,0.621,5.373,0.73
	c0.081,0.027,0.135,0.027,0.217,0.027c0.243,0.026,0.513,0.026,0.782,0.026h0.324c1.107,0.054,2.215,0.028,3.322-0.054
	c0.565-0.027,1.104-0.055,1.645-0.135c0.271,0,0.541-0.028,0.783-0.081c0.271-0.026,0.541-0.054,0.783-0.108
	c0.024,0.027,0.055,0,0.082,0c0.242-0.026,0.51-0.055,0.756-0.108c0.08,0,0.136-0.026,0.217-0.054
	c0.322-0.053,0.646-0.107,0.971-0.162C493.876,77.402,494.689,77.21,495.473,76.996z"/>
</svg>
