<?xml version="1.0" encoding="utf-8"?>
<!-- Generator: Adobe Illustrator 16.0.0, SVG Export Plug-In . SVG Version: 6.00 Build 0)  -->
<!DOCTYPE svg PUBLIC "-//W3C//DTD SVG 1.1//EN" "http://www.w3.org/Graphics/SVG/1.1/DTD/svg11.dtd">
<svg version="1.1" id="Layer_1" xmlns="http://www.w3.org/2000/svg" xmlns:xlink="http://www.w3.org/1999/xlink" x="0px" y="0px"
	 width="104.583px" height="414.917px" viewBox="0 0 104.583 414.917" enable-background="new 0 0 104.583 414.917"
	 xml:space="preserve">
<g id="Lever">
	<path fill="#2F1110" stroke="#000000" stroke-width="1.08" stroke-miterlimit="10" d="M98.466,57.312
		c-1.837,3.591-4.213,6.885-7.129,9.802c-2.809,2.808-6.102,5.238-9.828,7.101c-2.4,1.188-4.885,2.133-7.369,2.781
		c-0.783,0.215-1.596,0.406-2.404,0.566c-0.325,0.055-0.648,0.109-0.971,0.162c-0.298,0.054-0.621,0.107-0.973,0.162
		c-0.027,0-0.057,0.027-0.082,0c-0.242,0.055-0.512,0.082-0.783,0.108c-0.242,0.053-0.511,0.081-0.783,0.081
		c-0.541,0.08-1.078,0.107-1.645,0.135c-1.107,0.082-2.215,0.107-3.322,0.054h-0.324c-0.352,0-0.676-0.026-0.999-0.054
		c-1.835-0.109-3.645-0.351-5.373-0.73c-0.593-0.106-1.16-0.241-1.7-0.404c-0.541-0.107-1.054-0.241-1.566-0.404
		c-0.513-0.136-1.025-0.324-1.539-0.512c-0.081,0-0.162-0.028-0.216-0.082c-9.018-3.158-16.849-9.693-21.521-18.926
		c-7.883-15.689-3.996-34.211,8.371-45.523c-5.4,10.531-5.858,23.355-0.135,34.695c7.723,15.443,24.435,23.327,40.582,20.654
		c3.727-0.594,7.425-1.781,10.935-3.564C92.984,61.767,95.901,59.714,98.466,57.312z"/>
	<path fill="#A41E22" stroke="#000000" stroke-width="1.08" stroke-miterlimit="10" d="M70.817,18.164
		c0-3.215,3.752-5.807,8.369-5.807c4.616,0,8.346,2.592,8.346,5.807c0,3.212-3.729,5.831-8.346,5.831
		C74.569,23.995,70.817,21.375,70.817,18.164z M90.96,32.552c-3.727,2.728-8.291,2.809-10.178,0.217
		c-1.891-2.592-0.407-6.912,3.319-9.639c3.726-2.699,8.29-2.809,10.181-0.189C96.169,25.535,94.685,29.826,90.96,32.552z"/>
	<path fill="#A41E22" stroke="#000000" stroke-width="1.08" stroke-miterlimit="10" d="M98.574,22.644
		C89.042,3.718,57.989-8.815,38.31,11.628c-5.4,10.531-5.858,23.355-0.135,34.695c7.723,15.443,24.435,23.327,40.582,20.654
		c3.727-0.594,7.425-1.781,10.935-3.564c3.293-1.646,6.21-3.699,8.774-6.102C105.239,46.537,104.27,34.011,98.574,22.644z
		 M70.817,18.164c0-3.215,3.752-5.807,8.369-5.807c4.616,0,8.346,2.592,8.346,5.807c0,3.212-3.729,5.831-8.346,5.831
		C74.569,23.995,70.817,21.375,70.817,18.164z M90.96,32.552c-3.727,2.728-8.291,2.809-10.178,0.217
		c-1.891-2.592-0.407-6.912,3.319-9.639c3.726-2.699,8.29-2.809,10.181-0.189C96.169,25.535,94.685,29.826,90.96,32.552z"/>
	<polygon fill="#323232" stroke="#000000" stroke-width="1.08" stroke-miterlimit="10" points="13.55,341.433 13.55,408.879 
		2.75,413.415 2.75,336.897 	"/>
	<g>
		<linearGradient id="SVGID_1_" gradientUnits="userSpaceOnUse" x1="8.1504" y1="339.7183" x2="8.1504" y2="412.1273">
			<stop  offset="0" style="stop-color:#919191"/>
			<stop  offset="0.7029" style="stop-color:#FFFFFF"/>
			<stop  offset="1" style="stop-color:#000000"/>
		</linearGradient>
		<polygon fill="url(#SVGID_1_)" points="13.55,341.433 13.55,408.879 2.75,413.415 2.75,336.897 		"/>
		<polygon fill="none" stroke="#000000" stroke-width="1.08" stroke-miterlimit="10" points="13.55,341.433 13.55,408.879 
			2.75,413.415 2.75,336.897 		"/>
	</g>
	<g>
		<g>
			<defs>
				<path id="SVGID_55_" d="M46.842,348.238v52.865c0,1.107-0.38,1.512-1.435,1.512H13.55v-55.809h8.612l-0.675,6.075
					c-0.027,0.136-0.053,0.27-0.053,0.433c0,2.375,3.833,4.291,8.559,4.291c4.699,0,8.533-1.916,8.533-4.291l0.891-6.508h5.912
					C46.437,346.806,46.842,347.185,46.842,348.238z"/>
			</defs>
			<clipPath id="SVGID_2_">
				<use xlink:href="#SVGID_55_"  overflow="visible"/>
			</clipPath>
			<g clip-path="url(#SVGID_2_)">
				<g>
					<defs>
						<rect id="SVGID_57_" x="13.55" y="398.998" width="5.401" height="5.399"/>
					</defs>
					<clipPath id="SVGID_3_">
						<use xlink:href="#SVGID_57_"  overflow="visible"/>
					</clipPath>
					<g clip-path="url(#SVGID_3_)">
						<path fill="#AFAFAD" d="M17.601,403.048c-0.746,0-1.351,0.604-1.351,1.349c0.747,0,1.351,0.604,1.351,1.351
							c0.746,0,1.351-0.604,1.351-1.351C18.204,404.397,17.601,403.793,17.601,403.048z"/>
						<path fill="#DCDBDB" d="M16.25,404.397c-0.745,0-1.349-0.604-1.349-1.349c-0.748,0-1.352,0.604-1.352,1.349
							c0.748,0,1.352,0.604,1.352,1.351C15.646,405.748,16.25,405.144,16.25,404.397z"/>
					</g>
					<g clip-path="url(#SVGID_3_)">
						<path fill="#555655" d="M18.951,401.697c0,0.746-0.604,1.352-1.351,1.352c0,0.745,0.604,1.349,1.351,1.349
							c0-0.745,0.604-1.349,1.349-1.349C20.3,402.3,19.696,401.697,18.951,401.697z"/>
						<path fill="#231F20" d="M17.601,400.347c0,0.746,0.604,1.35,1.351,1.35c0-0.745,0.604-1.35,1.349-1.35
							c0-0.746-0.604-1.35-1.349-1.35C18.951,399.744,18.347,400.347,17.601,400.347z"/>
					</g>
					<g clip-path="url(#SVGID_3_)">
						<path fill="#AFAFAD" d="M17.601,403.048c-0.746,0-1.351,0.604-1.351,1.349c0.747,0,1.351,0.604,1.351,1.351
							c0.746,0,1.351-0.604,1.351-1.351C18.204,404.397,17.601,403.793,17.601,403.048z"/>
						<path fill="#DCDBDB" d="M16.25,404.397c-0.745,0-1.349-0.604-1.349-1.349c-0.748,0-1.352,0.604-1.352,1.349
							c0.748,0,1.352,0.604,1.352,1.351C15.646,405.748,16.25,405.144,16.25,404.397z"/>
						<path fill="#231F20" d="M14.901,403.048c0,0.745,0.604,1.349,1.349,1.349c0-0.745,0.604-1.349,1.351-1.349
							c0-0.748-0.604-1.352-1.351-1.352C16.25,402.443,15.646,403.048,14.901,403.048z"/>
						<path fill="#AFAFAD" d="M14.901,400.347c-0.748,0-1.352,0.604-1.352,1.35c0.748,0,1.352,0.604,1.352,1.352
							c0.745,0,1.349-0.605,1.349-1.352C15.505,401.697,14.901,401.093,14.901,400.347z"/>
						<path fill="#555655" d="M13.55,401.697c0,0.746-0.604,1.352-1.349,1.352c0,0.745,0.604,1.349,1.349,1.349
							c0-0.745,0.604-1.349,1.352-1.349C14.901,402.3,14.298,401.697,13.55,401.697z"/>
						<path fill="#231F20" d="M12.201,400.347c0,0.746,0.604,1.35,1.349,1.35c0-0.745,0.604-1.35,1.352-1.35
							c0-0.746-0.604-1.35-1.352-1.35C13.55,399.744,12.946,400.347,12.201,400.347z"/>
						<path fill="#555655" d="M18.951,401.697c0,0.746-0.604,1.352-1.351,1.352c0,0.745,0.604,1.349,1.351,1.349
							c0-0.745,0.604-1.349,1.349-1.349C20.3,402.3,19.696,401.697,18.951,401.697z"/>
						<path fill="#DCDBDB" d="M18.951,401.697c-0.747,0-1.351-0.604-1.351-1.35c-0.746,0-1.351,0.604-1.351,1.35
							c0.747,0,1.351,0.604,1.351,1.352C18.347,403.048,18.951,402.443,18.951,401.697z"/>
						<path fill="#231F20" d="M17.601,400.347c0,0.746,0.604,1.35,1.351,1.35c0-0.745,0.604-1.35,1.349-1.35
							c0-0.746-0.604-1.35-1.349-1.35C18.951,399.744,18.347,400.347,17.601,400.347z"/>
						<path fill="#AFAFAD" d="M17.601,397.647c-0.746,0-1.351,0.604-1.351,1.351c0.747,0,1.351,0.604,1.351,1.35
							c0.746,0,1.351-0.604,1.351-1.35C18.204,398.998,17.601,398.394,17.601,397.647z"/>
						<path fill="#555655" d="M16.25,398.998c0,0.746-0.604,1.35-1.349,1.35c0,0.746,0.604,1.35,1.349,1.35
							c0-0.745,0.604-1.35,1.351-1.35C17.601,399.601,16.997,398.998,16.25,398.998z"/>
						<path fill="#DCDBDB" d="M16.25,398.998c-0.745,0-1.349-0.604-1.349-1.351c-0.748,0-1.352,0.604-1.352,1.351
							c0.748,0,1.352,0.604,1.352,1.35C15.646,400.347,16.25,399.744,16.25,398.998z"/>
					</g>
					<g clip-path="url(#SVGID_3_)">
						<path fill="#555655" d="M13.55,401.697c0,0.746-0.604,1.352-1.349,1.352c0,0.745,0.604,1.349,1.349,1.349
							c0-0.745,0.604-1.349,1.352-1.349C14.901,402.3,14.298,401.697,13.55,401.697z"/>
						<path fill="#231F20" d="M12.201,400.347c0,0.746,0.604,1.35,1.349,1.35c0-0.745,0.604-1.35,1.352-1.35
							c0-0.746-0.604-1.35-1.352-1.35C13.55,399.744,12.946,400.347,12.201,400.347z"/>
					</g>
					<g clip-path="url(#SVGID_3_)">
						<path fill="#AFAFAD" d="M17.601,397.647c-0.746,0-1.351,0.604-1.351,1.351c0.747,0,1.351,0.604,1.351,1.35
							c0.746,0,1.351-0.604,1.351-1.35C18.204,398.998,17.601,398.394,17.601,397.647z"/>
						<path fill="#DCDBDB" d="M16.25,398.998c-0.745,0-1.349-0.604-1.349-1.351c-0.748,0-1.352,0.604-1.352,1.351
							c0.748,0,1.352,0.604,1.352,1.35C15.646,400.347,16.25,399.744,16.25,398.998z"/>
					</g>
				</g>
			</g>
		</g>
	</g>
	<g>
		<linearGradient id="SVGID_4_" gradientUnits="userSpaceOnUse" x1="30.1953" y1="347.022" x2="30.1953" y2="402.3759">
			<stop  offset="0" style="stop-color:#919191"/>
			<stop  offset="0.7029" style="stop-color:#FFFFFF"/>
			<stop  offset="1" style="stop-color:#000000"/>
		</linearGradient>
		<path fill="url(#SVGID_4_)" d="M46.842,348.238v52.865c0,1.107-0.378,1.512-1.431,1.512H13.55v-55.809h8.613l-0.675,6.075
			c-0.026,0.136-0.054,0.27-0.054,0.433c0,2.375,3.833,4.291,8.559,4.291c4.699,0,8.533-1.916,8.533-4.291l0.891-6.508h5.913
			C46.438,346.806,46.842,347.185,46.842,348.238z"/>
		<path fill="none" stroke="#000000" stroke-width="1.08" stroke-miterlimit="10" d="M46.842,348.238v52.865
			c0,1.107-0.378,1.512-1.431,1.512H13.55v-55.809h8.613l-0.675,6.075c-0.026,0.136-0.054,0.27-0.054,0.433
			c0,2.375,3.833,4.291,8.559,4.291c4.699,0,8.533-1.916,8.533-4.291l0.891-6.508h5.913
			C46.438,346.806,46.842,347.185,46.842,348.238z"/>
	</g>
	<path fill="#DCDBDB" stroke="#000000" stroke-width="1.08" stroke-miterlimit="10" d="M65.741,374.697
		c0-6.992-8.451-12.689-18.899-12.689v-6.209C57.29,355.798,65.741,364.277,65.741,374.697z"/>
	<path fill="#323232" stroke="#000000" stroke-width="1.08" stroke-miterlimit="10" d="M65.741,374.697
		c0,10.449-8.451,18.9-18.899,18.9v-6.184C57.29,387.414,65.741,381.718,65.741,374.697z"/>
	<path fill="#B7B7B7" stroke="#000000" stroke-width="1.08" stroke-miterlimit="10" d="M65.741,374.697
		c0-3.212-8.451-5.832-18.899-5.832v-6.857C57.29,362.007,65.741,367.705,65.741,374.697z"/>
	<path fill="#4F4F4F" stroke="#000000" stroke-width="1.08" stroke-miterlimit="10" d="M65.741,374.697
		c0,7.021-8.451,12.717-18.899,12.717v-6.857C57.29,380.556,65.741,377.937,65.741,374.697z"/>
	<path fill="#7D7D7D" stroke="#000000" stroke-width="1.08" stroke-miterlimit="10" d="M65.741,374.697
		c0,3.24-8.451,5.859-18.899,5.859v-11.691C57.29,368.865,65.741,371.485,65.741,374.697z"/>
	<linearGradient id="SVGID_5_" gradientUnits="userSpaceOnUse" x1="32.5742" y1="215.0034" x2="58.4405" y2="218.1334">
		<stop  offset="0" style="stop-color:#919191"/>
		<stop  offset="0.3926" style="stop-color:#C2C2C2"/>
		<stop  offset="0.6112" style="stop-color:#D9D9D9"/>
		<stop  offset="1" style="stop-color:#000000"/>
	</linearGradient>
	<path fill="url(#SVGID_5_)" stroke="#000000" stroke-width="1.08" stroke-miterlimit="10" d="M74.14,76.996L39.417,346.806
		l-0.891,6.508c0,2.375-3.834,4.291-8.533,4.291c-4.726,0-8.559-1.916-8.559-4.291c0-0.163,0.027-0.297,0.054-0.433l0.675-6.075
		L50.784,75.861c0.217,0.082,0.432,0.162,0.675,0.217c0.054,0.054,0.135,0.082,0.216,0.082c0.514,0.188,1.026,0.376,1.539,0.512
		c0.513,0.163,1.025,0.297,1.566,0.404c0.54,0.189,1.107,0.298,1.7,0.404c1.729,0.38,3.538,0.621,5.373,0.73
		c0.081,0.027,0.135,0.027,0.217,0.027c0.243,0.026,0.513,0.026,0.782,0.026h0.324c1.107,0.054,2.215,0.028,3.322-0.054
		c0.566-0.027,1.104-0.055,1.645-0.135c0.272,0,0.541-0.028,0.783-0.081c0.271-0.026,0.541-0.054,0.783-0.108
		c0.025,0.027,0.055,0,0.082,0c0.242-0.026,0.511-0.055,0.757-0.108c0.079,0,0.135-0.026,0.216-0.054
		c0.322-0.053,0.646-0.107,0.971-0.162C72.544,77.402,73.356,77.21,74.14,76.996z"/>
	<g>
		<linearGradient id="SVGID_6_" gradientUnits="userSpaceOnUse" x1="62.3857" y1="77.0874" x2="29.6875" y2="359.1383">
			<stop  offset="0" style="stop-color:#919191"/>
			<stop  offset="0.551" style="stop-color:#3F3F3F"/>
			<stop  offset="1" style="stop-color:#000000"/>
		</linearGradient>
		<path opacity="0.5" fill="url(#SVGID_6_)" d="M74.14,76.996L39.417,346.806l-0.891,6.508c0,2.375-3.834,4.291-8.533,4.291
			c-4.726,0-8.559-1.916-8.559-4.291c0-0.163,0.027-0.297,0.054-0.433l0.675-6.075L50.784,75.861
			c0.217,0.082,0.432,0.162,0.675,0.217c0.054,0.054,0.135,0.082,0.216,0.082c0.514,0.188,1.026,0.376,1.539,0.512
			c0.513,0.163,1.025,0.297,1.566,0.404c0.54,0.189,1.107,0.298,1.7,0.404c1.729,0.38,3.538,0.621,5.373,0.73
			c0.081,0.027,0.135,0.027,0.217,0.027c0.243,0.026,0.513,0.026,0.782,0.026h0.324c1.107,0.054,2.215,0.028,3.322-0.054
			c0.566-0.027,1.104-0.055,1.645-0.135c0.272,0,0.541-0.028,0.783-0.081c0.271-0.026,0.541-0.054,0.783-0.108
			c0.025,0.027,0.055,0,0.082,0c0.242-0.026,0.511-0.055,0.757-0.108c0.079,0,0.135-0.026,0.216-0.054
			c0.322-0.053,0.646-0.107,0.971-0.162C72.544,77.402,73.356,77.21,74.14,76.996z"/>
	</g>
	<path fill="#FFF8CA" stroke="#000000" stroke-width="1.08" stroke-miterlimit="10" d="M87.532,18.164
		c0,3.212-3.729,5.831-8.346,5.831c-4.617,0-8.369-2.619-8.369-5.831c0-3.215,3.752-5.807,8.369-5.807
		C83.803,12.357,87.532,14.949,87.532,18.164z"/>
	<path fill="#FFF8CA" stroke="#000000" stroke-width="1.08" stroke-miterlimit="10" d="M90.96,32.552
		c-3.727,2.728-8.291,2.809-10.178,0.217c-1.891-2.592-0.407-6.912,3.319-9.639c3.726-2.699,8.29-2.809,10.181-0.189
		C96.169,25.535,94.685,29.826,90.96,32.552z"/>
</g>
</svg>
