<?xml version="1.0" encoding="utf-8"?>
<!-- Generator: Adobe Illustrator 16.0.0, SVG Export Plug-In . SVG Version: 6.00 Build 0)  -->
<!DOCTYPE svg PUBLIC "-//W3C//DTD SVG 1.1//EN" "http://www.w3.org/Graphics/SVG/1.1/DTD/svg11.dtd">
<svg version="1.1" id="Layer_1" xmlns="http://www.w3.org/2000/svg" xmlns:xlink="http://www.w3.org/1999/xlink" x="0px" y="0px"
	 width="128px" height="128px" viewBox="0 0 128 128" enable-background="new 0 0 128 128" xml:space="preserve">
<g id="Pattern">
	<path fill="#555655" d="M128,64v64c-17.775,0-32-14.221-32-32C113.775,96,128,81.779,128,64z"/>
	<path fill="#231F20" d="M128,0v64c-17.775,0-32-14.225-32-32C113.775,32,128,17.775,128,0z"/>
	<path fill="#AFAFAD" d="M128,0c0,17.775-14.225,32-32,32C96,14.197,81.775,0,64,0H128z"/>
	<path fill="#555655" d="M96,32c-17.783,0-32,14.225-32,32c-17.783,0-32-14.227-32-32c17.782,0,32-14.228,32-32
		C81.783,0,96,14.199,96,32z"/>
	<path fill="#AFAFAD" d="M128,128H64c0-17.781,14.223-32,32-32C96,113.781,110.225,128,128,128z"/>
	<path fill="#FFFFFF" d="M64,0c0,17.775-14.225,32-32,32C32,14.197,17.775,0,0,0H64z"/>
	<path fill="#FFFFFF" d="M64,128H0c0-17.781,14.223-32,32-32C32,113.781,46.225,128,64,128z"/>
	<path fill="#231F20" d="M96,96c-17.777,0-32,14.219-32,32c-17.777,0-32-14.219-32-32c17.777,0,32-14.23,32-32
		C81.777,64,96,78.219,96,96z"/>
	<path fill="#AFAFAD" d="M64,64c0,17.762-14.221,32-32,32c0-17.775-14.22-32-32-32c0-17.777,14.193-32,32-32
		C32,49.775,46.221,64,64,64z"/>
	<path fill="#FFFFFF" d="M128,64c0,17.762-14.221,32-32,32c0-17.775-14.221-32-32-32c0-17.777,14.193-32,32-32
		C96,49.775,110.221,64,128,64z"/>
	<path fill="#555655" d="M32,96c-17.805,0-32,14.219-32,32V64C17.777,64,32,78.217,32,96z"/>
	<path fill="#231F20" d="M32,32C14.193,32,0,46.227,0,64V0C17.775,0,32,14.229,32,32z"/>
</g>
</svg>
