<?xml version="1.0" encoding="utf-8"?>
<!-- Generator: Adobe Illustrator 16.0.0, SVG Export Plug-In . SVG Version: 6.00 Build 0)  -->
<!DOCTYPE svg PUBLIC "-//W3C//DTD SVG 1.1//EN" "http://www.w3.org/Graphics/SVG/1.1/DTD/svg11.dtd">
<svg version="1.1" id="Layer_1" xmlns="http://www.w3.org/2000/svg" xmlns:xlink="http://www.w3.org/1999/xlink" x="0px" y="0px"
	 width="128px" height="128px" viewBox="-571.896 68.102 128 128" enable-background="new -571.896 68.102 128 128"
	 xml:space="preserve">
<g id="Pattern">
	<path fill="#555655" d="M-443.896,132.102v64c-17.776,0-32-14.221-32-32C-458.12,164.102-443.896,149.881-443.896,132.102z"/>
	<path fill="#DCDBDB" d="M-443.896,132.102c0,17.775-14.221,32-32,32c0-17.775-14.222-32-32-32c0-17.777,14.221-32,32-32
		C-475.896,117.877-461.674,132.102-443.896,132.102z"/>
	<path fill="#231F20" d="M-443.896,68.102v64c-17.776,0-32-14.224-32-32C-458.12,100.102-443.896,85.877-443.896,68.102z"/>
	<path fill="#AFAFAD" d="M-443.896,68.102c0,17.775-14.224,32-32,32c0-17.803-14.225-32-32-32H-443.896z"/>
	<path fill="#555655" d="M-475.896,100.102c-17.783,0-32,14.225-32,32c-17.783,0-32-14.226-32-32c17.782,0,32-14.228,32-32
		C-490.114,68.102-475.896,82.301-475.896,100.102z"/>
	<path fill="#DCDBDB" d="M-507.896,68.102c0,17.771-14.224,32-32,32c0-17.799-14.209-32-32-32H-507.896z"/>
	<path fill="#AFAFAD" d="M-443.896,196.102h-64c0-17.781,14.223-32,32-32C-475.896,181.883-461.671,196.102-443.896,196.102z"/>
	<path fill="#DCDBDB" d="M-507.896,196.102h-64c0-17.784,14.194-32.001,32-32.001C-539.896,181.885-525.675,196.102-507.896,196.102
		z"/>
	<path fill="#231F20" d="M-475.896,164.101c-17.777,0-32,14.22-32,32.001c-17.778,0-32-14.218-32-32.001
		c17.778,0,32-14.229,32-31.999C-490.119,132.102-475.896,146.32-475.896,164.101z"/>
	<path fill="#AFAFAD" d="M-507.896,132.102c0,17.762-14.221,32-32,32c0-17.775-14.22-32-32-32c0-17.777,14.193-32,32-32
		C-539.896,117.877-525.675,132.102-507.896,132.102z"/>
	<path fill="#555655" d="M-539.896,164.102c-17.805,0-32,14.219-32,32v-64C-554.118,132.102-539.896,146.319-539.896,164.102z"/>
	<path fill="#231F20" d="M-539.896,100.102c-17.806,0-32,14.227-32,32v-64C-554.12,68.102-539.896,82.331-539.896,100.102z"/>
</g>
</svg>
