<?xml version="1.0" encoding="utf-8"?>
<!-- Generator: Adobe Illustrator 16.0.0, SVG Export Plug-In . SVG Version: 6.00 Build 0)  -->
<!DOCTYPE svg PUBLIC "-//W3C//DTD SVG 1.1//EN" "http://www.w3.org/Graphics/SVG/1.1/DTD/svg11.dtd">
<svg version="1.1" id="Layer_1" xmlns="http://www.w3.org/2000/svg" xmlns:xlink="http://www.w3.org/1999/xlink" x="0px" y="0px"
	 width="78.25px" height="44.293px" viewBox="0 0 78.25 44.293" enable-background="new 0 0 78.25 44.293" xml:space="preserve">
<g id="Alarm_Light_1_">
	
		<path fill="#A41E23" stroke="#000000" stroke-width="1.08" stroke-linecap="round" stroke-linejoin="round" stroke-miterlimit="10" d="
		M39.175,1C18.304,1,1.374,19.17,1.374,41.581c0,0.514,0,0.998,0.027,1.539c12.313-1.025,24.949-1.539,37.773-1.539
		s25.462,0.514,37.773,1.539c0.027-0.541,0.027-1.025,0.027-1.539C76.976,19.17,60.046,1,39.175,1z"/>
	<g>
		
			<path fill="#2F1110" stroke="#000000" stroke-width="1.08" stroke-linecap="round" stroke-linejoin="round" stroke-miterlimit="10" d="
			M9.351,29.54c-1.9-4.232-1.521-8.975,0.688-13.807C4.63,22.755,1.374,31.759,1.374,41.581c0,0.514,0,0.998,0.027,1.539
			c9.363-0.781,18.916-1.26,28.595-1.447C19.853,40.076,12.237,35.974,9.351,29.54z"/>
	</g>
	<g>
		<path fill="#FFF8CA" d="M52.77,22.271c-1.641-7.841-4.845-13.724-8.786-16.389c7.73,1.485,16.564,6.423,19.883,12.642
			c-0.688-0.132-1.422-0.198-2.19-0.198C58.09,18.327,54.271,19.788,52.77,22.271z"/>
		<path d="M46.114,6.956c6.538,1.806,13.503,5.905,16.717,10.881c-0.376-0.034-0.761-0.05-1.155-0.05
			c-3.271,0-6.726,1.183-8.629,3.243C51.595,14.835,49.142,9.93,46.114,6.956 M39.904,4.888c5.94,0.621,10.935,8.666,12.744,19.684
			c0.021-3.475,4.725-5.705,9.027-5.705c1.115,0,2.204,0.15,3.177,0.467C61.45,11.341,48.896,5.077,39.904,4.888L39.904,4.888z"/>
	</g>
</g>
</svg>
