<?xml version="1.0" encoding="utf-8"?>
<!-- Generator: Adobe Illustrator 16.0.0, SVG Export Plug-In . SVG Version: 6.00 Build 0)  -->
<!DOCTYPE svg PUBLIC "-//W3C//DTD SVG 1.1//EN" "http://www.w3.org/Graphics/SVG/1.1/DTD/svg11.dtd">
<svg version="1.1" id="Layer_1" xmlns="http://www.w3.org/2000/svg" xmlns:xlink="http://www.w3.org/1999/xlink" x="0px" y="0px"
	 width="7.2px" height="7.2px" viewBox="0 0 7.2 7.2" enable-background="new 0 0 7.2 7.2" xml:space="preserve">
<g id="Pattern">
	<path fill="#AFAFAD" d="M4.5,4.5c-0.497,0-0.9,0.402-0.9,0.899c0.5,0,0.9,0.403,0.9,0.9c0.499,0,0.9-0.401,0.9-0.9
		C4.902,5.399,4.5,4.998,4.5,4.5z"/>
	<path fill="#555655" d="M3.6,5.399c0,0.499-0.4,0.9-0.899,0.9c0,0.498,0.402,0.9,0.899,0.9c0-0.498,0.403-0.9,0.9-0.9
		C4.5,5.803,4.1,5.399,3.6,5.399z"/>
	<path fill="#DCDBDB" d="M3.6,5.399C3.103,5.399,2.7,4.998,2.7,4.5c-0.498,0-0.9,0.402-0.9,0.899c0.499,0,0.9,0.403,0.9,0.9
		C3.199,6.3,3.6,5.898,3.6,5.399z"/>
	<path fill="#231F20" d="M2.7,4.5c0,0.498,0.402,0.899,0.899,0.899C3.6,4.902,4.003,4.5,4.5,4.5c0-0.498-0.4-0.9-0.9-0.9
		C3.6,4.099,3.199,4.5,2.7,4.5z"/>
	<path fill="#AFAFAD" d="M2.7,2.7C2.202,2.7,1.8,3.103,1.8,3.6c0.499,0,0.9,0.402,0.9,0.9C3.199,4.5,3.6,4.099,3.6,3.6
		C3.103,3.6,2.7,3.198,2.7,2.7z"/>
	<path fill="#555655" d="M1.8,3.6c0,0.499-0.4,0.9-0.899,0.9c0,0.498,0.402,0.899,0.899,0.899C1.8,4.902,2.202,4.5,2.7,4.5
		C2.7,4.002,2.299,3.6,1.8,3.6z"/>
	<path fill="#DCDBDB" d="M1.8,3.6C1.303,3.6,0.9,3.198,0.9,2.7C0.402,2.7,0,3.103,0,3.6c0.499,0,0.9,0.402,0.9,0.9
		C1.399,4.5,1.8,4.099,1.8,3.6z"/>
	<path fill="#231F20" d="M0.9,2.7C0.9,3.198,1.303,3.6,1.8,3.6C1.8,3.103,2.202,2.7,2.7,2.7c0-0.498-0.401-0.9-0.9-0.9
		C1.8,2.298,1.399,2.7,0.9,2.7z"/>
	<path fill="#AFAFAD" d="M6.3,2.7C5.803,2.7,5.4,3.103,5.4,3.6C5.899,3.6,6.3,4.002,6.3,4.5c0.499,0,0.9-0.401,0.9-0.9
		C6.702,3.6,6.3,3.198,6.3,2.7z"/>
	<path fill="#555655" d="M5.4,3.6c0,0.499-0.401,0.9-0.9,0.9c0,0.498,0.402,0.899,0.9,0.899C5.4,4.902,5.803,4.5,6.3,4.5
		C6.3,4.002,5.899,3.6,5.4,3.6z"/>
	<path fill="#DCDBDB" d="M5.4,3.6C4.902,3.6,4.5,3.198,4.5,2.7C4.003,2.7,3.6,3.103,3.6,3.6c0.5,0,0.9,0.402,0.9,0.9
		C4.999,4.5,5.4,4.099,5.4,3.6z"/>
	<path fill="#231F20" d="M4.5,2.7C4.5,3.198,4.902,3.6,5.4,3.6C5.4,3.103,5.803,2.7,6.3,2.7c0-0.498-0.4-0.9-0.899-0.9
		C5.4,2.298,4.999,2.7,4.5,2.7z"/>
	<path fill="#AFAFAD" d="M4.5,0.899c-0.497,0-0.9,0.403-0.9,0.9c0.5,0,0.9,0.402,0.9,0.9c0.499,0,0.9-0.402,0.9-0.9
		C4.902,1.8,4.5,1.398,4.5,0.899z"/>
	<path fill="#555655" d="M3.6,1.8c0,0.498-0.4,0.9-0.899,0.9C2.7,3.198,3.103,3.6,3.6,3.6C3.6,3.103,4.003,2.7,4.5,2.7
		C4.5,2.202,4.1,1.8,3.6,1.8z"/>
	<path fill="#DCDBDB" d="M3.6,1.8C3.103,1.8,2.7,1.398,2.7,0.899c-0.498,0-0.9,0.403-0.9,0.9c0.499,0,0.9,0.402,0.9,0.9
		C3.199,2.7,3.6,2.298,3.6,1.8z"/>
	<path fill="#231F20" d="M2.7,0.899c0,0.499,0.402,0.9,0.899,0.9c0-0.497,0.403-0.9,0.9-0.9C4.5,0.402,4.1,0,3.6,0
		C3.6,0.498,3.199,0.899,2.7,0.899z"/>
</g>
</svg>
