<?xml version="1.0" encoding="utf-8"?>
<!-- Generator: Adobe Illustrator 16.0.0, SVG Export Plug-In . SVG Version: 6.00 Build 0)  -->
<!DOCTYPE svg PUBLIC "-//W3C//DTD SVG 1.1//EN" "http://www.w3.org/Graphics/SVG/1.1/DTD/svg11.dtd">
<svg version="1.1" xmlns="http://www.w3.org/2000/svg" xmlns:xlink="http://www.w3.org/1999/xlink" x="0px" y="0px" width="1024px"
	 height="1024px" viewBox="0 0 1024 1024" enable-background="new 0 0 1024 1024" xml:space="preserve">
<g id="PeanutGrin" display="none">
</g>
<g id="BeerHands">
	<g id="Layer_9">
	</g>
	<g id="Layer_8">
	</g>
	<g id="BeerFill">
	</g>
</g>
<g id="WideEyes">
</g>
<g id="EyesOverMachine">
</g>
<g id="WhisperFace_1_">
	<path fill="#FFFFFF" d="M471.623,990.936c-49.742,0-96.978-12.589-133.005-35.446c-41.095-26.072-64.778-64.182-68.49-110.209
		l-15.948,1.287c-0.175-2.167,0.575-4.333,2.06-5.941c1.48-1.604,3.566-2.524,5.724-2.524c1.504,0,2.491,0.453,2.532,0.473
		c-1.862-0.871-8.788-5.853-10.424-7.238c-0.762-0.769-1.675-1.377-2.685-1.784c-4.828-1.949-11.387-13.52-14.91-19.735
		c-1.043-1.839-2.028-3.577-2.935-5.068c-13.091-21.551-19.277-42.794-18.389-63.14c1.547-35.389,18.469-73.182,44.162-98.631
		c1.604-1.589,2.463-3.782,2.362-6.039c-0.101-2.256-1.149-4.364-2.889-5.806c-13.53-11.208-17.528-42.182-18.842-52.36
		c-0.136-1.052-0.473-2.033-0.967-2.909c0.274-0.974,0.368-2.014,0.248-3.075c-0.091-0.8-0.179-1.595-0.265-2.39
		c-0.401-3.75-3.369-6.711-7.12-7.104c-0.281-0.03-0.562-0.044-0.839-0.044c-3.427,0-6.518,2.2-7.601,5.518
		c-0.05,0.154-0.097,0.31-0.157,0.464c-0.739,1.91-0.718,4.031,0.061,5.926c0.139,0.339,0.255,0.67,0.36,0.995
		c0.168,0.52,0.385,1.012,0.645,1.472c-0.118,0.419-0.203,0.853-0.252,1.297c-0.043,0.396-0.159,1.45-1.729,2.813
		c-0.615,0.535-1.146,1.16-1.571,1.854c-1.01,0.383-2.159,0.71-3.425,0.973c-0.302,0.063-0.6,0.144-0.893,0.24
		c-3.544,1.177-7.967,1.852-12.133,1.852c-2.678,0-5.151-0.283-6.786-0.775c-4.667-1.406-8.438-3.923-11.526-7.692
		c-0.252-0.307-0.526-0.595-0.82-0.861c-2.759-2.496-5.003-5.818-6.802-10.084c0.669-1.524,0.86-3.254,0.482-4.952
		c-3.534-15.875-0.536-33.471,3.105-43.715c0.104-0.296,0.192-0.597,0.262-0.902c2.301-10.096-3.93-19.27-9.427-27.363
		c-3.01-4.431-6.122-9.013-6.755-12.266c-0.956-4.92,1.421-22.483,4.504-26.768c2.36-0.378,4.463-1.801,5.679-3.926
		c1.498-2.618,1.396-5.856-0.263-8.375c-17.72-26.893-36.193-45.879-57.631-59.109c0.508-0.041,1.081-0.065,1.725-0.065
		c5.316,0,11.907,1.609,15.845,2.57c0.737,0.18,1.402,0.342,1.979,0.477c3.056,0.711,6.186,1.335,9.212,1.938
		c6.484,1.293,12.608,2.514,18.18,4.526c0.609,0.22,1.243,0.366,1.888,0.433l0.289,0.03c0.288,0.031,0.574,0.046,0.858,0.046
		c3.445,0,6.55-2.225,7.616-5.569c1.155-3.62-0.396-7.553-3.71-9.411c-0.737-0.413-1.48-0.818-2.224-1.223l-0.92-0.502
		c-0.338-0.185-0.688-0.345-1.05-0.48c-9.595-3.575-16.925-7.006-23.069-10.796c-2.313-1.428-4.446-3.039-6.092-4.485
		c9.072,2.316,18.464,5.244,26.598,7.821c3.469,1.099,7.328,1.899,11.472,2.377c0.305,0.035,0.61,0.053,0.917,0.053
		c0.186,0,0.371-0.006,0.557-0.02c1.068-0.074,2.137-0.145,3.206-0.214c3.799-0.249,7.727-0.506,11.674-0.972
		c8.201-0.968,15.788-2.625,22.55-4.923c3.09-1.05,5.884-2.655,8.585-4.207l0.95-0.545c2.338-1.334,3.849-3.755,4.02-6.442
		c0.17-2.687-1.022-5.279-3.174-6.898c-7.813-5.881-15.552-12.083-23-18.436c-29.94-25.536-58.103-57.542-81.442-92.558
		c-0.834-1.25-1.759-2.483-2.738-3.79c-3.995-5.329-5.98-8.556-4.913-10.135c3.581,0.842,11.726,9.488,14.478,12.41
		c5.563,5.905,8.63,9.16,13.396,9.16c0.003,0,0.005,0,0.008,0c2.086-0.002,4.097-0.748,5.662-2.101
		c7.427-6.42,18.451-9.009,30.123-11.751c6.469-1.52,13.158-3.091,19.285-5.409c9.51-3.597,22.002-8.547,34.303-14.95
		c5.439-2.831,11.1-5.99,17.304-9.66c0.997-0.589,2.152-1.43,4.109-2.865c1.654-1.213,5.325-3.905,7.053-4.813
		c3.327-0.402,6.173-2.885,6.877-6.351c0.88-4.33-1.917-8.553-6.246-9.433c-1.26-0.256-2.59-0.386-3.953-0.386
		c-6.504,0-13.012,2.915-18.753,5.485c-2.424,1.085-4.713,2.11-6.539,2.7c-8.687,2.801-17.748,5.228-26.511,7.573l-2.123,0.569
		c-1.824,0.489-3.694,1.03-5.594,1.582c-6.5,1.885-13.222,3.834-19.25,3.834c-1.595,0-3.102-0.14-4.48-0.416
		c-0.474-0.095-0.831-0.194-1.093-0.281c-0.075-0.498-0.197-0.99-0.363-1.463c-0.446-1.267,0.938-5.657,4.119-9.652
		c0.673-0.845,1.569-1.769,2.666-2.748c0.72-0.643,1.317-1.41,1.764-2.265c0.782-1.498,1.56-2.997,2.337-4.496
		c1.607-3.099,3.214-6.198,4.859-9.279c5.328-9.979,16.666-20.526,25.776-29.001c0.901-0.839,1.785-1.661,2.643-2.463
		c19.914-18.632,43.731-34.04,66.765-48.94l0.82-0.53c28.384-18.363,57.503-32.46,89.021-43.095
		c24.771-8.359,45.087-12.252,63.938-12.252c2.455,0,4.912,0.07,7.302,0.208c10.574,0.609,20.585,2.749,29.753,6.361
		c1.562,0.615,3.184,1.216,4.835,1.827c8.57,3.171,17.433,6.451,20.41,13.263c1.232,2.82,3.975,4.682,7.051,4.79
		c0.094,0.003,0.188,0.005,0.28,0.005c0.667,0,1.322-0.083,1.953-0.242c2.568-0.461,19.08-2.852,21.625-3.028l0.521-0.003
		c7.389,0,14.846,1.468,20.516,2.746c3.406,0.768,6.954,1.641,10.845,2.668c0.607,0.161,1.23,0.249,1.858,0.263
		c7.8,0.178,14.479,1.2,20.418,3.123c2.843,0.921,6.104,2.808,7.686,4.435c0.053,0.062,0.106,0.124,0.162,0.186
		c0.925,1.028,2.1,1.799,3.411,2.237l2.551,0.851c9.081,3.054,18.971,7.261,31.123,13.241c37.3,18.354,59.306,49.353,80.873,90.25
		c15.87,30.094,24.978,57.87,27.843,84.915c0.915,8.647,1.259,17.822,1.021,27.268c-0.087,3.418,2.01,6.514,5.216,7.703
		c0.908,0.337,1.849,0.5,2.779,0.5c2.355,0,4.647-1.042,6.198-2.94c3.519-4.309,7.524-8.726,11.907-13.127
		c12.299-12.353,27.483-23.034,40.714-31.853c1.118-0.745,2.24-1.497,3.367-2.253c12.1-8.116,24.612-16.509,37.982-19.513
		c0.329-0.074,0.646-0.111,0.943-0.111c1.539,0,2.559,1.075,2.998,2.08c0.571,1.305,0.339,2.531-0.689,3.645
		c-7.173,7.763-16.592,13.391-26.563,19.349c-3.843,2.296-7.815,4.67-11.637,7.171c-7.836,5.13-14.246,9.602-20.174,14.072
		c0,0-1.479,1.139-1.787,1.375c-0.124,0.086-0.246,0.177-0.366,0.271c0,0-1.018,0.798-1.427,1.124
		c-1.458,1.166-2.897,2.323-4.317,3.506c-1.726,1.439-3.401,2.905-4.955,4.274c-3.259,2.874-3.629,7.824-0.832,11.149
		c1.58,1.879,3.845,2.852,6.127,2.852c1.758,0,3.525-0.576,5-1.758c12.715-10.192,24.5-17.822,36.026-23.326l0.808-0.386
		c7.723-3.69,15.708-7.505,23.526-9.243c4.497-1,8.274-1.456,12.248-1.479l1.519-0.009c0.591,0,2.162,0,2.937,0.208
		c0.451,0.123,0.808,0.327,1.164,0.675c0.063,0.062,0.127,0.122,0.192,0.181c0.287,0.298,0.601,0.577,0.941,0.834
		c0.084,0.063,0.158,0.129,0.223,0.193c-0.186,0.307-0.366,0.614-0.545,0.919c-0.369,0.629-0.927,1.58-1.162,1.787l-0.621,0.327
		c-1.366,0.729-2.779,1.483-4.227,2.367c-1.546,0.944-3.357,1.665-5.454,2.499c0,0-0.812,0.325-0.866,0.348
		c-0.849,0.362-1.697,0.73-2.541,1.106c-3.134,1.361-5.73,2.396-8.241,3.398c-4.396,1.752-8.548,3.408-14.51,6.429
		c-11.879,6.017-28.864,15.437-42.322,26.143c-12.703,10.106-24.999,21.568-37.589,35.042c-8.729,9.341-17.813,19.542-25.097,30.843
		c-1.262,1.957-1.608,4.365-0.949,6.598c0.387,1.312,0.767,2.714,1.127,4.169c0.256,1.03,0.714,1.998,1.346,2.848
		c0.047,0.109,0.141,0.356,0.262,0.809c0.517,1.937,1.742,3.61,3.434,4.687c6.134,3.904,14.854,5.152,21.22,6.064
		c1.55,0.222,3.015,0.432,3.796,0.603c4.05,0.883,8.057,2.409,12.299,4.024c3.001,1.143,6.104,2.325,9.356,3.323
		c2.016,0.619,4.433,0.777,8.885,1.024c2.438,0.135,7.631,0.424,11.405,1.063c-3.311,2.396-8.436,3.308-15.217,4.275
		c-2.122,0.303-4.316,0.616-6.444,1.023c-1.254,0.24-2.55,0.608-3.922,0.998c-1.891,0.537-4.229,1.201-5.696,1.242
		c-1.356-0.924-2.927-1.381-4.491-1.381c-2.181,0-4.353,0.886-5.932,2.629c-2.967,3.274-2.717,8.333,0.558,11.3
		c8.835,8.004,20.913,12.063,35.897,12.062c2.165,0,4.441-0.083,6.769-0.248l1.479-0.107c2.525-0.186,5.138-0.378,7.705-0.378
		c2.707,0,4.922,0.226,6.619,0.675c-1.922,2.288-5.606,5.338-8.206,6.582c-1.162,0.556-2.291,1.176-3.383,1.775
		c-1.93,1.059-4.572,2.509-5.812,2.509c-0.227-0.019-0.452-0.028-0.676-0.028c-4.119,0-7.64,3.156-7.989,7.332
		c-0.368,4.403,2.876,8.27,7.279,8.639c3.767,0.315,10.026,3.938,15.057,6.849c3.313,1.917,6.441,3.728,9.441,5.056l0.321,0.142
		c7.903,3.499,16.071,7.115,20.146,13.24c-0.132,0.19-0.33,0.446-0.625,0.764c-3.967,4.287-7.564,5.166-11.746,5.166
		c-3.366,0-7.258-0.669-11.379-1.378c-0.827-0.142-1.662-0.286-2.505-0.426c-0.63-0.105-1.259-0.2-1.889-0.294l-1.085-0.165
		c-0.412-0.064-0.827-0.097-1.24-0.097c-1.191,0-2.373,0.266-3.457,0.786c-0.371,0.178-0.771,0.383-1.183,0.596
		c-0.151,0.078-0.331,0.171-0.51,0.262c-0.165-0.01-0.331-0.016-0.497-0.016c-1.079,0-2.176,0.221-3.229,0.688
		c-1.731,0.769-3.017,1.054-4.742,1.054c-0.24,0-0.486-0.006-0.738-0.017c-3.993-0.173-8.227-0.851-12.221-1.53
		c-0.446-0.076-0.896-0.113-1.342-0.113c-1.833,0-3.626,0.63-5.065,1.808c-1.79,1.464-2.859,3.632-2.931,5.944
		c-0.543,17.496,7.756,25.461,16.541,33.895c1.059,1.016,2.153,2.065,3.273,3.172c5.216,5.146,3.861,8.446,3.283,9.855
		c-3.807,9.279-24.34,19.468-39.233,19.468c-2.766,0-4.513-0.382-5.491-0.702c-0.812-0.266-1.651-0.396-2.487-0.396
		c-1.374,0-2.739,0.354-3.958,1.047c-1.96,1.116-3.358,3.008-3.851,5.209c-2.229,9.983-9.017,40.364-25.154,51.375
		c-2.282,1.558-3.6,4.183-3.484,6.943c0.116,2.761,1.648,5.267,4.054,6.628c18.886,10.687,33.488,30.662,43.4,59.37
		c9.551,27.661,12.669,57.551,13.604,77.754c1.841,39.822-5.4,94.361-50.354,128.036c-39.234,29.391-71.882,47.649-85.203,47.649
		c-1.738,0-2.422-0.355-2.485-0.426c-1.467-1.636-3.542-2.596-5.738-2.655c-0.072-0.002-0.145-0.003-0.217-0.003
		c-2.119,0-4.154,0.841-5.657,2.343c-36.967,36.968-86.487,38.77-138.915,40.678l-4.664,0.171
		C478.577,990.871,475.082,990.936,471.623,990.936z M227.613,529.928c-3.384,0-6.441,2.145-7.561,5.397
		c-2.561,7.445-0.349,14.472,1.603,20.672c1.066,3.389,4.212,5.627,7.647,5.627c0.52,0,1.045-0.052,1.571-0.157
		c4.01-0.808,6.773-4.479,6.396-8.552c-0.531-5.737-1.063-11.284-1.728-16.084c-0.508-3.668-3.466-6.508-7.151-6.866
		C228.131,529.939,227.871,529.928,227.613,529.928z"/>
	<g id="WhisperFace" opacity="0.9">
		<g opacity="0.8">
			<path fill="#C7886A" d="M738.466,477.372c-2.349-3.841-4.525-7.786-6.604-11.779c-2.313-4.443-4.505-8.967-6.562-13.534
				c-0.268-0.595-0.521-1.196-0.778-1.796c-0.043-0.109-0.084-0.211-0.12-0.304c-1.013-2.604-1.917-5.247-2.767-7.907
				c-1.505-4.718-2.799-9.551-3.709-14.419c-0.04-0.213-0.084-0.485-0.129-0.773c-0.033-0.447-0.064-0.896-0.094-1.343
				c-0.096-1.48-0.094-2.963-0.031-4.443c0.176-1.152,0.725-6.22,0.707-6.879c0.487-2.375,1.089-4.676,1.353-7.198
				c-0.614,5.87,0.257-0.022,0.522-1.462c1.046-5.667,0.33-12.729-5.73-15.586c-15.892-7.492-30.947,8.36-35.398,22.306
				c-3.908,12.244-3.023,26.18-0.756,38.618c2.283,12.521,6.77,24.555,11.828,36.187c5.493,12.632,12.063,28.719,26.38,32.844
				c5.894,1.697,12.508,0.705,17.785-2.342c7.816-4.514,10.665-11.69,11.722-20.172
				C747.039,489.723,742.188,483.459,738.466,477.372z"/>
			<path fill="#C7886A" d="M742.005,811.101c-7.738-7.637-18.209-7.896-27.567-3.524c-6.092,2.846-10.69,8.398-14.858,13.994
				c-0.305-3.11-0.662-6.223-1.064-9.339c-2.049-15.868-7.514-31.221-14.978-45.315c-3.128-5.906-6.636-11.551-10.093-17.262
				c-2.397-3.96-5.175-7.702-7.654-11.619c-0.188-5.112-1.915-9.977-5.148-14.139c-2.057-5.561-7.155-9.484-13.243-9.523
				c-5.936-0.038-9.993,3.287-12.549,7.998c-0.933,1.154-1.805,2.35-2.571,3.619c-1.95,3.092-2.085,6.532-2.432,10.028
				c-0.411,4.144,0.322,8.386,2.179,12.063c0.271,4.798,0.845,9.669,2.405,14.068c2.468,6.958,5.343,13.829,8.462,20.513
				c0.979,2.098,1.92,4.211,2.852,6.329c0.314,0.744,0.685,1.627,0.826,1.999c0.582,1.527,1.092,3.08,1.596,4.635
				c2.275,7.006,3.407,14.536,4.342,21.84c0.018,0.161,0.037,0.333,0.059,0.522c0.208,1.871,0.35,3.748,0.491,5.624
				c0.282,3.743,0.374,7.497,0.409,11.249c0.071,7.515-0.439,15.026-1.214,22.497c-0.143,1.25-0.283,2.5-0.424,3.749
				c-0.041,0.367-0.075,0.67-0.103,0.926c-0.021,0.148-0.044,0.305-0.069,0.479c-0.541,3.756-1.199,7.494-1.889,11.225
				c-1.392,7.537-3.112,15.011-4.948,22.45c-2.624,10.634,1.798,21.945,11.448,27.437c8.64,4.916,22.792,4.431,29.386-4.056
				c6.259-8.055,12.461-16.151,18.559-24.329c4.573-6.134,9.318-11.754,11.894-18.201c0.144-0.111,0.29-0.22,0.433-0.332
				c1.438-1.287,2.612-2.675,3.863-4.142c2.884-3.379,5.68-6.796,8.42-10.293c6.926-8.841,16.608-17.729,19.231-28.899
				C749.939,825.339,747.974,816.99,742.005,811.101z"/>
			<g>
				<path fill="#C7886A" d="M735.679,389.611c-8.393-61-62.706-97.394-124.922-93.537c-83.467-3.594-160.292,53.942-240.243,70.42
					c-37.785,7.787-74.828,14.667-111.932,0.824c-6.078-2.268-13.066-5.774-19.643-6.444c-16.617-1.69-2.805,23.544,2.326,27.452
					c9.639,7.34,27.468,19.032,39.227,20.995c78.058,11.355,143.204-2.96,214.287-37.67c38.747-18.923,86.129-39.996,125.971-34.339
					c31.281,4.439,61.386,27.272,77.662,53.814c8.018,13.083,0.962,27.955,6.359,39.744
					C717.168,457.946,737.356,401.809,735.679,389.611C733.972,377.205,736.822,397.924,735.679,389.611z"/>
				<path fill="#C7886A" d="M280.585,409.337c-0.03-0.005-0.062-0.01-0.093-0.016c-0.046-0.007-0.092-0.012-0.139-0.019
					C280.437,409.315,280.508,409.325,280.585,409.337z"/>
				<path fill="#C7886A" d="M280.585,409.337C282.546,409.662,283.979,409.834,280.585,409.337L280.585,409.337z"/>
			</g>
			<path fill="#C7886A" d="M371.297,600.362c-0.064,0-0.064,0.1,0,0.1S371.361,600.362,371.297,600.362z"/>
			<path fill="#C7886A" d="M295.479,685.266c-9.743,3.691-17.171,10.858-24.03,18.521c-8.31,9.284-13.673,21.58-18.268,33.023
				c-1.508,3.755-2.804,7.579-3.924,11.451c-0.018-0.764-0.043-1.526-0.052-2.292c-0.14-11.638,0.295-23.319,1.419-34.903
				c1.136-11.702,1.679-23.73,4.537-35.155c0.615-2.462-2.862-3.283-3.729-0.998c-4.172,11.004-9.134,21.544-11.99,33.002
				c-3.106,12.467-5.274,25.156-6.239,37.969c-0.009,0.113-0.014,0.227-0.022,0.34c2.557,6.491,5.01,13.023,7.522,19.532
				c0.333,0.861,0.677,1.717,1.018,2.574c4.864,8.285,9.234,16.832,13.48,25.447c1.476-4.731,3.342-9.302,5.704-13.527
				c0.639-2.658,1.367-5.296,2.203-7.907c0.54-10.119,3.225-20.132,6.57-29.651c6.713-19.098,18.425-35.955,29.442-52.669
				C300.594,687.788,298.102,684.272,295.479,685.266z"/>
		</g>
		<g opacity="0.8">
			<path fill="#FCC399" d="M743.303,836.255C743.286,836.268,743.285,836.269,743.303,836.255L743.303,836.255z"/>
			<path fill="#FCC399" d="M743.46,836.136c-0.006,0.005-0.013,0.009-0.019,0.014c-0.067,0.052-0.115,0.088-0.139,0.105
				C743.325,836.238,743.372,836.202,743.46,836.136z"/>
			
				<radialGradient id="SVGID_1_" cx="496.874" cy="643.1699" r="260.7112" gradientTransform="matrix(1 -0.0056 0.0094 1.6782 -6.0265 -433.4289)" gradientUnits="userSpaceOnUse">
				<stop  offset="0" style="stop-color:#FDC283"/>
				<stop  offset="1" style="stop-color:#F0B184"/>
			</radialGradient>
			<path fill="url(#SVGID_1_)" d="M761.655,741.024c-0.116-0.508-0.23-1.018-0.345-1.527c-5.26-23.519-10.602-44.39-25.601-63.84
				c-4.744-6.153-10.127-11.604-15.666-17.03c-10.197-9.989-18.053-19.478-16.335-34.518c0.127-1.112,6.953-5.514,8.002-6.608
				c3.506-3.66,6.392-7.915,8.819-12.351c9.205-16.816,12.107-38.62,15.754-57.221c3.389-17.284,4.409-34.691,2.226-52.198
				c-2.06-16.503-5.407-32.838-8.842-49.101c-1.99-9.423-4.701-18.72-6.181-28.247c-1.521-9.795-1.439-19.71-1.196-29.592
				c0.278-11.369-2.629-22.626-7.39-32.902c-3.449-7.446-8.172-14.202-14.178-19.812c-14.102-13.172-33.328-19.478-51.764-23.714
				c-25.657-5.896-50.605-9.247-76.706-4.088c-6.906,1.365-13.854,2.94-20.627,4.871c-26.059,7.427-50.578,19.927-74.077,33.207
				c-13.22,7.471-26.257,15.26-39.439,22.795c-27.658,15.811-61.08,25.208-92.782,27.382c-9.402,0.645-19.854,1.542-29.224,0.352
				c-13.152-1.669-24.86-7.513-37.312-11.615c-10.277-3.385-19.855-5.855-30.758-5.061c-4.73,0.345-10.712,8.91-12.305,12.709
				c-3.348,7.982-2.749,17.448-2.42,25.894c1.961,50.329-3.006,102.313,7.627,151.867c2.782,12.968,2.809,24.045,7.692,36.399
				c0.099,0.379,1.572,5.962,1.669,6.341c1.015,2.666,16.313,27.442,16.212,27.528c-0.221,0.188-0.442,0.376-0.66,0.575
				c-8.793,8.044-17.269,17.391-22.796,27.893c-7.172,13.627-13.692,26.963-16.313,42.42c-2.462,14.524-0.682,28.951,2.009,43.272
				c2.431,12.937,5.581,26.654,13.543,37.503c8.763,11.94,16.972,23.93,25.294,36.185c2.941,4.331,5.94,8.644,9.407,12.576
				c3.259,3.696,7.646,5.456,7.698,10.522c0.01,0.948,0.052,1.897,0.107,2.848c0.456,7.785-1.209,14.365,1.064,22.225
				c5.409,18.7,14.229,36.472,29.084,49.482c11.714,10.26,27.688,17.095,41.827,23.168c15.639,6.718,31.304,13.795,47.501,19.073
				c26.453,8.622,54.411,12.709,82.232,11.798c45.372-1.486,95.863-15.06,127.842-49.125c12.046-0.063,24.427-2.633,35.313-7.848
				c6.394-3.062,11.856-7.643,18.071-11.009c6.415-3.475,13.516-5.388,19.925-8.879c12.318-6.71,24.116-15.129,32.842-26.213
				c8.439-10.72,14.373-23.087,21.265-34.789c8.51-14.449,19.719-28.469,24.164-44.873
				C771.258,778.094,765.995,760.111,761.655,741.024z"/>
		</g>
		<g opacity="0.7">
			<path fill="#C7886A" d="M642.189,493.356c-3.021-1.375-6.974-2.785-10.339-2.806c-4.779-0.03-9.646,1.452-14.269,2.49
				c-8.203,1.842-16.444,3.243-24.834,3.833c-8.664,0.608-17.219-0.012-25.859-0.575c-7.804-0.509-16.47-3.534-24.16-1.521
				c-2.646,0.692-4.232,4.003-2.682,6.411c4.788,7.432,14.74,10.1,22.824,12.273c9.063,2.438,18.684,2.98,28.035,3.002
				c9.53,0.021,19.138-1.011,28.516-2.663c9.694-1.708,19.724-4.596,24.55-13.931C645.082,497.722,644.629,494.467,642.189,493.356z
				"/>
			<path fill="#C7886A" d="M373.405,516.918c-7.856-4.933-17.24-0.433-25.323,1.802c-7.348,2.032-14.744,3.561-22.202,5.104
				c-7.021,1.453-14.144,1.891-21.296,2.188c-4.224,0.177-15.9-0.095-14.781,6.911c1.111,6.96,10.257,9.835,15.99,11.685
				c7.169,2.313,15.48,2.197,22.936,1.955c7.904-0.256,15.944-2.047,23.67-3.639c8.918-1.839,20.042-2.467,25.103-11.044
				C380.631,526.575,378.406,520.059,373.405,516.918z"/>
		</g>
		<path fill="#C7886A" d="M411.021,527.704c0.135-0.233,0.279-0.463,0.419-0.694c0.03-0.062,0.063-0.118,0.092-0.183
			c0.226-0.518,0.464-1.026,0.709-1.528c-0.093,0.273-0.17,0.556-0.257,0.833c0.212-0.33,0.425-0.66,0.648-0.988
			c0.508-0.747,1.103-1.317,1.745-1.741c0.843-1.669,1.807-3.275,2.815-4.885c0.375-0.736,0.774-1.459,1.198-2.166
			c-0.455,0.292-0.889,0.615-1.297,0.973c3.239-4.575,6.853-8.889,9.793-13.796c5.159-8.614,10.376-24.136,3.878-33.147
			c-3.838-5.321-13.125-7.12-16.528,0.043c-2.491,5.246-2.119,10.253-2.243,15.879c-0.088,3.983-1.062,7.966-1.905,11.843
			c-1.873,8.607-4.2,16.856-7.501,25.005C400.651,527.933,408.224,531.409,411.021,527.704z"/>
		<g id="Eyes_1_">
			<g>
				<path fill="#F0E4CC" d="M639.65,443.795c0.013-12.348-6.032-25.723-15.905-33.296c-10.278-7.884-22.429-13.424-35.758-12.224
					c-5.167,0.465-9.976,1.53-14.453,3.166c-1.321,0.325-2.626,0.697-3.906,1.123c-13.589,4.524-22.382,14.847-26.68,27.129
					c-4.181,8.467-6.711,18.445-5.917,27.253c0.229,2.537,0.585,5.436,1.058,8.072c0.057,0.252,0.114,0.504,0.171,0.756
					c-0.88-7.201-0.812-6.697,0.206,1.511c0.584,3.451,1.964,6.808,3.663,9.838c3.554,6.337,9.076,11.094,15.098,14.946
					c8.416,5.384,20.168,7.638,30.023,6.594c13.729-1.455,24.897-6.009,35.589-14.845c10.284-8.5,14.928-21.513,16.431-34.287
					c0.018-0.153,0.021-0.305,0.036-0.458C639.528,447.289,639.648,445.521,639.65,443.795z"/>
				<path fill="#DACABB" d="M640.396,445.735c0.281,5.159-5.836-40.088-14.207-25.792c-1.742,2.979-5.793,18.764-6.786,22.076
					c-7.453,22.93-27.129,35.604-49.435,37.882c-32.994-8.314,3.348,26.11,31.354,14.422
					C616.801,487.863,641.512,465.668,640.396,445.735C640.137,440.973,640.406,445.891,640.396,445.735z"/>
			</g>
			<g>
				<path fill="#F0E4CC" d="M362.791,470.174c-0.214-3.67-0.74-7.697-1.94-11.253c-1.997-5.915-4.912-12.034-9.243-16.728
					c-1.032-1.373-2.088-2.717-3.121-3.941c-4.792-5.678-12.775-10.988-20.256-12.074c-12.75-1.849-22.409,1.086-32.385,9.139
					c-3.586,2.896-6.554,6.533-9.043,10.506c-1.646,2.086-3.052,4.279-4.068,6.455c-1.389,2.971-2.369,5.827-3.018,8.671
					c-4.385,13.169-2.666,29.818,5.06,41.341c5.641,8.413,12.234,13.696,21.741,17.429c9.762,3.831,20.398,0.398,29.424-3.343
					c8.179-3.391,14.04-10.639,19.167-17.456c4.83-6.421,6.56-15.083,7.302-22.89c0.087-0.915,0.236-2.276,0.255-2.638
					C362.787,472.305,362.852,471.218,362.791,470.174z"/>
				<path fill="#DACABB" d="M351.414,452.015c-9.966,8.565-6.918,28.757-21.247,37.409c-11.655,7.037-51.553,3.096-27.578,20.542
					c14.229,10.355,38.22,9.613,50.842-3.695C363.722,495.421,361.592,443.266,351.414,452.015
					C348.122,454.844,356.232,447.872,351.414,452.015z"/>
			</g>
		</g>
		<path opacity="0.9" fill="#C7886A" d="M747.044,817.145c-0.743-14.383-21.672-14.553-22.347-0.12
			c-0.048,0.627-0.069,0.989-0.067,1.105c-0.099,0.581-0.198,1.161-0.318,1.738c-0.651,3.314-0.432,3.196-0.724,4.847
			c-0.604,3.409-1.589,6.745-2.682,10.025c-2.097,6.295-5.516,12.672-8.897,18.815c-3.487,6.335-7.644,12.523-11.911,18.358
			c-1.809,2.475-3.88,4.853-5.896,7.161c-2.017,2.308-4.155,5.886-6.754,7.495c-2.555,1.583-0.939,5.502,1.985,4.844
			c3.231-0.729,6.456-0.417,9.644-1.646c3.601-1.389,7.007-3.021,10.232-5.138c7.673-5.034,13.949-11.082,19.527-18.329
			C739.42,852.553,747.96,834.852,747.044,817.145z"/>
		<path opacity="0.8" fill="#C7886A" d="M686.549,788.307c-2.967-25.769-13.537-48.25-33.357-65.061
			c-7.472-6.338-15.442-12.304-23.431-17.979c-1.003,0.77-1.921,1.664-2.732,2.665c5.075,17.219,14.273,31.965,22.13,47.953
			c7.118,14.487,8.923,30.577,9.939,46.482c0.461,7.216,0.395,14.685,1.264,21.847c0.869,7.153,4.236,13.979,5.598,21.105
			c1.284,6.726,2.217,13.51,3.29,20.271c0.429,2.703,0.912,5.398,1.285,8.11c0.396,2.882-0.102,7.121,0.911,9.768
			c0.068,0.179,0.141,0.355,0.208,0.535c0.134,0.361,0.183,0.7,0.171,1.019c0.159,0.024,0.311,0.068,0.473,0.085
			c0.07-0.255,0.135-0.511,0.214-0.764c1.09-3.511,2.374-6.938,3.809-10.322c1.466-3.459,2.985-7.145,4.746-10.669
			c1.046-4.167,2.117-8.33,2.659-12.642c0.859-6.829,1.984-13.657,2.585-20.515C687.533,816.239,688.155,802.258,686.549,788.307z"
			/>
		<radialGradient id="SVGID_2_" cx="143.2979" cy="608.7471" r="0.5" gradientUnits="userSpaceOnUse">
			<stop  offset="0.111" style="stop-color:#FDC283"/>
			<stop  offset="1" style="stop-color:#C7886A"/>
		</radialGradient>
		<path opacity="0.8" fill="url(#SVGID_2_)" d="M295.873,696.05c-14.224,10.059-18.952,27.104-25.568,42.227
			c-2.35,5.37-5.427,10.388-7.769,15.763c-2.261,5.188-2.484,10.398-4.019,15.745c-0.726,2.528-4.382,2.528-5.107,0.001
			c-1.126-3.924-3.625-7.399-4.955-11.292c-2.296-6.719-3.962-13.957-5.307-20.934c-2.423-12.571-1.906-25.29,0.669-37.796
			c1.598-7.761,3.439-15.473,6.092-22.948c2.378-6.704,5.031-13.474,4.606-20.729c-0.055-0.934-0.979-1.511-1.828-1.063
			c-10.085,5.324-14.947,18.031-18.807,28.192c-9.912,26.096-10.896,56.509-0.705,82.531c2.615,6.677,5.553,15.191,9.915,20.929
			c2.996,3.941,7.442,6.697,9.839,11.088c3.8,6.958,3.275,16.156,10.713,20.795c0.371,0.231,0.929,0.273,1.314-0.004
			c10.8-7.771,7.846-26.042,9.971-37.217c3.271-17.191,6.766-34.06,13.558-50.271c4.868-11.62,10.813-22.841,17.761-33.354
			c0.455-0.688,0.914-1.387,1.375-2.089C303.906,693.871,299.23,693.676,295.873,696.05z"/>
		<g>
			<path fill="#FDC48C" d="M759.832,674.367c0.046,0.156,0.098,0.31,0.139,0.469C759.91,674.605,759.865,674.456,759.832,674.367z"
				/>
			<path fill="#FDC48C" d="M750.635,574.625c20.21,6.614,73.999-17.797,49.551-41.917c-10.426-10.294-18.644-15.852-17.329-33.3
				c0.881-11.687-9.865-7.175-19.331-12.167c-2.052-16.762-19.678-6.513-22.001-12.151c-5.004-12.135-8.567-27.145-12.249-40.07
				c-27.96,1.28-10.2,62.086-9.486,76.688c1.342,27.404-0.084,53.44-4.697,80.778c-1.446,8.57-3.983,25.398-12.349,30.546
				c-3,1.843-8.154-0.02-10.654,5.22c-0.7,1.469,40.51,44.333,44.905,52.83c19.316,37.344,25.697,95.588,13.518,137.502
				c-8.397,28.894-28.619,49.96-48.085,71.884c-7.892,8.891-19.943,18.466-31.594,21.889c-2.962,0.87-7.528-3.537-8.014-3.296
				c6.619-14.652,10.753-29.43,12.774-45.333c-1.18,9.262,1.694-10.271,1.404-7.16c1.294-13.873,0.712-28.454-2.808-42.001
				c-5.261-20.242-39.937-76.717-66.063-72.636c-21.957,3.429,21.13,33.952,25.52,39.45c19.172,21.021,22.807,57.282,13.696,83.672
				c-3.424,66.11-73.257,96.119-128.563,105.92c-58.878,10.435-115.752-6.839-169.999-27.552
				c-52.403-20.009-71.074-86.059-64.702-136.993c1.969-15.761,3.029-31.365,9.563-46.104c1.203-2.714,4.554-31.233-6.469-18.976
				c-5.011,5.572-26.495,61.409-27.65,60.6c-44.8-31.351-39.124-106.169-5.679-146.519c7.415-8.929,38.792-40.517,7.917-22.659
				c-0.271-9.473-10.837-14.063-9.582-20.91c-6.019-12.019-6.745-29.091-9.226-42.159c-6.865-36.175-7.203-71.912-7.486-108.63
				c-0.05-6.385-2.326-72.424,6.586-68.512c4.929-1.12,19.088,11.901,26.186,15.666c14.421,7.647,29.896,13.205,45.627,17.467
				c81.731,22.143,149.096-15.846,220.477-49.174c23.012-10.745,44.318-13.247,69.176-8.307
				c11.409,2.268,22.285,5.799,32.224,11.956c10.368,6.423,18.866,16.168,29.744,21.688c12.015,6.097,30.491-5.178,33.298-16.939
				c5.359-22.467-24.553-33.319-39.439-42.084c-73.354-43.191-130.49-10.85-199.013,22.668
				c-51.932,25.403-104.065,33.621-160.176,18.536c-29.252-7.865-67.655-31.624-77.967,9.563
				c-9.717,38.809-1.687,86.674,3.031,125.868c-4.788-9.652-15.453-19.404-22.299-28.712c-9.668-13.147-16.456-28.486-25.603-41.156
				c-16.068-22.256-20.762,21.573-19.128,29.973c2.244,11.533,18.875,24.733,16.234,36.324
				c-8.669,24.388-9.134,68.629,20.791,77.645c10.356,3.119,35.276,0.067,36.797-13.741c2.954,22.887,8.354,46.464,21.673,57.497
				c-26.27,26.02-44.859,65.867-46.524,103.965c-1.056,24.158,7.142,47.226,19.544,67.643c4.776,7.862,12.68,24.432,21.687,28.068
				c0.657,0.855,13.891,10.552,13.762,8.954c8.886,110.16,122.14,156.441,220.154,152.814c53.888-1.995,108.587-2.832,148.94-43.186
				c14.49,16.155,84.783-35.933,98.439-46.163c42.751-32.024,55.926-83.419,53.55-134.808
				c-2.212-47.841-14.856-117.575-61.056-143.718C738.973,619.408,746.518,593.057,750.635,574.625z M227.618,537.928
				c0.627,4.53,1.146,9.886,1.687,15.726C227.584,548.187,225.908,542.899,227.618,537.928z M230.708,572.12
				c0.112-0.29,0.207-0.579,0.302-0.869c0.087,0.812,0.177,1.624,0.27,2.44C231.113,573.178,230.928,572.655,230.708,572.12z"/>
			<path fill="#FDC48C" d="M211.461,506.64c-0.014-0.002-0.027-0.004-0.041-0.006C210.76,505.039,210.773,505.04,211.461,506.64z"/>
			<path fill="#FDC48C" d="M255.797,401.862c-0.064,0-0.064,0.1,0,0.1S255.861,401.862,255.797,401.862z"/>
			<path fill="#FDC48C" d="M269.797,625.862c-0.064,0-0.064,0.1,0,0.1S269.861,625.862,269.797,625.862z"/>
		</g>
		<g>
			<path fill="#C7886A" d="M765.529,516.092c-0.382-6.808,0.09-13.967-3.53-19.997c-3.839-6.393-14.511-8.67-19.917-3.251
				c0,0.003-0.001,0.006-0.001,0.008c0.126,0.253,0.204,0.548,0.208,0.894c0.111,9.402-0.052,18.806-0.524,28.195
				c0.253,1.71,0.468,3.386,0.573,4.992c0.233,3.537,0.513,7.138,0.545,10.727c3.057,8.778,8.533,17.113,13.32,24.697
				c0.33,0.524,1.125,0.437,1.302-0.172c2.865-9.844,5.728-19.48,7.265-29.699C765.566,527.191,765.83,521.44,765.529,516.092z"/>
			<path fill="#C7886A" d="M228.104,557.382c-1.298-9.153-0.852-18.851-4.438-27.448c-2.594-6.219-12.84-4.301-14.075,1.854
				c-1.819,9.056,1.106,18.809,3,27.699c1.072,5.035,2.646,10.108,4.707,14.948c-3.291,0.215-6.655,1.238-9.88,1.587
				c-4.524,0.49-9.15,0.77-13.697,0.526c-9.027-0.481-17.54-4.282-22.317-12.156c-0.697-1.149-2.656-0.43-2.235,0.916
				c3.186,10.18,8.746,18.907,18.923,23.217c10.53,4.459,25.581,6.769,36.359,2.202c2.166-0.918,3.548-3.121,4.079-5.472
				c0.491-0.569,0.82-1.322,0.871-2.235C229.875,574.55,229.295,565.784,228.104,557.382z"/>
		</g>
		<g>
			<path fill="#895221" d="M848.094,484.334c-5.365-8.47-15.385-12.831-24.189-16.729c-7.762-3.436-18.71-11.861-27.069-12.561
				c4.627,0.387,9.325-3.105,13.365-5.038c5.841-2.794,20.565-14.756,10.501-20.112c-6.182-3.29-15.359-2.332-22.112-1.855
				c-12.985,0.916-26.685-0.661-36.732-9.763c3.637,3.294,11.597-0.231,15.617-1.001c10.222-1.958,23.349-1.694,29.534-11.689
				c7.391-11.943-22.416-9.694-27.319-11.2c-7.517-2.308-14.587-5.834-22.299-7.516c-6.136-1.338-27.432-2.187-26.265-12.457
				c0.968-8.54,6.114-15.769,7.325-24.158c2.396-16.601,5.56-33.399,7.078-50.1c1.383-15.208,1.571-30.526-0.038-45.725
				c-3.288-31.037-14.238-60.339-28.722-87.804c-20.607-39.078-43.701-73.661-84.417-93.696
				c-10.325-5.081-21.188-9.975-32.105-13.646c-15.72-5.286-31.526-10.333-47.721-13.984c-7.559-1.704-15.215-3.023-22.988-2.938
				c-2.131,0.023-23.446,3.136-23.388,3.27c-5.049-11.549-18.871-15.085-29.643-19.329c-10.299-4.057-21.187-6.269-32.226-6.904
				c-25.211-1.452-50.518,4.44-74.258,12.451c-32.2,10.866-62.267,25.493-90.809,43.958c-23.701,15.333-48.031,31.003-68.705,50.346
				c-10.013,9.368-23.498,21.342-30.011,33.539c-3.566,6.681-6.952,13.447-10.552,20.117c-4.076,7.549-11.282,19.074,1.751,21.681
				c10.849,2.169,22.628-2.348,32.965-5.118c9.713-2.604,19.443-5.167,29.018-8.255c7.405-2.388,17.642-9.109,25.196-7.573
				c-2.429-0.494-11.778,7.261-14.271,8.735c-5.562,3.289-11.192,6.466-16.925,9.449c-10.824,5.634-22.036,10.25-33.439,14.563
				c-16.391,6.2-38.223,6.845-51.81,18.59c-3.122,2.699-23.887-31.305-34.378-18.646c-6.659,8.036,2.858,17.29,7.06,23.592
				c22.888,34.337,51.517,67.434,82.908,94.208c8.602,7.336,17.493,14.438,26.587,21.156c-8.211,0.919-15.41,5.637-23.663,7.162
				c-1.908,0.302-3.835,0.543-5.751,0.755c-0.175-0.03,0.449-0.189,0.18-0.21c-9,0.486-18.849,0.394-27.501-2.349
				c-9.183-2.91-18.65-5.841-27.985-8.187c-3.021-0.759-5.614-0.406-8.575-0.792c-2.088-0.272-2.988,1.882-2.687,3.57
				c-4.326,5.651,9.044,14.607,12.125,16.508c7.661,4.726,16.055,8.346,24.477,11.484c1.025,0.562,2.056,1.116,3.075,1.687
				c-0.104-0.011-0.209-0.021-0.313-0.032c-8.966-3.239-19.006-4.571-28.297-6.732c-7.247-1.686-28.941-7.996-32.386,3.448
				c1.296,0.445,1.248,2.56-0.151,2.871c-0.12,0.382-0.139,0.815,0.009,1.272c40.021,21.627,62.984,59.417,84.091,97.966
				c3.822,6.981,8.905,13.069,11.971,20.473c3.153,7.617,4.857,17.306,11.479,22.947c4.215,3.592,13.7,4.207,17.089-1.514
				c4.464-7.535-2.035-23.324-3.674-31.021c-2.585-12.146-4.914-24.402-5.442-36.836c-0.807-18.959,3.908-36.757,7.887-55.106
				c1.862-8.59,3.336-17.036,4.339-25.773c0.591-5.149-0.331-10.571,6.23-11.147c8.125-0.713,21.05,7.68,27.324,12.01
				c5.811,4.011,9.057,10.324,14.564,14.611c18.123,14.105,46.088,16.458,68.192,15.389c25.691-1.242,49.853-6.76,73.839-15.688
				c28.381-10.564,56.402-23.907,83.563-37.256c26.479-13.014,52.503-28.743,81.788-34.532c31.473-6.222,62.449-6.332,89.369,13.96
				c16.196,12.208,27.713,28.279,39.273,44.675c0.705,1,0.563,2.226-0.037,3.19c0.125,0.25,0.182,0.555,0.137,0.919
				c-2.444,19.792-1.622,42.423,2.183,61.954c1.891,9.709,5.014,19.196,10.15,27.693c3.709,6.136,10.676,17.264,17.267,20.581
				c14.889,7.493,33.688,6.207,49.854,8.063c5.002,0.575,9.986,1.286,14.958,2.114c12.376,2.065,23.015,4.778,32.819-5.818
				C849.949,490.642,849.955,487.273,848.094,484.334z"/>
			<g>
				<path fill="#7B401A" d="M812.323,487.15c-12.854-9.764-28.629-7.9-43.718-11.68c-6.642-1.664-12.054-4.048-18.037-7.7
					c-5.095-3.11-11.646-9.076-13.325-14.915c-0.033-0.115-0.073-0.221-0.112-0.329c5.846,3.785,12.565,6.266,19.289,7.921
					c8.762,2.156,20.254,3.835,28.524-0.639c3.525-1.907,5.707-5.911,5.732-9.864c0.035-5.648-3.65-9.147-8.497-11.132
					c-5.861-2.4-14.054-1.24-20.331-1.7c-0.734-0.059-1.468-0.13-2.199-0.212c-0.123-0.019-0.258-0.04-0.414-0.064
					c-1.469-0.228-2.922-0.545-4.37-0.88c-3.563-0.822-5.514-1.611-7.363-2.517c-5.06-2.475-8.052-4.779-10.67-8.695
					c-1.656-2.478-2.808-4.917-3.547-7.406c0.562,0.536,1.134,1.054,1.72,1.543c5.066,4.224,13.514,7.935,19.706,3.874
					c3.44-2.257,4.862-6.55,2.75-10.263c-2.117-3.722-6.483-5.875-10.221-7.752c-3.021-1.518-4.968-3.941-6.872-6.643
					c-2.017-2.861-3.191-5.872-3.994-9.259c-0.782-3.305-0.877-8.333-2.943-11.046c-0.875-1.147-1.991-1.49-3.33-0.892
					c-3.973,1.772-5.88,8.323-6.333,12.277c-0.61,5.328-0.198,10.847,1.506,15.951c-0.33,0.378-0.601,0.827-0.779,1.355
					c-2.808,8.31-4.9,15.828-3.16,24.615c1.434,7.24,6.135,13.797,11.787,18.497c-2.795-0.107-5.723,2.097-4.726,5.563
					c1.151,4.003,1.882,8.181,2.761,12.261c0.876,4.069,4.275,8.246,6.777,11.433c5.161,6.572,11.847,11.186,19.356,14.73
					c7.865,3.711,16.174,6.413,24.736,7.88c4.604,0.788,9.271,1.554,13.938,1.756c3.35,0.145,5.999-0.354,9.071-1.718
					c-1.964,0.872,1.584,0.127,1.654,0.114c1.236-0.23,2.804-1.185,4.006-1.758C815.046,497.784,816.354,490.212,812.323,487.15z"/>
				<path fill="#7B401A" d="M278.028,138.37c-4.558,0.593-9.206,2.554-13.679,3.696c-5.064,1.293-10.165,2.449-15.264,3.602
					c-11.262,2.547-22.604,4.887-33.666,8.22c-11.274,3.396-22.524,7.542-32.879,13.186c-4.533,2.471-9.61,6.102-12.867,10.191
					c-4.715,5.918-10.277,17.667-0.623,22.319c3.182,1.533,6.089,2.007,9.515,0.956c0.619-0.254,1.238-0.509,1.857-0.764
					c0.104-0.036,0.401-0.147,0.897-0.336c1.764-0.657,3.5-1.376,5.24-2.095c1.939-0.801,3.791-1.889,5.716-2.765
					c1.158-0.493,3.114-1.338,3.79-1.664c0.653-0.315,1.317-0.608,1.982-0.899c-0.286,0.142,1.938-0.783,2.336-0.932
					c1.193-0.449,2.402-0.859,3.609-1.271c2.483-0.847,5.003-1.586,7.527-2.301c5.261-1.491,10.603-2.692,15.953-3.809
					c10.412-2.172,20.83-4.249,31.279-6.239c10.463-1.992,22.37-3.312,31.95-8.175c6.635-3.368,9.706-11.885,7.89-18.847
					C296.054,140.703,287.133,137.186,278.028,138.37z"/>
				<path fill="#7B401A" d="M491.727,47.555c-16.584-4.573-37.889-2.274-52.662,6.773c-2.207,1.352-1.253,4.596,1.256,4.738
					c8.631,0.49,16.575-1.893,24.887-3.817c8.631-1.998,17.318-3.604,26.117-4.699C492.949,50.348,493.52,48.049,491.727,47.555z"/>
				<path fill="#7B401A" d="M230.84,345.665c-6.521,1.45-12.093,6.369-17.582,8.235c-6.713,2.282-13.883,3.723-20.914,4.553
					c-7.641,0.902-15.364,0.987-22.99,1.925c-6.708,0.825-13.259,2.066-20,2.719c-1.039,0.101-1.245,1.437-0.241,1.797
					c6.655,2.388,13.159,5.171,19.97,7.066c8.246,2.295,17.381,2.835,25.9,3.126c8.232,0.282,16.478-0.295,24.527-2.08
					c7.868-1.745,18.705-5.271,22.114-13.261C244.834,352.224,239.573,343.725,230.84,345.665z"/>
				<path fill="#7B401A" d="M228.874,375.025c-8.263,0-14.954,5.664-22.31,8.913c-6.494,2.87-13.781,4.614-20.758,5.79
					c-16.185,2.729-32.189,3.264-48.448,1.156c-1.842-0.239-2.211,2.808-0.43,3.195c8.537,1.854,16.873,4.2,25.37,6.137
					c8.198,1.869,16.789,3.405,25.219,3.166c8.604-0.244,17.007-1.752,25.065-4.766c8.691-3.25,18.451-7.306,21.56-16.687
					C235.261,378.554,232.26,375.025,228.874,375.025z"/>
				<path fill="#7B401A" d="M578.643,67.507c3.165,0.301,6.389,0.849,9.484,1.579c1.544,0.364,3.093,0.792,4.623,1.213
					c1.865,0.513,3.36-0.114,4.966,1.05c2.756,2,5.873-1.826,4.425-4.449c-1.676-3.037-2.085-5.925-4.577-8.616
					c-2.721-2.939-7.43-5.512-11.213-6.738c-8.794-2.847-17.95-3.661-27.147-3.541c-9.791,0.127-19.411,1.689-29.041,3.344
					c-4.153,0.713-8.299,1.469-12.451,2.187c-3.34,0.577-6.617,2.303-9.838,3.386c-5.029,1.69-6.196,10.064-0.04,11.196
					c15.008,2.76,30.942,0.329,46.11-0.73C562.111,66.817,570.486,66.73,578.643,67.507z"/>
				<path fill="#7B401A" d="M618.446,68.271c-5.504,2.83-10.786,6.008-15.796,9.587c-0.298-0.581-0.892-0.997-1.813-0.966
					c-12.975,0.436-25.268,4.231-36.905,9.833c-11.615,5.591-23.054,12.911-30.251,23.789c-1.668,2.522,1.67,5.758,4.171,4.148
					c9.85-6.34,18.333-14.461,28.278-20.698c9.625-6.037,20.34-10.538,31.578-12.364c-1.163,0.93-2.315,1.877-3.443,2.857
					c-3.95,3.432-7.147,7.504-10.202,11.73c-3.277,4.534-5.396,8.363-4.16,13.987c0.663,3.021,4.171,4.122,6.709,2.807
					c4.146-2.148,5.6-5.12,7.879-9.054c2.321-4.006,5.204-7.663,8.106-11.257c5.589-6.921,12.374-12.759,19.606-17.89
					C626.114,72.005,622.812,66.027,618.446,68.271z"/>
				<path fill="#7B401A" d="M215.055,475.584c-3.205-9.644-7.683-18.592-12.753-27.375c-5.012-8.68-10.556-16.954-16.536-24.99
					c-5.898-7.927-12.369-17.237-22.888-18.298c-2.262-0.228-5.095,1.855-5.426,4.141c-1.357,9.358,4.405,17.108,10.051,24.115
					c5.72,7.099,11.53,14.166,17.069,21.405c5.748,7.513,11.004,15.425,16.094,23.394c4.895,7.661,10.783,16.068,13.82,24.642
					c0.859,2.426,5.103,2.324,4.797-0.601C218.337,492.952,217.967,484.349,215.055,475.584z"/>
				<path fill="#7B401A" d="M733.512,312.115c-2.566-3.141-4.704-6.096-8.38-8.188c-0.22-0.125-0.452-0.238-0.68-0.356
					c-0.859-1.822-1.97-3.602-3.604-5.369c-2.099-2.27-4.722-4.06-7.118-6.009c-6.238-5.071-12.658-9.932-19.179-14.633
					c-10.165-7.329-20.924-13.826-32.278-19.139c-25.491-11.927-53.322-18.246-81.525-15.643
					c-48.938,4.518-92.363,27.654-135.088,50.236c-10.144,5.362-20.326,10.652-30.664,15.632c-4.905,2.363-9.857,4.625-14.85,6.8
					c-1.144,0.498-2.292,0.983-3.441,1.468c-0.071,0.029-0.138,0.055-0.218,0.087c-2.913,1.172-5.853,2.278-8.804,3.353
					c-10.443,3.804-21.158,6.845-32.07,8.963c-2.613,0.507-5.242,0.925-7.875,1.31c-0.047,0.007-0.083,0.012-0.127,0.019
					c-0.005,0-0.008,0.001-0.012,0.001c-1.332,0.15-2.667,0.268-4.003,0.384c-5.858,0.512-11.734,0.586-17.61,0.45
					c-2.766-0.064-5.527-0.242-8.284-0.461c-1.396-0.111-2.789-0.261-4.182-0.412c-0.196-0.021-0.362-0.039-0.516-0.055
					c-0.043-0.006-0.079-0.012-0.124-0.019c-6.594-0.971-13.034-2.538-19.418-4.432c-3.113-0.924-6.188-1.973-9.246-3.06
					c-1.527-0.543-3.041-1.125-4.555-1.707c-0.318-0.122-0.581-0.223-0.798-0.305c-0.195-0.083-0.418-0.178-0.688-0.292
					c-6.502-2.747-12.825-5.904-19.027-9.269c-12.02-6.52-23.466-13.957-34.45-22.093c-0.146-0.108-0.276-0.205-0.396-0.294
					c-0.225-0.176-0.592-0.462-1.168-0.906c-1.31-1.01-2.605-2.039-3.9-3.067c-2.59-2.056-5.139-4.164-7.674-6.286
					c-5.483-4.589-10.943-9.199-16.283-13.958c-7.301-6.506-14.456-14.239-22.566-19.706c-4.021-2.71-8.456-5.956-13.22-7.232
					c-3.41-0.914-9.484,0.074-11.555,3.569c-7.689,12.979,7.296,27.935,15.218,37.312c8.826,10.448,18.621,20.166,28.82,29.268
					c21.075,18.808,44.355,35.656,70.243,47.167c24.852,11.05,51.173,17.29,78.483,15.989c23.648-1.127,46.63-7.063,68.591-15.664
					c22.622-8.859,44.239-19.82,65.838-30.885c10.265-5.259,20.563-10.442,30.956-15.443c4.955-2.384,9.951-4.678,14.984-6.893
					c0.944-0.415,4.578-1.938,5.67-2.408c2.248-0.896,4.504-1.771,6.771-2.62c10.559-3.951,21.378-7.189,32.401-9.555
					c2.644-0.567,5.305-1.049,7.97-1.5c1.335-0.226,2.676-0.422,4.017-0.617c0.007-0.001,0.013-0.002,0.02-0.003
					c6.328-0.712,12.663-0.96,19.027-0.783c3.2,0.089,6.394,0.35,9.578,0.668c0.302,0.03,0.549,0.054,0.76,0.074
					c0.014,0.002,0.024,0.004,0.039,0.006c1.529,0.228,3.051,0.509,4.57,0.791c6.461,1.197,12.799,2.993,19.009,5.122
					c1.416,0.486,2.816,1.016,4.216,1.546c0.145,0.055,0.274,0.104,0.395,0.149c0.023,0.01,0.041,0.018,0.065,0.028
					c2.741,1.167,5.413,2.501,8.069,3.847c5.789,2.934,11.362,6.282,16.803,9.813c3.387,2.198,6.686,4.527,9.949,6.902
					c0.371,0.272,0.74,0.549,1.11,0.823c0.136,0.104,0.269,0.207,0.44,0.339c1.616,1.249,3.209,2.526,4.798,3.807
					c3.203,2.581,6.371,5.215,9.427,7.968c2.59,2.333,5.285,4.472,8.171,6.445c1.087,0.612,2.203,1.117,3.343,1.536
					c0.617,0.883,1.315,1.743,2.161,2.578c2.634,2.599,6.368,4.651,9.459,6.764c7.394,5.056,18.442,2.679,24.41-3.369
					C742.068,332.242,740.477,320.638,733.512,312.115z"/>
				<path fill="#7B401A" d="M873.036,250.986c0.56,0.417,0.499,0.345-0.179-0.218c-1.33-1.298-2.891-2.191-4.684-2.678
					c-2.055-0.55-4.449-0.483-6.571-0.471c-4.806,0.028-9.237,0.625-13.937,1.669c-9,2-17.761,6.263-26.046,10.219
					c-13.452,6.423-25.922,14.956-37.583,24.303c1.58-1.393,3.166-2.779,4.786-4.13c1.378-1.148,2.776-2.271,4.177-3.392
					c0.459-0.365,0.921-0.727,1.383-1.089c-0.615,0.491,1.864-1.425,2.033-1.553c6.405-4.831,13.027-9.373,19.738-13.766
					c13.396-8.77,28.72-15.909,39.693-27.785c7.652-8.283,0.104-21.316-10.882-18.847c-16.15,3.629-30.441,13.856-44.032,22.915
					c-14.648,9.764-29.493,20.357-41.947,32.866c-12.106,12.16-23.053,25.908-29.995,41.68c-3.515,7.986-5.913,16.028-7.201,24.658
					c-1.347,9.02,0.018,17.642,1.491,26.564c0.365,2.215,2.591,3.01,4.466,2.536c-1.104,4.752-1.951,9.595-2.552,14.533
					c-0.204,1.674,2.296,2.157,3.037,0.814c7.388-13.393,17.751-25.149,28.159-36.288c11.447-12.25,23.597-23.799,36.725-34.243
					c11.512-9.157,26.816-18.104,40.957-25.267c8.91-4.514,13.359-5.732,22.39-9.655c0.804-0.358,1.611-0.708,2.42-1.053
					c0.185-0.074,0.394-0.157,0.658-0.263c2.326-0.926,4.563-1.813,6.697-3.117c1.463-0.893,2.971-1.679,4.483-2.489
					c2.669-1.43,3.623-3.849,5.12-6.2C878.209,257.524,876.225,253.283,873.036,250.986z"/>
			</g>
		</g>
		<g id="Mouth_4_">
			
				<radialGradient id="SVGID_3_" cx="503.5723" cy="837.2783" r="150.655" gradientTransform="matrix(0.7167 0.2419 -0.1185 0.481 229.8604 309.5058)" gradientUnits="userSpaceOnUse">
				<stop  offset="0" style="stop-color:#390000"/>
				<stop  offset="0.3233" style="stop-color:#3E0300"/>
				<stop  offset="0.8114" style="stop-color:#4B0E00"/>
				<stop  offset="1" style="stop-color:#501300"/>
			</radialGradient>
			<path fill="url(#SVGID_3_)" d="M531.09,832.683c-0.932-1.899-2.144-3.634-3.055-5.536c-1.559-3.254-2.898-6.654-4.61-9.805
				c-1.759-3.236-3.92-6.148-6.106-8.996c-2.633-3.426-5.268-6.913-8.441-9.676c-3.961-3.449-8.463-5.891-13.031-8.019
				c-2.869-1.336-5.785-2.512-8.675-3.78c-11.122-4.883-22.476-8.763-34.233-10.852c-13.619-2.419-27.113-3.055-40.426,1.794
				c-6.178,2.249-12.081,5.487-17.268,10.02c-0.758,0.679-1.513,1.366-2.267,2.052c0.289-0.263-0.458,0.412-2.251,2.033
				c-0.453,0.531-0.865,1.104-1.236,1.717c-0.521,0.806-1.043,1.612-1.564,2.418c0.93-1.301,0.571-0.725-1.074,1.73
				c-1.357,2.859-2.605,5.661-2.924,8.963c-0.337,3.485,0.307,6.874,0.314,10.34c0.01,3.432-0.804,7.228,0.531,10.455
				c1.171,2.831,3.95,4.58,6.5,5.125c3.654,0.781,7.51-0.041,11.162-0.477c1.895-0.226,3.795-0.432,5.697-0.559
				c7.648-0.508,15.344,0.113,22.942,1.176c-0.126-0.006,1.737,0.292,1.956,0.332c0.97,0.179,1.936,0.388,2.9,0.596
				c1.926,0.416,3.835,0.922,5.736,1.459c3.645,1.032,7.222,2.366,10.727,3.92c0.367,0.185,1.336,0.653,1.611,0.799
				c0.828,0.438,1.642,0.912,2.453,1.389c1.597,0.935,3.186,1.854,4.736,2.889c0.44,0.293,0.876,0.604,1.312,0.916
				c0.267,0.189,2.287-1.045,2.638-1.203c0.912-0.411,1.825-0.816,2.741-1.215c6.963-3.032,14.115-5.618,21.49-6.836
				c6.753-1.113,13.55-0.762,20.267,0.516c3.823,0.727,7.581,1.846,11.383,2.699c3.703,0.829,7.408,1.689,10.953,3.225
				c0.143,0.059,0.557-3.258,0.563-3.531c0.026-1.426-0.207-2.846-0.654-4.17C531.663,833.929,531.392,833.297,531.09,832.683z"/>
			<path fill="#C42126" d="M477.979,826.078c-4.689-0.196-7.675-0.35-12.42-0.682c-5.143-0.36-11.419,1.678-16.374,3.006
				c-1.452,0.39-2.895,0.818-4.332,1.263c-0.104-0.789-0.238-1.569-0.436-2.326c-2.606-9.992-15.019-19.383-25.669-15.067
				c-0.128,0.052-0.247,0.109-0.374,0.161c-1.741-0.578-3.544-0.907-5.312-0.934c-4.451-0.065-9.182,0.496-13.43,1.863
				c-6.739,2.169-11.861,6.954-14.458,13.357c0.916,2.183,1.696,4.498,2.964,6.317c4.12,5.911,9.736,9.664,15.218,14.12
				c2.296,1.866,4.555,3.853,7.17,5.27c7.154,3.877,16.963,4.596,24.763,2.689c7.635-1.866,14.749-5.31,21.921-8.435
				c6.846-2.983,13.923-5.211,21.295-6.456c3.404-0.575,6.829-0.968,10.24-1.492c0.899-0.139,1.713-0.148,2.501-0.101
				C490.795,831.878,485.092,826.376,477.979,826.078z"/>
			<path fill="#A1320F" d="M529.408,815.516c-3.666-9.172-8.572-17.729-14.059-25.299c-5.523-7.625-11.311-15.792-18.756-20.961
				c-10.341-7.18-21.521-16.182-33.613-18.55c-1.515-0.297-8.168-1.058-9.168,0.638c-1.282,2.171-3.438,3.529-5.684,3.557
				c-2.721,0.033-4.914-2.785-7.738-2.767c-3.164,0.021-6.164,2.227-9.207,3.031c-16.696,4.417-34.389,11.402-44.232,29.095
				c-2.983,5.359-6.511,12.054-8.014,18.238c-3.677,15.121,0.152,34.268,6.591,47.832c3.823,8.053,13.403,12.72,20.587,14.537
				c8.504,2.152,17.729,3.163,26.433,3.009c10.202-0.181,20.226-2.59,30.015-5.819c5.607-1.852,11.115-4.051,16.682-6.059
				c6.744-2.433,13.219-5.246,20.245-6.382c6.046-0.977,12.077-1.2,18.165-1.411c3.119-0.108,6.227,0.776,9.333,0.631
				c4.849-0.227,4.081-3.083,6.114-6.968c1.941-3.708,3.179-5.265,2.039-9.927C533.781,826.382,531.504,820.758,529.408,815.516z
				 M526.314,836.877c1.039,3.385-11.15,0.309-11.91,0.057c-9.281-3.076-17.375-2.592-26.771-0.452
				c-13.883,3.16-26.973,7.806-40.582,12.198c-5.869,1.896-10.92,5.289-17.151,5.937c-6.239,0.649-13.457-0.821-19.14-3.987
				c-7.934-4.419-17.367-8.711-22.342-17.742c-5.698-10.346-4.027-27.01,2.516-36.327c4.5-6.407,11.34-9.933,17.811-12.806
				c18.845-8.364,37.264-7.786,56.27-0.641c4.938,1.855,9.993,3.736,14.771,6.1c11.101,5.491,21.188,12.027,29.894,21.929
				c6.099,6.937,13.141,16.04,16.485,25.33C526.213,836.606,526.27,836.732,526.314,836.877z"/>
		</g>
		<g>
			<path fill="#C7886A" d="M415.158,944.164c-5.292-3.331-11.51-2.812-17.468-3.14c-2.668-0.146-4.551-0.434-5.594-0.602
				c-3.051-0.494-6.065-1.196-9.058-1.962c-11.635-2.979-22.196-7.452-32.723-13.172c-10.966-5.959-20.86-13.34-30.978-20.565
				c-8.665-6.189-17.753-13.633-23.916-22.38c-1.173-1.665-4.291-0.747-3.539,1.451c3.81,11.137,8.838,21.228,15.855,30.695
				c8.384,11.312,19.368,20.407,30.848,28.417c11.338,7.911,23.726,14.375,36.801,18.886c12.478,4.305,31.192,9.676,42.207,0.013
				C423.281,956.815,420.91,947.784,415.158,944.164z"/>
			<path fill="#C7886A" d="M631.375,902.258c-0.417-2.238-2.653-4.508-4.898-4.931c-7.139-1.346-14.071,2.452-19.32,7.039
				c-4.861,4.248-9.77,8.43-14.683,12.617c-8.268,7.046-17.452,13.476-27.912,19.101c-9.695,5.215-18.651,8.402-29.871,11.06
				c-5.654,1.339-11.398,2.248-17.181,2.789c-7.463,0.698-15.969-0.274-21.894,4.981c-3.503,3.107-3.188,9.226,0.089,12.328
				c5.611,5.313,14.467,4.486,21.689,4.165c7.211-0.32,14.424-1.211,21.531-2.449c12.577-2.189,24.646-6.523,36.143-12.014
				c11.733-5.604,22.333-13.062,32.583-20.994C617.43,928.382,634,916.369,631.375,902.258z"/>
		</g>
		<path fill="#C7886A" d="M527.524,602.126c-8.7-8.585-20.719-5.085-27.283,3.768c3.437-4.635-1.043,1.074-1.974,2.12
			c-1.763,1.979-3.601,3.87-5.516,5.7c-1.997,1.907-4.111,3.689-6.256,5.427c-0.148,0.108-0.331,0.243-0.557,0.41
			c-1.378,1.021-2.792,1.993-4.21,2.958c-4.767,3.244-9.783,6.111-14.906,8.751c-2.821,1.453-5.707,2.777-8.615,4.047
			c-0.145,0.063-0.272,0.119-0.392,0.172c-0.22,0.083-0.524,0.201-0.939,0.364c-1.708,0.671-3.438,1.286-5.169,1.892
			c-5.53,1.933-11.23,3.532-16.926,4.896c-6.871,1.647-9.167,1.948-15.882,2.218c-4.452,0.179-10.844,0.337-14.226-0.141
			c-5.058-0.714-11.457-2.459-16.72-1.021c-2.977,0.813-4.563,3.744-3.927,6.69c1.328,6.157,7.049,10.688,13.617,13.782
			c-0.655,1.01-0.943,2.219-0.648,3.521c-0.356,0.983-0.557,2.009-0.567,3.085c-0.015,2.293,1.023,4.274,1.949,6.31
			c1.134,2.493,2.904,4.642,4.61,6.751c3.73,4.611,9.863,6.956,15.283,8.848c2.17,0.757,4.45,1.307,6.798,1.687
			c0.832,15.25,23.296,18.531,35.627,17.266c7.925-0.813,15.611-2.138,23.199-4.57c10.053-3.222,23.558-7.548,25.724-19.543
			c1.076-5.962,0.027-11.746-2.992-16.256c7.745-4.963,14.436-11.412,14.104-19.731c-0.192-4.81-2.069-9.198-5.285-12.348
			c4.557-3.805,8.696-7.965,12.256-12.486C533.553,619.261,534.833,609.339,527.524,602.126z"/>
		<g>
			<path fill="#4C2900" d="M370.886,320.405c-4.021-1.078-7.727-0.52-10.859,1.146c-5.607-4.186-13.831-4.83-19.769,0.097
				c-1.043-1.233-2.308-2.306-3.784-3.146c-7.462-4.246-14.919-0.891-19.645,5.377c-0.129,0.171-0.252,0.346-0.38,0.519
				c-0.016-0.275-0.023-0.549-0.043-0.825c-0.74-10.698-14.865-15.679-20.679-5.541c-6.654,11.605-11.384,24.192-14.914,37.068
				c-1.762,6.428-3.067,12.936-4.113,19.515c-1.193,7.498-0.542,13.063,2.535,19.977c0.431,0.967,1.337,1.605,2.367,1.895
				c-0.063,1.15-0.112,2.302-0.128,3.459c-0.146,10.693,11.258,14.276,18.646,9.419c2.752,10.806,17.495,12.649,24.855,5.628
				c1.969-1.878,3.76-3.884,5.414-5.984c6.471,7.763,20.775,6.596,26.289-2.606c12.334-20.584,17.794-44.273,25.266-66.841
				C384.626,331.464,378.761,322.515,370.886,320.405z"/>
			<path fill="#4C2900" d="M657.522,316.167c-5.306-5.235-15.433-5.905-20.544,0.148c-0.781,0.926-1.478,1.848-2.137,2.773
				c0.357-11.563-15.847-19.695-24.451-10.454c-4.424-6.064-14.174-8.124-20.544-1.964c-2.894,2.798-5.27,5.884-7.273,9.166
				c-4.171-6.639-14.968-7.77-20.679,0.228c-6.875,9.627-12.548,20.038-16.716,31.119c-3.935,10.46-7.454,23.926-4.248,34.863
				c1.229,4.192,7.066,6.401,10.239,2.744c0.191-0.221,0.368-0.451,0.554-0.675c0.272,0.86,0.563,1.719,0.892,2.575
				c2.946,7.661,10.74,12.022,18.521,7.748c2.325-1.277,4.435-2.736,6.384-4.325c4.264,4.106,11.495,5.29,16.604,2.173
				c3.533-2.155,6.525-4.736,9.135-7.609c1.428,1.679,3.136,3.211,5.188,4.546c8.272,5.381,17.575,2.177,24.572-3.251
				c5.243-4.067,8.8-11.283,11.729-17.113c3.227-6.421,5.951-13.092,8.735-19.713c1.271-3.02,2.558-6.032,3.873-9.032
				c0.941-2.146,1.947-4.27,2.681-6.5c0.073-0.218,0.152-0.435,0.229-0.652C662.701,327.194,662.233,320.816,657.522,316.167z"/>
			<path fill="#4C2900" d="M577.188,700.826c-2.016-7.726-7.524-11.862-14.55-14.648c4.995,1.98,0.574,0.13-0.378-0.347
				c-1.594-0.797-3.105-1.749-4.597-2.721c-0.038-0.032-0.07-0.06-0.111-0.094c-1.34-1.115-2.577-2.35-3.797-3.592
				c-0.892-0.906-1.72-1.872-2.547-2.836c-0.22-0.308-0.446-0.61-0.662-0.922c-4.418-17.075-14.594-33.359-25.439-45.652
				c-5.926-6.716-17.023-7.406-24.44-3.124c-1.693,0.978-3.188,2.192-4.486,3.568c-1.332,0.063-2.648,0.242-3.914,0.572
				c-1.214,0.316-2.419,0.788-3.592,1.388c-4.75-5.967-12.737-8.813-20.267-6.849c-2.745,0.716-5.212,2.038-7.317,3.768
				c-3.215-1.096-6.795-1.308-10.566-0.324c-4.443,1.159-7.725,3.503-9.992,6.549c-3.115-0.781-6.401-0.833-9.379-0.057
				c-0.146,0.038-0.289,0.084-0.435,0.127c-0.304-0.1-0.605-0.204-0.921-0.289c-1.301-0.349-2.671-0.518-4.064-0.521
				c-6.5-6.546-19.076-6.883-25.381,1.108c-4.729-9.177-16.174-11.854-25.475-4.229c-10.928,8.961-15.696,21.477-18.088,34.676
				c-4.118,6.147-7.835,12.577-11.009,19.308c-7.744,16.425-14.208,34.8-12.898,53.23c0.742,10.43,11.746,18.722,21.685,12.595
				c5.346-3.295,10.174-7.304,14.223-11.99c0.504,0.708,1.023,1.412,1.578,2.109c5.686,7.144,17.247,5.372,23.105-0.166
				c3.305-3.124,6.179-6.745,8.683-10.669c0.346,0.549,0.686,1.099,1.055,1.643c5.813,8.567,18.939,12.18,26.655,3.414
				c1.255-1.425,2.407-2.886,3.471-4.378c0.608,0.167,1.229,0.317,1.868,0.436c4.816,0.89,9.255,0.478,13.149-0.997
				c0.466,0.612,0.936,1.225,1.419,1.832c3.896,4.892,12.053,6.24,17.746,4.755c4.643-1.211,7.968-3.801,10.233-7.207
				c4.608,1.969,8.83,3.05,13.9,1.727c1.947-0.508,3.904-1.393,5.71-2.569c1.226,0.868,2.479,1.713,3.799,2.504
				c9.146,5.484,20.273,1.82,25.835-6.298c2.651,0.552,5.344,0.603,8.4-0.194c2.875-0.75,5.303-2.032,7.348-3.719
				c1.443,0.746,2.91,1.452,4.42,2.077c10.31,4.271,21.936,2.979,27.988-7.66C577.781,711.539,578.53,705.973,577.188,700.826z"/>
			<path fill="#4C2900" d="M503.544,888.336c-4.518-7.824-13.892-11.215-22.229-8.789c-4.772-11.241-21.039-17.382-30.04-6.434
				c-2.378,2.893-4.403,5.915-6.116,9.064c-0.46-0.703-0.917-1.407-1.395-2.101c-5.504-7.996-15.423-11.667-24.337-6.521
				c-4.237,2.446-6.74,5.915-7.855,9.814c-6.136-2.18-13.484,4.32-11.387,10.865c0.724,2.258,0.486,4.474,1.09,6.784
				c0.833,3.193,2.666,6.793,4.212,9.725c2.762,5.239,6.297,10.05,9.747,14.844c7.364,10.233,15.646,19.813,23.491,29.679
				c3.928,4.938,11.557,5.896,17.481,4.043c0.108,0.031,0.214,0.072,0.323,0.102c10.061,2.696,19.729-3.473,22.733-13.125
				c0.482-1.551,0.997-3.086,1.537-4.617c0.062-0.172,0.13-0.343,0.192-0.515c0.171-0.412,0.842-2.114,1.049-2.586
				c1.92-4.371,4.104-8.624,6.442-12.784c0.908-1.615,1.88-3.194,2.864-4.765c0.412-0.658,2.056-2.929,2.652-3.801
				c0.702-0.815,1.428-1.609,2.188-2.373c0.091-0.046,0.186-0.094,0.293-0.15C505.791,909.788,508.65,897.181,503.544,888.336z"/>
		</g>
		<g>
			<path fill="#4D2B00" d="M485.715,618.049c5.11-3.854,10.406-7.471,15.728-11.023c0.018-0.012,0.034-0.023,0.052-0.035
				c0.126-0.73,0.234-1.456,0.321-2.171c0.853-7.046-0.551-15.603-2.586-22.394c-2.221-7.408-8.614-12.78-16.507-12.83
				c-7.569-0.048-15.9,6.004-17.143,13.803c-4.759,4.216-8.987,9.638-11.551,15.326c-3.304,2.74-5.014,6.385-6.71,10.716
				c-1.581,4.038-0.642,9.262,1.603,13.329c0.027,0.125,0.043,0.25,0.072,0.374c0.898,3.811,2.938,6.958,5.617,9.327
				c10.573-3.258,20.714-9.54,30.656-14.208C485.417,618.192,485.565,618.119,485.715,618.049z"/>
			<linearGradient id="SVGID_4_" gradientUnits="userSpaceOnUse" x1="433.7979" y1="647.2061" x2="452.1757" y2="364.9959">
				<stop  offset="0" style="stop-color:#D4897F"/>
				<stop  offset="0.2098" style="stop-color:#D88E80"/>
				<stop  offset="0.4835" style="stop-color:#E19D81"/>
				<stop  offset="0.7915" style="stop-color:#F4B882"/>
				<stop  offset="0.8619" style="stop-color:#FDC283"/>
			</linearGradient>
			<path fill="url(#SVGID_4_)" d="M524.551,536.038c-6.973-6.882-13.454-6.034-22.199-5.863c-6.475,0.126-8.755-5.321-11.913-10.372
				c-2.939-4.702-3.584-8.912-2.438-14.344c2.371-11.238,6.476-22.797,9.874-33.796c-0.104-0.044-0.163-0.008-0.185,0.102
				c-0.028-3.448,6.255-13.19,7.574-16.653c1.88-4.935,3.788-9.887,5.421-14.911c3.734-11.492,5.959-23.443,5.484-35.566
				c-0.373-9.531-9.191-20.917-18.362-23.079c-11.508-2.712-22.261,6.232-28.993,14.635c-5.611,7.005-7.025,19.109-16.981,21.736
				c-2.343,0.616-4.823,0.393-7.225-1.137c-4.044-2.575-4.45-7.089-10.04-6.362c-3.299,0.429-7.657,3.53-10.271,5.56
				c-5.979,4.644-9.696,11.582-13.417,18.027c-1.222,2.875-2.381,5.758-3.402,8.684c0.089,0.17,0.169,0.341,0.266,0.511
				c5.657,9.897,15.129,18.033,15.663,30.176c0.414,9.401-4.169,17.786-8.174,25.963c-1.273,2.602-11.045,24.663-10.13,24.991
				c-4.697-1.688-9.607-2.93-14.79-3.592c-1.827-0.233-3.716-0.313-5.619-0.242c-3.169-0.563-6.458-0.602-9.808,0.006
				c-6.849,1.24-11.77,6.201-15.353,12.023c-1.412,1.714-2.777,3.521-3.964,5.402l-0.202,0.492c-0.096,0.104-0.236,0.295-0.43,0.583
				c-0.325,0.467-0.62,0.95-0.905,1.443c-14.303,24.751-1.935,57.214,14.467,77.391c17.284,21.266,47.749,29.268,73.204,19.205
				c8.084-3.196,15.859-9.181,16.738-18.331c0.45-4.681-0.445-9.406-0.562-14.085c-0.108-4.373-0.415-11.496,1.575-15.492
				c2.276-4.572,8.056-9.376,12.543-11.569c3.643-1.781,10.943-2.641,13.738,1.487c3.938,5.815,5.396,13.893,4.737,20.79
				c-0.319,3.345,0.014,12.313,6.138,9.189c2.645-1.349,4.403-3.958,7.162-4.784c4.906-1.469,9.055-1.244,13.092-4.976
				c3.324-3.074,6.074-7.472,7.711-11.687c3.518-9.056,4.605-18.916,6.255-28.431C532.318,550.581,531.026,542.429,524.551,536.038z
				"/>
			<g>
				<path fill="#AD6D68" d="M452.04,608.429c-7.122-1.854-15.7,0.214-23.023,0.492c-1.667,0.159-3.329,0.356-4.987,0.593
					c-0.457,0.061-0.771,0.103-0.977,0.131c-1.919,0.225-3.842,0.414-5.767,0.582c-3.996,0.348-7.822,0.084-11.802-0.362
					c-12.195-1.369-26.41-4.962-37.678-11.6c-2.381-1.402-4.965,0.915-4.459,3.415c3.534,17.461,19.701,25.178,35.288,29.971
					c7.755,2.385,16.097,3.868,24.059,5.458c4.923,0.983,9.923,1.186,14.924,1.369c4.519,0.165,10.048,0.875,14.317-0.699
					c6.479-2.388,11.309-7.308,11.355-14.608C463.333,616.384,458.628,610.145,452.04,608.429z"/>
				<path fill="#AD6D68" d="M512.758,579.639c-7.003,0.767-12.003,5.119-16.281,10.502c-2.703,3.4-9.469,11.745-4.178,15.981
					c4.795,3.839,10.573,0.971,15.218-1.701c5.505-3.166,11.859-7.812,13.183-14.374
					C521.648,585.344,518.384,579.023,512.758,579.639z"/>
				<path fill="#AD6D68" d="M424.022,561.201c0.361-6.032,2.662-12.172,4.297-17.726c1.853-6.294,6.004-10.472,9.1-16.07
					c3.005-5.436,5.089-12.011,7.095-17.879c2.157-6.315,3.531-12.794,3.729-19.479c0.11-3.752,0.197-7.793-0.341-11.515
					c-1.957-13.54-13.028-19.157-22.235-27.27c-4.323-3.809-3.704-8.459-1.324-13.381c1.56-3.226,3.708-6.406,5.962-9.175
					c0.896-1.099,1.839-2.135,2.821-3.156c0.918-0.954,1.044-2.415,1.888-3.425c0.149-0.179,0.073-0.548-0.215-0.519
					c-2.986,0.306-4.221,0.024-7.073,1.444c-2.943,1.465-5.573,3.588-8.063,5.708c-4.889,4.164-7.768,10.908-8.494,17.122
					c-1.479,12.658,8.309,19.357,13.354,29.286c1.485,2.922,1.915,10.333,1.226,14.407c-1.153,6.824-4.004,13.225-6.313,19.702
					c-2.359,6.617-5.179,13.155-6.231,20.134c-1.303,8.635-1.987,17.28,3.095,24.502c1.188,1.688,2.165,3.766,2.5,5.833
					c0.483,2.992,0.586,7.453,3.92,9.346c0.435,0.246,0.894,0.378,1.357,0.418c0.127-0.613,0.287-1.22,0.442-1.826
					C424.015,565.558,423.892,563.387,424.022,561.201z"/>
			</g>
			<path fill="#AD6D68" d="M487.389,538.221c-8.296-0.826-16.997,3.368-23.025,8.764c-0.488,0.437,0.042,1.109,0.587,1.018
				c6.103-1.03,12.858-0.824,18.951,0.132c2.99,0.469,5.771,0.818,8.459,2.31c2.81,1.56,3.911,4.324,5.911,6.717
				c2.861,3.423,7.594,0.266,7.946-3.3C507.213,543.789,495.428,539.021,487.389,538.221z"/>
			<path fill="#C7886A" d="M533.895,567.463c-0.693-2.084-3.4-2.047-4.125-0.015c-1.519,4.258-3.789,8.036-5.369,12.201
				c-1.765,4.648-2.344,9.924-4.036,14.678c-1.536,4.314-3.59,8.43-5.762,12.454c-2.494,4.622-5.695,8.618-7.208,13.7
				c-1.414,4.746,4.633,10.286,9.036,6.934c8.501-6.474,12.816-18.186,16.382-27.99c1.933-5.314,3.25-10.831,4.168-16.404
				C537.795,578.073,535.454,572.15,533.895,567.463z"/>
		</g>
	</g>
	<g id="Lines_4_">
		<g id="Head_4_">
			<g>
				<g>
					<g>
						<path fill="#B18B64" d="M743.767,474.901c-6.334,5.194-4.297,18.721-3.868,25.693c0.736,11.949,1.9,23.626,1.919,35.618
							c0.026,16.663-0.553,33.157-5.168,49.278c-4.965,17.342-14.33,32.902-21.905,49.146c-1.354,2.902,2.955,5.443,4.316,2.523
							c7.058-15.132,15.305-29.618,20.845-45.424c5.304-15.129,6.649-31.098,6.876-47.018c0.176-12.419-0.233-24.551-1.323-36.904
							c-0.519-5.873-0.938-11.761-0.881-17.66c0.033-3.426-0.234-9.292,2.725-11.719
							C749.797,476.39,746.237,472.874,743.767,474.901L743.767,474.901z"/>
					</g>
				</g>
				<g>
					<g>
						<path fill="#B18B64" d="M212.789,506.895c2.102,5.295,6.682,8.877,8.574,14.259c1.761,5.003,2.58,10.461,3.449,15.673
							c2.033,12.208,3.069,24.579,4.248,36.891c0.864,9.031,1.407,18.32,3.507,27.173c3.166,13.351,11.479,24.668,20.962,34.29
							c2.266,2.3,5.8-1.237,3.535-3.535c-9.47-9.61-17.381-20.727-20.131-34.15c-1.948-9.515-2.453-19.396-3.378-29.046
							c-1.095-11.431-2.242-22.87-4.131-34.202c-0.81-4.862-1.825-9.697-3.239-14.423c-1.678-5.602-6.481-8.983-8.574-14.258
							C216.437,502.605,211.599,503.895,212.789,506.895L212.789,506.895z"/>
					</g>
				</g>
				<g>
					<g>
						<path fill="#B18B64" d="M271.035,621.254c-36.951,20.15-54.715,58.72-58.803,99.223c-1.804,17.878-0.951,36.023,1.888,53.746
							c1.546,9.648,3.561,19.346,7.367,28.371c4.707,11.162,11.797,21.131,19.673,30.265c7.611,8.828,16.291,16.728,25.367,24.018
							c2.487,1.999,6.05-1.516,3.535-3.535c-18.773-15.081-36.784-33.402-45.446-56.309c-6.28-16.608-7.918-36.059-8.272-53.669
							c-0.81-40.263,10.499-83.627,43.757-109.171c4.231-3.25,8.778-6.069,13.458-8.622
							C276.39,624.027,273.866,619.709,271.035,621.254L271.035,621.254z"/>
					</g>
				</g>
				<g>
					<g>
						<path fill="#B18B64" d="M699.035,628.57c26.176,11.272,43.632,35.837,57.523,59.782
							c10.021,17.274,15.617,37.022,19.947,56.406c4.874,21.817,7.355,44.438,5.162,66.754c-1.121,11.409-3.868,22.785-8.627,33.233
							c-5.165,11.338-13.477,21.086-21.457,30.524c-19.321,22.852-42.156,42.58-67.873,57.908
							c-13.293,7.923-27.767,15.475-42.635,19.903c-17.295,5.151-35.316,7.154-53.207,8.952c-3.177,0.319-3.208,5.322,0,5
							c14.732-1.48,29.447-3.151,43.916-6.38c13.35-2.979,25.774-8.201,38.008-14.229c22.934-11.298,43.93-26.29,62.604-43.707
							c9.602-8.955,18.482-18.664,26.803-28.813c7.411-9.042,14.509-18.243,19.219-29.013c8.819-20.165,10.052-43.01,8.476-64.688
							c-1.815-24.967-7.593-49.965-16.188-73.458c-6.605-18.058-17.55-33.861-29.06-49.095
							c-10.782-14.27-23.433-26.227-40.089-33.398C698.631,622.992,696.081,627.299,699.035,628.57L699.035,628.57z"/>
					</g>
				</g>
				<g>
					<g>
						<path fill="#B18B64" d="M611.702,755.236c19.305,13.532,35.484,30.763,43.2,53.401c7.319,21.476,6.76,45.561,2.838,67.667
							c-3.287,18.529-10.52,36.182-22.534,50.772c-12.92,15.692-30.437,26.748-48.647,35.323
							c-52.303,24.629-111.071,26.431-167.617,19.984c-47.457-5.409-97.333-21.874-125.983-62.594
							c-36.111-51.325-24.421-120.836,0.497-174.117c1.357-2.901-2.952-5.442-4.316-2.523
							c-24.111,51.553-35.331,114.322-7.912,166.977c21.849,41.959,66.749,64.146,111.345,73.264
							c26.704,5.46,54.569,7.302,81.78,7.204c28.542-0.103,57.337-3.431,84.623-12.031c38.248-12.057,76.891-33.337,94.41-71.149
							c11.7-25.253,14.547-56.005,10.391-83.305c-4.773-31.362-24.137-55.376-49.55-73.189
							C611.578,749.063,609.083,753.401,611.702,755.236L611.702,755.236z"/>
					</g>
				</g>
			</g>
			<g id="Ears_4_">
				<g>
					<g>
						<path fill="#A07E5A" d="M741.385,571.717c4.929,3.085,11.637,3.947,17.259,4.772c6.78,0.995,14.954,1.877,21.448-0.908
							c10.745-4.608,25.133-12.49,26.828-25.402c1.2-9.135-6.11-17.886-10.722-25.008c-6.253-9.656-10.734-20.062-5.755-31.348
							c1.288-2.921-3.019-5.468-4.318-2.523c-4.304,9.755-3.4,19.282,1.258,28.709c4.058,8.21,10.845,15.162,13.795,23.903
							c3.949,11.702-8.358,19.316-17.055,24.101c-7.438,4.092-13.91,4.725-22.28,3.881c-5.633-0.567-13.011-1.412-17.935-4.495
							C741.167,565.683,738.659,570.01,741.385,571.717L741.385,571.717z"/>
					</g>
				</g>
				<g>
					<g>
						<path fill="#A07E5A" d="M229.297,586.912c-14.154,0.093-29.656,4.299-43.4-0.485c-7.886-2.745-12.032-10.068-14.189-17.68
							c-2.849-10.054-2.076-18.412,0.953-28.329c2.606-8.533,5.29-16.821,5.306-25.842c0.017-9.459-4.81-18.145-9.194-26.222
							c-9.657-17.793-14.335-38.404,1.973-54.04c2.331-2.235-1.209-5.766-3.535-3.535c-14.69,14.084-15.04,33.838-7.128,51.564
							c4.727,10.589,12.469,20.198,12.885,32.232c0.373,10.783-4.427,20.86-6.977,31.119c-3.85,15.484,0.557,36.989,16.126,44.535
							c14.244,6.904,32.109,1.78,47.182,1.682C232.52,591.891,232.522,586.891,229.297,586.912L229.297,586.912z"/>
					</g>
				</g>
			</g>
			<g id="Nose_4_">
				<g>
					<g>
						<path fill="#A37357" d="M428.529,415.645c-7.694,6.351-14.611,12.266-19.554,21.079c-2.55,4.548-4.155,10.318-1.706,15.248
							c2.245,4.517,6.566,7.424,10.411,10.473c5.305,4.208,9.52,8.917,11.206,15.633c0.784,3.126,5.606,1.799,4.82-1.329
							c-2.86-11.397-11.761-16.083-19.547-23.719c-4.215-4.134-3.385-8.884-0.867-13.782c4.371-8.501,11.562-14.115,18.771-20.067
							C434.554,417.125,430.995,413.609,428.529,415.645L428.529,415.645z"/>
					</g>
				</g>
				<g>
					<g>
						<path fill="#A37357" d="M430.529,494.645c-6.112,5.418-6.455,12.908-10.391,19.506c-3.607,6.045-8.468,11.338-11.319,17.832
							c-5.552,12.645,4.557,27.024,10.319,37.691c1.541,2.854,5.744,0.341,4.316-2.523c-7.639-15.337-15.012-32.008-28.136-43.546
							c-13.239-11.638-32.087-9.427-40.917,6.426c-9.437,16.94-4.486,40.232-0.452,58.015c3.769,16.609,10.553,31.495,24.929,41.455
							c27.743,19.222,67.469,9.833,95.391-3.776c28.065-13.68,53.949-37.768,55.418-70.906c0.316-7.133-1.339-14.868-6.838-19.808
							c-7.011-6.297-17.602-5.074-25.986-2.974c0.642,1.523,1.283,3.047,1.926,4.569c2.949-2.174,3.515-5.714,5.775-8.426
							c2.05-2.457-1.468-6.015-3.535-3.535c-1.768,2.119-2.604,6.052-4.764,7.645c-2.206,1.626-0.975,5.296,1.926,4.569
							c7.486-1.876,16.828-3.142,22.612,3.161c4.541,4.948,4.324,13.272,3.489,19.445c-2.114,15.617-10.057,29.748-21.272,40.598
							c-24.143,23.354-62.058,38.263-95.714,34.425c-16.403-1.87-31.232-10.138-40.011-24.296
							c-4.881-7.872-7.032-16.756-9.021-25.69c-2.313-10.39-3.969-20.967-3.874-31.635c0.088-9.921,2.203-20.498,9.925-27.346
							c7.293-6.468,17.156-5.552,24.755-0.474c14.545,9.72,22.245,28.847,29.72,43.947c0.112,0.227,0.226,0.453,0.339,0.68
							c1.438-0.841,2.878-1.683,4.316-2.523c-5.338-9.882-15.19-23.227-9.316-34.753c2.829-5.552,6.859-10.562,10.316-15.724
							c4.018-5.996,3.842-13.38,9.609-18.494C436.482,496.037,432.933,492.514,430.529,494.645L430.529,494.645z"/>
					</g>
				</g>
				<g>
					<g>
						<path fill="#A37357" d="M497.139,468.15c-0.78,1.543-1.509,3.142-2.609,4.494c1.393,0.811,2.785,1.622,4.178,2.432
							c9.216-23.741,17.597-50.923,11.365-76.455c-6.722-27.547-38.642-48.066-66.439-39.62c-3.077,0.935-1.765,5.761,1.328,4.821
							c15.633-4.75,32.749,1.232,44.981,11.368c8.936,7.404,14.118,17.763,16.229,29.032c4.35,23.218-3.98,48.131-12.284,69.524
							c-0.892,2.295,2.625,4.341,4.178,2.432c1.393-1.712,2.395-3.534,3.391-5.506C502.906,467.804,498.593,465.272,497.139,468.15
							L497.139,468.15z"/>
					</g>
				</g>
				<g>
					<g>
						<path fill="#A37357" d="M493.914,612.725c-0.025-9.971,0.436-43.033-17.335-38.491c-4.57,1.168-8.438,4.979-11.604,8.245
							c-4.149,4.283-9.263,9.621-10.687,15.564c-2.319,9.686,0.959,24.064,7.757,31.428c2.191,2.374,5.719-1.171,3.535-3.535
							c-5.675-6.146-7.345-17.187-6.69-25.199c0.441-5.41,5.256-9.854,8.653-13.678c2.828-3.184,6.219-6.642,10.364-8.004
							c11.399-3.744,10.991,28.151,11.006,33.67C488.922,615.948,493.922,615.949,493.914,612.725L493.914,612.725z"/>
					</g>
				</g>
			</g>
			<g id="Eyes_4_">
				<g>
					<g>
						<path fill="#D5D0A6" d="M562.059,491.753c-18.078-9.929-27.344-28.454-23.242-48.831c3.968-19.71,19.324-35.757,38.145-42.1
							c35.627-12.006,76.958,36.854,55.032,68.905c-6.659,9.734-19.037,15.472-29.658,19.609
							c-13.177,5.132-27.277,6.259-40.874,2.165c-3.095-0.932-4.408,3.894-1.328,4.821c13.403,4.036,27.039,3.254,40.283-1.008
							c11.419-3.675,23.531-9.645,31.997-18.297c12.194-12.462,13.186-31.089,6.475-46.503c-7.054-16.2-21.069-29.369-38.098-34.434
							c-18.441-5.485-37.16,2.358-50.334,15.429c-11.661,11.57-18.477,28.13-17.582,44.579c0.946,17.41,11.678,31.752,26.661,39.981
							C562.362,497.624,564.885,493.306,562.059,491.753z"/>
					</g>
				</g>
				<g>
					<g>
						<path fill="#D5D0A6" d="M314.297,522.912c10.722,0.583,23.438-2.107,31.91-8.978c8.307-6.738,13.973-16.098,17.514-26.096
							c7.072-19.966-1.547-38.109-15.197-52.836c-6.539-7.055-14.893-13.48-24.426-15.652c-8.419-1.917-15.918,1.846-22.412,6.888
							c-8.225,6.385-14.643,15.402-19.577,24.472c-4.309,7.919-7.717,16.922-7.227,26.059
							C275.98,497.262,292.995,520.701,314.297,522.912c3.206,0.333,3.174-4.671,0-5c-21.515-2.232-38.367-30.537-33.478-50.727
							c2.547-10.515,8.682-20.455,15.543-28.688c5.861-7.033,14.176-14.972,23.973-14.65c10.446,0.342,19.934,9.391,26.448,16.66
							c6.814,7.604,12.204,16.614,14.331,26.645c2.308,10.884-2.772,23.154-8.476,32.146c-7.395,11.66-18.178,16.87-31.664,18.441
							c-2.219,0.259-4.45,0.295-6.678,0.174C311.073,517.737,311.091,522.738,314.297,522.912z"/>
					</g>
				</g>
				<g id="Pupils_4_">
					<g>
						<g>
							<path fill="#0D101C" d="M609.942,447.662c0-0.225,0.061-1.312,0.014-1.042c0.09-0.52,0.004,0.066-0.235,0.154
								c2.155-0.799,5.39,0.001,7.557,0.299c-0.582-1.025-1.164-2.05-1.746-3.075c-0.5,1.5-1,3-1.5,4.5
								c0.582-0.582,1.164-1.164,1.746-1.746c-2.935,0.424-6.314,0.614-8.905,2.226c-2.265,1.408-3.854,4.043-5.697,5.917
								c-2.118,2.151,0.545,5.028,3.029,3.926c4.384-1.944,9.809-1.335,14.401-2.748c-0.94-1.224-1.882-2.448-2.822-3.672
								c-1,1.5-2,3-3,4.5c1.141-0.299,2.281-0.598,3.421-0.897c-1.215-0.54-5.678-2.046-5.313-3.968
								c0.406-2.143,2.226-4.198,3.211-6.11c1.474-2.861-2.841-5.391-4.318-2.523c-1.471,2.855-3.618,5.478-3.916,8.773
								c-0.386,4.261,4.662,6.746,7.813,8.146c1.305,0.58,2.601,0.333,3.421-0.897c0.999-1.5,1.999-3,2.998-4.5
								c1.222-1.833-0.788-4.298-2.822-3.672c-5.084,1.563-10.705,1.083-15.597,3.251c1.01,1.309,2.02,2.618,3.029,3.926
								c1.621-1.647,2.983-3.601,4.695-5.148c1.614-1.459,5.677-1.416,7.702-1.708c0.862-0.125,1.493-0.989,1.746-1.746
								c0.499-1.5,0.999-3,1.498-4.5c0.39-1.168-0.441-2.896-1.746-3.075c-5.432-0.748-13.651-2.293-13.663,5.41
								C604.938,450.886,609.938,450.886,609.942,447.662L609.942,447.662z"/>
						</g>
					</g>
					<g>
						<g>
							<path fill="#0D101C" d="M334.712,470.261c0-0.225,0.061-1.312,0.014-1.042c0.09-0.52,0.004,0.066-0.235,0.154
								c2.155-0.799,5.39,0.001,7.557,0.299c-0.582-1.025-1.164-2.05-1.746-3.075c-0.5,1.5-1,3-1.5,4.5
								c0.582-0.582,1.164-1.164,1.746-1.746c-2.935,0.424-6.314,0.614-8.905,2.226c-2.265,1.408-3.854,4.043-5.697,5.917
								c-2.118,2.151,0.545,5.028,3.029,3.926c4.384-1.944,9.809-1.335,14.401-2.748c-0.94-1.224-1.882-2.448-2.822-3.672
								c-1,1.5-2,3-3,4.5c1.141-0.299,2.281-0.598,3.421-0.897c-1.215-0.54-5.678-2.046-5.313-3.968
								c0.406-2.143,2.226-4.198,3.211-6.11c1.474-2.861-2.841-5.391-4.318-2.523c-1.471,2.855-3.618,5.478-3.916,8.773
								c-0.386,4.261,4.662,6.746,7.813,8.146c1.305,0.58,2.601,0.333,3.421-0.897c0.999-1.5,1.999-3,2.998-4.5
								c1.222-1.833-0.788-4.298-2.822-3.672c-5.084,1.563-10.705,1.083-15.597,3.251c1.01,1.309,2.02,2.618,3.029,3.926
								c1.621-1.647,2.983-3.601,4.695-5.148c1.614-1.459,5.677-1.416,7.702-1.708c0.862-0.125,1.493-0.989,1.746-1.746
								c0.499-1.5,0.999-3,1.498-4.5c0.39-1.168-0.441-2.896-1.746-3.075c-5.432-0.748-13.651-2.293-13.663,5.41
								C329.707,473.486,334.707,473.485,334.712,470.261L334.712,470.261z"/>
						</g>
					</g>
				</g>
			</g>
			<g id="Mouth_5_">
				<g>
					<g>
						<path fill="#A1320F" d="M536.344,845.369c-2.086-9.813-8.331-18.436-14.39-26.195c-5.651-7.239-12.072-14.485-19.416-20.065
							c-20.655-15.696-45.337-27.135-71.681-27.218c-16.864-0.054-35.726,6.369-45.053,21.213
							c-10.554,16.795-2.73,41.564,11.311,53.882c15.095,13.241,37.142,9.971,54.347,3.306c5.528-2.142,10.728-4.996,16.218-7.228
							c6.73-2.735,13.774-4.637,20.948-5.747c15.711-2.43,31.332,1.372,44.044,10.877c2.585,1.933,5.073-2.411,2.523-4.318
							c-20.953-15.666-47.63-14.631-70.888-4.794c-17.764,7.514-37.684,17.641-57.004,8.646
							c-18.762-8.735-28.302-38.122-15.188-54.997c12.695-16.339,37.123-17.567,55.71-14.171c19.701,3.6,39.871,13.84,54.833,27.135
							c6.291,5.59,11.954,12.017,17.057,18.693c5.047,6.604,10.056,14.068,11.809,22.313
							C532.193,849.852,537.013,848.515,536.344,845.369L536.344,845.369z"/>
					</g>
				</g>
				<g>
					<g>
						<g>
							<path fill="#A1320F" d="M435.281,850.077c5.859-18.431,35.313-32.909,50.377-16.721c2.2,2.365,5.729-1.179,3.535-3.535
								c-17.749-19.075-51.773-2.967-58.734,18.926C429.479,851.829,434.308,853.138,435.281,850.077L435.281,850.077z"/>
						</g>
					</g>
					<g>
						<g>
							<path fill="#A1320F" d="M446.936,834.674c4.5-10.251-8.599-17.603-16.263-21.059c-14.364-6.477-30.128-1.855-43.756,4.258
								c-2.938,1.318-0.393,5.626,2.523,4.318c11.351-5.092,24.572-9.296,36.856-4.996c4.627,1.619,19.261,8.259,16.32,14.955
								C441.334,835.073,445.642,837.62,446.936,834.674L446.936,834.674z"/>
						</g>
					</g>
				</g>
			</g>
		</g>
		<g id="Hair_4_">
			<g>
				<g>
					<path fill="#6F3618" d="M731.457,367.674c37.013-49.432,85.873-108.536,155.146-96.057c3.151,0.568,4.498-4.25,1.328-4.821
						c-71.939-12.96-122.207,46.824-160.793,98.354C725.204,367.734,729.549,370.222,731.457,367.674L731.457,367.674z"/>
				</g>
			</g>
			<g>
				<g>
					<path fill="#6F3618" d="M731.798,366.412c0.134-30.194,9.086-59.661,26.468-84.415c18.316-26.084,45.825-44.323,76.361-52.841
						c3.102-0.865,1.783-5.689-1.328-4.821c-31.195,8.702-58.416,26.996-77.793,52.986c-19.04,25.539-28.567,57.399-28.708,89.091
						C726.783,369.637,731.783,369.636,731.798,366.412L731.798,366.412z"/>
				</g>
			</g>
			<g>
				<g>
					<path fill="#6F3618" d="M731.798,366.412c-0.021-41.781-2.355-83.649-8.825-124.957
						c-6.536-41.734-17.319-84.952-40.541-120.792c-22.917-35.368-61.639-58.037-102.263-67.027
						c-45.516-10.073-93.538-3.317-137.346,11.079c-43.955,14.444-85.473,37.339-121.269,66.628
						c-35.734,29.239-64.942,66.925-106.75,88.235c-26.78,13.651-56.684,16.588-86.178,12.34c-1.938-0.279-4.202,1.634-2.822,3.672
						c25.296,37.373,51.396,75.376,85.574,105.298c32.315,28.292,71.71,45.392,115.01,45.167
						c50.187-0.261,98.705-21.111,142.106-44.596c37.666-20.382,74.378-45.219,117.104-53.514
						c29.035-5.636,58.896-2.513,84.956,11.922c26.315,14.576,45.485,39.478,56.331,67.209c1.161,2.968,5.998,1.678,4.822-1.329
						c-16.842-43.059-52.274-76.398-98.666-84.128c-42.23-7.036-83.807,9.869-120.214,29.45
						c-19.878,10.691-39.249,22.292-59.302,32.663c-22.815,11.8-46.51,21.746-71.264,28.69
						c-24.444,6.857-49.732,10.317-75.083,7.714c-21.581-2.216-42.341-9.495-61.099-20.272
						c-50.181-28.832-84.266-79.972-115.961-126.798c-0.94,1.224-1.882,2.448-2.822,3.672c23.303,3.356,46.822,2.786,69.394-4.338
						c20.264-6.395,38.319-17.925,54.883-31.005c19.184-15.148,36.536-32.527,54.24-49.334
						c16.274-15.449,33.805-29.238,52.665-41.406c76.353-49.262,184.957-81.41,269.502-33.537
						c17.992,10.188,34.06,23.559,46.209,40.339c12.072,16.673,20.582,35.748,27.244,55.137
						c14.544,42.327,20.454,87.493,23.413,131.976c1.369,20.583,1.938,41.215,1.949,61.841
						C726.8,369.636,731.8,369.637,731.798,366.412L731.798,366.412z"/>
				</g>
			</g>
			<g>
				<g>
					<path fill="#6F3618" d="M520.775,49.724c-7.878-5.768-17.541-8.863-26.894-11.275c-12.327-3.179-25.101-4.742-37.784-5.562
						c-25.935-1.676-52.59,0.902-78.188,5.1c-50.279,8.246-100.029,27.268-138.824,60.969
						c-15.049,13.072-28.97,28.182-41.886,43.335c-13.187,15.471-24.72,32.357-32.415,51.243c-0.938,2.301,1.952,3.573,3.672,2.823
						c17.838-7.778,38.349-10.51,57.504-12.862c9.239-1.135,18.525-1.961,27.826-2.376c5.734-0.256,12.104-0.823,17.754,0.489
						c3.138,0.729,4.47-4.092,1.33-4.821c-5.822-1.352-12.179-0.923-18.093-0.708c-10.06,0.366-20.101,1.346-30.088,2.573
						c-19.696,2.418-40.434,5.399-58.757,13.389c1.225,0.941,2.448,1.882,3.672,2.823c11.161-27.388,30.912-50.059,51.293-71.025
						c9.232-9.497,18.436-18.915,28.764-27.238c10.199-8.22,21.29-15.323,32.756-21.634c46.299-25.482,99.813-35.708,152.192-37.434
						c15.986-0.527,32.108,0.654,47.839,3.531c12.276,2.246,25.57,5.486,35.803,12.978C520.858,55.95,523.349,51.608,520.775,49.724
						L520.775,49.724z"/>
				</g>
			</g>
			<g>
				<g>
					<path fill="#6F3618" d="M200.198,386.718c-25.841-0.329-51.152-14.596-71.39-29.662c-0.643,1.523-1.284,3.046-1.926,4.569
						c34.685,6.17,73.52,9.522,106.213-6.267c-1.141-1.14-2.28-2.28-3.42-3.42c-10.452,23.377-15.219,49.245-18.203,74.533
						c-3.12,26.44-4.167,54.213,1.316,80.422c1.607-0.443,3.215-0.886,4.822-1.329c-11.178-26.849-27.204-51.351-45.853-73.59
						c-17.295-20.625-37.373-39.67-60.308-53.917c-0.643,1.523-1.284,3.046-1.926,4.569c14.953,4.921,30.385,8.19,46,10.121
						c14.938,1.847,30.598,2.408,45.338-1.121c3.135-0.75,1.805-5.572-1.33-4.821c-13.825,3.31-28.397,2.652-42.421,1.126
						c-15.683-1.706-31.28-5.198-46.259-10.127c-2.771-0.912-4.271,3.112-1.926,4.569c22.156,13.763,41.297,32.106,58.203,51.846
						c18.602,21.719,34.647,46.224,45.658,72.672c1.215,2.917,5.498,1.904,4.822-1.329c-5.195-24.829-4.124-51.038-1.473-76.11
						c2.674-25.286,7.414-51.643,17.854-74.993c1.03-2.303-1.063-4.559-3.42-3.42c-31.342,15.135-69.139,11.672-102.361,5.763
						c-2.871-0.511-4.215,2.865-1.926,4.569c20.952,15.598,47.18,30.004,73.913,30.344
						C203.424,391.759,203.42,386.759,200.198,386.718L200.198,386.718z"/>
				</g>
			</g>
			<g>
				<g>
					<path fill="#6F3618" d="M727.139,368.15c-14.018,32.898-13.088,73.654,9.502,102.622c9.624,12.341,23.889,20.955,39.462,22.984
						c22.896,2.984,47.903,4.541,69.858-3.934c2.165-0.835,2.59-4.165,0-4.821c-14.068-3.567-27.76-8.673-40.656-15.339
						c-13.207-6.828-26.826-15.98-33.85-29.512c-0.94,1.224-1.882,2.448-2.822,3.672c18.43,3.891,36.938,1.996,53.926-6.252
						c2.308-1.12,1.109-4.657-1.262-4.659c-16.055-0.01-33.017,0.676-48.691-3.408c-10.812-2.817-17.99-9.652-23.15-19.354
						c-1.14,1.14-2.279,2.28-3.42,3.42c18.856,11.158,47.264,2.727,63.029-10.391c1.739-1.447,0.267-4.264-1.768-4.268
						c-14.573-0.024-29.4-0.427-43.409-4.843c-13.869-4.373-24.569-13.898-32.433-25.918c-1.757-2.687-6.088-0.184-4.316,2.523
						c8.002,12.234,18.411,21.659,32.094,27.042c15.064,5.927,32.11,6.17,48.064,6.196c-0.589-1.422-1.179-2.845-1.768-4.268
						c-14.021,11.666-40.198,19.534-56.971,9.609c-2.227-1.317-4.572,1.254-3.42,3.42c5.322,10.008,12.745,17.268,23.605,20.902
						c16.438,5.5,35.507,4.325,52.553,4.336c-0.421-1.553-0.841-3.106-1.262-4.659c-15.721,7.633-33.031,9.346-50.074,5.748
						c-2.177-0.46-3.861,1.671-2.822,3.672c7.013,13.513,20.146,22.781,33.157,29.977c13.847,7.658,29.019,13.288,44.337,17.172
						c0-1.607,0-3.214,0-4.821c-20.29,7.832-42.837,6.607-64.063,4.29c-15.969-1.744-29.34-8.79-39.662-21.147
						c-22.115-26.475-22.447-66.972-9.453-97.47C732.704,367.743,728.398,365.192,727.139,368.15z"/>
				</g>
			</g>
		</g>
		<g id="Facial_Hair_4_">
			<g>
				<g>
					<path fill="#4D2B00" d="M440.455,944.674c5.31-12.331-6.676-23.225-15.663-30.009c-3.917-2.956-7.985-5.678-11.796-8.78
						c-4.084-3.325-9.353-7.555-10.667-12.906c-1.487-6.061,7.345-1.506,9.153-0.531c4.997,2.69,9.596,6.145,14.146,9.514
						c4.839,3.584,9.424,7.079,13.63,11.449c6.571,6.827,11.985,14.688,18.271,21.77c1.148,1.295,3.925,0.756,4.178-1.103
						c1.473-10.784-4.774-18.05-13.253-23.766c-6.565-4.426-19.646-8.706-21.532-17.405c-0.471-2.172,1.104-9.406,4.232-8.47
						c3.824,1.146,7.066,6.862,9.172,9.868c3.195,4.563,6.088,9.329,9.228,13.929c2.019,2.957,4.269,6.542,7.481,8.337
						c1.868,1.045,4.318-0.669,3.672-2.823c-2.93-9.762-18.185-26.089-8.643-35.567c-1.309-0.168-2.617-0.337-3.926-0.506
						c5.049,9.731,4.578,21.102,12.391,29.506c1.493,1.606,4.295,0.366,4.268-1.768c-0.099-7.794-3.157-19.884,4.762-24.842
						c-1.225-0.498-2.448-0.996-3.672-1.493c1.803,11.476-2.172,23.779,3.252,34.597c0.989,1.974,4.034,1.403,4.568-0.597
						c1.848-6.912,1.882-15.574,8.852-19.507c-1.141-0.299-2.28-0.598-3.42-0.896c1.893,3.598-0.525,8.98-1.884,12.357
						c-2.542,6.322-6.327,12.226-10.187,17.808c-3.644,5.271-7.707,10.276-12.203,14.844c-1.541,1.565-6.389,7.058-8.904,6.318
						c-3.101-0.91-4.415,3.915-1.328,4.822c4.211,1.236,8.551-2.809,11.392-5.335c5.642-5.017,10.376-11.135,14.749-17.255
						c4.606-6.446,8.673-13.331,11.632-20.691c1.886-4.688,3.558-10.628,1.05-15.392c-0.641-1.219-2.274-1.543-3.42-0.896
						c-8.445,4.765-8.894,14.051-11.148,22.493c1.522-0.198,3.046-0.397,4.568-0.597c-4.991-9.957-1.064-22.692-2.748-33.403
						c-0.25-1.592-2.411-2.282-3.672-1.493c-10.133,6.343-7.367,19.043-7.238,29.158c1.423-0.589,2.846-1.179,4.268-1.768
						c-7.269-7.819-6.854-19.331-11.609-28.494c-0.75-1.446-2.826-1.599-3.926-0.506c-12.264,12.18,3.678,28.177,7.357,40.433
						c1.224-0.941,2.447-1.883,3.672-2.823c-3.562-1.991-5.979-6.924-8.134-10.207c-3.354-5.106-6.601-10.272-10.352-15.103
						c-2.442-3.144-5.871-7.271-10.159-7.644c-4.475-0.389-6.742,3.833-8.027,7.446c-8.362,23.508,37.135,23.037,34,46
						c1.393-0.367,2.785-0.735,4.178-1.103c-6.67-7.516-12.477-15.751-19.453-22.999c-4.312-4.48-9.283-7.91-14.247-11.585
						c-4.95-3.665-20.808-17.521-27.468-10.787c-8.428,8.519,5.169,19.656,11.261,24.514c3.985,3.179,8.404,5.851,12.271,9.163
						c5.859,5.02,16.528,13.33,12.71,22.2C434.877,945.078,439.184,947.628,440.455,944.674L440.455,944.674z"/>
				</g>
			</g>
			<g>
				<g>
					<path fill="#4D2B00" d="M378.862,643.18c-0.584-0.72-0.211,0.364-0.259,1.155c-0.072,1.172-0.356,2.336-0.608,3.479
						c-0.805,3.647-1.974,7.222-3.149,10.764c-2.77,8.342-6.002,16.535-9.325,24.669c-2.228,5.449-4.441,10.954-7.05,16.236
						c-2.284,4.628-4.194,9.622-5.828,14.512c-1.22,3.649-2.703,8.812-0.864,12.52c3.306,6.667,9.771,2.694,12.823-1.661
						c5.174-7.387,7.622-17.077,10.46-25.518c2.706-8.047,5.858-15.924,8.582-23.968c2.887-8.522,5.411-17.874,10.413-25.452
						c1.673-2.534,1.415-2.17,1.395,0.613c-0.031,4.214-1.31,8.508-2.378,12.549c-2.341,8.855-5.439,17.487-8.205,26.213
						c-2.759,8.709-5.991,17.32-8.087,26.222c-1.466,6.227-3.23,15.722,3.263,19.761c11.342,7.054,14.086-30.355,14.754-35.049
						c1.221-8.578,3.406-16.916,6.127-25.138c1.662-5.021,3.566-9.97,5.786-14.771c1.462-3.162,3.248-7.6,6.165-9.738
						c0.718-0.525-0.202-0.33,0.423-0.087c0.638,0.248-0.81-0.573-0.98-0.994c0.191,0.472,0.16,0.711,0.18,1.381
						c0.064,2.226-0.265,4.488-0.572,6.686c-0.963,6.887-2.321,13.72-3.543,20.563c-2.577,14.441-5.961,29.906-4.386,44.639
						c0.479,4.492,1.64,9.215,5.476,11.994c4.465,3.236,7.981-0.595,9.61-4.604c3.001-7.39,3.261-16.319,3.975-24.162
						c0.719-7.889,1.494-15.767,2.26-23.646c0.896-9.219-0.498-18.948,2.154-27.935c0.215-0.728,0.535-1.493,1.01-2.094
						c0.571-0.724-0.794-1.478-0.495-0.161c0.446,1.962,0.076,4.324-0.038,6.308c-0.287,4.953-0.895,9.832-0.207,14.78
						c1.438,10.362,5.141,20.268,6.971,30.586c1.569,8.846,3.116,17.762,5.758,26.362c1.02,3.32,3.851,12.729,9.175,10.927
						c5.485-1.857,3.996-10.894,3.604-15.17c-1.563-17.057-5.622-33.938-8.312-50.846c-0.705-4.437-1.303-8.892-1.617-13.374
						c-0.12-1.707-0.147-3.417-0.072-5.126c0.027-0.629,0.118-1.229,0.251-1.842c0.318-1.469-1.896-0.871-1.434-0.14
						c2.084,3.296,2.436,8.375,3.17,12.113c1.039,5.288,1.957,10.59,3.51,15.758c2.028,6.752,5.135,13.194,7.911,19.658
						c2.107,4.906,3.572,9.886,5.236,14.938c1.584,4.809,5.857,17.049,13.225,13.711c6.243-2.828,1.318-13.907-0.298-18.121
						c-3.555-9.264-6.923-18.563-9.867-28.052c-3.183-10.255-7.107-22.648-4.545-33.444c0.462-1.946-0.2-0.157-0.938-0.603
						c0.588,0.355,1.07,1.343,1.425,1.897c1.775,2.78,3.071,5.909,4.319,8.95c5.36,13.062,8.351,26.839,14.753,39.473
						c4.086,8.062,8.767,16.099,14.55,23.072c2.436,2.938,8.173,6.719,9.482,0.504c1.347-6.389-4.298-14.926-6.97-20.31
						c-3.954-7.969-8.521-15.727-10.729-24.396c-2.533-9.941-5.623-19.741-7.757-29.783c-0.41-1.928-0.755-3.869-0.95-5.831
						c-0.068-0.691-0.078-1.383-0.074-2.076c0.011-1.635,0.439-0.068-0.779-0.251c3.063,0.459,5.628,5.299,7.09,7.577
						c9.488,14.793,14.104,32.081,22.611,47.385c3.109,5.593,7.952,15.175,14.909,16.734c5.991,1.343,6.602-5.123,5.635-9.199
						c-1.967-8.3-6.651-16.254-10.467-23.796c-4.586-9.064-9.531-18.057-13.153-27.564c-1.238-3.249-2.68-6.416-3.808-9.708
						c-0.572-1.669-1.025-3.377-1.028-5.148c-0.005-2.33,4.798,1.045,5.365,1.605c3.564,3.518,5.676,8.85,7.84,13.277
						c1.615,3.307,3.443,6.467,5.154,9.717c3.362,6.385,29.495,58.378,40.174,42.792c2.57-3.751-1.789-9.955-3.713-12.938
						c-3.258-5.049-7.285-9.5-10.311-14.7c-5.495-9.444-9.828-19.427-16.385-28.234c-2.909-3.907-6.06-7.632-9.103-11.435
						c-0.871-1.088-6.702-7.51-5.597-9.23c1.75-2.721-2.579-5.226-4.316-2.523c-1.619,2.517-0.38,5.337,0.907,7.705
						c2.666,4.903,6.777,9.204,10.264,13.518c9.001,11.135,14.234,24.009,21.854,35.979c3.808,5.981,9.479,11.045,11.793,17.912
						c0.955,2.836-2.065,1.182-3.477,0.281c-3.17-2.024-5.709-5.385-7.956-8.333c-9.236-12.121-16.438-26.202-23.356-39.753
						c-3.688-7.223-7.274-18.785-16.144-21.028c-8.338-2.108-8.564,6.257-6.787,11.867c5.594,17.663,15.553,33.714,23.326,50.427
						c1.603,3.446,3.116,6.964,4.102,10.642c0.722,2.694,0.882,3.996-1.773,1.871c-7.014-5.614-11.347-15.915-15.007-23.865
						c-6.657-14.46-11.131-32.161-22.583-43.741c-3.578-3.618-9.457-4.641-10.247,1.582c-0.401,3.165,0.547,6.74,1.169,9.814
						c1.06,5.243,2.494,10.415,3.898,15.573c2.32,8.525,4.149,17.204,7.861,25.251c3.971,8.609,8.914,16.808,12.3,25.681
						c0.556,1.456,1.002,2.946,1.301,4.475c0.079,0.402,0.089,0.876,0.005,1.277c0.422-2.005,2.631,0.342,1.208-0.804
						c-2.836-2.286-4.903-5.736-6.899-8.722c-5.519-8.257-10.477-17.22-14.012-26.513c-4.549-11.958-7.168-24.532-13.226-35.94
						c-1.401-2.641-5.308-8.626-8.867-4.999c-4.619,4.707-2.452,15.65-1.614,21.195c1.9,12.563,6.509,24.669,10.633,36.626
						c2.179,6.315,7.678,14.757,6.698,21.555c-0.191,1.327-2.749-2.182-3.045-2.65c-1.264-1.997-2.083-4.271-2.879-6.481
						c-1.579-4.387-2.714-8.878-4.44-13.216c-2.763-6.94-6.023-13.66-8.506-20.714c-1.852-5.264-2.789-10.792-3.84-16.255
						c-0.658-3.427-1.909-18.585-8.334-16.989c-5.463,1.357-3.752,11.258-3.398,15.072c1.564,16.919,5.475,33.679,8.221,50.43
						c0.75,4.578,1.393,9.175,1.704,13.805c0.113,1.699,0.126,3.401,0.029,5.101c-0.036,0.631-0.152,1.221-0.3,1.833
						c-0.338,1.4-0.258-0.062,0.629,0.372c-2.009-0.983-2.958-5.553-3.559-7.417c-1.423-4.416-2.399-8.983-3.342-13.521
						c-1.56-7.5-2.569-15.119-4.242-22.595c-1.659-7.419-4.461-14.368-5.243-22.002c-0.492-4.805,0.387-9.771,0.603-14.575
						c0.12-2.674,0.333-6.397-1.832-8.391c-2.107-1.94-5.187-0.393-6.68,1.498c-4.82,6.102-3.689,17.219-3.863,24.456
						c-0.188,7.836-1.254,15.556-1.89,23.362c-0.739,9.075-1.271,18.272-3.22,27.188c-0.324,1.482-1.223,6.155-2.521,6.683
						c-0.674,0.274-2.366-1.916-2.824-3.02c-2.245-5.41-1.681-12.081-1.321-17.772c0.986-15.582,4.466-30.923,7.05-46.286
						c0.606-3.601,4.722-23.665-5.613-17.628c-6.163,3.601-9.173,13.928-11.58,20.08c-3.426,8.754-6.241,17.912-7.949,27.166
						c-1.589,8.606-2.312,17.346-4.037,25.934c-0.691,3.439-1.479,7.051-3.173,10.152c-1.926,3.524-3.037-1.796-3.139-3.763
						c-0.492-9.537,4.15-19.719,7.128-28.586c2.646-7.877,5.151-15.825,7.635-23.755c2.394-7.642,5.494-16.168,5.195-24.297
						c-0.189-5.142-4.564-7.759-8.683-4.25c-5.481,4.669-7.845,14.539-10.143,21.002c-2.989,8.406-5.846,16.835-8.979,25.188
						c-2.254,6.008-4.103,12.164-6.302,18.192c-1.748,4.791-3.942,12.739-8.574,15.661c-2.481,1.565-1.449-5.304-1.317-5.955
						c0.851-4.202,2.62-8.278,4.28-12.209c1.661-3.935,3.487-7.791,5.19-11.707c4.62-10.628,8.949-21.406,12.782-32.343
						c1.717-4.896,3.366-9.865,4.411-14.954c0.551-2.682,1.158-5.879-0.702-8.172C380.365,637.139,376.851,640.7,378.862,643.18
						L378.862,643.18z"/>
				</g>
			</g>
			<g>
				<g>
					<path fill="#4D2B00" d="M292.887,338.747c-3.714,10.711-9.355,20.755-13.267,31.425c-2.286,6.236-8.926,22.33-0.251,26.731
						c1.153,0.585,2.783,0.372,3.42-0.897c10.131-20.165,9.697-45.681,25.609-62.828c-1.309-0.168-2.617-0.337-3.926-0.506
						c6.668,9.924-3.67,23.96-8.386,32.633c-4.607,8.472-11.104,19.861-5.614,29.367c0.909,1.575,3.433,1.675,4.316,0
						c5.818-11.022,12.159-22.428,16.772-34.001c3.091-7.753,4.159-20.147,12.331-24.435c-1.141-0.299-2.28-0.598-3.42-0.897
						c5.483,10.318-2.529,22.04-7.69,30.798c-5.438,9.226-12.097,19.424-11.318,30.607c0.104,1.486,1.543,3.02,3.165,2.411
						c8.92-3.348,11.097-15.092,13.294-23.213c3.545-13.1,8.756-27.796,17.809-38.097c-1.423-0.589-2.845-1.178-4.268-1.768
						c-0.085,4.102-1.325,8.287-2.224,12.262c-1.429,6.331-2.979,12.635-4.448,18.957c-1.377,5.927-2.722,11.874-3.698,17.882
						c-0.499,3.066-1.54,7.303-0.307,10.326c1.497,3.672,5.518,2.421,7.786,0.214c3.855-3.751,5.207-10.466,6.442-15.451
						c1.297-5.234,2.013-10.589,3.263-15.83c2.451-10.279,7.511-19.396,13.845-27.765c-1.554-0.42-3.106-0.841-4.659-1.262
						c0.891,10.661-4.472,20.38-7.243,30.395c-3.033,10.957-4.62,22.283-5.423,33.605c-0.122,1.726,1.679,2.706,3.165,2.411
						c4.313-0.855,6.84-4.969,8.569-8.653c2.943-6.269,4.491-13.196,6.092-19.898c1.763-7.381,3.355-14.804,5.5-22.087
						c1.629-5.53,3.576-12.256,8.274-16.005c-1.393-0.368-2.785-0.735-4.178-1.103c8.27,22.342-14.657,43.083-10,65.333
						c0.66,3.155,5.479,1.816,4.82-1.329c-2.189-10.465,3.9-22.334,7.149-32.014c3.538-10.538,6.878-22.443,2.851-33.32
						c-0.694-1.877-2.652-2.321-4.178-1.103c-3.927,3.133-5.987,8.078-7.719,12.648c-2.598,6.856-4.176,14.106-5.84,21.23
						c-1.577,6.755-3.079,13.544-5.211,20.152c-1.162,3.603-3.061,10.455-7.461,11.327c1.056,0.804,2.11,1.607,3.165,2.411
						c0.845-11.916,2.646-23.82,6.112-35.274c2.869-9.481,7.403-18.561,6.554-28.726c-0.218-2.6-3.15-3.255-4.659-1.262
						c-8.714,11.515-13.327,23.679-16.064,37.664c-1.057,5.401-2.261,10.815-4.227,15.967c-0.676,1.77-1.654,4.058-3.334,5.09
						c-0.339,0.208,1.491,1.977,1.179,0.449c-0.13-0.637-0.017-1.422,0.012-2.066c0.426-9.997,3.654-20.2,5.948-29.881
						c1.925-8.121,4.972-16.88,5.146-25.294c0.043-2.097-2.813-3.424-4.268-1.768c-8.394,9.55-12.37,21.62-16.962,33.243
						c-1.792,4.536-2.712,9.44-4.118,14.103c-1.286,4.263-3.153,10.928-7.817,12.678c1.056,0.804,2.11,1.607,3.165,2.411
						c-1.547-22.22,30.329-41.343,18.325-63.928c-0.66-1.243-2.252-1.51-3.42-0.897c-7.86,4.124-10.304,14.215-12.78,22.009
						c-1.8,5.664-4.466,10.697-7.103,16.013c-3.672,7.404-7.155,14.896-11.014,22.208c1.438,0,2.878,0,4.316,0
						c-5.581-9.665,5.485-23.928,9.866-32.139c4.685-8.782,10.456-20.454,4.134-29.861c-0.864-1.286-2.772-1.75-3.926-0.506
						c-16.452,17.729-15.973,43.102-26.391,63.839c1.14-0.299,2.279-0.598,3.42-0.897c-2.955-1.5-1.381-7.329-0.872-9.761
						c1.173-5.605,3.243-11.039,5.335-16.353c3.498-8.887,8.225-17.377,11.354-26.397
						C298.768,337.021,293.937,335.72,292.887,338.747L292.887,338.747z"/>
				</g>
			</g>
			<g>
				<g>
					<path fill="#4D2B00" d="M559.668,319.25c-5.887,11.915-10.275,24.825-12.799,37.867c-2.072,10.713-3.686,25.604,6.197,33.05
						c1.16,0.874,2.702,0.107,3.42-0.897c13.592-19.003-1.891-54.185,21.602-66.6c-1.254-0.72-2.508-1.439-3.762-2.159
						c2.67,19.938-7.07,39.217-2.91,59.162c0.414,1.984,2.853,2.23,4.179,1.103c7.494-6.368,8.439-16.747,9.425-25.901
						c1.311-12.174,2.78-25.084,14.067-32.205c-1.254-0.72-2.508-1.439-3.762-2.159c-0.098,4.009-1.461,8.16-2.351,12.042
						c-1.54,6.726-3.104,13.446-4.404,20.223c-1.045,5.451-6.235,24.557,2.223,27.103c8.633,2.598,11.784-14.368,13.42-19.575
						c2.302-7.331,4.388-14.728,6.729-22.046c1.663-5.195,3.199-11.609,6.649-15.979c-1.393-0.368-2.785-0.735-4.178-1.103
						c4.06,11.57-2.051,22.846-6.264,33.445c-3.74,9.41-5.165,18.336-1.257,27.92c1.584,3.885,5.228,7.543,9.103,3.789
						c3.979-3.855,5.277-11.276,6.627-16.369c3.612-13.624,5.639-27.662,12.285-40.31c0.296-0.563,0.634-1.186,1.02-1.609
						c-1.003,1.1-2.961-1.7-2.609-0.325c0.427,1.667,0.224,3.614,0.18,5.315c-0.155,6.031-0.803,12.058-1.365,18.062
						c-0.55,5.868-1.134,11.735-1.506,17.617c-0.221,3.483-0.731,7.551,0.287,10.962c0.92,3.082,5.745,1.768,4.82-1.329
						c-1.097-3.675-0.196-8.596,0.082-12.406c0.477-6.554,1.167-13.092,1.759-19.637c0.326-3.604,4.234-23.959-3.473-22.849
						c-3.585,0.517-5.623,8.194-6.645,10.756c-2.658,6.666-4.737,13.316-6.313,20.299c-1.638,7.263-3.207,14.571-5.552,21.646
						c-0.737,2.224-1.55,4.851-3.133,6.642c-0.514,0.582,0.499,0.437,0.18,0.02c-1.083-1.415-1.588-3.274-2.108-4.944
						c-3.233-10.362,1.686-20.074,5.549-29.548c3.725-9.137,6.551-18.796,3.153-28.476c-0.553-1.576-2.915-2.703-4.178-1.103
						c-6.59,8.344-8.835,20.887-11.814,30.84c-1.771,5.913-3.515,11.84-5.598,17.652c-0.749,2.091-1.573,4.152-2.617,6.115
						c-0.774,1.453-0.998,1.895-1.578,1.805c-5.69-0.882,7.732-48.775,7.876-54.645c0.046-1.86-2.171-3.163-3.762-2.159
						c-10.039,6.333-13.903,16.562-15.53,27.873c-1.454,10.109-0.436,23.76-8.974,31.015c1.393,0.368,2.785,0.735,4.179,1.103
						c-4.042-19.377,5.695-38.364,3.088-57.833c-0.25-1.869-1.931-3.126-3.762-2.159c-25.995,13.737-8.979,48.237-23.395,68.394
						c1.14-0.299,2.279-0.598,3.42-0.897c-8.551-6.441-5.021-22.435-3.145-31.079c2.458-11.327,6.405-22.604,11.541-32.997
						C565.409,318.894,561.097,316.359,559.668,319.25L559.668,319.25z"/>
				</g>
			</g>
		</g>
	</g>
</g>
<g id="FakeSmile">
</g>
</svg>
