<?xml version="1.0" encoding="utf-8"?>
<!-- Generator: Adobe Illustrator 16.0.0, SVG Export Plug-In . SVG Version: 6.00 Build 0)  -->
<!DOCTYPE svg PUBLIC "-//W3C//DTD SVG 1.1//EN" "http://www.w3.org/Graphics/SVG/1.1/DTD/svg11.dtd">
<svg version="1.1" xmlns="http://www.w3.org/2000/svg" xmlns:xlink="http://www.w3.org/1999/xlink" x="0px" y="0px" width="1024px"
	 height="1024px" viewBox="0 0 1024 1024" enable-background="new 0 0 1024 1024" xml:space="preserve">
<g id="Layer_4">
</g>
<g id="Layer_7">
</g>
<g id="Layer_9">
</g>
<g id="Layer_8">
</g>
<g id="Layer_6">
</g>
<g id="Layer_2">
	<g>
		<g id="Coin_Slot_3_">
			<g>
				
					<linearGradient id="SVGID_1_" gradientUnits="userSpaceOnUse" x1="-277.835" y1="-2244.5425" x2="981.4424" y2="-2244.5425" gradientTransform="matrix(1 0 0 -1 214.3999 -1358.5645)">
					<stop  offset="0" style="stop-color:#B0B0AE"/>
					<stop  offset="1" style="stop-color:#565756"/>
				</linearGradient>
				<path fill="url(#SVGID_1_)" d="M193.809,936.72l17.986-64.755l10.285-36.729h269.194l93.895,39.34
					c0.188,0.075,0.383,0.12,0.578,0.12c0.198,0,0.393-0.045,0.581-0.12l94.016-39.34h126.299l28.629,101.483H193.809z"/>
				<path fill="#010101" d="M805.508,836.751l27.777,98.465H195.796l17.449-62.844l9.969-35.621H490.97l93.611,39.216
					c0.373,0.157,0.776,0.232,1.166,0.232c0.393,0,0.796-0.075,1.159-0.232l93.732-39.216H805.508 M807.788,833.731H680.036
					l-94.289,39.446l-94.165-39.446H220.934l-10.592,37.823l-18.52,66.659h645.445L807.788,833.731L807.788,833.731z"/>
			</g>
			<g>
				
					<linearGradient id="SVGID_2_" gradientUnits="userSpaceOnUse" x1="370.0303" y1="-2098.0654" x2="626.5195" y2="-2098.0654" gradientTransform="matrix(1 0 0 -1 214.3999 -1358.5645)">
					<stop  offset="0" style="stop-color:#B0B0AE"/>
					<stop  offset="1" style="stop-color:#565756"/>
				</linearGradient>
				<polygon fill="url(#SVGID_2_)" points="666.884,808.603 666.884,734.954 749.742,670.399 787.914,808.603 				"/>
				<path fill="#010101" d="M748.892,672.972l37.05,134.123H668.397v-71.406l29.929-23.326L748.892,672.972 M750.59,667.825
					l-54.115,42.158l-31.084,24.236v75.891h124.52L750.59,667.825L750.59,667.825z"/>
			</g>
			<g>
				
					<linearGradient id="SVGID_3_" gradientUnits="userSpaceOnUse" x1="92.9092" y1="-2098.0586" x2="327.2788" y2="-2098.0586" gradientTransform="matrix(1 0 0 -1 214.3999 -1358.5645)">
					<stop  offset="0" style="stop-color:#B0B0AE"/>
					<stop  offset="1" style="stop-color:#565756"/>
				</linearGradient>
				<polygon fill="url(#SVGID_3_)" points="358.607,808.603 367.399,777.17 397.175,670.386 460.682,719.887 472.525,729.036 
					480.039,734.947 480.039,808.603 				"/>
				<path fill="#010101" d="M398.025,672.96l61.742,48.117l11.811,9.139l6.957,5.471v71.408H360.604l8.256-29.518L398.025,672.96
					 M396.324,667.825l-30.378,108.941l-9.323,33.344h124.924V734.22l-8.105-6.37l-11.832-9.155L396.324,667.825L396.324,667.825z"
					/>
			</g>
			<g>
				<polygon fill="#231F20" points="187.559,885.905 214.172,790.716 220.105,833.844 209.536,871.335 192.215,933.667 				"/>
				<path fill="#010101" d="M213.897,794.849l5.323,38.766l-10.492,37.498l-16.109,57.998l-4.198-42.977L213.897,794.849
					 M214.455,786.61l-27.723,99.379l5.09,52.238l18.52-66.666l10.581-37.83L214.455,786.61L214.455,786.61z"/>
			</g>
			<g>
				<path fill="#B0B0AE" d="M221.664,832.891l-6.248-45.448H349.15l6.667,22.895c0.108,0.358,0.435,0.598,0.806,0.598h124.333
					l9.362,21.956H221.664z"/>
				<path fill="#010101" d="M348.518,788.28l6.504,22.289c0.205,0.715,0.851,1.206,1.602,1.206h123.79l8.64,20.287H222.394
					l-6.021-43.782H348.518 M349.772,786.61H214.455l6.479,47.121h270.648L481.514,810.1H356.623L349.772,786.61L349.772,786.61z"/>
			</g>
			<g>
				<polygon fill="#231F20" points="350.559,786.366 388.579,650.506 395.547,668.13 365.141,776.537 356.61,807.065 				"/>
				<path fill="#010101" d="M388.72,653.135l2.301,5.813l3.534,8.971l-30.222,108.4l-7.743,27.706l-5.094-17.431L388.72,653.135
					 M388.449,647.888l-38.697,138.716l6.871,23.507l9.323-33.344l30.366-108.941l-3.742-9.49L388.449,647.888L388.449,647.888z"/>
			</g>
			<g>
				<polygon fill="#767677" points="473.955,727.183 462.123,718.034 396.836,667.159 393.366,658.031 390.367,650.444 
					470.925,713.388 475.091,722.503 479.277,731.362 				"/>
				<path fill="#010101" d="M392.275,653.002l77.819,60.794l4.243,9.072l2.659,5.645l-2.515-1.981l-11.838-9.153l-64.927-50.596
					l-3.565-9.07L392.275,653.002 M388.449,647.888l4.133,10.447l3.742,9.49l65.285,50.873l11.832,9.151l8.105,6.374l-5.705-12.063
					l-4.407-9.429L388.449,647.888L388.449,647.888z"/>
			</g>
			<g>
				<polygon fill="#838383" points="651.714,712.896 733.523,649.022 738.998,655.521 749.395,667.698 665.563,733.009 				"/>
				<path fill="#010101" d="M733.404,650.177l4.961,5.892l9.814,11.504l-52.73,41.091l-29.7,23.146l-7.81-11.323l-5.083-7.408
					L733.404,650.177 M733.664,647.888h-0.055l-83.029,64.834l5.976,8.708l8.823,12.79l31.084-24.236l54.117-42.158l-10.951-12.848
					L733.664,647.888L733.664,647.888z"/>
			</g>
			<g>
				<polygon fill="#7C7C7C" points="492.225,833.085 482.321,809.779 482.375,801.174 565.364,834.729 583.969,871.562 				"/>
				<path fill="#010101" d="M483.227,802.429l81.525,32.961l17.439,34.516l-89.322-37.457l-9.643-22.679V802.429 M481.547,799.943
					v10.167l10.047,23.621l94.145,39.473l-19.771-39.141L481.547,799.943L481.547,799.943z"/>
			</g>
			<g>
				<polygon fill="#9C9C9D" points="567.107,834.495 656.218,797.14 678.826,833.337 586.131,872.132 				"/>
				<path fill="#010101" d="M655.889,798.186l21.707,34.76l-91.063,38.119l-18.266-36.147l82.955-34.779L655.889,798.186
					 M656.556,796.09l-5.976,2.509l-84.613,35.471l19.771,39.143l94.331-39.48L656.556,796.09L656.556,796.09z"/>
			</g>
			<g>
				<path fill="#231F20" d="M657.262,795.646c-0.148-0.252-0.422-0.394-0.706-0.394c-0.108,0-0.22,0.021-0.328,0.065l-4.81,2.023
					V715.42l13.273,19.271l-0.143,72.525L657.262,795.646z"/>
				<path fill="#010101" d="M652.248,718.12l2.924,4.26l8.529,12.362v69.563l-5.728-9.107c-0.328-0.504-0.86-0.787-1.418-0.787
					c-0.22,0-0.437,0.045-0.653,0.129l-3.654,1.529V718.12 M650.58,712.722v85.877l5.976-2.509l8.823,14.027V734.22l-8.823-12.79
					L650.58,712.722L650.58,712.722z"/>
			</g>
			<g>
				<polygon fill="#B0B0AE" points="680.509,832.891 666.863,810.935 789.462,810.935 806.096,832.891 				"/>
				<path fill="#010101" d="M789.039,811.775l15.378,20.287h-123.44l-12.609-20.287H789.039 M789.877,810.1H665.355l14.681,23.632
					h127.752L789.877,810.1L789.877,810.1z"/>
			</g>
		</g>
		<g id="Coin_Slot_2_">
			
				<path fill="#B0B0AE" stroke="#010101" stroke-width="0.4455" stroke-linecap="round" stroke-linejoin="round" stroke-miterlimit="10" d="
				M560.98,558.484c-95.281,0-149.389,44.779-172.518,89.561h0.062h345.109C710.505,603.264,656.388,558.484,560.98,558.484z"/>
			
				<linearGradient id="SVGID_4_" gradientUnits="userSpaceOnUse" x1="346.6753" y1="-2007.1714" x2="346.6753" y2="-2197.7368" gradientTransform="matrix(1 0 0 -1 214.3999 -1358.5645)">
				<stop  offset="0" style="stop-color:#B0B0AE"/>
				<stop  offset="0.2169" style="stop-color:#ADADAB"/>
				<stop  offset="0.3942" style="stop-color:#A2A2A0"/>
				<stop  offset="0.5575" style="stop-color:#92918F"/>
				<stop  offset="0.7124" style="stop-color:#797978"/>
				<stop  offset="0.8601" style="stop-color:#5B5B5A"/>
				<stop  offset="0.9646" style="stop-color:#404140"/>
			</linearGradient>
			
				<polygon fill="url(#SVGID_4_)" stroke="#010101" stroke-width="0.4455" stroke-linecap="round" stroke-linejoin="round" stroke-miterlimit="10" points="
				733.653,648.018 650.625,712.852 650.625,798.737 566.018,834.202 481.589,800.076 481.589,734.35 475.887,722.286 
				471.479,712.852 388.497,648.018 			"/>
		</g>
	</g>
	<path fill="#7C194E" stroke="#BA7C2B" stroke-width="6" stroke-miterlimit="10" d="M563.642,691.056
		c-1.979,0.016-74.011-67.516-74.011-121.349c0-6.667,44.164,39.833,44.164,33.598c0-197.599-10.822-176.265-36.765-226.265
		c-8.375-16.142,56.59-4,66.611,28c10.021-32,74.986-44.142,66.611-28c-25.942,50-36.765,28.666-36.765,226.265
		c0,6.235,44.164-40.265,44.164-33.598C637.652,623.54,565.62,691.071,563.642,691.056z"/>
	<g>
		<g>
			
				<linearGradient id="SVGID_5_" gradientUnits="userSpaceOnUse" x1="570.5293" y1="249.1172" x2="832.2334" y2="249.1172" gradientTransform="matrix(-1 0 0 1 1166.1406 0)">
				<stop  offset="0" style="stop-color:#E6C7A7"/>
				<stop  offset="0.0806" style="stop-color:#E7CEB4"/>
				<stop  offset="0.2154" style="stop-color:#E7D7C4"/>
				<stop  offset="0.3564" style="stop-color:#E8DCCE"/>
				<stop  offset="0.512" style="stop-color:#E8DED1"/>
				<stop  offset="0.6384" style="stop-color:#E7DCCE"/>
				<stop  offset="0.7595" style="stop-color:#E4D5C3"/>
				<stop  offset="0.8786" style="stop-color:#E0CAB2"/>
				<stop  offset="0.9958" style="stop-color:#D9BB9B"/>
				<stop  offset="1" style="stop-color:#D9BB9A"/>
			</linearGradient>
			<path fill="url(#SVGID_5_)" d="M333.907,179.791l0.002,27.288c0,14.003,3.638,31.724,10.265,42.017
				c6.625,5.509,16.159,22.487,28.024,35.327c11.856,12.198,25.971,13.265,41.608,25.777c15.64,7.307,32.863,7.539,50.954,6.354
				c18.023-0.416,35.247,8.066,50.942-7.847c15.646-9.653,29.748-13.882,41.617-24.284c11.788-0.204,21.401-27.47,28.028-36.49
				c6.625-11.45,10.263-24.089,10.263-40.854v-27.287c0,14.213-2.652,25.57-7.621,35.639c-0.791,1.805-1.658,3.398-2.642,5.096
				c-6.627,9.123-16.24,36.387-28.028,36.598c-11.869,10.402-25.971,14.64-41.617,24.298c-15.695,15.812-32.919,7.319-50.942,7.744
				c-18.091,1.272-35.314,0.954-50.954-6.256c-15.638-12.64-29.752-13.594-41.608-25.786
				c-11.865-12.932-21.399-29.904-28.024-35.332c-1.258-2.015-2.452-4.228-3.447-6.671
				C336.288,204.823,333.907,191.146,333.907,179.791z"/>
			
				<line fill="none" stroke="#CFA686" stroke-width="0.24" stroke-miterlimit="10" x1="557.32" y1="257.124" x2="557.32" y2="284.423"/>
			
				<line fill="none" stroke="#CFA686" stroke-width="0.24" stroke-miterlimit="10" x1="464.761" y1="289.166" x2="464.761" y2="316.554"/>
			
				<line fill="none" stroke="#CFA686" stroke-width="0.24" stroke-miterlimit="10" x1="354.172" y1="233.809" x2="354.172" y2="261.163"/>
			<path fill="none" stroke="#010101" stroke-width="0.4224" stroke-miterlimit="10" d="M333.907,179.791l0.002,27.288
				c0,14.003,3.639,31.724,10.266,42.017c6.625,5.509,16.16,22.487,28.025,35.327c11.855,12.198,25.971,13.265,41.607,25.777
				c15.641,7.307,32.863,7.539,50.955,6.354c18.023-0.416,35.246,8.066,50.941-7.847c15.647-9.653,29.749-13.882,41.618-24.284
				c11.787-0.204,21.4-27.47,28.027-36.49c6.625-11.45,10.264-24.089,10.264-40.854l-0.002-27.287
				c0,14.213-2.652,25.57-7.621,35.639c-0.791,1.805-1.658,3.398-2.642,5.096c-6.627,9.123-16.24,36.387-28.028,36.598
				c-11.869,10.402-25.971,14.64-41.617,24.298c-15.695,15.812-32.919,7.319-50.942,7.744c-18.091,1.272-35.314,0.954-50.954-6.256
				c-15.638-12.64-29.752-13.594-41.608-25.786c-11.865-12.932-21.399-29.904-28.024-35.332c-1.258-2.015-2.452-4.228-3.447-6.671
				C336.288,204.823,333.907,191.146,333.907,179.791z"/>
			<path fill="#F4EFC5" stroke="#010101" stroke-width="0.4224" stroke-miterlimit="10" d="M333.907,179.791
				c0,11.355,2.381,25.032,6.819,35.33c0.995,2.443,2.189,4.656,3.447,6.671c6.625,5.428,16.159,22.4,28.024,35.332
				c11.856,12.192,25.971,13.146,41.608,25.786c15.64,7.21,32.863,7.528,50.954,6.256c18.023-0.425,35.247,8.067,50.942-7.744
				c15.646-9.658,29.748-13.896,41.617-24.298c11.788-0.211,21.401-27.475,28.028-36.598c0.983-1.697,1.851-3.291,2.642-5.096
				c4.969-10.068,7.621-21.426,7.621-35.639c0-12.846-3.638-27.473-10.263-40.217c-6.627-16.534-16.24-24.073-28.093-37.229
				c-11.805-8.06-25.906-21.735-41.553-23.643c-15.695-0.85-32.919-4.144-50.942-8.39c-18.091-4.02-35.314,0-50.954,7.314
				c-15.638,11.562-29.752,9.136-41.608,24.717c-11.865,16.015-21.399,18.896-28.024,34.368
				C337.547,151.035,333.907,163.341,333.907,179.791z"/>
		</g>
		<g>
			<g>
				<path fill="#A7825F" d="M464.646,162.476c-11.396-22.992-21.842-27.897-49.896-35.631c5.625,0.184,10.679,0.273,15.395,0.273
					c0.003,0,0.004,0,0.006,0c30.611,0,46.026-3.818,74.178-11.759c-36.146,21.154-36.618,24.696-38.796,40.919
					C465.282,158.128,465.004,160.203,464.646,162.476z M483.817,123.838c-16.758,4.086-30.312,5.79-48.343,6.077l-1.099,0.018
					l1.024,0.397c11.841,4.597,19.273,10.171,25.655,19.239c0.41,0.59,0.826,1.212,1.237,1.833l0.302,0.457l0.09-0.54
					c1.825-10.996,5.16-16.453,21.302-27.093l1.034-0.682L483.817,123.838z"/>
				<path fill="#F1D089" d="M502.777,116.02c-34.807,20.459-35.3,24.141-37.46,40.23c-0.224,1.666-0.472,3.515-0.78,5.526
					c-11.083-22.082-21.415-27.242-48.008-34.661c4.92,0.146,9.403,0.218,13.62,0.218
					C460.198,127.333,475.618,123.656,502.777,116.02 M462.718,152.434l0.179-1.079c1.814-10.927,5.134-16.353,21.208-26.948
					l2.068-1.364l-2.406,0.587c-16.741,4.082-30.281,5.784-48.295,6.071l-2.198,0.035l2.05,0.795
					c11.797,4.58,19.201,10.132,25.555,19.16c0.411,0.591,0.826,1.211,1.236,1.831L462.718,152.434 M505.893,114.694h0.005H505.893z
					 M505.893,114.694c-29.431,8.318-44.938,12.209-75.743,12.209c-5.25,0-10.939-0.112-17.225-0.336
					c29.894,8.16,40.283,13.036,51.826,36.609C468.404,140.635,463.639,139.326,505.893,114.694L505.893,114.694z M462.473,151.284
					c-0.412-0.623-0.829-1.246-1.241-1.839c-6.741-9.579-14.44-14.924-25.753-19.315c19.425-0.31,32.873-2.3,48.39-6.083
					C467.316,134.957,464.258,140.53,462.473,151.284L462.473,151.284z"/>
			</g>
			<path fill="#695049" d="M448.951,132.863c4.489,2.757,8.267,5.925,11.645,9.759c1.643-4.302,4.22-8.04,8.804-12.16
				C462.627,131.621,456.016,132.396,448.951,132.863z"/>
			<path fill="#A7825F" d="M435.479,130.13c11.313,4.392,19.012,9.736,25.753,19.315c0.412,0.593,0.829,1.216,1.241,1.839
				c1.785-10.754,4.844-16.327,21.396-27.237C468.352,127.83,454.903,129.82,435.479,130.13z M448.951,132.863
				c7.064-0.468,13.676-1.242,20.448-2.401c-4.584,4.12-7.161,7.858-8.804,12.16C457.218,138.788,453.44,135.62,448.951,132.863z"/>
			<g>
				<path fill="#A7825F" d="M419.728,234.726c-6.792-27.949-15.365-42.832-40.323-70.134c21.125,12.094,36.884,19.076,54.163,19.076
					c5.148,0,10.245-0.619,15.543-1.892c-2.182,1.493-4.238,2.844-6.081,4.054C427.385,196.103,421.391,200.04,419.728,234.726z
					 M394.045,176.363c3.603,4.349,6.647,8.309,9.307,12.106c6.312,8.968,10.715,17.286,14.276,26.972l0.279,0.757l0.135-0.795
					c2.679-15.766,7.681-21.545,17.882-28.535l0.61-0.419l-0.739,0.026c-0.8,0.028-1.595,0.042-2.387,0.042
					c-12.22,0-24.279-3.233-39.104-10.484l-0.897-0.438L394.045,176.363z"/>
				<path fill="#F1D089" d="M380.481,165.453c20.564,11.697,36.084,18.43,53.086,18.43c4.802,0,9.558-0.537,14.472-1.638
					c-1.828,1.238-3.556,2.373-5.128,3.405c-15.489,10.17-21.558,14.153-23.324,47.603
					C412.922,206.511,404.341,191.688,380.481,165.453 M417.983,217.03l0.271-1.591c2.665-15.689,7.643-21.439,17.792-28.395
					l1.221-0.836l-1.479,0.052c-0.79,0.028-1.591,0.042-2.38,0.042c-12.185,0-24.216-3.227-39.01-10.462l-1.794-0.878l1.274,1.538
					c3.6,4.344,6.641,8.299,9.297,12.093c6.3,8.951,10.695,17.254,14.251,26.922L417.983,217.03 M378.31,163.715
					c26.033,28.34,34.601,43.158,41.563,72.538c1.772-40.957,9.369-40.445,30.333-54.971c-5.779,1.482-11.281,2.171-16.639,2.171
					C415.315,183.453,398.715,175.47,378.31,163.715L378.31,163.715z M417.83,215.367c-3.649-9.923-8.104-18.213-14.303-27.021
					c-2.666-3.808-5.704-7.76-9.317-12.12c12.896,6.308,25.433,10.506,39.198,10.506c0.795,0,1.592-0.014,2.395-0.042
					C426.177,193.287,420.624,198.921,417.83,215.367L417.83,215.367z M450.206,181.282h0.005H450.206z"/>
			</g>
			<path fill="#695049" d="M405.613,184.786c0.466,0.649,0.917,1.282,1.357,1.916c3.949,5.626,7.182,10.999,9.913,16.588
				c2.2-5.824,5.215-9.948,9.293-13.632C419.535,188.979,412.81,187.397,405.613,184.786z"/>
			<path fill="#A7825F" d="M403.527,188.347c6.199,8.808,10.653,17.098,14.303,27.021c2.794-16.446,8.347-22.08,17.973-28.677
				c-14.716,0.52-27.952-3.792-41.593-10.464C397.823,180.587,400.861,184.539,403.527,188.347z M406.971,186.702
				c-0.44-0.634-0.892-1.267-1.357-1.916c7.196,2.611,13.922,4.193,20.563,4.872c-4.078,3.684-7.093,7.808-9.293,13.632
				C414.152,197.701,410.92,192.328,406.971,186.702z"/>
			<g>
				<path fill="#A7825F" d="M495.378,235.701c3.859-29.209-2.119-36.651-13.833-51.233c-1.349-1.679-2.774-3.454-4.273-5.37
					c11.449,3.437,21.098,5.711,30.753,5.711c11.984,0,24.162-3.541,41.723-12.174c-2.919,2.485-5.672,4.804-8.279,6.999
					C519.037,198.521,507.594,208.157,495.378,235.701z M486.146,184.962c2.361,2.938,3.962,5.035,5.352,7.013
					c5.078,7.219,8.285,14.12,8.583,26.204l0.019,0.739l0.381-0.634c8.186-13.622,16.855-22.241,30.981-34.308l0.83-0.709
					l-1.037,0.342c-8.293,2.732-15.668,4.004-23.208,4.004c-6.484,0-13.374-0.951-21.681-2.995l-0.617-0.151L486.146,184.962z"/>
				<path fill="#F1D089" d="M548.31,173.574c-2.427,2.061-4.732,4.002-6.98,5.895c-22.092,18.603-33.537,28.241-45.553,54.817
					c3.485-28.107-2.507-35.565-14.064-49.953c-1.238-1.543-2.513-3.129-3.854-4.835c11.184,3.333,20.668,5.525,30.166,5.525
					C519.692,185.023,531.533,181.682,548.31,173.574 M508.046,187.398c-6.467,0-13.34-0.949-21.63-2.988l-1.233-0.304l0.796,0.99
					c2.357,2.935,3.956,5.028,5.343,7.001c5.055,7.187,8.248,14.057,8.544,26.087l0.036,1.479l0.762-1.268
					c8.172-13.597,16.83-22.204,30.938-34.255l1.66-1.419l-2.074,0.684C522.916,186.13,515.563,187.398,508.046,187.398
					 M551.209,171.67h0.005H551.209z M551.209,171.67c-18.279,9.132-30.682,12.924-43.185,12.924
					c-9.511,0-19.078-2.192-31.338-5.896c15.132,19.438,23.05,24.387,18.271,58.494C509.036,204.824,522.029,196.601,551.209,171.67
					L551.209,171.67z M531.321,183.813c-13.117,11.205-22.504,20.179-31.026,34.36c-0.292-11.861-3.419-18.927-8.622-26.323
					c-1.59-2.262-3.378-4.558-5.359-7.023c7.849,1.931,14.818,3.002,21.732,3.002C515.519,187.829,522.927,186.579,531.321,183.813
					L531.321,183.813z"/>
			</g>
			<path fill="#695049" d="M503.034,207.316c4.543-6.083,9.554-11.426,15.54-16.997c-7.646,1.127-15.205,1.014-23.628-0.356
				c0.052,0.087,0.115,0.166,0.165,0.251C498.709,195.332,501.507,200.497,503.034,207.316z"/>
			<path fill="#A7825F" d="M531.321,183.813c-16.162,5.324-28.676,5.031-45.008,1.014c1.981,2.466,3.77,4.762,5.359,7.023
				c5.203,7.396,8.33,14.462,8.622,26.323C508.817,203.992,518.204,195.019,531.321,183.813z M518.574,190.319
				c-5.986,5.571-10.997,10.914-15.54,16.997c-1.527-6.819-4.325-11.984-7.923-17.103c-0.05-0.085-0.113-0.164-0.165-0.251
				C503.369,191.333,510.928,191.446,518.574,190.319z"/>
		</g>
	</g>
	<g>
		<g>
			
				<linearGradient id="SVGID_6_" gradientUnits="userSpaceOnUse" x1="317.6499" y1="-1619.1611" x2="579.7012" y2="-1619.1611" gradientTransform="matrix(1 0 0 -1 214.3999 -1358.5645)">
				<stop  offset="0" style="stop-color:#E6C7A7"/>
				<stop  offset="0.0806" style="stop-color:#E7CFB5"/>
				<stop  offset="0.2154" style="stop-color:#E7D7C4"/>
				<stop  offset="0.3564" style="stop-color:#E8DBCE"/>
				<stop  offset="0.512" style="stop-color:#E8DED1"/>
				<stop  offset="0.6384" style="stop-color:#E7DCCE"/>
				<stop  offset="0.7595" style="stop-color:#E4D5C4"/>
				<stop  offset="0.8786" style="stop-color:#E0CAB3"/>
				<stop  offset="0.9958" style="stop-color:#D9BB9B"/>
				<stop  offset="1" style="stop-color:#D9BB9A"/>
			</linearGradient>
			<path fill="url(#SVGID_6_)" d="M794.101,188.047v27.68c-0.068,13.655-3.719,28.957-10.352,42.504
				c-6.637,17.43-16.178,25.428-28.063,39.301c-11.866,8.541-25.992,23.086-41.639,25.08c-15.649,0.891-32.898,4.313-51.005,8.863
				c-18.042,4.229-35.288,0-50.996-7.758c-15.657-12.311-29.791-9.669-41.593-26.186c-11.872-16.883-21.424-19.875-28.058-36.199
				c-6.634-15.197-10.347-28.181-10.347-45.605v-27.68c0,17.309,3.713,30.408,10.347,45.497c1.528,3.771,3.188,6.763,4.977,9.431
				c6.101,8.994,13.928,13.763,23.081,26.855c11.802,16.43,25.936,13.872,41.593,26.078c15.708,7.884,32.954,11.985,50.996,7.777
				c18.106-4.442,35.355-7.996,51.005-8.779c15.646-1.993,29.772-16.535,41.639-25.076c9.229-10.773,16.989-17.971,23.084-28.854
				c1.857-3.097,3.449-6.545,4.979-10.549C790.382,217.005,794.036,201.586,794.101,188.047z"/>
			
				<line fill="none" stroke="#D0A787" stroke-width="0.24" stroke-miterlimit="10" x1="565.015" y1="262.762" x2="565.015" y2="290.268"/>
			
				<line fill="none" stroke="#D0A787" stroke-width="0.24" stroke-miterlimit="10" x1="695.112" y1="296.967" x2="695.112" y2="324.781"/>
			
				<line fill="none" stroke="#D0A787" stroke-width="0.24" stroke-miterlimit="10" x1="787.604" y1="249.238" x2="787.604" y2="222.336"/>
			<path fill="none" stroke="#020202" stroke-width="0.4246" stroke-miterlimit="10" d="M794.101,188.047v27.68
				c-0.068,13.655-3.719,28.957-10.352,42.504c-6.637,17.43-16.178,25.428-28.063,39.301c-11.866,8.541-25.992,23.086-41.639,25.08
				c-15.649,0.891-32.898,4.313-51.005,8.863c-18.042,4.229-35.288,0-50.996-7.758c-15.657-12.311-29.791-9.669-41.593-26.186
				c-11.872-16.883-21.424-19.875-28.058-36.199c-6.634-15.197-10.347-28.181-10.347-45.605v-27.68
				c0,17.309,3.713,30.408,10.347,45.497c1.528,3.771,3.188,6.763,4.977,9.431c6.101,8.994,13.928,13.763,23.081,26.855
				c11.802,16.43,25.936,13.872,41.593,26.078c15.708,7.884,32.954,11.985,50.996,7.777c18.106-4.442,35.355-7.996,51.005-8.779
				c15.646-1.993,29.772-16.535,41.639-25.076c9.229-10.773,16.989-17.971,23.084-28.854c1.857-3.097,3.449-6.545,4.979-10.549
				C790.382,217.005,794.036,201.586,794.101,188.047z"/>
			<path fill="#F4EFC5" stroke="#020202" stroke-width="0.4246" stroke-miterlimit="10" d="M794.101,188.047
				c-0.068,13.539-3.719,28.958-10.352,42.381c-1.529,4.004-3.119,7.452-4.979,10.549c-6.095,10.884-13.855,18.08-23.084,28.854
				c-11.866,8.541-25.992,23.083-41.639,25.076c-15.649,0.783-32.898,4.337-51.005,8.779c-18.042,4.208-35.288,0.106-50.996-7.777
				c-15.657-12.206-29.791-9.648-41.593-26.078c-9.153-13.093-16.98-17.865-23.081-26.855c-1.788-2.668-3.448-5.656-4.977-9.431
				c-6.636-15.089-10.349-28.188-10.349-45.497c0-14.763,3.713-33.527,10.346-44.398c6.568-5.779,16.188-23.756,28.061-37.408
				c11.799-12.865,25.934-13.873,41.59-27.188c15.711-7.773,32.957-7.996,51.066-6.65c18.039,0.43,35.288-8.553,50.938,8.2
				c15.703,10.222,29.772,14.651,41.639,25.638c11.885,0.227,21.426,29.09,28.063,38.626
				C790.382,156.961,794.036,170.402,794.101,188.047z"/>
		</g>
		<g>
			<g>
				<path fill="#A88260" d="M587.873,191.493c20.982-29.179,25.068-42.974,31.347-70.903c4.133,37.219,7.699,39.506,23.469,49.615
					c1.583,1.011,3.281,2.106,5.125,3.318c-5.448-0.623-10.143-0.926-14.301-0.926C615.227,172.594,604.654,178.658,587.873,191.493
					z M617.811,139.17c-4.053,14.694-8.982,25.714-17.586,39.303l-1.012,1.596l1.619-0.978c10.646-6.43,20.123-9.05,32.692-9.05
					c0.826,0,1.664,0.008,2.526,0.039l1.551,0.053l-1.284-0.87c-10.53-7.114-14.555-12.455-17.638-30.049l-0.344-1.953
					L617.811,139.17z"/>
				<path fill="#F1D089" d="M619.074,123.256c4.071,34.951,8.204,37.604,23.378,47.326c1.106,0.711,2.299,1.475,3.563,2.297
					c-4.686-0.49-8.804-0.73-12.5-0.73c-17.559,0-28.032,5.532-43.576,17.215C608.871,162.612,613.262,148.801,619.074,123.256
					 M597.826,181.43l3.236-1.955c10.574-6.381,19.98-8.986,32.462-8.986c0.82,0,1.656,0.008,2.509,0.04l3.104,0.109l-2.574-1.741
					c-10.408-7.033-14.393-12.324-17.446-29.76l-0.684-3.906l-1.053,3.824c-4.041,14.645-8.958,25.631-17.531,39.18L597.826,181.43
					 M619.372,117.871c-6.899,30.919-10.674,44.35-33.668,75.851c18.659-14.446,28.943-20.681,47.809-20.683
					c4.738,0,10.012,0.396,16.101,1.148C627.88,159.59,624.149,162.467,619.372,117.871L619.372,117.871z M600.602,178.711
					c9.303-14.697,13.884-25.811,17.638-39.42c3.176,18.121,7.475,23.347,17.828,30.346c-0.865-0.033-1.71-0.043-2.543-0.043
					C620.19,169.596,610.805,172.553,600.602,178.711L600.602,178.711z"/>
			</g>
			<path fill="#6A514A" d="M617.285,153.492c-2.167,5.678-4.653,11.041-7.697,16.583c5.155-1.929,10.379-3.073,16.126-3.595
				C621.983,162.988,619.342,159.084,617.285,153.492z"/>
			<path fill="#A88260" d="M617.773,139.291c-3.793,13.61-8.42,24.723-17.818,39.42c10.307-6.158,19.785-9.111,33.263-9.111
				c0.84,0,1.692,0.008,2.57,0.039C625.325,162.639,620.982,157.412,617.773,139.291z M617.285,153.492
				c2.057,5.592,4.698,9.496,8.432,12.982c-5.75,0.522-10.974,1.672-16.129,3.598C612.633,164.533,615.118,159.17,617.285,153.492z"
				/>
			<g>
				<path fill="#A88260" d="M699.88,244.655c-21.113-6.1-36.184-8.403-54.323-8.403c-9.745,0-20.685,0.673-35.148,2.178
					c24.923-10.277,44.394-20.375,50.827-41.899c0.408,2.118,0.752,4.086,1.074,5.93C665.239,219.32,666.394,225.98,699.88,244.655z
					 M645.55,233.709c12.543,0,23.4,1.078,35.207,3.5l2.188,0.447l-1.845-1.252c-15.07-10.251-18.612-17.004-20.841-28.256
					l-0.227-1.137l-0.594,0.995c-5.938,9.921-15.603,17.774-31.34,25.46l-2.033,0.99l2.256-0.146
					C634.556,233.904,640.192,233.709,645.55,233.709z"/>
				<path fill="#F1D089" d="M661.124,198.35c0.273,1.482,0.518,2.887,0.744,4.189c2.778,15.986,4.039,23.214,34.555,40.678
					c-19.317-5.361-33.721-7.408-50.866-7.408c-9.073,0-19.177,0.58-32.184,1.869C636.419,228.012,654.415,218.109,661.124,198.35
					 M623.837,235.051l4.512-0.295c6.23-0.402,11.857-0.602,17.201-0.602c12.51,0,23.344,1.078,35.119,3.491l4.363,0.897
					l-3.684-2.506c-16.25-11.052-18.727-18.252-20.652-27.978l-0.452-2.271l-1.188,1.988c-5.894,9.845-15.502,17.642-31.153,25.288
					L623.837,235.051 M661.31,194.607c-5.795,22.508-25.017,32.818-53.968,44.598c15.042-1.629,27.233-2.505,38.215-2.505
					c20.044,0,36.067,2.921,58.112,9.54C661.785,223.357,666.089,217.941,661.31,194.607L661.31,194.607z M628.292,233.867
					c13.706-6.691,24.775-14.349,31.531-25.633c2.111,10.677,5.24,17.802,21.025,28.539c-12.162-2.494-23.027-3.508-35.299-3.508
					C640.265,233.266,634.625,233.456,628.292,233.867L628.292,233.867z"/>
			</g>
			<path fill="#6A514A" d="M645.369,229.822c7.907,0,15.179,0.422,22.448,1.293c-5.039-4.701-7.875-9.123-9.734-14.127
				c-4.023,4.627-9.064,8.84-15.41,12.867C643.581,229.822,644.483,229.822,645.369,229.822z"/>
			<path fill="#A88260" d="M659.787,208.234c-6.821,11.284-18.007,18.938-31.854,25.633c6.4-0.411,12.095-0.602,17.437-0.602
				c12.396,0,23.371,1.014,35.663,3.508C665.084,226.036,661.923,218.911,659.787,208.234z M658.083,216.988
				c1.856,5,4.695,9.424,9.734,14.127c-7.27-0.871-14.541-1.293-22.448-1.293c-0.886,0-1.788,0-2.696,0.029
				C649.022,225.828,654.06,221.615,658.083,216.988z"/>
			<g>
				<path fill="#A88260" d="M738.927,188.112c-21.426-13.47-32.52-16.011-46.048-16.011c-3.906,0-7.96,0.213-12.652,0.459
					c-2.218,0.118-4.557,0.24-7.042,0.348c21.77-16.018,28.933-26.531,28.619-56.063c0.986,3.023,1.914,5.89,2.789,8.618
					C713.034,151.686,717.431,165.338,738.927,188.112z M692.872,169.563c10.068,0,18.866,1.229,31.566,7.334l1.68,0.807
					l-1.133-1.48c-10.129-13.245-14.827-24.262-20.43-41.178l-0.568-1.719l-0.297,1.784c-2.306,14.022-8.021,23.231-21.082,33.974
					l-1.043,0.857l1.35-0.07C687.149,169.65,690.128,169.563,692.872,169.563z"/>
				<path fill="#F1D089" d="M702.253,119.672c0.664,2.049,1.3,4.02,1.915,5.928c8.158,25.339,12.548,38.969,32.172,60.387
					c-19.696-12.007-30.454-14.334-43.46-14.334c-3.922,0-7.979,0.214-12.676,0.461c-1.779,0.092-3.634,0.191-5.58,0.281
					C694.923,157.273,702.083,146.739,702.253,119.672 M680.235,170.453l2.7-0.137c4.229-0.216,7.198-0.311,9.937-0.311
					c10.008,0,18.746,1.223,31.376,7.292l3.356,1.613l-2.264-2.961c-10.092-13.197-14.775-24.181-20.362-41.048l-1.138-3.439
					l-0.588,3.574c-2.285,13.898-7.957,23.034-20.924,33.7L680.235,170.453 M701.3,113.897c0.842,32.557-6.561,42.782-29.564,59.517
					c8.35-0.332,15.01-0.867,21.144-0.867c14.276,0,25.7,2.891,48.945,17.948C715.037,162.924,712.876,148.878,701.3,113.897
					L701.3,113.897z M682.891,169.426c12.292-10.109,18.786-19.34,21.243-34.244c5.204,15.722,9.923,27.48,20.497,41.311
					c-12.527-6.02-21.446-7.373-31.759-7.373C689.735,169.119,686.452,169.245,682.891,169.426L682.891,169.426z"/>
			</g>
			<path fill="#6A514A" d="M693.183,165.661c7.191,0,14.052,0.622,22.008,3.079c-4.143-6.604-7.269-13.168-10.16-20.593
				c-2.627,6.327-6.535,11.924-12.184,17.514C692.956,165.661,693.071,165.661,693.183,165.661z"/>
			<path fill="#A88260" d="M704.556,135.182c-2.479,14.904-9.041,24.135-21.458,34.244c3.597-0.181,6.913-0.307,10.085-0.307
				c10.415,0,19.43,1.354,32.088,7.373C714.582,162.665,709.817,150.903,704.556,135.182z M715.19,168.74
				c-7.956-2.457-14.816-3.079-22.008-3.079c-0.111,0-0.227,0-0.336,0c5.648-5.59,9.561-11.187,12.184-17.514
				C707.922,155.572,711.048,162.137,715.19,168.74z"/>
		</g>
	</g>
</g>
<g id="Layer_5">
</g>
<g id="Layer_3">
</g>
<g id="Layer_1">
</g>
</svg>
