<?xml version="1.0" encoding="utf-8"?>
<!-- Generator: Adobe Illustrator 16.0.0, SVG Export Plug-In . SVG Version: 6.00 Build 0)  -->
<!DOCTYPE svg PUBLIC "-//W3C//DTD SVG 1.1//EN" "http://www.w3.org/Graphics/SVG/1.1/DTD/svg11.dtd">
<svg version="1.1" xmlns="http://www.w3.org/2000/svg" xmlns:xlink="http://www.w3.org/1999/xlink" x="0px" y="0px" width="1024px"
	 height="1024px" viewBox="0 0 1024 1024" enable-background="new 0 0 1024 1024" xml:space="preserve">
<g id="PeanutGrin">
</g>
<g id="BeerHands">
	<g id="Layer_9">
	</g>
	<g id="Layer_8">
	</g>
	<g id="BeerFill">
	</g>
</g>
<g id="WideEyes">
</g>
<g id="EyesOverMachine">
</g>
<g id="WeGotAChest">
	<path fill="#FFFFFF" d="M196.958,724.879c4.962-8.296,10.711-16.281,17.167-23.837c0.162-0.182,0.302-0.355,0.423-0.514
		c1.113-1.305,2.26-2.603,3.41-3.86c8.582-9.402,17.919-17.625,27.755-24.445c1.986-1.374,4.029-2.717,6.063-3.983
		c1.901-1.185,3.219-3.111,3.632-5.313c0.414-2.201-0.114-4.475-1.455-6.269c-0.17-0.227-0.292-0.388-0.405-0.549
		c-0.02-0.027-0.039-0.055-0.059-0.081c-4.458-6.139-7.144-15.571-7.981-28.036c-0.042-0.672-0.086-1.386-0.123-2.111
		c-0.001-0.088-0.004-0.177-0.009-0.266c-0.344-6.983-0.135-15.096,0.639-24.801c0,0,0.028-0.287,0.034-0.356
		c0.127-1.536,0.273-3.07,0.421-4.606c0.11-1.158-0.032-2.287-0.386-3.328c0.572-0.956,0.951-2.044,1.082-3.215
		c0.097-0.86,0.193-1.713,0.3-2.573c0.463-3.767-1.783-7.34-5.378-8.555c-0.845-0.286-1.709-0.423-2.562-0.423
		c-2.778,0-5.438,1.453-6.904,3.958c-0.114,0.195-0.236,0.382-0.357,0.57c-1.058,1.65-1.477,3.637-1.17,5.573
		c0.068,0.434,0.116,0.846,0.15,1.245c0.057,0.653,0.19,1.283,0.393,1.881c-0.276,0.462-0.509,0.959-0.691,1.485
		c-0.26,0.75-0.828,1.861-2.758,2.921c-0.066,0.034-0.131,0.068-0.196,0.104c-0.75,0.408-1.432,0.935-2.016,1.559
		c-1.092,0.166-2.302,0.25-3.602,0.25c-0.212,0-0.741-0.008-0.793-0.008c-0.148,0-0.298,0.004-0.445,0.013
		c-0.209,0.002-0.417,0.013-0.625,0.032c-1.046,0.095-2.147,0.143-3.274,0.143c-7.034,0-13.981-1.863-17.207-3.704
		c-2.537-1.448-4.762-3.224-6.612-5.276c-0.009-0.01-0.018-0.021-0.026-0.03c-1.557-1.727-2.91-3.736-4.023-5.971
		c-0.177-0.354-0.379-0.694-0.605-1.019c-2.439-3.487-4.073-7.767-4.953-12.995c1.113-1.39,1.756-3.143,1.756-5.001
		c0.034-6.516,1.097-13.582,3.156-20.971c0.016-0.055,0.03-0.109,0.044-0.165c0.303-1.065,0.615-2.131,0.943-3.179
		c2.484-7.842,6.009-15.557,9.917-21.701c0.169-0.266,0.321-0.54,0.458-0.822c4.759-9.883,0.434-20.991-3.382-30.792
		c-2.146-5.51-4.364-11.207-4.24-14.967c0.052-1.631,0.654-6.499,2.047-12.646c0.04-0.181,0.075-0.362,0.104-0.546
		c2.832-12.32,6.072-17.251,7.201-18.245c2.247-0.648,4.109-2.252,5.077-4.399c1.036-2.299,0.931-4.952-0.29-7.158
		c-13.142-23.771-30.964-46.075-53.036-66.385c6.098,0.106,15.609,4.875,20.208,7.18c0.734,0.369,1.397,0.701,1.974,0.982
		c3.063,1.493,6.228,2.914,9.288,4.288c6.313,2.834,12.841,5.765,18.32,9.29c1.291,0.83,2.793,1.271,4.328,1.271
		c0.012,0,0.023,0,0.035,0c2.443-0.011,2.443-0.011,9.943-4.915c1.886-1.232,4.427-2.895,5.165-3.354
		c1.621-0.885,2.925-2.323,3.624-4.121c1.197-3.073,0.386-6.565-2.044-8.796c-1.534-1.408-3.56-2.184-5.702-2.184
		c-2.552,0-5.007,1.037-9.878,3.194c-0.659,0.292-1.517,0.671-2.332,1.021c-7.859-5.343-13.935-10.2-18.943-15.135
		c-2.968-2.925-5.45-6.111-6.866-8.45c0.497,0.168,0.957,0.353,1.395,0.575c5.832,2.973,13.79,3.795,21.484,4.59
		c6.393,0.66,13.639,1.409,16.824,3.285c3.429,2.018,7.186,3.737,11.486,5.259c0.465,0.164,0.943,0.285,1.431,0.361
		c1.161,0.183,2.322,0.369,3.483,0.557c4.08,0.657,8.298,1.336,12.579,1.8c4.865,0.525,9.635,0.792,14.177,0.792
		c3.729,0,7.373-0.181,10.829-0.536c3.468-0.356,6.792-1.371,10.008-2.352l1.146-0.349c2.577-0.778,4.591-2.801,5.356-5.382
		c0.767-2.582,0.183-5.375-1.553-7.434c-6.874-8.15-13.596-16.636-19.979-25.22c-24.426-32.843-50.141-68.307-72.463-108.94
		c-0.779-1.418-1.664-2.837-2.601-4.338c-4.836-7.75-5.852-10.782-4.182-12.479c0.076-0.076,0.14-0.134,0.189-0.176
		c3.739,0.543,12.445,11.531,15.34,15.185c5.599,7.065,8.685,10.959,13.956,10.959c0.002,0,0.003,0,0.005,0
		c1.85-0.001,3.614-0.572,5.104-1.652c10.111-7.33,30.785-8.967,47.397-10.282c5.994-0.475,11.655-0.923,16.559-1.597
		c10.96-1.505,25.413-3.72,40.001-7.519c6.469-1.685,13.24-3.661,20.7-6.042c1.169-0.373,2.585-0.979,4.987-2.016
		c2.311-0.998,7.722-3.335,9.391-3.568c-0.122,0.018-0.234,0.018-0.335,0.018c-0.003,0-0.005,0-0.008,0
		c-0.455,0-1.384-0.075-2.489-0.578l6.612-14.569c-3.038-1.377-9.167-3.209-27.235-3.209c-7.73,0-15.373,0.363-19.517,0.724
		c-1.001,0.087-2.142,0.131-3.393,0.131c-6.737,0-15.591-1.253-23.402-2.359c-4.032-0.571-7.842-1.11-11.153-1.453
		c-2.045-0.211-4.153-0.386-6.298-0.563c-9.352-0.772-19.021-1.572-25.817-5.854c-0.726-0.457-1.167-0.823-1.423-1.069
		c0.165-0.619,0.266-1.274,0.282-1.899c0.05-1.888,3.471-5.978,8.301-8.826c1.059-0.626,2.366-1.236,3.894-1.818
		c0.902-0.343,1.734-0.848,2.457-1.487c1.381-1.224,2.758-2.449,4.134-3.676c2.8-2.494,5.694-5.072,8.555-7.561
		c5.678-4.931,21.044-8.46,33.392-11.296c8.449-1.94,16.431-3.773,22.124-6.097c12.151-4.958,23.635-10.214,34.741-15.298
		c15.642-7.159,30.416-13.921,46.89-19.917c34.686-12.625,69.111-20.528,105.243-24.162c11.063-1.114,21.016-1.655,30.425-1.655
		c18.211,0,34.066,2.034,48.472,6.22c11.159,3.24,21.344,7.982,30.271,14.095c1.504,1.03,3.077,2.061,4.679,3.109
		c8.46,5.538,17.208,11.265,18.771,19.526c0.576,3.045,2.86,5.482,5.861,6.257c0.662,0.171,1.334,0.254,1.998,0.254
		c0.08,0,0.158-0.001,0.237-0.003c2.557,0.112,21.108,1.624,23.806,2.062c8.063,1.766,15.57,5.08,21.855,8.092
		c15.245,7.305,29.646,15.708,46.578,26.079c8.937,5.474,18.445,12.369,29.923,21.698c35.315,28.701,51.208,67.106,64.205,115.942
		c9.563,35.924,12.486,67.74,8.938,97.269c-1.816,15.088-5.332,30.482-10.749,47.061c-1.12,3.425-2.422,7.152-3.98,11.394
		c-1.253,3.408-0.053,7.233,2.923,9.314c1.382,0.967,2.985,1.445,4.585,1.445c1.844,0,3.682-0.636,5.167-1.892
		c11.52-9.742,26.161-17.809,44.763-24.66c17.893-6.592,37.849-10.191,55.011-12.843c1.446-0.224,2.899-0.452,4.359-0.683
		c10.442-1.646,21.24-3.347,31.574-3.347c5.596,0,10.567,0.488,15.199,1.494c2.939,0.638,3.457,2.966,3.543,3.938
		c0.086,0.965-0.014,3.332-2.783,4.472c-10.752,4.425-22.7,5.672-35.35,6.991c-4.842,0.506-9.849,1.027-14.756,1.744
		c-10.08,1.475-18.454,2.951-26.357,4.647c0,0-1.847,0.417-2.383,0.535c-0.166,0.028-0.333,0.063-0.499,0.102l-1.899,0.45
		c-1.985,0.487-3.934,0.968-5.875,1.485c-2.411,0.641-4.793,1.34-6.837,1.944c-4.166,1.233-6.586,5.568-5.45,9.763
		c0.963,3.557,4.186,5.91,7.716,5.91c0.633,0,1.274-0.075,1.916-0.233c17.294-4.253,32.5-6.395,46.488-6.547l0.962-0.011
		c2.155-0.024,4.337-0.049,6.531-0.049c6.569,0,14.219,0.205,21.147,1.725c4.962,1.089,8.95,2.386,12.93,4.206l0.541,0.246
		c1.47,0.67,3.136,1.429,3.937,2.098c0.485,0.409,0.819,0.881,1.059,1.508c0.027,0.072,0.056,0.145,0.086,0.216
		c0.138,0.413,0.313,0.819,0.523,1.217c0.194,0.366,0.285,0.708,0.319,0.948c-0.468,0.308-0.924,0.622-1.374,0.934
		c-0.945,0.654-1.922,1.331-2.301,1.353l-0.769,0.044c-1.686,0.095-3.429,0.192-5.251,0.398c-0.771,0.088-1.6,0.131-2.545,0.131
		c-1.279,0-2.646-0.076-4.093-0.157c0,0-0.971-0.055-1.05-0.058c-0.991-0.028-1.981-0.054-2.974-0.071
		c-3.761-0.092-6.813-0.261-9.765-0.423c-3.732-0.206-7.258-0.4-11.644-0.4c-1.806,0-3.629,0.032-5.571,0.1
		c-14.464,0.494-35.521,2.006-53.694,6.402c-17.165,4.154-34.549,9.832-53.146,17.359c-13.131,5.316-27.005,11.338-39.501,19.331
		c-2.4,1.536-3.803,4.232-3.682,7.079c0.037,0.855,0.061,1.715,0.076,2.576c0.021,1.09,0.265,2.163,0.714,3.154
		c0.028,0.118,0.09,0.449,0.112,1.103c0.069,2.009,0.893,3.917,2.306,5.347c5.46,5.523,14.33,8.938,20.807,11.43
		c1.604,0.617,3.12,1.201,3.933,1.583c4.134,1.947,8.042,4.558,12.179,7.321c2.9,1.938,5.9,3.941,9.093,5.783
		c0.899,0.519,2.139,1.128,3.854,1.97c3.477,1.708,8.729,4.288,13.28,7.229c4.252,2.749,6.102,4.667,6.878,5.68
		c-0.517,0.358-1.132,0.548-2.147,0.548c-2.703,0-6.611-1.423-10.39-2.798c-4.838-1.762-9.84-3.583-15.114-3.772
		c-0.292-0.01-0.595-0.015-0.912-0.015c-1.09,0-2.228,0.058-3.431,0.12c-1.215,0.063-2.472,0.127-3.656,0.127
		c-1.768,0-2.69-0.151-3.119-0.257c-1.557-1.774-3.77-2.718-6.015-2.718c-1.582,0-3.18,0.468-4.575,1.442
		c-3.621,2.53-4.507,7.517-1.977,11.139c9.267,13.27,25.16,28.383,41.979,31.006l1.598,0.246c5.283,0.808,12.336,1.886,16.304,4.412
		c-2.337,2.057-7.416,4.757-10.965,5.685c-1.011-0.311-3.087-1.554-4.37-2.322c-2.297-1.376-4.673-2.798-7.338-3.648l-4.863,15.243
		c2.608,0.881,8.592,9.197,11.467,13.194c4.015,5.579,7.806,10.849,11.879,13.894l0.321,0.24
		c7.753,5.797,15.771,11.792,18.556,19.677c0.004,0.014,0.009,0.026,0.013,0.039c-0.178,0.209-0.551,0.581-1.275,1.076
		c-3.308,2.257-6.386,3.309-9.688,3.309c-4.886,0-10.265-2.246-16.492-4.846c-0.813-0.34-1.634-0.683-2.463-1.023
		c-0.982-0.594-3.164-3.211-4.474-4.783c-0.496-0.595-0.992-1.189-1.489-1.771c-0.144-0.169-0.295-0.331-0.45-0.486
		c-1.492-1.733-3.693-2.786-6.057-2.786c-0.506,0-1.019,0.048-1.534,0.148c-1.039,0.201-1.954,0.3-2.797,0.3
		c-1.126,0-2.242-0.168-3.617-0.546c-4.245-1.167-8.599-2.927-12.692-4.63c-0.992-0.412-2.035-0.613-3.071-0.613
		c-1.925,0-3.824,0.695-5.315,2.021c-1.192,1.06-2.029,2.441-2.426,3.956v-0.001c-4.336,16.564,1.008,26.76,7.36,36.589
		c0.568,0.878,1.149,1.764,1.744,2.67c0.921,1.403,1.874,2.854,2.845,4.382c3.991,6.273,3.519,10.61-1.644,14.936
		c-0.053,0.041-0.104,0.083-0.155,0.125c-6.844,5.659-20.199,9.487-33.234,9.525c-0.855,0-1.725-0.019-2.587-0.054
		c-0.03-0.001-0.06-0.002-0.09-0.003c-6.069-0.24-11.269-1.41-14.273-3.214c-1.256-0.753-2.681-1.14-4.116-1.14
		c-0.774,0-1.552,0.112-2.308,0.34c-2.158,0.65-3.942,2.182-4.913,4.216c-2.196,4.604-4.299,8.738-6.372,12.524H196.958z
		 M236.758,546.104c-3.882,6.896-3.275,14.464-2.739,21.157c0.326,4.075,3.675,7.262,7.762,7.371
		c0.073,0.002,0.146,0.003,0.218,0.003c3.994,0,7.393-2.943,7.926-6.924c0.605-4.514,1.089-8.234,1.479-11.711
		c0.004-0.031,0.007-0.063,0.011-0.094v0.001c0.244-2.134,0.435-3.994,0.581-5.687c0.32-3.687-1.93-7.112-5.441-8.282
		c-0.833-0.277-1.686-0.411-2.527-0.411c-2.584,0-5.068,1.257-6.585,3.457c-0.139,0.192-0.314,0.452-0.5,0.779
		C236.876,545.877,236.815,545.99,236.758,546.104z"/>
	<g opacity="0.9">
		<g opacity="0.8">
			<path fill="#C7886A" d="M801.533,609.511c-1.561-4.652-2.914-9.373-4.151-14.122c-1.375-5.284-2.604-10.623-3.677-15.977
				c-0.14-0.697-0.262-1.398-0.391-2.098c-0.019-0.126-0.039-0.244-0.055-0.352c-0.44-3.013-0.759-6.041-1.013-9.075
				c-0.451-5.379-0.65-10.829-0.433-16.221c0.009-0.238,0.028-0.538,0.052-0.854c0.072-0.484,0.148-0.968,0.227-1.451
				c0.259-1.596,0.621-3.171,1.047-4.729c0.469-1.183,2.284-6.432,2.427-7.136c1.098-2.405,2.292-4.704,3.189-7.318
				c-2.082,6.087,0.276,0.038,0.909-1.427c2.492-5.766,3.448-13.444-2.296-17.955c-15.062-11.828-34.916,1.354-43.039,15.086
				c-7.13,12.06-9.582,27.08-10.2,40.848c-0.621,13.859,1.218,27.736,3.762,41.326c2.762,14.759,5.829,33.448,20.036,41.317
				c5.847,3.235,13.117,3.791,19.466,1.839c9.402-2.893,14.175-9.825,17.362-18.58C807.637,624.72,804.008,616.886,801.533,609.511z
				"/>
			<g>
				<path fill="#C7886A" d="M819.929,515.589c5.927-66.853-42.922-118.739-109.965-129.783
					c-87.808-24.131-183.436,18.304-272.392,16.356c-42.041-0.923-83.074-2.626-119.128-26.364
					c-5.905-3.889-12.479-9.313-19.301-11.626c-17.245-5.841-8.71,24.333-4.209,29.731c8.455,10.145,24.554,26.905,36.567,31.854
					c80.173,31.061,152.873,31.706,236.845,12.124c45.774-10.676,101.245-21.535,142.2-5.83
					c32.153,12.33,58.585,43.917,69.417,76.077c5.335,15.851-5.779,29.938-2.913,43.773
					C783.632,583.688,818.742,528.957,819.929,515.589C821.134,501.991,819.121,524.7,819.929,515.589z"/>
				<path fill="#C7886A" d="M331.599,425.798c-0.033-0.013-0.064-0.026-0.097-0.04c-0.046-0.019-0.094-0.034-0.142-0.054
					C331.443,425.736,331.518,425.767,331.599,425.798z"/>
				<path fill="#C7886A" d="M331.599,425.798C333.603,426.62,335.083,427.151,331.599,425.798L331.599,425.798z"/>
			</g>
			<path fill="#C7886A" d="M381.49,650.834c-0.068-0.015-0.093,0.09-0.024,0.106C381.535,650.956,381.559,650.85,381.49,650.834z"/>
			<path fill="#C7886A" d="M278.426,732.879c1.522-1.449,3.046-2.898,4.56-4.345c2.11-2.018,0.316-6.358-2.712-5.942
				c-9.143,1.26-17.221,5.332-24.838,10.287H278.426z"/>
			<path fill="#C7886A" d="M228.362,732.879c3.281-10.197,6.519-20.532,11.351-30.037c1.253-2.466-2.241-4.187-3.718-1.968
				c-7.082,10.63-14.88,20.585-20.695,32.005H228.362z"/>
		</g>
		<g opacity="0.8">
			
				<radialGradient id="SVGID_1_" cx="856.6914" cy="674.3037" r="277.0202" gradientTransform="matrix(0.976 0.2178 -0.3656 1.638 -81.7161 -579.2212)" gradientUnits="userSpaceOnUse">
				<stop  offset="0" style="stop-color:#FDC283"/>
				<stop  offset="1" style="stop-color:#F0B184"/>
			</radialGradient>
			<path fill="url(#SVGID_1_)" d="M806.055,474.709c-1.22-5.79-3.11-11.39-5.7-16.66c-1.33-2.71-2.84-5.33-4.54-7.84
				c-1.08-1.59-2.21-3.13-3.399-4.62c-3.74-4.71-8.011-8.94-12.65-12.79c0-0.01-0.01-0.01-0.01-0.01
				c-9.99-8.29-21.64-14.8-33.16-20.38c-6.74-3.261-13.479-6.34-20.27-9.11h-0.011c-0.33-0.13-0.66-0.27-0.989-0.41h-0.011
				c-9.16-3.689-18.42-6.83-27.93-9.149h-0.01c-2.9-0.71-5.84-1.351-8.79-1.9h-0.01c-7.301-1.36-14.78-2.21-22.49-2.44
				c-0.28-0.01-0.57-0.02-0.851-0.02c-7.39-0.21-14.869-0.21-22.25,0.18c-0.319,0.021-0.63,0.03-0.949,0.061h-0.011
				c-6.63,0.37-13.229,1.04-19.819,1.939c-5.15,0.7-10.29,1.551-15.41,2.521c-17.11,3.229-34.01,7.79-50.601,12.729
				c-15.859,4.721-31.609,9.82-47.449,14.62c-17.391,5.271-36.04,8.29-54.771,9.19c-16.12,0.779-32.3-0.01-47.8-2.271
				c-0.89-0.13-1.78-0.27-2.67-0.41c-10.15-1.6-21.47-3.189-31.14-6.729c-1.73-0.64-3.431-1.34-5.08-2.1
				c-1.92-0.881-3.801-1.83-5.641-2.83c-3.95-2.16-7.75-4.561-11.51-7.03c-2.92-1.92-5.82-3.87-8.75-5.78
				c-1.91-1.25-3.84-2.479-5.79-3.66c-0.01,0-0.03-0.01-0.04-0.02c-1.37-0.83-2.729-1.63-4.09-2.41c-2.5-1.44-4.98-2.79-7.51-4.01
				c-3.57-1.75-7.21-3.25-11.04-4.42c-2.82-0.87-5.74-1.561-8.811-2.03c-2.989-0.46-7.109,1.97-10.55,4.79
				c-2.439,2-4.53,4.21-5.62,5.72c-5.5,7.67-7.17,17.87-8.87,26.931c-7.54,39.989-19.33,80.01-25.239,120.539
				c-2.04,13.98-3.381,28.03-3.601,42.15c-0.01,0.17-0.01,0.35-0.01,0.521c-0.13,9.739-1.39,18.27-1.521,27.17
				c-0.069,4.09,0.101,8.25,0.73,12.649c0.03,0.24,0.06,0.48,0.1,0.73c0.011,0.42,0.221,6.71,0.23,7.14
				c0.25,1.75,3.67,12.25,6.54,20.98c1,3.04,1.939,5.87,2.649,8.029c0.811,2.471,1.33,4.08,1.33,4.181
				c-0.279,0.149-0.55,0.3-0.83,0.449c-5.81,3.29-11.619,6.971-17.029,11.11c-3.851,2.92-7.49,6.08-10.811,9.5
				c-1.09,1.13-2.16,2.29-3.18,3.48c-9.33,10.87-18.11,21.63-24.55,34.37c-0.76,1.47-1.46,2.979-2.141,4.51
				c-0.02,0.01-0.02,0.02-0.02,0.029c-0.144,0.322-0.281,0.654-0.421,0.98H757.67c6.341-9.087,11.453-19.554,16.085-29.96
				c2.89-6.46,5.59-12.9,8.29-18.97c5.18-11.641,9.27-23.59,11.979-35.9v-0.01c1.4-6.24,2.44-12.57,3.091-19.01
				c0.729-7.261,1.239-14.54,1.59-21.83v-0.011c0.02-0.109,0.02-0.199,0.02-0.31c0.101-1.88,0.18-3.77,0.25-5.65v-0.01
				c0.16-3.75,0.271-7.5,0.36-11.26c0,0,0,0,0-0.01c0.109-3.74,0.189-7.48,0.25-11.23c0.03-1.34,0.06-2.67,0.08-4.01v-0.42
				c0.069-4.101,0.01-8.19-0.03-12.3c-0.04-3.431-0.07-6.87-0.01-10.301c0.05-2.84,0.149-5.67,0.35-8.5
				c0.17-2.31,0.41-4.609,0.73-6.899v-0.01c0.939-7.04,2.5-13.99,4.21-20.9c0.01-0.02,0.02-0.05,0.029-0.08
				c0.311-1.28,0.641-2.56,0.96-3.84C808.965,499.449,808.615,486.779,806.055,474.709z"/>
		</g>
		<g opacity="0.7">
			<path fill="#C7886A" d="M689.812,605.947c-2.876-2.197-6.731-4.657-10.302-5.497c-5.07-1.197-10.604-0.806-15.767-0.827
				c-9.164-0.04-18.262-0.557-27.318-1.971c-9.354-1.463-18.293-4.205-27.335-6.903c-8.168-2.44-16.642-7.765-25.3-7.496
				c-2.98,0.091-5.471,3.221-4.409,6.158c3.277,9.061,13.2,14.318,21.263,18.593c9.037,4.797,19.127,7.714,29.057,10.012
				c10.121,2.342,20.58,3.584,30.945,4.112c10.716,0.544,22.074-0.084,29.475-8.826
				C691.823,611.289,692.132,607.722,689.812,605.947z"/>
			<path fill="#C7886A" d="M398.498,565.572c-7.148-7.154-18.214-4.658-27.344-4.25c-8.303,0.371-16.533,0.194-24.832,0.02
				c-7.813-0.163-15.488-1.433-23.161-2.857c-4.528-0.841-16.869-3.97-17.385,3.746c-0.515,7.667,8.503,12.946,14.146,16.306
				c7.053,4.202,15.911,6.103,23.892,7.659c8.461,1.65,17.439,1.705,26.034,1.896c9.924,0.215,21.895,2.255,29.36-5.626
				C403.825,577.59,403.046,570.125,398.498,565.572z"/>
		</g>
		<path fill="#C7886A" d="M441.379,583.303c0.199-0.216,0.41-0.423,0.615-0.636c0.046-0.06,0.096-0.109,0.142-0.172
			c0.367-0.493,0.741-0.977,1.124-1.451c-0.165,0.268-0.315,0.548-0.475,0.822c0.306-0.3,0.612-0.598,0.928-0.891
			c0.722-0.672,1.492-1.133,2.277-1.426c1.305-1.57,2.718-3.041,4.183-4.506c0.577-0.691,1.177-1.362,1.799-2.011
			c-0.555,0.2-1.094,0.438-1.613,0.719c4.555-4.073,9.443-7.776,13.761-12.276c7.578-7.896,16.898-23.118,12.189-34.273
			c-2.784-6.588-12.215-10.76-17.574-3.977c-3.924,4.967-4.746,10.379-6.245,16.325c-1.063,4.211-3.068,8.207-4.908,12.119
			c-4.085,8.687-8.564,16.888-14.054,24.742C430.306,581.021,437.506,586.559,441.379,583.303z"/>
		<g id="Eyes_13_">
			<g>
				<path fill="#F0E4CC" d="M704.715,549.788c3.018-13.115-0.149-28.797-8.798-39.247c-9-10.878-20.563-19.721-35.018-21.688
					c-5.603-0.764-10.971-0.801-16.126-0.153c-1.482,0.022-2.959,0.101-4.424,0.241c-15.539,1.499-27.393,10.328-34.947,22.332
					c-6.505,7.98-11.62,17.965-12.922,27.516c-0.373,2.751-0.699,5.919-0.838,8.834c-0.001,0.282-0.003,0.563-0.003,0.845
					c0.818-7.862,0.766-7.312-0.149,1.657c-0.22,3.807,0.43,7.71,1.497,11.343c2.234,7.599,6.944,13.997,12.404,19.554
					c7.632,7.77,19.57,13.023,30.295,14.314c14.941,1.794,27.915-0.327,41.426-7.112c12.996-6.53,21.095-19.226,25.802-32.432
					c0.056-0.158,0.096-0.318,0.149-0.478C703.733,553.474,704.291,551.623,704.715,549.788z"/>
				<path fill="#DACABB" d="M705.034,552.033c-0.956,5.549,3.556-44.017-8.816-30.863c-2.576,2.74-10.721,18.527-12.584,21.806
					c-13.498,22.548-37.487,31.226-61.741,28.218c-33.033-16.862-2.798,28.558,29.803,22.956
					C669.713,591.051,701.368,573.482,705.034,552.033C705.918,546.909,705.007,552.198,705.034,552.033z"/>
			</g>
			<g>
				<path fill="#F0E4CC" d="M404.136,510.44c0.666-3.951,1.086-8.358,0.676-12.431c-0.682-6.768-2.29-13.978-5.748-20.021
					c-0.763-1.708-1.559-3.396-2.357-4.944c-3.71-7.202-10.899-14.786-18.582-17.759c-13.098-5.068-24.076-4.299-36.636,1.828
					c-4.514,2.203-8.552,5.346-12.164,8.962c-2.256,1.815-4.283,3.804-5.893,5.867c-2.199,2.821-3.936,5.617-5.316,8.48
					c-7.863,12.923-10.089,31.032-4.686,45.154c3.946,10.313,9.666,17.531,18.858,23.811c9.439,6.444,21.577,5.387,32.076,3.609
					c9.517-1.613,17.506-7.888,24.612-13.884c6.695-5.647,10.64-14.431,13.328-22.542c0.315-0.952,0.806-2.361,0.914-2.741
					C403.613,512.703,403.944,511.565,404.136,510.44z"/>
				<path fill="#DACABB" d="M396.467,488.378c-12.674,6.675-14.35,28.87-31.678,34.576c-14.097,4.64-55.528-9.258-34.302,15.114
					c12.599,14.466,38.269,19.515,54.918,8.449C398.981,537.491,409.41,481.559,396.467,488.378
					C392.28,490.582,402.594,485.149,396.467,488.378z"/>
			</g>
		</g>
		
			<radialGradient id="SVGID_2_" cx="471.3232" cy="652.124" r="0.545" gradientTransform="matrix(0.9748 0.2233 -0.2233 0.9748 -176.6126 -136.6821)" gradientUnits="userSpaceOnUse">
			<stop  offset="0.111" style="stop-color:#FDC283"/>
			<stop  offset="1" style="stop-color:#C7886A"/>
		</radialGradient>
		<path opacity="0.8" fill="url(#SVGID_2_)" d="M218.752,732.879c0.951-2.512,1.981-5,3.103-7.457
			c3.587-7.854,7.421-15.601,12.058-22.897c4.158-6.544,8.625-13.093,9.938-20.902c0.17-1.006-0.674-1.846-1.683-1.574
			c-12.011,3.203-20.269,15.519-26.844,25.376c-5.668,8.499-10.378,17.762-13.969,27.455H218.752z"/>
		<g>
			<path fill="#FDC48C" d="M187.465,593.849c0,0,0.01,0,0.01,0.011c2.37,2.63,5.21,4.939,8.59,6.869
				c5.521,3.15,15.931,5.42,25.17,4.58c0.07,0.011,0.12,0.011,0.181,0c0.02,0.011,0.029,0.011,0.04,0c0.01,0.011,0.01,0.011,0.02,0
				c0.01,0.011,0.01,0,0.01,0c1.62-0.149,3.2-0.39,4.71-0.75c0.96-0.22,1.891-0.489,2.78-0.81c1-0.351,1.96-0.76,2.851-1.23
				c0,0,0-0.01,0.02-0.01c3.11-1.66,5.5-4.07,6.66-7.42c-0.15,1.57-0.3,3.14-0.43,4.71c-0.011,0.1-0.021,0.2-0.03,0.3
				c-0.7,8.761-1.07,17.58-0.66,25.91c-0.01,0.01-0.01,0.021,0,0.03v0.06c0.04,0.82,0.09,1.63,0.14,2.431
				c0.851,12.64,3.551,24.02,9.49,32.199c0.17,0.24,0.351,0.48,0.53,0.721c-2.15,1.34-4.28,2.739-6.391,4.199
				c-10.369,7.19-20.199,15.87-29.1,25.62c-1.29,1.41-2.56,2.851-3.8,4.311c-0.04,0.06-0.08,0.12-0.13,0.17
				c-8.83,10.32-16.62,21.7-22.88,33.68c-0.6,1.142-1.163,2.298-1.735,3.45h20.439c0.831-1.952,1.707-3.887,2.626-5.8
				c6.829-14.19,16.01-27.2,26.81-37.72c3.17-3.101,6.48-5.971,9.91-8.601c0.1-0.07,0.2-0.149,0.3-0.229
				c4.86-3.66,15.97-11.03,22.91-16.79c8.11-6.721,10.54-11.24-9.28-5.13c0.2-0.98,0.28-1.94,0.271-2.87
				c-0.091-8.7-8.07-15.391-5.36-21.681c-0.53-2.18-0.91-4.46-1.15-6.81c-0.449-4.33-0.47-8.89-0.29-13.51
				c0.36-8.65,1.45-17.48,1.841-25.29c0.02-0.48,0.04-0.96,0.06-1.431c0.521-13.859,1.85-27.479,3.74-40.97
				c3.56-25.56,9.08-50.689,14.729-76.27c1.511-6.79,15.16-77.511,23.681-71.19c3.81,0.01,10.659,8.28,16.729,15.271l0.01,0.01
				c1.811,2.1,3.551,4.069,5.12,5.68c0.761,0.79,1.48,1.48,2.15,2.061c1.35,1.17,2.72,2.319,4.11,3.439
				c0.47,0.39,0.939,0.771,1.409,1.14c0,0,0.011,0.011,0.021,0.011c0.609,0.51,1.2,0.979,1.82,1.449
				c3.38,2.66,6.85,5.19,10.39,7.631c0,0,0.01,0.01,0.02,0.01c6.95,4.79,14.16,9.21,21.53,13.31c0-0.01,0.01,0,0.01,0
				c1.63,0.91,3.271,1.8,4.91,2.67c0.5,0.271,1.01,0.53,1.51,0.79c8.32,4.36,16.631,8.011,24.94,11.04
				c0.22,0.08,0.45,0.16,0.67,0.24c25.17,9.09,50.32,12.5,75.57,12.4c2.25,0,4.489-0.04,6.739-0.101c1.79-0.05,3.58-0.109,5.37-0.2
				c0,0,0-0.01,0.011,0c3.39-0.149,6.779-0.359,10.17-0.63c30-2.319,60.18-8.66,90.71-15.41c2.7-0.59,5.41-1.199,8.12-1.8
				c7.439-1.649,14.909-3.31,22.409-4.92c19.37-4.17,36.79-4.05,54.36,0.49c6.98,1.8,13.99,4.31,21.16,7.52
				c1.09,0.49,2.15,0.99,3.22,1.511h0.03c10.32,4.899,19.87,10.92,28.08,19.029c9.45,9.351,16.109,21.771,26.32,30.28
				c5.64,4.7,14.039,5.18,21.77,3.01h0.01c5.141-1.439,9.971-4.05,13.5-7.359l0.01-0.011c0.511-0.479,1-0.979,1.44-1.489
				c1.14-1.271,2.08-2.62,2.78-4.04c6.529-13.21-0.74-25.13-10.641-35.34c-7.02-7.23-15.35-13.61-21.02-18.971
				c-0.13-0.12-0.25-0.239-0.38-0.35c-4.42-4.16-8.84-7.96-13.271-11.41c-5.05-3.95-10.12-7.45-15.199-10.56
				c-3.66-2.23-7.32-4.261-10.99-6.08c-7.12-3.561-14.28-6.37-21.49-8.55c-4.98-1.511-9.99-2.711-15.02-3.65
				c-4.631-0.85-9.28-1.48-13.961-1.9c-0.77-0.069-1.529-0.14-2.3-0.189c-0.01,0-0.01,0-0.01,0c-6.47-0.5-12.99-0.61-19.57-0.4
				c-7.13,0.22-14.319,0.82-21.6,1.7c-4.521,0.55-9.07,1.21-13.65,1.96c-22.27,3.64-45.35,9.43-69.529,15.08
				c-0.49,0.12-0.971,0.229-1.46,0.34c-0.011-0.01-0.011-0.01-0.021,0c-26.61,6.1-52.46,8.74-77.79,7.32
				c-11.52-0.65-22.93-2.13-34.24-4.521c-0.01-0.01-0.029-0.01-0.05-0.01c-15.56-3.29-30.95-8.27-46.21-15.12
				c-2.95-1.31-5.899-2.71-8.85-4.17c-2.03-1.01-4.061-2.05-6.08-3.12c-1.33-0.71-2.68-1.46-4.03-2.229
				c-2.82-1.62-5.68-3.37-8.56-5.17c-4.051-2.521-8.15-5.15-12.25-7.65c-1.92-1.17-3.84-2.32-5.761-3.41
				c-1.029-0.59-2.069-1.17-3.109-1.729h-0.01c-3-1.62-5.98-3.091-8.931-4.32c-8.43-3.521-16.59-5.08-24.05-2.64
				c-0.9,0.29-1.79,0.64-2.66,1.05c-0.479,0.22-0.95,0.46-1.42,0.729c-5.27,2.91-10.11,8.16-14.38,16.551
				c-0.17,0.34-0.35,0.68-0.51,1.029c-19.311,38.771-22.42,91.03-26.9,133.44c-1.359-5.65-4.229-11.67-7.399-17.72
				c-0.131-0.24-0.25-0.471-0.37-0.711c-3.141-5.939-6.511-11.88-8.94-17.5c-6.88-15.869-9.399-33.739-16.57-48.71
				c0-0.01,0-0.02-0.01-0.02c-0.2-0.42-0.399-0.82-0.6-1.23c-1.55-3.069-3.021-5.47-4.45-7.27l-0.01-0.01
				c-2.94-3.721-5.62-4.92-8.03-4.391c-6.12,1.36-10.47,13.9-12.89,24.62c-0.011,0.03,0,0.061,0,0.09
				c-1.4,6.181-2.16,11.66-2.24,14.15c-0.42,12.8,14.03,30.88,8.41,42.55c-4.141,6.51-7.99,14.73-10.8,23.601
				c-0.37,1.18-0.721,2.38-1.061,3.58c0,0,0,0,0,0.01c-2.11,7.569-3.41,15.479-3.45,23.109c-0.06,8.11,1.301,15.881,4.62,22.551
				C183.585,588.849,185.325,591.479,187.465,593.849z M243.885,549.759c0-0.01,0-0.02,0.01-0.04c0.04-0.07,0.08-0.109,0.13-0.189
				c-0.149,1.72-0.34,3.55-0.56,5.47c0,0.03,0,0.06-0.01,0.08c-0.4,3.58-0.91,7.47-1.46,11.569
				C241.505,560.529,241.024,554.589,243.885,549.759z M239.524,585.759c-0.109,0.89-0.21,1.771-0.31,2.66
				c-0.05-0.58-0.12-1.18-0.22-1.81C239.175,586.329,239.354,586.049,239.524,585.759z"/>
			<path fill="#FDC48C" d="M853.645,683.329c-1.609-2.53-3.17-4.86-4.62-7.101c-5.939-9.189-9.84-16.85-6.34-30.22
				c0.19-0.74,0.41-1.5,0.65-2.28c0.28-0.93,0.479-1.77,0.59-2.54c0.43-3.09-0.5-5.02-2.24-6.46c-0.01,0-0.01,0-0.01-0.01
				c-3.54-2.96-10.43-3.91-15.92-8.63c1.41-13.53-9.84-13.45-16.23-15.14c-0.27-0.07-0.54-0.15-0.79-0.23
				c-1.84-0.58-3.149-1.39-3.399-2.89c-0.28-1.65-0.521-3.33-0.74-5.04c-1.66-12.96-1.84-27.59-2.52-40.51
				c-0.841-0.15-1.65-0.25-2.44-0.29c-1.6-0.07-3.1,0.08-4.5,0.43c-0.01,0-0.02,0-0.02,0.01c-1.051,0.26-2.04,0.65-2.971,1.141
				c-0.069,0.029-0.13,0.069-0.189,0.1c-18.95,10.28-16.2,64.14-18.62,77.78c-0.57,3.199-1.17,6.38-1.811,9.529
				c-3.149,15.721-7.109,30.91-12.04,46c-3.18,9.721-6.76,19.4-10.8,29.15c-0.793,1.918-1.744,4.25-2.844,6.75h36.036
				c3.431-5.913,6.4-11.803,8.918-17.08c4.399,2.64,10.89,4.07,18.14,4.35c0,0.011,0.01,0,0.01,0c0.971,0.04,1.95,0.061,2.94,0.061
				c13.72-0.04,29.36-3.96,38.31-11.36c0.021-0.01,0.03-0.02,0.04-0.029C857.685,702.659,860.484,694.079,853.645,683.329z"/>
			<path fill="#FDC48C" d="M234.476,512.358c-0.014-0.007-0.028-0.01-0.042-0.017C234.119,510.487,234.133,510.49,234.476,512.358z"
				/>
			<path fill="#FDC48C" d="M307.079,411.823c-0.066-0.017-0.093,0.09-0.024,0.104C307.123,411.943,307.148,411.839,307.079,411.823z
				"/>
			<path fill="#FDC48C" d="M267.442,653.227c-0.067-0.015-0.094,0.089-0.024,0.106C267.486,653.347,267.512,653.242,267.442,653.227
				z"/>
		</g>
		<g>
			<path fill="#C7886A" d="M820.866,657.236c1.249-7.326,3.493-14.817,1.113-22.104c-2.521-7.728-13.306-12.743-20.37-8.301
				c0,0.002-0.003,0.006-0.003,0.009c0.072,0.297,0.085,0.631,0.005,0.999c-2.171,10.018-4.632,19.969-7.42,29.829
				c-0.147,1.879-0.326,3.712-0.605,5.442c-0.612,3.815-1.192,7.709-2.032,11.53c1.112,10.07,4.902,20.259,8.145,29.481
				c0.223,0.639,1.087,0.737,1.423,0.136c5.439-9.764,10.828-19.306,14.946-29.789C818.202,669.04,819.883,662.992,820.866,657.236z
				"/>
			<path fill="#C7886A" d="M239.81,570.321c0.848-10.041,3.682-20.235,1.965-30.245c-1.242-7.238-12.597-7.692-15.406-1.455
				c-4.138,9.18-3.401,20.253-3.554,30.16c-0.086,5.61,0.353,11.384,1.365,17.028c-3.551-0.573-7.375-0.303-10.886-0.717
				c-4.927-0.582-9.908-1.409-14.682-2.775c-9.473-2.708-17.593-8.818-20.752-18.349c-0.461-1.39-2.719-1.103-2.597,0.431
				c0.906,11.592,4.689,22.218,14.453,29.273c10.104,7.298,25.533,13.416,38.098,11.187c2.523-0.448,4.527-2.453,5.664-4.82
				c0.661-0.485,1.193-1.206,1.47-2.161C237.514,588.992,239.029,579.537,239.81,570.321z"/>
		</g>
		<g>
			<path fill="#895221" d="M916.317,651.956c-3.64-10.306-13.226-17.375-21.63-23.66c-7.41-5.54-16.994-25.524-25.704-28.303
				c4.82,1.538,10.663,7.338,15.426,6.269c6.886-1.546,25.44-10.673,16.051-18.813c-5.767-5.001-15.752-6.216-23.041-7.354
				c-14.02-2.187-28.191-15.564-36.653-27.682c3.064,4.385,12.379,2.577,16.839,2.736c11.335,0.407,25.22,12.252,34.224,3.137
				c10.759-10.891-21.458-24.124-26.301-26.917c-7.426-4.283-14.079-9.748-21.862-13.413c-6.194-2.915-28.615-9-24.876-19.628
				c3.107-8.836,10.335-15.265,13.661-23.883c6.588-17.056,14.036-34.135,19.715-51.509c5.17-15.822,9.097-32.051,11.087-48.591
				c4.059-33.777-0.444-67.574-9.15-100.28c-12.385-46.535-28.505-88.897-66.89-120.093c-9.734-7.912-20.085-15.755-30.79-22.313
				c-15.417-9.442-30.981-18.652-47.3-26.472c-7.617-3.65-15.43-6.916-23.712-8.716c-2.268-0.492-25.672-2.374-25.643-2.219
				c-2.555-13.496-16.38-20.618-26.791-27.748c-9.955-6.816-20.986-11.816-32.56-15.177c-26.434-7.68-54.755-7.577-81.929-4.842
				c-36.857,3.707-72.36,11.932-107.179,24.604c-28.913,10.523-53.343,23.666-81.916,35.325
				c-13.839,5.646-46.366,8.881-57.744,18.764c-6.23,5.419-12.307,10.992-18.564,16.385c-7.086,6.102-18.907,15.035-6.649,22.757
				c10.203,6.428,23.954,6.407,35.558,7.605c10.901,1.127,28.54,4.645,39.463,3.693c8.45-0.734,35.103-1.669,42.756,1.802
				c-2.459-1.117-14.282,4.847-17.287,5.807c-6.71,2.142-13.469,4.146-20.284,5.921c-12.872,3.353-25.907,5.527-39.073,7.335
				c-18.923,2.601-51.714,1.839-67.563,13.328c-3.644,2.642-23.026-36.221-35.6-23.45c-7.979,8.107,1.495,19.043,5.472,26.28
				c21.657,39.423,46.217,73.776,73.055,109.862c7.354,9.889,15.072,19.599,23.101,28.949c-8.949-1.022-17.745,2.237-26.885,1.851
				c-2.103-0.144-4.208-0.355-6.294-0.598c-0.18-0.074,0.522-0.091,0.24-0.179c-9.68-1.675-20.121-4.171-28.646-9.188
				c-9.048-5.328-29.388-3.345-38.734-8.108c-3.024-1.542-5.866-1.798-8.917-2.929c-2.153-0.8-3.633,1.271-3.725,3.14
				c-5.972,4.951,6.054,17.72,8.865,20.49c6.991,6.887,15.028,12.774,23.212,18.158c0.954,0.846,12.903-5.716,13.849-4.861
				c-0.107-0.038-11.21,7.328-11.314,7.292c-8.74-5.622-19.082-9.483-28.429-14.04c-7.289-3.556-28.804-15.539-35.248-4.218
				c1.269,0.789,0.702,3.022-0.86,3.014c-0.22,0.379-0.345,0.833-0.3,1.354c37.259,32.718,63.453,71.058,76.497,117.152
				c2.361,8.346,6.281,16.052,7.736,24.663c1.496,8.861,0.949,19.57,6.612,27.174c3.605,4.844,13.533,7.806,18.523,2.553
				c6.579-6.921,3.517-25.277,3.647-33.854c0.21-13.534,0.718-27.121,3.182-40.464c3.759-20.339,13.099-38.103,21.789-56.628
				c4.07-8.676,7.691-17.289,10.884-26.329c1.881-5.326,2.22-11.313,9.331-10.326c8.808,1.22,20.497,13.284,26.109,19.41
				c5.198,5.675,7.111,13.172,11.922,19.068c15.821,19.396,44.96,28.7,68.706,32.944c27.599,4.934,54.611,4.95,82.271,1.303
				c32.725-4.321,65.745-11.676,97.853-19.25c31.3-7.383,62.778-17.763,95.3-16.784c34.954,1.048,67.895,8.469,91.557,36.581
				c14.239,16.911,22.563,36.788,30.857,57.021c0.504,1.235,0.055,2.503-0.815,3.382c0.069,0.295,0.057,0.635-0.078,1.01
				c-7.415,20.433-12.049,44.68-12.76,66.356c-0.354,10.776,0.657,21.617,4.047,31.895c2.446,7.423,7.14,20.94,13.335,26.069
				c13.996,11.584,34.284,14.792,51.008,20.699c5.176,1.828,10.298,12.166,15.378,14.256c12.646,5.206,23.291,10.676,36.287,1.806
				C916.754,659.111,917.578,655.532,916.317,651.956z"/>
			<g>
				<path fill="#7B401A" d="M877.626,646.244c-11.281-13.503-28.495-23.731-43.607-31.42c-6.652-3.382-11.822-7.232-17.29-12.57
					c-4.656-4.543-10.164-12.478-10.527-19.089c-0.009-0.131-0.024-0.251-0.039-0.378c5.29,5.444,11.825,9.717,18.566,13.111
					c8.783,4.421,20.584,9.002,30.462,6.263c4.208-1.17,7.502-4.893,8.492-9.085c1.412-5.995-1.654-10.608-6.319-13.897
					c-5.646-3.978-14.631-4.738-21.19-6.753c-0.764-0.241-1.527-0.495-2.285-0.759c-0.124-0.052-0.262-0.107-0.423-0.17
					c-1.505-0.602-2.971-1.291-4.428-1.999c-3.588-1.741-5.467-3.054-7.213-4.465c-4.772-3.86-7.391-7.038-9.22-11.835
					c-1.156-3.036-1.787-5.909-1.965-8.732c0.465,0.706,0.946,1.397,1.45,2.058c4.356,5.722,12.429,11.722,19.993,8.911
					c4.207-1.56,6.762-5.775,5.421-10.234c-1.345-4.471-5.459-7.822-8.974-10.725c-2.84-2.349-4.317-5.396-5.685-8.732
					c-1.445-3.528-1.962-7.013-1.99-10.807c-0.027-3.7,1.097-9.068-0.438-12.453c-0.651-1.432-1.755-2.067-3.32-1.758
					c-4.653,0.915-8.274,7.411-9.718,11.502c-1.944,5.513-2.85,11.479-2.282,17.314c-0.441,0.322-0.838,0.732-1.157,1.251
					c-5.006,8.146-9.057,15.624-9.348,25.384c-0.239,8.04,3.16,16.151,8.022,22.521c-2.944-0.794-6.59,0.833-6.375,4.761
					c0.248,4.533,0.008,9.149-0.05,13.699c-0.061,4.535,2.534,9.801,4.418,13.795c3.884,8.239,9.864,14.769,16.981,20.363
					c7.453,5.855,15.625,10.748,24.364,14.389c4.7,1.96,9.473,3.911,14.38,5.26c3.526,0.968,6.461,1.083,10.058,0.384
					c-2.298,0.446,1.653,0.519,1.73,0.521c1.368,0.059,3.267-0.575,4.684-0.893C877.932,649.835,881.165,650.478,877.626,646.244z"
					/>
				<path fill="#7B401A" d="M394.824,137.273c-4.987-0.477-10.404,0.476-15.434,0.6c-5.695,0.142-11.396,0.127-17.095,0.114
					c-12.585-0.036-40.27-4.227-52.829-5.135c-12.801-0.926-25.869-1.077-38.607,0.641c-5.574,0.753-12.158,2.475-17.063,5.376
					c-7.104,4.191-17.335,13.992-9.315,22.482c2.644,2.8,5.421,4.412,9.318,4.673c0.729-0.019,1.46-0.037,2.186-0.054
					c0.122,0.005,0.469,0.006,1.049,0.007c2.049,0.018,4.096-0.041,6.149-0.097c2.287-0.063,4.595-0.449,6.896-0.592
					c1.369-0.053,3.691-0.152,4.506-0.222c0.789-0.065,1.58-0.105,2.368-0.144c-0.346,0.031,2.278-0.043,2.74-0.041
					c1.392,0.007,2.78,0.058,4.169,0.111c2.86,0.103,5.711,0.328,8.561,0.582c5.935,0.528,11.844,1.382,17.727,2.325
					c11.446,1.835,43.096,5.792,54.683,6.219c11.603,0.431,24.574,1.926,35.936-0.909c7.87-1.963,13.206-10.265,12.969-18.104
					C413.407,144.141,404.782,138.233,394.824,137.273z"/>
				<path fill="#7B401A" d="M639.975,86.826c-16.507-8.896-39.703-11.638-57.601-5.62c-2.675,0.9-2.45,4.578,0.18,5.341
					c9.053,2.621,18.074,2.022,27.373,2c9.655-0.021,19.275,0.385,28.892,1.363C640.595,90.09,641.759,87.787,639.975,86.826z"/>
				<path fill="#7B401A" d="M294.239,346.04c-7.282-0.046-14.399,3.825-20.687,4.471c-7.686,0.791-15.654,0.577-23.326-0.252
					c-8.34-0.901-16.566-2.69-24.896-3.549c-7.329-0.756-25.583,6.369-32.904,5.423c-1.129-0.146-1.673,1.223-0.694,1.849
					c6.49,4.159,23.716,1.298,30.491,4.968c8.204,4.444,17.778,7.243,26.757,9.625c8.68,2.303,17.58,3.697,26.565,3.759
					c8.786,0.06,21.157-1.047,26.725-8.707C307.512,356.415,303.99,346.105,294.239,346.04z"/>
				<path fill="#7B401A" d="M285.006,376.756c-8.779-2.01-17.267,2.378-25.872,4.041c-7.599,1.467-15.767,1.55-23.464,1.102
					c-17.86-1.039-45.988,3.034-62.749-3.161c-1.899-0.702-3.032,2.443-1.235,3.288c8.62,4.048,16.905,8.569,25.461,12.695
					c8.257,3.981,28.002,0.303,37.017,2.101c9.201,1.836,18.496,2.279,27.793,1.035c10.023-1.338,21.381-3.271,26.968-12.481
					C290.933,382.061,288.604,377.581,285.006,376.756z"/>
				<path fill="#7B401A" d="M711.894,135.7c3.29,1.092,6.582,2.458,9.693,3.987c1.552,0.762,3.094,1.595,4.617,2.413
					c1.857,1,3.598,0.697,5.02,2.325c2.442,2.795,6.686-0.511,5.784-3.649c-1.041-3.635-0.771-6.804-2.766-10.269
					c-2.177-3.784-6.554-7.665-10.275-9.888c-8.649-5.166-18.18-8.258-27.981-10.368c-10.434-2.249-21.034-2.928-31.669-3.516
					c-4.587-0.254-9.175-0.459-13.762-0.706c-3.688-0.201-7.591,0.837-11.276,1.202c-5.754,0.573-9.033,9.186-2.767,11.885
					c15.274,6.587,32.796,7.881,49.169,10.446C694.497,130.947,703.418,132.893,711.894,135.7z"/>
				<path fill="#7B401A" d="M759.071,145.641c-6.536,1.665-12.923,3.758-19.116,6.341c-0.175-0.69-0.703-1.276-1.69-1.468
					c-13.892-2.694-27.875-1.653-41.604,1.466c-13.7,3.114-27.636,8.109-37.93,17.913c-2.387,2.276,0.372,6.524,3.421,5.425
					c12.01-4.34,22.999-10.904,35.084-15.109c11.693-4.072,24.174-6.249,36.559-5.451c-1.461,0.704-2.916,1.429-4.353,2.195
					c-5.034,2.686-9.419,6.233-13.695,9.981c-4.585,4.021-7.768,7.572-7.823,13.849c-0.032,3.372,3.428,5.394,6.443,4.615
					c4.931-1.275,7.197-4.078,10.577-7.702c3.44-3.692,7.393-6.876,11.353-9.988c7.621-5.995,16.251-10.545,25.184-14.237
					C766.31,151.474,764.257,144.319,759.071,145.641z"/>
				<path fill="#7B401A" d="M245.852,480.235c-1.059-11.024-3.64-21.622-6.888-32.188c-3.214-10.441-7.091-20.581-11.49-30.573
					c-4.336-9.859-8.946-21.327-19.865-25.013c-2.346-0.793-5.863,0.733-6.771,3.08c-3.719,9.613,0.517,19.249,4.811,28.066
					c4.351,8.936,8.803,17.858,12.927,26.896c4.279,9.38,7.938,19.067,11.408,28.771c3.335,9.331,7.544,19.697,8.688,29.545
					c0.319,2.788,4.854,3.711,5.24,0.529C245.112,499.487,246.812,490.261,245.852,480.235z"/>
				<path fill="#7B401A" d="M836.484,432.723c-1.961-3.961-3.514-7.622-6.909-10.738c-0.203-0.188-0.423-0.363-0.636-0.544
					c-0.471-2.145-1.217-4.306-2.521-6.581c-1.678-2.924-4.029-5.463-6.101-8.117c-5.394-6.904-11.033-13.633-16.817-20.215
					c-9.014-10.259-18.868-19.781-29.636-28.189c-24.184-18.874-52.215-32.362-82.814-36.46
					c-53.094-7.109-104.864,6.905-155.754,20.501c-12.082,3.229-24.189,6.372-36.385,9.146c-5.786,1.315-11.6,2.516-17.434,3.61
					c-1.336,0.252-2.674,0.489-4.013,0.725c-0.082,0.014-0.159,0.022-0.253,0.039c-3.38,0.536-6.771,0.994-10.169,1.419
					c-12.022,1.501-24.146,2.125-36.256,1.72c-2.899-0.1-5.795-0.294-8.687-0.525c-0.049-0.004-0.09-0.008-0.14-0.011
					c-0.005,0-0.007-0.001-0.012-0.001c-1.453-0.164-2.898-0.366-4.347-0.566c-6.349-0.883-12.61-2.232-18.82-3.808
					c-2.923-0.741-5.813-1.603-8.691-2.506c-1.456-0.457-2.899-0.956-4.34-1.457c-0.204-0.068-0.376-0.127-0.536-0.181
					c-0.044-0.02-0.08-0.032-0.126-0.052c-6.771-2.636-13.231-5.866-19.554-9.434c-3.082-1.738-6.095-3.601-9.079-5.501
					c-1.49-0.948-2.959-1.936-4.425-2.921c-0.309-0.208-0.563-0.377-0.772-0.519c-0.188-0.135-0.4-0.291-0.661-0.479
					c-6.239-4.5-12.188-9.393-17.959-14.477c-11.185-9.854-21.538-20.539-31.228-31.858c-0.126-0.147-0.242-0.284-0.349-0.408
					c-0.197-0.24-0.517-0.634-1.021-1.247c-1.146-1.393-2.272-2.798-3.396-4.208c-2.252-2.813-4.447-5.674-6.625-8.546
					c-4.709-6.209-9.388-12.438-13.902-18.792c-6.175-8.688-11.896-18.646-19.183-26.427c-3.613-3.859-13.911-5.31-18.968-7.139
					c-3.619-1.31-10.306-0.804-12.88,2.8c-9.56,13.379,5.321,31.018,13.054,41.938c8.61,12.169,15.33,21.782,23.952,33.935
					c17.813,25.111,38.448,48.679,63.154,67.209c23.713,17.788,50.161,30.825,79.494,36.086c25.4,4.559,51.262,3.844,76.69,0.052
					c26.19-3.909,51.824-10.293,77.468-16.793c12.186-3.09,24.389-6.09,36.648-8.876c5.844-1.326,11.711-2.549,17.598-3.677
					c1.104-0.21,5.336-0.944,6.611-1.178c2.605-0.406,5.216-0.787,7.831-1.136c12.18-1.629,24.463-2.438,36.75-2.268
					c2.947,0.04,5.893,0.177,8.833,0.346c1.475,0.084,2.945,0.203,4.418,0.322c0.008,0.001,0.014,0.001,0.021,0.002
					c6.896,0.782,13.688,2.062,20.407,3.798c3.377,0.872,6.706,1.928,10.013,3.042c0.314,0.104,0.57,0.189,0.791,0.263
					c0.014,0.004,0.022,0.008,0.039,0.015c1.57,0.615,3.117,1.284,4.662,1.952c6.576,2.843,12.872,6.296,18.952,10.07
					c1.385,0.858,2.743,1.763,4.102,2.667c0.142,0.095,0.268,0.177,0.384,0.255c0.021,0.017,0.038,0.029,0.062,0.044
					c2.629,1.908,5.144,3.976,7.639,6.053c5.437,4.525,10.543,9.439,15.465,14.514c3.063,3.162,6.003,6.438,8.892,9.756
					c0.326,0.38,0.652,0.764,0.979,1.146c0.117,0.142,0.233,0.286,0.384,0.464c1.416,1.722,2.795,3.47,4.171,5.215
					c2.776,3.522,5.501,7.093,8.077,10.759c2.185,3.109,4.528,6.038,7.113,8.838c1.007,0.914,2.068,1.722,3.179,2.445
					c0.44,1.087,0.974,2.171,1.668,3.264c2.166,3.403,5.635,6.491,8.403,9.488c6.625,7.171,18.943,7.335,26.757,2.362
					C840.681,456.19,841.812,443.473,836.484,432.723z"/>
				<path fill="#7B401A" d="M1016.29,443.051c0.361,0.67,0.336,0.568-0.074-0.301c-0.722-1.893-1.854-3.49-3.402-4.795
					c-1.779-1.487-4.179-2.519-6.281-3.481c-4.764-2.179-9.42-3.621-14.543-4.745c-9.817-2.153-20.437-1.96-30.442-1.851
					c-16.248,0.178-32.493,2.889-48.311,6.778c2.2-0.651,4.403-1.295,6.627-1.886c1.89-0.504,3.787-0.971,5.685-1.437
					c0.621-0.149,1.247-0.296,1.867-0.442c-0.832,0.204,2.498-0.551,2.722-0.601c8.552-1.836,17.183-3.288,25.834-4.554
					c17.269-2.521,35.697-2.546,51.994-9.253c11.368-4.678,9.887-21.024-2.107-23.626c-17.632-3.826-36.457-0.272-54.051,2.447
					c-18.962,2.93-38.501,6.591-56.554,13.242c-17.551,6.465-34.683,15.033-48.786,27.44c-7.139,6.283-13.202,13.135-18.436,21.074
					c-5.471,8.3-8.08,17.449-10.715,26.948c-0.658,2.357,1.177,4.165,3.248,4.555c-3.271,4.192-6.33,8.593-9.191,13.199
					c-0.97,1.563,1.28,3.186,2.63,2.197c13.45-9.851,29.092-16.718,44.493-22.953c16.939-6.856,34.251-12.698,52.025-17
					c15.582-3.77,34.819-5.593,52.088-6.183c10.882-0.374,15.841,0.465,26.566,0.728c0.96,0.017,1.918,0.041,2.877,0.069
					c0.215,0.013,0.461,0.027,0.769,0.044c2.728,0.152,5.346,0.303,8.054-0.008c1.855-0.21,3.711-0.297,5.577-0.404
					c3.293-0.188,5.346-2.142,7.907-3.78C1018.405,451.886,1018.388,446.785,1016.29,443.051z"/>
			</g>
		</g>
		<path fill="#C7886A" d="M393.96,725.03c-0.94,0.913-1.543,2.128-1.547,3.585c-0.617,0.957-1.079,1.998-1.354,3.139
			c-0.089,0.377-0.141,0.752-0.178,1.125h136.729c-0.491-2.036-1.285-3.973-2.41-5.725c5.767-2.933,11.179-6.345,16.06-10.283
			c8.026-6.473,11.8-16.703,5.792-26.145c-7.155-11.238-20.777-10.445-29.907-2.637c4.78-4.087-1.369,0.888-2.611,1.774
			c-2.355,1.672-4.768,3.235-7.248,4.713c-2.587,1.54-5.266,2.92-7.967,4.242c-0.186,0.079-0.411,0.178-0.692,0.302
			c-1.712,0.751-3.45,1.437-5.192,2.119c-5.854,2.286-11.883,4.111-17.968,5.668c-3.351,0.859-6.738,1.563-10.138,2.203
			c-0.169,0.033-0.319,0.063-0.458,0.089c-0.255,0.035-0.607,0.085-1.089,0.158c-1.977,0.296-3.965,0.529-5.95,0.75
			c-6.346,0.708-12.792,1.021-19.176,1.085c-7.701,0.079-10.212-0.161-17.414-1.508c-4.773-0.895-11.603-2.282-15.08-3.612
			c-5.201-1.989-11.573-5.401-17.517-5.153c-3.358,0.139-5.759,2.869-5.799,6.153C382.758,713.938,387.734,720.145,393.96,725.03z"
			/>
		<g>
			<path fill="#4C2900" d="M451.243,344.822c-7.013,0.118-13.011,1.449-17.718,3.517c-10.596-1.949-24.472-0.478-32.858,4.832
				c-2.11-0.72-4.538-1.26-7.248-1.566c-13.698-1.551-25.09,2.888-31.057,8.961c-0.16,0.167-0.312,0.335-0.472,0.501
				c-0.111-0.212-0.207-0.426-0.323-0.64c-4.467-8.249-29.475-8.778-36.073,0.611c-7.563,10.744-11.624,21.802-13.603,32.796
				c-0.985,5.488-1.193,10.93-0.939,16.366c0.28,6.195,3.047,10.422,10.26,15.13c1.01,0.657,2.711,0.944,4.51,0.923
				c0.242,0.921,0.512,1.842,0.835,2.756c2.99,8.462,23.047,8.54,33.869,2.937c7.846,7.852,32.934,5.756,43.052-1.547
				c2.708-1.953,5.08-3.966,7.197-6.02c13.113,4.562,36.558,0.199,42.944-8.377c14.292-19.187,16.214-39.168,21.816-58.747
				C477.445,350.23,464.983,344.591,451.243,344.822z"/>
			<path fill="#4C2900" d="M790.842,425.512c-7.6-8.877-23.141-16.22-31.692-13.345c-1.308,0.439-2.481,0.933-3.599,1.451
				c1.83-11.67-22.254-30.686-36.546-26.824c-6.15-9.148-20.955-17.674-31.463-15.519c-4.77,0.98-8.773,2.598-12.228,4.659
				c-5.695-9.572-22.215-17.831-31.908-13.35c-11.668,5.395-21.568,12.387-29.221,21.056c-7.227,8.184-14.143,19.737-10.412,33.102
				c1.432,5.124,10.187,11.231,15.482,9.55c0.322-0.1,0.621-0.222,0.933-0.332c0.324,1.067,0.676,2.14,1.087,3.238
				c3.694,9.822,15.229,19.43,27.703,20.144c3.727,0.211,7.139,0.094,10.323-0.261c6.116,7.03,17.135,13,25.358,13.146
				c5.686,0.1,10.586-0.592,14.932-1.834c2.012,2.669,4.479,5.365,7.494,8.09c12.158,10.971,26.857,13.785,38.249,12.796
				c8.534-0.745,14.818-5.836,19.977-9.917c5.687-4.49,10.628-9.565,15.653-14.555c2.295-2.272,4.611-4.528,6.974-6.751
				c1.688-1.594,3.475-3.119,4.851-4.934c0.141-0.177,0.284-0.348,0.428-0.521C797.606,440.264,797.595,433.39,790.842,425.512z"/>
			<path fill="#4C2900" d="M543.954,732.879c-1.918-4.591-4.022-8.996-6.258-13.11c-4.663-8.576-16.287-12.011-25.208-9.265
				c-2.038,0.626-3.923,1.553-5.635,2.699c-1.432-0.256-2.874-0.388-4.299-0.346c-1.368,0.042-2.761,0.249-4.153,0.602
				c-3.596-7.496-11.389-12.465-19.865-12.209c-3.092,0.093-6.035,0.896-8.693,2.222c-3.148-1.947-6.901-3.042-11.148-2.916
				c-5.003,0.151-9.06,1.843-12.21,4.527c-3.12-1.589-6.598-2.444-9.95-2.343c-0.164,0.004-0.328,0.019-0.493,0.028
				c-0.299-0.182-0.594-0.363-0.908-0.532c-1.297-0.687-2.712-1.197-4.191-1.54c-5.314-8.538-18.595-11.957-27.236-5
				c-2.791-10.901-14.301-16.532-26.037-10.693c-13.792,6.86-21.904,19-27.657,32.44c-5.122,4.824-9.949,9.972-14.431,15.436
				H543.954z"/>
		</g>
		<path fill="#C7886A" d="M577.47,634.212c-0.422-2.116-3.637-2.274-4.887-0.313c-2.615,4.109-6.032,7.689-8.704,11.701
			c-2.984,4.479-4.684,9.664-7.603,14.252c-2.647,4.164-5.873,8.094-9.219,11.924c-3.845,4.4-8.404,8.13-11.174,13.055
			c-2.588,4.6,3.515,10.529,9.377,7.525c11.314-5.799,18.677-17.092,24.787-26.549c3.31-5.127,5.933-10.496,8.09-15.953
			C580.053,645.01,578.416,638.971,577.47,634.212z"/>
	</g>
	<g id="Lines_7_">
		<g id="Head_7_">
			<g>
				<g>
					<g>
						<path fill="#B18B64" d="M807.954,608.324c-3.456,1.554-4.354,4.354-5.712,7.799c-1.913,4.857-3.183,9.744-4.081,14.88
							c-1.853,10.58-3.447,21.202-5.308,31.781c-3.798,21.584-9.092,42.97-19.895,62.217c-1.58,2.815,2.739,5.335,4.316,2.523
							c9.564-17.04,14.978-35.69,18.785-54.761c1.97-9.866,3.508-19.816,5.129-29.744c0.858-5.254,1.646-10.539,2.751-15.749
							c0.873-4.117,2.489-12.809,6.537-14.628C813.414,611.322,810.869,607.014,807.954,608.324L807.954,608.324z"/>
					</g>
				</g>
				<g>
					<g>
						<path fill="#B18B64" d="M236.139,513.498c0.942,6.261,5.189,11.146,5.616,17.577c0.358,5.397,0.118,10.838-0.202,16.23
							c-0.775,13.096-2.577,26.126-4.275,39.126c-1.317,10.089-3.052,20.331-3.097,30.53c-0.066,15.11,6.05,29.372,13.86,42.02
							c1.689,2.737,6.016,0.229,4.316-2.523c-7.813-12.653-13.598-26.583-13.137-41.688c0.316-10.355,2.063-20.724,3.402-30.981
							c1.638-12.547,3.256-25.114,4.005-37.751c0.315-5.315,0.413-10.652,0.061-15.968c-0.436-6.562-4.773-11.556-5.729-17.901
							C240.48,508.988,235.663,510.345,236.139,513.498L236.139,513.498z"/>
					</g>
				</g>
				<g>
					<g>
						<path fill="#B18B64" d="M270.031,648.822c-37.557,10.602-65.57,40.711-80.83,75.759c-1.273,2.925,3.033,5.474,4.318,2.523
							c14.752-33.886,41.453-63.189,77.84-73.462C274.458,652.769,273.14,647.943,270.031,648.822L270.031,648.822z"/>
					</g>
				</g>
			</g>
			<g id="Ears_7_">
				<g>
					<g>
						<path fill="#A07E5A" d="M781.772,710.244c4.069,4.094,10.191,6.415,15.406,8.592c7.125,2.974,15.256,5.664,23.079,5.145
							c8.152-0.541,17.27-4.088,24.439-7.93c5.031-2.695,9.183-6.598,11.395-11.897c3.97-9.515-1.864-20.923-5.079-29.763
							c-4.448-12.228-6.366-24.259,1.915-35.356c1.932-2.587-2.412-5.075-4.316-2.523c-6.938,9.296-7.861,20.025-5.044,31.019
							c2.499,9.752,8.334,19.131,8.709,29.339c0.508,13.796-17.077,18.482-27.517,21.132c-7.929,2.013-15.228,0.063-22.78-2.64
							c-5.427-1.941-12.496-4.452-16.672-8.651C783.032,704.42,779.497,707.956,781.772,710.244L781.772,710.244z"/>
					</g>
				</g>
				<g>
					<g>
						<path fill="#A07E5A" d="M233.945,602.232c-14.9-3.324-32.128-2.668-45.545-10.741c-16.6-9.987-13.28-34.926-5.522-49.335
							c4.18-7.764,9.054-15.018,12.105-23.348c3.912-10.678,2.395-21.282-0.468-32.006c-2.868-10.744-5.225-20.991-5.342-32.173
							c-0.116-11.192,4.78-19.007,14.369-24.706c2.769-1.645,0.255-5.969-2.523-4.316c-8.352,4.963-14.53,11.7-16.277,21.471
							c-1.813,10.14-0.127,21.567,2.322,31.426c3.309,13.314,7.697,25.359,3.098,38.976c-3.346,9.905-10.068,18.28-14.392,27.737
							c-6.84,14.962-6.616,38.257,7.749,48.957c13.756,10.247,33.038,9.297,49.098,12.879
							C235.758,607.754,237.093,602.934,233.945,602.232L233.945,602.232z"/>
					</g>
				</g>
			</g>
			<g id="Eyes_12_">
				<g>
					<g>
						<path fill="#D5D0A6" d="M610.504,582.08c-15.826-14.073-21.675-34.177-14.428-54.246c6.943-19.231,24.75-33.209,44.284-37.884
							c35.646-8.531,65.993,28.411,62.195,62.157c-1.535,13.638-10.338,24.398-22.509,30.19c-10.183,4.846-22.592,7.093-33.76,7.76
							c-12.735,0.761-25.215-2.041-36.289-8.368c-2.804-1.603-5.322,2.718-2.523,4.316c22.877,13.072,52.683,11.275,76.092,0.136
							c14.547-6.923,23.078-20.993,24.246-36.798c2.338-31.634-23.74-65.045-56.271-65.763
							c-24.026-0.53-47.418,16.255-57.842,37.204c-11.263,22.638-5.402,48.227,13.27,64.83
							C609.369,587.75,612.918,584.227,610.504,582.08z"/>
					</g>
				</g>
				<g>
					<g>
						<path fill="#D5D0A6" d="M339.721,554.426c10.684,3.086,24.28,3.517,34.586-1.063c10.368-4.606,18.655-12.733,25.014-21.997
							c5.804-8.457,9.294-18.319,9.019-28.617c-0.249-9.282-3.703-18.481-7.643-26.765c-7.281-15.31-21.292-33.788-40.394-30.503
							c-9.412,1.619-18.011,7.573-25.28,13.433c-8.1,6.529-15.26,14.587-20.556,23.551
							C300.63,505.879,313.292,545.518,339.721,554.426c3.063,1.033,4.367-3.797,1.328-4.82
							c-20.042-6.757-30.115-34.28-26.599-53.729c1.753-9.694,8.785-18.31,15.329-25.277c7.415-7.895,16.498-15.063,26.727-18.876
							c21.205-7.902,36.14,16.503,42.647,33.183c3.537,9.067,5.47,18.807,3.122,28.405c-2.927,11.969-11.482,22.928-21.142,30.293
							c-11.308,8.621-26.624,9.889-40.085,6.002C337.944,548.708,336.629,553.533,339.721,554.426z"/>
					</g>
				</g>
				<g id="Pupils_7_">
					<g>
						<g>
							<path fill="#0D101C" d="M640.285,569.516c0.117-0.506,0.24-1.004,0.404-1.497c-0.074,0.223-0.417,0.232,0.021,0.204
								c2.712-0.177,5.933,1.481,8.385,2.406c-0.498-1.224-0.996-2.447-1.494-3.672c-0.896,1.473-1.793,2.944-2.689,4.417
								c0.72-0.413,1.439-0.825,2.159-1.238c-3.195-0.261-6.804-0.872-9.934,0.149c-2.753,0.898-5.097,3.335-7.497,4.873
								c-2.466,1.579-0.831,5.084,1.926,4.568c5.172-0.966,10.747,0.918,16.003,0.554c-0.589-1.423-1.179-2.845-1.768-4.268
								c-1.428,1.351-2.855,2.7-4.283,4.051c1.01-0.13,2.02-0.261,3.029-0.392c-1.68-1.268-5.399-3.539-3.943-6.021
								c1.119-1.908,3.122-3.443,4.549-5.126c2.073-2.442-1.446-5.998-3.535-3.535c-2.242,2.642-5.729,5.184-6.378,8.789
								c-0.815,4.541,3.641,7.837,6.784,10.211c0.9,0.68,2.283,0.314,3.029-0.392c1.428-1.351,2.855-2.7,4.283-4.051
								c1.523-1.44,0.425-4.42-1.768-4.268c-5.767,0.4-11.617-1.442-17.331-0.374c0.642,1.522,1.283,3.046,1.926,4.568
								c2.094-1.341,3.996-3.007,6.133-4.268c2.219-1.308,6.42-0.264,8.774-0.071c0.869,0.071,1.728-0.529,2.159-1.238
								c0.896-1.472,1.792-2.944,2.688-4.417c0.901-1.48-0.025-3.118-1.494-3.672c-5.286-1.995-13.187-5.298-14.959,2.377
								C634.739,571.324,639.561,572.656,640.285,569.516L640.285,569.516z"/>
						</g>
					</g>
					<g>
						<g>
							<path fill="#0D101C" d="M358.65,528.063c0.117-0.505,0.239-1.003,0.404-1.496c-0.074,0.223-0.417,0.232,0.021,0.204
								c2.711-0.177,5.93,1.481,8.381,2.405c-0.498-1.224-0.996-2.447-1.494-3.672c-0.895,1.473-1.79,2.945-2.686,4.418
								c0.72-0.413,1.439-0.825,2.159-1.238c-3.195-0.261-6.804-0.872-9.934,0.149c-2.753,0.899-5.097,3.336-7.497,4.874
								c-2.466,1.579-0.831,5.084,1.926,4.568c5.172-0.965,10.746,0.918,16.002,0.553c-0.589-1.423-1.179-2.846-1.768-4.268
								c-1.427,1.351-2.854,2.701-4.28,4.052c1.01-0.13,2.02-0.261,3.029-0.392c-1.679-1.267-5.4-3.539-3.945-6.02
								c1.119-1.908,3.12-3.444,4.547-5.127c2.072-2.443-1.447-5.998-3.535-3.535c-2.241,2.643-5.729,5.185-6.376,8.789
								c-0.814,4.542,3.642,7.837,6.786,10.211c0.9,0.68,2.284,0.314,3.029-0.392c1.427-1.351,2.854-2.701,4.28-4.052
								c1.522-1.44,0.426-4.42-1.768-4.268c-5.767,0.4-11.616-1.44-17.33-0.373c0.642,1.522,1.283,3.046,1.926,4.568
								c2.094-1.341,3.996-3.007,6.133-4.268c2.219-1.309,6.42-0.265,8.774-0.072c0.868,0.07,1.728-0.529,2.159-1.238
								c0.895-1.473,1.79-2.945,2.686-4.418c0.899-1.48-0.025-3.118-1.494-3.672c-5.289-1.995-13.182-5.294-14.959,2.379
								C353.102,529.871,357.923,531.203,358.65,528.063L358.65,528.063z"/>
						</g>
					</g>
				</g>
			</g>
		</g>
		<g id="Hair_7_">
			<g>
				<g>
					<path fill="#6F3618" d="M820.563,491.154c23.896-20.145,51.263-35.263,81.646-42.964c34.217-8.673,70.225-7.296,104.809-1.687
						c3.153,0.511,4.506-4.307,1.33-4.822c-35.189-5.707-71.232-6.962-106.117,1.355c-31.722,7.563-60.391,23.666-85.202,44.582
						C814.56,489.7,818.115,493.219,820.563,491.154L820.563,491.154z"/>
				</g>
			</g>
			<g>
				<g>
					<path fill="#6F3618" d="M821.207,490.051c3.546-15.032,10.24-28.776,20.656-40.246c10.084-11.104,23.029-19.129,36.51-25.453
						c30.335-14.231,64.231-20.162,96.676-27.563c3.144-0.717,1.811-5.537-1.328-4.82c-33.798,7.707-68.697,14.094-100.188,29.163
						c-28.525,13.65-49.787,36.388-57.148,67.591C815.646,491.857,820.467,493.189,821.207,490.051L821.207,490.051z"/>
				</g>
			</g>
			<g>
				<g>
					<path fill="#6F3618" d="M821.207,490.051c9.624-42.077,17.734-84.561,22.083-127.535c4.489-44.363,5.485-90.684-6.044-134.117
						c-4.945-18.633-12.748-36.739-24.5-52.114c-12.252-16.028-26.896-29.972-43.538-41.369
						c-34.084-23.343-75.221-34.272-116.015-37.495c-43.074-3.404-86.8,1.955-128.521,12.764c-20.141,5.217-39.931,11.902-59.097,20
						c-19.066,8.057-36.959,17.875-54.775,28.355c-30.925,18.195-62.369,36.445-96.783,47.232
						c-35.75,11.207-72.934,11.426-109.289,2.945c-2.137-0.499-3.917,1.711-2.824,3.672
						c38.98,69.888,74.515,157.087,153.642,190.037c45.577,18.979,96.961,16.834,144.636,8.048
						c46.054-8.487,89.726-26.173,135.597-35.283c38.957-7.736,81.251-6.547,116.335,13.866
						c36.523,21.25,58.182,59.947,64.271,100.994c0.473,3.181,5.289,1.824,4.822-1.328c-6.759-45.556-32.424-86.77-73.99-108.036
						c-39.551-20.234-86.139-17.019-128.007-6.96c-46.569,11.188-91.319,28.295-138.98,34.945
						c-47.854,6.678-98.446,4.492-141.232-19.987c-31.517-18.031-55.225-46.422-74.847-76.435
						c-21.468-32.836-38.842-68.164-57.928-102.385c-0.941,1.225-1.883,2.448-2.824,3.672c25.834,6.027,52.479,8.232,78.827,4.503
						c24.41-3.456,47.632-11.561,69.922-21.914c24.526-11.393,47.95-25.263,71.13-39.144c16.973-10.164,34.932-18.672,53.322-25.93
						c40.16-15.85,82.928-25.717,126.002-28.731c42.415-2.969,85.942,1.146,125.749,16.723
						c37.503,14.675,72.613,41.845,91.604,77.901c20.235,38.417,22.455,85.006,20.982,127.507
						c-1.921,55.414-12.217,110.339-24.553,164.271C815.667,491.861,820.488,493.194,821.207,490.051L821.207,490.051z"/>
				</g>
			</g>
			<g>
				<g>
					<path fill="#6F3618" d="M674.213,102.382c-6.506-7.525-15.249-12.909-23.938-17.553c-11.414-6.099-23.636-10.739-35.948-14.652
						c-25.827-8.209-53.332-12.158-80.284-14.417c-53.189-4.456-108.319,1.491-157.289,23.602
						c-12.58,5.68-23.862,13.104-35.685,20.108c-10.997,6.515-22.819,11.587-34.526,16.661
						c-22.372,9.695-46.571,19.117-63.628,37.253c-1.421,1.511-0.501,4.377,1.768,4.268c24.538-1.181,49.954,4.352,73.899,9.017
						c12.564,2.448,25.084,5.172,37.503,8.28c7.022,1.758,14.812,3.22,21.354,6.446c2.881,1.421,5.415-2.891,2.523-4.316
						c-6.696-3.303-14.441-4.89-21.626-6.719c-12.714-3.235-25.555-5.985-38.427-8.513c-13.873-2.724-27.818-5.092-41.836-6.943
						c-11.01-1.454-22.267-2.787-33.392-2.252c0.589,1.423,1.179,2.845,1.768,4.268c16.728-17.785,40.672-26.974,62.616-36.472
						c11.301-4.891,22.587-9.865,33.306-15.953c11.416-6.482,22.098-13.795,34.002-19.469
						c49.633-23.654,106.742-28.742,160.922-23.986c25.48,2.236,51.248,6.361,75.702,13.959
						c11.956,3.715,23.651,8.353,34.754,14.148c8.361,4.365,16.704,9.575,22.926,16.771
						C672.79,108.36,676.311,104.808,674.213,102.382L674.213,102.382z"/>
				</g>
			</g>
			<g>
				<g>
					<path fill="#6F3618" d="M251.75,382.449c-15.776-3.703-30.923-9.879-45.327-17.237c-12.304-6.286-25.297-13.718-34.453-24.28
						c-0.811,1.393-1.621,2.785-2.433,4.178c18.311,7.686,38.344,11.387,57.973,13.705c22.008,2.6,44.921,2.913,66.617-2.115
						c-0.941-1.224-1.883-2.447-2.824-3.672c-16.93,22.461-28.32,49.271-37.604,75.644c-9.446,26.836-17.119,55.554-17.65,84.162
						c1.637-0.222,3.273-0.443,4.91-0.665c-5.289-30.674-19.222-59.146-36.106-85.035c-16.118-24.715-35.444-47.41-56.436-68.105
						c-1.01,1.309-2.02,2.617-3.029,3.926c15.785,9.447,34.066,14.549,51.921,18.383c17.555,3.769,35.79,6.302,53.777,6.023
						c3.221-0.05,3.226-5.05,0-5c-17.107,0.265-34.282-2.131-51.009-5.544c-17.911-3.654-36.37-8.727-52.166-18.179
						c-2.448-1.466-5.054,1.93-3.029,3.926c20.333,20.047,38.895,41.925,54.735,65.701c17.198,25.813,31.216,54.47,36.521,85.234
						c0.493,2.861,4.859,2.063,4.91-0.665c0.524-28.211,8.261-56.347,17.472-82.833c9.035-25.98,20.449-52.359,37.101-74.449
						c1.422-1.887-0.909-4.116-2.824-3.672c-21.303,4.937-43.684,4.366-65.287,1.936c-19.151-2.155-38.805-6.039-56.643-13.525
						c-2.527-1.061-3.885,2.503-2.433,4.178c9.449,10.9,22.827,18.497,35.465,25.063c14.69,7.632,30.385,13.953,46.522,17.74
						C253.558,388.006,254.889,383.186,251.75,382.449L251.75,382.449z"/>
				</g>
			</g>
			<g>
				<g>
					<path fill="#6F3618" d="M815.906,491.313c-23.102,31.778-31.817,76.914-13.363,112.944c8.371,16.344,22.154,26.768,39.056,33.1
						c22.861,8.566,46.306,23.115,71.663,19.6c2.172-0.302,2.386-3.646,0.597-4.57c-15.029-7.758-28.33-18.916-40.182-30.877
						c-11.938-12.047-23.928-26.608-28.226-43.367c-1.224,0.941-2.447,1.883-3.672,2.824c18.207,8.689,37.806,19.473,58.637,14.9
						c2.409-0.529,2.376-4.271,0-4.822c-17.777-4.116-36.447-8.998-51.494-19.782c-10.348-7.417-16.301-18.26-19.543-30.347
						c-1.394,0.811-2.786,1.621-4.179,2.432c8.915,8.604,21.012,13.321,32.983,15.763c11.883,2.423,25.177,2.505,36.228-3.028
						c1.931-0.966,1.447-4.092-0.597-4.568c-16.338-3.814-32.322-9.746-45.68-20.132c-13.013-10.117-22.018-24.121-27.66-39.472
						c-1.103-3-5.936-1.703-4.82,1.33c5.836,15.879,14.856,30.068,27.975,40.9c13.998,11.557,31.359,18.109,48.855,22.193
						c-0.198-1.522-0.397-3.046-0.597-4.568c-9.875,4.943-21.792,4.496-32.374,2.523c-11.091-2.067-22.56-6.547-30.778-14.477
						c-1.796-1.733-4.834-0.012-4.179,2.432c3.423,12.756,9.692,24.053,20.307,32.18c15.508,11.875,35.527,17.113,54.223,21.443
						c0-1.607,0-3.215,0-4.822c-19.309,4.239-37.947-6.36-54.783-14.396c-1.938-0.925-4.249,0.576-3.672,2.824
						c4.411,17.206,16.417,31.962,28.483,44.521c12.223,12.721,26.482,24.586,42.221,32.711c0.199-1.523,0.397-3.047,0.597-4.57
						c-23.405,3.246-46.551-10.799-67.545-19.037c-8.348-3.277-15.969-6.574-22.85-12.481c-6.406-5.499-11.366-12.418-15.197-19.898
						c-17.4-33.974-7.652-77.257,13.883-106.881C822.123,491.224,817.781,488.732,815.906,491.313z"/>
				</g>
			</g>
		</g>
		<g id="Facial_Hair_7_">
			<g>
				<g>
					<path fill="#4D2B00" d="M526.24,724.925c-1.514-3.181-4.104-6.575-2.092-10.074c1.611-2.8-2.71-5.317-4.316-2.523
						c-3.115,5.415-0.306,10.089,2.092,15.121C523.31,730.358,527.619,727.82,526.24,724.925L526.24,724.925z"/>
				</g>
			</g>
			<g>
				<g>
					<path fill="#4D2B00" d="M507.008,726.378c0.13-1.108,0.836-5.515,2.582-5.271c2.592,0.36,4.737,3.981,5.65,6.135
						c1.254,2.96,5.56,0.409,4.316-2.523c-1.691-3.991-6.18-9.393-11.079-8.504c-4.587,0.831-6.005,6.213-6.47,10.163
						C501.632,729.576,506.636,729.54,507.008,726.378L507.008,726.378z"/>
				</g>
			</g>
			<g>
				<g>
					<path fill="#4D2B00" d="M483.043,726.266c0.093-1.344,0.306-2.651,0.638-3.958c0.185-0.726,0.438-1.388,0.804-2.037
						c0.336-0.594,0.224-0.243,0.196-0.259c2.09,1.154,3.273,4.918,4.065,7.027c1.121,2.989,5.956,1.695,4.82-1.33
						c-1.457-3.884-3.771-10.176-8.563-10.741c-5.546-0.654-6.692,7.425-6.961,11.298
						C477.82,729.485,482.821,729.464,483.043,726.266L483.043,726.266z"/>
				</g>
			</g>
			<g>
				<g>
					<path fill="#4D2B00" d="M462.818,727.177c0.291-0.516,0.58-0.978,0.99-1.401c0.226-0.234,0.683-0.263,0.214-0.227
						c-0.249-0.063-0.223-0.053,0.08,0.028c-0.176-0.049-0.279-0.203,0.097,0.146c0.524,0.487,0.819,1.229,1.111,1.865
						c0.567,1.239,2.333,1.534,3.42,0.897c1.262-0.739,1.465-2.182,0.896-3.421c-0.997-2.178-2.755-4.401-5.355-4.507
						c-2.656-0.108-4.564,1.964-5.771,4.095C456.909,727.463,461.229,729.981,462.818,727.177L462.818,727.177z"/>
				</g>
			</g>
			<g>
				<g>
					<path fill="#4D2B00" d="M445.047,726.465c0.313-0.795,0.632-1.534,0.996-2.324c-1.14,0.299-2.279,0.598-3.42,0.896
						c0.553,0.33,1.161,0.548,1.739,0.828c0.104,0.053,0.206,0.107,0.307,0.166c0.502,0.283-0.388-0.369,0.021,0
						c0.321,0.29-0.206-0.344-0.242-0.45c-0.014-0.112-0.026-0.224-0.039-0.335c-0.008,0.27-0.002,0.242,0.02-0.08
						c-0.286,1.331,0.376,2.698,1.746,3.074c1.255,0.346,2.789-0.413,3.074-1.746c0.331-1.541,0.035-3.184-1.269-4.205
						c-0.886-0.694-1.882-1.002-2.833-1.568c-1.086-0.647-2.852-0.334-3.42,0.896c-0.535,1.157-1.033,2.332-1.502,3.518
						c-0.5,1.27,0.539,2.744,1.746,3.076C443.392,728.602,444.547,727.73,445.047,726.465L445.047,726.465z"/>
				</g>
			</g>
			<g>
				<g>
					<path fill="#4D2B00" d="M425.449,726.754c0.648-2.36,1.34-6.193,3.681-7.469c0.673-0.367,0.435,0.92,0.379,1.315
						c-0.236,1.694-0.866,3.319-1.423,4.927c-1.059,3.056,3.772,4.357,4.82,1.33c1.572-4.537,3.457-11.851-3.444-12.562
						c-5.532-0.57-7.735,7.128-8.835,11.13C419.772,728.54,424.596,729.859,425.449,726.754L425.449,726.754z"/>
				</g>
			</g>
			<g>
				<g>
					<path fill="#4D2B00" d="M400.379,727.34c3.067-4.336,6.237-11.344,11.719-12.979c2.57-0.767,1.036,2.663,0.578,4.046
						c-0.707,2.13-1.776,4.104-2.654,6.161c-1.25,2.931,3.057,5.481,4.318,2.523c1.707-4.002,8.224-15.537,0.581-17.535
						c-8.893-2.324-14.749,9.449-18.858,15.26C394.195,727.455,398.533,729.949,400.379,727.34L400.379,727.34z"/>
				</g>
			</g>
			<g>
				<g>
					<path fill="#4D2B00" d="M378.629,727.422c3.054-5.213,6.396-10.179,10.249-14.838c1.532-1.854,3.345-3.904,5.696-4.665
						c0.695-0.226,0.658,0.122,0.292-0.392c0.249,0.35,0.106,1.096,0.093,1.477c-0.18,5.236-3.247,11.287-5.775,15.793
						c-1.579,2.815,2.74,5.335,4.318,2.523c1.812-3.23,3.233-6.733,4.51-10.202c1.238-3.362,3.046-8.262,1.343-11.764
						c-2.049-4.212-7.249-2.267-10.078-0.159c-6.354,4.733-11.044,13.009-14.964,19.703
						C372.679,727.687,377.001,730.201,378.629,727.422L378.629,727.422z"/>
				</g>
			</g>
			<g>
				<g>
					<path fill="#4D2B00" d="M379.008,696.053c-2.803,10.61-7.986,20.07-14.24,29.018c-1.853,2.65,2.484,5.145,4.316,2.523
						c6.493-9.289,11.839-19.206,14.744-30.211C384.652,694.262,379.83,692.938,379.008,696.053L379.008,696.053z"/>
				</g>
			</g>
			<g>
				<g>
					<path fill="#4D2B00" d="M328.832,377.322c-3.146,9.953-28.894,48.19-5.25,50.292c0.855,0.076,1.744-0.53,2.158-1.238
						c4.771-8.146,6.109-17.245,7.764-26.388c2.133-11.787,6.482-21.549,15.941-29.267c-1.01,0.13-2.02,0.261-3.029,0.392
						c21.822,9.462-28.959,39.903-4.538,52.221c1.247,0.629,2.662,0.311,3.421-0.896c3.698-5.885,7.018-11.984,10.415-18.046
						c2.542-4.536,5.763-8.822,7.538-13.732c3.144-8.692,3.502-17.116,13.112-21.296c-0.841,0-1.683,0-2.523,0
						c11.815,6.465,0.755,18.711-4.57,25.996c-5.319,7.277-13.66,17.598-8.427,26.978c0.518,0.929,1.788,1.507,2.822,1.149
						c10.408-3.602,12.893-12.508,14.636-22.396c2.144-12.16,8.663-25.211,18.028-33.267c-1.393-0.367-2.785-0.735-4.178-1.103
						c1.005,3.043,0.24,6.966-0.028,10.076c-0.487,5.636-1.205,11.25-1.753,16.879c-0.58,5.964-3.347,19.358,2.863,23.474
						c3.019,2,7.508-0.806,9.639-2.882c3.561-3.47,4.51-9.036,5.107-13.726c0.537-4.209-0.086-8.603,0.588-12.765
						c1.59-9.834,7.329-17.386,14.177-24.33c-1.309-0.168-2.617-0.337-3.927-0.506c4.33,7.533-1.646,16.667-3.057,24.312
						c-1.758,9.515-1.048,19.195,1.088,28.569c0.308,1.349,1.801,2.066,3.076,1.746c25.714-6.479,6.55-46.771,26.105-58.834
						c-0.841,0-1.683,0-2.523,0c18.005,13.628-11.09,38.061,2.617,53.493c2.146,2.415,5.668-1.134,3.535-3.535
						c-6.182-6.96,1.126-20.507,3.121-27.978c2.677-10.026,2.01-19.667-6.75-26.297c-0.678-0.514-1.836-0.425-2.523,0
						c-9.761,6.02-11.388,18.055-12.542,28.514c-1.067,9.679-0.389,26.796-12.37,29.814c1.025,0.582,2.051,1.164,3.076,1.746
						c-2.324-10.199-2.822-21.008,0.202-31.122c2.294-7.672,5.616-15.376,1.263-22.952c-0.801-1.393-2.8-1.648-3.927-0.506
						c-8.42,8.538-15.555,18.498-15.753,30.9c-0.075,4.662-0.166,9.302-1.241,13.862c-0.519,2.199-1.387,4.338-2.878,6.057
						c-0.818,0.943-3.449,2.32-3.7,1.942c-1.56-2.353-1.006-6.651-0.941-9.289c0.123-4.965,0.676-9.924,1.202-14.858
						c0.735-6.896,3.326-16.318,1.074-23.136c-0.615-1.863-2.726-2.352-4.178-1.103c-9.537,8.202-13.521,19.037-18.07,30.355
						c-3.582,8.911-1.168,20.14-12.387,24.021c0.94,0.383,1.882,0.767,2.822,1.149c-4.335-7.771,5.927-18.495,10.118-24.245
						c4.519-6.199,11.471-14.92,8.392-23.135c-1.099-2.93-5.141-7.729-8.567-7.729c-5.67,0-10.854,7.514-12.806,12.008
						c-2.15,4.948-2.514,10.592-5.082,15.351c-5.064,9.386-10.557,18.817-16.234,27.851c1.141-0.299,2.281-0.598,3.421-0.896
						c-17.965-9.062,31.911-40.353,4.538-52.223c-1.134-0.491-2.063-0.396-3.029,0.392c-8.531,6.96-13.614,15.78-16.188,26.406
						c-2.487,10.271-2.833,20.927-8.299,30.26c0.719-0.413,1.438-0.825,2.158-1.238c-14.186-1.261,7.992-37.384,10.072-43.964
						C334.628,375.568,329.801,374.259,328.832,377.322L328.832,377.322z"/>
				</g>
			</g>
			<g>
				<g>
					<path fill="#4D2B00" d="M641.042,365.354c-18.343,14.817-40.473,47.031-19.039,68.096c0.865,0.851,1.982,0.863,3.029,0.392
						c11.506-5.186,13.409-18.974,15.61-29.973c1.229-6.135,2.568-12.452,6.131-17.708c4.29-6.328,12.144-7.22,19.162-6.688
						c-0.833-0.833-1.667-1.667-2.5-2.5c0.99,10.775-3.091,20.131-7.063,29.88c-3.857,9.471-5.858,18.857-3.953,29.038
						c0.185,0.984,1.39,1.962,2.411,1.835c11.692-1.449,15.604-10.942,18.525-21.099c1.551-5.39,3.02-10.825,6.167-15.541
						c4.207-6.302,11.675-7.893,18.793-7.818c-0.804-1.055-1.607-2.109-2.41-3.164c-0.592,3.999-3.384,7.981-5.235,11.482
						c-3.104,5.872-6.223,11.735-8.925,17.807c-3.197,7.184-9.824,22.041-0.907,27.928c9.266,6.116,16.619-5.748,21.319-12.235
						c4.276-5.901,8.239-12.022,12.543-17.906c3.035-4.15,6.99-10.231,12.031-12.175c-1.025-0.582-2.051-1.164-3.076-1.746
						c6.269,17.762-13.268,24.844-19.533,38.666c-3.243,7.153-1.129,15.24,2.239,21.968c2.443,4.881,7.275,7.083,12.09,4.046
						c5.463-3.445,8.955-10.341,11.985-15.795c3.044-5.479,5.39-11.781,9.318-16.705c2.658-3.332,5.422-6.597,8.437-9.613
						c1.051-1.051,3.44-3.421,4.549-3.482c-0.702,0.039-0.931-0.932-0.706-0.136c0.178,0.625,0.123,1.318,0.112,1.959
						c-0.044,2.451-0.567,4.896-1.06,7.286c-1.681,8.171-4.096,16.182-6.119,24.271c-1.378,5.507-3.976,12.889-2.348,18.599
						c0.882,3.095,5.707,1.777,4.82-1.33c-2.262-7.937,17.896-54.794,5.3-55.648c-4.56-0.31-9.319,6.119-11.863,8.987
						c-4.738,5.339-8.095,10.618-11.357,16.899c-3.338,6.425-6.651,13.326-11.637,18.661c-6.335,6.777-8.86-3.982-10.13-9.163
						c-2.467-10.055,7.646-17.583,13.623-23.988c7.162-7.676,10.739-16.5,7.102-26.811c-0.418-1.183-1.739-2.262-3.076-1.746
						c-9.538,3.679-15.867,15.496-21.346,23.457c-3.561,5.175-7.044,10.441-11.104,15.244c-2.127,2.516-4.938,6.378-8.538,4.753
						c-8.361-3.772,1.899-22.458,4.242-27.282c2.511-5.17,5.281-10.209,7.939-15.303c1.535-2.941,3.637-6.277,4.13-9.619
						c0.236-1.592-0.638-3.146-2.41-3.164c-13.459-0.142-22.52,6.104-27.175,18.603c-3.396,9.116-4.159,24.35-16.311,25.855
						c0.804,0.612,1.607,1.224,2.411,1.835c-3.845-20.532,13.074-37.111,11.193-57.588c-0.132-1.439-1.042-2.39-2.5-2.5
						c-6.812-0.516-14.112,0.266-19.533,4.826c-4.799,4.039-7.229,9.865-8.875,15.773c-3.139,11.262-2.594,28.853-15.019,34.451
						c1.01,0.131,2.02,0.262,3.029,0.392c-19.188-18.858,3.067-48.124,19.039-61.025
						C647.086,366.863,643.525,363.348,641.042,365.354L641.042,365.354z"/>
				</g>
			</g>
		</g>
	</g>
	<g>
		<linearGradient id="SVGID_3_" gradientUnits="userSpaceOnUse" x1="785.6357" y1="960.9941" x2="1054.807" y2="1000.8047">
			<stop  offset="0" style="stop-color:#B88D50"/>
			<stop  offset="1" style="stop-color:#A17C46"/>
		</linearGradient>
		<polygon fill="url(#SVGID_3_)" stroke="#000000" stroke-width="2.2894" stroke-linejoin="round" stroke-miterlimit="10" points="
			1023.885,963.139 991.209,978.799 987.063,1023.879 1023.885,1023.879 		"/>
		<linearGradient id="SVGID_4_" gradientUnits="userSpaceOnUse" x1="757.9131" y1="976.5693" x2="1026.5774" y2="960.1489">
			<stop  offset="0" style="stop-color:#B88D50"/>
			<stop  offset="1" style="stop-color:#A17C46"/>
		</linearGradient>
		<polygon fill="url(#SVGID_4_)" stroke="#000000" stroke-width="2.2894" stroke-linejoin="round" stroke-miterlimit="10" points="
			921.271,1012.295 968.592,989.645 991.209,978.799 1023.885,963.139 1023.885,904.498 765.145,1023.879 897.08,1023.879 		"/>
		<linearGradient id="SVGID_5_" gradientUnits="userSpaceOnUse" x1="4.6084" y1="942.1602" x2="153.3134" y2="1050.0908">
			<stop  offset="0" style="stop-color:#6B382A"/>
			<stop  offset="1" style="stop-color:#AA6A55"/>
		</linearGradient>
		<polygon fill="url(#SVGID_5_)" stroke="#000000" stroke-width="2.2894" stroke-linejoin="round" stroke-miterlimit="10" points="
			-0.115,946.203 -0.115,970.719 104.84,1023.879 161.271,1023.879 		"/>
		<linearGradient id="SVGID_6_" gradientUnits="userSpaceOnUse" x1="-1.8271" y1="1007.6416" x2="86.1774" y2="990.8516">
			<stop  offset="0" style="stop-color:#B38C53"/>
			<stop  offset="1" style="stop-color:#C99D5D"/>
		</linearGradient>
		<polygon fill="url(#SVGID_6_)" stroke="#000000" stroke-width="2.2894" stroke-linejoin="round" stroke-miterlimit="10" points="
			-0.115,970.73 -0.115,1023.879 104.82,1023.879 		"/>
		<linearGradient id="SVGID_7_" gradientUnits="userSpaceOnUse" x1="-1.2207" y1="866.9922" x2="356.2226" y2="872.5336">
			<stop  offset="0" style="stop-color:#B38C53"/>
			<stop  offset="1" style="stop-color:#CA9E5E"/>
		</linearGradient>
		<path fill="url(#SVGID_7_)" stroke="#000000" stroke-width="2.2894" stroke-linejoin="round" stroke-miterlimit="10" d="
			M401.133,1009.432c-10.168-44.109-25.449-84.91-44.895-121.178c-25.213-47.078-57.416-86.514-94.535-115.578
			c-44.996-35.234-97.189-55.264-152.895-55.264c-44.785,0-83.371,31.854-108.924,78.284v92.762l0.539-0.204
			c5.324-70.238,44.826-138.059,98.832-139.148c5.25-0.102,10.506,0.068,15.791,0.475h0.17
			c57.348,4.713,116.334,40.225,162.148,93.887c25.891,30.361,47.586,66.521,62.395,106.229
			c8.822,23.643,15.227,48.526,18.575,74.184h45.9C403.255,1019.03,402.236,1014.205,401.133,1009.432z"/>
		<linearGradient id="SVGID_8_" gradientUnits="userSpaceOnUse" x1="3.4951" y1="998.8213" x2="217.1327" y2="945.124">
			<stop  offset="0" style="stop-color:#6B382A"/>
			<stop  offset="1" style="stop-color:#AA6A55"/>
		</linearGradient>
		<polygon fill="url(#SVGID_8_)" stroke="#000000" stroke-width="2.2894" stroke-linejoin="round" stroke-miterlimit="10" points="
			-0.115,919.451 -0.115,946.203 161.271,1023.879 223.189,1023.879 		"/>
		<linearGradient id="SVGID_9_" gradientUnits="userSpaceOnUse" x1="155.6279" y1="751.543" x2="839.0035" y2="601.5894">
			<stop  offset="0" style="stop-color:#FECA76"/>
			<stop  offset="1" style="stop-color:#EEB666"/>
		</linearGradient>
		<path fill="url(#SVGID_9_)" stroke="#000000" stroke-width="2.2894" stroke-linejoin="round" stroke-miterlimit="10" d="
			M894.289,613.635L261.703,772.676c-44.996-35.234-97.189-55.264-152.895-55.264l672.049-133.594
			C815.619,583.818,855.572,594.428,894.289,613.635z"/>
		<linearGradient id="SVGID_10_" gradientUnits="userSpaceOnUse" x1="314.2012" y1="828.7539" x2="958.2773" y2="618.1316">
			<stop  offset="0" style="stop-color:#F7C573"/>
			<stop  offset="1" style="stop-color:#DFAB60"/>
		</linearGradient>
		<path fill="url(#SVGID_10_)" stroke="#000000" stroke-width="2.2894" stroke-linejoin="round" stroke-miterlimit="10" d="
			M987.115,680.879L356.238,888.254c-25.213-47.078-57.416-86.514-94.535-115.578l632.586-159.041
			C927.48,630.117,959.791,652.938,987.115,680.879z"/>
		<linearGradient id="SVGID_11_" gradientUnits="userSpaceOnUse" x1="375.1211" y1="950.1709" x2="1016.6567" y2="711.1078">
			<stop  offset="0" style="stop-color:#EABB6E"/>
			<stop  offset="1" style="stop-color:#D3A25B"/>
		</linearGradient>
		<path fill="url(#SVGID_11_)" stroke="#000000" stroke-width="2.2894" stroke-linejoin="round" stroke-miterlimit="10" d="
			M987.115,680.879L356.238,888.254c19.445,36.268,34.727,77.068,44.895,121.178l622.752-239.316v-43.668
			C1013.199,710.09,1000.781,694.848,987.115,680.879z"/>
		<linearGradient id="SVGID_12_" gradientUnits="userSpaceOnUse" x1="417.2383" y1="1051.0039" x2="1043.1625" y2="794.0294">
			<stop  offset="0" style="stop-color:#DCB068"/>
			<stop  offset="1" style="stop-color:#C49754"/>
		</linearGradient>
		<path fill="url(#SVGID_12_)" stroke="#000000" stroke-width="2.2894" stroke-linejoin="round" stroke-miterlimit="10" d="
			M1023.885,840.879v-70.764l-622.752,239.316c1.104,4.773,2.122,9.599,3.103,14.447h196.438L1023.885,840.879z"/>
		<linearGradient id="SVGID_13_" gradientUnits="userSpaceOnUse" x1="1017.3115" y1="836.3584" x2="733.1288" y2="1067.328">
			<stop  offset="0" style="stop-color:#6B382A"/>
			<stop  offset="1" style="stop-color:#AA6A55"/>
		</linearGradient>
		<polygon fill="url(#SVGID_13_)" stroke="#000000" stroke-width="2.2894" stroke-linejoin="round" stroke-miterlimit="10" points="
			1023.885,904.498 1023.885,876.574 696.178,1023.879 765.145,1023.879 		"/>
		<linearGradient id="SVGID_14_" gradientUnits="userSpaceOnUse" x1="-12.4443" y1="844.1748" x2="129.8958" y2="981.9744">
			<stop  offset="0" style="stop-color:#7E695C"/>
			<stop  offset="1" style="stop-color:#C8A892"/>
		</linearGradient>
		<polygon fill="url(#SVGID_14_)" stroke="#000000" stroke-width="2.2894" stroke-linejoin="round" stroke-miterlimit="10" points="
			-0.115,914.75 -0.115,919.451 223.189,1023.879 238.609,1023.879 		"/>
		<linearGradient id="SVGID_15_" gradientUnits="userSpaceOnUse" x1="1019.1855" y1="994.127" x2="664.8613" y2="889.2615">
			<stop  offset="0" style="stop-color:#6B382A"/>
			<stop  offset="1" style="stop-color:#AA6A55"/>
		</linearGradient>
		<polygon fill="url(#SVGID_15_)" stroke="#000000" stroke-width="2.2894" stroke-linejoin="round" stroke-miterlimit="10" points="
			1023.885,876.574 1023.885,848.951 624.49,1023.879 696.178,1023.879 		"/>
		<linearGradient id="SVGID_16_" gradientUnits="userSpaceOnUse" x1="1014.5518" y1="800.0166" x2="692.6993" y2="1017.0499">
			<stop  offset="0" style="stop-color:#7E695C"/>
			<stop  offset="1" style="stop-color:#C8A892"/>
		</linearGradient>
		<polygon fill="url(#SVGID_16_)" stroke="#000000" stroke-width="2.2894" stroke-linejoin="round" stroke-miterlimit="10" points="
			1023.885,848.951 1023.885,840.879 600.673,1023.879 624.49,1023.879 		"/>
		<linearGradient id="SVGID_17_" gradientUnits="userSpaceOnUse" x1="978.4863" y1="976.1309" x2="978.6113" y2="1016.1854">
			<stop  offset="0" style="stop-color:#C29756"/>
			<stop  offset="1" style="stop-color:#E8B467"/>
		</linearGradient>
		<polygon fill="url(#SVGID_17_)" stroke="#000000" stroke-width="2.2894" stroke-linejoin="round" stroke-miterlimit="10" points="
			991.209,978.799 968.592,989.645 965.92,1023.879 987.063,1023.879 		"/>
		<linearGradient id="SVGID_18_" gradientUnits="userSpaceOnUse" x1="899.3799" y1="1020.3047" x2="920.1894" y2="1018.1587">
			<stop  offset="0" style="stop-color:#B88D50"/>
			<stop  offset="0.3858" style="stop-color:#B2884D"/>
			<stop  offset="0.9844" style="stop-color:#A17C46"/>
			<stop  offset="1" style="stop-color:#A17C46"/>
		</linearGradient>
		<polygon fill="url(#SVGID_18_)" stroke="#000000" stroke-width="2.2894" stroke-linejoin="round" stroke-miterlimit="10" points="
			921.271,1012.295 897.08,1023.879 920.508,1023.879 		"/>
		<linearGradient id="SVGID_19_" gradientUnits="userSpaceOnUse" x1="932.9297" y1="1017.2979" x2="964.2722" y2="1007.6788">
			<stop  offset="0" style="stop-color:#B88D50"/>
			<stop  offset="0.3858" style="stop-color:#B2884D"/>
			<stop  offset="0.9844" style="stop-color:#A17C46"/>
			<stop  offset="1" style="stop-color:#A17C46"/>
		</linearGradient>
		<polygon fill="url(#SVGID_19_)" stroke="#000000" stroke-width="2.2894" stroke-linejoin="round" stroke-miterlimit="10" points="
			968.592,989.645 921.271,1012.295 920.508,1023.879 965.92,1023.879 		"/>
		
			<line fill="none" stroke="#000000" stroke-width="2.2894" stroke-linejoin="round" stroke-miterlimit="10" x1="401.133" y1="1009.432" x2="401.1" y2="1009.432"/>
		
			<line fill="none" stroke="#000000" stroke-width="2.2894" stroke-linejoin="round" stroke-miterlimit="10" x1="356.238" y1="888.254" x2="356.205" y2="888.254"/>
		<linearGradient id="SVGID_20_" gradientUnits="userSpaceOnUse" x1="123.6738" y1="817.5557" x2="216.393" y2="788.9387">
			<stop  offset="0" style="stop-color:#B38C53"/>
			<stop  offset="1" style="stop-color:#E6B36A"/>
		</linearGradient>
		<path fill="url(#SVGID_20_)" stroke="#000000" stroke-width="2.2894" stroke-linejoin="round" stroke-miterlimit="10" d="
			M277.365,843.467l-207.828-76.25c13.443-10.777,28.861-17.258,45.51-17.637h0.17C172.564,754.293,231.551,789.805,277.365,843.467
			z"/>
		<linearGradient id="SVGID_21_" gradientUnits="userSpaceOnUse" x1="-19.6709" y1="880.1172" x2="108.8574" y2="747.2159">
			<stop  offset="0" style="stop-color:#FECA76"/>
			<stop  offset="1" style="stop-color:#A17C46"/>
		</linearGradient>
		<path fill="url(#SVGID_21_)" stroke="#000000" stroke-width="2.2894" stroke-linejoin="round" stroke-miterlimit="10" d="
			M99.256,749.105c-54.006,1.09-93.508,68.91-98.832,139.148l14.842-6.785c1.705-21.082,7.131-42.201,15.486-61.166
			c9.451-21.527,22.752-40.293,38.752-53.086h0.033c13.443-10.777,28.861-17.258,45.51-17.637
			C109.762,749.174,104.506,749.004,99.256,749.105z"/>
		<linearGradient id="SVGID_22_" gradientUnits="userSpaceOnUse" x1="76.1211" y1="900.2051" x2="232.6416" y2="849.3566">
			<stop  offset="0" style="stop-color:#B38C53"/>
			<stop  offset="1" style="stop-color:#E6B36A"/>
		</linearGradient>
		<path fill="url(#SVGID_22_)" stroke="#000000" stroke-width="2.2894" stroke-linejoin="round" stroke-miterlimit="10" d="
			M339.76,949.695L30.752,820.303c9.451-21.527,22.752-40.293,38.752-53.086h0.033l207.828,76.25
			C303.256,873.828,324.951,909.988,339.76,949.695z"/>
		<linearGradient id="SVGID_23_" gradientUnits="userSpaceOnUse" x1="153.4902" y1="983.0508" x2="220.8387" y2="883.0463">
			<stop  offset="0" style="stop-color:#B38C53"/>
			<stop  offset="1" style="stop-color:#E6B36A"/>
		</linearGradient>
		<path fill="url(#SVGID_23_)" stroke="#000000" stroke-width="2.2894" stroke-linejoin="round" stroke-miterlimit="10" d="
			M339.76,949.695L30.752,820.303c-8.355,18.965-13.781,40.084-15.486,61.166l336.86,142.41h6.209
			C354.986,998.222,348.582,973.338,339.76,949.695z"/>
		<linearGradient id="SVGID_24_" gradientUnits="userSpaceOnUse" x1="174.873" y1="959.3682" x2="178.2499" y2="951.4128">
			<stop  offset="0" style="stop-color:#FECA76"/>
			<stop  offset="1" style="stop-color:#CBA360"/>
		</linearGradient>
		<polygon fill="url(#SVGID_24_)" stroke="#000000" stroke-width="2.2894" stroke-linejoin="round" stroke-miterlimit="10" points="
			15.266,881.469 0.424,888.254 322.911,1023.879 352.126,1023.879 		"/>
		<linearGradient id="SVGID_25_" gradientUnits="userSpaceOnUse" x1="-1.1338" y1="954.1963" x2="283.7821" y2="958.6133">
			<stop  offset="0" style="stop-color:#B38C53"/>
			<stop  offset="1" style="stop-color:#CA9E5E"/>
		</linearGradient>
		<polygon fill="url(#SVGID_25_)" stroke="#000000" stroke-width="2.2894" stroke-linejoin="round" stroke-miterlimit="10" points="
			0.424,888.254 -0.115,888.458 -0.115,914.75 238.609,1023.879 322.911,1023.879 		"/>
		
			<line fill="none" stroke="#000000" stroke-width="2.2894" stroke-linejoin="round" stroke-miterlimit="10" x1="30.752" y1="820.303" x2="30.719" y2="820.303"/>
		
			<line fill="none" stroke="#000000" stroke-width="2.2894" stroke-linejoin="round" stroke-miterlimit="10" x1="277.432" y1="843.496" x2="277.365" y2="843.467"/>
	</g>
	<g>
		<path fill="#4D2B00" d="M510.665,644.729c6.795-2.967,13.763-5.719,20.753-8.414c0.021-0.008,0.043-0.02,0.067-0.029
			c0.291-0.613,0.556-1.225,0.796-1.83c2.365-5.949,2.346-13.328,1.238-19.244c-1.21-6.45-7.75-11.428-17.093-11.963
			c-8.961-0.511-19.995,4.127-22.967,10.695c-6.445,3.295-12.5,7.654-16.627,12.342c-4.442,2.127-7.17,5.127-10.012,8.713
			c-2.647,3.342-2.54,7.852-0.659,11.459c0.008,0.109,0.001,0.217,0.011,0.324c0.334,3.305,2.146,6.113,4.866,8.299
			c13.154-2.119,26.376-6.842,39.053-10.197C510.282,644.832,510.474,644.779,510.665,644.729z"/>
		
			<linearGradient id="SVGID_26_" gradientUnits="userSpaceOnUse" x1="726.5459" y1="788.748" x2="743.9517" y2="521.4635" gradientTransform="matrix(1.0871 0.0665 -0.1762 0.9091 -204.1694 -98.25)">
			<stop  offset="0" style="stop-color:#D4897F"/>
			<stop  offset="0.2098" style="stop-color:#D88E80"/>
			<stop  offset="0.4835" style="stop-color:#E19D81"/>
			<stop  offset="0.7915" style="stop-color:#F4B882"/>
			<stop  offset="0.8619" style="stop-color:#FDC283"/>
		</linearGradient>
		<path fill="url(#SVGID_26_)" d="M572.434,577.258c-6.939-6.299-14.782-5.98-25.176-6.379c-7.699-0.297-9.354-5.083-12.124-9.583
			c-2.58-4.19-2.534-7.817-0.135-12.376c4.971-9.431,12.055-19.023,18.193-28.187c-0.113-0.044-0.19-0.017-0.237,0.075
			c0.629-2.941,9.943-10.85,12.173-13.721c3.177-4.089,6.389-8.189,9.289-12.368c6.632-9.561,11.563-19.606,13.329-29.968
			c1.389-8.145-6.872-18.398-17.323-20.813c-13.113-3.03-27.575,3.924-37.164,10.664c-7.996,5.619-11.997,15.847-24.299,17.466
			c-2.894,0.378-5.791,0.034-8.343-1.419c-4.294-2.449-3.909-6.319-10.674-6.047c-3.991,0.16-9.75,2.529-13.239,4.098
			c-7.977,3.584-13.714,9.264-19.359,14.526c-2,2.373-3.928,4.759-5.699,7.188c0.07,0.15,0.135,0.301,0.217,0.451
			c4.801,8.789,14.459,16.311,12.763,26.693c-1.317,8.037-8.358,14.895-14.674,21.617c-2.009,2.137-17.825,20.328-16.804,20.664
			c-5.239-1.73-10.822-3.094-16.834-3.982c-2.121-0.313-4.344-0.498-6.612-0.555c-3.646-0.679-7.537-0.918-11.623-0.608
			c-8.354,0.628-15.138,4.552-20.5,9.29c-2.003,1.373-3.967,2.827-5.736,4.357l-0.334,0.406c-0.132,0.081-0.336,0.235-0.618,0.469
			c-0.477,0.379-0.918,0.773-1.353,1.174c-21.703,20.202-13.282,48.639,2.275,66.855c16.396,19.199,50.956,27.918,83.052,20.93
			c10.191-2.219,20.554-6.836,23.355-14.576c1.43-3.961,1.276-8.045,2.04-12.041c0.71-3.732,1.714-9.82,4.841-13.104
			c3.576-3.756,11.346-7.488,17.085-9.076c4.659-1.292,13.473-1.569,15.992,2.121c3.549,5.203,3.726,12.176,1.619,18.014
			c-1.021,2.832-2.349,10.496,5.508,8.217c3.394-0.984,5.978-3.102,9.404-3.633c6.097-0.945,10.969-0.496,16.47-3.422
			c4.528-2.414,8.634-5.992,11.381-9.48c5.909-7.498,9.09-15.833,12.874-23.838C578.846,590.135,578.88,583.108,572.434,577.258z"/>
		<g>
			<path fill="#AD6D68" d="M472.612,634.43c-8.084-2.023-18.647-0.797-27.376-1.016c-2.007,0.031-4.015,0.096-6.025,0.193
				c-0.554,0.025-0.934,0.041-1.182,0.051c-2.318,0.072-4.631,0.113-6.947,0.139c-4.8,0.047-9.282-0.418-13.913-1.045
				c-14.185-1.928-30.338-5.877-42.415-12.234c-2.552-1.344-6.058,0.471-5.938,2.631c0.833,15.102,18.506,22.686,36.054,27.742
				c8.732,2.516,18.329,4.301,27.459,6.15c5.645,1.146,11.531,1.629,17.421,2.098c5.32,0.422,11.736,1.371,17.098,0.297
				c8.138-1.629,14.803-5.521,16.262-11.742C484.463,641.914,480.086,636.303,472.612,634.43z"/>
			<path fill="#AD6D68" d="M550.087,613.68c-8.446,0.217-15.206,3.615-21.313,7.936c-3.855,2.729-13.475,9.418-8.019,13.359
				c4.943,3.568,12.341,1.486,18.357-0.502c7.133-2.355,15.556-5.918,18.381-11.428C559.523,619.096,556.871,613.508,550.087,613.68
				z"/>
			<path fill="#AD6D68" d="M448.485,592.436c1.586-5.119,5.491-10.207,8.497-14.838c3.403-5.248,9.124-8.551,13.868-13.127
				c4.604-4.445,8.336-9.92,11.84-14.796c3.771-5.248,6.643-10.682,8.161-16.368c0.854-3.188,1.729-6.629,1.811-9.834
				c0.281-11.658-11.758-17.138-21.109-24.623c-4.391-3.517-2.764-7.44,1-11.488c2.468-2.652,5.624-5.229,8.828-7.447
				c1.273-0.881,2.589-1.704,3.948-2.516c1.272-0.756,1.701-1.99,2.896-2.799c0.213-0.145,0.191-0.463-0.156-0.456
				c-3.598,0.075-5.005-0.241-8.657,0.788c-3.768,1.065-7.294,2.711-10.648,4.363c-6.595,3.244-11.301,8.813-13.355,14.063
				c-4.184,10.695,6.127,17.014,10.196,25.79c1.199,2.583,0.283,8.926-1.316,12.353c-2.677,5.745-7.285,11.023-11.267,16.398
				c-4.065,5.492-8.662,10.89-11.249,16.771c-3.202,7.276-5.675,14.602-1.042,21.073c1.083,1.512,1.843,3.344,1.844,5.127
				c-0.003,2.58-0.739,6.387,2.848,8.209c0.467,0.236,0.987,0.379,1.529,0.439c0.267-0.514,0.575-1.02,0.874-1.527
				C447.638,596.146,447.912,594.29,448.485,592.436z"/>
		</g>
		<path fill="#AD6D68" d="M527.981,576.801c-9.668-1.221-20.785,1.813-28.967,6.033c-0.662,0.344-0.162,0.947,0.5,0.903
			c7.43-0.496,15.396,0.101,22.43,1.296c3.455,0.583,6.681,1.057,9.581,2.494c3.028,1.506,3.804,3.93,5.714,6.092
			c2.732,3.096,8.945,0.701,10.05-2.315C550.403,582.783,537.354,577.985,527.981,576.801z"/>
	</g>
	<g id="Nose_7_">
		<g>
			<g>
				<path fill="#A37357" d="M482.278,468.131c-9.388,4.483-18.261,8.721-26.08,15.697c-3.841,3.427-7.728,8.229-6.369,13.688
					c1.093,4.396,5.885,7.303,9.311,9.723c5.059,3.574,10.765,7.59,11.562,14.244c0.379,3.16,5.383,3.197,5,0
					c-1.342-11.197-10.797-15.282-18.437-21.897c-11.816-10.231,21.299-24.158,27.537-27.138
					C487.71,471.059,485.172,466.748,482.278,468.131L482.278,468.131z"/>
			</g>
		</g>
		<g>
			<g>
				<path fill="#A37357" d="M469.474,535.578c-7.129,3.631-10.128,9.9-15.398,15.41c-5.187,5.423-12.066,9.048-17.129,14.67
					c-9.184,10.201-0.289,24.016,4.765,34.014c1.474,2.914,5.619,0.362,4.318-2.523c-6.273-13.916-12.423-28.58-24.523-38.537
					c-14.342-11.8-35.849-10.379-49.113,2.495c-13.001,12.618-13.093,33.536-11.532,50.257c1.322,14.171,6.473,25.826,18.095,34.482
					c12.165,9.061,28.101,12.229,42.891,13.49c18.197,1.551,36.686-0.364,54.56-3.829c17.729-3.436,35.153-8.843,51.571-16.38
					c13.9-6.38,26.747-14.646,36.359-26.712c6.264-7.862,13.377-19.341,10.22-29.849c-4.025-13.395-23.229-12.151-33.837-10.848
					c0.421,1.553,0.841,3.105,1.262,4.658c3.202-1.419,4.965-4.572,7.79-6.521c2.635-1.817,0.138-6.153-2.523-4.316
					c-2.762,1.905-4.732,5.165-7.79,6.521c-2.219,0.983-1.169,4.957,1.262,4.658c8.044-0.988,19.488-2.45,26.301,3.221
					c4.603,3.831,3.481,10.287,1.745,15.255c-4.895,14-17.404,25.072-29.741,32.504c-14.93,8.993-31.671,14.956-48.449,19.426
					c-18.252,4.861-37.145,7.656-56.046,7.711c-16.091,0.047-33.123-1.985-47.466-9.759c-13.307-7.212-19.753-18.979-21.202-33.713
					c-1.774-18.024-1.31-40.745,16.024-51.322c8.781-5.358,20.553-6.185,29.856-1.817c7.893,3.706,13.705,10.793,18.295,17.988
					c4.716,7.394,8.084,15.493,11.675,23.46c1.439-0.841,2.879-1.683,4.318-2.523c-3.05-6.031-6.458-12.185-7.967-18.826
					c-1.028-4.523,1.012-7.814,4.117-10.909c4.749-4.734,10.462-8.406,15.432-12.889c5.343-4.819,7.552-11.148,14.386-14.63
					C474.871,538.432,472.34,534.117,469.474,535.578L469.474,535.578z"/>
			</g>
		</g>
		<g>
			<g>
				<path fill="#A37357" d="M553.542,517.137c-1.271,1.32-2.489,2.63-4.008,3.684c1.01,1.309,2.02,2.617,3.029,3.926
					c14.001-17.782,32.009-41.744,28.519-65.918c-4.416-30.594-44.854-41.993-70.859-37.801c-3.177,0.512-1.823,5.329,1.33,4.82
					c23.606-3.805,62.252,6.94,64.812,35.518c1.961,21.889-14.615,43.688-27.336,59.846c-1.61,2.044,0.495,5.685,3.029,3.926
					c1.874-1.299,3.438-2.822,5.02-4.465C559.313,518.35,555.781,514.811,553.542,517.137L553.542,517.137z"/>
			</g>
		</g>
		<g>
			<g>
				<path fill="#A37357" d="M520.85,641.209c2.358-10.621,6.783-35.832-11.078-34.931c-4.738,0.239-9.297,2.433-13.412,4.611
					c-6.086,3.223-13.516,7.462-17.74,12.992c-5.811,7.607-4.039,22.851,2.47,29.478c2.262,2.304,5.796-1.234,3.535-3.535
					c-6.089-6.2-6.116-20.396,0.876-25.756c6.958-5.334,16.382-12.845,25.674-12.824c11.435,0.023,6.187,22.633,4.854,28.637
					C515.33,643.021,520.15,644.356,520.85,641.209L520.85,641.209z"/>
			</g>
		</g>
	</g>
</g>
<g id="WhisperFace_1_">
	<g id="WhisperFace" opacity="0.9">
	</g>
</g>
<g id="FakeSmile">
</g>
</svg>
