<?xml version="1.0" encoding="utf-8"?>
<!-- Generator: Adobe Illustrator 16.0.0, SVG Export Plug-In . SVG Version: 6.00 Build 0)  -->
<!DOCTYPE svg PUBLIC "-//W3C//DTD SVG 1.1//EN" "http://www.w3.org/Graphics/SVG/1.1/DTD/svg11.dtd">
<svg version="1.1" xmlns="http://www.w3.org/2000/svg" xmlns:xlink="http://www.w3.org/1999/xlink" x="0px" y="0px" width="1024px"
	 height="1024px" viewBox="0 0 1024 1024" enable-background="new 0 0 1024 1024" xml:space="preserve">
<g id="Layer_10">
	<g opacity="0.66">
		
			<path fill="#010101" stroke="#BA7D2B" stroke-width="1.8253" stroke-linecap="round" stroke-linejoin="round" stroke-miterlimit="10" d="
			M601.332,91.964h319.427c0,18.472,14.972,33.444,33.442,33.444v145.587c-18.471,0-33.442,14.971-33.442,33.438H601.332
			c0-18.468-14.971-33.438-33.439-33.438V125.407C586.361,125.407,601.332,110.435,601.332,91.964z"/>
		<g>
			<path fill="#B97D2B" d="M892.313,157.582h-24.068c-0.603,0-1.205,0.069-1.793,0.204c-0.587-0.135-1.189-0.204-1.792-0.204
				h-30.811c-1.4,0-2.728,0.359-3.883,1.001c-1.156-0.642-2.482-1.001-3.884-1.001h-22.19c-1.254,0-2.461,0.29-3.541,0.823
				c-1.081-0.533-2.288-0.823-3.543-0.823h-28.592c-1.716,0-3.304,0.548-4.608,1.472c-1.305-0.924-2.893-1.472-4.608-1.472H706.51
				c-1.601,0-3.089,0.478-4.341,1.29c-1.164-0.662-2.507-1.045-3.938-1.045h-28.592c-2.044,0-3.923,0.762-5.346,2.038
				c-1.455-1.417-3.437-2.283-5.578-2.283h-28.934c-4.411,0-8,3.589-8,8v10.365c0,2.413,1.071,4.671,2.938,6.195
				c0.961,0.785,2.091,1.332,3.289,1.604c0.002,0.41,0.003,0.857,0.003,1.345c0,2.829-0.019,4.132-0.032,4.709
				c-0.074,0.239-0.143,0.33-0.161,0.345c-1.916,1.51-3.028,3.774-3.05,6.214c-0.021,2.44,1.051,4.725,2.883,6.211
				c0.002,0.002,0.14,0.189,0.27,0.771c0.014,0.209,0.032,0.582,0.05,1.223c0.027,1.007,0.041,2.358,0.041,4.059
				c0,0.846-0.003,1.574-0.007,2.2c-1.193,0.272-2.318,0.816-3.276,1.596c-1.873,1.526-2.947,3.787-2.947,6.203v10.364
				c0,4.411,3.589,8,8,8h19.971c0.806,0,1.595-0.118,2.348-0.35c0.754,0.231,1.542,0.35,2.348,0.35h10.754
				c0.893,0,1.771-0.149,2.604-0.436c0.831,0.286,1.711,0.436,2.604,0.436h27.822c1.517,0,2.93-0.432,4.14-1.168
				c1.21,0.736,2.623,1.168,4.14,1.168h52.233c1.773,0,3.408-0.587,4.736-1.567c1.328,0.98,2.963,1.567,4.736,1.567h22.873
				c1.213,0,2.392-0.279,3.456-0.79c1.064,0.511,2.243,0.79,3.457,0.79h20.74c4.411,0,8-3.589,8-8v-25.729
				c0.044-0.086,0.097-0.186,0.16-0.3c0.012-0.019,0.024-0.038,0.035-0.056c1.305-1.003,2.279-2.396,2.771-3.974
				c0.453,1.453,1.315,2.754,2.479,3.738c0.06,0.096,0.131,0.213,0.213,0.354c0.073,0.126,0.137,0.237,0.189,0.334v12.949
				c0,9.298,5.01,16.325,14.096,19.784c4.713,1.809,10.415,2.726,16.949,2.726c26.248,0,29.082-16.424,29.082-23.485v-12.24
				c0.019-0.035,0.095-0.163,0.111-0.188c1.415-1.089,2.445-2.642,2.887-4.386c0.759-3.002-0.292-6.184-2.681-8.145
				c-0.04-0.085-0.122-0.292-0.205-0.692c-0.021-0.199-0.112-1.215-0.112-4.22c0-0.562,0.004-1.066,0.01-1.521
				c1.95-0.099,3.777-0.897,5.183-2.273c1.527-1.496,2.403-3.579,2.403-5.716v-10.365
				C900.313,161.171,896.724,157.582,892.313,157.582z M707.095,203.143c0.014,0.599,0.035,2.063,0.035,5.479v1.999h-0.62
				c-1.524,0-2.945,0.437-4.16,1.18c-0.771-0.469-1.623-0.806-2.513-0.994c-0.004-0.622-0.007-3.037-0.007-3.037
				c0-0.554-0.028-1.118-0.085-1.681V204.6c0-0.75,0.084-1.715,0.486-2.054c1.885-1.59,2.919-3.914,2.839-6.378
				c-0.079-2.424-1.228-4.643-3.156-6.107c-0.026-0.414-0.084-1.669-0.084-4.848c0-0.522,0.002-0.997,0.006-1.428
				c0.895-0.183,1.742-0.532,2.523-1.005c1.241,0.756,2.666,1.167,4.15,1.167c0.102,0,0.502-0.013,0.597-0.016
				c0.015,0.537,0.023,1.164,0.023,1.892c0,2.506-0.038,3.791-0.067,4.406c-2.105,1.549-3.341,4.059-3.258,6.696
				C703.883,199.405,705.117,201.7,707.095,203.143z M763.167,197.563c0.001,0.007,0.003,0.014,0.003,0.02
				c-0.047-0.031-0.089-0.069-0.137-0.1c0.044-0.025,0.083-0.059,0.127-0.086C763.165,197.453,763.161,197.508,763.167,197.563z
				 M832.556,189.849c-0.087,0.31-0.167,0.423-0.162,0.423c-1.29,1.018-2.211,2.387-2.684,3.903
				c-0.485-1.558-1.444-2.961-2.799-3.99c-0.026-0.415-0.083-1.649-0.083-4.728c0-0.568,0.003-1.082,0.008-1.545
				c1.109-0.104,2.173-0.434,3.133-0.969c0.813,0.45,1.699,0.757,2.618,0.903c0.002,0.38,0.003,0.794,0.003,1.245
				C832.59,188.025,832.57,189.306,832.556,189.849z"/>
			<g>
				<path fill="#010101" d="M698.23,161.827h-28.592c-1.956,0-3.625,1.415-3.946,3.345c-0.576,3.47-1.113,6.673-1.618,9.64
					c-0.442-3.125-0.909-6.394-1.4-9.8c-0.283-1.969-1.971-3.43-3.959-3.43h-28.934c-2.209,0-4,1.791-4,4v10.365
					c0,1.201,0.54,2.339,1.47,3.098c0.721,0.589,1.616,0.902,2.53,0.902c0.267,0,0.534-0.026,0.799-0.081
					c0.1-0.02,0.188-0.037,0.227-0.042h0.938c0.073,0,0.14,0.002,0.2,0.004c0.032,0.801,0.067,2.341,0.067,5.264
					c0,3.719-0.031,4.899-0.048,5.266c-0.374,1.738-1.128,2.503-1.67,2.93c-0.953,0.751-1.515,1.894-1.525,3.107
					c-0.011,1.213,0.53,2.366,1.47,3.133c0.818,0.669,1.358,1.73,1.648,3.242c0.017,0.164,0.054,0.62,0.083,1.688
					c0.027,1.033,0.042,2.42,0.042,4.164c0,4.243-0.065,5.678-0.098,6.114c-0.047,0.004-0.104,0.006-0.17,0.006l-0.91,0.001
					c-0.072-0.005-0.152-0.021-0.244-0.039c-0.269-0.056-0.539-0.083-0.809-0.083c-0.912,0-1.807,0.313-2.526,0.898
					c-0.933,0.76-1.474,1.898-1.474,3.102v10.364c0,2.209,1.791,4,4,4h19.971c0.877,0,1.688-0.282,2.348-0.761
					c0.664,0.481,1.479,0.761,2.348,0.761h10.754c0.983,0,1.897-0.358,2.604-0.963c0.699,0.6,1.609,0.963,2.604,0.963h27.822
					c2.209,0,4-1.791,4-4v-10.364c0-1.226-0.606-2.377-1.568-3.136c-0.711-0.561-1.607-0.854-2.507-0.854
					c-0.318,0-0.637,0.037-0.948,0.111h-0.939c-0.146,0-0.257-0.009-0.338-0.019c-0.037-0.508-0.1-1.974-0.1-6.102v-0.853
					c0-0.481-0.028-0.974-0.085-1.468V204.6c0-3.141,1.089-4.422,1.907-5.111c0.937-0.79,1.46-1.965,1.42-3.189
					c-0.04-1.224-0.639-2.362-1.625-3.089c-0.808-0.596-1.271-1.378-1.494-2.527c-0.037-0.327-0.123-1.512-0.123-5.47
					c0-2.965,0.061-4.503,0.113-5.282c0.195-0.031,0.473-0.059,0.854-0.059c0.314,0,0.665,0.019,1.04,0.056
					c0.132,0.013,0.263,0.02,0.393,0.02c0.988,0,1.947-0.366,2.687-1.036c0.836-0.758,1.313-1.835,1.313-2.964v-10.12
					C702.23,163.618,700.439,161.827,698.23,161.827z"/>
				<path fill="#010101" d="M758.999,161.582H706.51c-2.209,0-4,1.791-4,4v10.365c0,1.088,0.443,2.129,1.227,2.883
					c0.747,0.718,1.741,1.117,2.773,1.117c0.052,0,0.104-0.001,0.155-0.003c0.33-0.013,0.648-0.02,0.955-0.02
					c1.918,0,2.84,0.255,3.21,0.4c0.113,0.606,0.3,2.117,0.3,5.498c0,3.815-0.086,5.009-0.124,5.35
					c-0.255,1.292-0.804,1.787-1.31,2.101c-1.217,0.752-1.938,2.097-1.894,3.526s0.85,2.727,2.11,3.401
					c0.251,0.135,0.917,0.491,1.163,2.344c0.017,0.3,0.054,1.488,0.054,6.077v5.171c-0.034,0.33-0.073,0.604-0.113,0.828h-4.507
					c-2.209,0-4,1.791-4,4v10.364c0,2.209,1.791,4,4,4h52.233c2.209,0,4-1.791,4-4v-24.752c0-2.209-1.791-4-4-4h-11.448v-5.656
					h11.704c2.209,0,4-1.791,4-4v-24.995C762.999,163.373,761.208,161.582,758.999,161.582z M737.309,180.313h1.731
					c0.121,0.025,0.633,0.159,1.654,0.752c0.805,0.493,1.075,0.878,1.075,0.979v5.511h-4.461V180.313z M742.453,207.77
					c0,4.567-0.673,6.31-0.967,6.852h-4.178v-6.875h5.145V207.77z"/>
				<path fill="#010101" d="M892.313,161.582h-24.068c-0.645,0-1.253,0.152-1.792,0.423c-0.54-0.271-1.148-0.423-1.793-0.423
					h-30.811c-1.891,0-3.466,1.316-3.884,3.08c-0.417-1.764-1.992-3.08-3.883-3.08h-22.19c-1.538,0-2.873,0.868-3.542,2.141
					c-0.682-1.299-2.036-2.141-3.542-2.141h-28.592c-2.209,0-4,1.791-4,4v10.365c0,1.11,0.462,2.171,1.274,2.928
					c0.743,0.691,1.718,1.072,2.726,1.072c0.095,0,0.19-0.003,0.285-0.01c0.411-0.03,0.797-0.045,1.157-0.045
					c0.356,0,0.645,0.015,0.875,0.037c0.043,0.922,0.084,2.499,0.084,5.162c0,4.091-0.033,5.304-0.05,5.656
					c-0.229,1.155-0.766,1.973-1.727,2.638c-1.21,0.838-1.862,2.272-1.698,3.734c0.163,1.463,1.117,2.718,2.483,3.267
					c0.436,0.175,0.73,1.2,0.857,2.08c0.006,0.04,0.056,0.432,0.092,1.81c0.028,1.072,0.042,2.521,0.042,4.346
					c0,4.206-0.068,5.66-0.099,6.102c-0.082,0.01-0.193,0.019-0.34,0.019l-1.027-0.01c-0.31-0.075-0.623-0.111-0.936-0.111
					c-0.889,0-1.763,0.297-2.476,0.858c-0.963,0.758-1.524,1.916-1.524,3.142v10.364c0,2.209,1.791,4,4,4h22.873
					c1.475,0,2.763-0.798,3.457-1.986c0.705,1.21,2.011,1.986,3.456,1.986h20.74c2.209,0,4-1.791,4-4v-26.537
					c0.069-0.222,0.252-0.704,0.72-1.534c0.283-0.452,0.483-0.733,0.61-0.897c0.938-0.543,1.636-1.456,1.893-2.551
					c0.364-1.556-0.231-3.18-1.518-4.13c-0.809-0.599-1.273-1.381-1.497-2.529c-0.037-0.331-0.122-1.509-0.122-5.35
					c0-2.879,0.076-4.461,0.146-5.311c0.464-0.101,1.249-0.206,2.496-0.206c0.171,0,0.583,0.007,0.611,0.007
					c1.045,0,2.05-0.409,2.798-1.142c0.544-0.532,0.909-1.207,1.083-1.935c0.197,0.829,0.651,1.585,1.317,2.143
					c0.726,0.608,1.637,0.934,2.568,0.934c0.233,0,0.469-0.021,0.703-0.063c0.357-0.063,0.682-0.113,0.966-0.145
					c0.23-0.025,0.472-0.037,0.721-0.037c0.105,0,0.192,0.005,0.262,0.011c0.035,0.558,0.09,1.966,0.09,5.378
					c0,3.776-0.033,4.944-0.052,5.297c-0.286,1.375-0.833,2.365-1.667,3.023c-1.143,0.9-1.705,2.35-1.471,3.785
					c0.182,1.113,0.82,2.082,1.736,2.689c0.13,0.172,0.364,0.512,0.719,1.118c0.469,0.804,0.661,1.252,0.734,1.446v13.853
					c0,7.629,3.99,13.18,11.529,16.05c4.252,1.632,9.473,2.46,15.516,2.46c21.823,0,25.082-12.208,25.082-19.485v-13.104
					c0.049-0.152,0.201-0.556,0.627-1.3c0.287-0.459,0.489-0.743,0.617-0.909c0.918-0.53,1.606-1.417,1.876-2.482
					c0.386-1.525-0.158-3.135-1.391-4.113c-0.771-0.611-1.275-1.59-1.558-3.05c-0.029-0.148-0.172-1.085-0.172-4.913
					c0-2.876,0.091-4.44,0.171-5.258c0.48-0.12,1.349-0.259,2.804-0.259c0.175,0,0.593,0.007,0.621,0.007
					c1.045,0,2.05-0.409,2.798-1.142c0.769-0.753,1.202-1.783,1.202-2.858v-10.365C896.313,163.373,894.521,161.582,892.313,161.582
					z M788.639,214.597c-0.013-0.003-0.024-0.005-0.036-0.008v-2.644l0.847,2.766C789.176,214.695,788.908,214.657,788.639,214.597z
					 M868.079,199.508c0.995,0.825,1.552,1.77,1.75,2.967c0.015,0.247,0.048,1.171,0.048,4.32c0,1.952-0.109,3.566-0.324,4.796
					c-0.208,1.189-0.501,1.704-0.617,1.871c-0.102,0.146-0.221,0.255-0.502,0.355c-0.403,0.145-1.164,0.316-2.494,0.316
					c-1.393,0-2.177-0.121-2.576-0.215c-0.214-0.66-0.593-2.383-0.593-6.272c0-3.609,0.033-4.649,0.049-4.939
					c0.319-1.91,1.075-2.682,1.619-3.096c0.945-0.721,1.521-1.825,1.571-3.014s-0.432-2.338-1.313-3.136
					c-1.002-0.904-1.616-1.88-1.875-2.977c-0.018-0.382-0.051-1.581-0.051-5.272c0-1.735,0.013-3.078,0.041-4.038
					c0.028-1.038,0.07-1.37,0.069-1.37c0,0,0,0,0,0.001c0.007-0.037,0.013-0.071,0.02-0.103c0.088,0.002,0.174,0.009,0.247,0.02
					c0.177,0.025,0.373,0.065,0.586,0.116c0.307,0.072,0.617,0.108,0.926,0.108c0.621,0,1.235-0.146,1.793-0.424
					c0.554,0.277,1.167,0.424,1.792,0.424c0.146,0,0.291-0.008,0.438-0.024c0.308-0.033,0.593-0.051,0.845-0.051
					c0.098,0,0.184,0.003,0.261,0.007c0.044,0.838,0.09,2.415,0.09,5.334c0,3.998-0.034,5.125-0.051,5.435
					c-0.305,1.811-0.96,2.186-1.178,2.31c-1.139,0.651-1.886,1.819-2,3.127C866.535,197.391,867.069,198.67,868.079,199.508z"/>
			</g>
			<g>
				<path fill="#EDE6B1" d="M692.171,178.14c-0.228,0.571-0.341,2.927-0.341,7.073c0,3.252,0.056,5.285,0.171,6.096
					c0.397,2.195,1.421,3.903,3.073,5.121c-2.22,1.871-3.329,4.595-3.329,8.17v1.95c0.056,0.408,0.085,0.813,0.085,1.22
					c0,0.326,0,0.609,0,0.853c0,3.985,0.056,6.301,0.171,6.95c0.511,2.115,1.934,3.17,4.267,3.17c0.285,0,0.598,0,0.939,0
					s0.682-0.039,1.023-0.121v10.364h-27.822v-10.364c3.071,0.244,4.607-0.771,4.607-3.049v-29.506l-9.814,42.919h-10.754
					l-9.304-44.505v30.848c0,2.44,1.536,3.537,4.608,3.293v10.364h-19.971v-10.364c0.397,0.082,0.74,0.121,1.025,0.121
					c0.341,0,0.652,0,0.938,0c2.219,0,3.584-1.055,4.098-3.17c0.113-0.649,0.17-2.965,0.17-6.95c0-1.787-0.016-3.209-0.043-4.268
					c-0.029-1.055-0.071-1.786-0.127-2.194c-0.457-2.518-1.48-4.43-3.073-5.73c1.649-1.299,2.702-3.128,3.158-5.486
					c0.056-0.243,0.085-2.193,0.085-5.852c0-3.82-0.057-6.056-0.17-6.707c-0.457-1.707-1.823-2.561-4.098-2.561
					c-0.285,0-0.597,0-0.938,0c-0.285,0-0.628,0.042-1.025,0.123v-10.365h28.934c1.934,13.413,3.47,24.509,4.609,33.287
					c0.056,0.081,0.112,0.182,0.17,0.304c0.057,0.122,0.141,0.266,0.256,0.427c0.625-3.413,1.437-7.925,2.432-13.533
					c0.996-5.607,2.147-12.354,3.457-20.239h28.592v10.12C694.93,175.622,692.91,176.354,692.171,178.14z"/>
				<path fill="#EDE6B1" d="M745.77,190.577v-8.534c0-1.708-0.996-3.171-2.986-4.39c-1.537-0.894-2.762-1.341-3.67-1.341h-5.805
					v15.241h9.986v12.192h-9.986v14.875h8.535c3.072,0,4.609-3.616,4.609-10.852c0-0.162,0-0.528,0-1.097
					c0-0.651-0.029-1.464-0.086-2.439h12.376v24.752H706.51v-10.364h6.06c1.421,0,2.275-1.543,2.561-4.634v-5.365
					c0-4.145-0.03-6.339-0.086-6.583c-0.341-2.601-1.422-4.39-3.243-5.364c1.708-1.057,2.76-2.683,3.158-4.878
					c0.113-0.812,0.171-2.805,0.171-5.974c0-4.309-0.285-6.869-0.854-7.684c-0.967-1.624-3.557-2.355-7.766-2.192v-10.365h52.489
					v24.995H745.77z"/>
				<path fill="#EDE6B1" d="M819.34,177.897c-0.342,0.652-0.512,3.169-0.512,7.56c0,3.169,0.056,5.162,0.17,5.974
					c0.397,2.195,1.422,3.902,3.072,5.122c-0.456,0.081-1.139,0.854-2.047,2.316c-0.741,1.301-1.168,2.358-1.281,3.17v26.946h-20.74
					l-13.399-43.772v29.75c0,2.032,1.053,3.212,3.157,3.536c1.08,0.243,2.189,0.285,3.329,0.122v10.364h-22.873v-10.364
					c0.341,0.082,0.683,0.121,1.024,0.121c0.341,0,0.653,0,0.938,0c2.333,0,3.756-1.055,4.267-3.17
					c0.113-0.649,0.172-2.965,0.172-6.95c0-1.868-0.015-3.352-0.043-4.449c-0.029-1.097-0.072-1.848-0.129-2.256
					c-0.398-2.762-1.508-4.511-3.328-5.242c1.878-1.3,3.016-3.089,3.414-5.366c0.057-0.243,0.086-2.316,0.086-6.217
					c0-4.553-0.115-7.031-0.342-7.438c-0.626-1.381-2.646-1.95-6.06-1.706v-10.365h28.592l12.546,40.602V179.36
					c0-2.762-1.822-3.901-5.462-3.413v-10.365h22.19v10.365C822.326,175.866,820.078,176.516,819.34,177.897z"/>
				<path fill="#EDE6B1" d="M885.313,177.897c-0.398,0.652-0.597,3.169-0.597,7.56c0,3.008,0.085,4.918,0.256,5.73
					c0.455,2.358,1.45,4.146,2.986,5.365c-0.456,0.081-1.139,0.854-2.047,2.316c-0.799,1.382-1.195,2.438-1.195,3.17v13.289
					c0,10.324-7.028,15.485-21.082,15.485c-5.577,0-10.271-0.731-14.082-2.194c-5.975-2.274-8.963-6.38-8.963-12.315V202.16
					c0-0.648-0.426-1.706-1.279-3.17c-0.854-1.463-1.508-2.274-1.963-2.438c1.649-1.301,2.701-3.17,3.158-5.609
					c0.057-0.406,0.084-2.356,0.084-5.852c0-3.577-0.057-5.689-0.17-6.341c-0.512-2.031-1.906-3.048-4.182-3.048
					c-0.398,0-0.783,0.021-1.152,0.061c-0.371,0.041-0.783,0.103-1.237,0.184v-10.365h30.811v10.365
					c-0.341-0.081-0.655-0.143-0.938-0.184c-0.285-0.04-0.57-0.061-0.854-0.061c-2.219,0-3.529,1.139-3.927,3.414
					c-0.057,0.325-0.101,0.976-0.127,1.949c-0.029,0.977-0.043,2.359-0.043,4.146c0,3.496,0.028,5.446,0.085,5.853
					c0.398,2.032,1.451,3.821,3.158,5.364c-1.707,1.301-2.76,3.213-3.158,5.73c-0.057,0.244-0.085,2.073-0.085,5.486
					c0,4.716,0.513,7.725,1.536,9.023c0.738,0.975,2.615,1.464,5.633,1.464c1.537,0,2.816-0.184,3.841-0.55s1.835-0.975,2.433-1.829
					c0.597-0.853,1.024-2.012,1.28-3.475c0.256-1.464,0.384-3.292,0.384-5.485c0-3.007-0.029-4.635-0.086-4.878
					c-0.341-2.195-1.395-4.024-3.157-5.487c1.706-0.976,2.759-2.723,3.157-5.242c0.057-0.244,0.086-2.234,0.086-5.975
					c0-4.064-0.086-6.421-0.257-7.073c-0.626-1.786-2.419-2.518-5.376-2.192v-10.365h24.068v10.365
					C888.5,175.866,886.167,176.516,885.313,177.897z"/>
			</g>
		</g>
	</g>
	<g>
		<g>
			
				<path fill="#6F3650" stroke="#532A3E" stroke-width="3.446" stroke-linecap="round" stroke-linejoin="round" stroke-miterlimit="10" d="
				M819.555,493.825l-23.781,34.662h-567.55l-23.78-34.662C206.039,489.946,817.959,489.946,819.555,493.825z"/>
			
				<path fill="#602F44" stroke="#532A3E" stroke-width="3.446" stroke-linecap="round" stroke-linejoin="round" stroke-miterlimit="10" d="
				M228.223,528.487c0,67.008-54.264,121.301-121.229,121.301L72.71,625.593c81.068-19.377,119.416-68.529,131.731-131.768
				L228.223,528.487z"/>
			
				<path fill="#6F3650" stroke="#532A3E" stroke-width="3.446" stroke-linecap="round" stroke-linejoin="round" stroke-miterlimit="10" d="
				M106.999,649.788v123.336l-34.285,24.191c-2.396-2.584-2.396-169.143,0-171.727L106.999,649.788z"/>
			
				<path fill="#56242E" stroke="#532A3E" stroke-width="3.446" stroke-linecap="round" stroke-linejoin="round" stroke-miterlimit="10" d="
				M917,649.788v123.336c-66.967,0-121.229,54.293-121.229,121.303H228.222c0-67.01-54.264-121.303-121.229-121.303V649.788
				c66.965,0,121.229-54.293,121.229-121.301h567.549C795.773,595.493,850.033,649.788,917,649.788z"/>
			
				<path fill="#482335" stroke="#532A3E" stroke-width="3.446" stroke-linecap="round" stroke-linejoin="round" stroke-miterlimit="10" d="
				M951.285,625.593l-34.283,24.195c-66.969,0-121.229-54.293-121.229-121.301l23.781-34.662
				C831.303,554.163,883.43,609.38,951.285,625.593z"/>
			
				<path fill="#331A25" stroke="#532A3E" stroke-width="3.446" stroke-linecap="round" stroke-linejoin="round" stroke-miterlimit="10" d="
				M951.285,797.319l-34.283-24.195V649.796l34.283-24.199C953.682,628.179,953.682,794.735,951.285,797.319z"/>
			
				<path fill="#331A25" stroke="#532A3E" stroke-width="3.446" stroke-linecap="round" stroke-linejoin="round" stroke-miterlimit="10" d="
				M819.555,929.089c-1.596,3.883-613.517,3.883-615.112,0l23.78-34.662h567.55L819.555,929.089z"/>
			
				<path fill="#482335" stroke="#532A3E" stroke-width="3.446" stroke-linecap="round" stroke-linejoin="round" stroke-miterlimit="10" d="
				M228.223,894.427l-23.78,34.668c-11.893-61.072-52.816-112.91-131.731-131.77l34.285-24.195
				C173.962,773.124,228.223,827.417,228.223,894.427z"/>
			
				<path fill="#2D1720" stroke="#532A3E" stroke-width="3.446" stroke-linecap="round" stroke-linejoin="round" stroke-miterlimit="10" d="
				M951.285,797.319c-69.855,16.705-119.09,66.859-131.729,131.77l-23.783-34.662c0-67.01,54.262-121.303,121.229-121.303
				L951.285,797.319z"/>
		</g>
		<g>
			<path fill="#BA7C2B" d="M815.279,685.252c3.174-2.667,4.994-6.573,4.994-10.719v-17.986c0-7.72-6.279-14-14-14h-50.656
				c-1.547,0-3.074,0.257-4.518,0.75c-1.445-0.493-2.971-0.75-4.518-0.75h-50.213c-3.107,0-5.971,1.029-8.295,2.747
				c-2.324-1.718-5.188-2.747-8.293-2.747h-22.516c-1.402,0-2.773,0.204-4.084,0.604c-5.947-2.649-12.08-3.989-18.281-3.989
				c-10.803,0-20.539,2.994-28.947,8.903c-9.873,6.953-16.436,17.157-19.521,30.385c-0.219,0.974-0.424,1.894-0.623,2.781
				c-0.535-0.922-1.176-1.791-1.926-2.582c-2.672-11.641-8.764-20.972-18.162-27.778c-7.729-5.522-16.047-8.323-24.727-8.323
				h-71.098c-2.844,0-5.49,0.857-7.701,2.32c-2.211-1.463-4.857-2.32-7.701-2.32H363.4c-2.773,0-5.354,0.82-7.532,2.218
				c-2.023-1.138-4.353-1.794-6.835-1.794h-49.62c-3.54,0-6.796,1.305-9.277,3.496c-2.539-2.435-5.973-3.92-9.682-3.92h-50.213
				c-7.72,0-14,6.28-14,14v17.986c0,4.213,1.87,8.16,5.131,10.833c1.66,1.358,3.609,2.311,5.677,2.797
				c0.003,0.686,0.004,1.431,0.004,2.24c0,4.898-0.031,7.151-0.055,8.152c-0.097,0.308-0.188,0.475-0.235,0.527
				c-3.354,2.642-5.299,6.604-5.337,10.874c-0.038,4.229,1.802,8.193,5.051,10.893c0.064,0.109,0.245,0.465,0.418,1.243
				c0.022,0.325,0.057,0.973,0.089,2.117c0.046,1.719,0.069,4.085,0.069,7.032c0,1.424-0.004,2.657-0.012,3.723
				c-2.055,0.483-3.991,1.428-5.641,2.772c-3.279,2.67-5.16,6.626-5.16,10.855v17.986c0,7.72,6.28,14,14,14h34.66
				c1.397,0,2.766-0.204,4.074-0.601c1.308,0.396,2.676,0.601,4.072,0.601h18.663c1.546,0,3.072-0.258,4.517-0.75
				c1.445,0.492,2.971,0.75,4.518,0.75h48.287c2.628,0,5.08-0.741,7.184-2.006c2.104,1.265,4.556,2.006,7.184,2.006h90.649
				c2.94,0,5.668-0.915,7.923-2.47c2.255,1.555,4.983,2.47,7.923,2.47h54.508c3.988,0,7.594-1.678,10.146-4.363
				c4.014,2.899,8.252,4.363,12.664,4.363h28.883c7.721,0,14-6.28,14-14v-12.39c6.092,12.6,16.998,21.762,32.395,27.213
				c4.279,1.582,9.742,2.351,16.703,2.351c12.795,0,24.391-3.07,34.463-9.124l0.209-0.128c3.158-1.973,6.006-4.217,8.564-6.694
				c0.623,7.146,6.631,12.772,13.938,12.772h50.213c1.547,0,3.072-0.257,4.518-0.75c1.443,0.493,2.971,0.75,4.518,0.75h50.656
				c7.721,0,14-6.28,14-14v-17.986c0-4.348-1.967-8.373-5.393-11.041c-1.836-1.433-4.016-2.381-6.301-2.766
				c-0.006-0.807-0.008-1.703-0.008-2.698c0-8.144,0.27-10.073,0.271-10.087c0.133-0.843,0.299-1.263,0.371-1.42
				c3.398-2.859,5.248-7.191,4.957-11.629c-0.264-3.988-2.229-7.666-5.342-10.106c-0.025-0.136-0.051-0.298-0.074-0.489
				c-0.018-0.127-0.031-0.224-0.045-0.323c-0.014-0.178-0.045-0.633-0.072-1.526c-0.045-1.385-0.066-3.381-0.066-6.104
				c0-0.748,0.002-1.435,0.006-2.062C811.033,687.931,813.354,686.869,815.279,685.252z M364.301,721.788
				c0.025,1.077,0.059,3.622,0.059,9.454v3.351h-0.96c-2.625,0-5.073,0.739-7.175,2.001c-1.329-0.795-2.779-1.373-4.291-1.694
				c-0.007-1.049-0.011-2.261-0.011-3.657v-1.481c0-0.963-0.049-1.944-0.147-2.923v-2.579c0-1.045,0.104-2.886,0.801-3.474
				c3.296-2.779,5.106-6.844,4.968-11.155c-0.137-4.225-2.128-8.095-5.479-10.661c-0.048-0.77-0.143-2.974-0.143-8.354
				c0-0.869,0.003-1.662,0.009-2.383c1.516-0.32,2.966-0.892,4.295-1.688c2.151,1.288,4.611,1.99,7.172,1.99
				c0.166,0,0.331-0.003,0.545-0.011c0.126-0.005,0.252-0.009,0.377-0.013c0.023,0.905,0.038,1.953,0.038,3.163
				c0,4.274-0.063,6.5-0.113,7.586c-3.654,2.712-5.798,7.085-5.656,11.678C358.724,715.254,360.86,719.254,364.301,721.788z
				 M461.716,711.914c0.614-0.371,1.192-0.793,1.74-1.251c0.011,0.993,0.124,1.972,0.338,2.922
				C463.156,712.966,462.461,712.404,461.716,711.914z M469.498,734.599c-0.488,0.014-0.97,0.059-1.449,0.122v-11.097
				c0-1.058-0.125-2.087-0.348-3.079c0.51,0.496,1.057,0.96,1.647,1.378c0.07,1.144,0.175,3.742,0.175,9.107
				C469.523,732.395,469.514,733.576,469.498,734.599z M469.474,699c-0.341,0.236-0.663,0.496-0.98,0.762v-11.306
				c0.34,0.034,0.681,0.063,1.024,0.072c0.003,0.645,0.005,1.339,0.005,2.086C469.523,695.357,469.497,697.785,469.474,699z
				 M576.08,712.038c0.012-0.018,0.023-0.038,0.035-0.056c0.004,0.041,0.01,0.082,0.014,0.123
				C576.113,712.083,576.098,712.061,576.08,712.038z M582.1,735.944v-6.818c0-2.31-0.299-5.058-1.223-8.018
				c0.328,0.548,1.373,2.579,2.357,7.488c0.699,3.633,1.318,6.688,1.875,9.284c-0.488-0.41-1.006-0.791-1.557-1.138
				C583.082,736.447,582.598,736.181,582.1,735.944z"/>
			<g>
				<path fill="#231F20" d="M300.746,773.579c-1.722,0-3.298-0.622-4.518-1.652c-1.23,1.038-2.815,1.652-4.518,1.652h-18.663
					c-1.505,0-2.917-0.479-4.073-1.307c-1.147,0.822-2.554,1.307-4.074,1.307h-34.66c-3.866,0-7-3.134-7-7v-17.986
					c0-2.105,0.947-4.099,2.58-5.428c1.26-1.026,2.824-1.572,4.42-1.572c0.472,0,0.947,0.048,1.417,0.146
					c0.286,0.059,0.417,0.067,0.419,0.067l1.57-0.001c0.09,0,0.169-0.002,0.239-0.006c0.053-0.791,0.167-3.334,0.167-10.557
					c0-3.002-0.024-5.431-0.072-7.22c-0.051-1.851-0.116-2.643-0.146-2.928c-0.499-2.608-1.429-4.438-2.84-5.592
					c-1.645-1.344-2.59-3.36-2.571-5.483s1-4.123,2.668-5.437c0.934-0.735,2.232-2.054,2.877-5.05
					c0.029-0.638,0.083-2.686,0.083-9.13c0-5.006-0.06-7.675-0.116-9.077c-0.089-0.003-0.186-0.005-0.291-0.005h-1.614
					c0.022,0.001-0.12,0.016-0.412,0.074c-0.458,0.093-0.921,0.138-1.38,0.138c-1.603,0-3.173-0.551-4.435-1.584
					c-1.624-1.33-2.565-3.317-2.565-5.416v-17.986c0-3.866,3.134-7,7-7h50.213c3.48,0,6.432,2.557,6.928,6.001
					c0.833,5.781,1.626,11.328,2.378,16.638c0.87-5.117,1.787-10.58,2.748-16.361c0.561-3.377,3.482-5.854,6.905-5.854h49.62
					c3.866,0,7,3.134,7,7v17.563c0,1.976-0.835,3.859-2.298,5.186c-1.293,1.173-2.972,1.814-4.701,1.814
					c-0.228,0-0.456-0.011-0.685-0.033c-0.649-0.064-1.253-0.097-1.797-0.097c-0.633,0-1.101,0.044-1.434,0.096
					c-0.091,1.361-0.194,4.025-0.194,9.115c0,6.847,0.149,8.912,0.213,9.486c0.385,1.977,1.183,3.323,2.574,4.351
					c1.723,1.272,2.769,3.265,2.838,5.405c0.069,2.142-0.846,4.196-2.484,5.577c-1.412,1.19-3.289,3.4-3.289,8.825v2.952
					c0.098,0.857,0.147,1.713,0.147,2.55v1.481c0,7.032,0.104,9.612,0.169,10.536c0.134,0.015,0.31,0.026,0.534,0.026h1.629
					c0.046,0,0.089-0.006,0.141-0.018c0.541-0.131,1.091-0.194,1.636-0.194c1.557,0,3.086,0.52,4.333,1.502
					c1.685,1.327,2.667,3.354,2.667,5.498v17.986c0,3.866-3.134,7-7,7H300.746z"/>
				<path fill="#231F20" d="M363.4,773.579c-3.866,0-7-3.134-7-7v-17.986c0-3.866,3.134-7,7-7h7.773
					c0.065-0.378,0.13-0.834,0.187-1.381v-8.97c0-7.955-0.064-10.019-0.092-10.539c-0.423-3.188-1.562-3.799-1.992-4.028
					c-2.206-1.183-3.612-3.453-3.689-5.954c-0.077-2.502,1.187-4.854,3.316-6.17c0.865-0.535,1.804-1.383,2.244-3.602
					c0.066-0.594,0.213-2.666,0.213-9.276c0-5.807-0.317-8.43-0.513-9.497c-0.654-0.251-2.25-0.681-5.529-0.681
					c-0.53,0-1.08,0.011-1.649,0.033c-0.09,0.003-0.18,0.005-0.27,0.005c-1.806,0-3.546-0.698-4.853-1.956
					c-1.372-1.319-2.146-3.141-2.146-5.044v-17.986c0-3.866,3.134-7,7-7h91.094c3.866,0,7,3.134,7,7v43.378c0,3.866-3.134,7-7,7
					H434.24v9.699h19.81c3.866,0,7,3.134,7,7v42.955c0,3.866-3.134,7-7,7H363.4z M424.066,741.593
					c0.51-0.961,1.652-3.988,1.654-11.814h-8.811v11.814H424.066z M424.535,694.618v-9.505c-0.038-0.165-0.441-0.78-1.775-1.609
					c-1.825-1.053-2.699-1.29-2.911-1.336h-2.938v12.45H424.535z"/>
				<path fill="#231F20" d="M547.215,773.579c-4.521,0-8.807-2.367-13.102-7.237c-1.039-1.165-1.943-2.363-2.709-3.591v3.828
					c0,3.866-3.135,7-7,7h-54.508c-3.866,0-7-3.134-7-7v-17.986c0-1.929,0.796-3.772,2.2-5.095c1.302-1.228,3.021-1.905,4.8-1.905
					c0.139,0,0.278,0.004,0.417,0.013c0.68,0.04,1.331,0.061,1.934,0.061c2.197,0,3.388-0.267,3.956-0.455
					c0.133-1.206,0.321-4.002,0.321-10.181c0-8.418-0.25-10.523-0.315-10.931c-0.486-2.251-1.399-3.042-2.231-3.518
					c-2.418-1.382-3.787-4.065-3.485-6.835c0.299-2.749,2.188-5.062,4.817-5.906c0.14-0.164,0.736-0.979,1.126-3.363
					c0.028-0.547,0.089-2.572,0.089-9.863c0-5.176-0.081-7.966-0.156-9.445c-0.335-0.034-0.759-0.059-1.287-0.059
					c-0.584,0-1.211,0.027-1.866,0.082c-0.681,0.059-1.476,0.15-2.342,0.272c-0.325,0.046-0.651,0.068-0.976,0.068
					c-1.677,0-3.31-0.603-4.592-1.717c-1.53-1.329-2.408-3.257-2.408-5.283v-17.986c0-3.866,3.134-7,7-7h71.098
					c7.189,0,14.141,2.361,20.658,7.019c8.41,6.092,13.703,14.619,15.771,25.378c0.193,0.257,0.568,0.71,1.25,1.391
					c2.199,2.194,2.688,5.575,1.201,8.303c-1.391,2.549-2.729,4.992-4.016,7.328c-1.348,2.441-2.713,4.731-4.063,6.813
					c-1.602,2.606-3.234,4.839-4.908,6.701c6.764,5.944,8.211,12.301,8.211,16.647v12.538c0.33-0.048,0.664-0.071,0.998-0.071
					c1.299,0,2.594,0.361,3.729,1.075c2.035,1.281,3.271,3.519,3.271,5.925v17.986c0,3.866-3.133,7-7,7H547.215z M521.52,741.382
					c0.85,0.063,1.938,0.138,3.324,0.225c1.244,0.078,2.394,0.479,3.373,1.114v-8.728c0-0.387-0.414-1.071-1.082-1.786
					c-0.452-0.484-0.789-0.778-1.006-0.948h-4.648v8.87C521.48,740.615,521.496,741.03,521.52,741.382z M527.621,695.041
					c0.168-0.244,0.385-0.596,0.639-1.085c0.029-0.058,0.061-0.114,0.092-0.171c0.906-1.638,1.346-3.437,1.346-5.498
					c0-1.955-0.466-3.674-1.426-5.254c-0.186-0.306-0.342-0.515-0.456-0.653h-5.743v12.661H527.621z"/>
				<path fill="#231F20" d="M639.195,776.753c-6.119,0-10.789-0.627-14.275-1.916c-14.471-5.125-24.406-13.788-29.445-25.72
					c-0.998-2.149-2.434-6.597-5.367-21.843c-1.764-8.809-3.982-10.928-4.408-11.262c-1.568-1.231-2.539-3.073-2.666-5.064
					c-0.125-1.99,0.604-3.94,2.004-5.36c2.082-2.108,3.795-5.902,4.959-10.974c0.301-1.429,0.723-3.348,1.27-5.758
					c0.541-2.392,1.205-5.35,1.996-8.874c2.676-11.467,8.297-20.261,16.723-26.195c7.201-5.062,15.582-7.626,24.916-7.626
					c6.191,0,12.291,1.592,18.221,4.745c1.16-0.854,2.594-1.359,4.145-1.359h22.516c3.865,0,7,3.134,7,7v44.225c0,3.866-3.135,7-7,7
					h-26.662c-3.867,0-7-3.134-7-7c0-4.364-0.404-18.604-5.59-18.604c-1.375,0-2.248,0.316-3.193,2.044
					c-1.492,2.726-2.25,6.48-2.25,11.154c0,4.603,1.033,7.94,3.068,9.922c2.707,2.635,2.834,6.943,0.287,9.734
					c-2.195,2.405-3.355,6.884-3.355,12.953c0,13.617,4.334,13.617,6.184,13.617c1.959,0,3.152-0.46,4.24-2.972
					c0.635-1.453,1.715-5.258,1.943-14.743c0.092-3.799,3.199-6.83,6.998-6.83h29.625c3.865,0,7,3.134,7,7v2.962
					c0,18.903-7.039,32.885-20.918,41.555c-0.033,0.021-0.068,0.043-0.104,0.063C661.084,774.02,650.701,776.753,639.195,776.753z"
					/>
				<path fill="#231F20" d="M755.617,773.579c-1.723,0-3.299-0.622-4.518-1.652c-1.219,1.03-2.797,1.652-4.518,1.652h-50.213
					c-3.867,0-7-3.134-7-7v-17.986c0-2.105,0.947-4.099,2.58-5.428c1.26-1.026,2.824-1.572,4.42-1.572
					c0.473,0,0.947,0.048,1.418,0.146c0.299,0.062,0.465,0.066,0.508,0.066h1.629c0.219,0,0.395-0.011,0.535-0.024
					c0.068-1.197,0.166-4.069,0.166-10.75v-1.27c0-0.852,0.051-1.71,0.148-2.56v-3.153c0-6.395-2.193-8.003-2.916-8.532
					c-2.1-1.54-3.172-4.119-2.781-6.695c0.375-2.481,2.049-4.563,4.373-5.471c0.195-0.285,0.717-1.224,1.088-3.513
					c0.029-0.531,0.088-2.481,0.088-9.434c0-4.567-0.068-7.292-0.143-8.898c-0.414-0.039-0.932-0.066-1.572-0.066
					c-0.625,0-1.316,0.025-2.051,0.077c-0.164,0.012-0.328,0.018-0.49,0.018c-1.766,0-3.473-0.668-4.773-1.88
					c-1.42-1.324-2.227-3.179-2.227-5.12v-17.986c0-3.866,3.133-7,7-7h50.213c1.721,0,3.299,0.622,4.518,1.652
					c1.219-1.03,2.795-1.652,4.518-1.652h50.656c3.867,0,7,3.134,7,7v17.986c0,2.067-0.914,4.029-2.496,5.359
					c-1.271,1.067-2.869,1.641-4.504,1.641c-0.4,0-0.805-0.034-1.207-0.104c-0.635-0.111-1.209-0.199-1.725-0.257
					c-0.367-0.04-0.787-0.062-1.215-0.062c-0.117,0-0.219,0.003-0.311,0.008c-0.074,0.615-0.244,2.753-0.244,9.285
					c0,2.812,0.023,4.883,0.07,6.33c0.053,1.673,0.119,2.178,0.127,2.229c0.02,0.112,0.029,0.178,0.043,0.291
					c0.311,2.437,1.006,4.005,2.068,4.661c1.926,1.19,3.156,3.237,3.305,5.496c0.148,2.258-0.805,4.449-2.557,5.881
					c-1.4,1.143-2.281,2.979-2.699,5.615c-0.127,0.86-0.357,3.539-0.357,11.181c0,6.935,0.129,9.354,0.195,10.14
					c0.02,0,0.041,0,0.063,0c0.482,0,1.348-0.073,2.732-0.422c0.564-0.143,1.141-0.213,1.711-0.213c1.543,0,3.061,0.51,4.303,1.479
					c1.703,1.326,2.697,3.363,2.697,5.521v17.986c0,3.866-3.133,7-7,7H755.617z M746.027,741.58
					c0.164,0.008,0.348,0.013,0.555,0.013c1.721,0,3.299,0.622,4.518,1.652c1.219-1.03,2.795-1.652,4.518-1.652
					c0.145,0,0.279-0.002,0.404-0.007V728.72h-9.994V741.58z M756.021,692.925v-11.423c-0.125,0.007-0.252,0.01-0.377,0.01
					c-1.307,0-2.607-0.359-3.738-1.074c-0.275-0.175-0.539-0.367-0.785-0.575c-1.264,1.076-2.873,1.671-4.539,1.671
					c-0.064,0-0.523-0.006-0.555-0.006v11.397H756.021z"/>
			</g>
			<g>
				<path fill="#EDE6B1" d="M338.516,678.342c-0.396,0.988-0.593,5.078-0.593,12.272c0,5.645,0.098,9.172,0.297,10.58
					c0.689,3.81,2.467,6.771,5.332,8.888c-3.851,3.247-5.776,7.972-5.776,14.177v3.386c0.097,0.708,0.147,1.412,0.147,2.116
					c0,0.565,0,1.058,0,1.481c0,6.913,0.098,10.934,0.297,12.061c0.889,3.67,3.355,5.502,7.406,5.502c0.492,0,1.036,0,1.629,0
					s1.185-0.069,1.777-0.212v17.986h-48.287v-17.986c5.332,0.424,7.998-1.339,7.998-5.29v-51.207l-17.033,74.483h-18.663
					l-16.146-77.234v53.535c0,4.232,2.666,6.137,7.999,5.713v17.986h-34.66v-17.986c0.689,0.143,1.282,0.212,1.777,0.212
					c0.593,0,1.134,0,1.629,0c3.852,0,6.222-1.832,7.11-5.502c0.196-1.127,0.296-5.147,0.296-12.061
					c0-3.102-0.025-5.571-0.074-7.406c-0.051-1.832-0.125-3.102-0.222-3.809c-0.792-4.371-2.569-7.688-5.333-9.945
					c2.863-2.255,4.689-5.429,5.48-9.522c0.098-0.423,0.148-3.809,0.148-10.156c0-6.629-0.1-10.508-0.296-11.639
					c-0.792-2.962-3.162-4.443-7.11-4.443c-0.495,0-1.036,0-1.629,0c-0.495,0-1.088,0.073-1.777,0.212v-17.986h50.213
					c3.355,23.276,6.021,42.532,7.998,57.767c0.098,0.143,0.196,0.317,0.296,0.529c0.098,0.212,0.246,0.46,0.444,0.741
					c1.086-5.925,2.493-13.755,4.222-23.488c1.727-9.733,3.727-21.44,5.999-35.125h49.62v17.563
					C343.304,673.971,339.798,675.24,338.516,678.342z"/>
				<path fill="#EDE6B1" d="M431.535,699.925v-14.812c0-2.963-1.729-5.502-5.184-7.618c-2.667-1.55-4.791-2.327-6.369-2.327H409.91
					v26.45h17.33v21.16h-17.33v25.814h14.812c5.332,0,7.999-6.275,7.999-18.832c0-0.281,0-0.916,0-1.904
					c0-1.128-0.051-2.539-0.148-4.232h21.478v42.955H363.4v-17.986h10.517c2.467,0,3.948-2.678,4.443-8.04v-9.311
					c0-7.194-0.051-11.004-0.148-11.427c-0.592-4.513-2.469-7.617-5.628-9.311c2.962-1.831,4.788-4.655,5.48-8.464
					c0.196-1.408,0.296-4.867,0.296-10.368c0-7.476-0.495-11.919-1.481-13.331c-1.68-2.82-6.172-4.09-13.479-3.809v-17.986h91.094
					v43.378H431.535z"/>
				<path fill="#EDE6B1" d="M547.215,766.579c-2.371,0-4.988-1.62-7.852-4.867c-2.766-3.101-4.146-6.348-4.146-9.733v-17.985
					c0-2.255-0.988-4.444-2.963-6.561c-1.977-2.115-3.754-3.174-5.332-3.174H514.48v15.87c0,4.232,0.889,6.844,2.666,7.829
					c0.393,0.143,2.814,0.354,7.258,0.635v17.986h-54.508v-17.986c7.109,0.424,11.354-0.985,12.738-4.231
					c0.593-0.985,0.889-5.429,0.889-13.331c0-6.629-0.148-10.719-0.444-12.272c-0.792-3.81-2.666-6.56-5.629-8.253
					c3.159-0.985,5.134-4.021,5.925-9.099c0.098-0.423,0.148-4.021,0.148-10.792c0-7.194-0.148-11.354-0.444-12.484
					c-0.692-2.678-3.358-4.02-7.999-4.02c-0.791,0-1.605,0.036-2.443,0.105c-0.84,0.072-1.755,0.179-2.74,0.317v-17.986h71.098
					c5.725,0,11.256,1.904,16.588,5.714c7.012,5.078,11.355,12.203,13.035,21.371c0.098,1.131,1.135,2.682,3.111,4.655
					c-1.385,2.539-2.717,4.973-4,7.3c-1.285,2.328-2.568,4.48-3.852,6.454c-4.146,6.771-8.246,10.299-12.293,10.58
					c2.863,0.847,5.578,2.4,8.146,4.655c4.244,3.527,6.369,7.479,6.369,11.85v14.389c0,1.835,1.086,3.247,3.258,4.232
					c1.482,0.707,2.666,1.058,3.555,1.058c0.494,0,0.889-0.069,1.186-0.212v17.986H547.215z M534.254,679.399
					c-1.629-2.678-3.58-4.02-5.852-4.02h-13.33v26.661h13.775c2.074,0,3.947-1.62,5.629-4.867c1.48-2.678,2.221-5.64,2.221-8.887
					C536.697,685.044,535.883,682.081,534.254,679.399z"/>
				<path fill="#EDE6B1" d="M666.449,762.628c-7.9,4.748-16.984,7.125-27.254,7.125c-5.234,0-9.184-0.496-11.85-1.481
					c-12.738-4.513-21.232-11.85-25.477-22.006c-1.088-2.255-2.717-9.026-4.887-20.313c-1.582-7.898-3.902-13.047-6.963-15.447
					c3.061-3.101,5.332-7.898,6.814-14.389c0.295-1.408,0.715-3.313,1.258-5.713c0.543-2.397,1.209-5.359,2-8.888
					c2.271-9.733,6.91-17.066,13.924-22.006c6.021-4.232,12.982-6.349,20.885-6.349c7.504,0,14.861,2.894,22.07,8.676
					c0.195-0.562,0.295-2.327,0.295-5.29h22.516v44.225h-26.662c0-17.066-4.199-25.604-12.59-25.604
					c-4.148,0-7.258,1.895-9.332,5.68c-2.074,3.789-3.111,8.626-3.111,14.519c0,6.592,1.727,11.571,5.186,14.938
					c-3.459,3.789-5.186,9.677-5.186,17.672c0,13.747,4.393,20.617,13.184,20.617c5.035,0,8.59-2.396,10.664-7.194
					c1.482-3.386,2.32-9.168,2.518-17.351h29.625v2.962C684.076,743.415,678.199,755.288,666.449,762.628z"/>
				<path fill="#EDE6B1" d="M804.125,674.216c-0.643-0.069-1.309-0.105-1.998-0.105c-4.051,0-6.42,1.765-7.111,5.289
					c-0.295,1.131-0.443,4.798-0.443,11.004c0,2.823,0.023,5.009,0.074,6.56c0.049,1.554,0.123,2.611,0.223,3.174
					c0.592,4.655,2.369,7.902,5.332,9.733c-2.766,2.259-4.494,5.574-5.186,9.945c-0.295,1.978-0.443,6.067-0.443,12.272
					c0,6.21,0.098,10.019,0.297,11.427c0.689,3.809,3.01,5.713,6.961,5.713c1.281,0,2.764-0.211,4.443-0.635v17.986h-50.656v-17.986
					c4.936,0,7.404-1.762,7.404-5.29V721.72h-23.994v21.16c0,3.809,2.518,5.713,7.555,5.713v17.986h-50.213v-17.986
					c0.689,0.143,1.332,0.212,1.926,0.212c0.592,0,1.133,0,1.629,0c4.047,0,6.518-1.763,7.406-5.29
					c0.195-1.408,0.295-5.571,0.295-12.484c0-0.281,0-0.704,0-1.27c0-0.704,0.049-1.408,0.148-2.116v-3.597
					c0-6.629-1.926-11.354-5.777-14.178c2.863-0.985,4.689-4.021,5.48-9.099c0.098-0.423,0.148-3.878,0.148-10.368
					c0-7.898-0.199-12.2-0.592-12.908c-1.088-2.396-4.643-3.385-10.664-2.962v-17.986h50.213v17.986
					c-5.037-0.139-7.555,1.977-7.555,6.348v19.044h23.994v-20.948c0-1.551-0.986-2.89-2.961-4.021
					c-1.088-0.562-2.125-0.846-3.111-0.846c-0.297,0-0.74,0.142-1.332,0.423v-17.986h50.656v17.986
					C805.482,674.395,804.768,674.288,804.125,674.216z"/>
			</g>
		</g>
	</g>
</g>
<g id="Layer_9">
</g>
<g id="Layer_8">
</g>
<g id="Layer_7">
</g>
<g id="Layer_6">
</g>
<g id="Layer_5">
</g>
<g id="Layer_4">
</g>
<g id="Layer_3">
</g>
<g id="Layer_2_1_">
</g>
<g id="Layer_1">
</g>
</svg>
