<?xml version="1.0" encoding="utf-8"?>
<!-- Generator: Adobe Illustrator 16.0.0, SVG Export Plug-In . SVG Version: 6.00 Build 0)  -->
<!DOCTYPE svg PUBLIC "-//W3C//DTD SVG 1.1//EN" "http://www.w3.org/Graphics/SVG/1.1/DTD/svg11.dtd">
<svg version="1.1" id="Layer_1" xmlns="http://www.w3.org/2000/svg" xmlns:xlink="http://www.w3.org/1999/xlink" x="0px" y="0px"
	 width="1024px" height="1024px" viewBox="0 0 1024 1024" enable-background="new 0 0 1024 1024" xml:space="preserve">
<rect fill="#93268F" width="1024" height="1024"/>
<g>
	<path d="M378.938,432.541l-24.624-97.055h13.248l11.52,49.104c2.881,12.096,5.473,24.191,7.2,33.551h0.288
		c1.584-9.646,4.607-21.167,7.92-33.695l12.959-48.959h13.104l11.809,49.248c2.736,11.52,5.328,23.039,6.768,33.263h0.288
		c2.017-10.655,4.752-21.456,7.776-33.552l12.815-48.959h12.815l-27.504,97.055h-13.104l-12.239-50.543
		c-3.024-12.384-5.04-21.888-6.336-31.68h-0.288c-1.729,9.648-3.888,19.152-7.488,31.68l-13.823,50.543H378.938z"/>
	<path d="M496.299,343.263c0.144,4.319-3.024,7.776-8.064,7.776c-4.464,0-7.632-3.457-7.632-7.776c0-4.464,3.312-7.92,7.92-7.92
		C493.274,335.343,496.299,338.799,496.299,343.263z M482.187,432.541v-69.695h12.672v69.695H482.187z"/>
	<path d="M576.072,330.303v84.238c0,6.192,0.145,13.248,0.576,18h-11.375l-0.576-12.096h-0.288
		c-3.888,7.775-12.384,13.68-23.76,13.68c-16.848,0-29.808-14.256-29.808-35.424c-0.144-23.184,14.256-37.439,31.248-37.439
		c10.655,0,17.855,5.041,21.023,10.656h0.288v-41.615H576.072z M563.401,391.214c0-1.584-0.145-3.744-0.576-5.328
		c-1.872-8.063-8.784-14.688-18.288-14.688c-13.104,0-20.879,11.52-20.879,26.927c0,14.112,6.911,25.776,20.591,25.776
		c8.496,0,16.272-5.616,18.576-15.12c0.432-1.728,0.576-3.455,0.576-5.472V391.214z"/>
	<path d="M604.153,399.998c0.288,17.135,11.232,24.191,23.903,24.191c9.072,0,14.544-1.584,19.296-3.6l2.16,9.071
		c-4.464,2.017-12.096,4.319-23.184,4.319c-21.455,0-34.271-14.111-34.271-35.135s12.384-37.584,32.688-37.584
		c22.752,0,28.8,20.016,28.8,32.832c0,2.592-0.288,4.607-0.433,5.904H604.153z M641.305,390.926
		c0.145-8.064-3.312-20.592-17.567-20.592c-12.815,0-18.432,11.809-19.439,20.592H641.305z"/>
	<path d="M433.945,559.838h-37.727v34.991h42.047v10.512H383.69v-97.054h52.415v10.512h-39.887v30.671h37.727V559.838z"/>
	<path d="M457.706,535.646l15.264,41.183c1.584,4.608,3.312,10.08,4.464,14.256h0.288c1.296-4.176,2.735-9.504,4.464-14.544
		l13.824-40.895h13.392l-19.008,49.679c-9.071,23.903-15.264,36.144-23.903,43.631c-6.192,5.473-12.384,7.632-15.552,8.208
		l-3.168-10.655c3.168-1.009,7.344-3.024,11.087-6.192c3.457-2.735,7.776-7.632,10.656-14.111c0.576-1.296,1.008-2.305,1.008-3.024
		s-0.287-1.728-0.863-3.312l-25.775-64.223H457.706z"/>
	<path d="M526.538,572.798c0.288,17.136,11.232,24.191,23.903,24.191c9.072,0,14.544-1.584,19.296-3.601l2.16,9.072
		c-4.464,2.016-12.096,4.32-23.184,4.32c-21.455,0-34.271-14.112-34.271-35.136s12.384-37.583,32.688-37.583
		c22.752,0,28.8,20.016,28.8,32.831c0,2.592-0.288,4.608-0.433,5.904H526.538z M563.689,563.726
		c0.145-8.063-3.312-20.592-17.567-20.592c-12.815,0-18.432,11.808-19.439,20.592H563.689z"/>
	<path d="M589.897,592.381c3.743,2.448,10.367,5.04,16.703,5.04c9.216,0,13.536-4.607,13.536-10.368
		c0-6.048-3.601-9.359-12.96-12.815c-12.527-4.464-18.432-11.376-18.432-19.728c0-11.231,9.072-20.447,24.048-20.447
		c7.056,0,13.247,2.016,17.136,4.319l-3.168,9.216c-2.736-1.728-7.776-4.031-14.256-4.031c-7.488,0-11.664,4.319-11.664,9.504
		c0,5.76,4.176,8.352,13.248,11.808c12.096,4.607,18.287,10.655,18.287,21.023c0,12.239-9.504,20.88-26.063,20.88
		c-7.632,0-14.688-1.872-19.583-4.752L589.897,592.381z"/>
</g>
</svg>
