<?xml version="1.0" encoding="utf-8"?>
<!-- Generator: Adobe Illustrator 16.0.0, SVG Export Plug-In . SVG Version: 6.00 Build 0)  -->
<!DOCTYPE svg PUBLIC "-//W3C//DTD SVG 1.1//EN" "http://www.w3.org/Graphics/SVG/1.1/DTD/svg11.dtd">
<svg version="1.1" xmlns="http://www.w3.org/2000/svg" xmlns:xlink="http://www.w3.org/1999/xlink" x="0px" y="0px" width="1024px"
	 height="1024px" viewBox="0 0 1024 1024" enable-background="new 0 0 1024 1024" xml:space="preserve">
<g id="Layer_4">
</g>
<g id="Layer_7">
</g>
<g id="Layer_9">
</g>
<g id="Layer_8">
</g>
<g id="Layer_6">
</g>
<g id="Layer_2">
</g>
<g id="Layer_5">
	<circle fill="#875D4F" cx="417.179" cy="606.821" r="352"/>
	<circle fill="#FFF8CA" cx="417.179" cy="606.822" r="320"/>
	<path fill="#419787" d="M417.175,302.824v303.997l178.68-245.94C541.833,321.608,479.198,302.76,417.175,302.824z"/>
	<g>
		<linearGradient id="SVGID_1_" gradientUnits="userSpaceOnUse" x1="405.2285" y1="747.1758" x2="614.8157" y2="734.183">
			<stop  offset="0" style="stop-color:#B88D50"/>
			<stop  offset="1" style="stop-color:#A17C46"/>
		</linearGradient>
		<polygon fill="url(#SVGID_1_)" stroke="#000000" stroke-width="0.9231" stroke-linejoin="round" stroke-miterlimit="10" points="
			600.751,671.104 597.892,702.286 413.999,810.581 413.696,770.938 506.724,721.294 506.724,721.282 534.673,706.372 		"/>
		<linearGradient id="SVGID_2_" gradientUnits="userSpaceOnUse" x1="463.1621" y1="617.6943" x2="645.3697" y2="644.6429">
			<stop  offset="0" style="stop-color:#B88D50"/>
			<stop  offset="1" style="stop-color:#A17C46"/>
		</linearGradient>
		<polygon fill="url(#SVGID_2_)" stroke="#000000" stroke-width="0.9231" stroke-linejoin="round" stroke-miterlimit="10" points="
			632.706,578.104 620.161,689.179 597.892,702.286 600.751,671.104 600.751,671.089 608.222,589.839 		"/>
		<linearGradient id="SVGID_3_" gradientUnits="userSpaceOnUse" x1="374.1191" y1="753.8174" x2="563.403" y2="782.9506">
			<stop  offset="0" style="stop-color:#B88D50"/>
			<stop  offset="1" style="stop-color:#A17C46"/>
		</linearGradient>
		<polygon fill="url(#SVGID_3_)" stroke="#000000" stroke-width="0.9231" stroke-linejoin="round" stroke-miterlimit="10" points="
			414.003,810.577 379.222,831.062 376.776,700.72 413.034,683.347 413.626,761.931 413.698,770.94 		"/>
		
			<line fill="none" stroke="#000000" stroke-width="0.9231" stroke-linejoin="round" stroke-miterlimit="10" x1="635.499" y1="553.374" x2="635.499" y2="553.36"/>
		<linearGradient id="SVGID_4_" gradientUnits="userSpaceOnUse" x1="368.4229" y1="635.4639" x2="638.7945" y2="618.939">
			<stop  offset="0" style="stop-color:#B88D50"/>
			<stop  offset="1" style="stop-color:#A17C46"/>
		</linearGradient>
		<polygon fill="url(#SVGID_4_)" stroke="#000000" stroke-width="0.9231" stroke-linejoin="round" stroke-miterlimit="10" points="
			635.499,553.374 632.706,578.104 608.222,589.839 599.103,594.212 580.022,603.345 557.644,614.062 539.528,622.753 
			509.103,637.335 501.647,640.897 501.331,641.048 476.2,653.083 445.499,667.788 413.036,683.345 376.778,700.718 
			376.228,671.528 377.741,672.302 		"/>
		
			<line fill="none" stroke="#000000" stroke-width="0.9231" stroke-linejoin="round" stroke-miterlimit="10" x1="376.228" y1="671.528" x2="376.228" y2="671.487"/>
		<linearGradient id="SVGID_5_" gradientUnits="userSpaceOnUse" x1="203.2871" y1="558.5957" x2="380.2265" y2="687.019">
			<stop  offset="0" style="stop-color:#6B382A"/>
			<stop  offset="1" style="stop-color:#AA6A55"/>
		</linearGradient>
		<polygon fill="url(#SVGID_5_)" stroke="#000000" stroke-width="0.9231" stroke-linejoin="round" stroke-miterlimit="10" points="
			377.741,658.146 377.741,672.302 376.228,671.528 197.81,581.159 195.376,579.923 193.325,569.386 		"/>
		<linearGradient id="SVGID_6_" gradientUnits="userSpaceOnUse" x1="213.8408" y1="654.9551" x2="349.1639" y2="629.1374">
			<stop  offset="0" style="stop-color:#B38C53"/>
			<stop  offset="1" style="stop-color:#C99D5D"/>
		</linearGradient>
		<polygon fill="url(#SVGID_6_)" stroke="#000000" stroke-width="0.9231" stroke-linejoin="round" stroke-miterlimit="10" points="
			376.776,700.72 337.368,680.081 305.604,663.013 305.604,663.003 273.382,645.687 247.165,631.581 246.407,631.185 
			235.22,625.157 202.69,607.683 197.808,581.163 376.231,671.532 		"/>
		<linearGradient id="SVGID_7_" gradientUnits="userSpaceOnUse" x1="195.792" y1="560.6123" x2="354.5632" y2="563.0737">
			<stop  offset="0" style="stop-color:#B38C53"/>
			<stop  offset="1" style="stop-color:#CA9E5E"/>
		</linearGradient>
		<path fill="url(#SVGID_7_)" stroke="#000000" stroke-width="0.9231" stroke-linejoin="round" stroke-miterlimit="10" d="
			M375.733,640.456l-22.008-26.146c-0.152-1.732-0.316-3.453-0.537-5.174c-1.307-10.742-3.949-21.154-7.635-31.031
			c-5.971-16.01-14.719-30.59-25.158-42.832c-18.473-21.637-42.256-35.955-65.379-37.855h-0.068
			c-2.131-0.164-4.25-0.232-6.367-0.191c-21.775,0.439-37.703,27.785-39.85,56.105l-12.902,4.885
			c3.742-38.721,26.768-73.77,56.604-73.77c22.461,0,43.506,8.076,61.648,22.283c14.967,11.719,27.951,27.619,38.117,46.602
			c7.84,14.623,14.002,31.074,18.102,48.859C373.118,614.378,374.962,627.183,375.733,640.456z"/>
		<linearGradient id="SVGID_8_" gradientUnits="userSpaceOnUse" x1="200.7422" y1="629.7891" x2="373.2747" y2="586.4234">
			<stop  offset="0" style="stop-color:#6B382A"/>
			<stop  offset="1" style="stop-color:#AA6A55"/>
		</linearGradient>
		<path fill="url(#SVGID_8_)" stroke="#000000" stroke-width="0.9231" stroke-linejoin="round" stroke-miterlimit="10" d="
			M377.741,658.146l-184.416-88.76c0-3.482-0.33-7.223,0-10.578l183.48,85.803L377.741,658.146z"/>
		<linearGradient id="SVGID_9_" gradientUnits="userSpaceOnUse" x1="271.3105" y1="498.209" x2="546.8515" y2="437.7469">
			<stop  offset="0" style="stop-color:#FECA76"/>
			<stop  offset="1" style="stop-color:#EEB666"/>
		</linearGradient>
		<path fill="url(#SVGID_9_)" stroke="#000000" stroke-width="0.9231" stroke-linejoin="round" stroke-miterlimit="10" d="
			M569.144,442.603l-255.063,64.127c-18.143-14.207-39.188-22.283-61.648-22.283l270.975-53.865
			C537.423,430.581,553.532,434.858,569.144,442.603z"/>
		<linearGradient id="SVGID_10_" gradientUnits="userSpaceOnUse" x1="335.249" y1="529.3408" x2="594.944" y2="444.4168">
			<stop  offset="0" style="stop-color:#F7C573"/>
			<stop  offset="1" style="stop-color:#DFAB60"/>
		</linearGradient>
		<path fill="url(#SVGID_10_)" stroke="#000000" stroke-width="0.9231" stroke-linejoin="round" stroke-miterlimit="10" d="
			M606.571,469.716l-254.373,83.615c-10.166-18.982-23.15-34.883-38.117-46.602l255.063-64.127
			C582.526,449.249,595.554,458.45,606.571,469.716z"/>
		<linearGradient id="SVGID_11_" gradientUnits="userSpaceOnUse" x1="359.7998" y1="578.3008" x2="620.729" y2="481.0676">
			<stop  offset="0" style="stop-color:#EABB6E"/>
			<stop  offset="1" style="stop-color:#D3A25B"/>
		</linearGradient>
		<path fill="url(#SVGID_11_)" stroke="#000000" stroke-width="0.9231" stroke-linejoin="round" stroke-miterlimit="10" d="
			M629.378,502.63L370.3,602.19c-4.1-17.785-10.262-34.236-18.102-48.859l254.373-83.615
			C615.952,479.304,623.888,490.374,629.378,502.63z"/>
		<linearGradient id="SVGID_12_" gradientUnits="userSpaceOnUse" x1="369.3047" y1="622.8477" x2="637.6147" y2="512.6924">
			<stop  offset="0" style="stop-color:#DCB068"/>
			<stop  offset="1" style="stop-color:#C49754"/>
		</linearGradient>
		<path fill="url(#SVGID_12_)" stroke="#000000" stroke-width="0.9231" stroke-linejoin="round" stroke-miterlimit="10" d="
			M636.64,527.638L375.733,640.456c-0.771-13.273-2.615-26.078-5.434-38.266l259.078-99.561c3.383,7.566,5.832,15.584,7.111,23.963
			C636.544,526.935,636.585,527.294,636.64,527.638z"/>
		<linearGradient id="SVGID_13_" gradientUnits="userSpaceOnUse" x1="633.3418" y1="503.4326" x2="397.5845" y2="695.0444">
			<stop  offset="0" style="stop-color:#6B382A"/>
			<stop  offset="1" style="stop-color:#AA6A55"/>
		</linearGradient>
		<polygon fill="url(#SVGID_13_)" stroke="#000000" stroke-width="0.9231" stroke-linejoin="round" stroke-miterlimit="10" points="
			641.179,539.729 639.267,551.642 635.499,553.374 377.741,672.302 377.741,658.146 		"/>
		<linearGradient id="SVGID_14_" gradientUnits="userSpaceOnUse" x1="206.458" y1="685.1914" x2="344.9977" y2="632.4143">
			<stop  offset="0" style="stop-color:#B38C53"/>
			<stop  offset="1" style="stop-color:#C99D5D"/>
		</linearGradient>
		<polygon fill="url(#SVGID_14_)" stroke="#000000" stroke-width="0.9231" stroke-linejoin="round" stroke-miterlimit="10" points="
			252.378,746.647 224.921,728.38 202.692,607.677 235.224,625.161 247.935,715.159 		"/>
		<linearGradient id="SVGID_15_" gradientUnits="userSpaceOnUse" x1="263.1875" y1="726.5039" x2="225.1871" y2="599.9728">
			<stop  offset="0" style="stop-color:#FECA76"/>
			<stop  offset="1" style="stop-color:#CBA360"/>
		</linearGradient>
		<polygon fill="url(#SVGID_15_)" stroke="#000000" stroke-width="0.9231" stroke-linejoin="round" stroke-miterlimit="10" points="
			256.104,711.983 247.935,715.159 235.224,625.161 246.407,631.187 		"/>
		<linearGradient id="SVGID_16_" gradientUnits="userSpaceOnUse" x1="250.1582" y1="679.9385" x2="276.1037" y2="678.085">
			<stop  offset="0" style="stop-color:#B38C53"/>
			<stop  offset="1" style="stop-color:#C99D5D"/>
		</linearGradient>
		<polygon fill="url(#SVGID_16_)" stroke="#000000" stroke-width="0.9231" stroke-linejoin="round" stroke-miterlimit="10" points="
			280.933,726.759 256.104,711.983 246.407,631.187 247.163,631.585 273.382,645.683 		"/>
		<linearGradient id="SVGID_17_" gradientUnits="userSpaceOnUse" x1="301.5508" y1="711.5713" x2="345.7403" y2="714.7735">
			<stop  offset="0" style="stop-color:#B38C53"/>
			<stop  offset="1" style="stop-color:#C99D5D"/>
		</linearGradient>
		<polygon fill="url(#SVGID_17_)" stroke="#000000" stroke-width="0.9231" stroke-linejoin="round" stroke-miterlimit="10" points="
			342.501,763.39 312.583,745.593 305.604,663.013 337.368,680.081 		"/>
		<linearGradient id="SVGID_18_" gradientUnits="userSpaceOnUse" x1="243.3799" y1="782.1162" x2="385.1941" y2="728.0916">
			<stop  offset="0" style="stop-color:#B38C53"/>
			<stop  offset="1" style="stop-color:#C99D5D"/>
		</linearGradient>
		<polygon fill="url(#SVGID_18_)" stroke="#000000" stroke-width="0.9231" stroke-linejoin="round" stroke-miterlimit="10" points="
			345.335,808.499 252.435,747.052 252.38,746.644 247.931,715.157 343.056,772.177 		"/>
		<linearGradient id="SVGID_19_" gradientUnits="userSpaceOnUse" x1="273.5898" y1="695.3799" x2="316.1093" y2="695.9413">
			<stop  offset="0" style="stop-color:#B38C53"/>
			<stop  offset="1" style="stop-color:#C99D5D"/>
		</linearGradient>
		<polygon fill="url(#SVGID_19_)" stroke="#000000" stroke-width="0.9231" stroke-linejoin="round" stroke-miterlimit="10" points="
			312.583,745.587 280.933,726.759 273.382,645.683 305.61,663.001 305.61,663.017 		"/>
		<linearGradient id="SVGID_20_" gradientUnits="userSpaceOnUse" x1="184.8242" y1="503.1064" x2="294.9958" y2="609.7636">
			<stop  offset="0" style="stop-color:#7E695C"/>
			<stop  offset="1" style="stop-color:#C8A892"/>
		</linearGradient>
		<polygon fill="url(#SVGID_20_)" stroke="#000000" stroke-width="0.9231" stroke-linejoin="round" stroke-miterlimit="10" points="
			376.806,644.61 193.325,558.808 195.829,558.216 375.733,640.456 		"/>
		<linearGradient id="SVGID_21_" gradientUnits="userSpaceOnUse" x1="634.0869" y1="630.3662" x2="401.7224" y2="561.5958">
			<stop  offset="0" style="stop-color:#6B382A"/>
			<stop  offset="1" style="stop-color:#AA6A55"/>
		</linearGradient>
		<polygon fill="url(#SVGID_21_)" stroke="#000000" stroke-width="0.9231" stroke-linejoin="round" stroke-miterlimit="10" points="
			641.179,528.819 641.179,539.729 377.741,658.146 376.806,644.61 		"/>
		<linearGradient id="SVGID_22_" gradientUnits="userSpaceOnUse" x1="636.4893" y1="527.7061" x2="641.1787" y2="527.7061">
			<stop  offset="0" style="stop-color:#6B382A"/>
			<stop  offset="1" style="stop-color:#AA6A55"/>
		</linearGradient>
		<path fill="url(#SVGID_22_)" stroke="#000000" stroke-width="0.9231" stroke-linejoin="round" stroke-miterlimit="10" d="
			M641.179,528.819l-4.539-1.182c-0.055-0.344-0.096-0.703-0.15-1.045L641.179,528.819z"/>
		<linearGradient id="SVGID_23_" gradientUnits="userSpaceOnUse" x1="633.4141" y1="500.376" x2="431.7728" y2="636.3478">
			<stop  offset="0" style="stop-color:#7E695C"/>
			<stop  offset="1" style="stop-color:#C8A892"/>
		</linearGradient>
		<polygon fill="url(#SVGID_23_)" stroke="#000000" stroke-width="0.9231" stroke-linejoin="round" stroke-miterlimit="10" points="
			641.179,528.819 376.806,644.61 375.733,640.456 636.64,527.638 		"/>
		<linearGradient id="SVGID_24_" gradientUnits="userSpaceOnUse" x1="293.7979" y1="746.125" x2="299.9516" y2="737.2022">
			<stop  offset="0" style="stop-color:#FECA76"/>
			<stop  offset="1" style="stop-color:#CBA360"/>
		</linearGradient>
		<polygon fill="url(#SVGID_24_)" stroke="#000000" stroke-width="0.9231" stroke-linejoin="round" stroke-miterlimit="10" points="
			343.056,772.177 247.931,715.157 256.101,711.983 280.931,726.761 312.583,745.593 342.501,763.39 		"/>
		<linearGradient id="SVGID_25_" gradientUnits="userSpaceOnUse" x1="257.96" y1="812.7002" x2="381.4392" y2="742.3945">
			<stop  offset="0" style="stop-color:#B38C53"/>
			<stop  offset="1" style="stop-color:#C99D5D"/>
		</linearGradient>
		<polygon fill="url(#SVGID_25_)" stroke="#000000" stroke-width="0.9231" stroke-linejoin="round" stroke-miterlimit="10" points="
			379.222,831.062 345.335,808.499 343.056,772.177 342.501,763.39 337.368,680.081 376.776,700.72 		"/>
		<linearGradient id="SVGID_26_" gradientUnits="userSpaceOnUse" x1="455.9844" y1="738.4922" x2="457.8864" y2="741.9235">
			<stop  offset="0" style="stop-color:#BC9152"/>
			<stop  offset="1" style="stop-color:#EDB666"/>
		</linearGradient>
		<polygon fill="url(#SVGID_26_)" stroke="#000000" stroke-width="0.9231" stroke-linejoin="round" stroke-miterlimit="10" points="
			506.724,721.294 413.696,770.938 413.628,761.927 444.495,745.532 475.099,729.288 500.271,715.919 		"/>
		
			<line fill="none" stroke="#000000" stroke-width="0.9231" stroke-linejoin="round" stroke-miterlimit="10" x1="600.767" y1="671.104" x2="600.751" y2="671.104"/>
		<linearGradient id="SVGID_27_" gradientUnits="userSpaceOnUse" x1="600.6865" y1="584.9834" x2="600.9117" y2="657.1752">
			<stop  offset="0" style="stop-color:#C29756"/>
			<stop  offset="1" style="stop-color:#E8B467"/>
		</linearGradient>
		<polygon fill="url(#SVGID_27_)" stroke="#000000" stroke-width="0.9231" stroke-linejoin="round" stroke-miterlimit="10" points="
			608.222,589.839 600.751,671.089 593.421,667.005 599.103,594.212 		"/>
		
			<line fill="none" stroke="#000000" stroke-width="0.9231" stroke-linejoin="round" stroke-miterlimit="10" x1="600.767" y1="671.104" x2="600.751" y2="671.104"/>
		<linearGradient id="SVGID_28_" gradientUnits="userSpaceOnUse" x1="406.168" y1="717.21" x2="451.466" y2="712.6545">
			<stop  offset="0" style="stop-color:#B88D50"/>
			<stop  offset="0.3858" style="stop-color:#B2884D"/>
			<stop  offset="0.9844" style="stop-color:#A17C46"/>
			<stop  offset="1" style="stop-color:#A17C46"/>
		</linearGradient>
		<polygon fill="url(#SVGID_28_)" stroke="#000000" stroke-width="0.9231" stroke-linejoin="round" stroke-miterlimit="10" points="
			445.499,667.788 444.495,745.532 413.628,761.927 413.036,683.345 		"/>
		<linearGradient id="SVGID_29_" gradientUnits="userSpaceOnUse" x1="439.9199" y1="703.7051" x2="481.7488" y2="694.7">
			<stop  offset="0" style="stop-color:#B88D50"/>
			<stop  offset="0.3858" style="stop-color:#B2884D"/>
			<stop  offset="0.9844" style="stop-color:#A17C46"/>
			<stop  offset="1" style="stop-color:#A17C46"/>
		</linearGradient>
		<polygon fill="url(#SVGID_29_)" stroke="#000000" stroke-width="0.9231" stroke-linejoin="round" stroke-miterlimit="10" points="
			476.2,653.083 475.099,729.288 444.495,745.532 445.499,667.788 		"/>
		<linearGradient id="SVGID_30_" gradientUnits="userSpaceOnUse" x1="469.5361" y1="688.002" x2="511.4612" y2="681.527">
			<stop  offset="0" style="stop-color:#B88D50"/>
			<stop  offset="0.3858" style="stop-color:#B2884D"/>
			<stop  offset="0.9844" style="stop-color:#A17C46"/>
			<stop  offset="1" style="stop-color:#A17C46"/>
		</linearGradient>
		<polygon fill="url(#SVGID_30_)" stroke="#000000" stroke-width="0.9231" stroke-linejoin="round" stroke-miterlimit="10" points="
			501.647,640.897 500.271,715.919 475.099,729.288 476.2,653.083 501.331,641.048 		"/>
		<linearGradient id="SVGID_31_" gradientUnits="userSpaceOnUse" x1="503.1992" y1="636.2129" x2="506.2251" y2="718.4004">
			<stop  offset="0" style="stop-color:#C29756"/>
			<stop  offset="1" style="stop-color:#E8B467"/>
		</linearGradient>
		<polygon fill="url(#SVGID_31_)" stroke="#000000" stroke-width="0.9231" stroke-linejoin="round" stroke-miterlimit="10" points="
			509.103,637.335 506.724,721.282 506.724,721.294 500.271,715.919 501.647,640.897 		"/>
		<linearGradient id="SVGID_32_" gradientUnits="userSpaceOnUse" x1="422.7568" y1="676.0127" x2="637.2945" y2="667.4763">
			<stop  offset="0" style="stop-color:#B88D50"/>
			<stop  offset="1" style="stop-color:#A17C46"/>
		</linearGradient>
		<polygon fill="url(#SVGID_32_)" stroke="#000000" stroke-width="0.9231" stroke-linejoin="round" stroke-miterlimit="10" points="
			539.528,622.753 535.196,697.431 534.673,706.372 506.724,721.282 509.103,637.335 		"/>
		<linearGradient id="SVGID_33_" gradientUnits="userSpaceOnUse" x1="533.4463" y1="657.5752" x2="562.0884" y2="653.5347">
			<stop  offset="0" style="stop-color:#B88D50"/>
			<stop  offset="0.3858" style="stop-color:#B2884D"/>
			<stop  offset="0.9844" style="stop-color:#A17C46"/>
			<stop  offset="1" style="stop-color:#A17C46"/>
		</linearGradient>
		<polygon fill="url(#SVGID_33_)" stroke="#000000" stroke-width="0.9231" stroke-linejoin="round" stroke-miterlimit="10" points="
			557.644,614.062 553.765,687.733 535.196,697.431 539.528,622.753 		"/>
		<linearGradient id="SVGID_34_" gradientUnits="userSpaceOnUse" x1="553.2334" y1="646.9482" x2="581.8906" y2="643.9929">
			<stop  offset="0" style="stop-color:#B88D50"/>
			<stop  offset="0.3858" style="stop-color:#B2884D"/>
			<stop  offset="0.9844" style="stop-color:#A17C46"/>
			<stop  offset="1" style="stop-color:#A17C46"/>
		</linearGradient>
		<polygon fill="url(#SVGID_34_)" stroke="#000000" stroke-width="0.9231" stroke-linejoin="round" stroke-miterlimit="10" points="
			580.022,603.345 575.196,676.524 553.765,687.733 557.644,614.062 		"/>
		<linearGradient id="SVGID_35_" gradientUnits="userSpaceOnUse" x1="563.7432" y1="681.5693" x2="566.4975" y2="686.5383">
			<stop  offset="0" style="stop-color:#BC9152"/>
			<stop  offset="1" style="stop-color:#EDB666"/>
		</linearGradient>
		<polygon fill="url(#SVGID_35_)" stroke="#000000" stroke-width="0.9231" stroke-linejoin="round" stroke-miterlimit="10" points="
			600.751,671.089 600.751,671.104 534.673,706.372 535.196,697.431 553.765,687.733 575.196,676.524 593.421,667.005 		"/>
		<linearGradient id="SVGID_36_" gradientUnits="userSpaceOnUse" x1="575.7578" y1="638.8643" x2="602.0598" y2="630.7922">
			<stop  offset="0" style="stop-color:#B88D50"/>
			<stop  offset="0.3858" style="stop-color:#B2884D"/>
			<stop  offset="0.9844" style="stop-color:#A17C46"/>
			<stop  offset="1" style="stop-color:#A17C46"/>
		</linearGradient>
		<polygon fill="url(#SVGID_36_)" stroke="#000000" stroke-width="0.9231" stroke-linejoin="round" stroke-miterlimit="10" points="
			599.103,594.212 593.421,667.005 575.196,676.524 580.022,603.345 		"/>
		
			<line fill="none" stroke="#000000" stroke-width="0.9231" stroke-linejoin="round" stroke-miterlimit="10" x1="370.3" y1="602.19" x2="370.286" y2="602.19"/>
		
			<line fill="none" stroke="#000000" stroke-width="0.9231" stroke-linejoin="round" stroke-miterlimit="10" x1="352.198" y1="553.331" x2="352.185" y2="553.331"/>
		<linearGradient id="SVGID_37_" gradientUnits="userSpaceOnUse" x1="258.4258" y1="524.8242" x2="295.8103" y2="513.2858">
			<stop  offset="0" style="stop-color:#B38C53"/>
			<stop  offset="1" style="stop-color:#E6B36A"/>
		</linearGradient>
		<path fill="url(#SVGID_37_)" stroke="#000000" stroke-width="0.9231" stroke-linejoin="round" stroke-miterlimit="10" d="
			M320.396,535.272l-83.797-30.744c5.42-4.346,11.637-6.959,18.35-7.111h0.068C278.14,499.317,301.923,513.636,320.396,535.272z"/>
		<linearGradient id="SVGID_38_" gradientUnits="userSpaceOnUse" x1="200.6299" y1="550.0498" x2="252.4532" y2="496.4633">
			<stop  offset="0" style="stop-color:#FECA76"/>
			<stop  offset="1" style="stop-color:#A17C46"/>
		</linearGradient>
		<path fill="url(#SVGID_38_)" stroke="#000000" stroke-width="0.9231" stroke-linejoin="round" stroke-miterlimit="10" d="
			M254.948,497.417c-6.713,0.152-12.93,2.766-18.35,7.111h-0.014c-6.451,5.158-11.814,12.725-15.625,21.404
			c-3.369,7.646-5.557,16.162-6.244,24.662l-5.984,2.736c2.146-28.32,18.074-55.666,39.85-56.105
			C250.698,497.185,252.817,497.253,254.948,497.417z"/>
		<linearGradient id="SVGID_39_" gradientUnits="userSpaceOnUse" x1="239.2529" y1="558.1504" x2="302.3625" y2="537.6481">
			<stop  offset="0" style="stop-color:#B38C53"/>
			<stop  offset="1" style="stop-color:#E6B36A"/>
		</linearGradient>
		<path fill="url(#SVGID_39_)" stroke="#000000" stroke-width="0.9231" stroke-linejoin="round" stroke-miterlimit="10" d="
			M345.554,578.104L220.96,525.933c3.811-8.68,9.174-16.246,15.625-21.404h0.014l83.797,30.744
			C330.835,547.515,339.583,562.095,345.554,578.104z"/>
		<linearGradient id="SVGID_40_" gradientUnits="userSpaceOnUse" x1="270.7578" y1="591.7617" x2="297.9131" y2="551.4394">
			<stop  offset="0" style="stop-color:#B38C53"/>
			<stop  offset="1" style="stop-color:#E6B36A"/>
		</linearGradient>
		<path fill="url(#SVGID_40_)" stroke="#000000" stroke-width="0.9231" stroke-linejoin="round" stroke-miterlimit="10" d="
			M353.188,609.136l-138.473-58.541c0.688-8.5,2.875-17.016,6.244-24.662l124.594,52.172
			C349.239,587.981,351.882,598.394,353.188,609.136z"/>
		<path fill="none" stroke="#000000" stroke-width="0.9231" stroke-linejoin="round" stroke-miterlimit="10" d="M353.765,614.845
			c-0.014-0.18-0.027-0.357-0.039-0.535"/>
		<linearGradient id="SVGID_41_" gradientUnits="userSpaceOnUse" x1="281.5518" y1="583.0576" x2="282.9143" y2="579.8477">
			<stop  offset="0" style="stop-color:#FECA76"/>
			<stop  offset="1" style="stop-color:#CBA360"/>
		</linearGradient>
		<path fill="url(#SVGID_41_)" stroke="#000000" stroke-width="0.9231" stroke-linejoin="round" stroke-miterlimit="10" d="
			M353.726,614.31l-144.994-60.979l5.984-2.736l138.473,58.541C353.409,610.856,353.573,612.577,353.726,614.31z"/>
		<linearGradient id="SVGID_42_" gradientUnits="userSpaceOnUse" x1="195.2529" y1="595.3906" x2="354.0242" y2="597.8521">
			<stop  offset="0" style="stop-color:#B38C53"/>
			<stop  offset="1" style="stop-color:#CA9E5E"/>
		</linearGradient>
		<polygon fill="url(#SVGID_42_)" stroke="#000000" stroke-width="0.9231" stroke-linejoin="round" stroke-miterlimit="10" points="
			375.733,640.456 195.829,558.216 208.731,553.331 353.726,614.31 		"/>
		
			<line fill="none" stroke="#000000" stroke-width="0.9231" stroke-linejoin="round" stroke-miterlimit="10" x1="220.96" y1="525.933" x2="220.946" y2="525.933"/>
		
			<line fill="none" stroke="#000000" stroke-width="0.9231" stroke-linejoin="round" stroke-miterlimit="10" x1="320.423" y1="535.284" x2="320.396" y2="535.272"/>
	</g>
	<path fill="#7C194E" stroke="#BA7C2B" stroke-width="6" stroke-miterlimit="10" d="M645.442,268.123
		c-0.912-1.757,26.557-96.597,74.521-121.036c5.941-3.027-15.441,57.434-9.884,54.603c176.061-89.707,152.14-89.665,184.911-135.479
		c10.581-14.791,29.256,48.605,5.294,72.063c33.062-5.599,73.373,46.773,55.188,46.64c-56.328-0.415-42.232-19.743-218.295,69.965
		c-5.556,2.831,55.925,21.071,49.986,24.097C739.198,303.415,646.326,269.893,645.442,268.123z"/>
</g>
<g id="Layer_3">
</g>
<g id="Layer_1">
</g>
</svg>
