<?xml version="1.0" encoding="utf-8"?>
<!-- Generator: Adobe Illustrator 16.0.0, SVG Export Plug-In . SVG Version: 6.00 Build 0)  -->
<!DOCTYPE svg PUBLIC "-//W3C//DTD SVG 1.1//EN" "http://www.w3.org/Graphics/SVG/1.1/DTD/svg11.dtd">
<svg version="1.1" id="Layer_1" xmlns="http://www.w3.org/2000/svg" xmlns:xlink="http://www.w3.org/1999/xlink" x="0px" y="0px"
	 width="1024px" height="1024px" viewBox="0 0 1024 1024" enable-background="new 0 0 1024 1024" xml:space="preserve">
<rect fill="#93268F" width="1024" height="1024"/>
<g>
	<path d="M336.111,409.111l-18.979-74.809h10.211l8.879,37.849c2.221,9.323,4.218,18.646,5.55,25.861h0.222
		c1.221-7.437,3.553-16.316,6.105-25.972l9.988-37.738h10.101l9.102,37.959c2.108,8.879,4.106,17.759,5.217,25.639h0.222
		c1.555-8.213,3.663-16.538,5.994-25.861l9.878-37.738h9.878l-21.199,74.809h-10.1l-9.436-38.958
		c-2.33-9.545-3.885-16.871-4.883-24.418h-0.223c-1.332,7.436-2.996,14.762-5.771,24.418l-10.654,38.958H336.111z"/>
	<path d="M416.922,330.307h9.767v33.52h0.222c1.555-2.774,3.996-5.216,6.993-6.881c2.886-1.665,6.326-2.775,9.989-2.775
		c7.215,0,18.758,4.44,18.758,22.976v31.966h-9.768v-30.856c0-8.657-3.219-15.983-12.432-15.983c-6.326,0-11.32,4.44-13.097,9.768
		c-0.555,1.332-0.666,2.774-0.666,4.662v32.41h-9.767V330.307z"/>
	<path d="M489.402,340.296c0.111,3.33-2.33,5.994-6.215,5.994c-3.441,0-5.883-2.664-5.883-5.994c0-3.44,2.553-6.104,6.104-6.104
		C487.072,334.191,489.402,336.855,489.402,340.296z M478.525,409.111v-53.72h9.768v53.72H478.525z"/>
	<path d="M503.166,399.122c2.887,1.887,7.992,3.885,12.876,3.885c7.104,0,10.433-3.552,10.433-7.992
		c0-4.662-2.774-7.214-9.989-9.878c-9.656-3.44-14.206-8.768-14.206-15.206c0-8.658,6.992-15.761,18.535-15.761
		c5.438,0,10.211,1.554,13.208,3.33l-2.441,7.104c-2.109-1.332-5.994-3.108-10.988-3.108c-5.772,0-8.991,3.33-8.991,7.326
		c0,4.439,3.219,6.438,10.212,9.101c9.323,3.552,14.096,8.213,14.096,16.205c0,9.434-7.325,16.094-20.09,16.094
		c-5.882,0-11.321-1.443-15.095-3.663L503.166,399.122z"/>
	<path d="M548.454,372.928c0-6.881-0.222-12.431-0.444-17.537h8.769l0.444,9.212h0.222c3.996-6.549,10.322-10.434,19.091-10.434
		c12.986,0,22.753,10.988,22.753,27.304c0,19.313-11.765,28.858-24.418,28.858c-7.104,0-13.319-3.107-16.538-8.435h-0.222v29.191
		h-9.656V372.928z M558.11,387.246c0,1.443,0.222,2.775,0.444,3.996c1.775,6.771,7.658,11.432,14.65,11.432
		c10.322,0,16.316-8.436,16.316-20.756c0-10.766-5.661-19.979-15.983-19.979c-6.659,0-12.875,4.773-14.762,12.098
		c-0.333,1.221-0.666,2.664-0.666,3.996V387.246z"/>
	<path d="M617.05,384.027c0.222,13.208,8.657,18.647,18.425,18.647c6.992,0,11.21-1.221,14.873-2.775l1.665,6.993
		c-3.441,1.554-9.323,3.33-17.87,3.33c-16.538,0-26.416-10.877-26.416-27.082c0-16.205,9.545-28.969,25.195-28.969
		c17.537,0,22.198,15.428,22.198,25.307c0,1.998-0.222,3.552-0.333,4.55H617.05z M645.686,377.035
		c0.111-6.216-2.553-15.872-13.541-15.872c-9.878,0-14.207,9.102-14.983,15.872H645.686z"/>
	<path d="M667.222,372.151c0-6.327-0.111-11.765-0.444-16.76h8.547l0.333,10.544h0.443c2.442-7.214,8.325-11.765,14.873-11.765
		c1.11,0,1.888,0.111,2.775,0.333v9.212c-0.999-0.222-1.998-0.333-3.33-0.333c-6.882,0-11.765,5.217-13.097,12.542
		c-0.223,1.332-0.444,2.886-0.444,4.55v28.636h-9.656V372.151z"/>
	<path d="M410.26,467.502h40.289v8.103h-30.633v24.862h28.303v7.992h-28.303v33.853h-9.656V467.502z"/>
	<path d="M488.734,542.312l-0.777-6.771h-0.332c-2.997,4.218-8.769,7.991-16.428,7.991c-10.877,0-16.426-7.658-16.426-15.428
		c0-12.986,11.543-20.09,32.299-19.979v-1.11c0-4.44-1.222-12.431-12.21-12.431c-4.995,0-10.211,1.554-13.985,3.996l-2.219-6.438
		c4.439-2.886,10.877-4.773,17.647-4.773c16.427,0,20.423,11.21,20.423,21.977v20.09c0,4.661,0.222,9.212,0.888,12.875H488.734z
		 M487.292,514.896c-10.655-0.222-22.754,1.665-22.754,12.098c0,6.327,4.218,9.324,9.212,9.324c6.993,0,11.434-4.44,12.986-8.991
		c0.334-0.999,0.556-2.108,0.556-3.107V514.896z"/>
	<path d="M550.782,540.313c-2.553,1.332-8.213,3.108-15.428,3.108c-16.205,0-26.749-10.988-26.749-27.416
		c0-16.538,11.321-28.524,28.858-28.524c5.771,0,10.877,1.443,13.541,2.774l-2.22,7.548c-2.331-1.332-5.994-2.553-11.321-2.553
		c-12.32,0-18.98,9.101-18.98,20.312c0,12.431,7.992,20.09,18.647,20.09c5.549,0,9.212-1.443,11.986-2.664L550.782,540.313z"/>
	<path d="M566.991,517.228c0.222,13.208,8.657,18.646,18.425,18.646c6.992,0,11.21-1.221,14.873-2.774l1.665,6.992
		c-3.441,1.554-9.323,3.33-17.87,3.33c-16.538,0-26.416-10.878-26.416-27.083c0-16.205,9.545-28.969,25.195-28.969
		c17.537,0,22.198,15.428,22.198,25.307c0,1.998-0.222,3.552-0.333,4.551H566.991z M595.627,510.235
		c0.111-6.216-2.553-15.872-13.541-15.872c-9.878,0-14.207,9.102-14.983,15.872H595.627z"/>
</g>
</svg>
