<?xml version="1.0" encoding="utf-8"?>
<!-- Generator: Adobe Illustrator 16.0.0, SVG Export Plug-In . SVG Version: 6.00 Build 0)  -->
<!DOCTYPE svg PUBLIC "-//W3C//DTD SVG 1.1//EN" "http://www.w3.org/Graphics/SVG/1.1/DTD/svg11.dtd">
<svg version="1.1" xmlns="http://www.w3.org/2000/svg" xmlns:xlink="http://www.w3.org/1999/xlink" x="0px" y="0px" width="1024px"
	 height="1024px" viewBox="0 0 1024 1024" enable-background="new 0 0 1024 1024" xml:space="preserve">
<g id="Layer_4">
</g>
<g id="Layer_7">
</g>
<g id="Layer_9">
	<g>
		
			<path fill="#6F3650" stroke="#532A3E" stroke-width="3.45" stroke-linecap="round" stroke-linejoin="round" stroke-miterlimit="10" d="
			M795.857,100.973l-23.809,34.703H203.838l-23.813-34.703C181.623,97.094,794.264,97.094,795.857,100.973z"/>
		
			<path fill="#602F44" stroke="#532A3E" stroke-width="3.45" stroke-linecap="round" stroke-linejoin="round" stroke-miterlimit="10" d="
			M203.838,135.676c0,67.086-54.332,121.449-121.371,121.449l-34.324-24.227c81.16-19.402,119.551-68.609,131.883-131.926
			L203.838,135.676z"/>
		
			<path fill="#6F3650" stroke="#532A3E" stroke-width="3.45" stroke-linecap="round" stroke-linejoin="round" stroke-miterlimit="10" d="
			M82.467,257.125v565.074l-34.324,24.223c-2.398-2.59-2.398-610.934,0-613.523L82.467,257.125z"/>
		
			<path fill="#56242E" stroke="#532A3E" stroke-width="3.45" stroke-linecap="round" stroke-linejoin="round" stroke-miterlimit="10" d="
			M893.42,257.125v565.074c-67.047,0-121.371,54.355-121.371,121.441H203.838c0-67.086-54.332-121.441-121.371-121.441V257.125
			c67.039,0,121.371-54.363,121.371-121.449h568.211C772.049,202.762,826.373,257.125,893.42,257.125z"/>
		
			<path fill="#482335" stroke="#532A3E" stroke-width="3.45" stroke-linecap="round" stroke-linejoin="round" stroke-miterlimit="10" d="
			M927.744,232.898l-34.324,24.227c-67.047,0-121.371-54.363-121.371-121.449l23.809-34.703
			C807.623,161.379,859.811,216.66,927.744,232.898z"/>
		
			<path fill="#331A25" stroke="#532A3E" stroke-width="3.45" stroke-linecap="round" stroke-linejoin="round" stroke-miterlimit="10" d="
			M927.744,846.422l-34.324-24.223V257.125l34.324-24.227C930.143,235.488,930.143,843.832,927.744,846.422z"/>
		
			<path fill="#331A25" stroke="#532A3E" stroke-width="3.45" stroke-linecap="round" stroke-linejoin="round" stroke-miterlimit="10" d="
			M795.857,978.344c-1.594,3.891-614.234,3.891-615.832,0l23.813-34.703h568.211L795.857,978.344z"/>
		
			<path fill="#482335" stroke="#532A3E" stroke-width="3.45" stroke-linecap="round" stroke-linejoin="round" stroke-miterlimit="10" d="
			M203.838,943.641l-23.813,34.711c-11.906-61.145-52.879-113.043-131.883-131.926l34.324-24.223
			C149.514,822.199,203.838,876.555,203.838,943.641z"/>
		
			<path fill="#2D1720" stroke="#532A3E" stroke-width="3.45" stroke-linecap="round" stroke-linejoin="round" stroke-miterlimit="10" d="
			M927.744,846.422c-69.941,16.723-119.23,66.938-131.887,131.922l-23.809-34.703c0-67.086,54.324-121.441,121.371-121.441
			L927.744,846.422z"/>
	</g>
	<g>
		<path fill="#1B3C6D" stroke="#010101" stroke-width="3.678" stroke-miterlimit="10" d="M854.15,321.77
			c7.855,0.215,15.617-11.168,23.148-11.168c86.449,0,115.633-59.363,113.617-136.945C988.939,97.395,930.939,25.719,854.15,27.398
			l0,0c-76.793-1.68-134.793,69.996-136.77,146.258c-2.016,77.582,27.168,136.945,113.621,136.945
			C838.529,310.602,846.291,321.984,854.15,321.77z"/>
		<path fill="none" stroke="#010101" stroke-width="9.808" stroke-linejoin="round" stroke-miterlimit="10" d="M949.553,195.422
			l-17.207-11.23l17.227-12.477h0.004l0.082-24.359L854.373,73.66l-95.277,73.695l0.074,24.359h0.004l17.23,12.477l-17.211,11.23
			l-0.887,53.32l26.984,19.762c0.039-0.023,50.895-30.563,69.082-40.348c18.188,9.777,69.047,40.324,69.086,40.348l26.98-19.762
			L949.553,195.422z"/>
		<path fill="#9CCEEF" d="M854.373,133.313v58.855c-20.824,11.203-96.063,56.574-96.066,56.574l0.887-53.32l17.211-11.23
			L854.373,133.313z"/>
		<polygon fill="#9CCEEF" points="854.373,73.66 854.373,103.57 759.174,171.715 759.17,171.715 759.096,147.355 		"/>
		<polygon fill="#79A3BD" points="949.572,171.715 932.346,184.191 854.373,133.313 776.404,184.191 759.174,171.715 
			854.373,103.57 		"/>
		<polygon fill="#5895BD" points="949.658,147.355 949.576,171.715 949.572,171.715 854.373,103.57 854.373,73.66 		"/>
		<path fill="#79A3BD" d="M950.439,248.742l-26.984,19.762c-0.035-0.023-50.895-30.563-69.082-40.348
			c-18.188,9.777-69.043,40.324-69.082,40.348l-26.984-19.762c0.004,0,75.242-45.371,96.066-56.574
			C875.197,203.371,950.439,248.742,950.439,248.742z"/>
		<path fill="#5895BD" d="M854.373,133.313v58.855c20.824,11.203,96.066,56.574,96.066,56.574l-0.887-53.32l-17.207-11.23
			L854.373,133.313z"/>
	</g>
	<g>
		<linearGradient id="SVGID_1_" gradientUnits="userSpaceOnUse" x1="472.3267" y1="664" x2="746.1274" y2="647.0264">
			<stop  offset="0" style="stop-color:#764B41"/>
			<stop  offset="1" style="stop-color:#684137"/>
		</linearGradient>
		<polygon fill="url(#SVGID_1_)" stroke="#000000" stroke-width="1.2059" stroke-linejoin="round" stroke-miterlimit="10" points="
			727.754,564.623 724.021,605.361 483.785,746.832 483.392,695.047 604.916,630.194 604.916,630.18 641.434,610.698 		"/>
		<linearGradient id="SVGID_2_" gradientUnits="userSpaceOnUse" x1="548.0029" y1="494.8525" x2="786.0453" y2="530.0591">
			<stop  offset="0" style="stop-color:#764B41"/>
			<stop  offset="1" style="stop-color:#684137"/>
		</linearGradient>
		<polygon fill="url(#SVGID_2_)" stroke="#000000" stroke-width="1.2059" stroke-linejoin="round" stroke-miterlimit="10" points="
			769.502,443.137 753.111,588.235 724.021,605.361 727.754,564.623 727.754,564.604 737.512,458.461 		"/>
		<linearGradient id="SVGID_3_" gradientUnits="userSpaceOnUse" x1="431.6875" y1="672.6797" x2="678.9633" y2="710.7385">
			<stop  offset="0" style="stop-color:#764B41"/>
			<stop  offset="1" style="stop-color:#684137"/>
		</linearGradient>
		<polygon fill="url(#SVGID_3_)" stroke="#000000" stroke-width="1.2059" stroke-linejoin="round" stroke-miterlimit="10" points="
			483.79,746.832 438.353,773.586 435.158,603.316 482.522,580.621 483.298,683.275 483.392,695.047 		"/>
		
			<line fill="none" stroke="#000000" stroke-width="1.2059" stroke-linejoin="round" stroke-miterlimit="10" x1="773.15" y1="410.828" x2="773.15" y2="410.808"/>
		<linearGradient id="SVGID_4_" gradientUnits="userSpaceOnUse" x1="424.2476" y1="518.0693" x2="777.4542" y2="496.4817">
			<stop  offset="0" style="stop-color:#764B41"/>
			<stop  offset="1" style="stop-color:#684137"/>
		</linearGradient>
		<polygon fill="url(#SVGID_4_)" stroke="#000000" stroke-width="1.2059" stroke-linejoin="round" stroke-miterlimit="10" points="
			773.15,410.828 769.502,443.137 737.512,458.461 725.6,464.176 700.678,476.108 671.439,490.106 647.775,501.465 608.021,520.516 
			598.289,525.164 597.881,525.361 565.043,541.084 524.938,560.297 482.527,580.621 435.163,603.316 434.444,565.184 
			436.422,566.188 		"/>
		
			<line fill="none" stroke="#000000" stroke-width="1.2059" stroke-linejoin="round" stroke-miterlimit="10" x1="434.444" y1="565.184" x2="434.444" y2="565.132"/>
		<linearGradient id="SVGID_5_" gradientUnits="userSpaceOnUse" x1="208.5215" y1="417.6475" x2="439.6686" y2="585.415">
			<stop  offset="0" style="stop-color:#777475"/>
			<stop  offset="1" style="stop-color:#A8ABAD"/>
		</linearGradient>
		<polygon fill="url(#SVGID_5_)" stroke="#000000" stroke-width="1.2059" stroke-linejoin="round" stroke-miterlimit="10" points="
			436.422,547.695 436.422,566.188 434.444,565.184 201.363,447.123 198.185,445.508 195.508,431.743 		"/>
		<linearGradient id="SVGID_6_" gradientUnits="userSpaceOnUse" x1="222.3091" y1="543.5313" x2="399.0911" y2="509.8038">
			<stop  offset="0" style="stop-color:#734B40"/>
			<stop  offset="1" style="stop-color:#815549"/>
		</linearGradient>
		<polygon fill="url(#SVGID_6_)" stroke="#000000" stroke-width="1.2059" stroke-linejoin="round" stroke-miterlimit="10" points="
			435.158,603.316 383.685,576.35 342.19,554.059 342.19,554.043 300.092,531.419 265.842,512.994 264.853,512.477 250.238,504.604 
			207.741,481.771 201.363,447.133 434.449,565.184 		"/>
		<linearGradient id="SVGID_7_" gradientUnits="userSpaceOnUse" x1="198.7305" y1="420.2803" x2="406.1476" y2="423.4958">
			<stop  offset="0" style="stop-color:#734B40"/>
			<stop  offset="1" style="stop-color:#82564A"/>
		</linearGradient>
		<path fill="url(#SVGID_7_)" stroke="#000000" stroke-width="1.2059" stroke-linejoin="round" stroke-miterlimit="10" d="
			M433.803,524.586l-28.759-34.152c-0.196-2.262-0.409-4.515-0.693-6.762c-1.709-14.029-5.161-27.634-9.976-40.535
			c-7.797-20.92-19.228-39.966-32.869-55.957c-24.129-28.266-55.201-46.971-85.409-49.451h-0.088
			c-2.785-0.212-5.55-0.311-8.314-0.254c-28.446,0.575-49.253,36.297-52.059,73.301l-16.856,6.373
			c4.888-50.578,34.965-96.368,73.942-96.368c29.349,0,56.832,10.55,80.543,29.114c19.548,15.304,36.508,36.084,49.786,60.882
			c10.245,19.097,18.296,40.587,23.648,63.825C430.386,490.521,432.787,507.248,433.803,524.586z"/>
		<linearGradient id="SVGID_8_" gradientUnits="userSpaceOnUse" x1="205.1973" y1="510.6514" x2="430.5868" y2="454.0002">
			<stop  offset="0" style="stop-color:#777475"/>
			<stop  offset="1" style="stop-color:#A8ABAD"/>
		</linearGradient>
		<path fill="url(#SVGID_8_)" stroke="#000000" stroke-width="1.2059" stroke-linejoin="round" stroke-miterlimit="10" d="
			M436.422,547.695L195.508,431.743c0-4.546-0.43-9.433,0-13.818L435.2,530.017L436.422,547.695z"/>
		<linearGradient id="SVGID_9_" gradientUnits="userSpaceOnUse" x1="297.3838" y1="338.7617" x2="657.342" y2="259.7758">
			<stop  offset="0" style="stop-color:#AC7360"/>
			<stop  offset="1" style="stop-color:#986352"/>
		</linearGradient>
		<path fill="url(#SVGID_9_)" stroke="#000000" stroke-width="1.2059" stroke-linejoin="round" stroke-miterlimit="10" d="
			M686.463,266.121l-333.198,83.773c-23.711-18.564-51.194-29.114-80.543-29.114l353.995-70.366
			C645.027,250.414,666.07,256,686.463,266.121z"/>
		<linearGradient id="SVGID_10_" gradientUnits="userSpaceOnUse" x1="380.917" y1="379.4326" x2="720.1716" y2="268.4914">
			<stop  offset="0" style="stop-color:#A26D5B"/>
			<stop  offset="1" style="stop-color:#8E5D4D"/>
		</linearGradient>
		<path fill="url(#SVGID_10_)" stroke="#000000" stroke-width="1.2059" stroke-linejoin="round" stroke-miterlimit="10" d="
			M735.359,301.537L403.051,410.776c-13.278-24.798-30.238-45.578-49.786-60.882l333.198-83.773
			C703.945,274.803,720.967,286.824,735.359,301.537z"/>
		<linearGradient id="SVGID_11_" gradientUnits="userSpaceOnUse" x1="412.9824" y1="443.3936" x2="753.8484" y2="316.3726">
			<stop  offset="0" style="stop-color:#9A6756"/>
			<stop  offset="1" style="stop-color:#865748"/>
		</linearGradient>
		<path fill="url(#SVGID_11_)" stroke="#000000" stroke-width="1.2059" stroke-linejoin="round" stroke-miterlimit="10" d="
			M765.146,344.537L426.699,474.602c-5.353-23.238-13.403-44.729-23.648-63.825l332.309-109.239
			C747.613,314.065,757.982,328.524,765.146,344.537z"/>
		<linearGradient id="SVGID_12_" gradientUnits="userSpaceOnUse" x1="425.4048" y1="501.583" x2="775.9099" y2="357.6824">
			<stop  offset="0" style="stop-color:#906050"/>
			<stop  offset="1" style="stop-color:#7D5142"/>
		</linearGradient>
		<path fill="url(#SVGID_12_)" stroke="#000000" stroke-width="1.2059" stroke-linejoin="round" stroke-miterlimit="10" d="
			M774.637,377.209L433.803,524.586c-1.016-17.338-3.417-34.064-7.104-49.984l338.447-130.064c4.428,9.888,7.621,20.36,9.293,31.299
			C774.512,376.292,774.564,376.752,774.637,377.209z"/>
		<linearGradient id="SVGID_13_" gradientUnits="userSpaceOnUse" x1="770.3301" y1="345.584" x2="462.3455" y2="595.8986">
			<stop  offset="0" style="stop-color:#777475"/>
			<stop  offset="1" style="stop-color:#A8ABAD"/>
		</linearGradient>
		<polygon fill="url(#SVGID_13_)" stroke="#000000" stroke-width="1.2059" stroke-linejoin="round" stroke-miterlimit="10" points="
			780.57,393.004 778.068,408.565 773.15,410.828 436.422,566.188 436.422,547.695 		"/>
		<linearGradient id="SVGID_14_" gradientUnits="userSpaceOnUse" x1="212.6641" y1="583.0303" x2="393.6447" y2="514.0851">
			<stop  offset="0" style="stop-color:#734B40"/>
			<stop  offset="1" style="stop-color:#815549"/>
		</linearGradient>
		<polygon fill="url(#SVGID_14_)" stroke="#000000" stroke-width="1.2059" stroke-linejoin="round" stroke-miterlimit="10" points="
			272.654,663.313 236.783,639.446 207.746,481.768 250.243,504.608 266.846,622.176 		"/>
		<linearGradient id="SVGID_15_" gradientUnits="userSpaceOnUse" x1="286.772" y1="636.9941" x2="237.1313" y2="471.7039">
			<stop  offset="0" style="stop-color:#AC7360"/>
			<stop  offset="1" style="stop-color:#855849"/>
		</linearGradient>
		<polygon fill="url(#SVGID_15_)" stroke="#000000" stroke-width="1.2059" stroke-linejoin="round" stroke-miterlimit="10" points="
			277.521,618.024 266.846,622.176 250.243,504.608 264.853,512.477 		"/>
		<linearGradient id="SVGID_16_" gradientUnits="userSpaceOnUse" x1="269.7524" y1="576.165" x2="303.6462" y2="573.7437">
			<stop  offset="0" style="stop-color:#734B40"/>
			<stop  offset="1" style="stop-color:#815549"/>
		</linearGradient>
		<polygon fill="url(#SVGID_16_)" stroke="#000000" stroke-width="1.2059" stroke-linejoin="round" stroke-miterlimit="10" points="
			309.954,637.329 277.521,618.024 264.853,512.477 265.842,513 300.092,531.414 		"/>
		<linearGradient id="SVGID_17_" gradientUnits="userSpaceOnUse" x1="336.8955" y1="617.4893" x2="394.6204" y2="621.6724">
			<stop  offset="0" style="stop-color:#734B40"/>
			<stop  offset="1" style="stop-color:#815549"/>
		</linearGradient>
		<polygon fill="url(#SVGID_17_)" stroke="#000000" stroke-width="1.2059" stroke-linejoin="round" stroke-miterlimit="10" points="
			390.389,685.18 351.303,661.936 342.19,554.059 383.685,576.35 		"/>
		<linearGradient id="SVGID_18_" gradientUnits="userSpaceOnUse" x1="260.8936" y1="709.6475" x2="446.1523" y2="639.0726">
			<stop  offset="0" style="stop-color:#734B40"/>
			<stop  offset="1" style="stop-color:#815549"/>
		</linearGradient>
		<polygon fill="url(#SVGID_18_)" stroke="#000000" stroke-width="1.2059" stroke-linejoin="round" stroke-miterlimit="10" points="
			394.09,744.113 272.722,663.84 272.659,663.307 266.841,622.176 391.107,696.668 		"/>
		<linearGradient id="SVGID_19_" gradientUnits="userSpaceOnUse" x1="300.3618" y1="596.335" x2="355.9099" y2="597.0685">
			<stop  offset="0" style="stop-color:#734B40"/>
			<stop  offset="1" style="stop-color:#815549"/>
		</linearGradient>
		<polygon fill="url(#SVGID_19_)" stroke="#000000" stroke-width="1.2059" stroke-linejoin="round" stroke-miterlimit="10" points="
			351.303,661.925 309.954,637.329 300.092,531.414 342.19,554.043 342.19,554.063 		"/>
		<linearGradient id="SVGID_20_" gradientUnits="userSpaceOnUse" x1="184.4028" y1="345.1582" x2="328.3284" y2="484.4926">
			<stop  offset="0" style="stop-color:#95979A"/>
			<stop  offset="1" style="stop-color:#E2E3E4"/>
		</linearGradient>
		<polygon fill="url(#SVGID_20_)" stroke="#000000" stroke-width="1.2059" stroke-linejoin="round" stroke-miterlimit="10" points="
			435.2,530.017 195.508,417.925 198.779,417.148 433.803,524.586 		"/>
		<linearGradient id="SVGID_21_" gradientUnits="userSpaceOnUse" x1="771.3066" y1="511.4082" x2="467.7517" y2="421.5684">
			<stop  offset="0" style="stop-color:#777475"/>
			<stop  offset="1" style="stop-color:#A8ABAD"/>
		</linearGradient>
		<polygon fill="url(#SVGID_21_)" stroke="#000000" stroke-width="1.2059" stroke-linejoin="round" stroke-miterlimit="10" points="
			780.57,378.751 780.57,393.004 436.422,547.695 435.2,530.017 		"/>
		<linearGradient id="SVGID_22_" gradientUnits="userSpaceOnUse" x1="774.4395" y1="377.293" x2="780.5703" y2="377.293">
			<stop  offset="0" style="stop-color:#777475"/>
			<stop  offset="1" style="stop-color:#A8ABAD"/>
		</linearGradient>
		<path fill="url(#SVGID_22_)" stroke="#000000" stroke-width="1.2059" stroke-linejoin="round" stroke-miterlimit="10" d="
			M780.57,378.751l-5.934-1.542c-0.072-0.457-0.125-0.917-0.197-1.373L780.57,378.751z"/>
		<linearGradient id="SVGID_23_" gradientUnits="userSpaceOnUse" x1="770.4258" y1="341.5918" x2="507.0081" y2="519.2211">
			<stop  offset="0" style="stop-color:#95979A"/>
			<stop  offset="1" style="stop-color:#E2E3E4"/>
		</linearGradient>
		<polygon fill="url(#SVGID_23_)" stroke="#000000" stroke-width="1.2059" stroke-linejoin="round" stroke-miterlimit="10" points="
			780.57,378.751 435.2,530.017 433.803,524.586 774.637,377.209 		"/>
		<linearGradient id="SVGID_24_" gradientUnits="userSpaceOnUse" x1="326.7612" y1="662.6309" x2="334.8032" y2="650.9702">
			<stop  offset="0" style="stop-color:#AC7360"/>
			<stop  offset="1" style="stop-color:#855849"/>
		</linearGradient>
		<polygon fill="url(#SVGID_24_)" stroke="#000000" stroke-width="1.2059" stroke-linejoin="round" stroke-miterlimit="10" points="
			391.107,696.668 266.841,622.176 277.516,618.024 309.954,637.334 351.303,661.936 390.389,685.18 		"/>
		<linearGradient id="SVGID_25_" gradientUnits="userSpaceOnUse" x1="279.9487" y1="749.5947" x2="441.2483" y2="657.7551">
			<stop  offset="0" style="stop-color:#734B40"/>
			<stop  offset="1" style="stop-color:#815549"/>
		</linearGradient>
		<polygon fill="url(#SVGID_25_)" stroke="#000000" stroke-width="1.2059" stroke-linejoin="round" stroke-miterlimit="10" points="
			438.353,773.586 394.09,744.113 391.107,696.668 390.389,685.18 383.685,576.35 435.158,603.316 		"/>
		<linearGradient id="SVGID_26_" gradientUnits="userSpaceOnUse" x1="538.6309" y1="652.6572" x2="541.1161" y2="657.1407">
			<stop  offset="0" style="stop-color:#784D40"/>
			<stop  offset="1" style="stop-color:#986353"/>
		</linearGradient>
		<polygon fill="url(#SVGID_26_)" stroke="#000000" stroke-width="1.2059" stroke-linejoin="round" stroke-miterlimit="10" points="
			604.916,630.194 483.392,695.047 483.304,683.27 523.627,661.857 563.604,640.632 596.492,623.17 		"/>
		
			<line fill="none" stroke="#000000" stroke-width="1.2059" stroke-linejoin="round" stroke-miterlimit="10" x1="727.77" y1="564.623" x2="727.754" y2="564.623"/>
		<linearGradient id="SVGID_27_" gradientUnits="userSpaceOnUse" x1="727.6699" y1="452.1191" x2="727.9641" y2="546.4269">
			<stop  offset="0" style="stop-color:#7C5143"/>
			<stop  offset="1" style="stop-color:#956252"/>
		</linearGradient>
		<polygon fill="url(#SVGID_27_)" stroke="#000000" stroke-width="1.2059" stroke-linejoin="round" stroke-miterlimit="10" points="
			737.512,458.461 727.754,564.604 718.182,559.271 725.6,464.176 		"/>
		
			<line fill="none" stroke="#000000" stroke-width="1.2059" stroke-linejoin="round" stroke-miterlimit="10" x1="727.77" y1="564.623" x2="727.754" y2="564.623"/>
		<linearGradient id="SVGID_28_" gradientUnits="userSpaceOnUse" x1="473.5576" y1="624.8564" x2="532.7307" y2="618.9056">
			<stop  offset="0" style="stop-color:#764B41"/>
			<stop  offset="0.4404" style="stop-color:#72483E"/>
			<stop  offset="1" style="stop-color:#684137"/>
		</linearGradient>
		<polygon fill="url(#SVGID_28_)" stroke="#000000" stroke-width="1.2059" stroke-linejoin="round" stroke-miterlimit="10" points="
			524.938,560.297 523.627,661.857 483.304,683.27 482.527,580.621 		"/>
		<linearGradient id="SVGID_29_" gradientUnits="userSpaceOnUse" x1="517.6514" y1="607.2148" x2="572.2929" y2="595.4514">
			<stop  offset="0" style="stop-color:#764B41"/>
			<stop  offset="0.4404" style="stop-color:#72483E"/>
			<stop  offset="1" style="stop-color:#684137"/>
		</linearGradient>
		<polygon fill="url(#SVGID_29_)" stroke="#000000" stroke-width="1.2059" stroke-linejoin="round" stroke-miterlimit="10" points="
			565.043,541.084 563.604,640.632 523.627,661.857 524.938,560.297 		"/>
		<linearGradient id="SVGID_30_" gradientUnits="userSpaceOnUse" x1="556.3369" y1="586.6982" x2="611.1099" y2="578.239">
			<stop  offset="0" style="stop-color:#764B41"/>
			<stop  offset="0.4404" style="stop-color:#72483E"/>
			<stop  offset="1" style="stop-color:#684137"/>
		</linearGradient>
		<polygon fill="url(#SVGID_30_)" stroke="#000000" stroke-width="1.2059" stroke-linejoin="round" stroke-miterlimit="10" points="
			598.289,525.164 596.492,623.17 563.604,640.632 565.043,541.084 597.881,525.361 		"/>
		<linearGradient id="SVGID_31_" gradientUnits="userSpaceOnUse" x1="600.3135" y1="519.0488" x2="604.2663" y2="626.4137">
			<stop  offset="0" style="stop-color:#7C5143"/>
			<stop  offset="1" style="stop-color:#956252"/>
		</linearGradient>
		<polygon fill="url(#SVGID_31_)" stroke="#000000" stroke-width="1.2059" stroke-linejoin="round" stroke-miterlimit="10" points="
			608.021,520.516 604.916,630.18 604.916,630.194 596.492,623.17 598.289,525.164 		"/>
		<linearGradient id="SVGID_32_" gradientUnits="userSpaceOnUse" x1="495.2163" y1="571.04" x2="775.5021" y2="559.8875">
			<stop  offset="0" style="stop-color:#764B41"/>
			<stop  offset="1" style="stop-color:#684137"/>
		</linearGradient>
		<polygon fill="url(#SVGID_32_)" stroke="#000000" stroke-width="1.2059" stroke-linejoin="round" stroke-miterlimit="10" points="
			647.775,501.465 642.111,599.015 641.434,610.698 604.916,630.18 608.021,520.516 		"/>
		<linearGradient id="SVGID_33_" gradientUnits="userSpaceOnUse" x1="639.8262" y1="546.9512" x2="677.2464" y2="541.6724">
			<stop  offset="0" style="stop-color:#764B41"/>
			<stop  offset="0.4404" style="stop-color:#72483E"/>
			<stop  offset="1" style="stop-color:#684137"/>
		</linearGradient>
		<polygon fill="url(#SVGID_33_)" stroke="#000000" stroke-width="1.2059" stroke-linejoin="round" stroke-miterlimit="10" points="
			671.439,490.106 666.371,586.346 642.111,599.015 647.775,501.465 		"/>
		<linearGradient id="SVGID_34_" gradientUnits="userSpaceOnUse" x1="665.6777" y1="533.0674" x2="703.1174" y2="529.2064">
			<stop  offset="0" style="stop-color:#764B41"/>
			<stop  offset="0.4404" style="stop-color:#72483E"/>
			<stop  offset="1" style="stop-color:#684137"/>
		</linearGradient>
		<polygon fill="url(#SVGID_34_)" stroke="#000000" stroke-width="1.2059" stroke-linejoin="round" stroke-miterlimit="10" points="
			700.678,476.108 694.373,571.701 666.371,586.346 671.439,490.106 		"/>
		<linearGradient id="SVGID_35_" gradientUnits="userSpaceOnUse" x1="679.4063" y1="578.292" x2="683.0047" y2="584.7837">
			<stop  offset="0" style="stop-color:#784D40"/>
			<stop  offset="1" style="stop-color:#986353"/>
		</linearGradient>
		<polygon fill="url(#SVGID_35_)" stroke="#000000" stroke-width="1.2059" stroke-linejoin="round" stroke-miterlimit="10" points="
			727.754,564.604 727.754,564.623 641.434,610.698 642.111,599.015 666.371,586.346 694.373,571.701 718.182,559.271 		"/>
		<linearGradient id="SVGID_36_" gradientUnits="userSpaceOnUse" x1="695.1045" y1="522.5049" x2="729.4618" y2="511.9606">
			<stop  offset="0" style="stop-color:#764B41"/>
			<stop  offset="0.4404" style="stop-color:#72483E"/>
			<stop  offset="1" style="stop-color:#684137"/>
		</linearGradient>
		<polygon fill="url(#SVGID_36_)" stroke="#000000" stroke-width="1.2059" stroke-linejoin="round" stroke-miterlimit="10" points="
			725.6,464.176 718.182,559.271 694.373,571.701 700.678,476.108 		"/>
		
			<line fill="none" stroke="#000000" stroke-width="1.2059" stroke-linejoin="round" stroke-miterlimit="10" x1="426.699" y1="474.602" x2="426.679" y2="474.602"/>
		
			<line fill="none" stroke="#000000" stroke-width="1.2059" stroke-linejoin="round" stroke-miterlimit="10" x1="403.051" y1="410.776" x2="403.035" y2="410.776"/>
		<linearGradient id="SVGID_37_" gradientUnits="userSpaceOnUse" x1="280.5542" y1="373.5322" x2="329.3903" y2="358.4594">
			<stop  offset="0" style="stop-color:#734B40"/>
			<stop  offset="1" style="stop-color:#946255"/>
		</linearGradient>
		<path fill="url(#SVGID_37_)" stroke="#000000" stroke-width="1.2059" stroke-linejoin="round" stroke-miterlimit="10" d="
			M361.506,387.18L252.04,347.017c7.082-5.679,15.199-9.091,23.969-9.288h0.088C306.305,340.209,337.377,358.914,361.506,387.18z"/>
		<linearGradient id="SVGID_38_" gradientUnits="userSpaceOnUse" x1="205.0479" y1="406.4863" x2="272.7482" y2="336.4825">
			<stop  offset="0" style="stop-color:#AC7360"/>
			<stop  offset="1" style="stop-color:#684137"/>
		</linearGradient>
		<path fill="url(#SVGID_38_)" stroke="#000000" stroke-width="1.2059" stroke-linejoin="round" stroke-miterlimit="10" d="
			M276.009,337.729c-8.77,0.197-16.887,3.609-23.969,9.288h-0.016c-8.434,6.74-15.438,16.624-20.418,27.96
			c-4.405,9.992-7.253,21.117-8.154,32.217l-7.816,3.582c2.806-37.004,23.612-72.726,52.059-73.301
			C270.459,337.418,273.224,337.517,276.009,337.729z"/>
		<linearGradient id="SVGID_39_" gradientUnits="userSpaceOnUse" x1="255.5049" y1="417.0684" x2="337.9508" y2="390.2844">
			<stop  offset="0" style="stop-color:#734B40"/>
			<stop  offset="1" style="stop-color:#946255"/>
		</linearGradient>
		<path fill="url(#SVGID_39_)" stroke="#000000" stroke-width="1.2059" stroke-linejoin="round" stroke-miterlimit="10" d="
			M394.375,443.137l-162.769-68.16c4.98-11.336,11.984-21.22,20.418-27.96h0.016l109.466,40.163
			C375.147,403.171,386.578,422.217,394.375,443.137z"/>
		<linearGradient id="SVGID_40_" gradientUnits="userSpaceOnUse" x1="296.665" y1="460.9717" x2="332.1369" y2="408.3002">
			<stop  offset="0" style="stop-color:#734B40"/>
			<stop  offset="1" style="stop-color:#946255"/>
		</linearGradient>
		<path fill="url(#SVGID_40_)" stroke="#000000" stroke-width="1.2059" stroke-linejoin="round" stroke-miterlimit="10" d="
			M404.351,483.672l-180.898-76.479c0.901-11.1,3.749-22.225,8.154-32.217l162.769,68.16
			C399.189,456.038,402.642,469.643,404.351,483.672z"/>
		<path fill="none" stroke="#000000" stroke-width="1.2059" stroke-linejoin="round" stroke-miterlimit="10" d="M405.102,491.127
			c-0.021-0.232-0.037-0.466-0.058-0.693"/>
		<linearGradient id="SVGID_41_" gradientUnits="userSpaceOnUse" x1="310.7646" y1="449.6064" x2="312.5459" y2="445.4101">
			<stop  offset="0" style="stop-color:#AC7360"/>
			<stop  offset="1" style="stop-color:#855849"/>
		</linearGradient>
		<path fill="url(#SVGID_41_)" stroke="#000000" stroke-width="1.2059" stroke-linejoin="round" stroke-miterlimit="10" d="
			M405.044,490.434l-189.408-79.658l7.816-3.582l180.898,76.479C404.635,485.919,404.848,488.172,405.044,490.434z"/>
		<linearGradient id="SVGID_42_" gradientUnits="userSpaceOnUse" x1="198.0264" y1="465.7168" x2="405.4435" y2="468.9324">
			<stop  offset="0" style="stop-color:#734B40"/>
			<stop  offset="1" style="stop-color:#82564A"/>
		</linearGradient>
		<polygon fill="url(#SVGID_42_)" stroke="#000000" stroke-width="1.2059" stroke-linejoin="round" stroke-miterlimit="10" points="
			433.803,524.586 198.779,417.148 215.636,410.775 405.044,490.434 		"/>
		
			<line fill="none" stroke="#000000" stroke-width="1.2059" stroke-linejoin="round" stroke-miterlimit="10" x1="231.606" y1="374.977" x2="231.591" y2="374.977"/>
		
			<line fill="none" stroke="#000000" stroke-width="1.2059" stroke-linejoin="round" stroke-miterlimit="10" x1="361.542" y1="387.2" x2="361.506" y2="387.18"/>
	</g>
	<g>
		<g>
			<path fill="#BA7C2B" d="M269.914,874.036c-6.981,0-12.24-0.731-16.537-2.302c-16.342-5.808-27.575-15.686-33.394-29.359
				c-1.145-2.476-2.676-6.918-5.824-23.277c-1.013-5.041-2.082-7.095-2.408-7.637c-2.817-2.418-4.549-5.876-4.785-9.599
				c-0.249-3.924,1.188-7.768,3.95-10.567c0.427-0.433,1.912-2.26,3.158-7.661c0.305-1.447,0.73-3.38,1.278-5.797
				c0.54-2.385,2.011-8.936,2.02-8.973c3.052-13.084,9.584-23.229,19.415-30.153c8.375-5.886,18.072-8.866,28.832-8.866
				c6.233,0,12.346,1.341,18.281,4c1.292-0.399,2.663-0.614,4.085-0.614h22.515c7.622,0,13.8,6.179,13.8,13.8v44.225
				c0,4.12-1.806,7.819-4.669,10.348c5.236,1.959,8.964,7.009,8.964,12.929v2.962c0,26.662-13.114,40.45-24.115,47.322
				c-0.067,0.042-0.135,0.084-0.203,0.124C294.231,870.976,282.67,874.036,269.914,874.036z"/>
			<path fill="#BA7C2B" d="M327.677,870.862c-7.622,0-13.8-6.179-13.8-13.8v-17.986c0-7.621,6.178-13.8,13.8-13.8h1.753v-0.955
				l-0.114-1.636c-0.022-0.319-0.033-0.64-0.033-0.96c0-6.827-0.148-8.682-0.176-8.97c-0.008-0.06-0.016-0.119-0.022-0.18
				c-0.033-0.276-0.07-0.507-0.105-0.696c-2.977-2.316-4.9-5.773-5.263-9.585c-0.425-4.467,1.349-8.861,4.754-11.782
				c0.468-0.401,1.108-0.95,1.108-3.278c0-0.054-0.003-0.569-0.112-2.067c-0.123-1.655-0.184-2.994-0.184-4.069v-2.281h-1.605
				c-7.622,0-13.8-6.179-13.8-13.8V747.03c0-7.621,6.178-13.8,13.8-13.8H389c7.622,0,13.8,6.179,13.8,13.8v17.986
				c0,3.994-1.73,7.793-4.745,10.414c-2.527,2.197-5.748,3.386-9.054,3.386c-0.232,0-0.465-0.006-0.698-0.018
				c-0.011,0.811-0.018,1.715-0.018,2.723c0,5.298,0.154,7.132,0.202,7.571c0.127,0.581,0.239,0.663,0.403,0.784
				c2.243,1.652,3.88,3.898,4.791,6.41h21.241c7.622,0,13.8,6.179,13.8,13.8v46.976c0,7.621-6.178,13.8-13.8,13.8H327.677z"/>
			<path fill="#BA7C2B" d="M484.389,870.862c-2.034,0-3.964-0.439-5.703-1.229c-1.738,0.79-3.669,1.229-5.703,1.229h-45.473
				c-7.622,0-13.8-6.179-13.8-13.8v-17.986c0-7.621,6.178-13.8,13.8-13.8h1.119c0.158-0.389,0.341-0.855,0.549-1.412
				c0.595-1.586,1.244-3.63,1.931-6.078c0.031-0.111,0.064-0.223,0.098-0.333c1.503-4.884,2.157-7.621,2.441-9.046
				c-2.258-3.541-2.805-7.971-1.375-12.017c1.36-3.848,4.328-6.843,8.04-8.276c0.622-0.947,1.731-2.939,3.143-6.741
				c0.015-0.04,0.03-0.08,0.045-0.12c0.379-0.991,0.717-1.922,1.02-2.794c-6.112-1.419-10.667-6.898-10.667-13.442V747.03
				c0-7.621,6.178-13.8,13.8-13.8h72.727c7.621,0,13.8,6.179,13.8,13.8v17.986c0,3.899-1.649,7.616-4.541,10.232
				c-1.238,1.121-2.656,1.995-4.178,2.598c0.476,1.582,1.008,3.146,1.595,4.688c0.013,0.032,0.024,0.063,0.036,0.095
				c1.006,2.701,1.819,4.329,2.354,5.254c3.191,1.218,5.873,3.6,7.44,6.754c2.107,4.242,1.883,9.247-0.542,13.267
				c-0.041,0.281-0.092,0.781-0.092,1.548c0.01,0.201,0.183,2.835,2.832,11.713c0.488,1.657,0.914,3.011,1.278,4.111
				c7.56,0.073,13.665,6.224,13.665,13.8v17.986c0,7.621-6.179,13.8-13.8,13.8H484.389z"/>
			<path fill="#BA7C2B" d="M553.41,870.862c-7.621,0-13.8-6.179-13.8-13.8v-17.986c0-4.041,1.771-7.879,4.847-10.501
				c2.429-2.071,5.479-3.219,8.62-3.295c0.009-1.027,0.014-2.205,0.014-3.555c0-6.044-0.09-8.573-0.146-9.561
				c-0.051-0.151-0.094-0.24-0.113-0.271c-3.503-2.683-5.492-6.853-5.386-11.264c0.103-4.256,2.181-8.193,5.586-10.721
				c0.025-1.071,0.059-3.53,0.059-9.023c0-0.747-0.002-1.437-0.006-2.074c-3.107-0.072-6.129-1.195-8.551-3.229
				c-3.121-2.622-4.924-6.49-4.924-10.567V747.03c0-7.621,6.179-13.8,13.8-13.8h58.953c7.621,0,13.8,6.179,13.8,13.8v17.986
				c0,7.621-6.179,13.8-13.8,13.8h-0.266c0.026,0.344,0.056,0.698,0.088,1.066c0.036,0.404,0.054,0.81,0.054,1.215v1.059
				c0,0.788-0.048,1.611-0.148,2.537v2.329c0,1.374,0.159,2.149,0.261,2.506c3.471,2.604,5.523,6.698,5.517,11.057
				c-0.006,4.302-2.017,8.341-5.413,10.939c-0.044,0.161-0.097,0.393-0.146,0.706c-0.025,0.736-0.07,2.963-0.07,9.495
				c0,1.391,0.003,2.563,0.008,3.551h0.116c7.621,0,13.8,6.179,13.8,13.8v17.986c0,7.621-6.179,13.8-13.8,13.8H553.41z"/>
			<path fill="#BA7C2B" d="M697.68,870.862c-1.583,0-3.104-0.267-4.521-0.758c-1.422,0.493-2.942,0.758-4.514,0.758H669.98
				c-1.409,0-2.777-0.213-4.069-0.612c-1.289,0.398-2.658,0.612-4.077,0.612h-34.66c-7.621,0-13.8-6.179-13.8-13.8v-17.986
				c0-4.15,1.867-8.08,5.086-10.7c1.684-1.372,3.645-2.309,5.714-2.77c0.008-1.101,0.013-2.384,0.013-3.881
				c0-2.942-0.023-5.311-0.069-7.039c-0.032-1.151-0.068-1.81-0.091-2.141c-0.174-0.774-0.37-1.199-0.461-1.344
				c-3.204-2.648-5.045-6.602-5.008-10.761c0.038-4.186,1.974-8.128,5.262-10.718c0.097-0.075,0.209-0.319,0.311-0.652
				c0.024-0.996,0.057-3.248,0.057-8.185c0-0.876-0.002-1.677-0.005-2.407c-2.081-0.464-4.051-1.407-5.738-2.789
				c-3.2-2.621-5.069-6.537-5.069-10.674V747.03c0-7.621,6.179-13.8,13.8-13.8h50.213c3.754,0,7.195,1.509,9.704,3.987
				c2.464-2.228,5.724-3.563,9.255-3.563h49.621c7.621,0,13.8,6.179,13.8,13.8v17.563c0,3.895-1.646,7.607-4.531,10.224
				c-1.868,1.694-4.144,2.825-6.568,3.31c-0.006,0.766-0.01,1.612-0.01,2.548c0,5.534,0.098,7.691,0.149,8.446
				c0.002,0.005,0.004,0.011,0.005,0.016c3.315,2.513,5.328,6.395,5.462,10.559c0.136,4.221-1.663,8.276-4.893,10.998
				c-0.759,0.64-0.872,2.547-0.872,3.626v2.584c0.099,0.978,0.148,1.955,0.148,2.918v1.481c0,1.469,0.005,2.732,0.013,3.818
				c2.105,0.42,4.11,1.331,5.84,2.694c3.319,2.617,5.257,6.611,5.257,10.838v17.986c0,7.621-6.179,13.8-13.8,13.8H697.68z"/>
		</g>
		<g>
			<path fill="#231F20" d="M269.914,867.137c-6.107,0-10.766-0.625-14.242-1.91c-14.444-5.116-24.36-13.763-29.388-25.667
				c-0.996-2.143-2.429-6.579-5.36-21.82c-1.771-8.844-4.014-10.983-4.445-11.322c-1.546-1.214-2.502-3.029-2.627-4.991
				c-0.125-1.963,0.594-3.885,1.975-5.284c2.094-2.122,3.817-5.933,4.985-11.021c0.301-1.429,0.723-3.348,1.269-5.759
				c0.541-2.391,1.206-5.35,1.997-8.874c2.668-11.44,8.277-20.215,16.682-26.136c7.185-5.049,15.546-7.607,24.858-7.607
				c6.195,0,12.298,1.598,18.229,4.763c1.153-0.864,2.585-1.377,4.137-1.377h22.515c3.811,0,6.9,3.09,6.9,6.9v44.225
				c0,3.811-3.089,6.9-6.9,6.9h-26.662c-3.811,0-6.9-3.09-6.9-6.9c0-4.388-0.411-18.703-5.69-18.703
				c-1.415,0-2.31,0.323-3.281,2.095c-1.5,2.741-2.261,6.512-2.261,11.203c0,4.63,1.042,7.992,3.098,9.993
				c2.668,2.598,2.794,6.845,0.284,9.596c-2.212,2.424-3.381,6.926-3.381,13.021c0,13.717,4.403,13.717,6.283,13.717
				c1.959,0,3.229-0.482,4.332-3.032c0.638-1.459,1.723-5.277,1.953-14.779c0.091-3.745,3.152-6.733,6.898-6.733h29.624
				c3.811,0,6.9,3.09,6.9,6.9v2.962c0,18.867-7.021,32.819-20.87,41.471c-0.034,0.021-0.068,0.041-0.102,0.062
				C291.765,864.407,281.4,867.137,269.914,867.137z"/>
			<path fill="#231F20" d="M327.677,863.963c-3.811,0-6.9-3.09-6.9-6.9v-17.986c0-3.811,3.089-6.9,6.9-6.9h8.351
				c0.157-0.925,0.302-2.364,0.302-4.525v-3.569l-0.131-1.876c-0.011-0.159-0.017-0.319-0.017-0.479c0-7.597-0.177-9.45-0.23-9.837
				c-0.006-0.045-0.012-0.089-0.018-0.134c-0.301-2.516-0.996-4.257-1.905-4.776c-1.948-1.113-3.233-3.104-3.445-5.337
				s0.674-4.431,2.377-5.892c2.399-2.057,3.517-4.763,3.517-8.516c0-0.354-0.023-1.088-0.13-2.568
				c-0.111-1.493-0.166-2.665-0.166-3.568v-2.75c0-0.314,0.021-0.628,0.064-0.938c0.073-0.528,0.083-0.832,0.083-0.966v-1.481
				c0-1.433-0.11-2.409-0.229-3.045h-8.424c-3.811,0-6.9-3.09-6.9-6.9V747.03c0-3.811,3.089-6.9,6.9-6.9H389
				c3.811,0,6.9,3.09,6.9,6.9v17.986c0,1.997-0.865,3.896-2.373,5.207c-1.264,1.099-2.874,1.693-4.527,1.693
				c-0.318,0-0.639-0.022-0.958-0.067c-0.854-0.12-1.4-0.145-1.708-0.145h-2.222c-1.136,0-1.899,0.093-2.382,0.188
				c-0.15,1.306-0.346,4.074-0.346,9.628c0,6.834,0.249,8.484,0.299,8.746c0.463,2.315,1.448,3.938,3.114,5.165
				c2.219,1.635,3.253,4.433,2.629,7.117c-0.459,1.977-1.752,3.612-3.485,4.532c-0.265,0.304-0.73,0.878-1.434,1.884
				c-0.684,0.977-0.994,1.57-1.123,1.854v20.742c0.738-0.252,1.421-0.625,2.074-1.128c1.082-0.821,2.048-1.934,2.048-4.688v-15.659
				c0-3.811,3.089-6.9,6.9-6.9h22.515c3.811,0,6.9,3.09,6.9,6.9v46.976c0,3.811-3.089,6.9-6.9,6.9H327.677z"/>
			<path fill="#231F20" d="M484.389,863.963c-2.37,0-4.46-1.195-5.703-3.015c-1.242,1.819-3.333,3.015-5.703,3.015h-45.473
				c-3.811,0-6.9-3.09-6.9-6.9v-17.986c0-3.811,3.089-6.9,6.9-6.9h1.926c0.917,0,1.921,0.055,3.049,0.166
				c0.283-0.273,0.824-0.901,1.521-2.214c0.3-0.571,0.84-1.725,1.633-3.842c0.663-1.768,1.374-4,2.113-6.636
				c0.016-0.056,0.032-0.111,0.049-0.167c2.811-9.131,2.954-11.72,2.954-12.146c0-1.005-0.268-1.376-0.518-1.645
				c-1.752-1.881-2.314-4.579-1.458-7.003c0.833-2.357,2.873-4.074,5.325-4.499c0.41-0.269,2.728-2.085,5.821-10.415
				c1.985-5.198,3.031-9.047,3.551-11.858h-5.821c-3.811,0-6.9-3.09-6.9-6.9V747.03c0-3.811,3.089-6.9,6.9-6.9h72.727
				c3.811,0,6.9,3.09,6.9,6.9v17.986c0,1.949-0.825,3.809-2.271,5.116c-1.274,1.153-2.927,1.784-4.63,1.784
				c-0.229,0-0.458-0.012-0.688-0.035c-1.142-0.114-2.083-0.174-2.801-0.177c0.834,4.533,2.078,8.983,3.716,13.286
				c2.408,6.466,4.236,8.453,4.786,8.94c2.277,0.288,4.279,1.696,5.313,3.775c1.123,2.262,0.922,4.956-0.526,7.025
				c-0.138,0.198-0.827,1.354-0.827,4.72c0,0.972,0.304,4.25,3.12,13.687c1.448,4.917,2.452,7.535,3.049,8.881
				c0.956,0.082,2.445,0.156,4.706,0.156c3.811,0,6.9,3.09,6.9,6.9v17.986c0,3.811-3.09,6.9-6.9,6.9H484.389z M474.86,832.435
				c1.577,0.444,2.925,1.436,3.827,2.757c0.298-0.438,0.649-0.845,1.048-1.209c0.803-0.734,1.76-1.26,2.785-1.548H474.86z"/>
			<path fill="#231F20" d="M553.41,863.963c-3.811,0-6.9-3.09-6.9-6.9v-17.986c0-2.021,0.886-3.939,2.424-5.251
				c1.257-1.071,2.848-1.649,4.477-1.649c0.362,0,0.728,0.029,1.091,0.087c0.519,0.083,0.999,0.125,1.429,0.125h2.221
				c0.789,0,1.313-0.07,1.636-0.14c0.082-1.124,0.204-3.905,0.204-10.522c0-7.688-0.146-10.05-0.209-10.706
				c-0.469-2.045-1.335-3.496-2.715-4.553c-1.751-1.342-2.756-3.439-2.703-5.645c0.054-2.206,1.158-4.253,2.973-5.508
				c1.451-1.004,2.245-2.344,2.564-4.332c0.028-0.539,0.09-2.578,0.09-10.096c0-5.324-0.096-7.972-0.176-9.255
				c-0.388-0.071-0.973-0.138-1.813-0.138c-0.477,0-1.021,0.026-1.616,0.078c-0.565,0.052-1.174,0.134-1.784,0.24
				c-0.396,0.07-0.795,0.104-1.191,0.104c-1.611,0-3.186-0.564-4.438-1.617c-1.562-1.311-2.463-3.245-2.463-5.283V747.03
				c0-3.811,3.09-6.9,6.9-6.9h58.953c3.811,0,6.9,3.09,6.9,6.9v17.986c0,3.811-3.09,6.9-6.9,6.9h-7.091
				c-0.123,0.797-0.229,1.979-0.229,3.68c0,0.6,0.021,1.29,0.063,2.052c0.046,0.862,0.114,1.804,0.206,2.842
				c0.018,0.202,0.027,0.404,0.027,0.607v1.059c0,0.627-0.048,1.316-0.148,2.141v2.726c0,5.92,2.119,7.394,2.815,7.878
				c1.858,1.291,2.965,3.412,2.962,5.675c-0.004,2.263-1.116,4.381-2.978,5.667c-0.51,0.352-2.059,1.423-2.559,5.35
				c-0.001,0.009-0.002,0.017-0.003,0.024c-0.028,0.507-0.09,2.496-0.09,10.109c0,7.076,0.072,8.751,0.1,9.127
				c0.005,0.045,0.01,0.089,0.015,0.134c0.046,0.462,0.099,0.856,0.153,1.189h6.756c3.811,0,6.9,3.09,6.9,6.9v17.986
				c0,3.811-3.09,6.9-6.9,6.9H553.41z"/>
			<path fill="#231F20" d="M697.68,863.963c-1.728,0-3.308-0.636-4.518-1.685c-1.222,1.058-2.81,1.685-4.518,1.685H669.98
				c-1.509,0-2.923-0.489-4.073-1.331c-1.142,0.837-2.55,1.331-4.073,1.331h-34.66c-3.811,0-6.9-3.09-6.9-6.9v-17.986
				c0-2.075,0.935-4.04,2.543-5.351c1.242-1.011,2.784-1.55,4.357-1.55c0.466,0,0.934,0.048,1.397,0.144
				c0.295,0.061,0.432,0.069,0.433,0.07l1.576-0.002c0.132,0,0.242-0.005,0.333-0.012c0.051-0.703,0.173-3.171,0.173-10.65
				c0-3.003-0.023-5.433-0.071-7.223c-0.052-1.851-0.116-2.652-0.146-2.944c-0.505-2.632-1.446-4.481-2.876-5.649
				c-1.621-1.324-2.554-3.313-2.534-5.405c0.019-2.093,0.986-4.064,2.631-5.359c1.489-1.173,2.42-2.804,2.914-5.115
				c0.029-0.63,0.083-2.671,0.083-9.143c0-5.113-0.062-7.791-0.119-9.173c-0.115-0.006-0.243-0.009-0.387-0.009h-1.617
				c0.022,0.001-0.124,0.015-0.429,0.076c-0.452,0.091-0.907,0.136-1.36,0.136c-1.58,0-3.128-0.543-4.372-1.563
				c-1.6-1.31-2.528-3.27-2.528-5.338V747.03c0-3.811,3.09-6.9,6.9-6.9h50.213c3.431,0,6.34,2.521,6.829,5.916
				c0.867,6.012,1.69,11.774,2.469,17.275c0.902-5.305,1.855-10.979,2.854-16.997c0.553-3.329,3.432-5.771,6.807-5.771h49.621
				c3.811,0,6.9,3.09,6.9,6.9v17.563c0,1.947-0.823,3.804-2.266,5.112c-1.275,1.155-2.93,1.788-4.635,1.788
				c-0.224,0-0.449-0.012-0.674-0.033c-0.652-0.064-1.261-0.097-1.808-0.097c-0.688,0-1.185,0.051-1.528,0.109
				c-0.093,1.342-0.199,4.014-0.199,9.201c0,6.861,0.149,8.93,0.215,9.502c0.389,2.005,1.199,3.371,2.613,4.416
				c1.698,1.254,2.729,3.218,2.797,5.328c0.067,2.11-0.835,4.136-2.449,5.497c-1.427,1.203-3.324,3.436-3.324,8.901v2.954
				c0.099,0.855,0.148,1.71,0.148,2.548v1.481c0,7.248,0.11,9.771,0.175,10.625c0.146,0.021,0.352,0.037,0.628,0.037h1.629
				c0.054,0,0.105-0.006,0.166-0.021c0.533-0.128,1.074-0.191,1.611-0.191c1.534,0,3.042,0.513,4.271,1.481
				c1.66,1.309,2.629,3.306,2.629,5.419v17.986c0,3.811-3.09,6.9-6.9,6.9H697.68z"/>
		</g>
		<g>
			<path fill="#EDE6B1" d="M297.167,853.111c-7.901,4.748-16.985,7.125-27.254,7.125c-5.235,0-9.184-0.496-11.85-1.481
				c-12.738-4.513-21.232-11.85-25.477-22.006c-1.088-2.255-2.717-9.026-4.888-20.313c-1.581-7.898-3.902-13.047-6.962-15.447
				c3.06-3.101,5.332-7.898,6.813-14.389c0.296-1.408,0.715-3.313,1.259-5.713c0.542-2.397,1.208-5.359,2-8.888
				c2.271-9.733,6.91-17.066,13.923-22.006c6.022-4.232,12.983-6.349,20.885-6.349c7.504,0,14.861,2.894,22.07,8.676
				c0.196-0.562,0.296-2.327,0.296-5.29h22.515v44.225h-26.662c0-17.066-4.198-25.604-12.59-25.604c-4.147,0-7.258,1.895-9.332,5.68
				c-2.073,3.789-3.11,8.626-3.11,14.519c0,6.592,1.727,11.571,5.185,14.938c-3.458,3.789-5.185,9.677-5.185,17.672
				c0,13.747,4.393,20.617,13.183,20.617c5.036,0,8.591-2.396,10.665-7.194c1.481-3.386,2.319-9.168,2.518-17.351h29.624v2.962
				C314.793,833.898,308.917,845.771,297.167,853.111z"/>
			<path fill="#EDE6B1" d="M327.677,857.063v-17.986h10.813c3.159,0,4.739-3.809,4.739-11.426v-3.81l-0.147-2.115
				c0-5.783-0.1-9.38-0.297-10.792c-0.592-4.937-2.369-8.252-5.332-9.945c3.948-3.386,5.925-7.968,5.925-13.754
				c0-0.704-0.051-1.726-0.148-3.068c-0.1-1.339-0.147-2.36-0.147-3.068v-2.75c0.097-0.704,0.147-1.34,0.147-1.904
				c0-0.705,0-1.197,0-1.481c0-6.629-1.877-9.945-5.628-9.945h-9.925V747.03H389v17.986c-0.988-0.139-1.877-0.212-2.666-0.212
				c-0.792,0-1.532,0-2.222,0c-4.84,0-7.754,1.27-8.739,3.809c-0.593,1.555-0.889,5.855-0.889,12.908
				c0,5.362,0.147,8.748,0.444,10.156c0.789,3.951,2.715,7.056,5.776,9.311c-0.791,0.143-2.073,1.481-3.851,4.021
				c-1.581,2.258-2.37,4.021-2.37,5.29v28.143c0.394,0.143,0.938,0.248,1.629,0.317c0.689,0.073,1.578,0.106,2.666,0.106
				c3.356,0,6.318-0.985,8.888-2.963c3.159-2.396,4.739-5.782,4.739-10.156v-15.659h22.515v46.976H327.677z"/>
			<path fill="#EDE6B1" d="M484.389,857.063v-17.986c1.578,0.143,2.837,0.179,3.777,0.106c0.937-0.069,1.652-0.176,2.147-0.317
				c2.566-0.847,3.851-3.032,3.851-6.56c0-2.116-0.592-4.371-1.777-6.771h-29.771c-1.186,3.247-1.777,5.713-1.777,7.406
				c0,4.093,1.777,6.136,5.332,6.136h6.813v17.986h-45.473v-17.986c0.493,0,1.134,0,1.926,0c0.889,0,1.925,0.073,3.11,0.212
				c2.862,0.143,5.381-1.832,7.554-5.925c0.593-1.127,1.259-2.678,2-4.655c0.74-1.974,1.504-4.371,2.296-7.194
				c2.171-7.052,3.259-11.776,3.259-14.177c0-2.54-0.792-4.655-2.37-6.349c3.948-0.562,7.651-5.501,11.108-14.812
				c2.963-7.757,4.444-13.966,4.444-18.621c-1.681-1.692-3.21-2.539-4.592-2.539h-8.591V747.03h72.727v17.986
				c-1.385-0.139-2.57-0.212-3.555-0.212c-0.889,0-1.533,0-1.926,0c-2.173,0.284-4.05,1.131-5.629,2.539
				c0.789,6.914,2.419,13.615,4.889,20.103c3.258,8.748,6.713,13.191,10.367,13.331c-1.383,1.977-2.074,4.866-2.074,8.675
				c0,2.824,1.135,8.041,3.408,15.659c2.369,8.04,4.244,12.414,5.629,13.119c1.281,0.565,4.195,0.846,8.738,0.846v17.986H484.389z
				 M478.02,777.078l-9.184,28.143h18.219L478.02,777.078z"/>
			<path fill="#EDE6B1" d="M553.41,857.063v-17.986c0.891,0.143,1.727,0.212,2.52,0.212c0.789,0,1.529,0,2.221,0
				c4.641,0,7.406-1.62,8.295-4.867c0.297-0.984,0.445-5.217,0.445-12.695c0-6.487-0.1-10.438-0.297-11.85
				c-0.791-3.809-2.568-6.771-5.332-8.888c3.059-2.116,4.889-5.147,5.48-9.099c0.098-0.423,0.148-4.09,0.148-11.003
				c0-6.771-0.148-10.719-0.445-11.85c-0.889-2.963-3.703-4.443-8.443-4.443c-0.691,0-1.432,0.036-2.221,0.105
				c-0.791,0.072-1.58,0.179-2.371,0.317V747.03h58.953v17.986h-9.48c-3.16,0-4.74,3.527-4.74,10.58
				c0,0.707,0.023,1.518,0.074,2.434c0.049,0.919,0.123,1.94,0.223,3.067c0,0.285,0,0.635,0,1.059c0,0.423-0.051,0.988-0.148,1.692
				v3.174c0,6.349,1.926,10.865,5.777,13.543c-3.063,2.116-4.889,5.502-5.48,10.156c-0.1,0.424-0.148,4.094-0.148,11.004
				c0,5.925,0.049,9.24,0.148,9.945c0.492,4.939,1.926,7.405,4.295,7.405h9.48v17.986H553.41z"/>
			<path fill="#EDE6B1" d="M735.449,768.825c-0.395,0.988-0.592,5.078-0.592,12.272c0,5.645,0.098,9.172,0.297,10.58
				c0.689,3.81,2.467,6.771,5.332,8.888c-3.852,3.247-5.777,7.972-5.777,14.177v3.386c0.098,0.708,0.148,1.412,0.148,2.116
				c0,0.565,0,1.058,0,1.481c0,6.913,0.098,10.934,0.297,12.061c0.889,3.67,3.355,5.502,7.406,5.502c0.492,0,1.035,0,1.629,0
				c0.592,0,1.184-0.069,1.777-0.212v17.986H697.68v-17.986c5.332,0.424,7.998-1.339,7.998-5.29v-51.207l-17.033,74.483H669.98
				l-16.145-77.234v53.535c0,4.232,2.666,6.137,7.998,5.713v17.986h-34.66v-17.986c0.689,0.143,1.283,0.212,1.777,0.212
				c0.594,0,1.135,0,1.629,0c3.852,0,6.223-1.832,7.111-5.502c0.195-1.127,0.295-5.147,0.295-12.061
				c0-3.102-0.025-5.571-0.074-7.406c-0.051-1.832-0.125-3.102-0.221-3.809c-0.793-4.371-2.57-7.688-5.334-9.945
				c2.863-2.255,4.689-5.429,5.48-9.522c0.098-0.423,0.148-3.809,0.148-10.156c0-6.629-0.1-10.508-0.295-11.639
				c-0.793-2.962-3.162-4.443-7.111-4.443c-0.494,0-1.035,0-1.629,0c-0.494,0-1.088,0.073-1.777,0.212V747.03h50.213
				c3.355,23.276,6.021,42.532,7.998,57.767c0.098,0.143,0.197,0.317,0.297,0.529c0.098,0.212,0.246,0.46,0.443,0.741
				c1.086-5.925,2.494-13.755,4.223-23.488c1.727-9.733,3.727-21.44,5.998-35.125h49.621v17.563
				C740.238,764.454,736.732,765.724,735.449,768.825z"/>
		</g>
	</g>
</g>
<g id="Layer_8">
</g>
<g id="Layer_6">
</g>
<g id="Layer_2">
</g>
<g id="Layer_5">
</g>
<g id="Layer_3">
</g>
<g id="Layer_1">
</g>
</svg>
