<?xml version="1.0" encoding="utf-8"?>
<!-- Generator: Adobe Illustrator 16.0.0, SVG Export Plug-In . SVG Version: 6.00 Build 0)  -->
<!DOCTYPE svg PUBLIC "-//W3C//DTD SVG 1.1//EN" "http://www.w3.org/Graphics/SVG/1.1/DTD/svg11.dtd">
<svg version="1.1" xmlns="http://www.w3.org/2000/svg" xmlns:xlink="http://www.w3.org/1999/xlink" x="0px" y="0px" width="1024px"
	 height="1024px" viewBox="0 0 1024 1024" enable-background="new 0 0 1024 1024" xml:space="preserve">
<g id="PeanutGrin" display="none">
</g>
<g id="BeerHands">
	<g id="Layer_9">
	</g>
	<g id="Layer_8">
	</g>
	<g id="BeerFill">
	</g>
</g>
<g id="WideEyes">
	<path fill="#FFFFFF" d="M471.625,988.936c-89.203,0-185.684-41.527-200.144-134.303c-0.473-3.036-2.644-5.533-5.585-6.424
		c-0.285-0.087-0.522-0.174-0.724-0.266c-1.646-0.753-3.294-1.877-5.038-3.435c-2.9-2.591-5.76-6.55-8.525-10.378
		c-1.28-1.773-2.604-3.605-3.941-5.315c-4.033-5.153-7.328-10.851-9.749-15.239c-9.609-17.419-14.64-38.034-18.293-55.903
		c-2.994-14.646-3.504-27.501-1.559-39.298c2.243-13.615,6.553-26.885,11.823-36.408c3.651-6.601,8.119-13.393,14.06-21.374
		c1.198-1.61,2.397-3.273,3.609-4.955c3.738-5.186,7.604-10.549,11.756-14.66c1.604-1.589,2.463-3.782,2.362-6.039
		c-0.101-2.256-1.149-4.364-2.889-5.806c-13.53-11.208-17.528-42.182-18.842-52.36c-0.137-1.052-0.473-2.033-0.967-2.909
		c0.274-0.974,0.368-2.014,0.248-3.075c-0.091-0.8-0.179-1.595-0.265-2.389c-0.401-3.751-3.369-6.712-7.12-7.104
		c-0.281-0.03-0.562-0.044-0.839-0.044c-3.427,0-6.518,2.2-7.601,5.518c-0.05,0.154-0.098,0.31-0.157,0.465
		c-0.739,1.91-0.718,4.031,0.061,5.926c0.139,0.338,0.255,0.668,0.359,0.992c0.168,0.521,0.386,1.014,0.646,1.474
		c-0.118,0.418-0.202,0.851-0.252,1.295c-0.074,0.677-0.338,1.607-1.729,2.814c-0.616,0.535-1.146,1.16-1.572,1.854
		c-1.008,0.382-2.158,0.709-3.429,0.974c-0.301,0.063-0.597,0.143-0.888,0.239c-3.545,1.177-7.967,1.851-12.134,1.851
		c-2.678,0-5.151-0.282-6.786-0.774c-4.667-1.406-8.438-3.923-11.526-7.692c-0.252-0.307-0.526-0.595-0.82-0.861
		c-2.759-2.496-5.003-5.818-6.802-10.084c0.669-1.524,0.86-3.254,0.482-4.952c-3.534-15.875-0.536-33.471,3.105-43.715
		c0.104-0.296,0.192-0.597,0.262-0.902c2.301-10.097-3.93-19.271-9.427-27.363c-3.01-4.431-6.122-9.013-6.755-12.266
		c-0.922-4.742,1.281-23.11,4.893-27.229c1.902-2.169,2.488-5.195,1.534-7.918c-3.065-8.751-6.54-18.67-12.45-27.729
		c-3.905-5.986-9.771-11.763-15.981-17.879c-7.861-7.741-16.526-16.273-19.842-24.48c2.814,1.462,5.665,3.054,8.466,4.617
		c2.206,1.231,4.384,2.445,6.507,3.581c3.727,1.994,7.509,3.592,11.167,5.138c4.095,1.73,7.963,3.365,11.487,5.424l8.07-13.816
		c-9.17-5.356-17.041-12.458-21.887-19.62c0.154,0.089,0.306,0.172,0.455,0.249c5.885,3.056,12.284,5.313,19.021,6.708
		c5.545,1.148,11.441,1.729,17.525,1.729c1.968,0,3.979-0.062,5.979-0.183c0.108-0.007,0.217-0.016,0.325-0.026l0.337-0.034
		c0.544-0.055,1.088-0.11,1.631-0.174c6.854-0.81,13.331-2.114,19.252-3.878c0.183-0.055,0.363-0.115,0.542-0.184
		c1.528-0.577,3.298-1.238,4.965-1.777c0.319-0.104,0.632-0.227,0.936-0.369c1.914-0.898,3.738-1.945,5.503-2.958l0.889-0.509
		c2.338-1.335,3.848-3.755,4.018-6.441c0.171-2.687-1.021-5.278-3.171-6.897c-6.282-4.731-12.585-9.731-18.768-14.889
		c-0.017-0.09-0.087-0.477-0.087-0.477c-0.393-2.175-1.667-4.09-3.521-5.291l-0.65-0.418c-10.112-6.605-22.688-14.819-32.348-24.44
		c-7.631-7.601-17.055-17.856-22.235-29.806c-0.876-2.018-1.872-4.397-2.63-6.762c-0.282-0.883-0.717-1.709-1.282-2.443
		c-3.958-5.133-6.926-10.416-8.85-15.742c1.212,0.692,2.581,1.056,3.973,1.056c0.174,0,0.349-0.006,0.522-0.018l0.137-0.008
		c0.201-0.011,0.402-0.023,0.604-0.041c5.181-0.442,10.439-1.298,15.632-2.543c4.396-1.054,8.914-2.06,13.282-3.033
		c6.525-1.453,13.274-2.957,19.928-4.684c12.198-3.165,24.605-7.387,37.93-12.907c2.638-1.092,5.26-2.244,7.796-3.358
		c1.288-0.565,2.576-1.132,3.867-1.69c1.577-0.682,2.893-1.854,3.752-3.343c1.516-2.625,3.061-4.897,4.723-6.946
		c0.697-0.86,1.295-1.778,1.787-2.743c2.385-3.09,3.503-7.021,3.235-10.851c1.021-2.063,1.135-4.532,0.16-6.76
		c-1.294-2.956-4.202-4.794-7.326-4.794c-0.554,0-1.114,0.058-1.674,0.178c-1.651,0.353-3.302,0.71-4.952,1.067
		c-5.858,1.269-11.915,2.58-17.835,3.619c-4.601,0.808-9.072,1.92-13.397,2.996c-1.845,0.458-3.688,0.917-5.538,1.351
		c-0.59,0.139-1.201,0.287-1.832,0.44c-3.059,0.745-6.525,1.589-9.319,1.589c-1.362,0-2.136-0.204-2.544-0.376
		c-0.988-0.414-2.04-0.621-3.092-0.621c-0.968,0-1.936,0.176-2.855,0.527c0,0-1.251,0.468-1.547,0.581l-0.928,0.357
		c-2.919,1.126-5.494,2.12-8.026,2.823c0.04-1.037-0.121-2.084-0.489-3.083c-0.328-0.887,0.36-4.479,3.439-8.757
		c0.387-0.538,0.706-1.122,0.949-1.739c1.955-4.962,5.701-9.975,9.323-14.821l0.938-1.256c7.696-10.337,17.24-21.111,29.179-32.941
		c7.941-7.868,16.565-15.109,25.633-21.522c0.498-0.353,0.954-0.761,1.359-1.217c1.819-2.047,3.519-3.74,5.194-5.177
		c7.468-6.401,13.824-10.659,20.002-13.397c1.725-0.765,3.872-1.716,5.977-2.473c0.581-0.209,1.137-0.484,1.654-0.821l0.09-0.058
		c2.672-1.737,5.347-3.477,8.01-5.199c28.383-18.363,57.502-32.459,89.021-43.095c24.77-8.359,45.085-12.252,63.935-12.252
		c2.457,0,4.914,0.069,7.306,0.207c10.573,0.608,20.584,2.748,29.753,6.361c1.561,0.614,3.184,1.216,4.834,1.826
		c8.57,3.172,17.433,6.451,20.411,13.263c1.233,2.82,3.975,4.683,7.051,4.79c0.094,0.004,0.188,0.005,0.28,0.005
		c0.667,0,1.322-0.083,1.953-0.242c2.563-0.461,19.08-2.851,21.625-3.027l0.53-0.003c7.383,0,14.837,1.467,20.507,2.745
		c3.407,0.769,6.955,1.642,10.845,2.669c0.606,0.16,1.23,0.248,1.858,0.263c7.801,0.179,14.479,1.201,20.418,3.124
		c2.843,0.92,6.103,2.806,7.686,4.434c0.053,0.063,0.107,0.124,0.163,0.187c0.926,1.028,2.102,1.8,3.414,2.238l2.547,0.85
		c9.087,3.056,18.977,7.263,31.122,13.241c37.302,18.354,59.308,49.353,80.874,90.249c15.87,30.095,24.978,57.87,27.843,84.915
		c1.463,13.818,1.472,28.262,0.026,44.157c-0.401,4.404-0.95,9.105-1.729,14.796c-0.517,3.771,1.695,7.383,5.289,8.638
		c0.867,0.303,1.757,0.448,2.636,0.448c2.76,0,5.406-1.435,6.88-3.917c5.741-9.671,13.471-19.054,22.976-27.89
		c13.379-12.436,27.622-21.489,42.335-26.909c8.454-3.115,17.811-5.51,28.604-7.322c1.206-0.202,2.486-0.44,3.821-0.689
		c4.145-0.771,8.843-1.647,12.964-1.647c6.001,0,7.792,1.91,8.381,2.538c0.217,0.23,0.289,0.476,0.289,0.552
		c-0.25,1.362-0.139,2.736,0.313,4.032c-0.935,0.564-2.605,1.1-5.963,1.1c-1.074,0-2.264-0.052-3.742-0.164
		c-0.201-0.015-0.402-0.022-0.604-0.022c-0.381,0-0.763,0.027-1.141,0.082c-2.164,0.312-4.458,0.515-6.676,0.71
		c-1.732,0.153-3.522,0.312-5.229,0.521c-11.124,1.366-20.589,3.324-28.935,5.985c-13.992,4.463-27.992,12.733-40.485,23.92
		c-11.262,10.084-20.774,21.747-29.975,33.025c-1.19,1.46-2.381,2.92-3.574,4.375c-1.367,1.667-2.698,3.403-3.958,5.16
		c-2.325,3.243-1.904,7.704,0.986,10.455c0.796,0.759,1.714,1.323,2.689,1.691c-3.505,3.065-6.553,6.27-9.111,9.58
		c-1.048,1.356-1.971,2.919-2.863,4.431c-0.879,1.488-2.515,4.258-3.387,4.86c-3.052,1.872-4.471,5.532-3.5,8.978
		c0.221,0.782,0.431,1.571,0.633,2.364c0.639,2.505,2.45,4.547,4.861,5.481c3.21,1.245,9.942,4.152,13.178,5.549
		c1.107,0.479,1.886,0.813,2.132,0.916c6.694,2.767,12.326,4.529,17.725,5.546c3.573,0.674,7.305,1.016,11.089,1.016
		c5.521,0,11.299-0.708,17.574-2.159c-1.117,0.533-2.104,0.988-2.864,1.339l-1.392,0.643c-6.205,2.886-12.746,4.253-19.671,5.7
		c-2.159,0.451-4.392,0.918-6.655,1.439c-4.306,0.99-6.992,5.283-6.003,9.589c0.687,2.984,2.961,5.192,5.726,5.936
		c0.444,0.245,1.073,0.616,1.495,0.864c1.345,0.793,2.316,1.366,3.384,1.757c3.613,1.321,7.236,1.839,10.639,2.256
		c3.473,0.426,6.854,0.556,10.125,0.682c3.057,0.118,5.943,0.229,8.735,0.567l0.771,0.094c6.999,0.85,14.222,1.726,21.564,1.837
		c-8.215,5.364-20.261,7.281-29.514,8.268c-2.708,0.289-5.083,1.935-6.304,4.369s-1.119,5.322,0.27,7.665
		c0.155,0.262,0.333,0.662,0.328,1.432c-0.004,0.547-0.173,1.157-0.477,1.715c-1.728,3.174-1.113,7.112,1.5,9.609
		c7.22,6.899,15.404,14.719,29.49,18.104c7.848,1.887,15.961,2.678,22.949,3.271c0.202,0.017,0.433,0.03,0.718,0.043
		c-0.829,0.25-1.713,0.504-2.657,0.761c-6.813,1.855-14.107,3.514-21.679,4.928c-2.579,0.482-4.756,2.197-5.828,4.586
		c-0.218,0.109-1.001,0.515-1.181,0.605c-0.164-0.011-0.33-0.016-0.495-0.016c-1.079,0-2.175,0.221-3.228,0.688
		c-1.731,0.769-3.018,1.055-4.743,1.055c-0.24,0-0.486-0.006-0.738-0.017c-3.996-0.173-8.228-0.852-12.22-1.531
		c-0.446-0.076-0.896-0.113-1.343-0.113c-1.832,0-3.625,0.63-5.064,1.808c-1.791,1.465-2.86,3.633-2.932,5.944
		c-0.542,17.496,7.756,25.462,16.542,33.896c1.059,1.016,2.152,2.066,3.272,3.172c5.216,5.146,3.861,8.446,3.283,9.855
		c-3.807,9.279-24.34,19.468-39.233,19.468c-2.766,0-4.513-0.382-5.491-0.702c-0.812-0.266-1.651-0.396-2.488-0.396
		c-1.373,0-2.738,0.354-3.957,1.047c-1.96,1.116-3.358,3.008-3.851,5.209c-2.229,9.983-9.017,40.364-25.154,51.375
		c-2.283,1.558-3.6,4.183-3.484,6.943c0.116,2.761,1.648,5.267,4.054,6.628c18.886,10.687,33.488,30.662,43.4,59.37
		c9.551,27.661,12.669,57.551,13.604,77.754c1.841,39.822-5.4,94.36-50.354,128.036c-39.233,29.391-71.881,47.649-85.203,47.649
		c-1.738,0-2.422-0.355-2.485-0.426c-1.467-1.636-3.542-2.596-5.738-2.655c-0.072-0.002-0.145-0.003-0.217-0.003
		c-2.119,0-4.154,0.841-5.657,2.343c-36.967,36.968-86.487,38.77-138.915,40.678l-4.664,0.171
		C478.577,988.871,475.083,988.936,471.625,988.936z M614.17,921.361c-2.144,0.049-4.182,0.957-5.652,2.524l-0.628,0.643
		c-2.961,3.104-2.947,7.992,0.031,11.079c1.566,1.623,3.66,2.444,5.759,2.444c1.894,0,3.791-0.668,5.313-2.02
		c0.2-0.179,0.396-0.362,0.592-0.547l0.218-0.203c2.496-2.265,3.305-5.852,2.022-8.969c-1.237-3.008-4.167-4.956-7.396-4.956
		C614.342,921.357,614.256,921.358,614.17,921.361z M688.285,893.273c-1.31,0-2.634,0.321-3.856,0.995l-0.593,0.329
		c-0.682,0.371-1.441,0.753-2.389,1.2c-0.874,0.413-1.666,0.981-2.337,1.677l-1.476,1.524c-2.804,2.896-3.013,7.427-0.489,10.57
		c1.568,1.954,3.888,2.992,6.243,2.992c1.435,0.001,2.883-0.385,4.184-1.184c1.822-1.12,3.646-2.342,5.421-3.631
		c3.418-2.483,4.316-7.197,2.05-10.763C693.525,894.596,690.939,893.273,688.285,893.273z M227.613,527.928
		c-3.384,0-6.441,2.145-7.561,5.398c-2.561,7.445-0.349,14.472,1.603,20.672c1.067,3.389,4.212,5.626,7.647,5.626
		c0.52,0,1.045-0.051,1.571-0.157c4.01-0.807,6.773-4.479,6.396-8.552c-0.531-5.733-1.063-11.278-1.728-16.084
		c-0.508-3.668-3.466-6.508-7.151-6.866C228.131,527.939,227.871,527.928,227.613,527.928z M770.738,331.701
		c6.282-3.741,13.061-6.723,19.481-9.394c14.716-6.121,29.329-10.716,43.434-13.657c9.898-2.063,20.2-3.426,30.62-4.048
		c5.643-0.337,11.641-0.583,18.877-0.774c1.302-0.034,2.554-0.068,3.8-0.068c5.521,0,8.319,0.773,10.325,2.854
		c1.772,1.839,1.838,4.64,0.149,6.377c-2.116,2.178-4.808,2.949-10.283,2.949h-0.002c-1.338,0-2.692-0.042-4.047-0.083
		c-6.112-0.187-11.573-0.339-17.133-0.339h-0.404c-10.032,0.014-20.194,0.439-30.207,1.265c-13.492,1.111-27.183,3.493-40.692,7.079
		c-8.609,2.285-16.03,4.689-22.685,7.352C771.561,331.377,771.149,331.54,770.738,331.701z"/>
	<g opacity="0.9">
		<g opacity="0.8">
			<path fill="#C7886A" d="M738.466,475.371c-2.349-3.841-4.525-7.785-6.604-11.778c-2.313-4.443-4.505-8.967-6.562-13.534
				c-0.268-0.595-0.521-1.196-0.778-1.796c-0.043-0.108-0.084-0.212-0.12-0.304c-1.013-2.604-1.917-5.247-2.767-7.908
				c-1.505-4.717-2.799-9.551-3.709-14.418c-0.04-0.213-0.084-0.486-0.129-0.773c-0.033-0.447-0.064-0.896-0.094-1.344
				c-0.096-1.48-0.094-2.963-0.031-4.443c0.176-1.152,0.725-6.22,0.707-6.879c0.487-2.375,1.089-4.676,1.353-7.197
				c-0.614,5.869,0.257-0.023,0.522-1.463c1.046-5.666,0.33-12.729-5.73-15.586c-15.892-7.492-30.947,8.361-35.398,22.307
				c-3.908,12.244-3.023,26.18-0.756,38.618c2.283,12.521,6.77,24.556,11.828,36.187c5.493,12.633,12.063,28.719,26.38,32.844
				c5.894,1.697,12.508,0.705,17.785-2.342c7.816-4.514,10.665-11.69,11.722-20.172
				C747.039,487.723,742.188,481.459,738.466,475.371z"/>
			<path fill="#C7886A" d="M725.249,824.971c-0.597-2.858-1.812-4.994-3.921-5.809c-3.932,4.38-6.141,10.663-8.832,15.859
				c-4.101,7.915-8.49,15.66-12.919,23.394c-0.425,0.307-0.856,0.599-1.306,0.854c-7.365,4.188-7.199-10.34-7.101-13.335
				c0.452-13.729,0.52-27.746-1.95-41.303c-3.266-17.924-10.496-32.631-21.567-46.943c-2.876-3.719-6.899-13.051-12.606-13.133
				c-5.206-0.074-2.685,7.229-1.797,10.19c1.604,5.345,4.646,10.262,7.194,15.187c6.959,13.45,11.24,27.173,12.765,42.265
				c2.841,28.133,0.83,55.184-8.936,81.923c-0.82,2.246-11.078,25.372-10.056,26.21c3.995,3.272,8.676,4.229,12.973,1.141
				c4.047-2.909,6.881-7.407,10.352-10.934c13.457-13.673,27.461-28.265,37.929-44.402c3.83-5.934,6.717-12.364,8.2-19.286
				C725.034,840.489,726.594,831.412,725.249,824.971z"/>
			<g>
				<path fill="#C7886A" d="M735.679,387.611c-8.393-61-62.706-97.394-124.922-93.537c-83.467-3.594-160.292,53.941-240.243,70.42
					c-37.785,7.787-74.828,14.667-111.932,0.824c-6.078-2.268-13.066-5.773-19.643-6.443c-16.617-1.69-2.805,23.544,2.326,27.451
					c9.639,7.34,27.468,19.031,39.227,20.995c78.058,11.354,143.204-2.96,214.287-37.671
					c38.747-18.922,86.129-39.996,125.971-34.338c31.281,4.439,61.386,27.271,77.662,53.814c8.018,13.082,0.962,27.955,6.359,39.743
					C717.168,455.946,737.356,399.809,735.679,387.611C733.972,375.205,736.822,395.924,735.679,387.611z"/>
				<path fill="#C7886A" d="M280.585,407.337c-0.03-0.005-0.062-0.011-0.093-0.016c-0.046-0.007-0.092-0.012-0.139-0.019
					C280.437,407.314,280.508,407.325,280.585,407.337z"/>
				<path fill="#C7886A" d="M280.585,407.337C282.546,407.662,283.979,407.834,280.585,407.337L280.585,407.337z"/>
			</g>
			<path fill="#C7886A" d="M371.297,598.362c-0.064,0-0.064,0.1,0,0.1S371.361,598.362,371.297,598.362z"/>
			<path fill="#C7886A" d="M254.423,755.658c-2.026,1.702-3.733,2.173-3.964-0.779c-0.238-3.058-1.136-5.902-1.135-8.841
				c-0.021,0.074-0.046,0.148-0.067,0.224c-0.018-0.764-0.043-1.526-0.052-2.292c-0.14-11.638,0.295-23.319,1.419-34.903
				c1.136-11.702,1.679-23.73,4.537-35.155c0.615-2.462-2.862-3.283-3.729-0.998c-4.172,11.004-9.134,21.544-11.99,33.002
				c-3.106,12.467-5.274,25.156-6.239,37.969c-0.009,0.113-0.014,0.227-0.022,0.34c2.557,6.491,5.01,13.023,7.522,19.532
				c0.333,0.861,0.677,1.717,1.018,2.574c4.864,8.285,9.234,16.832,13.48,25.447c1.614-5.176,4.221-9.962,5.946-15.094
				c1.882-5.595,2.917-11.43,4.227-17.173c1.61-7.064,3.886-11.632,4.95-21.194C262.885,740.754,260.463,750.585,254.423,755.658z"
				/>
		</g>
		<g opacity="0.8">
			<path fill="#FCC399" d="M743.303,834.255C743.286,834.268,743.285,834.269,743.303,834.255L743.303,834.255z"/>
			<path fill="#FCC399" d="M743.46,834.136c-0.006,0.005-0.013,0.009-0.019,0.014c-0.067,0.052-0.115,0.088-0.139,0.105
				C743.325,834.238,743.372,834.202,743.46,834.136z"/>
			
				<radialGradient id="SVGID_1_" cx="496.874" cy="641.1699" r="260.7112" gradientTransform="matrix(1 -0.0056 0.0094 1.6782 -6.0081 -432.0724)" gradientUnits="userSpaceOnUse">
				<stop  offset="0" style="stop-color:#FDC283"/>
				<stop  offset="1" style="stop-color:#F0B184"/>
			</radialGradient>
			<path fill="url(#SVGID_1_)" d="M761.655,739.024c-0.116-0.508-0.23-1.018-0.345-1.527c-5.26-23.519-10.602-44.39-25.601-63.84
				c-4.744-6.153-10.127-11.604-15.666-17.03c-10.197-9.989-18.053-19.478-16.335-34.518c0.127-1.112,6.953-5.514,8.002-6.608
				c3.506-3.66,6.392-7.915,8.819-12.351c9.205-16.816,12.107-38.62,15.754-57.221c3.389-17.284,4.409-34.691,2.226-52.198
				c-2.06-16.503-5.407-32.838-8.842-49.101c-1.99-9.423-4.701-18.721-6.181-28.246c-1.521-9.796-1.439-19.711-1.196-29.592
				c0.278-11.369-2.629-22.627-7.39-32.902c-3.449-7.447-8.172-14.203-14.178-19.813c-14.102-13.172-33.328-19.478-51.764-23.715
				c-25.657-5.896-50.605-9.246-76.706-4.088c-6.906,1.365-13.854,2.94-20.627,4.871c-26.059,7.427-50.578,19.927-74.077,33.206
				c-13.22,7.471-26.257,15.26-39.439,22.796c-27.658,15.811-61.08,25.208-92.782,27.381c-9.402,0.645-19.854,1.542-29.224,0.352
				c-13.152-1.669-24.86-7.513-37.312-11.614c-10.277-3.386-19.855-5.854-30.758-5.061c-4.73,0.345-10.712,8.91-12.305,12.709
				c-3.348,7.982-2.749,17.448-2.42,25.894c1.961,50.33-3.006,102.313,7.627,151.867c2.782,12.968,2.809,24.045,7.692,36.399
				c0.099,0.379,1.572,5.962,1.669,6.341c1.015,2.666,16.313,27.442,16.212,27.528c-0.221,0.188-0.442,0.376-0.66,0.575
				c-8.793,8.044-17.269,17.391-22.796,27.893c-7.172,13.627-13.692,26.963-16.313,42.42c-2.462,14.524-0.682,28.951,2.009,43.272
				c2.431,12.937,5.581,26.654,13.543,37.503c8.763,11.94,16.972,23.93,25.294,36.185c2.941,4.331,5.94,8.644,9.407,12.576
				c3.259,3.696,7.646,5.456,7.698,10.522c0.01,0.948,0.052,1.897,0.107,2.848c0.456,7.785-1.209,14.365,1.064,22.225
				c5.409,18.7,14.229,36.472,29.084,49.482c11.714,10.26,27.688,17.095,41.827,23.168c15.639,6.718,31.304,13.795,47.501,19.073
				c26.453,8.622,54.411,12.709,82.232,11.798c45.372-1.486,95.863-15.06,127.842-49.125c12.046-0.063,24.427-2.633,35.313-7.848
				c6.394-3.062,11.856-7.643,18.071-11.009c6.415-3.475,13.516-5.388,19.925-8.879c12.318-6.71,24.116-15.129,32.842-26.213
				c8.439-10.72,14.373-23.087,21.265-34.789c8.51-14.449,19.719-28.469,24.164-44.873
				C771.258,776.094,765.995,758.111,761.655,739.024z"/>
		</g>
		<g opacity="0.7">
			<path fill="#C7886A" d="M650.609,527.536c-2.954-1.516-6.835-3.108-10.196-3.286c-4.772-0.255-9.704,0.998-14.37,1.818
				c-8.279,1.456-16.577,2.471-24.985,2.667c-8.683,0.201-17.199-0.817-25.805-1.785c-7.771-0.874-16.285-4.302-24.063-2.651
				c-2.675,0.568-4.415,3.802-2.979,6.279c4.436,7.647,14.252,10.778,22.226,13.328c8.938,2.859,18.523,3.852,27.863,4.311
				c9.52,0.467,19.164-0.113,28.609-1.325c9.764-1.252,19.917-3.668,25.175-12.766C653.295,532.032,652.994,528.76,650.609,527.536z
				"/>
			<path fill="#C7886A" d="M365.742,550.921c-7.041-6.04-16.986-2.976-25.312-1.96c-7.567,0.924-15.108,1.343-22.713,1.768
				c-7.157,0.4-14.268-0.22-21.386-0.982c-4.203-0.449-15.711-2.443-15.639,4.651c0.07,7.047,8.689,11.242,14.088,13.919
				c6.748,3.347,14.985,4.461,22.395,5.322c7.855,0.915,16.072,0.331,23.947-0.102c9.093-0.5,20.188,0.522,26.459-7.213
				C371.462,561.54,370.225,554.766,365.742,550.921z"/>
		</g>
		<path fill="#C7886A" d="M411.021,525.704c0.135-0.233,0.279-0.463,0.419-0.694c0.03-0.062,0.063-0.118,0.092-0.183
			c0.226-0.518,0.464-1.026,0.709-1.528c-0.093,0.273-0.17,0.556-0.257,0.833c0.212-0.33,0.425-0.66,0.648-0.988
			c0.508-0.747,1.103-1.317,1.745-1.741c0.843-1.669,1.807-3.275,2.815-4.885c0.375-0.736,0.774-1.459,1.198-2.166
			c-0.455,0.292-0.889,0.615-1.297,0.973c3.239-4.575,6.853-8.889,9.793-13.797c5.159-8.613,10.376-24.136,3.878-33.146
			c-3.838-5.321-13.125-7.12-16.528,0.043c-2.491,5.246-2.119,10.253-2.243,15.879c-0.088,3.983-1.062,7.967-1.905,11.843
			c-1.873,8.606-4.2,16.856-7.501,25.005C400.651,525.933,408.224,529.409,411.021,525.704z"/>
		<g id="Eyes_5_">
			<g>
				<path fill="#F0E4CC" d="M635.094,467.438c6.016-10.784,7.236-25.41,2.291-36.828c-5.147-11.887-13.07-22.637-25.303-28.07
					c-4.741-2.105-9.461-3.512-14.168-4.26c-1.313-0.359-2.634-0.67-3.96-0.919c-14.073-2.654-26.776,2.091-36.504,10.735
					c-7.771,5.363-14.833,12.854-18.421,20.937c-1.035,2.326-2.133,5.034-3.003,7.567c-0.072,0.247-0.146,0.496-0.218,0.744
					c2.732-6.72,2.547-6.248-0.555,1.42c-1.167,3.3-1.594,6.904-1.582,10.378c0.024,7.267,2.536,14.107,5.925,20.402
					c4.737,8.796,13.909,16.479,23.029,20.36c12.704,5.404,24.678,6.855,38.316,4.332c13.12-2.427,23.505-11.541,31.03-21.973
					c0.088-0.125,0.166-0.256,0.253-0.382C633.288,470.432,634.253,468.945,635.094,467.438z"/>
				<path fill="#DACABB" d="M634.802,469.496c-2.262,4.645,14.393-37.869,0.128-29.447c-2.971,1.756-14.188,13.58-16.665,15.992
					c-17.662,16.412-41.018,17.92-61.617,9.064c-24.788-23.309-9.771,24.443,20.386,27.85
					C593.699,494.835,626.085,487.455,634.802,469.496C636.891,465.207,634.735,469.637,634.802,469.496z"/>
			</g>
			<g>
				<path fill="#F0E4CC" d="M371.067,484.011c0.995-3.541,1.778-7.535,1.691-11.339c-0.147-6.323-1.198-13.185-4.225-19.232
					c-0.637-1.68-1.307-3.344-1.995-4.884c-3.187-7.148-9.879-15.143-17.443-18.966c-12.895-6.516-24.107-7.363-37.36-3.503
					c-4.765,1.388-9.12,3.707-13.081,6.521c-2.439,1.351-4.658,2.893-6.461,4.563c-2.461,2.283-4.451,4.608-6.086,7.048
					c-9.03,10.775-12.754,27.118-8.404,40.875c3.176,10.044,8.402,17.493,17.233,24.571c9.068,7.266,21.483,8.01,32.292,7.86
					c9.797-0.137,18.422-4.777,26.125-9.286c7.256-4.246,11.974-11.768,15.359-18.851c0.396-0.83,1.008-2.058,1.148-2.392
					C370.354,486.018,370.783,485.018,371.067,484.011z"/>
				<path fill="#DACABB" d="M365.059,462.63c-13.412,4.347-16.907,24.526-34.973,27.321c-14.693,2.272-55.659-16.375-36.064,9.048
					c11.63,15.091,37.299,23.37,55.105,15.546C363.645,508.164,378.758,458.189,365.059,462.63
					C360.629,464.065,371.543,460.526,365.059,462.63z"/>
			</g>
		</g>
		<g>
			<path opacity="0.8" fill="#C7886A" d="M747.044,815.145c-0.743-14.383-21.672-14.553-22.347-0.12
				c-0.048,0.627-0.069,0.989-0.067,1.105c-0.099,0.581-0.198,1.161-0.318,1.738c-0.651,3.314-0.432,3.196-0.724,4.847
				c-0.604,3.409-1.589,6.745-2.682,10.025c-2.097,6.295-5.516,12.672-8.897,18.815c-3.487,6.335-7.644,12.523-11.911,18.358
				c-1.809,2.475-3.88,4.853-5.896,7.161c-2.017,2.308-4.155,5.886-6.754,7.495c-2.555,1.583-0.939,5.502,1.985,4.844
				c3.231-0.729,6.456-0.417,9.644-1.646c3.601-1.389,7.007-3.021,10.232-5.138c7.673-5.034,13.949-11.082,19.527-18.329
				C739.42,850.553,747.96,832.852,747.044,815.145z"/>
			<path opacity="0.8" fill="#C7886A" d="M282.455,746.648c0.055-1.361-2.56-5.2-4.256-4.157c-2.27,1.396-4.625,2.585-6.675,4.314
				c-2.062,1.739-3.865,3.775-5.646,5.795c-0.811,0.92-1.585,1.868-2.377,2.804c-3.106,3.671-5.031,7.832-7,14.218
				c-1.253,0.243-2.285-0.569-3.092-1.837c-2.191-3.444-3.625-7.399-4.955-11.292c-2.296-6.719-3.962-13.957-5.307-20.934
				c-2.423-12.571-1.906-25.29,0.669-37.796c1.598-7.761,3.439-15.473,6.092-22.948c2.378-6.704,5.031-13.474,4.606-20.729
				c-0.055-0.934-0.979-1.511-1.828-1.063c-10.085,5.324-14.947,18.031-18.807,28.192c-9.912,26.096-10.896,56.509-0.705,82.531
				c2.615,6.677,5.553,15.191,9.915,20.929c2.996,3.941,7.442,6.697,9.839,11.088c3.8,6.958,3.275,16.156,10.713,20.795
				c0.371,0.231,0.929,0.273,1.314-0.004c10.8-7.771,7.846-26.042,9.971-37.217c1.105-5.811,2.251-11.614,3.544-17.387
				c0.372-1.66,0.756-3.318,1.155-4.973C280.476,753.467,282.306,750.334,282.455,746.648z"/>
			<path opacity="0.8" fill="#C7886A" d="M684.401,805.441c-1.647-8.888-4.869-17.33-9.383-25.25
				c-3.044-5.34-6.414-10.706-10.137-15.603c-4.058-5.337-8.031-10.824-12.889-15.476c-2.573-2.464-6.845,0.727-4.986,3.855
				c1.755,2.956,3.524,5.896,5.221,8.895c1.435,2.536,1.934,6.308,2.604,9.121c0.768,3.221,1.381,6.473,1.891,9.743
				c1.004,6.438,3.243,13.155,3.705,19.651c0.279,3.93,1.126,8.425,1.333,12.358c0.41,7.807,0.97,14.041,3.167,21.527
				c2.814,9.583,2.76,19.483,4.321,29.326c0.429,2.703,0.912,5.398,1.285,8.11c0.396,2.882-0.102,7.121,0.911,9.768
				c0.068,0.179,0.141,0.355,0.208,0.535c0.134,0.361,0.183,0.7,0.171,1.019c0.159,0.024,0.311,0.068,0.473,0.085
				c0.07-0.255,0.135-0.511,0.214-0.764c1.09-3.511,2.374-6.938,3.809-10.322c1.466-3.459,2.985-7.145,4.746-10.669
				c1.046-4.167,2.117-8.33,2.659-12.642c1.533-12.2,2.787-24.732,1.566-37.015C685.082,809.588,684.784,807.503,684.401,805.441z"
				/>
		</g>
		<g>
			<path fill="#FDC48C" d="M759.832,672.367c0.046,0.156,0.098,0.31,0.139,0.469C759.91,672.605,759.865,672.456,759.832,672.367z"
				/>
			<g>
				<path fill="#FDC48C" d="M750.635,572.625c20.21,6.614,73.999-17.797,49.551-41.917c-10.426-10.294-18.644-15.852-17.329-33.3
					c0.881-11.688-9.865-7.176-19.331-12.168c-2.052-16.762-19.678-6.512-22.001-12.15c-5.004-12.135-8.567-27.145-12.249-40.07
					c-27.96,1.28-10.2,62.086-9.486,76.688c1.342,27.404-0.084,53.44-4.697,80.778c-1.446,8.57-3.983,25.398-12.349,30.546
					c-3,1.843-8.154-0.02-10.654,5.22c-0.7,1.469,40.51,44.333,44.905,52.83c19.316,37.344,25.697,95.588,13.518,137.502
					c-8.397,28.894-28.619,49.96-48.085,71.884c-7.892,8.891-19.943,18.466-31.594,21.889c-2.962,0.87-7.528-3.537-8.014-3.296
					c1.847-0.917,3.696-8.813,4.418-10.778c1.369-3.727,2.602-7.512,3.671-11.335c2.118-7.572,3.67-15.288,4.669-23.087
					c-0.117,0.791-0.189,1.587-0.267,2.381c0.699-3.31,0.975-6.704,1.705-10.007c0.002,0.031,0.002,0.063-0.002,0.095
					c2.526-19.62,0.082-39.738-5.642-58.668c-2.561-8.47-5.757-18.855-11.171-25.984c-2.563-3.373-7.471-7.832-11.679-4.061
					c-4.57,4.098-0.789,12.895,0.476,17.771c3.148,12.146,4.401,25.504,4.951,38.009c0.492,11.192-2.222,21.781-4.521,32.63
					c-5.256,24.8-11.778,50.687-29.412,69.83c-16.454,17.862-39.594,27.366-62.32,34.453c-12.635,3.939-25.871,8.352-38.916,10.663
					c-58.878,10.435-115.752-6.839-169.999-27.552c-45.302-17.297-65.375-68.998-65.872-115.601c0.228-4.68-0.281-9.298-0.51-14.182
					c-0.324-6.933-0.564-13.902-0.518-20.844c0.094-13.704,2-27.396,5.901-40.54c2.187-7.366-9.388-12.406-12.614-5.186
					c-4.179,9.354-7.254,19.205-9.282,29.238c-1.009,4.989-1.819,10.024-2.375,15.085c-0.224,2.03-2.348,12.911-0.95,14.231
					c-0.605-0.572-1.215-1.14-1.812-1.733c-14.863-14.796-28.445-34.235-32.868-54.971c-4.499-21.093,0.291-42.677,8.963-62.054
					c2.441-5.454,5.181-10.77,8.07-15.999c2.736-4.953,5.317-11.08,8.93-15.438c7.415-8.929,38.792-40.517,7.917-22.659
					c-0.271-9.473-10.837-14.063-9.582-20.91c-6.019-12.019-6.745-29.091-9.226-42.159c-6.865-36.175-7.203-71.911-7.486-108.63
					c-0.05-6.385-2.326-72.425,6.586-68.513c4.929-1.12,19.088,11.901,26.186,15.666c14.421,7.647,29.896,13.205,45.627,17.467
					c81.731,22.143,149.096-15.846,220.477-49.175c23.012-10.744,44.318-13.246,69.176-8.307
					c11.409,2.268,22.285,5.799,32.224,11.957c10.368,6.422,18.866,16.168,29.744,21.688c12.015,6.097,30.491-5.178,33.298-16.939
					c5.359-22.467-24.553-33.318-39.439-42.084c-73.354-43.191-130.49-10.85-199.013,22.668
					c-51.932,25.403-104.065,33.621-160.176,18.536c-29.252-7.864-67.655-31.624-77.967,9.563
					c-9.717,38.809-1.687,86.674,3.031,125.868c-4.788-9.652-15.453-19.404-22.299-28.712
					c-9.668-13.147-16.456-28.485-25.603-41.156c-16.068-22.256-20.762,21.573-19.128,29.974
					c2.244,11.532,18.875,24.732,16.234,36.323c-8.669,24.388-9.134,68.629,20.791,77.645c10.356,3.119,35.276,0.067,36.797-13.741
					c2.954,22.887,8.354,46.464,21.673,57.497c-6.021,5.964-11.099,13.729-16.153,20.522c-5.307,7.131-10.335,14.493-14.642,22.276
					c-6.342,11.46-10.598,26.121-12.717,38.98c-2.321,14.079-1.23,28.285,1.614,42.202c4.048,19.8,9.306,40.364,19.126,58.165
					c3.136,5.685,6.447,11.186,10.453,16.305c4.18,5.343,8.39,12.22,13.438,16.729c2.135,1.907,4.445,3.557,7.041,4.744
					c0.572,0.262,1.151,0.471,1.731,0.646c15.829,101.561,124.338,144.366,218.73,140.873c53.888-1.995,108.587-2.832,148.94-43.186
					c14.49,16.155,84.783-35.933,98.439-46.163c42.751-32.024,55.926-83.419,53.55-134.808
					c-2.212-47.841-14.856-117.575-61.056-143.718C738.973,617.408,746.518,591.057,750.635,572.625z M227.618,535.928
					c0.627,4.53,1.146,9.886,1.687,15.726C227.584,546.187,225.908,540.899,227.618,535.928z M230.708,570.12
					c0.112-0.29,0.207-0.579,0.302-0.869c0.087,0.812,0.177,1.624,0.27,2.44C231.113,571.178,230.928,570.655,230.708,570.12z"/>
				<path fill="#FDC48C" d="M677.017,854.327c-0.008,0.079-0.011,0.16-0.019,0.239C677.008,854.458,677.014,854.383,677.017,854.327
					z"/>
			</g>
			<path fill="#FDC48C" d="M211.461,504.64c-0.014-0.003-0.027-0.004-0.041-0.006C210.76,503.039,210.773,503.04,211.461,504.64z"/>
		</g>
		<g>
			<path fill="#C7886A" d="M765.529,514.092c-0.382-6.809,0.09-13.967-3.53-19.997c-3.839-6.393-14.511-8.67-19.917-3.251
				c0,0.002-0.001,0.006-0.001,0.008c0.126,0.253,0.204,0.549,0.208,0.895c0.111,9.401-0.052,18.806-0.524,28.194
				c0.253,1.71,0.468,3.386,0.573,4.992c0.233,3.537,0.513,7.138,0.545,10.727c3.057,8.778,8.533,17.113,13.32,24.697
				c0.33,0.524,1.125,0.437,1.302-0.172c2.865-9.844,5.728-19.48,7.265-29.699C765.566,525.191,765.83,519.44,765.529,514.092z"/>
			<path fill="#C7886A" d="M228.104,555.382c-1.298-9.153-0.852-18.851-4.438-27.448c-2.594-6.219-12.84-4.301-14.075,1.854
				c-1.819,9.056,1.106,18.809,3,27.699c1.072,5.035,2.646,10.108,4.707,14.948c-3.291,0.215-6.655,1.238-9.88,1.587
				c-4.524,0.49-9.15,0.77-13.697,0.526c-9.027-0.481-17.54-4.282-22.317-12.156c-0.697-1.149-2.656-0.43-2.235,0.916
				c3.186,10.18,8.746,18.907,18.923,23.217c10.53,4.459,25.581,6.769,36.359,2.202c2.166-0.918,3.548-3.121,4.079-5.472
				c0.491-0.569,0.82-1.322,0.871-2.235C229.875,572.55,229.295,563.784,228.104,555.382z"/>
		</g>
		<g>
			<path fill="#895221" d="M856.094,484.161c-0.064,0-0.064,0.1,0,0.1S856.158,484.161,856.094,484.161z"/>
			<path fill="#895221" d="M170.762,348.163c-0.064,0-0.064,0.1,0,0.1S170.826,348.163,170.762,348.163z"/>
			<path fill="#895221" d="M856.34,474.787c-0.111-0.357-0.234-0.703-0.367-1.037c-0.418-1.05-17.3-0.972-19.156-1.129
				c-7.28-0.618-14.64-1.367-21.757-3.078c-16.387-3.938-23.2-14.734-35.38-24.822c-0.54-0.447-1.064-0.915-1.597-1.371
				c16.757-1.277,42.194-3.124,52.745-18.717c5.04-7.449-6.936-6.501-10.542-6.466c-7.929,0.075-15.897-0.927-23.763-1.88
				c-6.26-0.759-12.593-0.481-18.85-1.248c-2.979-0.365-6.021-0.789-8.861-1.827c-0.997-0.365-4.857-2.999-5.559-2.838
				c9.598-2.209,18.789-3.441,27.906-7.682c6.51-3.028,19.294-8.513,22.424-15.712c0.55-1.265,0.391-2.257-0.462-3.335
				c-4.628-5.853-14.23-0.232-19.65,1.212c-9.391,2.503-18.962,3.701-28.611,1.882c-5.561-1.048-10.928-2.92-16.149-5.078
				c-1.275-0.527-17.6-7.683-17.486-7.162c-0.142-0.649-0.185-1.342-0.1-2.088c0.968-8.54,6.114-15.769,7.325-24.157
				c2.396-16.602,5.56-33.399,7.078-50.101c1.383-15.208,1.571-30.526-0.038-45.725c-3.288-31.036-14.238-60.339-28.722-87.804
				c-20.607-39.078-43.701-73.66-84.417-93.695c-10.325-5.082-21.188-9.976-32.105-13.646c-15.72-5.286-31.526-10.333-47.721-13.984
				c-7.559-1.704-15.215-3.023-22.988-2.938c-2.131,0.023-23.446,3.135-23.388,3.27c-5.049-11.549-18.871-15.085-29.643-19.328
				c-10.299-4.058-21.187-6.27-32.226-6.904c-25.211-1.453-50.518,4.439-74.258,12.451c-32.2,10.865-62.267,25.492-90.809,43.958
				c-2.697,1.745-5.407,3.507-8.114,5.267c-2.331,0.838-4.554,1.819-6.513,2.688c-8.065,3.575-15.303,8.925-21.968,14.638
				c-2.097,1.798-4.077,3.811-5.966,5.936c-9.479,6.705-18.408,14.212-26.644,22.371c-10.55,10.454-21.088,21.925-29.964,33.846
				c-4.188,5.625-8.986,11.76-11.48,18.378c-1.221,3.238-2.271,6.494-3.002,9.879c-0.337,1.565-0.404,3.061-0.362,4.547
				c-0.907,1.234-1.695,2.554-2.326,3.977c-1.252,2.824,0.203,6.891,3.858,6.684c6.314-0.359,11.556-2.497,17.395-4.743
				c0.508-0.195,1.021-0.381,1.53-0.575c5.526,2.315,13.128,0.043,18.612-1.243c6.156-1.442,12.262-3.162,18.493-4.256
				c7.729-1.356,15.392-3.103,23.075-4.743c-0.501,0.354-0.922,0.638-1.234,0.822c-0.154,0.092-0.311,0.181-0.465,0.271
				c1.563,2.731,1.139,6.567-1.189,8.989c-0.261,0.683-0.642,1.362-1.177,2.022c-2.071,2.553-3.848,5.23-5.439,7.988
				c-3.851,1.666-7.677,3.396-11.548,5c-12.029,4.983-24.266,9.282-36.877,12.555c-10.96,2.844-22.059,5.042-33.066,7.681
				c-4.75,1.139-9.581,1.936-14.448,2.352c-0.193,0.017-0.388,0.024-0.581,0.037c-5.874-3.494-11.251-7.512-14.158-13.529
				c-0.592-1.224-2.528-1.155-3.131,0.009c-3.625,6.988-0.04,13.212,5.114,18.543c-0.345,0.36-0.537,0.862-0.378,1.406
				c2.262,7.735,6.17,14.756,11.094,21.143c0.822,2.565,1.854,5.074,2.908,7.503c5.324,12.28,14.537,22.937,23.93,32.291
				c9.871,9.831,21.984,17.871,33.609,25.465c0.227,0.148,0.456,0.292,0.684,0.439c0.201,1.112,0.401,2.225,0.613,3.334
				c7.957,6.715,16.142,13.231,24.508,19.413c-3.465-2.561-15.629,3.591-19.56,4.445c-11.64,2.528-24.264,3.035-35.941,0.617
				c-5.894-1.221-11.614-3.199-16.958-5.974c-2.261-1.174-11.488-9.177-13.436-8.823c-0.021,0.004-0.042,0.008-0.065,0.012
				c-5.808,1.113-1.513,12.596-0.288,15.027c5.601,11.121,16.85,20.942,27.499,27.163c-7.311-4.271-15.467-6.723-22.916-10.707
				c-7.37-3.942-15.394-8.855-23.047-12.023c-2.376-0.983-4.858,0.183-5.045,2.915c-1.433,21.004,28.187,38.934,38.469,54.694
				c6.173,9.463,9.541,20.269,13.297,30.828c3.142,8.836,6.271,16.15,13.883,21.921c8.665,6.57,15.91,13.112,19.895,23.465
				c3.775,9.809,5.918,21.128,14.313,28.281c4.215,3.592,13.7,4.207,17.089-1.514c4.464-7.535-2.035-23.324-3.674-31.021
				c-2.585-12.145-4.914-24.401-5.442-36.836c-0.807-18.959,3.908-36.758,7.887-55.106c1.862-8.591,3.336-17.036,4.339-25.772
				c0.591-5.15-0.331-10.572,6.23-11.147c8.125-0.713,21.05,7.681,27.324,12.011c5.811,4.011,9.057,10.323,14.564,14.61
				c18.123,14.104,46.088,16.458,68.192,15.39c25.691-1.242,49.853-6.76,73.839-15.689c28.381-10.564,56.402-23.906,83.563-37.256
				c26.479-13.014,52.503-28.742,81.788-34.531c31.473-6.222,62.449-6.332,89.369,13.961c9.745,7.346,17.658,16.098,25.05,25.717
				c7.858,10.228,15.309,15.896,13.317,29.52c-3.708,25.37-0.947,58.248,11.392,81.109c10.897,20.19,32.086,34.237,55.315,32.573
				c16.783-1.202,35.23-4.514,51.453-8.933C840.773,487.897,858.881,482.965,856.34,474.787z"/>
			<g>
				<path fill="#7B401A" d="M812.323,485.15c-12.854-9.765-28.629-7.9-43.718-11.681c-6.642-1.663-12.054-4.048-18.037-7.7
					c-5.095-3.109-11.646-9.076-13.325-14.914c-0.033-0.115-0.073-0.221-0.112-0.33c5.846,3.785,12.565,6.267,19.289,7.922
					c8.762,2.155,20.254,3.834,28.524-0.64c3.525-1.907,5.707-5.911,5.732-9.864c0.035-5.648-3.65-9.147-8.497-11.132
					c-5.861-2.4-14.054-1.24-20.331-1.7c-0.734-0.059-1.468-0.13-2.199-0.211c-0.123-0.02-0.258-0.041-0.414-0.064
					c-1.469-0.229-2.922-0.545-4.37-0.88c-3.563-0.822-5.514-1.611-7.363-2.517c-5.06-2.475-8.052-4.779-10.67-8.695
					c-1.656-2.479-2.808-4.918-3.547-7.406c0.562,0.536,1.134,1.055,1.72,1.543c5.066,4.225,13.514,7.936,19.706,3.874
					c3.44-2.257,4.862-6.55,2.75-10.263c-2.117-3.723-6.483-5.876-10.221-7.753c-3.021-1.518-4.968-3.941-6.872-6.644
					c-2.017-2.86-3.191-5.871-3.994-9.258c-0.782-3.305-0.877-8.334-2.943-11.047c-0.875-1.146-1.991-1.489-3.33-0.892
					c-3.973,1.772-5.88,8.323-6.333,12.277c-0.61,5.327-0.198,10.847,1.506,15.951c-0.33,0.378-0.601,0.827-0.779,1.355
					c-2.808,8.31-4.9,15.827-3.16,24.614c1.434,7.24,6.135,13.798,11.787,18.498c-2.795-0.107-5.723,2.096-4.726,5.563
					c1.151,4.003,1.882,8.181,2.761,12.261c0.876,4.069,4.275,8.246,6.777,11.433c5.161,6.572,11.847,11.186,19.356,14.73
					c7.865,3.711,16.174,6.412,24.736,7.879c4.604,0.789,9.271,1.555,13.938,1.757c3.35,0.145,5.999-0.354,9.071-1.718
					c-1.964,0.871,1.584,0.127,1.654,0.113c1.236-0.23,2.804-1.185,4.006-1.758C815.046,495.783,816.354,488.212,812.323,485.15z"/>
				<path fill="#7B401A" d="M278.028,136.369c-4.558,0.594-9.206,2.555-13.679,3.696c-5.064,1.294-10.165,2.448-15.264,3.602
					c-11.262,2.547-22.604,4.888-33.666,8.22c-11.274,3.396-22.524,7.543-32.879,13.186c-4.533,2.471-9.61,6.102-12.867,10.191
					c-4.715,5.918-10.277,17.666-0.623,22.318c3.182,1.533,6.089,2.008,9.515,0.956c0.619-0.255,1.238-0.509,1.857-0.764
					c0.104-0.036,0.401-0.147,0.897-0.337c1.764-0.656,3.5-1.376,5.24-2.095c1.939-0.802,3.791-1.889,5.716-2.765
					c1.158-0.493,3.114-1.338,3.79-1.664c0.653-0.314,1.317-0.607,1.982-0.898c-0.286,0.141,1.938-0.783,2.336-0.933
					c1.193-0.448,2.402-0.859,3.609-1.271c2.483-0.847,5.003-1.586,7.527-2.301c5.261-1.491,10.603-2.693,15.953-3.81
					c10.412-2.173,20.83-4.249,31.279-6.239c10.463-1.992,22.37-3.312,31.95-8.174c6.635-3.368,9.706-11.885,7.89-18.848
					C296.054,138.703,287.133,135.186,278.028,136.369z"/>
				<path fill="#7B401A" d="M491.727,45.555c-16.584-4.573-37.889-2.274-52.662,6.773c-2.207,1.352-1.253,4.596,1.256,4.738
					c8.631,0.49,16.575-1.894,24.887-3.817c8.631-1.998,17.318-3.604,26.117-4.699C492.949,48.348,493.52,46.049,491.727,45.555z"/>
				<path fill="#7B401A" d="M230.84,343.665c-6.521,1.45-12.093,6.369-17.582,8.235c-6.713,2.281-13.883,3.723-20.914,4.553
					c-7.641,0.902-15.364,0.986-22.99,1.925c-6.708,0.825-13.259,2.065-20,2.719c-1.039,0.101-1.245,1.437-0.241,1.797
					c6.655,2.388,13.159,5.171,19.97,7.066c8.246,2.295,17.381,2.835,25.9,3.126c8.232,0.282,16.478-0.295,24.527-2.079
					c7.868-1.745,18.705-5.271,22.114-13.261C244.834,350.225,239.573,341.725,230.84,343.665z"/>
				<path fill="#7B401A" d="M228.874,373.025c-8.263,0-14.954,5.663-22.31,8.912c-6.494,2.87-13.781,4.614-20.758,5.791
					c-16.185,2.729-32.189,3.264-48.448,1.155c-1.842-0.239-2.211,2.808-0.43,3.195c8.537,1.854,16.873,4.2,25.37,6.137
					c8.198,1.869,16.789,3.405,25.219,3.166c8.604-0.243,17.007-1.752,25.065-4.766c8.691-3.251,18.451-7.306,21.56-16.687
					C235.261,376.555,232.26,373.025,228.874,373.025z"/>
				<path fill="#7B401A" d="M578.643,65.507c3.165,0.302,6.389,0.849,9.484,1.579c1.544,0.364,3.093,0.791,4.623,1.213
					c1.865,0.514,3.36-0.114,4.966,1.051c2.756,1.999,5.873-1.826,4.425-4.449c-1.676-3.037-2.085-5.926-4.577-8.616
					c-2.721-2.938-7.43-5.513-11.213-6.737c-8.794-2.848-17.95-3.661-27.147-3.541c-9.791,0.127-19.411,1.689-29.041,3.344
					c-4.153,0.713-8.299,1.469-12.451,2.187c-3.34,0.577-6.617,2.304-9.838,3.386c-5.029,1.69-6.196,10.064-0.04,11.195
					c15.008,2.761,30.942,0.329,46.11-0.73C562.111,64.817,570.486,64.73,578.643,65.507z"/>
				<path fill="#7B401A" d="M618.446,66.271c-5.504,2.829-10.786,6.008-15.796,9.586c-0.298-0.58-0.892-0.996-1.813-0.966
					c-12.975,0.436-25.268,4.231-36.905,9.833c-11.615,5.592-23.054,12.912-30.251,23.789c-1.668,2.522,1.67,5.758,4.171,4.148
					c9.85-6.34,18.333-14.461,28.278-20.697c9.625-6.037,20.34-10.539,31.578-12.364c-1.163,0.931-2.315,1.877-3.443,2.856
					c-3.95,3.433-7.147,7.504-10.202,11.73c-3.277,4.534-5.396,8.363-4.16,13.987c0.663,3.021,4.171,4.122,6.709,2.807
					c4.146-2.148,5.6-5.12,7.879-9.054c2.321-4.007,5.204-7.663,8.106-11.258c5.589-6.922,12.374-12.759,19.606-17.891
					C626.114,70.006,622.812,64.027,618.446,66.271z"/>
				<path fill="#7B401A" d="M215.055,473.584c-3.205-9.644-7.683-18.592-12.753-27.374c-5.012-8.68-10.556-16.954-16.536-24.989
					c-5.898-7.928-12.369-17.238-22.888-18.299c-2.262-0.229-5.095,1.855-5.426,4.141c-1.357,9.359,4.405,17.109,10.051,24.115
					c5.72,7.1,11.53,14.166,17.069,21.405c5.748,7.513,11.004,15.425,16.094,23.394c4.895,7.661,10.783,16.068,13.82,24.642
					c0.859,2.427,5.103,2.324,4.797-0.601C218.337,490.951,217.967,482.35,215.055,473.584z"/>
				<path fill="#7B401A" d="M733.512,310.115c-2.566-3.141-4.704-6.096-8.38-8.188c-0.22-0.126-0.452-0.238-0.68-0.356
					c-0.859-1.821-1.97-3.602-3.604-5.369c-2.099-2.271-4.722-4.06-7.118-6.009c-6.238-5.07-12.658-9.932-19.179-14.633
					c-10.165-7.328-20.924-13.826-32.278-19.139c-25.491-11.927-53.322-18.246-81.525-15.643
					c-48.938,4.518-92.363,27.654-135.088,50.236c-10.144,5.361-20.326,10.652-30.664,15.632c-4.905,2.362-9.857,4.626-14.85,6.8
					c-1.144,0.498-2.292,0.984-3.441,1.469c-0.071,0.029-0.138,0.055-0.218,0.088c-2.913,1.172-5.853,2.277-8.804,3.353
					c-10.443,3.804-21.158,6.845-32.07,8.963c-2.613,0.507-5.242,0.925-7.875,1.31c-0.047,0.007-0.083,0.012-0.127,0.019
					l-0.012,0.001c-1.332,0.15-2.667,0.268-4.003,0.385c-5.858,0.512-11.734,0.586-17.61,0.45c-2.766-0.063-5.527-0.242-8.284-0.461
					c-1.396-0.11-2.789-0.261-4.182-0.412c-0.196-0.021-0.362-0.039-0.516-0.055c-0.043-0.007-0.079-0.012-0.124-0.019
					c-6.594-0.971-13.034-2.537-19.418-4.432c-3.113-0.924-6.188-1.973-9.246-3.06c-1.527-0.543-3.041-1.125-4.555-1.706
					c-0.318-0.123-0.581-0.223-0.798-0.306c-0.195-0.083-0.418-0.178-0.688-0.292c-6.502-2.746-12.825-5.904-19.027-9.268
					c-12.02-6.521-23.466-13.957-34.45-22.094c-0.146-0.107-0.276-0.205-0.396-0.294c-0.225-0.176-0.592-0.462-1.168-0.906
					c-1.31-1.011-2.605-2.038-3.9-3.067c-2.59-2.056-5.139-4.163-7.674-6.285c-5.483-4.59-10.943-9.199-16.283-13.957
					c-7.301-6.506-14.456-14.239-22.566-19.706c-4.021-2.71-8.456-5.956-13.22-7.232c-3.41-0.913-9.484,0.074-11.555,3.569
					c-7.689,12.979,7.296,27.935,15.218,37.311c8.826,10.449,18.621,20.166,28.82,29.269c21.075,18.808,44.355,35.656,70.243,47.167
					c24.852,11.051,51.173,17.291,78.483,15.989c23.648-1.127,46.63-7.063,68.591-15.664c22.622-8.859,44.239-19.819,65.838-30.886
					c10.265-5.258,20.563-10.441,30.956-15.442c4.955-2.384,9.951-4.679,14.984-6.893c0.944-0.415,4.578-1.938,5.67-2.408
					c2.248-0.896,4.504-1.771,6.771-2.62c10.559-3.951,21.378-7.189,32.401-9.555c2.644-0.567,5.305-1.049,7.97-1.5
					c1.335-0.227,2.676-0.422,4.017-0.617c0.007-0.001,0.013-0.002,0.02-0.003c6.328-0.712,12.663-0.96,19.027-0.783
					c3.2,0.089,6.394,0.35,9.578,0.669c0.302,0.029,0.549,0.054,0.76,0.073c0.014,0.002,0.024,0.004,0.039,0.006
					c1.529,0.228,3.051,0.509,4.57,0.791c6.461,1.196,12.799,2.993,19.009,5.122c1.416,0.485,2.816,1.016,4.216,1.546
					c0.145,0.055,0.274,0.104,0.395,0.149c0.023,0.01,0.041,0.018,0.065,0.027c2.741,1.168,5.413,2.501,8.069,3.848
					c5.789,2.934,11.362,6.281,16.803,9.813c3.387,2.198,6.686,4.527,9.949,6.902c0.371,0.273,0.74,0.55,1.11,0.824
					c0.136,0.104,0.269,0.207,0.44,0.338c1.616,1.249,3.209,2.527,4.798,3.808c3.203,2.581,6.371,5.216,9.427,7.968
					c2.59,2.332,5.285,4.472,8.171,6.445c1.087,0.611,2.203,1.117,3.343,1.535c0.617,0.883,1.315,1.743,2.161,2.578
					c2.634,2.599,6.368,4.651,9.459,6.764c7.394,5.057,18.442,2.68,24.41-3.368C742.068,330.242,740.477,318.639,733.512,310.115z"
					/>
				<path fill="#7B401A" d="M903.035,301.062c-5.431-5.634-12.85-5.423-20.097-5.23c-6.385,0.169-12.766,0.405-19.142,0.786
					c-10.703,0.639-21.282,2.014-31.776,4.202c-15.374,3.206-30.384,8.075-44.874,14.102c-7.387,3.073-14.819,6.401-21.646,10.6
					c-6.586,4.05-12.88,9.061-18.962,13.89c1.145-1.597,2.353-3.176,3.642-4.748c10.359-12.632,20.493-25.584,32.7-36.514
					c10.839-9.705,23.75-17.848,37.579-22.258c8.89-2.835,18.23-4.531,27.479-5.667c3.693-0.453,7.927-0.655,12.072-1.253
					c6.147,0.465,12.328,0.333,16.518-3.646c2.325-2.207,2.482-5.257,1.351-7.887c0.485-2.643-0.438-5.425-2.325-7.437
					c-7.813-8.333-22.597-4.252-32.326-2.619c-10.22,1.716-20.313,4.119-30.045,7.705c-16.926,6.235-31.849,16.317-45.016,28.557
					c-9.832,9.14-18.636,19.505-25.292,31.13c-4.085,5.666-7.653,11.428-10.381,17.925c-1.487,3.541-2.81,7.136-3.975,10.794
					c-0.799,2.506-0.571,4.492-0.292,6.605c-2.244,7.222-3.662,13.962-2.246,16.616c-0.798,3.633-0.313,6.765,3.607,6.756
					c5.457-0.013,8.486-8.406,11.343-12.104c4.088-5.29,9.206-9.781,14.649-13.625c5.954-4.205,12.655-6.42,19.362-9.102
					c7.085-2.834,14.396-5.091,21.767-7.047c13.789-3.66,27.031-5.828,39.297-6.839c9.823-0.81,19.706-1.224,29.561-1.237
					c5.742-0.008,11.483,0.158,17.222,0.333c7.419,0.226,14.783,0.467,20.373-5.284C907.948,313.643,907.74,305.943,903.035,301.062
					z"/>
			</g>
		</g>
		<g id="Mouth_3_">
			<radialGradient id="SVGID_2_" cx="459.0879" cy="834.8525" r="88.3901" gradientUnits="userSpaceOnUse">
				<stop  offset="0" style="stop-color:#390000"/>
				<stop  offset="0.3233" style="stop-color:#3E0300"/>
				<stop  offset="0.8114" style="stop-color:#4B0E00"/>
				<stop  offset="1" style="stop-color:#501300"/>
			</radialGradient>
			<path fill="url(#SVGID_2_)" d="M566.363,859.816c-0.325-0.957-0.721-1.872-1.16-2.763c-1.355-2.751-3.12-5.263-4.446-8.019
				c-2.268-4.712-4.219-9.638-6.711-14.201c-2.56-4.688-5.705-8.907-8.888-13.03c-3.832-4.964-7.668-10.014-12.288-14.016
				c-5.766-4.996-12.316-8.532-18.967-11.614c-4.175-1.936-8.421-3.638-12.627-5.476c-16.188-7.073-32.714-12.692-49.827-15.718
				c-19.824-3.504-39.466-4.426-58.844,2.599c-8.99,3.258-17.583,7.946-25.133,14.512c-1.104,0.984-2.202,1.979-3.299,2.973
				c0.421-0.381-0.667,0.598-3.277,2.945c-0.66,0.771-1.259,1.599-1.8,2.486c-0.758,1.167-1.517,2.335-2.276,3.503
				c1.354-1.885,0.831-1.049-1.563,2.506c-1.977,4.142-3.793,8.2-4.256,12.981c-0.49,5.049,0.446,9.957,0.459,14.978
				c0.013,4.972-1.171,10.469,0.771,15.144c0.909,2.188,2.493,3.915,4.329,5.184c0.512,0.95,1.104,1.845,1.782,2.643
				c0.04,0.049,0.069,0.082,0.106,0.126c0.352,0.506,0.7,1.013,1.025,1.536c1.087,1.688,1.986,3.471,2.865,5.271
				c1.82,3.727,3.505,7.509,5.488,11.153c5.551,10.196,13.479,16.714,24.168,20.897c4.154,1.626,8.173,1.12,11.59-0.688
				c9.118,1.75,19.32,0.223,28.314-2.215c12.571-3.406,26.368-8.75,36.914-16.619c2.348-1.752,4.374-3.758,5.919-5.994
				c9.653-4.109,19.556-7.58,29.753-9.256c9.829-1.613,19.723-1.104,29.5,0.746c5.563,1.054,11.034,2.675,16.568,3.909
				c5.389,1.202,10.782,2.449,15.942,4.672c0.207,0.085,0.81-4.719,0.817-5.115C567.354,863.792,567.015,861.733,566.363,859.816z"
				/>
			<path fill="#C42126" d="M503.173,863.833c-0.132-2.89-1.953-6.789-3.265-9.339c-1.288-2.507-3.087-4.726-5.646-6.006
				c-6.16-3.081-14.132-0.667-20.411,0.753c-7.175,1.622-13.094,5.053-19.199,9.001c-1.387,0.899-2.75,1.841-4.104,2.801
				c-0.984-2.434-4.027-5.186-5.868-7.029c-1.95-1.953-4.153-3.681-6.692-4.798c-5.111-2.248-10.715-1.558-15.878,0.134
				c-5.511,1.805-10.7,4.463-15.859,7.078c-7.054,3.576-12.745,9.195-19.4,13.423c-3.262,2.072-8.157,5.132-6.808,9.716
				c1.489,5.057,6.531,4.618,10.748,5.204c14.703,2.043,29.918,5.778,44.623,1.683c14.59-4.062,27.431-12.891,41.961-17.225
				c1.984-0.593,25.813-4.681,25.811-4.409C503.189,864.492,503.188,864.164,503.173,863.833z"/>
			<path fill="#A1320F" d="M562.755,832.188c-5.336-13.285-12.477-25.679-20.462-36.645c-8.041-11.044-16.463-22.874-27.302-30.361
				c-15.051-10.399-31.323-23.437-48.925-26.868c-2.204-0.43-11.888-1.531-13.344,0.925c-1.867,3.144-5.003,5.112-8.274,5.151
				c-3.96,0.049-7.151-4.033-11.262-4.008c-4.607,0.029-8.974,3.226-13.403,4.391c-24.301,6.397-50.053,16.516-64.383,42.142
				c-4.342,7.765-9.476,17.46-11.664,26.418c-5.351,21.903,0.223,49.635,9.595,69.282c5.564,11.664,19.508,18.425,29.964,21.058
				c12.378,3.117,25.806,4.581,38.476,4.357c14.85-0.262,29.439-3.752,43.688-8.431c8.162-2.681,16.18-5.866,24.281-8.774
				c9.816-3.523,19.24-7.599,29.468-9.243c8.8-1.415,17.579-1.738,26.44-2.045c4.539-0.157,9.063,1.125,13.585,0.915
				c7.058-0.328,5.939-4.467,8.899-10.094c2.824-5.37,4.626-7.626,2.968-14.379C569.121,847.928,565.806,839.781,562.755,832.188z
				 M558.252,863.129c1.513,4.902-16.23,0.447-17.336,0.083c-13.508-4.455-25.29-3.754-38.966-0.656
				c-20.208,4.578-39.262,11.307-59.071,17.67c-8.542,2.745-15.895,7.66-24.964,8.599c-9.082,0.939-19.587-1.189-27.859-5.775
				c-11.546-6.401-25.278-12.618-32.519-25.7c-8.294-14.985-5.862-39.122,3.661-52.617c6.55-9.28,16.505-14.386,25.924-18.548
				c27.43-12.115,54.239-11.278,81.904-0.93c7.186,2.688,14.545,5.412,21.5,8.837c16.158,7.953,30.839,17.421,43.512,31.763
				c8.878,10.046,19.127,23.232,23.995,36.689C558.104,862.737,558.188,862.92,558.252,863.129z"/>
		</g>
		<g>
			<path fill="#C7886A" d="M415.158,942.164c-5.292-3.331-11.51-2.812-17.468-3.14c-2.668-0.146-4.551-0.434-5.594-0.602
				c-3.051-0.494-6.065-1.196-9.058-1.962c-11.635-2.979-22.196-7.452-32.723-13.172c-10.966-5.959-20.86-13.34-30.978-20.565
				c-8.665-6.189-17.753-13.633-23.916-22.38c-1.173-1.665-4.291-0.747-3.539,1.451c3.81,11.137,8.838,21.228,15.855,30.695
				c8.384,11.312,19.368,20.407,30.848,28.417c11.338,7.911,23.726,14.375,36.801,18.886c12.478,4.305,31.192,9.676,42.207,0.013
				C423.281,954.815,420.91,945.784,415.158,942.164z"/>
			<path fill="#C7886A" d="M631.375,900.258c-0.417-2.238-2.653-4.508-4.898-4.931c-7.139-1.346-14.071,2.452-19.32,7.039
				c-4.861,4.248-9.77,8.43-14.683,12.617c-8.268,7.046-17.452,13.476-27.912,19.101c-9.695,5.215-18.651,8.402-29.871,11.06
				c-5.654,1.339-11.398,2.248-17.181,2.789c-7.463,0.698-15.969-0.274-21.894,4.981c-3.503,3.107-3.188,9.226,0.089,12.328
				c5.611,5.313,14.467,4.486,21.689,4.165c7.211-0.32,14.424-1.211,21.531-2.449c12.577-2.189,24.646-6.523,36.143-12.014
				c11.733-5.604,22.333-13.062,32.583-20.994C617.43,926.382,634,914.369,631.375,900.258z"/>
		</g>
		<path fill="#C7886A" d="M527.524,600.126c-8.7-8.585-20.719-5.085-27.283,3.768c3.437-4.635-1.043,1.074-1.974,2.12
			c-1.763,1.979-3.601,3.87-5.516,5.7c-1.997,1.907-4.111,3.689-6.256,5.427c-0.148,0.108-0.331,0.243-0.557,0.41
			c-1.378,1.021-2.792,1.993-4.21,2.958c-4.767,3.244-9.783,6.111-14.906,8.751c-2.821,1.453-5.707,2.777-8.615,4.047
			c-0.145,0.063-0.272,0.119-0.392,0.172c-0.22,0.083-0.524,0.201-0.939,0.364c-1.708,0.671-3.438,1.286-5.169,1.892
			c-5.53,1.933-11.23,3.532-16.926,4.896c-6.871,1.647-9.167,1.948-15.882,2.218c-4.452,0.179-10.844,0.337-14.226-0.141
			c-5.058-0.714-11.457-2.459-16.72-1.021c-2.977,0.813-4.563,3.744-3.927,6.69c1.328,6.157,7.049,10.688,13.617,13.782
			c-0.655,1.01-0.943,2.219-0.648,3.521c-0.356,0.983-0.557,2.009-0.567,3.085c-0.015,2.293,1.023,4.274,1.949,6.31
			c1.134,2.493,2.904,4.642,4.61,6.751c3.73,4.611,9.863,6.956,15.283,8.848c2.17,0.757,4.45,1.307,6.798,1.687
			c0.832,15.25,23.296,18.531,35.627,17.266c7.925-0.813,15.611-2.138,23.199-4.57c10.053-3.222,23.558-7.548,25.724-19.543
			c1.076-5.962,0.027-11.746-2.992-16.256c7.745-4.963,14.436-11.412,14.104-19.731c-0.192-4.81-2.069-9.198-5.285-12.348
			c4.557-3.805,8.696-7.965,12.256-12.486C533.553,617.261,534.833,607.339,527.524,600.126z"/>
		<g>
			<path fill="#4C2900" d="M592.12,703.242c-1.977-6.794-8.023-10.65-15.829-13.41c5.55,1.961,0.641,0.141-0.412-0.319
				c-1.766-0.769-3.432-1.669-5.074-2.584c-0.041-0.03-0.077-0.056-0.122-0.087c-1.468-1.033-2.813-2.163-4.141-3.299
				c-0.97-0.83-1.865-1.708-2.761-2.584c-0.235-0.276-0.479-0.551-0.71-0.83c-4.328-15.014-15.172-29.625-26.922-40.813
				c-6.418-6.111-18.89-7.256-27.405-3.911c-1.944,0.765-3.675,1.743-5.187,2.871c-1.503-0.011-2.993,0.079-4.431,0.304
				c-1.379,0.215-2.754,0.563-4.098,1.025c-5.123-5.405-14.011-8.265-22.564-6.933c-3.119,0.485-5.947,1.509-8.384,2.904
				c-3.579-1.108-7.603-1.469-11.889-0.803c-5.048,0.787-8.831,2.655-11.501,5.183c-3.479-0.83-7.178-1.037-10.56-0.51
				c-0.166,0.024-0.329,0.058-0.494,0.087c-0.339-0.1-0.675-0.206-1.026-0.295c-1.451-0.366-2.989-0.581-4.558-0.652
				c-7.073-5.992-21.224-6.904-28.626-0.29c-4.979-8.185-17.767-11.068-28.529-4.92c-12.646,7.227-18.49,17.837-21.685,29.156
				c-4.87,5.123-9.3,10.512-13.129,16.188c-9.345,13.85-17.319,29.454-16.544,45.489c0.441,9.073,12.52,16.801,23.944,11.981
				c6.146-2.592,11.734-5.827,16.472-9.688c0.541,0.638,1.1,1.273,1.697,1.905c6.133,6.471,19.221,5.504,26.028,0.994
				c3.841-2.544,7.214-5.54,10.183-8.816c0.368,0.492,0.73,0.985,1.126,1.476c6.222,7.709,20.868,11.486,29.89,4.271
				c1.467-1.172,2.819-2.382,4.074-3.622c0.68,0.175,1.372,0.335,2.088,0.47c5.391,1.007,10.404,0.869,14.847-0.217
				c0.501,0.554,1.007,1.107,1.528,1.657c4.202,4.431,13.337,6.001,19.805,4.995c5.275-0.82,9.117-2.901,11.799-5.741
				c5.115,1.933,9.828,3.078,15.589,2.181c2.212-0.344,4.449-1.014,6.528-1.944c1.347,0.812,2.727,1.606,4.184,2.356
				c10.092,5.203,22.762,2.576,29.333-4.185c2.966,0.608,5.995,0.786,9.468,0.246c3.268-0.509,6.049-1.5,8.415-2.86
				c1.599,0.717,3.223,1.401,4.9,2.017c11.448,4.21,24.59,3.663,31.81-5.258C592.385,712.554,593.438,707.768,592.12,703.242z"/>
			<path fill="#4C2900" d="M493.728,920.355c-3.537-6.127-10.878-8.781-17.407-6.882c-3.737-8.803-16.475-13.611-23.522-5.038
				c-1.862,2.266-3.448,4.632-4.79,7.098c-0.36-0.551-0.718-1.102-1.092-1.645c-4.31-6.262-12.077-9.136-19.058-5.105
				c-3.317,1.915-5.277,4.631-6.151,7.686c-4.805-1.707-10.559,3.383-8.916,8.508c0.566,1.768,0.381,3.503,0.854,5.313
				c0.652,2.5,2.088,5.318,3.298,7.615c2.163,4.102,4.931,7.869,7.633,11.623c5.767,8.014,12.251,15.516,18.395,23.24
				c3.076,3.867,9.05,4.616,13.689,3.166c0.085,0.024,0.167,0.057,0.253,0.079c7.878,2.111,15.449-2.72,17.802-10.277
				c0.378-1.214,0.781-2.417,1.204-3.616c0.048-0.135,0.102-0.268,0.15-0.402c0.134-0.322,0.659-1.656,0.821-2.025
				c1.503-3.422,3.214-6.753,5.045-10.011c0.711-1.265,1.472-2.501,2.242-3.731c0.323-0.515,1.61-2.293,2.077-2.976
				c0.55-0.639,1.118-1.261,1.713-1.858c0.071-0.035,0.146-0.073,0.229-0.117C495.487,937.154,497.727,927.281,493.728,920.355z"/>
			<path fill="#4C2900" d="M664.5,300.648c-9.663-4.452-24.616-5.219-29.776-0.311c-0.786,0.753-1.453,1.502-2.065,2.255
				c-3.804-9.577-30.375-16.662-39.412-9.183c-8.69-5.12-23.619-7.033-30.565-2.06c-3.155,2.259-5.451,4.767-7.135,7.446
				c-8.539-5.592-24.641-6.758-29.941-0.248c-6.383,7.836-10.728,16.348-12.637,25.446c-1.802,8.589-1.878,19.679,6.867,28.814
				c3.353,3.498,12.655,5.452,15.895,2.487c0.196-0.18,0.367-0.364,0.55-0.548c0.72,0.719,1.461,1.437,2.261,2.153
				c7.14,6.413,20.088,10.191,29.788,6.813c2.9-1.011,5.417-2.176,7.652-3.45c7.728,3.494,18.67,4.628,24.923,2.15
				c4.326-1.713,7.706-3.789,10.42-6.116c2.702,1.421,5.756,2.728,9.234,3.879c14.023,4.635,26.335,2.174,34.464-2.179
				c6.091-3.264,8.557-9.169,10.63-13.938c2.285-5.256,3.748-10.729,5.314-16.159c0.717-2.478,1.459-4.947,2.248-7.406
				c0.564-1.759,1.23-3.498,1.462-5.334c0.022-0.178,0.059-0.354,0.089-0.534C676.143,309.9,673.079,304.602,664.5,300.648z"/>
			<path fill="#4C2900" d="M388.797,306.268c-6.824,0.304-12.46,1.55-16.722,3.348c-10.638-1.251-23.939,0.34-31.277,4.854
				c-2.17-0.515-4.621-0.878-7.313-1.044c-13.602-0.841-24.01,3.063-28.864,8.118c-0.133,0.14-0.256,0.279-0.385,0.417
				c-0.14-0.168-0.269-0.337-0.414-0.504c-5.658-6.496-30.124-6.18-35.083,1.558c-5.675,8.854-7.888,17.857-8.081,26.749
				c-0.096,4.438,0.564,8.814,1.667,13.175c1.252,4.967,4.617,8.281,12.392,11.851c1.088,0.497,2.791,0.677,4.546,0.607
				c0.382,0.734,0.787,1.464,1.247,2.189c4.255,6.709,23.819,6.179,33.488,1.355c8.893,6.075,33.02,3.65,41.736-2.516
				c2.328-1.649,4.328-3.336,6.066-5.047c13.505,3.273,35.676-0.924,40.553-8.003c10.908-15.838,9.624-31.943,11.998-47.837
				C415.199,309.836,402.156,305.673,388.797,306.268z"/>
		</g>
		<g>
			<path fill="#4D2B00" d="M485.715,616.049c5.11-3.854,10.406-7.471,15.728-11.023c0.018-0.012,0.034-0.023,0.052-0.035
				c0.126-0.73,0.234-1.456,0.321-2.171c0.853-7.046-0.551-15.603-2.586-22.394c-2.221-7.408-8.614-12.78-16.507-12.83
				c-7.569-0.048-15.9,6.004-17.143,13.803c-4.759,4.216-8.987,9.638-11.551,15.326c-3.304,2.74-5.014,6.385-6.71,10.716
				c-1.581,4.038-0.642,9.262,1.603,13.329c0.027,0.125,0.043,0.25,0.072,0.374c0.898,3.811,2.938,6.958,5.617,9.327
				c10.573-3.258,20.714-9.54,30.656-14.208C485.417,616.192,485.565,616.119,485.715,616.049z"/>
			<linearGradient id="SVGID_3_" gradientUnits="userSpaceOnUse" x1="433.7969" y1="645.2061" x2="452.1748" y2="362.9943">
				<stop  offset="0" style="stop-color:#D4897F"/>
				<stop  offset="0.2098" style="stop-color:#D88E80"/>
				<stop  offset="0.4835" style="stop-color:#E19D81"/>
				<stop  offset="0.7915" style="stop-color:#F4B882"/>
				<stop  offset="0.8619" style="stop-color:#FDC283"/>
			</linearGradient>
			<path fill="url(#SVGID_3_)" d="M524.551,534.038c-6.973-6.882-13.454-6.034-22.199-5.863c-6.475,0.126-8.755-5.321-11.913-10.372
				c-2.939-4.702-3.584-8.912-2.438-14.344c2.371-11.238,6.476-22.798,9.874-33.797c-0.104-0.044-0.163-0.008-0.185,0.103
				c-0.028-3.448,6.255-13.19,7.574-16.653c1.88-4.936,3.788-9.887,5.421-14.911c3.734-11.492,5.959-23.443,5.484-35.566
				c-0.373-9.53-9.191-20.917-18.362-23.079c-11.508-2.712-22.261,6.232-28.993,14.636c-5.611,7.005-7.025,19.109-16.981,21.736
				c-2.343,0.616-4.823,0.393-7.225-1.137c-4.044-2.575-4.45-7.089-10.04-6.362c-3.299,0.43-7.657,3.53-10.271,5.561
				c-5.979,4.644-9.696,11.582-13.417,18.027c-1.222,2.875-2.381,5.758-3.402,8.684c0.089,0.17,0.169,0.342,0.266,0.511
				c5.657,9.897,15.129,18.032,15.663,30.176c0.414,9.401-4.169,17.786-8.174,25.964c-1.273,2.602-11.045,24.662-10.13,24.99
				c-4.697-1.688-9.607-2.93-14.79-3.592c-1.827-0.233-3.716-0.313-5.619-0.242c-3.169-0.563-6.458-0.602-9.808,0.006
				c-6.849,1.24-11.77,6.201-15.353,12.023c-1.412,1.714-2.777,3.521-3.964,5.402l-0.202,0.492c-0.096,0.104-0.236,0.295-0.43,0.583
				c-0.325,0.467-0.62,0.95-0.905,1.443c-14.303,24.751-1.935,57.214,14.467,77.391c17.284,21.266,47.749,29.268,73.204,19.205
				c8.084-3.196,15.859-9.181,16.738-18.331c0.45-4.681-0.445-9.406-0.562-14.085c-0.108-4.373-0.415-11.496,1.575-15.492
				c2.276-4.572,8.056-9.376,12.543-11.569c3.643-1.781,10.943-2.641,13.738,1.487c3.938,5.815,5.396,13.893,4.737,20.79
				c-0.319,3.345,0.014,12.313,6.138,9.189c2.645-1.349,4.403-3.958,7.162-4.784c4.906-1.469,9.055-1.244,13.092-4.976
				c3.324-3.074,6.074-7.472,7.711-11.687c3.518-9.056,4.605-18.916,6.255-28.431C532.318,548.581,531.026,540.429,524.551,534.038z
				"/>
			<g>
				<path fill="#AD6D68" d="M452.04,606.429c-7.122-1.854-15.7,0.214-23.023,0.492c-1.667,0.159-3.329,0.356-4.987,0.593
					c-0.457,0.061-0.771,0.103-0.977,0.131c-1.919,0.225-3.842,0.414-5.767,0.582c-3.996,0.348-7.822,0.084-11.802-0.362
					c-12.195-1.369-26.41-4.962-37.678-11.6c-2.381-1.402-4.965,0.915-4.459,3.415c3.534,17.461,19.701,25.178,35.288,29.971
					c7.755,2.385,16.097,3.868,24.059,5.458c4.923,0.983,9.923,1.186,14.924,1.369c4.519,0.165,10.048,0.875,14.317-0.699
					c6.479-2.388,11.309-7.308,11.355-14.608C463.333,614.384,458.628,608.145,452.04,606.429z"/>
				<path fill="#AD6D68" d="M512.758,577.639c-7.003,0.767-12.003,5.119-16.281,10.502c-2.703,3.4-9.469,11.745-4.178,15.981
					c4.795,3.839,10.573,0.971,15.218-1.701c5.505-3.166,11.859-7.812,13.183-14.374
					C521.648,583.344,518.384,577.023,512.758,577.639z"/>
				<path fill="#AD6D68" d="M424.022,559.201c0.361-6.032,2.662-12.172,4.297-17.726c1.853-6.294,6.004-10.472,9.1-16.07
					c3.005-5.436,5.089-12.011,7.095-17.879c2.157-6.315,3.531-12.794,3.729-19.479c0.11-3.752,0.197-7.793-0.341-11.515
					c-1.957-13.54-13.028-19.156-22.235-27.27c-4.323-3.809-3.704-8.46-1.324-13.381c1.56-3.227,3.708-6.406,5.962-9.176
					c0.896-1.1,1.839-2.135,2.821-3.156c0.918-0.954,1.044-2.414,1.888-3.425c0.149-0.179,0.073-0.548-0.215-0.519
					c-2.986,0.307-4.221,0.023-7.073,1.443c-2.943,1.465-5.573,3.588-8.063,5.709c-4.889,4.164-7.768,10.908-8.494,17.122
					c-1.479,12.657,8.309,19.356,13.354,29.286c1.485,2.922,1.915,10.332,1.226,14.406c-1.153,6.824-4.004,13.225-6.313,19.702
					c-2.359,6.617-5.179,13.155-6.231,20.134c-1.303,8.635-1.987,17.28,3.095,24.502c1.188,1.688,2.165,3.766,2.5,5.833
					c0.483,2.992,0.586,7.453,3.92,9.346c0.435,0.246,0.894,0.378,1.357,0.418c0.127-0.613,0.287-1.22,0.442-1.826
					C424.015,563.558,423.892,561.387,424.022,559.201z"/>
			</g>
			<path fill="#AD6D68" d="M487.389,536.221c-8.296-0.826-16.997,3.368-23.025,8.764c-0.488,0.437,0.042,1.109,0.587,1.018
				c6.103-1.03,12.858-0.824,18.951,0.132c2.99,0.469,5.771,0.818,8.459,2.31c2.81,1.56,3.911,4.324,5.911,6.717
				c2.861,3.423,7.594,0.266,7.946-3.3C507.213,541.789,495.428,537.021,487.389,536.221z"/>
			<path fill="#C7886A" d="M533.895,565.463c-0.693-2.084-3.4-2.047-4.125-0.015c-1.519,4.258-3.789,8.036-5.369,12.201
				c-1.765,4.648-2.344,9.924-4.036,14.678c-1.536,4.314-3.59,8.43-5.762,12.454c-2.494,4.622-5.695,8.618-7.208,13.7
				c-1.414,4.746,4.633,10.286,9.036,6.934c8.501-6.474,12.816-18.186,16.382-27.99c1.933-5.314,3.25-10.831,4.168-16.404
				C537.795,576.073,535.454,570.15,533.895,565.463z"/>
		</g>
	</g>
	<g id="Lines_3_">
		<g id="Head_3_">
			<g id="Mouth_8_">
				<g>
					<g>
						<path fill="#A1320F" d="M571.754,875.729c-4.096-19.824-19.703-37.559-33.17-51.877
							c-15.671-16.663-35.238-29.351-55.896-39.004c-35.832-16.743-86.956-24.27-119.063,4.642
							c-29.736,26.778-13.717,81.698,21.272,95.962c16.88,6.881,35.735,4.911,52.837-0.086c9.772-2.856,18.786-7.191,27.998-11.431
							c12.222-5.625,25.339-9.653,38.687-11.428c22.757-3.024,45.241,2.212,63.662,16.046c2.581,1.938,5.068-2.406,2.523-4.318
							c-20.8-15.62-46.044-20.032-71.41-15.97c-12.468,1.996-24.501,6.193-35.985,11.353c-9.598,4.311-18.846,8.689-29.016,11.562
							c-17.704,5.001-37.629,6.034-53.957-3.656c-18.676-11.083-28.911-36.206-27.048-57.268
							c1.734-19.607,17.56-33.076,34.948-39.602c20.482-7.687,42.901-6.436,63.848-1.405c25.358,6.09,50.884,19.455,70.789,36.299
							c15.647,13.242,30.057,30.279,39.443,48.521c2.119,4.117,3.777,8.452,4.715,12.991
							C567.584,880.215,572.403,878.875,571.754,875.729L571.754,875.729z"/>
					</g>
				</g>
				<g>
					<g>
						<path fill="#A1320F" d="M447.216,888.587c-0.151-14.702,9.026-28.589,21.534-35.867c5.717-3.327,12.463-4.789,18.924-3.074
							c7.911,2.1,12.894,9.399,16.152,16.397c1.359,2.921,5.669,0.38,4.316-2.523c-3.826-8.22-9.523-15.279-18.253-18.419
							c-7.226-2.6-15.21-0.843-21.904,2.368c-15.063,7.227-25.941,24.449-25.77,41.118
							C442.249,891.81,447.249,891.813,447.216,888.587L447.216,888.587z"/>
					</g>
				</g>
				<g>
					<g>
						<path fill="#A1320F" d="M454.24,865.63c0.615-8.418-6.424-12.255-13.049-15.493c-7.68-3.754-14.898-5.045-23.336-3.167
							c-16.819,3.744-30.741,17.902-41.992,30.095c-2.183,2.365,1.345,5.91,3.535,3.535c9.535-10.332,19.922-20.399,32.804-26.414
							c6.608-3.086,13.964-4.137,21.019-2.123c6.012,1.717,16.555,6.236,16.02,13.567
							C449.005,868.849,454.007,868.826,454.24,865.63L454.24,865.63z"/>
					</g>
				</g>
			</g>
			<g id="Chin">
				<g>
					<g>
						<path fill="#B18B64" d="M743.767,472.9c-6.334,5.194-4.297,18.721-3.868,25.693c0.736,11.949,1.9,23.627,1.919,35.618
							c0.026,16.663-0.552,33.157-5.168,49.278c-4.965,17.342-14.33,32.902-21.905,49.146c-1.354,2.902,2.955,5.443,4.316,2.523
							c7.058-15.132,15.305-29.618,20.846-45.424c5.303-15.129,6.648-31.098,6.875-47.018c0.176-12.419-0.233-24.552-1.323-36.904
							c-0.519-5.872-0.938-11.762-0.881-17.66c0.033-3.426-0.234-9.292,2.725-11.719C749.797,474.39,746.237,470.873,743.767,472.9
							L743.767,472.9z"/>
					</g>
				</g>
				<g>
					<g>
						<path fill="#B18B64" d="M212.789,504.895c2.102,5.295,6.682,8.878,8.574,14.258c1.761,5.004,2.58,10.462,3.449,15.674
							c2.033,12.208,3.069,24.579,4.248,36.891c0.864,9.031,1.407,18.32,3.507,27.173c3.166,13.351,11.479,24.668,20.962,34.29
							c2.266,2.3,5.8-1.237,3.535-3.535c-9.47-9.61-17.381-20.727-20.131-34.15c-1.948-9.515-2.453-19.396-3.378-29.046
							c-1.095-11.431-2.242-22.87-4.131-34.202c-0.81-4.862-1.825-9.697-3.239-14.422c-1.678-5.603-6.481-8.983-8.574-14.258
							C216.437,500.606,211.599,501.896,212.789,504.895L212.789,504.895z"/>
					</g>
				</g>
				<g>
					<g>
						<path fill="#B18B64" d="M271.038,619.25c-36.95,20.154-54.717,58.722-58.806,99.227c-1.804,17.878-0.952,36.023,1.887,53.747
							c1.563,9.753,3.611,19.554,7.406,28.695c4.693,11.312,11.76,21.452,19.659,30.743c7.063,8.308,15.097,15.793,23.558,22.654
							c2.48,2.012,6.041-1.504,3.535-3.535c-19.055-15.452-36.823-34.729-44.625-58.433c-5.529-16.799-7.169-35.645-7.336-53.223
							c-0.383-40.508,11.766-83.656,45.882-108.48c3.612-2.628,7.444-4.94,11.363-7.077
							C276.393,622.023,273.869,617.706,271.038,619.25L271.038,619.25z"/>
					</g>
				</g>
				<g>
					<g>
						<path fill="#B18B64" d="M699.038,626.568c26.179,11.272,43.632,35.838,57.523,59.785
							c10.021,17.274,15.614,37.019,19.944,56.403c4.873,21.816,7.355,44.438,5.163,66.754c-1.121,11.409-3.866,22.785-8.626,33.233
							c-5.164,11.338-13.477,21.084-21.458,30.522c-18.985,22.452-41.363,41.899-66.539,57.114
							c-12.835,7.757-26.414,14.25-40.411,19.617c-16.764,6.43-36.039,7.913-53.735,9.73c-3.175,0.326-3.206,5.329,0,5
							c14.884-1.528,29.728-3.357,44.288-6.883c13.092-3.17,25.431-8.75,37.406-14.833c22.784-11.575,43.594-26.823,62.064-44.441
							c9.521-9.082,18.317-18.907,26.555-29.161c7.121-8.865,13.545-17.787,17.965-28.318c8.588-20.461,9.354-43.783,7.494-65.593
							c-2.098-24.613-7.883-49.291-16.584-72.407c-6.549-17.4-17.309-32.712-28.438-47.442
							c-10.781-14.27-23.433-26.227-40.089-33.399C698.633,620.989,696.084,625.296,699.038,626.568L699.038,626.568z"/>
					</g>
				</g>
				<g>
					<g>
						<path fill="#B18B64" d="M649.412,768.449c11.039,29.357,13.822,61.835,10.941,92.941
							c-1.406,15.186-5.119,30.191-11.764,43.947c-6.27,12.979-15.565,23.762-26.335,33.215
							c-45.994,40.369-113.296,47.063-171.942,45.041c-28.761-0.992-58.332-4.881-85.656-14.196
							c-25.532-8.705-49.495-24.845-66.813-45.547c-37.891-45.298-34.521-110.832-19.672-164.308
							c0.863-3.112-3.96-4.432-4.822-1.328c-15.45,55.639-17.566,120.166,19.895,167.857
							c37.582,47.847,101.527,60.605,159.019,62.589c56.864,1.961,120.683-5.096,166.973-41.212
							c22.14-17.274,36.915-39.412,43.147-66.892c6.602-29.113,5.127-61.309-1.227-90.329c-1.722-7.865-4.091-15.576-6.924-23.109
							C653.109,764.131,648.274,765.425,649.412,768.449L649.412,768.449z"/>
					</g>
				</g>
			</g>
			<g id="Ears_3_">
				<g>
					<g>
						<path fill="#A07E5A" d="M741.385,569.717c4.929,3.085,11.637,3.947,17.259,4.772c6.78,0.995,14.954,1.877,21.448-0.908
							c10.745-4.608,25.133-12.49,26.828-25.402c1.2-9.135-6.11-17.886-10.722-25.008c-6.253-9.657-10.735-20.062-5.755-31.349
							c1.288-2.921-3.019-5.468-4.318-2.523c-4.303,9.755-3.4,19.282,1.258,28.709c4.058,8.211,10.846,15.163,13.795,23.904
							c3.949,11.702-8.358,19.316-17.055,24.101c-7.438,4.092-13.91,4.726-22.28,3.881c-5.633-0.567-13.011-1.412-17.935-4.495
							C741.167,563.683,738.659,568.01,741.385,569.717L741.385,569.717z"/>
					</g>
				</g>
				<g>
					<g>
						<path fill="#A07E5A" d="M229.297,584.912c-14.154,0.092-29.656,4.299-43.4-0.485c-7.886-2.745-12.032-10.068-14.189-17.679
							c-2.849-10.055-2.076-18.413,0.953-28.33c2.606-8.533,5.29-16.821,5.306-25.842c0.017-9.459-4.81-18.145-9.194-26.222
							c-9.658-17.793-14.335-38.404,1.973-54.04c2.331-2.234-1.209-5.766-3.535-3.535c-14.69,14.085-15.04,33.838-7.128,51.564
							c4.727,10.589,12.469,20.198,12.885,32.232c0.373,10.783-4.427,20.86-6.977,31.119c-3.85,15.484,0.557,36.989,16.126,44.535
							c14.244,6.904,32.109,1.78,47.182,1.682C232.52,589.891,232.522,584.891,229.297,584.912L229.297,584.912z"/>
					</g>
				</g>
			</g>
			<g id="Nose_3_">
				<g>
					<g>
						<path fill="#A37357" d="M428.529,413.645c-7.694,6.352-14.611,12.266-19.554,21.078c-2.55,4.548-4.155,10.318-1.706,15.248
							c2.245,4.517,6.566,7.424,10.411,10.473c5.305,4.209,9.52,8.917,11.206,15.633c0.784,3.127,5.606,1.8,4.82-1.328
							c-2.86-11.397-11.761-16.083-19.547-23.719c-4.215-4.135-3.385-8.885-0.867-13.783c4.371-8.501,11.562-14.114,18.771-20.066
							C434.554,415.125,430.995,411.608,428.529,413.645L428.529,413.645z"/>
					</g>
				</g>
				<g>
					<g>
						<path fill="#A37357" d="M430.529,492.645c-6.112,5.418-6.455,12.908-10.391,19.506c-3.607,6.045-8.467,11.338-11.319,17.832
							c-5.552,12.645,4.557,27.024,10.319,37.691c1.541,2.854,5.744,0.341,4.316-2.523c-7.639-15.337-15.012-32.008-28.136-43.546
							c-13.239-11.639-32.087-9.427-40.917,6.426c-9.438,16.94-4.486,40.232-0.452,58.015c3.769,16.609,10.553,31.495,24.929,41.455
							c27.743,19.222,67.469,9.833,95.391-3.776c28.065-13.68,53.949-37.768,55.418-70.906c0.316-7.133-1.339-14.868-6.838-19.808
							c-7.011-6.297-17.602-5.074-25.986-2.973c0.642,1.522,1.283,3.046,1.926,4.568c2.949-2.174,3.514-5.714,5.775-8.426
							c2.05-2.457-1.468-6.015-3.535-3.535c-1.768,2.119-2.604,6.052-4.764,7.645c-2.206,1.626-0.975,5.296,1.926,4.568
							c7.486-1.875,16.828-3.141,22.612,3.162c4.541,4.948,4.324,13.272,3.489,19.445c-2.114,15.617-10.057,29.748-21.272,40.598
							c-24.143,23.354-62.058,38.263-95.714,34.425c-16.403-1.87-31.232-10.138-40.011-24.296
							c-4.881-7.872-7.032-16.756-9.021-25.69c-2.313-10.39-3.969-20.967-3.874-31.634c0.088-9.922,2.203-20.499,9.925-27.347
							c7.293-6.468,17.156-5.552,24.755-0.474c14.545,9.72,22.245,28.847,29.72,43.947c0.112,0.227,0.226,0.453,0.339,0.68
							c1.438-0.841,2.878-1.683,4.316-2.523c-5.338-9.882-15.19-23.227-9.316-34.753c2.829-5.552,6.859-10.562,10.316-15.724
							c4.018-5.995,3.842-13.381,9.609-18.494C436.482,494.037,432.933,490.514,430.529,492.645L430.529,492.645z"/>
					</g>
				</g>
				<g>
					<g>
						<path fill="#A37357" d="M497.139,466.15c-0.78,1.543-1.509,3.142-2.609,4.494c1.393,0.811,2.785,1.621,4.178,2.432
							c9.216-23.74,17.597-50.922,11.365-76.455c-6.723-27.547-38.643-48.065-66.439-39.619c-3.076,0.934-1.765,5.761,1.328,4.82
							c15.633-4.749,32.749,1.233,44.981,11.369c8.936,7.404,14.118,17.763,16.229,29.031c4.35,23.219-3.981,48.132-12.284,69.525
							c-0.892,2.295,2.625,4.34,4.178,2.432c1.393-1.712,2.395-3.534,3.391-5.506C502.906,465.804,498.593,463.271,497.139,466.15
							L497.139,466.15z"/>
					</g>
				</g>
				<g>
					<g>
						<path fill="#A37357" d="M493.914,610.725c-0.025-9.971,0.436-43.033-17.335-38.491c-4.57,1.168-8.438,4.979-11.604,8.245
							c-4.149,4.283-9.263,9.621-10.687,15.564c-2.319,9.686,0.959,24.064,7.757,31.428c2.191,2.374,5.719-1.171,3.535-3.535
							c-5.675-6.146-7.345-17.187-6.69-25.199c0.441-5.41,5.256-9.854,8.653-13.678c2.828-3.184,6.219-6.642,10.364-8.004
							c11.399-3.744,10.991,28.151,11.006,33.67C488.922,613.948,493.922,613.949,493.914,610.725L493.914,610.725z"/>
					</g>
				</g>
			</g>
			<g id="Eyes_6_">
				<g>
					<g>
						<path fill="#D5D0A6" d="M543.98,471.628c-13.061-20.878-8.457-45.008,10.295-60.612c16.071-13.373,41.951-17.627,60.01-5.986
							c24.656,15.895,31.885,61.892,5.17,79.314c-10.001,6.521-22.611,6.227-34.05,5.329c-15.765-1.237-30.723-7.083-41.815-18.551
							c-2.245-2.321-5.776,1.218-3.535,3.535c16.763,17.332,42.885,23.044,66.277,19.734c15.066-2.132,26.605-12.528,31.82-26.546
							c10.409-27.975-5.031-65.125-34.742-73.053c-21.317-5.688-45.713,3.494-59.907,19.741
							c-14.97,17.137-15.716,40.633-3.839,59.617C541.369,476.877,545.696,474.37,543.98,471.628z"/>
					</g>
				</g>
				<g>
					<g>
						<path fill="#D5D0A6" d="M302.285,515.643c10.542,4.336,23.704,6.343,34.894,3.799c10.886-2.476,20.764-9.58,28.087-17.793
							c6.367-7.143,10.431-15.805,10.68-25.425c0.234-9.066-2.88-18.233-6.424-26.437c-7.173-16.603-20.981-34.063-40.933-31.606
							c-18.75,2.31-39.03,15.683-49.19,31.503c-6.517,10.148-5.478,23.676-2.295,34.756c3.703,12.889,12.148,25.259,24.584,30.951
							c2.909,1.331,5.452-2.978,2.523-4.318c-18.816-8.612-29.217-34.934-22.74-54.398c3.084-9.269,12.648-16.725,20.345-22.019
							c8.796-6.051,19.3-11.13,30.101-11.781c20.943-1.264,33.631,25.821,37.709,42.666c2.391,9.874,1.319,19-4.171,27.659
							c-6.567,10.359-17.812,18.313-29.604,21.421c-10.105,2.664-22.728,0.112-32.236-3.8
							C300.631,509.594,299.346,514.434,302.285,515.643z"/>
					</g>
				</g>
				<g id="Pupils_3_">
					<g>
						<g>
							<path fill="#0D101C" d="M587.769,449.164c0-0.225,0.061-1.312,0.014-1.043c0.09-0.52,0.004,0.065-0.235,0.154
								c2.155-0.799,5.39,0.001,7.557,0.299c-0.582-1.024-1.164-2.05-1.746-3.074c-0.5,1.5-1,3-1.5,4.5
								c0.582-0.582,1.164-1.164,1.746-1.746c-2.935,0.423-6.314,0.614-8.905,2.225c-2.265,1.408-3.854,4.043-5.697,5.917
								c-2.118,2.151,0.545,5.027,3.029,3.927c4.385-1.943,9.809-1.335,14.401-2.748c-0.94-1.224-1.882-2.447-2.822-3.672
								c-1,1.5-2,2.999-3,4.499c1.141-0.299,2.281-0.598,3.421-0.897c-1.215-0.539-5.678-2.045-5.313-3.968
								c0.406-2.143,2.225-4.198,3.211-6.11c1.474-2.861-2.841-5.391-4.318-2.523c-1.471,2.855-3.617,5.479-3.916,8.773
								c-0.386,4.261,4.662,6.746,7.813,8.146c1.305,0.579,2.601,0.332,3.421-0.897c0.999-1.5,1.999-2.999,2.998-4.499
								c1.223-1.833-0.788-4.298-2.822-3.672c-5.084,1.563-10.705,1.082-15.597,3.25c1.01,1.31,2.02,2.618,3.029,3.927
								c1.621-1.646,2.983-3.601,4.694-5.147c1.615-1.46,5.678-1.416,7.703-1.709c0.862-0.124,1.493-0.988,1.746-1.746
								c0.499-1.5,0.999-3,1.498-4.5c0.39-1.168-0.441-2.896-1.746-3.074c-5.432-0.748-13.651-2.294-13.663,5.41
								C582.764,452.389,587.764,452.389,587.769,449.164L587.769,449.164z"/>
						</g>
					</g>
					<g>
						<g>
							<path fill="#0D101C" d="M320.161,468.064c0-0.225,0.061-1.312,0.014-1.043c0.09-0.52,0.004,0.065-0.235,0.154
								c2.155-0.799,5.39,0.001,7.557,0.299c-0.582-1.024-1.164-2.05-1.746-3.074c-0.5,1.5-1,3-1.5,4.5
								c0.582-0.582,1.164-1.164,1.746-1.746c-2.935,0.423-6.314,0.614-8.905,2.225c-2.265,1.408-3.854,4.043-5.697,5.917
								c-2.118,2.151,0.545,5.027,3.029,3.927c4.385-1.943,9.809-1.335,14.401-2.748c-0.94-1.224-1.882-2.447-2.822-3.672
								c-1,1.5-2,2.999-3,4.499c1.141-0.299,2.281-0.598,3.421-0.897c-1.215-0.539-5.678-2.045-5.313-3.968
								c0.406-2.143,2.225-4.198,3.211-6.11c1.474-2.861-2.841-5.391-4.318-2.523c-1.471,2.855-3.617,5.479-3.916,8.773
								c-0.386,4.261,4.662,6.746,7.813,8.146c1.305,0.579,2.601,0.332,3.421-0.897c0.999-1.5,1.999-2.999,2.998-4.499
								c1.223-1.833-0.788-4.298-2.822-3.672c-5.084,1.563-10.705,1.082-15.597,3.25c1.01,1.31,2.02,2.618,3.029,3.927
								c1.621-1.646,2.983-3.601,4.694-5.147c1.615-1.46,5.678-1.416,7.703-1.709c0.862-0.124,1.493-0.988,1.746-1.746
								c0.499-1.5,0.999-3,1.498-4.5c0.39-1.168-0.441-2.896-1.746-3.074c-5.432-0.748-13.651-2.294-13.663,5.41
								C315.156,471.289,320.156,471.289,320.161,468.064L320.161,468.064z"/>
						</g>
					</g>
				</g>
			</g>
		</g>
		<g id="Hair_3_">
			<g>
				<g>
					<path fill="#6F3618" d="M731.457,365.674c18.883-24.947,46.761-42.392,76.23-52.096c27.229-8.965,58.951-11.77,85.811-0.041
						c2.924,1.277,5.473-3.029,2.523-4.316c-28.312-12.363-60.85-9.696-89.662-0.463c-30.8,9.868-59.603,28.476-79.221,54.393
						C725.191,365.723,729.537,368.21,731.457,365.674L731.457,365.674z"/>
				</g>
			</g>
			<g>
				<g>
					<path fill="#6F3618" d="M731.798,364.412c0.529-66.731,77.095-105.519,135.462-108.033c3.212-0.139,3.225-5.139,0-5
						c-61.158,2.635-139.909,43.403-140.462,113.033C726.772,367.638,731.772,367.635,731.798,364.412L731.798,364.412z"/>
				</g>
			</g>
			<g>
				<g>
					<path fill="#6F3618" d="M731.798,364.412c-0.021-41.78-2.355-83.649-8.825-124.957c-6.537-41.733-17.318-84.952-40.541-120.792
						c-22.917-35.368-61.639-58.037-102.263-67.027c-45.516-10.073-93.538-3.317-137.346,11.078
						c-43.955,14.444-85.473,37.34-121.269,66.629c-35.734,29.239-64.942,66.925-106.75,88.235
						c-26.78,13.65-56.684,16.588-86.178,12.34c-1.938-0.279-4.202,1.634-2.822,3.672c25.296,37.373,51.396,75.376,85.574,105.299
						c32.315,28.292,71.71,45.392,115.01,45.167c50.187-0.261,98.705-21.111,142.106-44.597
						c37.666-20.382,74.378-45.219,117.104-53.514c29.035-5.637,58.896-2.513,84.956,11.922
						c26.315,14.577,45.485,39.479,56.331,67.209c1.161,2.969,5.998,1.678,4.822-1.328c-16.842-43.059-52.274-76.398-98.666-84.129
						c-42.23-7.036-83.808,9.869-120.214,29.451c-19.878,10.691-39.249,22.291-59.302,32.663
						c-22.815,11.8-46.51,21.745-71.264,28.69c-24.444,6.856-49.732,10.316-75.083,7.714c-21.581-2.217-42.341-9.495-61.099-20.272
						c-50.182-28.832-84.266-79.973-115.961-126.799c-0.94,1.225-1.882,2.448-2.822,3.672c23.303,3.357,46.822,2.787,69.394-4.337
						c20.264-6.395,38.319-17.926,54.883-31.005c19.184-15.148,36.536-32.527,54.241-49.334
						c16.273-15.449,33.804-29.238,52.664-41.406c76.353-49.262,184.957-81.41,269.502-33.537
						c17.992,10.188,34.06,23.559,46.209,40.339c12.072,16.673,20.582,35.748,27.244,55.138
						c14.544,42.327,20.454,87.492,23.413,131.976c1.369,20.582,1.938,41.215,1.949,61.841
						C726.8,367.637,731.8,367.637,731.798,364.412L731.798,364.412z"/>
				</g>
			</g>
			<g>
				<g>
					<path fill="#6F3618" d="M520.775,47.725c-7.878-5.769-17.541-8.863-26.894-11.275c-12.327-3.18-25.101-4.742-37.784-5.562
						c-25.935-1.676-52.59,0.901-78.188,5.1c-50.279,8.246-100.029,27.268-138.824,60.969
						c-15.049,13.072-28.97,28.182-41.886,43.335c-13.187,15.471-24.72,32.357-32.415,51.244c-0.938,2.3,1.952,3.572,3.672,2.822
						c17.838-7.778,38.349-10.51,57.504-12.862c9.239-1.135,18.525-1.961,27.826-2.377c5.734-0.256,12.104-0.822,17.754,0.489
						c3.138,0.729,4.47-4.092,1.33-4.82c-5.822-1.353-12.179-0.924-18.093-0.709c-10.06,0.366-20.101,1.347-30.088,2.573
						c-19.696,2.419-40.434,5.398-58.757,13.39c1.225,0.94,2.448,1.882,3.672,2.822c11.16-27.388,30.911-50.06,51.293-71.025
						c9.232-9.496,18.436-18.914,28.764-27.237c10.199-8.22,21.29-15.323,32.756-21.634c46.299-25.482,99.813-35.708,152.192-37.435
						c15.986-0.526,32.108,0.654,47.839,3.532c12.276,2.245,25.57,5.485,35.803,12.977
						C520.857,53.949,523.348,49.607,520.775,47.725L520.775,47.725z"/>
				</g>
			</g>
			<g>
				<g>
					<path fill="#6F3618" d="M200.198,384.719c-26.116-0.474-46.944-24.196-62.662-42.51c-0.811,1.393-1.621,2.785-2.433,4.178
						c30.829,12.832,66.238,22.188,97.992,6.973c-1.141-1.14-2.28-2.279-3.42-3.42c-10.453,23.377-15.219,49.244-18.203,74.533
						c-3.12,26.44-4.166,54.213,1.316,80.422c1.607-0.442,3.215-0.886,4.822-1.328c-21.947-52.745-60.242-97.727-97.433-140.354
						c-1.01,1.309-2.02,2.617-3.029,3.927c22.942,16.268,55.284,29.188,83.714,22.49c3.138-0.738,1.807-5.56-1.33-4.82
						c-27.098,6.384-58.068-6.535-79.86-21.988c-2.444-1.733-4.792,1.906-3.029,3.927c36.576,41.924,74.555,86.257,96.146,138.147
						c1.215,2.918,5.498,1.904,4.822-1.328c-5.195-24.829-4.124-51.038-1.473-76.111c2.674-25.285,7.414-51.643,17.854-74.992
						c1.033-2.309-1.063-4.55-3.42-3.42c-30.404,14.568-64.751,4.755-94.139-7.477c-2.537-1.057-3.874,2.499-2.433,4.178
						c16.679,19.436,38.556,43.473,66.197,43.975C203.424,389.777,203.419,384.777,200.198,384.719L200.198,384.719z"/>
				</g>
			</g>
			<g>
				<g>
					<path fill="#6F3618" d="M849.325,469.943c-14.245-1.581-28.45-3.766-42.212-7.863c-13.641-4.063-28.739-10.688-35.658-23.93
						c-0.94,1.225-1.882,2.448-2.822,3.672c20.623,4.062,41.233-8.754,57.954-19.221c1.952-1.222,1.355-4.915-1.262-4.658
						c-16.634,1.635-33.458,4.622-50.211,4.436c-11.405-0.128-20.137-3.945-25.659-14.229c-1.14,1.141-2.279,2.28-3.42,3.42
						c10.541,6.149,24.039,2.006,34.441-2.332c11.828-4.932,23.436-12.019,32.616-21.027c1.474-1.445,0.459-4.441-1.768-4.268
						c-14.835,1.161-29.792,3.327-44.696,2.307c-14.809-1.014-26.959-7.648-35.174-20.1c-0.915-1.388-3.526-1.855-4.316,0
						c-14.641,34.36-13.104,78.529,13.292,107.005c28.508,30.753,77.692,19.56,110.156,1.446c2.815-1.57,0.295-5.89-2.523-4.316
						c-17.922,9.999-38.992,16.203-59.515,17.049c-17.118,0.706-32.709-5.348-44.582-17.715
						c-25.091-26.131-26.039-69.194-12.512-100.945c-1.438,0-2.878,0-4.316,0c8.084,12.254,19.485,19.746,34.014,21.966
						c16.529,2.525,33.658-0.403,50.173-1.696c-0.589-1.423-1.179-2.846-1.768-4.268c-8.157,8.004-18.26,14.125-28.576,18.92
						c-9.236,4.294-22.759,9.295-32.423,3.658c-2.223-1.297-4.589,1.244-3.42,3.42c5.474,10.195,13.961,15.331,25.362,16.467
						c7.474,0.744,15.114-0.041,22.557-0.758c10.767-1.038,21.503-2.382,32.268-3.439c-0.421-1.553-0.841-3.105-1.262-4.658
						c-15.383,9.629-35.054,22.467-54.103,18.717c-2.166-0.427-3.879,1.65-2.822,3.672c6.969,13.339,21.292,20.383,34.942,25.046
						c15.202,5.193,31.336,7.458,47.244,9.224C852.527,475.299,852.493,470.295,849.325,469.943z"/>
				</g>
			</g>
		</g>
		<g id="Facial_Hair_3_">
			<g>
				<g>
					<path fill="#4D2B00" d="M445.045,964.148c3.924-9.503-5.577-18.316-12.475-23.466c-5.781-4.315-14.987-9.078-17.449-16.308
						c-1.56-4.582,5.353-0.818,6.663-0.097c3.958,2.178,7.602,4.947,11.221,7.634c9.714,7.211,16.361,16.522,24.307,25.509
						c1.619,1.831,4.016,0.168,4.268-1.768c1.029-7.912-3.666-13.565-9.759-17.906c-5.123-3.649-15.4-6.821-17.442-13.388
						c-0.412-1.325,0.476-7.065,2.417-6.568c2.967,0.76,5.613,5.576,7.199,7.855c3.719,5.346,7.174,13.912,13.041,17.287
						c1.855,1.068,4.329-0.688,3.672-2.822c-2.287-7.438-13.96-20.138-6.907-27.325c-1.309-0.169-2.617-0.337-3.927-0.506
						c3.936,7.735,3.684,16.508,9.788,23.215c1.479,1.626,4.301,0.353,4.268-1.768c-0.093-5.891-2.436-15.179,3.46-18.983
						c-1.225-0.498-2.448-0.996-3.672-1.494c1.372,9.102-1.593,18.613,2.602,27.221c0.968,1.987,4.046,1.393,4.568-0.598
						c1.391-5.286,1.424-11.896,6.682-14.949c-1.141-0.3-2.28-0.599-3.42-0.897c1.346,2.634-0.492,6.636-1.464,9.098
						c-1.882,4.769-4.745,9.223-7.618,13.442c-2.881,4.232-6.119,8.231-9.693,11.898c-1.089,1.117-4.932,5.41-6.592,4.957
						c-3.116-0.848-4.438,3.976-1.33,4.822c3.428,0.933,6.699-1.935,9.085-3.992c4.468-3.854,8.173-8.664,11.622-13.418
						c4.938-6.807,14.904-20.338,10.307-29.331c-0.621-1.216-2.293-1.552-3.42-0.897c-6.727,3.906-7.182,11.105-8.979,17.939
						c1.522-0.199,3.046-0.398,4.568-0.598c-3.779-7.758-0.84-17.691-2.098-26.027c-0.237-1.58-2.425-2.299-3.672-1.494
						c-8.098,5.227-6.066,15.041-5.937,23.302c1.423-0.589,2.845-1.179,4.268-1.768c-5.561-6.11-5.368-15.053-9.005-22.203
						c-0.733-1.44-2.846-1.608-3.927-0.506c-9.741,9.926,2.56,22.233,5.622,32.188c1.224-0.94,2.447-1.882,3.672-2.822
						c-2.851-1.641-4.777-5.662-6.514-8.316c-2.668-4.08-5.275-8.191-8.322-12.005c-4.873-6.099-11.575-7.891-14.678,0.673
						c-6.785,18.72,28.903,18.479,26.534,36.685c1.423-0.589,2.845-1.179,4.268-1.768c-5.179-5.858-9.726-12.24-15.128-17.903
						c-3.527-3.697-7.649-6.513-11.732-9.529c-4.132-3.055-16.188-13.516-21.725-8.16c-14.277,13.813,34.222,29.362,27.963,44.527
						C438.994,965.801,443.833,967.086,445.045,964.148L445.045,964.148z"/>
				</g>
			</g>
			<g>
				<g>
					<path fill="#4D2B00" d="M358.166,637.444c1.261,1.292-4.467,12.391-5.392,14.313c-3.813,7.918-8.157,15.589-12.587,23.175
						c-3.314,5.674-6.697,11.33-10.337,16.804c-4.692,7.059-11.057,15.611-11.459,24.388c-0.351,7.641,8.388,8.765,13.305,5.236
						c7.076-5.076,11.151-14.605,14.912-22.138c3.883-7.776,8.102-15.354,12.004-23.112c4.472-8.89,8.565-18.053,14.063-26.376
						c1.277-1.932,3.82-6.183,6.494-6.427c1.438-0.131-0.199,6.164-0.386,6.865c-2.401,9.009-6.854,17.541-10.87,25.908
						c-3.482,7.259-6.896,14.546-10.382,21.803c-3.491,7.27-8.333,16.41-7.118,24.756c0.826,5.674,6.67,10.554,12.112,6.854
						c5.727-3.892,7.588-13.182,9.21-19.369c2.027-7.73,3.03-15.92,5.867-23.413c3.765-9.939,7.93-19.469,13.58-28.518
						c2.27-3.634,4.791-7.18,7.972-10.074c0.63-0.573,1.974-1.749,2.94-1.58c1.176,0.205-0.33-0.98-0.156-0.152
						c0.732,3.502-1.517,9.307-2.466,12.907c-3.88,14.714-8.648,29.24-10.984,44.315c-1.405,9.066-3.379,24.466,7.556,28.547
						c13.061,4.875,15.387-26.773,16.404-33.464c1.13-7.42,2.845-14.833,3.691-22.277c0.521-4.579,0.709-9.193,1.171-13.779
						c0.412-4.099,0.81-9.765,3.753-12.96c1.463-1.588,1.1-0.728,1.127,1.237c0.031,2.311-0.374,4.66-0.69,6.939
						c-0.669,4.814-1.241,9.392-0.413,14.237c1.692,9.911,5.642,19.223,7.475,29.14c1.617,8.754,3.241,17.567,6.019,26.042
						c1.598,4.874,4.036,11.977,9.95,12.672c12.287,1.444,2.728-35.896,1.793-40.815c-1.41-7.426-2.686-14.886-3.977-22.333
						c-0.783-4.513-1.467-9.041-1.897-13.601c-0.298-3.152-1.003-7.571,0.338-10.582c0.304-0.681-0.221,0.241-0.421-0.025
						c0.506,0.673,0.816,1.529,1.11,2.303c0.78,2.053,1.256,4.234,1.753,6.368c1.232,5.299,2.107,10.673,3.485,15.939
						c3.159,12.07,10.954,22.27,14.961,33.998c2.446,7.161,5.235,16.998,13.146,19.801c8.026,2.844,8.421-6.549,6.979-11.548
						c-2.262-7.844-6.542-15.389-9.556-22.976c-4.637-11.674-9.587-23.919-10.365-36.586c-0.201-3.278-0.214-7.621,1.527-10.566
						c-0.122,0.206-0.854-0.293-0.12,0.276c1.009,0.783,1.772,1.875,2.488,2.914c4.04,5.868,6.756,12.791,9.378,19.371
						c2.079,5.216,3.701,10.592,5.733,15.816c3.387,8.709,8.689,16.768,14.068,24.354c4.124,5.816,8.755,12.71,14.888,16.602
						c4.724,2.998,7.577-1.865,6.932-6.118c-1.146-7.552-6.938-15.143-10.747-21.531c-4.447-7.459-8.559-14.457-11.011-22.805
						c-2.854-9.719-6.246-19.304-8.426-29.208c-0.398-1.81-0.706-3.632-0.834-5.481c-0.107-1.56,0.641-2.022-0.549-1.938
						c3.271-0.234,6.495,3.961,8.346,6.115c11.412,13.286,16.867,30.662,25.679,45.563c4.533,7.667,9.907,15.89,17.306,21.079
						c3.807,2.67,10.885,3.321,11.657-2.639c0.766-5.912-3.886-12.87-6.562-17.761c-4.854-8.871-10.313-17.403-15.386-26.149
						c-4.004-6.902-7.425-14.062-10.769-21.299c-0.622-1.347-3.798-7.76-1.013-8.037c5.886-0.586,9.917,5.127,12.747,9.366
						c8.882,13.305,16.451,27.373,25.87,40.362c5.036,6.945,10.472,13.908,17.177,19.328c4.067,3.288,10.212,6.906,15.429,3.966
						c5.718-3.222-0.642-11.591-3.034-14.664c-5.123-6.583-10.849-12.228-15.384-19.282c-6.125-9.527-11.739-19.071-19.424-27.466
						c-1.59-1.736-17.954-17.73-16.725-19.016c2.229-2.328-1.303-5.869-3.535-3.535c-5.12,5.351,5.259,14.085,8.468,17.447
						c4.12,4.317,8.323,8.545,12.196,13.09c4.975,5.836,8.835,12.58,12.862,19.076c4.639,7.481,9.875,13.51,15.521,20.146
						c2.288,2.689,4.867,5.688,6.068,9.063c0.905,2.542-4.092,0.609-5.367-0.041c-7.338-3.746-13.039-11.504-17.907-17.901
						c-5.216-6.854-9.926-14.089-14.496-21.383c-3.826-6.106-7.655-12.164-11.323-18.37c-4.295-7.267-10.297-16.065-19.925-15.107
						c-7.431,0.74-5.186,9.296-3.237,13.848c3.044,7.115,6.492,14.131,10.297,20.866c5.001,8.852,10.469,17.431,15.486,26.272
						c1.08,1.902,8.983,15.471,7.064,16.767c-2.305,1.555-6.814-3.338-8.094-4.617c-3.786-3.785-6.839-8.304-9.719-12.792
						c-4.378-6.821-7.727-14.137-11.317-21.378c-4.18-8.431-8.592-16.822-14.082-24.486c-3.438-4.799-8.76-11.868-15.461-11.389
						c-6.283,0.45-3.379,11.322-2.628,14.733c2.181,9.909,5.656,19.52,8.512,29.243c2.346,7.982,6.352,14.804,10.604,21.932
						c2.33,3.906,4.664,7.811,6.837,11.808c1.623,2.986,3.764,6.502,4.046,9.971c0.082,1.007,1.074,0.421,0.373,0.035
						c-1.119-0.615-2.049-1.591-2.958-2.469c-3.25-3.141-6.048-6.791-8.735-10.409c-5.748-7.738-11.283-16.144-14.965-25.089
						c-4.864-11.819-8.129-24.185-14.86-35.212c-1.741-2.854-5.704-8.728-9.842-6.237c-5.463,3.287-4.353,13.971-3.762,19.027
						c1.425,12.186,6.219,23.883,10.713,35.197c2.964,7.462,7.063,14.837,9.286,22.546c0.286,0.994,1.143,3.559,0.389,4.52
						c-1.075,1.372-4.247-1.946-4.823-2.596c-3.27-3.69-4.755-9.183-6.312-13.748c-4.01-11.757-11.575-21.991-14.961-33.999
						c-1.361-4.83-2.162-9.823-3.216-14.726c-0.822-3.826-1.601-8.367-4.011-11.575c-3.992-5.314-8.461,0.189-8.951,4.659
						c-0.9,8.221,0.951,16.894,2.352,24.965c1.294,7.461,2.589,14.929,4.001,22.368c1.768,9.309,3.895,18.817,3.857,28.336
						c-0.004,0.973,0.055,5.685-1.5,4.809c-2.57-1.446-3.8-6.239-4.667-8.761c-2.891-8.412-4.404-17.318-6.019-26.042
						c-1.894-10.227-6.263-19.904-7.609-30.184c-0.591-4.512,0.355-9.062,0.954-13.523c0.426-3.163,1.332-7.765-0.806-10.54
						c-4.851-6.297-10.882,3.618-12.042,7.582c-2.567,8.775-1.546,18.18-3.338,27.083c-1.586,7.871-2.662,15.809-3.971,23.731
						c-1.148,6.954-1.918,17.083-6.707,22.69c-3.305,3.871-6.6-4.373-7.019-6.527c-1.24-6.364,0.063-13.421,1.213-19.692
						c1.431-7.799,3.48-15.48,5.581-23.12c1.863-6.771,3.869-13.507,5.565-20.323c0.949-3.818,2.329-8.314,1.501-12.273
						c-0.938-4.488-6.664-3.389-9.396-1.555c-7.084,4.755-11.704,14.065-15.57,21.353c-4.182,7.882-7.894,16.28-10.259,24.902
						c-2.326,8.475-3.72,17.167-6.36,25.564c-1.053,3.347-2.308,7.021-4.697,9.672c-3.022,3.354-5.141-1.861-5.171-4.469
						c-0.105-9.231,6.144-18.978,10.081-26.992c3.537-7.199,6.879-14.521,10.273-21.79c3.545-7.591,7.579-15.667,8.869-24.022
						c0.745-4.826-1.074-10.24-6.972-8.912c-6.497,1.464-10.951,11.283-13.772,16.398c-9.145,16.583-16.819,33.977-26.037,50.52
						c-2.164,3.883-4.552,7.723-7.734,10.855c-1.095,1.077-2.513,2.111-4.09,2.241c-3.403,0.281-2.382-3.985-1.844-5.871
						c2.25-7.881,7.909-14.868,12.271-21.728c8.637-13.58,17.063-27.702,23.455-42.495c1.557-3.601,5.445-10.981,1.947-14.566
						C359.447,631.598,355.914,635.136,358.166,637.444L358.166,637.444z"/>
				</g>
			</g>
			<g>
				<g>
					<path fill="#4D2B00" d="M531.688,293.694c-9.072,9.674-16.929,21.809-20.207,34.755c-1.508,5.956-1.456,12.134,1.103,17.772
						c1.195,2.636,3.348,4.99,5.653,6.696c1.811,1.339,7.235,5.351,9.588,3.717c10.157-7.053,10.903-17.851,10.915-29.252
						c0.006-5.598,0.084-11.396,2.619-16.52c3.742-7.566,12.563-10.521,20.203-12.301c-1.024-0.582-2.05-1.164-3.074-1.746
						c3.682,9.343,0.5,18.449-1.631,27.744c-1.923,8.385-1.889,16.476,2.313,24.161c0.492,0.9,1.817,1.548,2.822,1.149
						c10.598-4.206,14.062-12.09,15.257-22.841c0.583-5.249,1.078-10.509,3.635-15.234c3.791-7.008,11.864-10.205,19.101-12.267
						c-1.056-0.804-2.11-1.607-3.165-2.411c0.207,3.39-2.032,7.512-3.167,10.61c-2.055,5.607-4.139,11.203-5.813,16.941
						c-1.99,6.824-5.738,20.867,3.592,24.255c10.582,3.842,16.663-7.609,20.882-15.224c3.532-6.374,6.675-12.957,10.214-19.329
						c2.793-5.031,5.974-11.101,10.983-14.265c-1.01-0.131-2.02-0.261-3.029-0.392c10.88,12.79-12.138,26.529-13.89,39.095
						c-0.948,6.801,4.153,13.688,9.667,17.182c5.124,3.246,10.466,0.251,13.779-3.964c4.401-5.596,6.852-12.682,9.255-19.3
						c2.59-7.128,5.348-12.97,9.716-19.275c1.658-2.394,3.496-5.093,5.842-6.887c1.193-0.912,0.438-1.108,0.779-0.005
						c1.403,4.531,0.454,10.22,0.126,14.847c-0.422,5.957-1.039,11.901-1.259,17.871c-0.136,3.683-0.593,8.944,1.702,12.134
						c1.863,2.592,6.203,0.1,4.316-2.523c-2.133-2.966-1.074-8.979-0.893-12.385c0.334-6.26,1.012-12.497,1.369-18.756
						c0.273-4.784,0.543-22.541-9.034-15.218c-11.211,8.574-15.057,23.257-20.07,35.649c-1.563,3.865-5.595,15.007-11.284,14.187
						c-3.525-0.509-6.189-4.774-7.931-7.457c-2.102-3.236-1.131-6.954,0.472-10.149c6.178-12.313,23.062-24.251,10.872-38.58
						c-0.702-0.826-2.14-0.953-3.029-0.392c-9.159,5.786-13.993,18.133-18.747,27.348c-2.77,5.368-5.522,10.78-8.928,15.781
						c-2.346,3.444-4.928,6.388-9.404,5.547c-12.033-2.26,8.352-40.131,7.911-47.347c-0.098-1.595-1.525-2.878-3.165-2.411
						c-12.539,3.573-22.637,10.324-25.282,23.686c-2.122,10.718-0.626,21.861-12.708,26.656c0.94,0.384,1.882,0.767,2.822,1.149
						c-8.911-16.304,6.52-33.722-0.178-50.712c-0.515-1.307-1.638-2.081-3.074-1.746c-11.921,2.778-22.757,8.592-25.563,21.337
						c-2.133,9.687,0.988,20.375-2.956,29.682c-1.034,2.44-2.669,4.446-4.62,6.209c-2.039,1.842-6.416-2.343-8-3.979
						c-4.391-4.537-4.08-11.521-2.793-17.21c2.727-12.043,10.572-23.646,18.921-32.549
						C537.427,294.881,533.898,291.338,531.688,293.694L531.688,293.694z"/>
				</g>
			</g>
			<g>
				<g>
					<path fill="#4D2B00" d="M265.959,323.434c-0.269,4.232-1.989,8.6-3.033,12.685c-1.57,6.152-2.885,12.369-3.488,18.696
						c-1.041,10.922,1.806,22.417,14.279,23.853c1.147,0.132,2.063-0.872,2.41-1.835c7.421-20.587-7.474-44.059,11.004-61.096
						c-0.811,0.215-1.621,0.429-2.432,0.643c6.143,2.45,10.6,6.551,9.555,13.56c-0.887,5.95-3.954,11.495-6.293,16.961
						c-4.693,10.972-5.88,22.149,6.703,27.829c1.591,0.719,3.023,0.104,3.672-1.494c3.406-8.382,5.87-17.09,8.928-25.599
						c2.167-6.032,2.91-10.546,2.991-16.933c0.032-2.561,0.241-5.06,0.89-7.543c0.413-1.581,1.216-3.019,2.246-4.276
						c0.415-0.507,3.375-3.375,4.141-3.006c4.484,2.16,8.697,5.586,9.059,10.864c0.592,8.618-6.419,17.387-9.801,24.881
						c-3.59,7.958-4.917,16.347,1.113,23.449c0.549,0.647,1.642,0.891,2.432,0.643c10.958-3.429,11.989-13.049,11.11-23.104
						c-1.132-12.956,1.37-28.692,10.915-38.138c-1.309-0.168-2.617-0.337-3.926-0.506c2.064,3.326,2.479,7.956,3.154,11.727
						c1.083,6.043,1.928,12.127,2.943,18.181c1.274,7.594,2.184,21.289,9.494,25.967c3.332,2.132,8.213-0.156,10.438-2.859
						c3.201-3.89,2.938-9.628,2.356-14.313c-0.622-5.01-2.063-9.824-3.2-14.725c-2.331-10.05,2.932-19.717,9.022-27.27
						c-1.179,0-2.356,0-3.535,0c7.086,8.137,3.12,18.252,3.972,27.89c0.99,11.221,4.871,21.782,9.963,31.737
						c0.528,1.034,1.766,1.37,2.822,1.148c13.154-2.754,12.143-17.027,10.685-27.484c-1.003-7.193-2.567-14.304-2.991-21.57
						c-0.337-5.796,0.123-12.634,5.496-16.061c-0.841,0-1.683,0-2.523,0c12.192,7.627,13.135,19.207,12.322,32.359
						c-0.625,10.122-1.024,20.894,7.416,28.051c2.443,2.072,5.998-1.447,3.535-3.535c-9.076-7.697-5.917-20.664-5.635-31.114
						c0.344-12.741-4.096-23.185-15.115-30.077c-0.729-0.457-1.795-0.465-2.523,0c-10.827,6.904-8.219,21.809-6.523,32.546
						c1.414,8.951,7.766,29.293-5.471,32.065c0.94,0.383,1.882,0.766,2.822,1.148c-5.396-10.551-9.805-22.491-9.396-34.522
						c0.332-9.75,1.574-18.2-5.32-26.116c-0.827-0.95-2.72-1.012-3.535,0c-8.524,10.568-12.95,21.98-9.494,35.402
						c1.258,4.885,2.469,9.802,2.56,14.87c0.039,2.222-2.269,11.317-6.168,7.681c-2.639-2.463-3.462-7.381-4.293-10.697
						c-1.408-5.62-2.303-11.372-3.213-17.088c-1.275-8.009-1.343-18.768-5.748-25.863c-0.85-1.369-2.758-1.662-3.926-0.506
						c-9.129,9.033-11.404,21.553-12.621,33.864c-0.899,9.09,4.717,22.363-7.197,26.093c0.811,0.214,1.621,0.428,2.432,0.643
						c-6.957-8.196,0.536-19.365,4.544-27.146c4.063-7.89,8.562-17.642,2.804-25.863c-2.447-3.494-8.66-9.071-13.069-7.239
						c-5.825,2.421-9.046,7.491-10.022,13.554c-0.869,5.394,0.36,11.149-1.279,16.398c-3.195,10.234-6.86,20.726-10.898,30.666
						c1.224-0.498,2.447-0.996,3.672-1.494c-5.809-2.623-8.859-6.521-7.584-12.992c1.205-6.112,4.429-11.781,6.791-17.493
						c2.1-5.075,3.711-10.487,2.639-15.999c-1.259-6.468-7.387-10.129-13.006-12.369c-0.826-0.33-1.826,0.084-2.432,0.643
						c-8.502,7.838-11.693,17.738-11.6,29.102c0.094,11.427,3.315,23.087-0.689,34.199c0.803-0.611,1.606-1.223,2.41-1.835
						c-11.84-1.363-9.887-16.567-8.452-24.969c1.432-8.387,5.156-16.775,5.694-25.265
						C271.163,320.212,266.162,320.232,265.959,323.434L265.959,323.434z"/>
				</g>
			</g>
		</g>
	</g>
</g>
<g id="EyesOverMachine">
</g>
<g id="WhisperFace_1_">
	<g id="WhisperFace" opacity="0.9">
	</g>
</g>
<g id="FakeSmile">
</g>
</svg>
