<?xml version="1.0" encoding="utf-8"?>
<!-- Generator: Adobe Illustrator 16.0.0, SVG Export Plug-In . SVG Version: 6.00 Build 0)  -->
<!DOCTYPE svg PUBLIC "-//W3C//DTD SVG 1.1//EN" "http://www.w3.org/Graphics/SVG/1.1/DTD/svg11.dtd">
<svg version="1.1" id="Layer_1" xmlns="http://www.w3.org/2000/svg" xmlns:xlink="http://www.w3.org/1999/xlink" x="0px" y="0px"
	 width="1024px" height="1024px" viewBox="0 0 1024 1024" enable-background="new 0 0 1024 1024" xml:space="preserve">
<rect fill="#93268F" width="1024" height="1024"/>
<g>
	<path d="M454.301,370.885h-26.984v25.027h30.075v7.52h-39.036v-69.42h37.491v7.519h-28.53v21.938h26.984V370.885z"/>
	<path d="M471.297,353.58l10.918,29.457c1.133,3.297,2.369,7.211,3.193,10.197h0.206c0.927-2.986,1.957-6.798,3.192-10.402
		l9.889-29.252h9.578l-13.596,35.535c-6.488,17.097-10.918,25.852-17.098,31.207c-4.429,3.914-8.857,5.459-11.123,5.871
		l-2.266-7.621c2.266-0.722,5.252-2.164,7.93-4.43c2.473-1.957,5.563-5.459,7.622-10.094c0.412-0.927,0.722-1.647,0.722-2.162
		c0-0.516-0.207-1.236-0.619-2.369L461.41,353.58H471.297z"/>
	<path d="M520.531,380.154c0.206,12.256,8.034,17.303,17.098,17.303c6.489,0,10.402-1.133,13.802-2.574l1.545,6.488
		c-3.193,1.441-8.652,3.09-16.583,3.09c-15.346,0-24.513-10.094-24.513-25.131s8.857-26.883,23.38-26.883
		c16.273,0,20.6,14.316,20.6,23.484c0,1.854-0.206,3.295-0.309,4.223H520.531z M547.104,373.665
		c0.104-5.768-2.369-14.729-12.565-14.729c-9.167,0-13.184,8.446-13.904,14.729H547.104z"/>
	<path d="M565.852,394.162c2.678,1.75,7.415,3.604,11.947,3.604c6.592,0,9.682-3.295,9.682-7.415c0-4.325-2.575-6.694-9.27-9.167
		c-8.961-3.193-13.184-8.137-13.184-14.11c0-8.034,6.488-14.626,17.2-14.626c5.047,0,9.476,1.442,12.257,3.09l-2.266,6.592
		c-1.957-1.235-5.563-2.883-10.197-2.883c-5.355,0-8.343,3.09-8.343,6.797c0,4.12,2.987,5.975,9.476,8.446
		c8.652,3.296,13.081,7.622,13.081,15.037c0,8.755-6.798,14.935-18.643,14.935c-5.459,0-10.506-1.339-14.008-3.398L565.852,394.162z
		"/>
	<path d="M469.494,491.601c0,23.896-14.522,36.563-32.238,36.563c-18.333,0-31.207-14.214-31.207-35.225
		c0-22.041,13.697-36.461,32.237-36.461C457.238,456.479,469.494,471.001,469.494,491.601z M415.627,492.733
		c0,14.831,8.033,28.118,22.145,28.118c14.213,0,22.247-13.08,22.247-28.84c0-13.801-7.21-28.221-22.145-28.221
		C423.043,463.791,415.627,477.49,415.627,492.733z"/>
	<path d="M485.769,477.181l9.784,28.015c1.648,4.532,2.988,8.652,4.018,12.772h0.309c1.133-4.12,2.575-8.24,4.223-12.772
		l9.683-28.015h9.476l-19.57,49.851h-8.65l-18.952-49.851H485.769z"/>
	<path d="M535.826,503.754c0.206,12.257,8.034,17.304,17.098,17.304c6.489,0,10.402-1.133,13.802-2.575l1.545,6.489
		c-3.193,1.441-8.652,3.09-16.583,3.09c-15.346,0-24.513-10.094-24.513-25.132c0-15.037,8.857-26.882,23.38-26.882
		c16.273,0,20.6,14.316,20.6,23.483c0,1.854-0.206,3.296-0.309,4.223H535.826z M562.399,497.266
		c0.104-5.768-2.369-14.729-12.565-14.729c-9.167,0-13.184,8.445-13.904,14.729H562.399z"/>
	<path d="M582.382,492.733c0-5.871-0.103-10.918-0.412-15.553h7.931l0.31,9.784h0.412c2.266-6.694,7.725-10.917,13.802-10.917
		c1.029,0,1.75,0.103,2.574,0.31v8.549c-0.927-0.207-1.854-0.31-3.09-0.31c-6.386,0-10.918,4.841-12.153,11.639
		c-0.206,1.235-0.412,2.678-0.412,4.223v26.573h-8.961V492.733z"/>
	<path d="M387.146,620.145c-0.515-9.682-1.133-21.32-1.029-29.972h-0.309c-2.369,8.137-5.254,16.788-8.756,26.367l-12.256,33.68
		h-6.799l-11.227-33.062c-3.295-9.785-6.076-18.746-8.033-26.985h-0.206c-0.206,8.651-0.721,20.29-1.339,30.693l-1.854,29.766
		h-8.549l4.84-69.42h11.434l11.844,33.577c2.885,8.549,5.254,16.17,7.004,23.38h0.31c1.751-7.004,4.223-14.625,7.313-23.38
		l12.36-33.577h11.432l4.326,69.42h-8.754L387.146,620.145z"/>
	<path d="M439.367,650.632l-0.721-6.283h-0.31c-2.78,3.914-8.137,7.416-15.243,7.416c-10.094,0-15.244-7.106-15.244-14.316
		c0-12.051,10.712-18.643,29.973-18.539v-1.03c0-4.12-1.133-11.536-11.33-11.536c-4.635,0-9.476,1.442-12.978,3.708l-2.06-5.974
		c4.119-2.678,10.094-4.429,16.377-4.429c15.242,0,18.951,10.402,18.951,20.394v18.643c0,4.325,0.205,8.549,0.824,11.947H439.367z
		 M438.028,625.191c-9.888-0.206-21.114,1.545-21.114,11.227c0,5.871,3.914,8.652,8.549,8.652c6.488,0,10.608-4.12,12.051-8.343
		c0.309-0.927,0.515-1.957,0.515-2.884V625.191z"/>
	<path d="M496.943,648.778c-2.369,1.235-7.622,2.884-14.316,2.884c-15.037,0-24.822-10.197-24.822-25.44
		c0-15.347,10.506-26.471,26.779-26.471c5.355,0,10.094,1.34,12.565,2.575l-2.06,7.004c-2.164-1.236-5.563-2.369-10.506-2.369
		c-11.434,0-17.613,8.446-17.613,18.849c0,11.536,7.416,18.643,17.305,18.643c5.148,0,8.548-1.339,11.123-2.472L496.943,648.778z"/>
	<path d="M507.553,577.504h9.064v31.105h0.206c1.441-2.575,3.708-4.841,6.488-6.386c2.679-1.545,5.871-2.575,9.271-2.575
		c6.694,0,17.406,4.12,17.406,21.32v29.663h-9.063v-28.633c0-8.034-2.987-14.832-11.536-14.832c-5.871,0-10.506,4.12-12.153,9.063
		c-0.516,1.236-0.618,2.575-0.618,4.326v30.075h-9.064V577.504z"/>
	<path d="M574.811,586.773c0.104,3.09-2.163,5.563-5.768,5.563c-3.193,0-5.459-2.473-5.459-5.563c0-3.192,2.369-5.664,5.665-5.664
		C572.647,581.109,574.811,583.581,574.811,586.773z M564.717,650.632v-49.851h9.063v49.851H564.717z"/>
	<path d="M588.818,614.274c0-5.15-0.103-9.373-0.412-13.493h8.034l0.515,8.24h0.206c2.472-4.738,8.24-9.373,16.479-9.373
		c6.901,0,17.612,4.12,17.612,21.218v29.766h-9.063v-28.736c0-8.033-2.986-14.729-11.535-14.729c-5.975,0-10.609,4.223-12.154,9.27
		c-0.412,1.134-0.618,2.679-0.618,4.224v29.972h-9.063V614.274z"/>
	<path d="M651.029,627.354c0.206,12.257,8.034,17.304,17.098,17.304c6.489,0,10.402-1.133,13.802-2.575l1.545,6.489
		c-3.193,1.441-8.652,3.09-16.583,3.09c-15.346,0-24.513-10.094-24.513-25.132c0-15.037,8.857-26.882,23.38-26.882
		c16.273,0,20.6,14.316,20.6,23.483c0,1.854-0.206,3.296-0.309,4.223H651.029z M677.603,620.866
		c0.104-5.769-2.369-14.729-12.565-14.729c-9.167,0-13.184,8.446-13.904,14.729H677.603z"/>
</g>
</svg>
