<?xml version="1.0" encoding="utf-8"?>
<!-- Generator: Adobe Illustrator 16.0.0, SVG Export Plug-In . SVG Version: 6.00 Build 0)  -->
<!DOCTYPE svg PUBLIC "-//W3C//DTD SVG 1.1//EN" "http://www.w3.org/Graphics/SVG/1.1/DTD/svg11.dtd">
<svg version="1.1" xmlns="http://www.w3.org/2000/svg" xmlns:xlink="http://www.w3.org/1999/xlink" x="0px" y="0px" width="1024px"
	 height="1024px" viewBox="0 0 1024 1024" enable-background="new 0 0 1024 1024" xml:space="preserve">
<g id="Layer_9">
</g>
<g id="Layer_8">
</g>
<g id="Layer_7">
</g>
<g id="Layer_6">
</g>
<g id="Layer_5">
</g>
<g id="Layer_4">
</g>
<g id="Layer_3">
	<g id="FakeSmile_2_">
		<path fill="#FFFFFF" d="M486.801,1000.897c-90.551,0-172.84-28.337-231.707-79.792c-41.856-36.587-66.104-83.309-66.524-128.186
			c-0.229-24.249,6.306-49.552,19.418-75.207c5.664-11.081,12.571-22.444,20.528-33.774c4.222-6.011,8.589-12.227,13.316-17.79
			c3.402-4.004,7.413-6.657,12.059-9.729c0.654-0.433,2.131-1.416,2.131-1.416l3.176-2.371c1.702-1.269,3.415-2.663,5.072-4.011
			c3.07-2.5,6.245-5.084,9.385-6.897l8.32-4.808l-7.127-6.445c-11.826-10.696-16.168-34.977-18.405-52.31l-13.9,0.127
			c-0.1,0.902-0.46,1.702-1.135,2.516l-0.702,0.847l-0.21,0.524c-0.086,0.039-0.195,0.084-0.335,0.134l-0.69,0.247l-0.624,0.384
			c-3.981,2.452-10.51,3.975-17.037,3.975c-2.775,0-5.358-0.298-7.087-0.818c-2.007-0.605-3.924-1.453-5.696-2.521l-0.662-0.398
			l-0.733-0.244c-4.148-1.385-7.366-3.414-9.836-6.205c-3.161-3.572-6.899-9.336-6.752-16.506c0.105-5.152,1.057-7.874,1.837-9.251
			l0.935-1.648l-0.025-1.896c-0.135-10.202,1.585-21.11,4.72-29.929l0.138-0.389l0.092-0.401c2.203-9.672-3.897-18.654-9.279-26.579
			c-3.066-4.514-6.237-9.183-6.909-12.636c-1.069-5.502,1.682-24.92,5.157-28.131l7.909-2.977l-4.807-7.313
			c-18.314-27.862-37.424-47.222-59.771-60.465c1.502-0.496,3.653-0.55,4.509-0.55c5.438,0,12.103,1.628,16.085,2.6
			c0.731,0.179,1.392,0.34,1.964,0.473c3.043,0.708,6.165,1.33,9.185,1.932c6.234,1.243,12.681,2.528,18.321,4.565l0.776,0.28
			l1.111,0.123l4.226-13.061c-0.73-0.409-1.466-0.81-2.201-1.21l-1.378-0.752l-0.474-0.176c-9.659-3.6-17.046-7.058-23.247-10.883
			c-3.681-2.272-6.86-4.953-8.527-6.842c0.832,0.045,1.57,0.123,2.285,0.303c9.387,2.359,19.155,5.403,27.574,8.071
			c3.454,1.095,7.145,1.859,11.282,2.337l0.644,0.075c0,0,2.78-0.189,3.849-0.259c3.788-0.248,7.706-0.505,11.632-0.968
			c8.134-0.96,15.652-2.602,22.346-4.877c2.996-1.019,5.745-2.598,8.404-4.125l10.202-5.822l-8.505-6.4
			c-7.818-5.884-15.573-12.099-23.048-18.474c-28.539-24.341-58.533-79.374-65.496-120.174c-0.248-1.453-0.589-2.944-0.949-4.522
			c-1.934-8.47-1.862-11.379,0.304-12.453c0.193-0.096,0.323-0.139,0.394-0.158c3.156,1.232,7.575,13.855,9.035,18.027
			c2.825,8.072,4.867,13.904,11.106,13.904h0.004c0.745,0,1.486-0.11,2.201-0.326c2.457-0.744,4.658-1.105,6.729-1.105
			c2.814,0,5.182,0.664,7.923,1.432c3.112,0.872,6.641,1.861,10.986,1.861c3.828,0,7.726-0.771,11.916-2.355
			c9.479-3.584,21.931-8.518,34.194-14.9c5.417-2.819,11.062-5.97,17.256-9.633c0.957-0.565,2.098-1.396,4.031-2.813
			c1.882-1.38,6.288-4.612,7.739-5.153c-0.012,0.004-0.506,0.183-1.306,0.183c-0.379,0-0.766-0.04-1.149-0.118l2.787-13.72
			c-1.541-0.313-3.136-0.472-4.74-0.472c-6.627,0-12.486,2.646-17.657,4.98c-1.681,0.759-3.269,1.476-4.783,2.06
			c-2.081,0.802-4.606,1.236-7.28,1.695c-5.287,0.908-11.279,1.938-16.498,6.2c-1.673,1.366-3.287,2.765-4.848,4.118
			c-6.047,5.241-11.269,9.768-18.14,11.315c-0.663,0.15-1.112,0.181-1.372,0.181c-0.152,0-0.258-0.011-0.322-0.021
			c-0.011-0.014-0.54-0.789-0.54-0.789l-0.672-0.588c-1.334-1.166-1.823-6.334-0.481-11.507c0.129-0.498,0.313-1.073,0.58-1.811
			l0.293-0.812l0.088-0.858c0.09-0.882,0.183-1.739,0.271-2.559c0.283-2.624,0.527-4.889,0.56-6.716
			c0.174-10,2.795-18.003,8.013-24.466c5.097-6.314,11.498-12.192,17.689-17.876c1.634-1.501,3.261-2.995,4.861-4.492
			c19.98-18.695,43.839-34.128,66.911-49.054l0.813-0.526c28.451-18.407,57.644-32.539,89.244-43.203
			c24.877-8.395,45.295-12.305,64.258-12.305c2.475,0,4.95,0.07,7.359,0.209c10.679,0.614,20.793,2.777,30.063,6.429
			c1.555,0.613,3.172,1.212,4.817,1.821c8.766,3.244,17.829,6.598,20.978,13.799l5.853,13.389l5.156-9.872
			c5.619-0.858,16.921-2.464,18.943-2.593l0.563-0.003c7.483,0,15.013,1.481,20.736,2.771c3.415,0.77,6.971,1.645,10.873,2.675
			l0.8,0.211l0.827,0.019c7.9,0.181,14.674,1.218,20.708,3.172c2.991,0.969,6.442,2.978,8.122,4.716
			c0.055,0.065,0.111,0.13,0.17,0.195l1.231,1.365l4.297,1.436c9.123,3.067,19.051,7.292,31.246,13.292
			c37.541,18.473,59.658,49.61,81.316,90.68c15.93,30.21,25.073,58.104,27.952,85.277c1.47,13.883,1.479,28.392,0.027,44.354
			c-0.45,4.954-1.084,10.267-1.994,16.72l-2.872,20.368l14.7-14.388c7.405-7.249,15.875-13.885,24.064-20.303
			c3.202-2.509,6.514-5.104,9.741-7.717c1.686-1.366,3.716-2.935,5.865-4.596c7.899-6.105,17.623-13.62,23.122-20.839
			c-1.594,2.429-3.119,4.589-4.22,5.938c-5.89,7.218-12.759,13.68-21.26,21.161c-6.373,5.61-14.861,12.899-24.023,19.534
			c-1.109,0.804-2.351,1.579-3.664,2.398c-3.264,2.036-6.962,4.344-9.953,7.974c-0.688,0.835-1.191,1.764-1.677,2.662
			c-0.182,0.336-0.486,0.9-0.613,1.085c0.025-0.038,0.648-0.934,2.028-1.584l5.996,12.651l0.255-0.121
			c1.965-0.931,3.938-1.882,5.909-2.834c4.542-2.192,9.239-4.459,13.881-6.464c1.983-0.857,4.061-1.611,6.259-2.41
			c4.137-1.501,8.413-3.054,12.547-5.478c10.809-6.333,22.274-12.038,34.076-16.954c9.462-3.941,24.887-7.336,37.51-8.255
			c1.132-0.083,2.263-0.171,3.395-0.26c4.189-0.328,8.146-0.638,12.097-0.638c0.36,0,0.721,0.002,1.08,0.008
			c3.442,0.053,6.943,0.444,10.651,0.857c0.695,0.078,1.399,0.156,2.109,0.233c-0.216,0.104-0.432,0.209-0.648,0.313
			c-3.937,1.905-7.655,3.705-11.48,5.102c-4.112,1.504-8.385,2.605-12.908,3.771c-1.032,0.266-2.064,0.532-3.096,0.804
			c-1.842,0.484-3.64,0.944-5.404,1.396c-8.961,2.296-17.425,4.465-26.729,8.441c-8.314,3.555-16.882,6.974-25.167,10.281
			c-3.158,1.261-6.318,2.522-9.475,3.794c-3.831,1.543-7.743,2.765-11.886,4.058c-2.393,0.747-4.867,1.52-7.339,2.364
			c-5.796,1.979-10.699,5.075-15.44,8.069c-0.905,0.572-1.81,1.143-2.718,1.704c-1.674,1.034-3.36,2.023-5.146,3.071
			c-3.544,2.079-7.209,4.229-10.728,6.73c-4.879,3.47-8.463,7.655-11.929,11.702l-0.479,0.559c-0.546,0.637-1.474,1.345-2.546,1.944
			l-6.225,3.474l3.586,6.16c0.061,0.104,0.22,0.415,0.392,1.062l0.702,2.64l2.304,1.467c5.954,3.789,14.551,5.019,20.827,5.918
			c1.568,0.224,3.049,0.436,3.865,0.614c4.121,0.899,8.162,2.438,12.439,4.066c2.986,1.137,6.073,2.313,9.296,3.303
			c1.903,0.584,4.273,0.738,8.646,0.981c2.936,0.163,9.694,0.539,13.522,1.483c-3.365,3.602-9.173,4.69-17.249,5.842
			c-2.11,0.301-4.293,0.612-6.397,1.015c-1.21,0.232-2.484,0.594-3.834,0.977c-2.014,0.571-4.519,1.282-6.112,1.282
			c-0.294,0-0.424-0.027-0.428-0.028c0.099,0.022,0.431,0.146,0.773,0.457l-9.399,10.376c8.646,7.833,20.497,11.804,35.225,11.804
			c2.142,0,4.396-0.083,6.699-0.245l1.469-0.107c2.547-0.188,5.181-0.382,7.788-0.382c3.561,0,6.331,0.391,8.257,1.163
			c-1.603,2.463-6.177,6.446-9.415,7.996c-1.138,0.544-2.253,1.157-3.332,1.749c-2.138,1.173-4.798,2.634-6.294,2.634
			c-0.046,0-0.091-0.001-0.136-0.005l-1.167,13.951c3.99,0.334,10.357,4.019,15.474,6.979c3.289,1.903,6.396,3.701,9.347,5.007
			l0.324,0.144c8.172,3.618,16.622,7.359,20.784,13.931c0.054,0.084,0.091,0.151,0.115,0.201c-0.098,0.234-0.388,0.744-1.053,1.462
			c-3.606,3.897-7.222,5.487-12.479,5.487c-3.451,0-7.385-0.676-11.55-1.393c-0.825-0.142-1.659-0.285-2.5-0.426
			c-0.623-0.104-1.243-0.197-1.863-0.29l-3.245-0.504l-1.962,0.94c-0.363,0.174-0.755,0.375-1.159,0.585
			c-0.379,0.196-0.992,0.514-1.288,0.632c-0.545,0.11-0.871,0.158-0.944,0.167c0.155-0.018,0.294-0.018,0.402-0.018
			c0.002,0,0.003,0,0.003,0c3.147,0-2.461,0.179-2.461,0.179c-1.849,0.821-3.292,1.14-5.147,1.14c-0.256,0-0.516-0.006-0.782-0.018
			c-3.476-0.15-7.065-0.677-9.805-1.119l-17.319-2.794l10.64,13.95c11.551,15.145,17.021,28.237,16.259,38.91
			c-0.208,2.908-1.073,5.398-2.645,7.612l-1.25,1.761l-0.033,1.756c-0.104,0.205-0.352,0.624-0.886,1.302
			c-3.699,4.689-10.489,7.52-18.631,7.764c-1.328,0.04-2.669,0.064-4.015,0.064c-0.651,0-1.304-0.006-1.956-0.019l-0.737-0.014
			l-0.724,0.14c-3.071,0.592-6.045,1.085-8.92,1.563c-1.677,0.278-3.277,0.544-4.776,0.81l-4.419,0.782l-1.134,4.342
			c-5.559,21.279-11.018,38.67-26.206,52.674l-5.015,4.624l4.492,5.133c0.312,0.356,2.297,2.657,2.297,2.657l0.673,0.48
			c11.375,8.121,22.899,18.271,36.269,31.943c5.351,5.473,11.451,10.56,17.351,15.479c11.351,9.465,22.071,18.404,28.024,29.847
			c26.153,50.272,20.662,60.904-9.814,119.905l-2.096,4.058c-19.288,37.374-53.166,71.233-100.691,100.638
			c-44.614,27.605-96.627,46.816-150.417,55.557C533.353,999.01,509.98,1000.897,486.801,1000.897z"/>
		<g opacity="0.9">
			<g opacity="0.8">
				<path fill="#C6876A" d="M753.953,476.63c-2.349-3.842-4.524-7.786-6.604-11.779c-2.313-4.443-4.505-8.967-6.563-13.534
					c-0.268-0.595-0.521-1.196-0.777-1.796c-0.043-0.109-0.084-0.211-0.12-0.304c-1.013-2.604-1.917-5.247-2.768-7.907
					c-1.505-4.718-2.799-9.551-3.709-14.419c-0.04-0.213-0.084-0.485-0.129-0.773c-0.033-0.446-0.063-0.896-0.094-1.343
					c-0.096-1.479-0.094-2.963-0.031-4.443c0.177-1.151,0.726-6.22,0.707-6.879c0.487-2.375,1.089-4.676,1.354-7.198
					c-0.614,5.87,0.257-0.021,0.521-1.462c1.046-5.667,0.33-12.729-5.729-15.586c-15.893-7.492-30.947,8.36-35.398,22.307
					c-3.908,12.244-3.022,26.18-0.756,38.618c2.283,12.521,6.77,24.555,11.828,36.187c5.493,12.632,12.063,28.719,26.38,32.844
					c5.894,1.697,12.508,0.705,17.785-2.342c7.815-4.513,10.665-11.689,11.722-20.172
					C762.526,488.981,757.677,482.718,753.953,476.63z"/>
				<g>
					<path fill="#C6876A" d="M751.166,388.869c-8.393-61-62.705-97.394-124.922-93.537c-83.467-3.594-160.292,53.942-240.242,70.42
						c-37.785,7.787-74.828,14.667-111.933,0.824c-6.077-2.268-13.065-5.773-19.643-6.444c-16.617-1.689-2.805,23.544,2.326,27.452
						c9.639,7.34,27.468,19.032,39.227,20.995c78.058,11.355,143.204-2.96,214.287-37.67
						c38.747-18.923,86.129-39.996,125.971-34.339c31.281,4.438,61.386,27.271,77.662,53.813
						c8.019,13.083,0.962,27.955,6.359,39.745C732.655,457.204,752.845,401.066,751.166,388.869
						C749.46,376.462,752.311,397.183,751.166,388.869z"/>
					<path fill="#C6876A" d="M296.072,408.596c-0.029-0.006-0.062-0.011-0.093-0.017c-0.046-0.007-0.092-0.012-0.139-0.019
						C295.925,408.573,295.996,408.583,296.072,408.596z"/>
					<path fill="#C6876A" d="M296.072,408.596C298.033,408.919,299.467,409.093,296.072,408.596L296.072,408.596z"/>
				</g>
				<path fill="#C6876A" d="M386.784,599.62c-0.063,0-0.063,0.101,0,0.101C386.849,599.721,386.85,599.62,386.784,599.62z"/>
			</g>
			<g>
				<path fill="#C6876A" d="M339.956,941.366c-6.931-7.086-16.947-10.141-25.886-13.894c-8.98-3.77-17.56-8.509-25.751-13.757
					c-15.559-9.971-28.772-23.055-39.781-37.847c-10.267-13.794-18.107-29.394-24.869-45.147
					c-3.446-8.031-6.395-16.258-9.727-24.335c-3.119-7.559-5.756-16.468-10.921-22.913c-1.127-1.406-3.302-0.336-3.427,1.256
					c-0.65,8.251,2.329,17.348,4.375,25.261c2.328,9.003,5.45,17.771,8.681,26.485c6.399,17.26,14.425,33.904,24.773,49.153
					c11.362,16.744,24.843,31.453,41.564,42.95c8.821,6.063,18.298,11.113,28.021,15.563c9.271,4.244,19.698,8.664,30.063,6.413
					C341.116,949.675,342.932,944.41,339.956,941.366z"/>
				<path fill="#C6876A" d="M813.967,768.533c-1.054-6.931-2.063-15.233-6.13-21.134c-1.4-2.032-4.294-1.961-5.547,0.19
					c-3.304,5.67-3.026,13.238-3.037,19.597c-0.014,7.635,0.222,15.226-0.111,22.861c-0.541,12.424-6.23,24.258-13.716,34.021
					c-7.232,9.438-16.206,17.295-24.982,25.236c-8.915,8.065-20.511,17.559-24.76,28.91c-1.657,4.43-1.622,8.982,2.123,12.451
					c4.353,4.029,10.536,3.296,14.644-0.57c4.268-4.019,8.152-9.816,12.382-14.846c4.017-4.774,8.347-9.28,12.667-13.776
					c8.812-9.164,17.511-18.232,24.733-28.737c8.045-11.701,13.135-25.473,13.71-39.672
					C816.275,784.874,815.194,776.616,813.967,768.533z"/>
			</g>
			<radialGradient id="SVGID_14_" cx="503.5977" cy="648.6143" r="326.8385" gradientUnits="userSpaceOnUse">
				<stop  offset="0" style="stop-color:#FDC384"/>
				<stop  offset="1" style="stop-color:#F0B184"/>
			</radialGradient>
			<path opacity="0.8" fill="url(#SVGID_14_)" d="M798.274,725.677c-6.424-12.724-14.59-24.689-23.672-35.646
				c-4.752-5.733-53.619-53.236-54.405-66.664c-0.065-1.116,6.953-5.514,8.002-6.607c3.506-3.66,6.393-7.915,8.819-12.352
				c9.205-16.815,12.107-38.62,15.754-57.221c3.389-17.284,4.409-34.691,2.227-52.198c-2.061-16.503-5.407-32.838-8.843-49.101
				c-1.989-9.423-4.7-18.72-6.181-28.247c-1.521-9.795-1.439-19.71-1.196-29.593c0.278-11.368-2.629-22.626-7.39-32.901
				c-3.449-7.446-8.172-14.202-14.178-19.813c-14.103-13.172-33.328-19.478-51.765-23.714c-25.656-5.896-50.604-9.247-76.706-4.088
				c-6.905,1.365-13.854,2.94-20.627,4.871c-26.059,7.427-50.577,19.927-74.077,33.207c-13.22,7.471-26.257,15.26-39.438,22.795
				c-27.658,15.811-61.08,25.208-92.782,27.382c-9.401,0.646-19.854,1.542-29.224,0.353c-13.152-1.669-24.86-7.514-37.312-11.615
				c-10.277-3.385-19.855-5.855-30.759-5.062c-4.729,0.346-10.712,8.91-12.305,12.709c-3.348,7.982-2.749,17.448-2.42,25.895
				c1.961,50.329-3.006,102.313,7.627,151.867c2.782,12.968,2.809,24.045,7.692,36.398c0.099,0.38,1.571,5.962,1.669,6.342
				c1.015,2.666,16.313,27.441,16.212,27.527c-0.221,0.188-0.442,0.376-0.66,0.575c-10.834,9.91-23.6,18.604-33.615,29.285
				c-18.485,19.719-34.541,48.711-44.322,73.741c-11.808,30.218-13.822,62.712-2.113,93.28
				c6.499,16.969,16.342,32.348,26.143,47.554c-0.249-0.159-0.51-0.294-0.782-0.407c10.347,16.057,23.915,22.943,39.335,33.178
				c9.772,6.484,19.648,12.818,29.714,18.841c20.411,12.213,41.617,23.135,63.776,31.826c46.553,18.259,95.992,25.27,145.837,24.027
				c40.923-1.019,81.53-1.942,119.984-17.619c13.475-5.493,25.765-13.322,38.431-20.391c12.538-6.995,26.186-11.442,38.734-18.295
				c23.787-12.99,46.809-36.05,62.178-58.149c17.969-25.837,40.918-46.781,45.898-79.456
				C815.437,772.596,809.531,747.973,798.274,725.677z"/>
			<g opacity="0.7">
				<path fill="#C6876A" d="M626.783,499.563c-2.387-1.291-5.528-2.663-8.27-2.87c-3.895-0.296-7.945,0.637-11.771,1.223
					c-6.791,1.037-13.588,1.714-20.457,1.722c-7.098,0.004-14.034-0.983-21.046-1.933c-6.332-0.854-13.226-3.811-19.604-2.604
					c-2.196,0.414-3.677,3.022-2.55,5.073c3.481,6.329,11.444,9.064,17.911,11.294c7.248,2.498,15.061,3.481,22.681,4.028
					c7.767,0.558,15.653,0.259,23.395-0.558c7.996-0.847,16.334-2.631,20.795-9.968
					C628.894,503.283,628.709,500.606,626.783,499.563z"/>
				<path fill="#C6876A" d="M366.213,511.238c-5.576-4.376-12.994-1.56-19.265-0.404c-5.698,1.052-11.397,1.71-17.146,2.373
					c-5.41,0.627-10.824,0.459-16.248,0.182c-3.206-0.163-12.008-1.201-11.672,4.299c0.333,5.465,7.033,8.341,11.231,10.18
					c5.248,2.3,11.535,2.8,17.187,3.142c5.99,0.362,12.197-0.451,18.147-1.136c6.873-0.791,15.322-0.485,19.771-6.766
					C370.971,519.227,369.764,514.024,366.213,511.238z"/>
			</g>
			<path fill="#C6876A" d="M426.51,526.963c0.135-0.233,0.278-0.464,0.419-0.694c0.03-0.063,0.063-0.118,0.092-0.183
				c0.226-0.519,0.464-1.026,0.709-1.528c-0.093,0.272-0.17,0.556-0.257,0.833c0.212-0.33,0.425-0.66,0.648-0.988
				c0.508-0.747,1.103-1.316,1.744-1.741c0.844-1.669,1.808-3.274,2.815-4.885c0.375-0.736,0.774-1.459,1.198-2.166
				c-0.455,0.292-0.89,0.615-1.297,0.974c3.238-4.575,6.853-8.89,9.793-13.797c5.158-8.613,10.376-24.136,3.878-33.146
				c-3.839-5.321-13.125-7.12-16.528,0.043c-2.491,5.246-2.119,10.253-2.243,15.879c-0.088,3.983-1.062,7.966-1.905,11.843
				c-1.873,8.607-4.199,16.856-7.501,25.005C416.14,527.19,423.712,530.668,426.51,526.963z"/>
			<g id="Eyes_7_">
				<g>
					<path fill="#EFE4CC" d="M648.625,455.297c1.76-7.931-2.275-17.813-10.892-24.787c-8.963-7.261-20.096-13.413-33.338-15.486
						c-5.135-0.805-10.002-1.147-14.626-1.054c-1.343-0.072-2.677-0.111-3.991-0.111c-13.969,0.006-24.054,4.76-30.008,11.732
						c-5.299,4.548-9.192,10.42-9.663,16.247c-0.134,1.679-0.194,3.614-0.105,5.41c0.021,0.174,0.043,0.35,0.063,0.521
						c0.156-4.813,0.154-4.475-0.012,1.016c0.086,2.343,0.962,4.793,2.198,7.104c2.59,4.829,7.334,9.063,12.694,12.824
						c7.493,5.256,18.702,9.212,28.518,10.646c13.669,1.996,25.27,1.457,37.007-1.938c11.29-3.266,17.688-10.634,20.969-18.521
						c0.04-0.095,0.062-0.191,0.102-0.287C648.01,457.517,648.379,456.404,648.625,455.297z"/>
					<path fill="#DACABC" d="M632.444,476.701c-3.5,2.094,24.678-18.313,8.707-17.676c-3.324,0.136-17.395,3.769-20.445,4.448
						c-21.516,4.394-44.075-1.949-61.004-13.67c-16.677-21.72-16.383,11.675,11.187,23.083
						C586.123,479.19,618.948,484.804,632.444,476.701C635.674,474.771,632.342,476.768,632.444,476.701z"/>
				</g>
				<g>
					<path fill="#EFE4CC" d="M383.161,453.807c-1.001-2.491-2.427-5.153-4.513-7.322c-3.471-3.607-8.018-7.129-13.861-9.311
						c-1.444-0.697-2.912-1.368-4.325-1.96c-6.568-2.752-16.65-4.459-25.292-3.359c-14.729,1.874-24.991,6.3-34.551,14.353
						c-3.436,2.895-6.022,6.151-8.001,9.522c-1.422,1.854-2.55,3.723-3.243,5.482c-0.947,2.403-1.459,4.627-1.602,6.759
						c-2.209,10.217,3.168,21.334,14.246,27.413c8.088,4.438,16.6,6.469,28.07,6.703c11.775,0.24,23.035-4.771,32.417-9.601
						c8.501-4.375,13.597-10.852,17.956-16.848c4.105-5.647,4.26-12.082,3.479-17.678c-0.092-0.655-0.205-1.637-0.259-1.893
						C383.599,455.286,383.445,454.517,383.161,453.807z"/>
					<path fill="#DACABC" d="M376.816,460.187c-14.643,3.673-22.249,18.491-41.363,21.213c-15.547,2.216-53.917-9.789-38.849,7.961
						c8.946,10.534,33.667,15.579,53.515,9.206C366.305,493.37,391.771,456.432,376.816,460.187
						C371.98,461.4,383.896,458.409,376.816,460.187z"/>
				</g>
			</g>
			<g>
				<path fill="#C6876A" d="M781.018,515.351c-0.382-6.809,0.09-13.967-3.53-19.997c-3.839-6.393-14.511-8.67-19.917-3.251
					c0,0.003-0.001,0.006-0.001,0.008c0.126,0.253,0.204,0.548,0.208,0.895c0.111,9.401-0.052,18.806-0.523,28.194
					c0.253,1.71,0.468,3.387,0.572,4.992c0.233,3.537,0.514,7.138,0.545,10.727c3.058,8.778,8.533,17.113,13.32,24.697
					c0.33,0.524,1.125,0.438,1.302-0.172c2.865-9.844,5.729-19.479,7.266-29.699C781.055,526.449,781.317,520.698,781.018,515.351z"
					/>
				<path fill="#C6876A" d="M243.592,556.641c-1.298-9.153-0.853-18.852-4.438-27.448c-2.594-6.219-12.84-4.301-14.074,1.854
					c-1.819,9.056,1.105,18.809,3,27.698c1.071,5.035,2.646,10.108,4.707,14.948c-3.291,0.215-6.655,1.238-9.881,1.587
					c-4.523,0.49-9.149,0.771-13.696,0.526c-9.027-0.481-17.54-4.282-22.317-12.156c-0.697-1.148-2.656-0.43-2.235,0.916
					c3.187,10.18,8.746,18.907,18.924,23.217c10.529,4.459,25.581,6.77,36.358,2.202c2.166-0.918,3.548-3.121,4.079-5.472
					c0.491-0.569,0.82-1.322,0.871-2.235C245.362,573.809,244.783,565.043,243.592,556.641z"/>
			</g>
			<g>
				<path fill="#C6876A" d="M658.76,928.148c-5.421,1.176-10.396,4.894-15.368,7.322c-5.126,2.505-10.404,4.634-15.768,6.57
					c-8.69,3.138-17.632,5.514-26.413,8.384c-16.593,5.423-33.198,10.643-50.186,14.703c-5.706-0.378-11.956,1.315-17.612,1.408
					c-3.132,0.052-6.291-0.002-9.411-0.27c-1.737-0.147-3.31-0.03-5.042,0.236c-0.15,0.06-0.266,0.105-0.396,0.157
					c-0.628-0.001-1.252,0.044-1.873,0.141c-4.395,0.505-7.106,5.225-3.74,8.838c0.584,0.627,3.957,4.145,1.651,1.039
					c1.203,1.62,2.521,2.819,4.38,3.609c3.678,1.563,7.798,2.124,11.759,2.502c3.764,0.359,7.634,0.128,11.396-0.117
					c3.952-0.259,8.241-0.341,11.925-1.9c17.659-2.08,34.641-7.354,51.675-12.324c9.431-2.751,18.993-4.995,28.33-8.068
					c5.953-1.959,11.789-4.274,17.549-6.736c5.485-2.346,12.256-4.809,16.309-9.3C674.316,937.259,668.312,926.076,658.76,928.148z"
					/>
				<path fill="#C6876A" d="M469.51,970.896c-3.63-9.328-18.639-7.798-26.756-8.725c-5.525-0.632-11.058-1.213-16.573-1.928
					c-4.858-0.631-9.531-1.907-14.195-1.537c-14.458-2.94-29.056-6.325-43.047-11.028c-6.688-2.248-12.108-4.336-18.118-7.343
					c-5.364-2.687-10.751-6.18-13.813-8.855c-4.33-3.785-10.647-4.297-14.939-0.021c-3.859,3.843-4.369,11.161-0.021,14.94
					c23.32,20.276,56.887,27.524,86.884,30.787c4.811,1.971,10.404,1.943,15.657,2.416c5.958,0.536,11.927,0.95,17.908,0.988
					c5.729,0.036,11.464,0.027,17.148-0.717C462.853,979.453,471.364,975.661,469.51,970.896z"/>
			</g>
			<path fill="#FDC58D" d="M825.498,711.898c-9.981-19.185-31.513-31.578-46.58-46.988c-11.498-11.759-23.771-23.154-37.206-32.747
				c-0.593-0.682-1.175-1.371-1.77-2.051c16.847-15.533,22.595-34.465,28.233-56.052c17.391-3.08,48.689-6.14,50.335-29.132
				c1.817-25.436-24.467-52.728-40.48-69.46c-5.526-5.776-33.598-37.717-42.489-24.361c-4.036,6.063-0.969,19.1-0.372,25.67
				c1.292,14.271,2.668,28.512,2.536,42.86c-0.35,38.513-12.814,73.18-28.178,107.989c2.965,3.4,6.029,6.728,9.113,10.041
				c0.011,0.014,0.019,0.029,0.029,0.043c3.601,4.474,7.559,8.622,11.701,12.604c0.249,0.273,0.504,0.543,0.752,0.817
				c0.012-0.018,0.025-0.034,0.038-0.051c13.186,12.53,28.194,23.417,40.035,37.253c15.329,17.914,28.005,34.97,34.032,57.773
				c12.112,45.832-10.267,92.12-40.291,125.4c-32.102,35.581-74.282,62.517-118.437,81.324
				c-52.131,22.205-109.405,32.971-165.986,32.231c-53.006-0.692-106.188-12.58-153.623-35.941
				c-42.673-21.016-81.78-51.783-104.601-93.563c-16.555-30.308-21.897-65.988-12.268-100.096
				c4.939-17.496,13.341-33.742,22.875-49.143c4.885-7.891,10.193-15.517,15.674-23.004c3.993-5.455,7.526-10.727,10.235-16.508
				c3.079-3.33,6.222-6.581,9.531-9.769c4.993-4.809,10.033-9.586,14.668-14.757c0.251-0.28,0.681-1.072,1.124-2.096
				c8.908-10.417,15.26-19.81-4.883-8.16c-0.271-9.473-10.837-14.063-9.582-20.91c-6.02-12.019-6.745-29.091-9.227-42.158
				c-6.864-36.176-7.203-71.912-7.485-108.63c-0.051-6.386-2.326-72.425,6.586-68.513c4.929-1.12,19.088,11.901,26.186,15.666
				c14.421,7.647,29.896,13.205,45.627,17.467c81.731,22.144,149.096-15.846,220.477-49.174
				c23.013-10.745,44.318-13.247,69.177-8.307c11.408,2.268,22.285,5.799,32.224,11.956c10.368,6.423,18.866,16.168,29.744,21.688
				c12.015,6.097,30.491-5.178,33.298-16.938c5.359-22.468-24.553-33.319-39.439-42.084
				c-73.354-43.191-130.489-10.851-199.013,22.668c-51.932,25.402-104.064,33.621-160.176,18.536
				c-29.252-7.865-67.655-31.624-77.967,9.563c-9.717,38.81-1.688,86.674,3.031,125.868c-4.788-9.652-15.453-19.404-22.299-28.712
				c-9.668-13.147-16.456-28.486-25.604-41.156c-16.068-22.256-20.762,21.573-19.128,29.974
				c2.244,11.532,18.875,24.732,16.234,36.323c-8.669,24.389-9.135,68.629,20.791,77.646c10.355,3.119,35.275,0.066,36.797-13.741
				c2.877,22.291,8.077,45.232,20.652,56.605c-5.444,3.146-10.404,7.829-15.14,11.358c-1.011,0.754-2.021,1.51-3.031,2.264
				c-5.673,3.792-10.908,6.945-15.483,12.33c-4.928,5.799-9.337,12.073-13.711,18.3c-7.767,11.059-14.881,22.577-21.032,34.612
				c-12.376,24.213-20.442,51.106-20.186,78.458c0.49,52.271,30.595,99.893,68.918,133.391
				c82.667,72.258,200.958,93.035,306.905,75.819c53.74-8.732,106.637-27.84,152.978-56.513
				c41.395-25.611,80.613-59.561,103.229-103.381C846.355,778.832,853.942,766.575,825.498,711.898z M245.105,537.187
				c0.627,4.53,1.146,9.886,1.688,15.726C245.071,547.444,243.396,542.157,245.105,537.187z M248.195,571.379
				c0.112-0.29,0.207-0.579,0.303-0.869c0.087,0.812,0.177,1.624,0.27,2.439C248.602,572.437,248.416,571.913,248.195,571.379z"/>
			<g>
				<path fill="#C6876A" d="M244.391,563.277c-0.081-1.181-0.025-3.191-0.143-4.354c-0.491-4.877-1.073-9.029-0.583-13.922
					c0.752-7.51-1.749-15.898-1.067-23.351c-0.104-0.13-0.193-0.27-0.302-0.396c-0.702-0.821-1.938-0.604-2.657,0.02
					c-6.432,5.577-6.681,16.574-6.504,24.418c0.193,8.564,1.49,16.897,2.72,25.286c-10.014,0.719-21.671,4.63-30.725-1.463
					c-3.862-2.6-7.024-6.607-8.396-11.026c-1.573-5.065-1.305-11.053-4.826-15.33c-0.173-0.211-0.513-0.214-0.732-0.094
					c-5.844,3.176-7.009,11.029-7.132,17.014c-0.164,8.021,3.309,15.412,8.509,21.288c5.991,6.769,14.386,9.366,23.096,10.378
					c7.438,0.865,18.474-0.527,25.768-2.494c9.28-2.502,5.078-10.068,3.575-16.917C244.299,569.187,244.612,566.526,244.391,563.277
					z"/>
				<path fill="#C6876A" d="M800.798,551.08c-4.74,3.004-8.818,6.239-14.433,6.389c-9.19,0.248-10.756-6.414-11.046-12.469
					c-0.48-10.005-2.366-19.942-6.127-28.927c-2.272-5.43-3.29-11.261-4.056-17.067c-0.324-2.455-3.248-13.395-1.837-15.327
					c-7.568,10.361-6.272,24.157-5.293,36.199c0.592,7.274,1.252,14.541,1.775,21.822c0.489,6.819-0.02,13.418-0.28,20.216
					c-0.271,7.095,7.255,8.014,12.819,8.939c5.22,0.869,10.694,0.924,15.973,0.766c8.851-0.266,18.226-3.21,23.917-10.426
					c1.899-2.409,3.696-5.595,1.052-8.083C811.471,551.427,802.795,549.814,800.798,551.08z"/>
			</g>
			<g>
				<path fill="#8A5322" d="M863.582,483.593c-5.365-8.471-15.386-12.831-24.189-16.729c-7.762-3.436-18.71-11.86-27.069-12.561
					c4.627,0.387,9.325-3.105,13.365-5.038c5.841-2.794,20.565-14.756,10.501-20.112c-6.182-3.29-15.359-2.332-22.112-1.854
					c-12.984,0.916-26.685-0.661-36.731-9.764c3.637,3.294,11.597-0.23,15.617-1.001c10.222-1.958,23.349-1.694,29.533-11.688
					c7.392-11.943-22.416-9.694-27.318-11.2c-7.518-2.309-14.587-5.834-22.299-7.517c-6.137-1.338-27.433-2.187-26.266-12.457
					c0.968-8.54,6.114-15.769,7.325-24.157c2.396-16.602,5.56-33.399,7.078-50.101c1.383-15.208,1.571-30.525-0.038-45.725
					c-3.288-31.037-14.238-60.339-28.722-87.805c-20.607-39.077-43.701-73.66-84.417-93.695
					c-10.325-5.081-21.188-9.976-32.105-13.646c-15.72-5.286-31.525-10.333-47.721-13.983c-7.56-1.704-15.215-3.023-22.988-2.938
					c-2.131,0.023-23.446,3.136-23.388,3.271c-5.049-11.55-18.871-15.085-29.644-19.329c-10.299-4.058-21.187-6.27-32.226-6.904
					c-25.211-1.452-50.519,4.44-74.258,12.451c-32.2,10.866-62.268,25.493-90.809,43.958
					c-23.701,15.333-48.031,31.003-68.705,50.346c-7.879,7.372-16.426,14.672-23.214,23.082c-6.702,8.301-9.382,18.167-9.565,28.742
					c-0.147,8.475-6.698,36.221,10.133,32.43c10.681-2.405,17.748-10.201,25.877-16.841c6.144-5.018,14.74-4.036,21.868-6.785
					c7.361-2.838,15.022-7.916,23.269-6.239c-2.429-0.493-11.777,7.262-14.271,8.735c-5.563,3.289-11.192,6.466-16.925,9.449
					c-10.824,5.634-22.036,10.25-33.439,14.563c-16.391,6.2-19.916-5.189-37.104,0.015c-3.95,1.194-9.089-38.314-23.822-31.019
					c-9.352,4.634-4.421,16.957-3.146,24.425c6.942,40.678,36.463,97.549,67.854,124.322c8.602,7.336,17.493,14.438,26.587,21.156
					c-8.211,0.919-15.41,5.637-23.663,7.162c-1.908,0.302-3.835,0.543-5.751,0.755c-0.175-0.03,0.449-0.189,0.18-0.21
					c-9,0.486-18.849,0.394-27.501-2.349c-9.183-2.91-18.649-5.842-27.984-8.188c-3.021-0.759-5.614-0.406-8.575-0.792
					c-2.088-0.271-2.988,1.882-2.688,3.57c-4.325,5.65,9.045,14.606,12.125,16.508c7.661,4.726,16.056,8.346,24.478,11.484
					c1.025,0.562,2.056,1.115,3.075,1.687c-0.104-0.011-0.209-0.021-0.313-0.032c-8.966-3.238-19.006-4.57-28.297-6.731
					c-7.247-1.687-28.94-7.996-32.386,3.448c1.296,0.444,1.248,2.56-0.151,2.87c-0.12,0.383-0.139,0.815,0.009,1.272
					c40.021,21.627,62.984,59.417,84.092,97.966c3.821,6.981,8.904,13.069,11.971,20.474c3.153,7.617,4.856,17.306,11.479,22.946
					c4.216,3.593,13.7,4.207,17.09-1.514c4.464-7.535-2.035-23.324-3.675-31.021c-2.585-12.146-4.914-24.402-5.441-36.836
					c-0.808-18.959,3.908-36.758,7.887-55.106c1.862-8.59,3.336-17.036,4.339-25.773c0.591-5.148-0.331-10.57,6.23-11.146
					c8.125-0.713,21.05,7.68,27.324,12.01c5.811,4.011,9.057,10.324,14.563,14.611c18.123,14.104,46.088,16.458,68.191,15.389
					c25.691-1.242,49.854-6.76,73.84-15.688c28.381-10.563,56.401-23.906,83.563-37.256c26.479-13.014,52.503-28.743,81.788-34.531
					c31.473-6.223,62.449-6.332,89.369,13.96c16.196,12.208,27.713,28.278,39.272,44.675c0.705,1,0.563,2.226-0.036,3.189
					c0.125,0.25,0.182,0.556,0.137,0.919c-2.444,19.792-1.622,42.424,2.183,61.954c1.892,9.709,5.015,19.196,10.15,27.693
					c3.709,6.136,10.676,17.264,17.267,20.581c14.89,7.493,33.688,6.207,49.854,8.063c5.002,0.574,9.985,1.285,14.958,2.113
					c12.376,2.065,23.015,4.778,32.818-5.817C865.438,489.9,865.442,486.531,863.582,483.593z"/>
				<g>
					<path fill="#7C411C" d="M827.812,486.408c-12.854-9.764-28.629-7.899-43.718-11.68c-6.643-1.664-12.055-4.048-18.037-7.7
						c-5.095-3.109-11.646-9.076-13.325-14.915c-0.033-0.115-0.073-0.221-0.112-0.329c5.847,3.785,12.565,6.267,19.289,7.921
						c8.763,2.156,20.254,3.835,28.524-0.639c3.524-1.907,5.707-5.911,5.731-9.864c0.035-5.647-3.649-9.146-8.496-11.132
						c-5.861-2.399-14.055-1.24-20.331-1.7c-0.734-0.059-1.469-0.13-2.199-0.212c-0.123-0.019-0.258-0.04-0.414-0.063
						c-1.469-0.229-2.922-0.545-4.37-0.88c-3.563-0.822-5.514-1.611-7.363-2.518c-5.06-2.475-8.052-4.779-10.67-8.695
						c-1.656-2.478-2.808-4.917-3.547-7.405c0.563,0.535,1.134,1.054,1.72,1.543c5.066,4.224,13.515,7.935,19.706,3.874
						c3.44-2.258,4.862-6.551,2.75-10.264c-2.117-3.722-6.482-5.875-10.221-7.752c-3.021-1.518-4.968-3.94-6.872-6.643
						c-2.017-2.861-3.19-5.872-3.994-9.26c-0.782-3.305-0.877-8.333-2.942-11.046c-0.875-1.146-1.991-1.489-3.33-0.892
						c-3.974,1.772-5.881,8.323-6.333,12.277c-0.61,5.328-0.198,10.847,1.506,15.95c-0.33,0.379-0.602,0.827-0.779,1.355
						c-2.808,8.31-4.9,15.828-3.16,24.615c1.435,7.24,6.136,13.797,11.787,18.497c-2.795-0.107-5.723,2.097-4.726,5.563
						c1.15,4.003,1.882,8.182,2.761,12.262c0.876,4.068,4.275,8.246,6.777,11.433c5.16,6.572,11.847,11.187,19.355,14.73
						c7.865,3.711,16.174,6.412,24.736,7.88c4.604,0.788,9.271,1.554,13.938,1.756c3.351,0.145,5.999-0.354,9.071-1.718
						c-1.964,0.872,1.584,0.127,1.654,0.113c1.235-0.229,2.804-1.185,4.006-1.758C830.533,497.043,831.843,489.471,827.812,486.408z
						"/>
					<path fill="#7C411C" d="M293.517,137.627c-4.558,0.594-9.206,2.555-13.679,3.696c-5.064,1.293-10.165,2.449-15.264,3.602
						c-11.263,2.548-22.604,4.888-33.666,8.221c-11.274,3.396-24.485,11.303-31.65,20.669c-3.136,4.101-6.297,9.482-7.609,14.543
						c-1.899,7.324-2.203,20.319,8.51,20.643c3.528,0.106,6.379-0.643,9.08-2.996c0.463-0.483,0.925-0.969,1.387-1.453
						c0.08-0.075,0.307-0.299,0.684-0.673c5.797-5.759,8.163-12.327,15.942-15.128c6.725-2.42,12.407-3.14,18.667-5.627
						c11.323-4.5,23.646-5.572,35.548-7.688c8.41-1.495,17.037-2.984,24.728-6.889c6.635-3.367,9.706-11.885,7.891-18.847
						C311.541,139.961,302.62,136.443,293.517,137.627z"/>
					<path fill="#7C411C" d="M507.215,46.813c-16.584-4.573-37.89-2.274-52.662,6.772c-2.207,1.353-1.253,4.597,1.256,4.738
						c8.631,0.49,16.575-1.893,24.887-3.817c8.631-1.998,17.318-3.604,26.117-4.698C508.438,49.605,509.008,47.308,507.215,46.813z"
						/>
					<path fill="#7C411C" d="M246.328,344.923c-6.521,1.45-12.094,6.369-17.582,8.235c-6.713,2.282-13.884,3.723-20.914,4.553
						c-7.642,0.902-15.364,0.987-22.99,1.926c-6.708,0.824-13.259,2.065-20,2.719c-1.039,0.101-1.245,1.437-0.241,1.797
						c6.655,2.388,13.159,5.171,19.97,7.066c8.246,2.295,17.382,2.835,25.9,3.126c8.232,0.281,16.478-0.296,24.527-2.08
						c7.867-1.745,18.705-5.271,22.113-13.262C260.321,351.482,255.062,342.982,246.328,344.923z"/>
					<path fill="#7C411C" d="M244.361,374.283c-8.263,0-14.953,5.664-22.31,8.913c-6.494,2.87-13.781,4.614-20.758,5.79
						c-16.186,2.729-32.189,3.264-48.448,1.156c-1.842-0.239-2.211,2.808-0.43,3.194c8.537,1.854,16.873,4.2,25.37,6.138
						c8.197,1.869,16.789,3.404,25.219,3.166c8.604-0.244,17.007-1.752,25.064-4.767c8.691-3.25,18.451-7.306,21.561-16.687
						C250.749,377.813,247.748,374.283,244.361,374.283z"/>
					<path fill="#7C411C" d="M594.131,66.766c3.165,0.301,6.389,0.849,9.483,1.579c1.544,0.363,3.093,0.792,4.623,1.213
						c1.865,0.513,3.36-0.114,4.966,1.05c2.756,2,5.873-1.826,4.426-4.449c-1.677-3.037-2.086-5.925-4.577-8.616
						c-2.722-2.938-7.431-5.512-11.213-6.737c-8.794-2.848-17.95-3.661-27.147-3.541c-9.791,0.127-19.411,1.688-29.041,3.344
						c-4.153,0.713-8.299,1.469-12.451,2.187c-3.34,0.577-6.617,2.304-9.838,3.387c-5.029,1.689-6.196,10.063-0.04,11.195
						c15.008,2.761,30.942,0.329,46.11-0.729C577.6,66.075,585.975,65.988,594.131,66.766z"/>
					<path fill="#7C411C" d="M633.935,67.529c-5.504,2.83-10.786,6.008-15.796,9.587c-0.298-0.581-0.893-0.997-1.813-0.966
						c-12.975,0.436-25.268,4.23-36.904,9.833c-11.615,5.591-23.055,12.911-30.251,23.789c-1.668,2.521,1.67,5.758,4.171,4.147
						c9.85-6.34,18.333-14.461,28.277-20.697c9.625-6.037,20.341-10.538,31.578-12.364c-1.163,0.93-2.314,1.877-3.442,2.856
						c-3.95,3.433-7.147,7.505-10.202,11.73c-3.277,4.534-5.396,8.363-4.16,13.987c0.663,3.021,4.171,4.122,6.709,2.807
						c4.146-2.148,5.6-5.12,7.879-9.054c2.321-4.006,5.204-7.663,8.106-11.257c5.589-6.922,12.374-12.76,19.605-17.891
						C641.603,71.264,638.3,65.285,633.935,67.529z"/>
					<path fill="#7C411C" d="M230.543,474.843c-3.205-9.645-7.684-18.593-12.753-27.375c-5.013-8.681-10.557-16.954-16.536-24.99
						c-5.898-7.927-12.369-17.237-22.888-18.298c-2.263-0.229-5.096,1.854-5.427,4.141c-1.356,9.358,4.405,17.108,10.052,24.115
						c5.72,7.099,11.529,14.166,17.068,21.405c5.748,7.513,11.004,15.425,16.094,23.394c4.896,7.661,10.783,16.068,13.82,24.643
						c0.859,2.426,5.104,2.323,4.797-0.602C233.825,492.21,233.455,483.607,230.543,474.843z"/>
					<path fill="#7C411C" d="M749,311.373c-2.566-3.141-4.704-6.096-8.381-8.188c-0.22-0.125-0.451-0.238-0.68-0.356
						c-0.859-1.822-1.97-3.602-3.604-5.369c-2.1-2.27-4.723-4.06-7.118-6.009c-6.238-5.071-12.658-9.932-19.18-14.633
						c-10.165-7.329-20.924-13.826-32.277-19.139c-25.491-11.928-53.322-18.246-81.525-15.644
						c-48.938,4.519-92.363,27.654-135.088,50.236c-10.144,5.362-20.326,10.651-30.664,15.632c-4.905,2.363-9.856,4.625-14.85,6.8
						c-1.145,0.498-2.292,0.983-3.441,1.468c-0.071,0.029-0.138,0.056-0.218,0.087c-2.913,1.173-5.854,2.278-8.804,3.354
						c-10.443,3.804-21.158,6.845-32.07,8.963c-2.613,0.507-5.242,0.925-7.875,1.311c-0.047,0.007-0.083,0.012-0.127,0.019
						l-0.013,0.001c-1.331,0.15-2.666,0.268-4.002,0.384c-5.858,0.513-11.734,0.586-17.61,0.45
						c-2.767-0.063-5.527-0.242-8.284-0.461c-1.396-0.111-2.789-0.261-4.182-0.412c-0.196-0.021-0.362-0.039-0.517-0.055
						c-0.043-0.006-0.079-0.012-0.124-0.02c-6.594-0.971-13.033-2.538-19.418-4.432c-3.113-0.924-6.188-1.973-9.246-3.06
						c-1.526-0.544-3.04-1.125-4.555-1.707c-0.317-0.122-0.581-0.224-0.798-0.306c-0.195-0.083-0.418-0.178-0.688-0.292
						c-6.502-2.747-12.825-5.903-19.027-9.269c-12.021-6.521-23.466-13.957-34.45-22.093c-0.146-0.108-0.275-0.205-0.396-0.295
						c-0.226-0.176-0.593-0.462-1.168-0.905c-1.311-1.011-2.605-2.039-3.9-3.067c-2.59-2.056-5.139-4.164-7.674-6.286
						c-5.483-4.589-10.943-9.199-16.283-13.958c-7.301-6.506-14.456-14.238-22.566-19.706c-4.021-2.71,1.382-16.29-2.451-19.393
						c-2.744-2.222-8.695-3.79-12.008-1.44c-12.304,8.729-3.019,45.105,4.903,54.481c8.826,10.448,18.621,20.166,28.82,29.268
						c21.075,18.809,44.354,35.656,70.243,47.167c24.852,11.05,51.173,17.29,78.482,15.989c23.648-1.127,46.63-7.063,68.591-15.664
						c22.622-8.859,44.239-19.82,65.838-30.885c10.266-5.259,20.563-10.442,30.956-15.443c4.955-2.384,9.951-4.678,14.984-6.893
						c0.944-0.415,4.578-1.938,5.67-2.408c2.248-0.896,4.504-1.771,6.771-2.62c10.56-3.951,21.379-7.188,32.401-9.555
						c2.644-0.567,5.305-1.049,7.97-1.5c1.335-0.227,2.677-0.422,4.018-0.617c0.007-0.001,0.013-0.002,0.02-0.003
						c6.328-0.712,12.663-0.96,19.027-0.783c3.2,0.089,6.394,0.351,9.578,0.668c0.302,0.03,0.549,0.054,0.76,0.074
						c0.014,0.002,0.024,0.004,0.039,0.006c1.529,0.229,3.051,0.509,4.57,0.791c6.461,1.197,12.799,2.993,19.009,5.122
						c1.416,0.486,2.815,1.016,4.216,1.546c0.145,0.055,0.274,0.104,0.395,0.149c0.023,0.01,0.041,0.018,0.065,0.027
						c2.741,1.167,5.413,2.501,8.069,3.848c5.789,2.934,11.361,6.281,16.803,9.813c3.387,2.198,6.686,4.527,9.949,6.902
						c0.371,0.271,0.74,0.549,1.109,0.823c0.137,0.104,0.27,0.207,0.44,0.339c1.616,1.249,3.209,2.525,4.798,3.807
						c3.203,2.581,6.371,5.215,9.427,7.968c2.591,2.333,5.285,4.473,8.171,6.445c1.088,0.612,2.203,1.117,3.344,1.536
						c0.617,0.883,1.314,1.743,2.161,2.578c2.634,2.599,6.367,4.65,9.459,6.764c7.394,5.056,18.441,2.679,24.409-3.369
						C757.557,331.5,755.965,319.896,749,311.373z"/>
					<path fill="#7C411C" d="M913.563,290.94c-5.714-0.49-11.432-1.413-17.161-1.501c-5.745-0.088-11.459,0.49-17.188,0.907
						c-12.079,0.88-28.514,4.119-39.692,8.775c-11.984,4.992-23.722,10.813-34.925,17.377c-5.636,3.304-12.074,4.921-18.041,7.5
						c-6.771,2.925-13.36,6.248-20.024,9.404c-0.084,0.04-0.171,0.081-0.255,0.121c0.865-0.408,1.995-3.215,2.677-4.042
						c3.31-4.016,8.188-6.16,12.322-9.155c8.542-6.187,16.628-12.982,24.541-19.948c7.787-6.853,15.493-13.943,22.061-21.991
						c3.438-4.215,11.842-17.217,13.234-22.479c1.357-5.126,1.659-10.224,2.6-15.408c0.461-2.547-2.938-4.555-4.412-1.978
						c-2.304,4.026-5.469,7.473-8.229,11.2c-3.18,4.295-6.171,8.643-9.22,13.035c-5.937,8.562-20.472,18.702-28.571,25.263
						c-11.735,9.504-24.146,18.384-34.898,29.031c-3.068,3.038-6.003,6.202-8.729,9.556c-8.31,10.222-18.547,22.09-19.681,35.793
						c-0.261,3.159-0.436,7.409,0.543,10.464c1.325,4.142,6.76,7.319,10.852,7.264c4.23-0.058,9.651-2.639,12.432-5.882
						c3.47-4.047,6.769-7.996,11.149-11.112c4.938-3.511,10.346-6.369,15.495-9.55c5.402-3.336,10.686-7.036,16.742-9.104
						c6.546-2.235,13.141-3.96,19.579-6.554c11.611-4.68,23.262-9.208,34.776-14.131c10.578-4.521,20.041-6.583,31.163-9.505
						c5.584-1.469,11.201-2.786,16.626-4.77c5.95-2.174,11.552-5.189,17.311-7.845C922.405,299.013,918.577,291.371,913.563,290.94z
						"/>
				</g>
			</g>
			<g>
				<path fill="#C6876A" d="M549.383,566.722c-0.693-2.084-3.4-2.047-4.125-0.016c-1.52,4.259-3.789,8.036-5.369,12.201
					c-1.417,3.733-2.077,7.868-3.156,11.815c-8.031-4.182-17.442-0.522-22.977,6.94c3.436-4.635-1.043,1.074-1.975,2.12
					c-1.763,1.979-3.601,3.87-5.516,5.7c-1.997,1.907-4.111,3.689-6.256,5.427c-0.148,0.108-0.331,0.243-0.558,0.41
					c-1.378,1.021-2.792,1.993-4.21,2.958c-4.767,3.244-9.783,6.111-14.905,8.751c-2.821,1.453-5.707,2.777-8.615,4.047
					c-0.146,0.063-0.272,0.119-0.393,0.172c-0.22,0.083-0.523,0.201-0.938,0.364c-1.708,0.671-3.438,1.286-5.169,1.893
					c-5.53,1.933-11.23,3.531-16.926,4.896c-6.871,1.647-9.167,1.948-15.883,2.218c-4.451,0.18-10.844,0.337-14.226-0.141
					c-5.058-0.714-11.457-2.459-16.72-1.021c-2.978,0.813-4.563,3.744-3.927,6.69c1.327,6.157,7.049,10.688,13.616,13.782
					c-0.654,1.01-0.942,2.219-0.647,3.521c-0.356,0.983-0.558,2.009-0.567,3.085c-0.015,2.293,1.023,4.274,1.949,6.311
					c1.134,2.493,2.904,4.642,4.61,6.751c3.729,4.61,9.862,6.956,15.282,8.848c2.17,0.757,4.45,1.307,6.798,1.688
					c0.832,15.25,23.297,18.53,35.627,17.266c7.926-0.813,15.611-2.138,23.199-4.57c10.054-3.222,23.559-7.548,25.725-19.543
					c1.076-5.962,0.026-11.746-2.992-16.256c7.744-4.963,14.436-11.412,14.104-19.73c-0.192-4.811-2.069-9.198-5.284-12.349
					c4.557-3.805,8.694-7.965,12.256-12.485c3.231-4.106,5.059-8.974,4.822-13.723c0.802-2.058,1.548-4.097,2.262-6.059
					c1.933-5.314,3.25-10.831,4.168-16.404C553.282,577.331,550.941,571.408,549.383,566.722z"/>
				<path fill="#4B2E12" d="M501.202,617.308c5.11-3.854,10.406-7.471,15.729-11.023c0.018-0.012,0.034-0.022,0.052-0.034
					c0.126-0.73,0.234-1.456,0.321-2.172c0.853-7.046-0.551-15.603-2.586-22.394c-2.222-7.408-8.614-12.78-16.507-12.83
					c-7.569-0.048-15.9,6.004-17.144,13.803c-4.759,4.216-8.987,9.639-11.551,15.326c-3.304,2.74-5.014,6.385-6.71,10.716
					c-1.581,4.038-0.643,9.263,1.603,13.329c0.027,0.125,0.043,0.25,0.072,0.374c0.898,3.812,2.938,6.958,5.617,9.327
					c10.573-3.258,20.714-9.54,30.656-14.208C500.904,617.45,501.054,617.378,501.202,617.308z"/>
				
					<linearGradient id="SVGID_15_" gradientUnits="userSpaceOnUse" x1="234.8838" y1="470.6348" x2="253.2617" y2="752.847" gradientTransform="matrix(1 0 0 -1 214.3999 1117.0996)">
					<stop  offset="0" style="stop-color:#D4897F"/>
					<stop  offset="0.2098" style="stop-color:#D88F81"/>
					<stop  offset="0.4835" style="stop-color:#E29E82"/>
					<stop  offset="0.7915" style="stop-color:#F3B882"/>
					<stop  offset="0.8619" style="stop-color:#FDC384"/>
				</linearGradient>
				<path fill="url(#SVGID_15_)" d="M540.038,535.297c-6.973-6.883-13.453-6.034-22.198-5.863
					c-6.476,0.126-8.755-5.321-11.913-10.372c-2.939-4.702-3.584-8.912-2.438-14.344c2.371-11.238,6.477-22.797,9.874-33.796
					c-0.104-0.044-0.163-0.009-0.185,0.102c-0.028-3.448,6.255-13.189,7.574-16.653c1.88-4.935,3.787-9.887,5.421-14.91
					c3.733-11.492,5.959-23.443,5.483-35.566c-0.373-9.531-9.19-20.917-18.361-23.079c-11.509-2.712-22.262,6.231-28.993,14.635
					c-5.611,7.005-7.025,19.109-16.981,21.736c-2.343,0.616-4.822,0.393-7.225-1.138c-4.044-2.574-4.45-7.089-10.04-6.361
					c-3.299,0.429-7.657,3.53-10.271,5.56c-5.979,4.645-9.695,11.582-13.417,18.027c-1.222,2.875-2.381,5.758-3.401,8.684
					c0.089,0.171,0.169,0.342,0.266,0.512c5.657,9.896,15.129,18.033,15.663,30.176c0.414,9.401-4.169,17.786-8.174,25.963
					c-1.273,2.603-11.045,24.663-10.13,24.991c-4.697-1.688-9.607-2.93-14.79-3.592c-1.827-0.233-3.717-0.313-5.619-0.242
					c-3.169-0.563-6.458-0.603-9.809,0.006c-6.849,1.24-11.77,6.201-15.353,12.023c-1.412,1.714-2.777,3.521-3.964,5.401
					l-0.202,0.492c-0.096,0.104-0.236,0.295-0.43,0.583c-0.325,0.467-0.62,0.95-0.905,1.443
					c-14.303,24.751-1.935,57.214,14.467,77.391c17.284,21.266,47.749,29.268,73.204,19.205c8.084-3.196,15.859-9.181,16.738-18.331
					c0.45-4.681-0.445-9.406-0.563-14.085c-0.107-4.373-0.415-11.496,1.575-15.492c2.276-4.572,8.057-9.376,12.543-11.569
					c3.644-1.78,10.943-2.641,13.738,1.487c3.938,5.815,5.396,13.894,4.737,20.79c-0.319,3.345,0.014,12.313,6.138,9.189
					c2.645-1.35,4.403-3.958,7.162-4.784c4.906-1.469,9.055-1.244,13.092-4.977c3.324-3.073,6.074-7.472,7.711-11.687
					c3.518-9.056,4.605-18.916,6.255-28.431C547.807,549.84,546.515,541.688,540.038,535.297z"/>
				<g>
					<path fill="#AD6E69" d="M467.527,607.688c-7.122-1.854-15.7,0.214-23.022,0.492c-1.667,0.159-3.329,0.355-4.987,0.593
						c-0.457,0.062-0.771,0.104-0.977,0.131c-1.92,0.226-3.843,0.414-5.768,0.582c-3.996,0.349-7.822,0.084-11.802-0.362
						c-12.195-1.368-26.41-4.962-37.678-11.6c-2.382-1.402-4.966,0.915-4.46,3.415c3.534,17.461,19.701,25.178,35.288,29.971
						c7.756,2.386,16.098,3.868,24.06,5.458c4.923,0.983,9.923,1.187,14.924,1.369c4.52,0.165,10.048,0.875,14.317-0.699
						c6.479-2.388,11.309-7.308,11.354-14.607C478.82,615.643,474.115,609.402,467.527,607.688z"/>
					<path fill="#AD6E69" d="M528.245,578.896c-7.003,0.767-12.003,5.119-16.28,10.502c-2.703,3.4-9.47,11.745-4.179,15.981
						c4.795,3.839,10.573,0.971,15.219-1.701c5.505-3.166,11.858-7.813,13.183-14.374
						C537.137,584.603,533.871,578.281,528.245,578.896z"/>
					<path fill="#AD6E69" d="M439.511,560.459c0.36-6.031,2.662-12.172,4.297-17.726c1.853-6.294,6.004-10.472,9.1-16.07
						c3.005-5.436,5.089-12.011,7.096-17.879c2.156-6.314,3.53-12.794,3.729-19.479c0.11-3.752,0.197-7.793-0.341-11.516
						c-1.957-13.54-13.028-19.156-22.235-27.27c-4.323-3.809-3.704-8.459-1.323-13.381c1.56-3.227,3.707-6.406,5.962-9.175
						c0.896-1.1,1.839-2.136,2.82-3.156c0.918-0.954,1.044-2.415,1.889-3.425c0.148-0.18,0.072-0.549-0.216-0.52
						c-2.985,0.307-4.221,0.024-7.072,1.444c-2.943,1.465-5.573,3.588-8.063,5.708c-4.889,4.164-7.768,10.908-8.494,17.122
						c-1.479,12.658,8.31,19.356,13.354,29.286c1.484,2.922,1.915,10.333,1.226,14.406c-1.152,6.824-4.004,13.226-6.313,19.702
						c-2.359,6.617-5.179,13.155-6.231,20.135c-1.303,8.635-1.986,17.279,3.096,24.502c1.188,1.688,2.164,3.766,2.5,5.833
						c0.482,2.991,0.586,7.452,3.92,9.346c0.435,0.246,0.894,0.378,1.356,0.418c0.127-0.613,0.287-1.22,0.442-1.826
						C439.503,564.815,439.38,562.646,439.511,560.459z"/>
				</g>
				<path fill="#AD6E69" d="M502.877,537.479c-8.297-0.826-16.997,3.368-23.025,8.764c-0.488,0.438,0.042,1.109,0.587,1.019
					c6.103-1.03,12.858-0.824,18.951,0.132c2.99,0.469,5.771,0.818,8.459,2.31c2.81,1.561,3.911,4.324,5.911,6.718
					c2.86,3.423,7.594,0.266,7.945-3.301C522.7,543.048,510.916,538.279,502.877,537.479z"/>
			</g>
			<g id="Facial_Hair">
				<path fill="#4A2C12" d="M407.675,308.977c-6.729,1.76-12.175,4.195-16.2,6.882c-10.682,1.046-23.684,5.465-30.456,11.484
					c-2.207-0.045-4.678,0.125-7.363,0.536c-13.573,2.089-23.453,8.162-27.704,14.185c-0.115,0.165-0.222,0.328-0.334,0.492
					c-0.158-0.136-0.303-0.274-0.466-0.408c-6.33-5.187-30.54,0.37-34.594,9.052c-4.641,9.939-5.833,19.28-5.038,28.08
					c0.399,4.393,1.54,8.563,3.116,12.621c1.794,4.626,5.497,7.169,13.598,9.018c1.133,0.26,2.84,0.07,4.571-0.374
					c0.46,0.641,0.943,1.273,1.479,1.89c4.961,5.695,24.292,0.98,33.338-5.841c9.487,4.079,33.128-3.48,41.081-11.423
					c2.126-2.124,3.918-4.213,5.452-6.271c13.748,0.332,35.254-8.554,39.3-16.572c9.05-17.937,5.987-33.526,6.573-49.691
					C434.238,306.833,420.85,305.529,407.675,308.977z"/>
				<path fill="#4A2C12" d="M656.155,320.346c-9.092-4.95-24.456-6.808-30.852-2.544c-0.977,0.652-1.827,1.313-2.621,1.979
					c-1.925-9.364-28.015-18.085-38.981-11.679c-7.94-5.509-23.037-8.45-31.301-4.263c-3.755,1.902-6.668,4.105-8.981,6.517
					c-7.684-5.944-24.155-8.264-31.036-2.496c-8.285,6.944-14.597,14.682-18.503,23.16c-3.688,8.004-6.109,18.508,1.038,27.825
					c2.738,3.57,11.985,6.125,15.976,3.561c0.242-0.155,0.458-0.319,0.688-0.478c0.594,0.734,1.213,1.473,1.891,2.21
					c6.059,6.617,18.703,11.178,29.49,8.708c3.224-0.739,6.084-1.652,8.675-2.692c7.284,3.896,18.407,5.796,25.424,3.922
					c4.853-1.296,8.801-3.009,12.111-5.009c2.505,1.551,5.398,3.019,8.769,4.373c13.581,5.452,26.883,4.051,36.245,0.539
					c7.015-2.631,10.825-8.042,13.986-12.407c3.482-4.808,6.159-9.884,8.935-14.913c1.268-2.292,2.562-4.577,3.899-6.848
					c0.957-1.625,2.018-3.224,2.646-4.944c0.063-0.167,0.136-0.333,0.206-0.5C666.288,329.992,664.228,324.739,656.155,320.346z"/>
				<path fill="#4A2C12" d="M596.491,684.77c-2.19-9.14-7.88-17.654-14.327-25.285c-2.321-6.814-5.032-13.483-8.309-19.887
					c-1.896-3.706-5.506-5.313-9.155-5.263c-0.781-1.152-1.579-2.293-2.401-3.416c-3.271-4.468-8.692-6.716-13.882-3.72
					c-3.163,1.826-4.892,5.07-5.001,8.451c-0.35,0.199-0.685,0.423-1.004,0.669c-4.989-3.24-12.288-0.906-13.563,5.411
					c-0.645,0.569-1.203,1.23-1.646,1.978c-3.823-3.113-9.315-2.238-12.388,2.197c-0.984,1.422-1.699,2.903-2.242,4.43
					c-0.648,0.078-1.289,0.192-1.904,0.383c-0.81-0.229-1.68-0.366-2.62-0.372c-4.013-0.025-8.222,2.896-9.403,6.821
					c-4.229-1.916-9.788-0.869-12.336,3.173c-2.007-1.055-4.271-1.336-6.386-0.879c-2.579-7.318-13.191-8.107-17.023-2.251
					c-1.604,0.56-2.991,1.592-3.921,3.131c-0.03-0.43-0.055-0.86-0.096-1.29c-0.896-9.415-12.561-12.523-17.229-5.163
					c-1.334-0.144-2.682-0.029-3.942,0.359c-0.327-0.216-0.673-0.407-1.028-0.581c1.257-3.216,0.895-6.78-1.903-9.541
					c-3.274-3.231-9.502-3.633-12.659,0.091c-1.994,2.352-3.971,4.69-5.906,7.044c-2.203-3.614-6.739-5.507-11.219-3.738
					c0.014-3.88-0.715-7.779-2.488-11.647c-2.051-4.475-8.657-5.88-12.638-3.386c-3.786,2.373-6.958,5.248-9.722,8.465
					c-1.23-0.102-2.464,0.154-3.521,0.844c0.017-0.424,0.039-0.846,0.05-1.27c0.151-5.786-9.19-7.246-10.184-1.368
					c-2.756,16.312-9.17,31.636-12.666,47.786c-0.493,2.279-0.003,4.405,1.075,6.109c-1.042,5.504,3.521,10.605,8.722,11.519
					c0.009,7.488,10.353,10.265,15.546,5.874c0.147,1.622,0.38,3.26,0.727,4.921c1.283,6.147,8.658,8.571,13.8,5.772
					c0.738-0.402,1.444-0.837,2.127-1.294c0.866,1.109,1.908,2.045,3.025,2.681c2.167,1.233,4.476,1.566,6.685,1.186
					c0.176,0.077,0.346,0.166,0.525,0.232c0.38,0.186,0.77,0.344,1.17,0.477c0.121,2.473,0.363,4.948,0.753,7.424
					c0.889,5.645,9.022,9.084,13.671,5.72c0.705-0.511,1.378-1.051,2.03-1.607c2.952,1.18,6.677,0.68,9.541-1.119
					c1.575,0.927,3.342,1.492,5.069,1.563c3.119,4.298,8.771,5.84,13.015,2.859c3.555,2.44,8.353,1.802,12.356-0.236
					c2.899,2.031,6.175,3.453,9.816,3.883c3.035,0.357,6.218-0.688,8.735-2.559c0.912-0.443,1.777-1.002,2.556-1.67
					c0.209-0.179,0.391-0.367,0.592-0.549c1.167,1.142,2.459,2.204,3.899,3.171c4.019,2.695,9.049,1.012,12.016-2.267
					c4.193,1.435,9.235-0.197,11.556-4.28c0.682-1.198,1.273-2.413,1.807-3.638c1.541-0.052,3.037-0.497,4.395-1.263
					c1.453-0.317,2.801-0.818,4.035-1.469c3.121,0.567,6.359,0.062,9.174-1.775c2.395-1.563,4.174-3.606,5.48-5.925
					c1.774,0.083,3.604-0.018,5.471-0.313c1.289-0.203,2.404-0.624,3.36-1.205c2.896-0.278,5.774-1.625,7.736-3.696
					c2.075,0.087,4.159-0.327,5.931-1.261c3.417,0.375,7.182-0.98,9.688-3.4c3.345-0.07,6.521-1.83,8.546-4.564
					c2.959-0.256,5.819-1.649,7.875-3.717c1.545-1.287,2.81-2.958,3.597-4.84C594.486,695.503,597.731,689.946,596.491,684.77z"/>
				<path fill="#4A2C12" d="M534.172,909.194c-4.248-4.857-13.063-6.963-20.904-5.459c-4.487-6.979-19.786-10.789-28.25-3.992
					c-2.237,1.796-4.142,3.673-5.753,5.627c-0.433-0.438-0.861-0.876-1.311-1.304c-5.176-4.964-14.504-7.243-22.887-4.048
					c-3.985,1.518-6.339,3.672-7.388,6.095c-5.771-1.354-12.681,2.683-10.708,6.745c0.679,1.4,0.457,2.777,1.024,4.211
					c0.783,1.982,2.508,4.217,3.961,6.037c2.598,3.254,5.921,6.24,9.166,9.218c6.926,6.353,14.715,12.3,22.092,18.425
					c3.693,3.064,10.867,3.659,16.44,2.511c0.102,0.019,0.199,0.043,0.304,0.062c9.461,1.676,18.552-2.154,21.379-8.148
					c0.453-0.963,0.938-1.915,1.445-2.868c0.058-0.105,0.123-0.212,0.182-0.317c0.16-0.257,0.791-1.313,0.986-1.605
					c1.805-2.715,3.86-5.354,6.059-7.937c0.854-1.004,1.768-1.983,2.693-2.959c0.386-0.408,1.933-1.816,2.493-2.358
					c0.661-0.507,1.344-1.002,2.058-1.473c0.085-0.028,0.175-0.06,0.275-0.093C536.285,922.511,538.975,914.685,534.172,909.194z"/>
			</g>
			<g id="Mouth_1_">
				<radialGradient id="Mouth_6_" cx="502.4463" cy="776.5381" r="167.8772" gradientUnits="userSpaceOnUse">
					<stop  offset="0" style="stop-color:#341211"/>
					<stop  offset="0.3233" style="stop-color:#391311"/>
					<stop  offset="0.8114" style="stop-color:#48170E"/>
					<stop  offset="1" style="stop-color:#4E1A0D"/>
				</radialGradient>
				<path id="Mouth" fill="url(#Mouth_6_)" d="M704.28,692.483c27.708,23.531,16.841,80.785-1.782,103.739
					c-35.931,44.288-102.25,51.047-156.336,61.545c-54.74,10.625-114.705,17.007-169.293,4.224
					c-35.5-8.313-61.229-19.65-83.121-49.491c-17.293-23.57-9.135-67.665,2.736-94.543c10.412-23.574,29.279-26.357,50.705-14.777
					c29.666,16.033,54.91,37.674,88.066,46.959c61.766,17.296,128.629-10.086,179.127-46.565
					C629.119,692.928,680.58,672.354,704.28,692.483z"/>
				<g id="Teeth_2_">
					<linearGradient id="SVGID_17_" gradientUnits="userSpaceOnUse" x1="343.4209" y1="758.334" x2="428.1348" y2="758.334">
						<stop  offset="0" style="stop-color:#CCBD90"/>
						<stop  offset="0.0641" style="stop-color:#CEC094"/>
						<stop  offset="0.3348" style="stop-color:#D6CAA5"/>
						<stop  offset="0.5105" style="stop-color:#DCD1AD"/>
						<stop  offset="0.6546" style="stop-color:#DAD0AA"/>
						<stop  offset="0.8117" style="stop-color:#D4CCA0"/>
						<stop  offset="0.9745" style="stop-color:#CFC692"/>
						<stop  offset="1" style="stop-color:#CDC690"/>
					</linearGradient>
					<path fill="url(#SVGID_17_)" d="M428.09,757.309c-0.203-12.493-5.572-11.282-19.661-18.323
						c-10-4.996-22.089-4.048-30.368-10.834c-3.453-2.831-5.764-3.725-8.784-6.745c-4.803-4.805-12.927,0.616-10.512,6.932
						c-6.794,8.335-14.927,21.345-15.315,32.337c-0.956,27.082,22.837,28.945,47.004,34.984c5.254,1.313,10.822,1.903,16.199,1.025
						c4.014-0.656,13.359-2.245,16.134-5.229c3.103-2.426,3.171-11.639,3.983-15.41C428.093,769.904,428.192,763.563,428.09,757.309
						C427.995,751.46,428.229,765.793,428.09,757.309z"/>
					<linearGradient id="SVGID_18_" gradientUnits="userSpaceOnUse" x1="425.7705" y1="777.5234" x2="505.6327" y2="777.5234">
						<stop  offset="0" style="stop-color:#CCBD90"/>
						<stop  offset="0.0641" style="stop-color:#CEC094"/>
						<stop  offset="0.3348" style="stop-color:#D6CAA5"/>
						<stop  offset="0.5105" style="stop-color:#DCD1AD"/>
						<stop  offset="0.6546" style="stop-color:#DAD0AA"/>
						<stop  offset="0.8117" style="stop-color:#D4CCA0"/>
						<stop  offset="0.9745" style="stop-color:#CFC692"/>
						<stop  offset="1" style="stop-color:#CDC690"/>
					</linearGradient>
					<path fill="url(#SVGID_18_)" d="M500.652,759.369c-4.383-6.782-15.067-2.704-21.52-2.743
						c-10.092-0.062-19.752,0.408-29.883,0.494c-5.467,0.047-15.15-12.907-19.277-5.039c-3.75,7.146-5.053,24.605-3.655,32.587
						c1.837,10.49,9.245,17.009,19.661,18.229c11.161,1.31,23.083,2.562,34.314,2.604c10.058,0.04,17.516-5.016,21.369-14.327
						C504.969,783.185,505.598,767.026,500.652,759.369C500.478,759.099,502.488,762.212,500.652,759.369z"/>
					<linearGradient id="SVGID_20_" gradientUnits="userSpaceOnUse" x1="502.957" y1="766.7402" x2="584.3877" y2="766.7402">
						<stop  offset="0" style="stop-color:#CCBD90"/>
						<stop  offset="0.0641" style="stop-color:#CEC094"/>
						<stop  offset="0.3348" style="stop-color:#D6CAA5"/>
						<stop  offset="0.5105" style="stop-color:#DCD1AD"/>
						<stop  offset="0.6546" style="stop-color:#DAD0AA"/>
						<stop  offset="0.8117" style="stop-color:#D4CCA0"/>
						<stop  offset="0.9745" style="stop-color:#CFC692"/>
						<stop  offset="1" style="stop-color:#CDC690"/>
					</linearGradient>
					<path fill="url(#SVGID_20_)" d="M580.422,749.438c-1.203-3.377-5.051-12.577-5.146-13.41
						c-1.159-10.158-18.199,0.186-23.281,1.791c-10.893,3.441-20.659,7.76-30.933,12.663c-9.105,4.345-18.375,3.829-18.1,16.161
						c0.182,8.146,0.749,16.946,5.006,24.132c10.822,18.267,41.278,9.827,57.209,3.792
						C586.996,786.299,587.293,768.763,580.422,749.438C579.561,747.019,582.674,755.771,580.422,749.438z"/>
					<linearGradient id="SVGID_21_" gradientUnits="userSpaceOnUse" x1="570.0479" y1="813.0879" x2="637.9805" y2="813.0879">
						<stop  offset="0" style="stop-color:#CCBD90"/>
						<stop  offset="0.0641" style="stop-color:#CEC094"/>
						<stop  offset="0.3348" style="stop-color:#D6CAA5"/>
						<stop  offset="0.5105" style="stop-color:#DCD1AD"/>
						<stop  offset="0.6546" style="stop-color:#DAD0AA"/>
						<stop  offset="0.8117" style="stop-color:#D4CCA0"/>
						<stop  offset="0.9745" style="stop-color:#CFC692"/>
						<stop  offset="1" style="stop-color:#CDC690"/>
					</linearGradient>
					<path fill="url(#SVGID_21_)" d="M620.848,837.55c-7.26,2.88-19.83,12.101-27.54,10.62c-8.189-1.57-15.27,1.15-19.479-9.46
						c-1.72-4.35-2.03-9.09-2.04-13.72c0-5.32-1.75-9.641-1.74-15.021c0-2.399,3.41-9.79,4.75-12.16c1.82-3.199,5.04-5.42,8.22-7.09
						c8.301-4.35,17.82-5.5,26.471-8.989c7.54-3.051,20.41-8.811,21.67,4.569c1.09,11.49,5.37,25.891,3.46,37.271
						C646.038,831.74,625.048,835.89,620.848,837.55z"/>
					<linearGradient id="SVGID_23_" gradientUnits="userSpaceOnUse" x1="507.8672" y1="827.75" x2="573.0322" y2="827.75">
						<stop  offset="0" style="stop-color:#CCBD90"/>
						<stop  offset="0.0641" style="stop-color:#CEC094"/>
						<stop  offset="0.3348" style="stop-color:#D6CAA5"/>
						<stop  offset="0.5105" style="stop-color:#DCD1AD"/>
						<stop  offset="0.6546" style="stop-color:#DAD0AA"/>
						<stop  offset="0.8117" style="stop-color:#D4CCA0"/>
						<stop  offset="0.9745" style="stop-color:#CFC692"/>
						<stop  offset="1" style="stop-color:#CDC690"/>
					</linearGradient>
					<path fill="url(#SVGID_23_)" d="M572.758,841.846c-1.646-9.148-4.497-18.966-2.221-28.258
						c1.887-7.699,3.081-14.559-7.283-14.98c-7.265-3.401-22.91,2.915-30.688,3.872c-6.751,0.83-21.38-1.499-24.057,7.538
						c-0.794,2.68-0.356,9.89,0.774,12.509c-1.878,4.757-1.487,9.995-1.075,14.969c0.957,11.559-1.104,20.515,13.573,20.387
						C532.138,857.792,575.932,859.481,572.758,841.846C571.069,832.457,573.885,848.107,572.758,841.846z"/>
					<linearGradient id="SVGID_24_" gradientUnits="userSpaceOnUse" x1="432.8154" y1="831.8379" x2="507.0469" y2="831.8379">
						<stop  offset="0" style="stop-color:#CCBD90"/>
						<stop  offset="0.0641" style="stop-color:#CEC094"/>
						<stop  offset="0.3348" style="stop-color:#D6CAA5"/>
						<stop  offset="0.5105" style="stop-color:#DCD1AD"/>
						<stop  offset="0.6546" style="stop-color:#DAD0AA"/>
						<stop  offset="0.8117" style="stop-color:#D4CCA0"/>
						<stop  offset="0.9745" style="stop-color:#CFC692"/>
						<stop  offset="1" style="stop-color:#CDC690"/>
					</linearGradient>
					<path fill="url(#SVGID_24_)" d="M478.522,803.539c-6.569,0.07-12.163,1.308-18.556,2.17c-5.484-0.274-10.387-4.36-15.768-3.562
						c-12.009,1.782-11.896,31.59-11.057,40.866c0.48,5.306,1.764,14.431,6.485,17.854c3.713,2.691,5.414-2.447,10.159-4.303
						c7.469-2.92,14.102,3.951,20.968,2.299c8.823-2.122,16.837,0.364,25.69,0.53c9.978,0.187,9.528-9.628,9.194-16.557
						c-0.272-5.648-0.817-11.273-0.067-16.881c0.487-3.64-0.356-6.56,0.799-10.403C511.404,798.813,486.966,803.449,478.522,803.539
						z"/>
					<linearGradient id="SVGID_26_" gradientUnits="userSpaceOnUse" x1="351.5361" y1="829.0869" x2="437.0195" y2="829.0869">
						<stop  offset="0" style="stop-color:#CCBD90"/>
						<stop  offset="0.0641" style="stop-color:#CEC094"/>
						<stop  offset="0.3348" style="stop-color:#D6CAA5"/>
						<stop  offset="0.5105" style="stop-color:#DCD1AD"/>
						<stop  offset="0.6546" style="stop-color:#DAD0AA"/>
						<stop  offset="0.8117" style="stop-color:#D4CCA0"/>
						<stop  offset="0.9745" style="stop-color:#CFC692"/>
						<stop  offset="1" style="stop-color:#CDC690"/>
					</linearGradient>
					<path fill="url(#SVGID_26_)" d="M436.953,856.054c-0.964-12.682-3.979-25.661-4.834-37.794
						c-0.266-3.787,1.758-9.864-2.221-12.641c-4.365-3.046-7.887-7.36-13.492-8.931c-12.678-3.551-26.284-0.085-39.207-2.247
						c-6.355-1.063-29.655-10.069-25.07,7.422c1.259,4.805,3.254,9.61,6.423,13.486c3.596,4.396,0.414,10.524,1.026,16.699
						c0.85,8.588-1.4,26.209,10.199,27.796c5.318,0.728,8.494,0.049,14.083,1.834c6.993,2.233,14.188,3.293,21.449,4.198
						C413.322,866.875,438.039,870.402,436.953,856.054C436.254,846.852,437.281,860.388,436.953,856.054z"/>
					<linearGradient id="SVGID_27_" gradientUnits="userSpaceOnUse" x1="574.7617" y1="746.4941" x2="650.0703" y2="746.4941">
						<stop  offset="0" style="stop-color:#CCBD90"/>
						<stop  offset="0.0641" style="stop-color:#CEC094"/>
						<stop  offset="0.3348" style="stop-color:#D6CAA5"/>
						<stop  offset="0.5105" style="stop-color:#DCD1AD"/>
						<stop  offset="0.6546" style="stop-color:#DAD0AA"/>
						<stop  offset="0.8117" style="stop-color:#D4CCA0"/>
						<stop  offset="0.9745" style="stop-color:#CFC692"/>
						<stop  offset="1" style="stop-color:#CDC690"/>
					</linearGradient>
					<path fill="url(#SVGID_27_)" d="M642.566,727.741c-4.729-6.398-10.194-13.679-17.805-16.789
						c-3.462-1.415-7.687-1.51-10.149,1.838c-5.152,0.03-9.939,2.257-14.364,4.671c-6.639,3.623-18.475,5.387-23.347,11.151
						c-6.575,7.78,3.828,17.438,6.765,24.565c3.269,7.933,1.57,21.765,8.5,27.823c7.408,6.478,21.178-4.879,28.056-8.114
						C638.786,764.157,662.367,754.535,642.566,727.741C637.671,721.116,647.494,734.409,642.566,727.741z"/>
				</g>
				<path id="Lips" fill="#A03522" d="M725.758,725.97c-0.948-6.303-2.568-12.452-4.987-18.28
					c-5.864-14.128-18.435-21.129-32.853-24.209c-13.617-2.909-26.615-4.041-40.446-2.219c-11.388,1.5-22.616,4.92-33.035,9.73
					c-9.764,4.508-18.349,11.734-28.384,15.532c-15.734,5.955-31.249,12.521-46.307,20.035
					c-13.525,6.748-26.614,15.428-41.634,18.462c-14.305,2.89-28.427-1.357-42.298-4.477c-34.59-7.779-63.451-27.835-96.983-37.877
					c-19.863-5.949-40.984-12.721-59.853,0.777c-15.938,11.402-23.322,31.642-24.181,50.607
					c-0.629,13.889,0.675,26.432,5.264,39.544c2.206,6.304,4.561,12.561,7.269,18.667c5.05,11.387,11.325,22.345,19.818,31.532
					c18.143,19.626,43.957,27.149,69.794,29.929c37.885,4.074,74.28-0.52,112.074-2.607c21.055-1.163,42.159-1.191,63.198-2.666
					c46.765-3.278,87.555-19.655,127.737-43.125c9.718-5.677,20.134-11.018,27.434-19.83c7.134-8.612,11.191-19.026,14.239-29.67
					C726.101,760.196,728.254,742.553,725.758,725.97z M687.531,784.747c-16.304,20.414-37.412,36.279-60.963,47.411
					c-25.803,12.198-54.942,16.689-83.23,17.986c-25.433,1.167-50.809,1.284-76.219,3.233c-24.845,1.906-50.175,5.587-75.099,3.21
					c-20.689-1.973-43.637-6.695-60.708-19.146c-8.281-6.039-14.998-13.831-20.59-22.372c-5.443-8.314-13.026-19.368-15.488-29.06
					c-6.654-26.185,3.155-68.066,36.394-68.791c12.358-0.27,24.779,4.125,36.02,8.855c36.593,15.4,75.736,36.214,116.36,36.89
					c17.918,0.298,35.707-4.813,52.058-11.668c15.484-6.491,28.222-17.484,43.488-24.047c18.39-7.906,39.015-15.098,58.672-18.97
					c16.341-3.22,39.366-3.159,54.579,4.841c9.188,4.832,16.186,20.424,15.521,30.256
					C707.333,758.09,696.432,773.603,687.531,784.747z"/>
			</g>
		</g>
		<g id="Lines_2_">
			<g id="Head_2_">
				<g>
					<g>
						<g>
							<path fill="#B18B64" d="M759.255,474.159c-6.334,5.194-4.298,18.722-3.867,25.693c0.734,11.949,1.898,23.626,1.918,35.618
								c0.026,16.663-0.553,33.156-5.168,49.277c-4.965,17.343-14.33,32.902-21.905,49.146c-1.354,2.902,2.955,5.443,4.316,2.523
								c7.058-15.133,15.305-29.618,20.845-45.425c5.304-15.129,6.648-31.098,6.875-47.018c0.177-12.419-0.232-24.551-1.322-36.904
								c-0.519-5.873-0.938-11.761-0.881-17.66c0.033-3.426-0.234-9.292,2.725-11.719
								C765.284,475.648,761.726,472.133,759.255,474.159L759.255,474.159z"/>
						</g>
					</g>
					<g>
						<g>
							<path fill="#B18B64" d="M228.277,506.152c2.229,5.617,7.107,9.359,8.862,15.221c1.562,5.213,2.502,10.614,3.363,15.978
								c2.031,12.646,3.061,25.447,4.292,38.188c0.875,9.066,1.52,18.324,3.948,27.137c3.658,13.275,14.66,24.745,24.098,34.25
								c2.273,2.29,5.809-1.246,3.535-3.535c-9.71-9.779-19.981-20.894-23.5-34.57c-2.361-9.179-2.682-19.061-3.579-28.457
								c-1.137-11.896-2.281-23.803-4.177-35.605c-0.795-4.954-1.79-9.883-3.16-14.712c-1.714-6.039-6.632-9.602-8.862-15.221
								C231.925,501.863,227.087,503.152,228.277,506.152L228.277,506.152z"/>
						</g>
					</g>
					<g display="none">
						<g display="inline">
							<path fill="#B18B64" d="M627.189,754.494c19.305,13.532,35.484,30.764,43.2,53.401c7.319,21.476,6.76,45.561,2.838,67.667
								c-3.287,18.529-10.521,36.182-22.534,50.771c-12.92,15.692-30.437,26.748-48.646,35.323
								c-52.304,24.629-111.072,26.432-167.617,19.984c-47.457-5.409-97.333-21.874-125.983-62.594
								c-36.11-51.325-24.421-120.836,0.498-174.117c1.357-2.901-2.952-5.442-4.316-2.523
								c-24.11,51.554-35.331,114.322-7.912,166.978c21.849,41.959,66.75,64.146,111.346,73.264
								c26.704,5.46,54.569,7.302,81.78,7.204c28.542-0.104,57.337-3.431,84.623-12.031c38.248-12.057,76.891-33.337,94.41-71.148
								c11.699-25.253,14.547-56.006,10.391-83.306c-4.773-31.361-24.137-55.376-49.55-73.188
								C627.065,748.321,624.57,752.659,627.189,754.494L627.189,754.494z"/>
						</g>
					</g>
				</g>
				
					<path fill="none" stroke="#B18B64" stroke-width="5" stroke-linecap="round" stroke-linejoin="round" stroke-miterlimit="10" d="
					M286.665,631.667c-46.853,16.909-86.355,79.897-96.142,136.283c-12.601,72.603,57.14,140.472,112.014,175.289
					c92.737,58.843,209.896,70.032,314.124,38.186c87.373-26.697,191.284-91.024,214.686-186.231
					c22.952-93.385-67.93-143.986-137-181.352c0.533,1.451,1.644,1.949,3.332,1.495"/>
				<g id="Ears_2_">
					<g>
						<g>
							<path fill="#A07E5B" d="M756.872,570.976c4.93,3.085,11.638,3.947,17.26,4.771c6.779,0.995,14.954,1.877,21.447-0.907
								c10.745-4.608,25.134-12.49,26.828-25.402c1.2-9.135-6.109-17.886-10.722-25.008c-6.253-9.656-10.734-20.063-5.755-31.349
								c1.288-2.921-3.02-5.468-4.318-2.522c-4.304,9.755-3.399,19.282,1.258,28.709c4.059,8.21,10.846,15.162,13.796,23.903
								c3.948,11.701-8.358,19.315-17.056,24.101c-7.438,4.092-13.91,4.725-22.28,3.881c-5.633-0.566-13.011-1.412-17.935-4.495
								C756.654,564.94,754.146,569.269,756.872,570.976L756.872,570.976z"/>
						</g>
					</g>
					<g>
						<g>
							<path fill="#A07E5B" d="M244.785,586.171c-14.155,0.093-29.657,4.299-43.4-0.485c-7.886-2.745-12.032-10.068-14.189-17.68
								c-2.85-10.055-2.075-18.412,0.953-28.329c2.606-8.533,5.29-16.821,5.307-25.842c0.017-9.459-4.811-18.146-9.194-26.223
								c-9.658-17.793-14.335-38.403,1.973-54.04c2.332-2.234-1.209-5.766-3.534-3.535c-14.691,14.084-15.041,33.839-7.129,51.564
								c4.728,10.589,12.47,20.198,12.886,32.232c0.373,10.782-4.427,20.859-6.978,31.118c-3.849,15.484,0.558,36.989,16.125,44.535
								c14.245,6.904,32.11,1.78,47.183,1.683C248.008,591.148,248.01,586.148,244.785,586.171L244.785,586.171z"/>
						</g>
					</g>
				</g>
				<g id="Nose_2_">
					<g>
						<g>
							<path fill="#A37358" d="M444.018,414.902c-7.694,6.352-14.611,12.267-19.554,21.079c-2.551,4.548-4.155,10.318-1.706,15.248
								c2.245,4.517,6.565,7.424,10.411,10.473c5.305,4.208,9.52,8.917,11.206,15.634c0.784,3.126,5.606,1.799,4.82-1.329
								c-2.86-11.397-11.761-16.083-19.547-23.72c-4.215-4.134-3.385-8.884-0.867-13.781c4.371-8.501,11.563-14.115,18.771-20.067
								C450.041,416.383,446.482,412.867,444.018,414.902L444.018,414.902z"/>
						</g>
					</g>
					<g>
						<g>
							<path fill="#A37358" d="M446.018,493.902c-6.112,5.418-6.455,12.908-10.391,19.506c-3.606,6.045-8.468,11.338-11.319,17.832
								c-5.552,12.646,4.557,27.024,10.319,37.691c1.542,2.854,5.743,0.341,4.316-2.523c-7.64-15.337-15.012-32.008-28.136-43.546
								c-13.24-11.638-32.087-9.427-40.917,6.426c-9.438,16.94-4.486,40.232-0.452,58.016c3.769,16.608,10.552,31.495,24.928,41.455
								c27.744,19.222,67.471,9.833,95.392-3.776c28.064-13.68,53.949-37.768,55.418-70.906c0.315-7.133-1.339-14.867-6.838-19.808
								c-7.012-6.297-17.603-5.074-25.987-2.974c0.642,1.522,1.285,3.047,1.926,4.568c2.948-2.174,3.516-5.714,5.775-8.426
								c2.05-2.457-1.468-6.015-3.535-3.535c-1.768,2.119-2.604,6.052-4.764,7.646c-2.206,1.626-0.976,5.296,1.927,4.568
								c7.484-1.876,16.827-3.142,22.611,3.161c4.541,4.948,4.323,13.272,3.488,19.445c-2.113,15.617-10.057,29.748-21.271,40.598
								c-24.144,23.354-62.059,38.264-95.713,34.425c-16.404-1.87-31.233-10.138-40.013-24.296
								c-4.88-7.872-7.031-16.756-9.021-25.689c-2.313-10.391-3.968-20.967-3.874-31.636c0.087-9.921,2.203-20.497,9.925-27.346
								c7.293-6.468,17.156-5.552,24.755-0.474c14.544,9.72,22.245,28.847,29.72,43.947c0.112,0.227,0.226,0.452,0.338,0.68
								c1.438-0.841,2.878-1.684,4.316-2.523c-5.338-9.882-15.19-23.227-9.316-34.753c2.828-5.552,6.858-10.562,10.316-15.724
								c4.018-5.996,3.841-13.38,9.609-18.494C451.97,495.296,448.421,491.771,446.018,493.902L446.018,493.902z"/>
						</g>
					</g>
					<g>
						<g>
							<path fill="#A37358" d="M512.625,467.408c-0.779,1.543-1.509,3.143-2.608,4.494c1.393,0.812,2.786,1.622,4.179,2.432
								c9.215-23.74,17.596-50.923,11.365-76.455c-6.723-27.547-38.643-48.065-66.441-39.62c-3.076,0.936-1.764,5.762,1.329,4.821
								c15.633-4.75,32.749,1.232,44.981,11.368c8.936,7.404,14.118,17.763,16.229,29.032c4.351,23.218-3.979,48.131-12.285,69.524
								c-0.891,2.295,2.626,4.341,4.179,2.432c1.393-1.712,2.395-3.534,3.391-5.506C518.394,467.063,514.08,464.53,512.625,467.408
								L512.625,467.408z"/>
						</g>
					</g>
					<g>
						<g>
							<path fill="#A37358" d="M509.401,611.982c-0.026-9.971,0.436-43.033-17.335-38.491c-4.57,1.168-8.438,4.979-11.604,8.245
								c-4.149,4.283-9.264,9.621-10.687,15.564c-2.319,9.686,0.958,24.063,7.756,31.428c2.191,2.374,5.718-1.171,3.535-3.535
								c-5.675-6.146-7.344-17.187-6.689-25.199c0.44-5.409,5.256-9.854,8.652-13.678c2.828-3.184,6.22-6.642,10.365-8.004
								c11.398-3.744,10.991,28.151,11.005,33.67C504.41,615.206,509.41,615.207,509.401,611.982L509.401,611.982z"/>
						</g>
					</g>
				</g>
				<g id="Eyes_8_">
					<g>
						<g>
							<path fill="#D6D1A7" d="M565.448,468.502C556.727,463,547.563,455.063,546.973,444c-0.483-9.037,6.252-16.308,13.373-20.823
								c19.2-12.179,45.266-9.848,64.083,1.605c11.563,7.039,29.09,24.563,19.651,39.308c-5.732,8.956-19.498,10.085-28.864,11.082
								c-15.269,1.624-30.683,0.343-45.187-4.816C568.481,469.788,566.955,469.171,565.448,468.502
								c-2.927-1.268-5.476,3.038-2.522,4.316c13.299,5.759,27.299,8.153,41.754,7.989c11.494-0.13,24.431-1.136,34.837-6.425
								c14.225-7.229,14.317-22.972,6.823-35.244c-9.676-15.844-28.353-25.871-46.345-28.425
								c-18.676-2.65-42.439,2.665-53.76,18.979c-11.651,16.795,2.463,34.154,16.689,43.125
								C565.661,474.545,568.168,470.217,565.448,468.502z"/>
						</g>
					</g>
					<g>
						<g>
							<path fill="#D6D1A7" d="M339.651,503.055c21.105-3.86,44.414-15.426,48.201-38.749c3.152-19.409-18.375-28.899-33.568-33.626
								c-10.193-3.172-21.397-4.57-31.892-2.15c-10.021,2.313-18.541,9.858-24.939,17.546c-5.835,7.011-11.175,15.881-12.37,25.085
								c-1.145,8.809,3.972,15.602,10.617,20.847C307.872,501.615,324.472,505.345,339.651,503.055
								c3.181-0.479,1.824-5.297-1.329-4.821c-12.594,1.9-25.484-1.207-36.27-7.84c-7.991-4.915-13.791-11.889-11.45-21.508
								c2.342-9.624,8.888-18.4,15.849-25.199c7.855-7.672,17.112-11.521,28.073-11.377c10.895,0.142,21.95,3.645,31.646,8.429
								c6.952,3.432,14.941,8.26,16.759,16.361c2.121,9.457-4.482,19.803-10.77,26.146c-8.522,8.603-22.185,12.854-33.839,14.986
								C335.153,498.813,336.5,503.631,339.651,503.055z"/>
						</g>
					</g>
					<g id="Pupils_2_">
						<g>
							<g>
								<path fill="#11141E" d="M589.495,439.166c0-0.225,0.062-1.312,0.015-1.042c0.09-0.52,0.004,0.066-0.235,0.154
									c2.155-0.799,5.39,0.001,7.556,0.299c-0.582-1.024-1.164-2.05-1.745-3.074c-0.499,1.5-0.999,3-1.499,4.5
									c0.582-0.582,1.164-1.164,1.745-1.746c-2.935,0.424-6.313,0.613-8.904,2.226c-2.266,1.408-3.854,4.043-5.697,5.917
									c-2.118,2.151,0.545,5.028,3.029,3.926c4.384-1.943,9.809-1.335,14.401-2.748c-0.94-1.224-1.883-2.447-2.824-3.672
									c-0.998,1.5-1.998,3-2.997,4.5c1.14-0.299,2.279-0.598,3.42-0.896c-1.216-0.54-5.679-2.046-5.313-3.969
									c0.406-2.143,2.227-4.197,3.21-6.109c1.476-2.861-2.84-5.392-4.315-2.523c-1.473,2.855-3.619,5.479-3.917,8.773
									c-0.387,4.261,4.661,6.746,7.813,8.146c1.305,0.58,2.602,0.333,3.42-0.896c1-1.5,2-3,3-4.5
									c1.222-1.833-0.789-4.298-2.824-3.672c-5.083,1.563-10.703,1.083-15.596,3.251c1.01,1.309,2.021,2.618,3.029,3.926
									c1.621-1.647,2.982-3.601,4.694-5.148c1.614-1.459,5.679-1.416,7.702-1.708c0.862-0.125,1.493-0.988,1.746-1.746
									c0.499-1.5,0.999-3,1.499-4.5c0.39-1.168-0.441-2.896-1.746-3.074c-5.433-0.748-13.651-2.293-13.664,5.41
									C584.49,442.392,589.49,442.391,589.495,439.166L589.495,439.166z"/>
							</g>
						</g>
						<g>
							<g>
								<path fill="#11141E" d="M333.973,462.741c0.061-0.437,0.125-0.87,0.22-1.301c0.118-0.538-0.635,0.181-0.064,0.023
									c2.14-0.592,5.576,0.908,7.577,1.465c-0.498-1.225-0.996-2.448-1.493-3.672c-0.697,1.419-1.395,2.838-2.092,4.257
									c0.721-0.413,1.439-0.826,2.159-1.238c-3.258,0.028-6.695-0.161-9.74,1.167c-2.378,1.038-4.393,3.611-6.414,5.178
									c-2.058,1.595,0.183,4.819,2.432,4.179c4.827-1.375,10.292-0.146,15.267-0.953c-0.811-1.394-1.622-2.786-2.432-4.178
									c-1.193,1.352-2.385,2.702-3.578,4.055c1.01-0.13,2.021-0.261,3.029-0.392c-1.501-0.933-5.365-2.73-4.205-4.994
									c0.996-1.944,2.692-3.583,3.946-5.365c1.86-2.645-2.478-5.138-4.316-2.523c-1.763,2.505-4.86,5.19-4.932,8.494
									c-0.092,4.187,3.825,6.745,6.983,8.706c0.907,0.563,2.308,0.428,3.029-0.391c1.192-1.353,2.385-2.703,3.578-4.056
									c1.741-1.973,0.022-4.577-2.433-4.178c-5.023,0.815-10.331-0.454-15.267,0.953c0.811,1.393,1.622,2.786,2.432,4.178
									c1.712-1.327,3.249-3.092,5.086-4.229c1.917-1.187,5.432-0.634,7.533-0.652c0.833-0.007,1.776-0.459,2.159-1.238
									c0.697-1.419,1.395-2.838,2.091-4.257c0.706-1.437,0.146-3.216-1.494-3.672c-4.886-1.358-12.887-3.914-13.883,3.305
									C328.717,464.564,333.533,465.925,333.973,462.741L333.973,462.741z"/>
							</g>
						</g>
					</g>
				</g>
				<g id="Teeth">
					<g>
						<g>
							<path fill="#B5B284" d="M499.143,762.953c-0.813,10.581-0.703,22.875,5.928,31.76c8.707,11.666,27.521,8.665,39.902,6.694
								c9.007-1.434,17.693-4.305,26.072-7.845c4.375-1.849,8.591-4.056,12.715-6.404c2.459-1.4,3.705-6.344,4.486-8.89
								c4.85-15.79-5.867-32.188-10.518-46.668c-0.982-3.057-5.811-1.749-4.822,1.33c4.078,12.695,11.603,24.937,11.357,38.631
								c-0.067,3.792-1.297,7.393-3.039,10.715c-1.557,2.967-8.185,4.927-11.074,6.251c-7.343,3.366-15.129,5.738-23.02,7.411
								c-7.322,1.553-14.812,2.066-22.283,1.892c-6.301-0.147-12.105-1.146-16.074-6.464c-5.776-7.739-5.331-19.29-4.631-28.413
								C504.39,759.735,499.388,759.76,499.143,762.953L499.143,762.953z"/>
						</g>
					</g>
					<g>
						<g>
							<path fill="#B5B284" d="M584.292,770.276c0.122,9.304,3.981,16.896,14.445,15.487c1.944-0.262,4.198-1.122,5.739-2.36
								c2.697-2.171,6.906-3.15,10.127-4.333c6.345-2.331,12.728-4.462,18.787-7.489c10.428-5.209,20.799-14.591,18.518-27.246
								c-0.494-2.741-2.633-5.835-3.92-8.282c-1.607-3.058-3.462-5.98-5.37-8.856c-4.019-6.059-8.707-11.681-13.577-17.065
								c-2.167-2.396-5.691,1.15-3.535,3.535c6.938,7.673,13.178,15.83,18.166,24.91c3.307,6.02,5.802,13.175,0.146,18.831
								c-3.469,3.469-7.238,6.637-11.501,9.082c-8.028,4.606-17.225,6.708-25.683,10.346c-3.567,1.534-7.968,5.27-12.06,3.954
								c-5.057-1.625-5.22-5.742-5.282-10.513C589.25,767.055,584.25,767.051,584.292,770.276L584.292,770.276z"/>
						</g>
					</g>
					<g>
						<g>
							<path fill="#B5B284" d="M501.331,787.833c1.102,8.819-8.511,11.487-15.478,12.616c-11.091,1.798-23.708,0.426-34.805-0.766
								c-2.91-0.313-5.802-0.757-8.689-1.232c-2.984-0.492-7.711-0.557-9.625-3.277c-2.939-4.178-3.961-9.302-4.272-14.297
								c-0.587-9.409,1.611-18.848,1.943-28.237c0.114-3.226-4.886-3.215-5,0c-0.411,11.63-3.244,23.193-1.153,34.805
								c0.733,4.07,3.159,11.474,6.984,13.714c2.555,1.497,6.901,1.602,9.794,2.114c3.321,0.588,6.671,1.015,10.019,1.411
								c12.899,1.527,27.756,2.829,40.492-0.3c8.035-1.975,15.939-7.355,14.79-16.551
								C505.937,784.678,500.932,784.639,501.331,787.833L501.331,787.833z"/>
						</g>
					</g>
					<g>
						<g>
							<path fill="#B5B284" d="M569.697,826.565c-0.552,6.85-0.863,13.66-0.031,20.501c0.384,3.158,5.389,3.196,5,0
								c-0.832-6.841-0.521-13.651,0.031-20.501C574.956,823.35,569.954,823.374,569.697,826.565L569.697,826.565z"/>
						</g>
					</g>
					<g>
						<g>
							<path fill="#B5B284" d="M509.705,812.988c-2.894-10.183,14.943-10.124,21.236-10.579c7.369-0.534,14.441-2.385,21.692-3.617
								c6.515-1.106,13.447-0.196,16.616,6.253c1.421,2.895,5.732,0.359,4.316-2.523c-3.281-6.681-9.647-9.077-16.774-9.085
								c-3.619-0.004-7.228,0.82-10.735,1.611c-5.81,1.31-11.691,2.156-17.635,2.538c-9.676,0.621-27.488,2.827-23.539,16.732
								C505.763,817.414,510.588,816.097,509.705,812.988L509.705,812.988z"/>
						</g>
					</g>
					<g>
						<g>
							<path fill="#B5B284" d="M436.611,818.846c-2.352-12.631-7.725-23.773-21.898-25.233c-8.243-0.849-16.391,0.328-24.57-1.43
								c-7.502-1.612-14.619-4.727-22.261-5.747c-4.546-0.607-10.409-0.807-14.015,2.652c-3.922,3.762-3.623,8.741-2.498,13.691
								c1.744,7.672,6.236,14.302,7.171,22.23c1.006,8.539-0.645,17.161,0.325,25.727c0.358,3.166,5.362,3.201,5,0
								c-1.445-12.761,1.461-25.041-3.27-37.376c-2.104-5.485-5.105-11.012-5.053-17.032c0.063-7.183,10.966-5.184,15.049-4.349
								c6.171,1.261,12.102,3.545,18.223,5.024c5.777,1.397,11.59,1.396,17.494,1.291c6.828-0.12,13.902,0.217,19.038,5.281
								c4.232,4.174,5.403,11.012,6.444,16.6C432.381,823.343,437.199,821.997,436.611,818.846L436.611,818.846z"/>
						</g>
					</g>
					<g>
						<g>
							<path fill="#B5B284" d="M582.434,844.573c-4.927-11.612-12.107-23.823-9.994-36.91c2.164-13.403,17.803-19.092,28.982-23.054
								c5.503-1.95,11.202-3.283,16.955-4.238c1.848-0.307,8.255-1.927,9.949-0.574c1.705,1.36,2.064,4.901,2.528,6.896
								c1.507,6.479,0.403,14.116,0.476,20.732c0.07,6.494,0.715,12.921,2.316,19.222c0.793,3.123,5.615,1.797,4.82-1.33
								c-2.118-8.335-2.185-16.772-2.152-25.318c0.026-6.821,0.251-13.569-2.184-20.038c-2.072-5.505-5.973-5.645-11.172-5.173
								c-7.799,0.707-15.454,2.514-22.866,5c-12.912,4.332-27.959,10.741-32.1,24.88c-4.261,14.55,4.647,29.522,10.122,42.429
								C579.371,850.057,583.677,847.506,582.434,844.573L582.434,844.573z"/>
						</g>
					</g>
					<g>
						<g>
							<path fill="#B5B284" d="M423.77,786.069c-0.758,3.679-1.864,6.095-5.75,6.892c-3.341,0.686-6.732,1.012-10.13,1.232
								c-6.252,0.406-12.562-0.092-18.738-1.053c-11.563-1.799-24.369-5.406-34.689-11.003c-11.034-5.983-12.11-18.612-8.251-29.254
								c3.569-9.838,10.478-18.194,15.094-27.529c1.424-2.88-2.889-5.414-4.318-2.523c-5.459,11.042-13.479,20.782-16.912,32.774
								c-3.491,12.193,1.227,24.133,11.864,30.85c5.92,3.737,13.753,5.752,20.384,7.823c7.544,2.356,15.303,3.881,23.162,4.669
								c7.367,0.738,14.758,0.308,22.055-0.837c6.396-1.004,9.741-4.349,11.051-10.711
								C429.238,784.252,424.419,782.913,423.77,786.069L423.77,786.069z"/>
						</g>
					</g>
					<g>
						<g>
							<path fill="#B5B284" d="M510.299,849.498c-0.658-8.226-0.389-16.418,0.059-24.647c0.353-6.509,2.48-15.321-0.967-21.206
								c-1.662-2.839-5.146-2.582-8.051-3.086c-4.085-0.708-8.184-1.353-12.294-1.895c-8.931-1.18-17.871-1.904-26.886-1.742
								c-4.006,0.072-8.033,0.397-12,0.958c-2.547,0.36-8.621,0.306-10.43,2.353c-4.15,4.697-6.807,9.999-8.18,16.111
								c-2.824,12.568,0.563,25.971,3.285,38.245c0.697,3.146,5.518,1.812,4.82-1.33c-2.24-10.105-4.521-20.259-3.943-30.679
								c0.317-5.701,2.095-11.099,5.191-15.877c2.053-3.166,5.277-3.182,8.71-3.736c4.144-0.67,8.357-0.903,12.546-1.045
								c7.039-0.237,14.094,0.283,21.088,1.024c3.661,0.388,7.305,0.922,10.943,1.479c2.658,0.407,10.508,0.398,11.725,3.334
								c0.981,2.37-0.055,7.108-0.166,9.661c-0.161,3.716-0.398,7.428-0.59,11.143c-0.359,6.987-0.42,13.957,0.139,20.936
								C505.555,852.689,510.557,852.714,510.299,849.498L510.299,849.498z"/>
						</g>
					</g>
				</g>
				<path fill="none" stroke="#A03522" stroke-width="5" stroke-miterlimit="10" d="M704.28,692.483
					c27.708,23.531,16.841,80.785-1.782,103.739c-35.931,44.288-102.25,51.047-156.336,61.545
					c-54.74,10.625-114.705,17.007-169.293,4.224c-35.5-8.313-61.229-19.65-83.121-49.491c-17.293-23.57-9.135-67.665,2.736-94.543
					c10.412-23.574,29.279-26.357,50.705-14.777c29.666,16.033,54.91,37.674,88.066,46.959
					c61.766,17.296,128.629-10.086,179.127-46.565C629.119,692.928,680.58,672.354,704.28,692.483z"/>
			</g>
			<g id="Hair_2_">
				<g>
					<g>
						<path fill="#6F3819" d="M746.944,366.933c17.951-24.46,46.496-33.935,74.438-42.108c31.229-9.136,62.383-12.778,92.589-26.081
							c2.948-1.298,0.336-5.567-2.575-4.285c-31.158,13.721-64.709,17.623-96.784,27.147c-27.58,8.189-54.402,18.846-71.985,42.803
							C740.717,367.013,745.059,369.502,746.944,366.933L746.944,366.933z"/>
					</g>
				</g>
				<g>
					<g>
						<path fill="#6F3819" d="M747.285,365.67c-0.128-13.069,2.754-25.678,11.004-36.063c7.145-8.992,17.032-15.375,26.606-21.471
							c10.628-6.769,21.304-13.405,30.941-21.57c11.212-9.498,24.341-30.198,27.744-44.48c0.743-3.125-4.028-4.625-4.776-1.487
							c-3.615,15.183-17.169,34.851-29.232,44.701c-10.141,8.281-21.579,14.773-32.496,21.938
							c-9.442,6.197-18.434,13.13-25.025,22.418c-7.438,10.478-9.889,23.383-9.766,36.016
							C742.316,368.894,747.316,368.896,747.285,365.67L747.285,365.67z"/>
					</g>
				</g>
				<g>
					<g>
						<path fill="#6F3819" d="M747.285,365.67c-0.021-41.78-2.354-83.648-8.824-124.957c-6.536-41.733-17.319-84.951-40.541-120.792
							c-22.917-35.367-61.64-58.036-102.264-67.026c-45.516-10.073-93.538-3.317-137.346,11.079
							c-43.955,14.443-85.473,37.339-121.27,66.628c-19.494,15.952-36.842,34.359-56.172,50.533
							c-17.598,14.721-37.755,30.07-60.777,34.594c-24.925,4.896-43.42-11.738-55.325-31.882c-1.123-1.899-3.941-1.458-4.569,0.597
							c-25.699,84.155,51.75,161.762,124.646,188.042c21.01,7.575,43.363,11.536,65.7,11.424
							c24.556-0.123,48.449-6.496,71.435-14.702c43.808-15.64,82.229-41.602,123.618-62.225
							c33.27-16.578,71.396-27.956,108.675-19.936c41.412,8.911,72.967,40.583,88.104,79.288c1.161,2.969,5.998,1.679,4.822-1.329
							c-16.842-43.059-52.273-76.397-98.666-84.128c-42.229-7.035-83.808,9.869-120.214,29.45
							c-19.878,10.691-39.25,22.292-59.302,32.663c-22.815,11.8-46.509,21.746-71.265,28.69
							c-23.061,6.469-46.361,8.729-70.188,5.922c-22.846-2.691-45.129-10.054-65.618-20.388
							c-60.451-30.489-118.872-99.583-96.926-171.444c-1.522,0.199-3.046,0.397-4.569,0.597
							c10.672,18.057,26.029,33.829,48.047,35.167c20.772,1.262,40.817-10.748,57.1-22.262c21.48-15.189,40.48-33.634,59.58-51.629
							c16.341-15.397,34.482-28.825,53.507-40.711c77.184-48.225,186.288-78.623,269.579-27.71
							c17.505,10.701,32.519,24.295,44.056,41.283c11.675,17.188,19.842,36.586,26.243,56.273
							c13.837,42.555,19.413,87.675,22.1,132.186c1.14,18.878,1.617,37.794,1.627,56.704
							C742.287,368.895,747.287,368.896,747.285,365.67L747.285,365.67z"/>
					</g>
				</g>
				<g>
					<g>
						<path fill="#6F3819" d="M536.264,48.982c-7.878-5.769-17.542-8.863-26.895-11.275c-12.326-3.179-25.101-4.742-37.783-5.562
							c-25.935-1.676-52.591,0.901-78.188,5.1c-50.279,8.246-100.027,27.269-138.824,60.969
							c-15.904,13.816-30.898,30.072-41.64,48.26c-10.034,16.988-15.279,37.34-6.379,55.891c1.005,2.095,3.935,1.279,4.569-0.597
							c5.027-14.859,23.389-19.326,37.12-21.344c12.317-1.809,26.555-2.493,38.786,0.442c3.135,0.752,4.464-4.069,1.329-4.821
							c-13.551-3.253-28.875-2.288-42.504-0.287c-15.491,2.275-34.029,8.36-39.552,24.681c1.523-0.199,3.046-0.398,4.569-0.598
							c-12.712-26.498,6.878-55.256,23.875-74.634c17.373-19.808,37.533-36.491,60.46-49.483
							c46.153-26.159,99.169-36.3,151.626-38.813c16.549-0.793,33.283,0.287,49.6,3.136c12.755,2.229,26.681,5.474,37.308,13.254
							C536.347,55.208,538.837,50.866,536.264,48.982L536.264,48.982z"/>
					</g>
				</g>
				<g>
					<g>
						<path fill="#6F3819" d="M215.687,385.977c-25.841-0.329-51.151-14.597-71.39-29.662c-0.643,1.522-1.284,3.046-1.926,4.569
							c34.685,6.17,73.52,9.521,106.213-6.268c-1.141-1.14-2.28-2.28-3.42-3.42c-10.452,23.377-15.22,49.245-18.203,74.533
							c-3.121,26.44-4.167,54.213,1.316,80.422c1.607-0.442,3.215-0.886,4.821-1.329c-11.178-26.849-27.204-51.351-45.852-73.59
							c-17.295-20.625-37.373-39.67-60.309-53.917c-0.642,1.522-1.284,3.046-1.926,4.569c14.953,4.921,30.386,8.189,46.001,10.12
							c14.938,1.848,30.598,2.408,45.337-1.12c3.135-0.75,1.805-5.572-1.329-4.821c-13.825,3.31-28.397,2.651-42.422,1.126
							c-15.683-1.706-31.279-5.198-46.258-10.127c-2.771-0.912-4.272,3.111-1.926,4.568c22.156,13.764,41.297,32.106,58.203,51.847
							c18.602,21.719,34.646,46.224,45.658,72.672c1.215,2.917,5.498,1.904,4.821-1.329c-5.194-24.829-4.123-51.038-1.472-76.109
							c2.674-25.287,7.415-51.644,17.854-74.994c1.03-2.303-1.063-4.559-3.42-3.42c-31.341,15.136-69.139,11.673-102.36,5.764
							c-2.872-0.512-4.217,2.864-1.927,4.568c20.952,15.599,47.181,30.004,73.913,30.345
							C218.912,391.018,218.908,386.018,215.687,385.977L215.687,385.977z"/>
					</g>
				</g>
				<g>
					<g>
						<path fill="#6F3819" d="M742.627,367.408c-13.451,31.568-13.245,70.544,6.995,99.311
							c8.597,12.215,20.989,21.301,35.488,25.077c19.969,5.2,41.876,2.716,62.133,1.066c2.405-0.196,3.505-3.309,1.263-4.659
							c-22.164-13.34-49.073-24.625-61.563-48.795c-0.939,1.225-1.882,2.448-2.823,3.672c19.178,3.855,37.557-3.83,56.211-7.074
							c2.568-0.447,2.199-4.153,0-4.821c-16.088-4.882-32.33-6.934-49.004-8.414c-11.087-0.985-20.711-2.861-26.384-13.362
							c-1.14,1.14-2.28,2.28-3.42,3.42c10.877,6.381,25.607,3.093,37.056,0.241c13.401-3.339,26.354-8.463,39.01-13.935
							c2.108-0.911,1.274-4.007-0.598-4.568c-16.005-4.804-32.71-5.371-49.198-7.294c-15.71-1.832-31.602-5.968-40.85-19.864
							c-1.775-2.67-6.108-0.169-4.315,2.523c9.079,13.643,23.479,19.093,39.111,21.527c18.004,2.807,36.336,2.648,53.922,7.927
							c-0.197-1.522-0.396-3.046-0.597-4.568c-11.468,4.958-23.17,9.416-35.22,12.747c-10.592,2.928-25.563,6.951-35.798,0.945
							c-2.218-1.301-4.595,1.249-3.42,3.421c5.426,10.045,14.059,13.794,24.969,15.235c7.229,0.956,14.538,1.282,21.784,2.123
							c10.73,1.245,21.288,3.579,31.62,6.716c0-1.607,0-3.215,0-4.821c-17.63,3.066-35.432,10.717-53.551,7.075
							c-2.177-0.438-3.864,1.655-2.822,3.672c12.92,25.004,40.426,36.789,63.354,50.589c0.421-1.553,0.841-3.106,1.262-4.659
							c-19.094,1.555-38.318,3.148-57.347-0.141c-14.729-2.546-27.27-11.598-35.957-23.526
							c-19.497-26.773-19.609-64.657-6.997-94.263C748.191,367,743.887,364.45,742.627,367.408z"/>
					</g>
				</g>
			</g>
			<g id="Facial_Hair_2_">
				<path fill="#4B2E12" d="M484.175,953.524c7.749-13.355-10.921-23.558-17.138-27.079c-7.795-4.416-18.094-7.565-24.186-16.254
					c-2.05-2.925,6.649-1.184,7.581-0.887c5.782,1.844,11.389,4.94,16.911,7.951c5.389,2.941,10.754,5.763,15.876,9.591
					c7.451,5.567,14.207,12.846,21.445,18.935c1.217,1.024,2.858,0.082,3.226-1.876c1.845-9.864-5.026-15.465-10.401-18.669
					c-7.729-4.607-16.108-6.738-23.745-11.644c-1.313-0.844-4.751-2.734-4.163-5.477c1.529-7.147,7.447-3.771,10.455-1.419
					c8.315,6.506,14.853,19.799,24.05,23.76c1.874,0.806,3.424-2.274,2.479-4.616c-1.915-4.754-5.007-8.405-7.7-12.224
					c-1.549-2.195-3.033-4.464-4.206-7.103c-1.688-3.799-0.133-5.856,2.298-7.665c-0.888-0.163-1.774-0.326-2.661-0.492
					c2.556,3.703,3.82,8.356,5.5,12.875c1.871,5.036,4.74,8.717,8.173,11.494c1.415,1.145,3.351-0.289,3.306-2.712
					c-0.155-8.399-2.104-15.845,5.002-19.202c-0.9-0.73-1.801-1.462-2.701-2.193c2.046,10.257-1.805,20.609,3.872,29.381
					c0.926,1.432,2.818,1.137,3.449-0.636c2.631-7.407,3.434-13.167,9.712-15.846c-0.713-0.27-1.425-0.54-2.136-0.81
					c5.126,7.343-30.584,41.528-37.552,40.034c-2.77-0.593-3.961,5.46-1.167,6.059c4.156,0.89,8.332-1.99,11.993-4.47
					c6.109-4.137,11.833-9.574,17.194-15.429c4.42-4.824,19.53-20.767,12.636-30.637c-0.545-0.778-1.391-1.126-2.137-0.81
					c-3.343,1.427-6.271,3.503-8.47,7.477c-1.853,3.349-2.536,7.512-3.867,11.258c1.149-0.212,2.3-0.424,3.449-0.636
					c-4.451-6.879-1.063-18.19-2.743-26.609c-0.314-1.583-1.556-2.736-2.701-2.193c-3.805,1.799-6.675,4.446-8.2,9.876
					c-1.344,4.788-0.117,10.45-0.025,15.383c1.102-0.904,2.203-1.807,3.305-2.711c-6.762-5.472-7.635-15.925-12.785-23.387
					c-0.718-1.04-1.783-1.144-2.661-0.491c-13.935,10.363,4.029,25.648,8.031,35.585c0.827-1.538,1.654-3.076,2.48-4.615
					c-4.749-2.044-8.889-8.229-12.666-12.556c-4.226-4.841-8.648-10.131-13.765-12.921c-3.974-2.167-8.054-2.139-11.196,2.378
					c-2.146,3.085-3.239,7.211-1.879,11.264c1.289,3.837,4.827,5.945,7.386,7.453c4.146,2.44,8.472,4.2,12.752,6.085
					c4.158,1.831,19.563,6.543,17.77,16.137c1.075-0.625,2.15-1.25,3.227-1.876c-7.247-6.1-14.049-13.197-21.445-18.937
					c-5.146-3.994-10.616-6.743-16.061-9.747c-5.82-3.213-11.701-6.336-17.776-8.427c-3.691-1.271-8.551-2.746-11.789,0.982
					c-7.714,8.889,9.074,18.663,12.781,20.901c4.314,2.603,32.747,16.59,28.477,23.952
					C479.274,952.176,482.366,956.647,484.175,953.524L484.175,953.524z"/>
				<path fill="#4B2E12" d="M286.827,351.673c0.669,13.452-12.973,56.021,13.57,53.318c1.084-0.11,2.146-0.677,2.411-1.835
					c2.145-9.342,0.205-18.482-1.676-27.688c-2.594-12.69-2.742-24.314,5.663-34.973c-0.812,0.214-1.622,0.43-2.433,0.644
					c6.366,1.093,11.221,3.723,11.242,10.71c0.018,6.063-2.488,12.167-4.189,17.9c-3.375,11.375-4.201,23.734,9.927,26.85
					c1.326,0.292,2.705-0.381,3.075-1.746c2.573-9.476,4.092-19.183,6.387-28.724c1.547-6.432,1.017-11.605,0.586-18.145
					c-0.199-3.024,0.019-6.07,1.237-8.879c0.791-1.823,2.145-3.211,3.583-4.525c1.468-1.342,2.596-0.486,4.242,0.119
					c4.231,1.558,6.824,4.824,7.002,9.311c0.578,14.626-18.483,35.069-3.604,47.582c0.888,0.746,1.976,0.971,3.029,0.391
					c10.147-5.585,10.092-15.181,8.01-25.341c-2.678-13.067-1.173-28.83,6.887-39.731c-1.309,0.169-2.618,0.337-3.926,0.506
					c2.313,2.717,3.163,7.214,4.169,10.527c1.769,5.822,3.3,11.713,5.017,17.551c1.995,6.784,4.593,20.364,12.18,23.407
					c3.474,1.393,7.839-1.207,9.727-4.097c3.063-4.688,2.284-10.478,1.019-15.634c-1.18-4.804-3.378-9.234-4.898-13.919
					c-3.213-9.9,1.316-20.184,6.302-28.572c-1.309,0.169-2.617,0.337-3.926,0.506c8.063,6.561,5.6,17.008,7.109,26.136
					c1.77,10.693,7.205,20.783,13.379,29.522c0.857,1.215,2.083,1.479,3.42,0.896c12.228-5.332,9.917-18.941,7.103-29.497
					c-2.834-10.631-11.28-28.349-1.325-37.488c-0.812,0.215-1.622,0.43-2.433,0.644c13.409,5.048,14.869,17.157,15.495,29.82
					c0.479,9.678,1.42,20.194,10.727,25.481c2.808,1.595,5.325-2.725,2.522-4.316c-10.072-5.724-7.856-20.208-8.838-30.003
					c-1.224-12.224-6.794-21.367-18.577-25.804c-0.839-0.315-1.813,0.076-2.432,0.644c-9.492,8.713-5.508,22.863-2.458,33.596
					c2.75,9.675,10.413,27.06-2.308,32.606c1.141,0.299,2.28,0.598,3.42,0.896c-6.736-9.536-12.548-20.673-13.322-32.527
					c-0.59-9.035-0.275-17.899-7.948-24.144c-1.239-1.008-3.041-0.985-3.926,0.506c-7.011,11.795-10.245,23.89-5.104,36.948
					c1.98,5.03,3.977,10.271,4.155,15.731c0.096,2.917-2.851,10.002-6.328,6.427c-2.618-2.693-3.923-7.041-5.156-10.478
					c-1.844-5.14-3.301-10.421-4.776-15.675c-2.047-7.29-3.375-17.27-8.451-23.229c-1.139-1.337-3.045-0.686-3.926,0.507
					c-7.946,10.747-7.979,22.74-8.558,35.493c-0.463,10.196,7.399,21.211-4.545,27.785c1.01,0.13,2.021,0.262,3.029,0.392
					c-7.742-6.511-2.349-17.978,0.495-25.699c2.923-7.94,7.275-18.066,2.402-26.114c-2.464-4.068-7.173-6.106-11.546-7.351
					c-6.231-1.773-11.081,7.761-12.037,12.703c-1.174,6.063,0.776,12.141,0.469,18.221c-0.271,5.327-2.623,11.209-3.686,16.477
					c-1.166,5.777-2.343,11.54-3.889,17.23c1.024-0.582,2.05-1.164,3.075-1.746c-6.276-1.384-9.081-4.747-8.588-11.157
					c0.471-6.116,3.02-12.118,4.66-17.98c1.471-5.249,2.748-11.097,1.063-16.445c-1.955-6.198-8.205-8.863-14.113-9.877
					c-0.817-0.141-1.859-0.082-2.432,0.643c-7.235,9.174-9.84,19.176-8.501,30.732c1.318,11.381,5.875,22.604,3.229,34.135
					c0.805-0.612,1.607-1.224,2.411-1.835c-20.569,2.095-8.043-37.704-8.57-48.317C291.667,348.464,286.667,348.449,286.827,351.673
					L286.827,351.673z"/>
				<path fill="#4B2E12" d="M518.926,303.369c-11.52,8.523-22.938,19.615-29.019,32.78c-2.476,5.359-3.926,11.979-1.256,17.557
					c1.26,2.631,3.171,4.878,5.563,6.56c3.319,2.333,5.675,3.889,9.376,1.92c10.4-5.535,13.028-16.317,15.458-26.896
					c1.249-5.44,2.894-10.806,6.667-15.061c5.616-6.335,14.799-8.405,22.817-9.473c-0.804-0.611-1.606-1.224-2.411-1.835
					c1.916,9.257-3.848,17.711-7.676,25.687c-3.517,7.326-5.609,15.07-2.728,22.97c0.47,1.287,1.678,2.119,3.076,1.746
					c11.57-3.086,16.744-10.597,20.446-21.394c1.731-5.052,3.653-9.897,7.375-13.841c5.688-6.027,14.409-8.216,22.271-9.602
					c-1.025-1.025-2.051-2.05-3.076-3.075c-0.486,3.188-3.368,6.499-5.055,9.129c-3.287,5.126-6.627,10.215-9.626,15.52
					c-3.457,6.111-10.848,18.979-2.416,24.282c9.584,6.028,19.34-5.652,24.768-11.87c5.195-5.952,10.028-12.209,15.228-18.161
					c4.205-4.814,8.841-10.148,14.793-12.802c-1.141-0.3-2.28-0.599-3.422-0.897c4.44,6.646-0.554,12.312-5.386,17.012
					c-5.146,5.009-11.054,9.276-15.254,15.184c-7.206,10.131,3.148,27.695,15.615,21.36c6.401-3.253,10.949-10.487,14.812-16.255
					c4.215-6.294,7.766-12.434,13.077-17.886c2.859-2.935,5.819-5.874,9.1-8.344c0.909-0.687,1.872-1.295,2.889-1.813
					c0.83-0.423,0.918,0.037,0.309-0.507c-0.059-0.052-0.017,2.207-0.146,3.098c-0.378,2.595-1.094,5.146-1.803,7.665
					c-1.826,6.485-4.07,12.846-5.854,19.344c-1.068,3.89-2.973,9.479-0.903,13.344c1.521,2.843,5.838,0.317,4.316-2.523
					c-1.253-2.342,1.179-8.724,1.957-11.452c1.663-5.825,3.637-11.558,5.306-17.383c1.453-5.071,5.146-20.831-5.704-15.901
					c-6.614,3.005-12.642,10.144-17.283,15.448c-4.399,5.028-7.464,11.361-11.247,16.849c-2.938,4.261-9.267,14.314-15.66,12.694
					c-3.124-0.791-5.494-5.438-6.354-8.227c-0.927-3.006,1.116-6.107,2.907-8.331c7.796-9.681,29.698-20.827,19.629-35.899
					c-0.819-1.228-2.116-1.479-3.421-0.896c-10.778,4.807-18.537,16.709-25.789,25.512c-3.896,4.73-7.822,9.484-12.305,13.681
					c-3.29,3.079-6.661,5.283-11.245,3.841c-9.163-2.883,18.123-37.782,18.994-43.484c0.299-1.963-1.074-3.428-3.076-3.075
					c-13.597,2.398-25.594,8-31.063,21.317c-1.866,4.547-3.044,9.38-5.351,13.739c-2.872,5.426-7.901,8.238-13.679,9.779
					c1.024,0.582,2.051,1.164,3.076,1.746c-6.247-17.112,14.054-31.015,10.402-48.656c-0.202-0.976-1.378-1.973-2.411-1.835
					c-14.745,1.962-27.633,7.348-32.688,22.229c-4.063,11.959-3.667,24.472-16.56,30.792c0.842,0,1.683,0,2.523,0
					c-25.57-11.381,7.572-42.163,19.637-51.09C524.011,305.791,521.521,301.448,518.926,303.369L518.926,303.369z"/>
				
					<path fill="none" stroke="#4B2E12" stroke-width="5" stroke-linecap="round" stroke-linejoin="round" stroke-miterlimit="10" d="
					M371.498,638.75c11,18.25-4,37.25-11,54.25c-1,4,0,8,4,8c2,0,4-2,6-4s2-5,3-7c4-8,5-17,7-25c2-6,4-11,7-16c1-2,3-3,5-4
					c7-1,8,9,7,14c-3,17-12,32-16,49c0,4-2,8,1,10c4,3,7-3,9-5c1-1,0-3,1-4c1-2,3-4,4-7c4-13,6-26,10-38c2-5,5-14,13-12
					c9,3,5,15,4,22c-1,19-6,38-5,58c0,1,1,3,2,3c5,1,7-5,8-9c5-21,1-40,4-61c1-5,3-11,9-9c4,3,4,8,5,12c3,19,1,37,3,56
					c1,5,1,11,3,16c1,2,5,5,6,2c11-21,2-45,0-67c-1-8-1-15,3-22c3-4,8,0,9,4c2,7,4,13,5,20c1,14,4,28,7,42c1,9,2,18,7,26
					c1,1,2,1,3,1c2-1,1-5,1-6c0-29-11-56-13-85c0-1,1-3,2-3c2,0,5,1,6,3c9,26,13,53,30,77c1,1,2,2,3,2c2,0,3-3,3-5c-2-10-5-20-9-29
					c-9-18-18-36-17-57c0-1,2-2,3-2c7,7,10,16,14,25c5,14,12,27,18,41c4,8,7,18,15,22l2-1c1-15-4-29-9-44c-4-14-9-26-17-39
					c-2-3-2-7-3-10c0-1,1-4,5-3c4,2,5,6,8,9c11,17,17,35,28,52c5,6,8,17,17,17c2,0,3-3,3-5c-4-27-14-53-34-72c-2-2-4-4-3.279-7.914"
					/>
			</g>
		</g>
	</g>
</g>
<g id="Layer_2">
</g>
<g id="Layer_1">
</g>
</svg>
