<?xml version="1.0" encoding="utf-8"?>
<!-- Generator: Adobe Illustrator 16.0.0, SVG Export Plug-In . SVG Version: 6.00 Build 0)  -->
<!DOCTYPE svg PUBLIC "-//W3C//DTD SVG 1.1//EN" "http://www.w3.org/Graphics/SVG/1.1/DTD/svg11.dtd">
<svg version="1.1" id="Layer_1" xmlns="http://www.w3.org/2000/svg" xmlns:xlink="http://www.w3.org/1999/xlink" x="0px" y="0px"
	 width="1024px" height="1024px" viewBox="0 0 1024 1024" enable-background="new 0 0 1024 1024" xml:space="preserve">
<rect fill="#93268F" width="1024" height="1024"/>
<g>
	<path d="M380.019,335.487h52.271v10.512h-39.743v32.255h36.719v10.368h-36.719v43.919h-12.528V335.487z"/>
	<path d="M481.827,432.541l-1.008-8.784h-0.432c-3.888,5.472-11.376,10.368-21.312,10.368c-14.112,0-21.312-9.936-21.312-20.016
		c0-16.848,14.976-26.063,41.903-25.919v-1.44c0-5.76-1.584-16.128-15.839-16.128c-6.48,0-13.248,2.016-18.144,5.184l-2.88-8.352
		c5.76-3.744,14.112-6.192,22.896-6.192c21.312,0,26.495,14.544,26.495,28.512v26.063c0,6.048,0.288,11.952,1.152,16.704H481.827z
		 M479.955,396.974c-13.824-0.288-29.52,2.16-29.52,15.696c0,8.208,5.472,12.096,11.952,12.096c9.072,0,14.832-5.76,16.848-11.664
		c0.432-1.296,0.72-2.736,0.72-4.032V396.974z"/>
	<path d="M525.17,394.814h0.288c1.729-2.448,4.177-5.472,6.192-7.92l20.447-24.048h15.264l-26.927,28.656l30.671,41.039h-15.407
		l-24.048-33.407l-6.48,7.2v26.208h-12.527V330.303h12.527V394.814z"/>
	<path d="M587.233,399.998c0.288,17.136,11.232,24.191,23.903,24.191c9.072,0,14.544-1.584,19.296-3.6l2.16,9.072
		c-4.464,2.016-12.096,4.32-23.184,4.32c-21.455,0-34.271-14.112-34.271-35.135s12.384-37.583,32.688-37.583
		c22.752,0,28.8,20.016,28.8,32.832c0,2.592-0.288,4.608-0.433,5.904H587.233z M624.385,390.926
		c0.145-8.064-3.312-20.592-17.567-20.592c-12.815,0-18.432,11.808-19.439,20.592H624.385z"/>
	<path d="M349.203,590.077c5.616,3.456,13.824,6.336,22.463,6.336c12.816,0,20.304-6.768,20.304-16.56
		c0-9.072-5.184-14.256-18.288-19.296c-15.84-5.616-25.631-13.823-25.631-27.503c0-15.12,12.528-26.352,31.391-26.352
		c9.936,0,17.136,2.304,21.456,4.752l-3.456,10.224c-3.168-1.729-9.648-4.608-18.432-4.608c-13.248,0-18.288,7.92-18.288,14.544
		c0,9.072,5.904,13.536,19.296,18.72c16.416,6.336,24.768,14.256,24.768,28.512c0,14.976-11.088,27.936-33.983,27.936
		c-9.36,0-19.583-2.736-24.768-6.192L349.203,590.077z"/>
	<path d="M421.49,554.51c0-7.2-0.144-13.104-0.576-18.863h11.087l0.576,11.231h0.432c3.888-6.624,10.368-12.815,21.887-12.815
		c9.504,0,16.704,5.76,19.728,13.968h0.288c2.16-3.889,4.896-6.912,7.776-9.072c4.176-3.168,8.784-4.896,15.408-4.896
		c9.216,0,22.896,6.048,22.896,30.239v41.039h-12.384v-39.455c0-13.392-4.896-21.456-15.12-21.456
		c-7.2,0-12.815,5.328-14.976,11.521c-0.576,1.728-1.008,4.031-1.008,6.336v43.055h-12.384v-41.759
		c0-11.088-4.896-19.152-14.544-19.152c-7.92,0-13.68,6.336-15.696,12.672c-0.72,1.872-1.008,4.032-1.008,6.192v42.047H421.49
		V554.51z"/>
	<path d="M555.697,516.063c0.145,4.32-3.023,7.776-8.063,7.776c-4.464,0-7.632-3.456-7.632-7.776c0-4.464,3.313-7.92,7.92-7.92
		C552.674,508.143,555.697,511.599,555.697,516.063z M541.586,605.341v-69.694h12.672v69.694H541.586z"/>
	<path d="M575.281,503.103h12.672v102.238h-12.672V503.103z"/>
	<path d="M616.319,572.798c0.288,17.136,11.232,24.191,23.903,24.191c9.072,0,14.544-1.584,19.296-3.601l2.16,9.072
		c-4.464,2.016-12.096,4.32-23.184,4.32c-21.455,0-34.271-14.112-34.271-35.136s12.384-37.583,32.688-37.583
		c22.752,0,28.8,20.016,28.8,32.831c0,2.592-0.288,4.608-0.433,5.904H616.319z M653.471,563.726
		c0.145-8.063-3.312-20.592-17.567-20.592c-12.815,0-18.432,11.808-19.439,20.592H653.471z"/>
</g>
</svg>
