<?xml version="1.0" encoding="utf-8"?>
<!-- Generator: Adobe Illustrator 16.0.0, SVG Export Plug-In . SVG Version: 6.00 Build 0)  -->
<!DOCTYPE svg PUBLIC "-//W3C//DTD SVG 1.1//EN" "http://www.w3.org/Graphics/SVG/1.1/DTD/svg11.dtd">
<svg version="1.1" id="Layer_1" xmlns="http://www.w3.org/2000/svg" xmlns:xlink="http://www.w3.org/1999/xlink" x="0px" y="0px"
	 width="1024px" height="1024px" viewBox="0 0 1024 1024" enable-background="new 0 0 1024 1024" xml:space="preserve">
<rect fill="#93268F" width="1024" height="1024"/>
<g>
	<path d="M381.388,336.783c5.472-1.152,14.112-2.016,22.896-2.016c12.527,0,20.592,2.16,26.64,7.056
		c5.04,3.744,8.063,9.504,8.063,17.136c0,9.36-6.191,17.567-16.416,21.312v0.288c9.217,2.304,20.016,9.936,20.016,24.335
		c0,8.352-3.312,14.688-8.207,19.439c-6.768,6.192-17.712,9.072-33.552,9.072c-8.64,0-15.264-0.576-19.439-1.152V336.783z
		 M393.916,376.526h11.375c13.248,0,21.023-6.912,21.023-16.271c0-11.376-8.64-15.84-21.312-15.84c-5.76,0-9.071,0.432-11.087,0.864
		V376.526z M393.916,423.037c2.447,0.432,6.047,0.576,10.512,0.576c12.959,0,24.911-4.752,24.911-18.864
		c0-13.248-11.376-18.72-25.056-18.72h-10.367V423.037z"/>
	<path d="M466.635,399.998c0.287,17.136,11.23,24.191,23.902,24.191c9.072,0,14.545-1.584,19.296-3.6l2.16,9.072
		c-4.464,2.016-12.096,4.32-23.184,4.32c-21.456,0-34.271-14.112-34.271-35.135s12.384-37.583,32.688-37.583
		c22.751,0,28.8,20.016,28.8,32.832c0,2.592-0.288,4.608-0.433,5.904H466.635z M503.785,390.926
		c0.145-8.064-3.312-20.592-17.567-20.592c-12.815,0-18.432,11.808-19.44,20.592H503.785z"/>
	<path d="M538.776,399.998c0.288,17.136,11.232,24.191,23.903,24.191c9.072,0,14.544-1.584,19.296-3.6l2.16,9.072
		c-4.464,2.016-12.096,4.32-23.184,4.32c-21.455,0-34.271-14.112-34.271-35.135s12.384-37.583,32.688-37.583
		c22.752,0,28.8,20.016,28.8,32.832c0,2.592-0.288,4.608-0.433,5.904H538.776z M575.928,390.926
		c0.145-8.064-3.312-20.592-17.567-20.592c-12.815,0-18.432,11.808-19.439,20.592H575.928z"/>
	<path d="M603.863,384.59c0-8.208-0.144-15.264-0.576-21.744h11.088l0.433,13.68h0.575c3.168-9.359,10.8-15.264,19.296-15.264
		c1.44,0,2.448,0.144,3.6,0.432v11.952c-1.296-0.288-2.592-0.432-4.319-0.432c-8.928,0-15.264,6.768-16.992,16.271
		c-0.288,1.728-0.576,3.744-0.576,5.904v37.151h-12.527V384.59z"/>
	<path d="M338.188,508.287v40.607h46.943v-40.607h12.672v97.054h-12.672v-45.503h-46.943v45.503H325.66v-97.054H338.188z"/>
	<path d="M457.705,605.341l-1.008-8.784h-0.432c-3.888,5.473-11.376,10.368-21.312,10.368c-14.112,0-21.312-9.936-21.312-20.016
		c0-16.848,14.976-26.063,41.902-25.92v-1.439c0-5.76-1.584-16.128-15.839-16.128c-6.479,0-13.248,2.016-18.144,5.184l-2.881-8.352
		c5.761-3.744,14.112-6.191,22.896-6.191c21.312,0,26.495,14.543,26.495,28.511v26.063c0,6.048,0.288,11.952,1.152,16.704H457.705z
		 M455.834,569.773c-13.824-0.288-29.52,2.16-29.52,15.695c0,8.208,5.472,12.097,11.951,12.097c9.072,0,14.832-5.761,16.848-11.664
		c0.432-1.296,0.721-2.736,0.721-4.032V569.773z"/>
	<path d="M488.521,554.51c0-7.2-0.145-13.104-0.576-18.863h11.232l0.72,11.52h0.288c3.455-6.624,11.52-13.104,23.039-13.104
		c9.648,0,24.624,5.76,24.624,29.663v41.615h-12.672v-40.175c0-11.232-4.176-20.592-16.128-20.592
		c-8.352,0-14.832,5.903-16.992,12.96c-0.575,1.584-0.863,3.743-0.863,5.903v41.903h-12.672V554.51z"/>
	<path d="M628.631,503.103v84.238c0,6.192,0.145,13.248,0.576,18h-11.375l-0.576-12.096h-0.288
		c-3.888,7.775-12.384,13.68-23.76,13.68c-16.848,0-29.808-14.256-29.808-35.423c-0.144-23.184,14.256-37.439,31.248-37.439
		c10.655,0,17.855,5.04,21.023,10.655h0.288v-41.615H628.631z M615.96,564.014c0-1.584-0.145-3.744-0.576-5.328
		c-1.872-8.063-8.784-14.688-18.288-14.688c-13.104,0-20.879,11.52-20.879,26.928c0,14.111,6.911,25.775,20.591,25.775
		c8.496,0,16.272-5.616,18.576-15.12c0.432-1.728,0.576-3.456,0.576-5.472V564.014z"/>
	<path d="M647.929,592.381c3.743,2.448,10.367,5.04,16.703,5.04c9.216,0,13.536-4.607,13.536-10.368
		c0-6.048-3.601-9.359-12.96-12.815c-12.527-4.464-18.432-11.376-18.432-19.728c0-11.231,9.072-20.447,24.048-20.447
		c7.056,0,13.247,2.016,17.136,4.319l-3.168,9.216c-2.736-1.728-7.776-4.031-14.256-4.031c-7.488,0-11.664,4.319-11.664,9.504
		c0,5.76,4.176,8.352,13.248,11.808c12.096,4.607,18.287,10.655,18.287,21.023c0,12.239-9.504,20.88-26.063,20.88
		c-7.632,0-14.688-1.872-19.583-4.752L647.929,592.381z"/>
</g>
</svg>
