<?xml version="1.0" encoding="utf-8"?>
<!-- Generator: Adobe Illustrator 16.0.0, SVG Export Plug-In . SVG Version: 6.00 Build 0)  -->
<!DOCTYPE svg PUBLIC "-//W3C//DTD SVG 1.1//EN" "http://www.w3.org/Graphics/SVG/1.1/DTD/svg11.dtd">
<svg version="1.1" id="Layer_1" xmlns="http://www.w3.org/2000/svg" xmlns:xlink="http://www.w3.org/1999/xlink" x="0px" y="0px"
	 width="1024px" height="1024px" viewBox="0 0 1024 1024" enable-background="new 0 0 1024 1024" xml:space="preserve">
<rect fill="#93268F" width="1024" height="1024"/>
<g>
	<path d="M323.681,336.067c5.502-0.917,12.707-1.703,21.876-1.703c11.266,0,19.519,2.62,24.758,7.336
		c4.847,4.192,7.729,10.61,7.729,18.47c0,7.992-2.358,14.279-6.812,18.864c-6.025,6.419-15.851,9.694-26.985,9.694
		c-3.406,0-6.55-0.132-9.17-0.787v35.369h-11.397V336.067z M335.078,378.641c2.489,0.655,5.633,0.918,9.432,0.918
		c13.755,0,22.139-6.682,22.139-18.863c0-11.659-8.253-17.293-20.829-17.293c-4.978,0-8.777,0.394-10.742,0.918V378.641z"/>
	<path d="M396.124,393.705c0.262,15.59,10.218,22.008,21.746,22.008c8.253,0,13.23-1.44,17.554-3.274l1.965,8.253
		c-4.061,1.834-11.004,3.93-21.09,3.93c-19.519,0-31.177-12.838-31.177-31.963c0-19.126,11.266-34.19,29.736-34.19
		c20.697,0,26.199,18.208,26.199,29.867c0,2.358-0.262,4.192-0.393,5.37H396.124z M429.921,385.453
		c0.131-7.336-3.013-18.732-15.981-18.732c-11.659,0-16.768,10.742-17.685,18.732H429.921z"/>
	<path d="M490.442,423.311l-0.917-7.99h-0.393c-3.537,4.979-10.349,9.432-19.388,9.432c-12.837,0-19.387-9.039-19.387-18.209
		c0-15.326,13.624-23.71,38.12-23.579v-1.31c0-5.24-1.441-14.672-14.41-14.672c-5.895,0-12.052,1.834-16.506,4.716l-2.62-7.598
		c5.24-3.405,12.837-5.633,20.828-5.633c19.388,0,24.104,13.23,24.104,25.937v23.711c0,5.502,0.262,10.873,1.048,15.195H490.442z
		 M488.739,390.955c-12.576-0.262-26.854,1.965-26.854,14.278c0,7.467,4.978,11.004,10.873,11.004
		c8.253,0,13.493-5.239,15.327-10.61c0.393-1.18,0.655-2.489,0.655-3.668V390.955z"/>
	<path d="M518.477,377.069c0-6.55-0.131-11.921-0.524-17.161h10.218l0.655,10.48h0.262c3.145-6.026,10.479-11.921,20.96-11.921
		c8.776,0,22.4,5.239,22.4,26.985v37.857h-11.528v-36.547c0-10.219-3.799-18.733-14.671-18.733c-7.599,0-13.493,5.371-15.458,11.79
		c-0.524,1.441-0.786,3.406-0.786,5.371v38.119h-11.527V377.069z"/>
	<path d="M644.233,406.02c0,6.55,0.131,12.313,0.524,17.291H634.54l-0.655-10.348h-0.262c-3.013,5.108-9.694,11.789-20.96,11.789
		c-9.955,0-21.876-5.502-21.876-27.771v-37.072h11.527v35.107c0,12.052,3.668,20.174,14.147,20.174c7.729,0,13.1-5.371,15.196-10.48
		c0.654-1.703,1.048-3.799,1.048-5.895v-38.906h11.527V406.02z"/>
	<path d="M677.246,341.7v18.208h16.506v8.777h-16.506v34.189c0,7.86,2.228,12.314,8.646,12.314c3.014,0,5.24-0.393,6.682-0.786
		l0.523,8.646c-2.227,0.917-5.764,1.572-10.218,1.572c-5.371,0-9.693-1.703-12.444-4.848c-3.275-3.405-4.454-9.038-4.454-16.505
		v-34.583h-9.824v-8.777h9.824v-15.195L677.246,341.7z"/>
	<path d="M466.927,592.182c-5.109,1.834-15.196,4.847-27.117,4.847c-13.361,0-24.365-3.406-33.011-11.659
		c-7.598-7.335-12.314-19.125-12.314-32.88c0.131-26.33,18.208-45.587,47.814-45.587c10.218,0,18.208,2.227,22.007,4.061
		l-2.751,9.302c-4.716-2.097-10.611-3.8-19.519-3.8c-21.483,0-35.5,13.362-35.5,35.501c0,22.4,13.493,35.631,34.059,35.631
		c7.467,0,12.576-1.048,15.196-2.358v-26.33h-17.947v-9.17h29.082V592.182z"/>
	<path d="M483.958,552.489c0-7.467-0.131-13.886-0.524-19.78h10.087l0.393,12.444h0.524c2.882-8.515,9.825-13.886,17.554-13.886
		c1.31,0,2.227,0.132,3.275,0.394v10.872c-1.179-0.262-2.358-0.393-3.93-0.393c-8.122,0-13.885,6.157-15.458,14.803
		c-0.262,1.572-0.524,3.406-0.524,5.371v33.797h-11.396V552.489z"/>
	<path d="M540.156,514.894c0.131,3.93-2.751,7.073-7.336,7.073c-4.061,0-6.942-3.144-6.942-7.073c0-4.062,3.013-7.205,7.204-7.205
		C537.405,507.688,540.156,510.832,540.156,514.894z M527.318,596.111v-63.402h11.528v63.402H527.318z"/>
	<path d="M557.972,549.869c0-6.55-0.131-11.92-0.523-17.16h10.218l0.654,10.479h0.263c3.144-6.025,10.479-11.921,20.959-11.921
		c8.777,0,22.4,5.24,22.4,26.985v37.858h-11.527v-36.548c0-10.218-3.799-18.732-14.672-18.732c-7.598,0-13.492,5.37-15.458,11.789
		c-0.523,1.441-0.785,3.406-0.785,5.371v38.12h-11.528V549.869z"/>
</g>
</svg>
