<?xml version="1.0" encoding="utf-8"?>
<!-- Generator: Adobe Illustrator 16.0.0, SVG Export Plug-In . SVG Version: 6.00 Build 0)  -->
<!DOCTYPE svg PUBLIC "-//W3C//DTD SVG 1.1//EN" "http://www.w3.org/Graphics/SVG/1.1/DTD/svg11.dtd">
<svg version="1.1" xmlns="http://www.w3.org/2000/svg" xmlns:xlink="http://www.w3.org/1999/xlink" x="0px" y="0px" width="1024px"
	 height="1024px" viewBox="0 0 1024 1024" enable-background="new 0 0 1024 1024" xml:space="preserve">
<g id="Layer_9">
</g>
<g id="Layer_8">
</g>
<g id="Layer_7">
	<g id="WhisperFace_1_">
		<path fill="#FFFFFF" d="M471.622,990.937c-49.741,0-96.978-12.589-133.005-35.446c-41.095-26.072-64.777-64.182-68.489-110.209
			l-15.948,1.287c-0.175-2.167,0.575-4.333,2.06-5.94c1.48-1.604,3.566-2.524,5.725-2.524c1.504,0,2.491,0.453,2.532,0.473
			c-1.862-0.871-8.788-5.853-10.425-7.237c-0.762-0.77-1.675-1.377-2.685-1.784c-4.828-1.949-11.387-13.521-14.91-19.735
			c-1.043-1.839-2.027-3.577-2.935-5.067c-13.091-21.552-19.277-42.794-18.39-63.141c1.548-35.389,18.47-73.182,44.162-98.631
			c1.604-1.589,2.463-3.782,2.362-6.039c-0.101-2.256-1.149-4.364-2.889-5.806c-13.53-11.208-17.528-42.183-18.843-52.36
			c-0.136-1.052-0.473-2.033-0.967-2.909c0.274-0.974,0.368-2.014,0.248-3.074c-0.091-0.801-0.179-1.596-0.265-2.391
			c-0.401-3.75-3.369-6.711-7.12-7.104c-0.281-0.03-0.563-0.044-0.839-0.044c-3.427,0-6.519,2.199-7.602,5.518
			c-0.05,0.154-0.097,0.311-0.156,0.464c-0.739,1.91-0.719,4.031,0.061,5.926c0.139,0.34,0.255,0.671,0.36,0.995
			c0.168,0.521,0.385,1.013,0.645,1.473c-0.118,0.419-0.203,0.853-0.252,1.297c-0.043,0.396-0.159,1.45-1.729,2.813
			c-0.615,0.535-1.146,1.16-1.571,1.854c-1.01,0.383-2.159,0.71-3.425,0.973c-0.302,0.063-0.601,0.145-0.894,0.24
			c-3.544,1.177-7.967,1.852-12.133,1.852c-2.678,0-5.15-0.282-6.786-0.774c-4.667-1.406-8.438-3.923-11.525-7.692
			c-0.252-0.307-0.526-0.595-0.82-0.861c-2.759-2.495-5.003-5.817-6.802-10.084c0.669-1.523,0.859-3.254,0.481-4.952
			c-3.534-15.875-0.536-33.471,3.105-43.715c0.104-0.296,0.191-0.597,0.262-0.901c2.301-10.097-3.93-19.271-9.427-27.363
			c-3.01-4.431-6.122-9.013-6.755-12.266c-0.956-4.921,1.421-22.483,4.504-26.769c2.359-0.378,4.463-1.801,5.679-3.926
			c1.498-2.618,1.396-5.856-0.263-8.375c-17.721-26.894-36.193-45.879-57.631-59.109c0.508-0.041,1.081-0.064,1.725-0.064
			c5.316,0,11.907,1.608,15.845,2.569c0.737,0.181,1.402,0.342,1.979,0.478c3.056,0.711,6.186,1.335,9.212,1.938
			c6.484,1.293,12.607,2.515,18.18,4.526c0.609,0.22,1.243,0.366,1.889,0.433l0.288,0.03c0.288,0.031,0.574,0.046,0.858,0.046
			c3.445,0,6.55-2.225,7.616-5.569c1.155-3.62-0.396-7.553-3.71-9.411c-0.737-0.412-1.48-0.817-2.225-1.223l-0.92-0.502
			c-0.338-0.185-0.688-0.345-1.05-0.479c-9.595-3.575-16.925-7.007-23.069-10.797c-2.313-1.428-4.445-3.038-6.092-4.484
			c9.072,2.315,18.464,5.244,26.599,7.821c3.469,1.099,7.328,1.898,11.472,2.377c0.305,0.034,0.61,0.053,0.917,0.053
			c0.186,0,0.371-0.006,0.557-0.021c1.068-0.073,2.138-0.145,3.206-0.214c3.799-0.249,7.728-0.506,11.674-0.972
			c8.201-0.968,15.788-2.625,22.551-4.923c3.09-1.05,5.884-2.655,8.585-4.207l0.95-0.545c2.338-1.334,3.849-3.755,4.02-6.442
			c0.17-2.687-1.022-5.279-3.174-6.897c-7.813-5.882-15.552-12.083-23-18.437c-29.94-25.536-58.104-57.542-81.442-92.558
			c-0.834-1.25-1.759-2.483-2.737-3.79c-3.995-5.329-5.98-8.557-4.913-10.135c3.581,0.842,11.726,9.487,14.478,12.409
			c5.563,5.905,8.63,9.16,13.396,9.16c0.003,0,0.005,0,0.008,0c2.086-0.002,4.097-0.748,5.662-2.101
			c7.427-6.42,18.45-9.009,30.123-11.751c6.469-1.521,13.157-3.091,19.284-5.409c9.511-3.597,22.002-8.547,34.304-14.95
			c5.438-2.831,11.1-5.99,17.304-9.66c0.997-0.589,2.152-1.43,4.109-2.864c1.653-1.214,5.324-3.905,7.053-4.813
			c3.327-0.402,6.173-2.885,6.877-6.351c0.88-4.33-1.917-8.554-6.246-9.434c-1.26-0.256-2.59-0.386-3.953-0.386
			c-6.504,0-13.012,2.915-18.753,5.485c-2.424,1.085-4.713,2.109-6.539,2.699c-8.687,2.802-17.748,5.229-26.511,7.573l-2.123,0.569
			c-1.824,0.489-3.694,1.03-5.594,1.582c-6.5,1.885-13.223,3.834-19.25,3.834c-1.596,0-3.103-0.141-4.48-0.416
			c-0.474-0.095-0.831-0.194-1.093-0.281c-0.075-0.498-0.197-0.99-0.363-1.463c-0.445-1.267,0.938-5.657,4.119-9.652
			c0.673-0.845,1.569-1.769,2.666-2.748c0.72-0.643,1.317-1.409,1.764-2.265c0.782-1.498,1.561-2.997,2.337-4.496
			c1.607-3.099,3.215-6.198,4.859-9.279c5.328-9.979,16.666-20.525,25.776-29.001c0.9-0.839,1.785-1.66,2.643-2.463
			c19.914-18.632,43.731-34.04,66.766-48.939l0.819-0.53c28.384-18.363,57.503-32.46,89.021-43.095
			c24.771-8.359,45.087-12.252,63.938-12.252c2.455,0,4.912,0.069,7.302,0.208c10.574,0.608,20.585,2.749,29.753,6.36
			c1.563,0.615,3.185,1.216,4.835,1.827c8.57,3.171,17.434,6.451,20.41,13.263c1.232,2.82,3.976,4.683,7.051,4.79
			c0.095,0.004,0.188,0.006,0.28,0.006c0.667,0,1.322-0.083,1.953-0.242c2.568-0.461,19.08-2.853,21.625-3.028l0.521-0.003
			c7.389,0,14.846,1.468,20.516,2.746c3.406,0.768,6.954,1.641,10.845,2.668c0.607,0.161,1.23,0.249,1.858,0.263
			c7.8,0.179,14.479,1.2,20.418,3.123c2.843,0.921,6.104,2.809,7.686,4.436c0.053,0.062,0.106,0.124,0.162,0.186
			c0.925,1.028,2.1,1.799,3.411,2.237l2.551,0.851c9.081,3.055,18.972,7.261,31.123,13.241c37.3,18.354,59.306,49.353,80.873,90.25
			c15.87,30.094,24.979,57.87,27.843,84.915c0.915,8.647,1.26,17.822,1.021,27.268c-0.087,3.418,2.01,6.515,5.216,7.703
			c0.908,0.337,1.849,0.5,2.779,0.5c2.354,0,4.646-1.042,6.197-2.939c3.52-4.31,7.524-8.727,11.907-13.127
			c12.299-12.354,27.483-23.034,40.714-31.854c1.118-0.745,2.24-1.497,3.367-2.253c12.101-8.116,24.612-16.509,37.982-19.513
			c0.329-0.074,0.646-0.111,0.942-0.111c1.539,0,2.56,1.075,2.998,2.08c0.571,1.305,0.339,2.531-0.688,3.646
			c-7.173,7.763-16.593,13.391-26.563,19.349c-3.843,2.296-7.814,4.67-11.637,7.171c-7.836,5.13-14.246,9.602-20.174,14.072
			c0,0-1.479,1.139-1.787,1.375c-0.124,0.086-0.246,0.177-0.366,0.271c0,0-1.018,0.798-1.427,1.124
			c-1.458,1.166-2.897,2.323-4.317,3.506c-1.726,1.439-3.401,2.905-4.955,4.274c-3.259,2.874-3.629,7.824-0.832,11.149
			c1.58,1.879,3.845,2.852,6.127,2.852c1.759,0,3.525-0.576,5-1.758c12.716-10.192,24.5-17.822,36.026-23.326l0.808-0.386
			c7.724-3.69,15.708-7.505,23.526-9.243c4.497-1,8.273-1.456,12.248-1.479l1.519-0.009c0.591,0,2.162,0,2.938,0.208
			c0.451,0.123,0.808,0.327,1.164,0.675c0.063,0.063,0.127,0.122,0.191,0.182c0.287,0.298,0.602,0.577,0.941,0.834
			c0.084,0.063,0.158,0.129,0.223,0.192c-0.186,0.308-0.366,0.614-0.545,0.919c-0.369,0.629-0.927,1.58-1.162,1.787l-0.62,0.327
			c-1.366,0.729-2.779,1.483-4.228,2.367c-1.546,0.944-3.356,1.665-5.454,2.499c0,0-0.812,0.325-0.866,0.348
			c-0.849,0.362-1.696,0.73-2.541,1.106c-3.134,1.36-5.729,2.396-8.241,3.397c-4.396,1.752-8.547,3.408-14.51,6.43
			c-11.879,6.017-28.863,15.437-42.321,26.143c-12.703,10.106-24.999,21.568-37.59,35.042c-8.729,9.341-17.813,19.542-25.097,30.843
			c-1.262,1.957-1.607,4.365-0.949,6.599c0.388,1.312,0.768,2.714,1.127,4.169c0.257,1.029,0.715,1.998,1.347,2.848
			c0.047,0.109,0.141,0.356,0.262,0.809c0.517,1.938,1.742,3.61,3.435,4.688c6.134,3.904,14.854,5.152,21.22,6.063
			c1.55,0.223,3.015,0.433,3.796,0.604c4.05,0.883,8.057,2.409,12.299,4.023c3.001,1.144,6.104,2.325,9.356,3.323
			c2.016,0.619,4.433,0.777,8.885,1.024c2.438,0.135,7.631,0.424,11.405,1.063c-3.312,2.396-8.437,3.309-15.218,4.275
			c-2.122,0.303-4.315,0.616-6.443,1.022c-1.254,0.24-2.55,0.608-3.922,0.998c-1.892,0.537-4.229,1.201-5.696,1.242
			c-1.356-0.924-2.927-1.381-4.491-1.381c-2.181,0-4.353,0.886-5.932,2.629c-2.967,3.274-2.717,8.333,0.558,11.301
			c8.835,8.004,20.913,12.063,35.897,12.062c2.165,0,4.44-0.083,6.769-0.248l1.479-0.106c2.524-0.187,5.138-0.379,7.705-0.379
			c2.706,0,4.922,0.227,6.618,0.676c-1.922,2.288-5.605,5.338-8.205,6.582c-1.162,0.556-2.291,1.176-3.384,1.774
			c-1.93,1.06-4.571,2.509-5.812,2.509c-0.228-0.019-0.452-0.027-0.676-0.027c-4.119,0-7.641,3.156-7.989,7.332
			c-0.368,4.402,2.876,8.27,7.278,8.639c3.768,0.315,10.026,3.938,15.058,6.849c3.313,1.917,6.44,3.729,9.44,5.057l0.321,0.142
			c7.903,3.499,16.071,7.115,20.146,13.24c-0.132,0.189-0.33,0.446-0.625,0.764c-3.968,4.287-7.564,5.166-11.746,5.166
			c-3.366,0-7.259-0.669-11.379-1.378c-0.827-0.142-1.662-0.286-2.505-0.426c-0.631-0.105-1.26-0.2-1.89-0.294l-1.085-0.165
			c-0.412-0.064-0.827-0.097-1.24-0.097c-1.19,0-2.373,0.266-3.457,0.785c-0.37,0.179-0.771,0.384-1.183,0.597
			c-0.151,0.078-0.331,0.171-0.51,0.262c-0.165-0.01-0.331-0.016-0.497-0.016c-1.079,0-2.176,0.221-3.229,0.688
			c-1.73,0.77-3.017,1.054-4.741,1.054c-0.24,0-0.486-0.006-0.738-0.017c-3.993-0.173-8.228-0.851-12.221-1.53
			c-0.446-0.075-0.896-0.112-1.343-0.112c-1.833,0-3.626,0.63-5.064,1.808c-1.79,1.464-2.859,3.632-2.932,5.944
			c-0.543,17.496,7.757,25.461,16.541,33.895c1.06,1.017,2.153,2.065,3.273,3.172c5.216,5.146,3.861,8.446,3.283,9.855
			c-3.808,9.278-24.34,19.468-39.233,19.468c-2.766,0-4.513-0.382-5.491-0.702c-0.812-0.266-1.65-0.396-2.486-0.396
			c-1.374,0-2.739,0.354-3.958,1.047c-1.96,1.116-3.358,3.008-3.852,5.209c-2.229,9.982-9.017,40.364-25.153,51.375
			c-2.282,1.558-3.601,4.183-3.484,6.942c0.116,2.762,1.648,5.268,4.054,6.628c18.887,10.688,33.488,30.662,43.4,59.37
			c9.551,27.661,12.669,57.552,13.604,77.755c1.842,39.821-5.399,94.36-50.354,128.035c-39.234,29.392-71.882,47.649-85.203,47.649
			c-1.738,0-2.422-0.355-2.485-0.426c-1.467-1.637-3.542-2.597-5.737-2.655c-0.072-0.002-0.146-0.003-0.217-0.003
			c-2.119,0-4.154,0.841-5.657,2.343c-36.967,36.968-86.487,38.771-138.915,40.678l-4.664,0.172
			C478.576,990.871,475.082,990.937,471.622,990.937z M227.612,529.929c-3.384,0-6.44,2.145-7.561,5.396
			c-2.561,7.445-0.349,14.473,1.603,20.672c1.066,3.39,4.213,5.627,7.647,5.627c0.52,0,1.045-0.052,1.571-0.156
			c4.01-0.809,6.772-4.479,6.396-8.553c-0.531-5.736-1.063-11.283-1.728-16.084c-0.508-3.668-3.466-6.508-7.151-6.865
			C228.131,529.939,227.871,529.929,227.612,529.929z"/>
		<g id="WhisperFace" opacity="0.9">
			<g opacity="0.8">
				<path fill="#C6876A" d="M738.466,477.372c-2.35-3.841-4.525-7.785-6.604-11.778c-2.313-4.443-4.505-8.967-6.562-13.534
					c-0.269-0.595-0.521-1.196-0.778-1.796c-0.043-0.109-0.084-0.211-0.12-0.304c-1.013-2.604-1.917-5.247-2.767-7.907
					c-1.505-4.718-2.799-9.551-3.709-14.419c-0.04-0.213-0.084-0.485-0.129-0.773c-0.033-0.447-0.064-0.896-0.095-1.343
					c-0.096-1.48-0.094-2.963-0.03-4.443c0.176-1.152,0.725-6.22,0.707-6.879c0.486-2.375,1.089-4.676,1.353-7.198
					c-0.614,5.87,0.257-0.021,0.522-1.462c1.046-5.667,0.329-12.729-5.73-15.586c-15.892-7.492-30.947,8.36-35.398,22.306
					c-3.907,12.245-3.022,26.181-0.756,38.618c2.283,12.521,6.771,24.556,11.828,36.188c5.493,12.632,12.063,28.719,26.38,32.844
					c5.895,1.697,12.509,0.705,17.785-2.342c7.816-4.514,10.665-11.689,11.722-20.172
					C747.038,489.724,742.188,483.46,738.466,477.372z"/>
				<path fill="#C6876A" d="M742.005,811.102c-7.738-7.637-18.209-7.896-27.567-3.524c-6.092,2.847-10.69,8.398-14.858,13.994
					c-0.305-3.109-0.661-6.223-1.063-9.339c-2.049-15.868-7.514-31.221-14.979-45.314c-3.128-5.906-6.636-11.552-10.093-17.263
					c-2.396-3.96-5.175-7.702-7.654-11.619c-0.188-5.111-1.915-9.977-5.147-14.139c-2.057-5.561-7.155-9.484-13.243-9.522
					c-5.936-0.038-9.993,3.286-12.549,7.997c-0.933,1.154-1.805,2.351-2.571,3.619c-1.95,3.093-2.085,6.532-2.432,10.028
					c-0.411,4.144,0.322,8.386,2.179,12.063c0.271,4.799,0.845,9.67,2.405,14.068c2.468,6.958,5.343,13.829,8.462,20.513
					c0.979,2.099,1.92,4.212,2.852,6.329c0.314,0.744,0.686,1.627,0.826,1.999c0.582,1.527,1.092,3.08,1.597,4.636
					c2.274,7.006,3.406,14.535,4.342,21.84c0.018,0.161,0.037,0.333,0.059,0.521c0.208,1.871,0.35,3.748,0.491,5.624
					c0.282,3.743,0.374,7.497,0.409,11.249c0.07,7.516-0.439,15.026-1.214,22.497c-0.144,1.25-0.283,2.5-0.425,3.749
					c-0.041,0.367-0.074,0.67-0.103,0.926c-0.021,0.148-0.044,0.306-0.069,0.479c-0.541,3.756-1.198,7.494-1.889,11.225
					c-1.392,7.537-3.112,15.012-4.948,22.45c-2.624,10.634,1.798,21.945,11.448,27.438c8.64,4.916,22.792,4.431,29.386-4.057
					c6.259-8.055,12.461-16.15,18.56-24.329c4.572-6.134,9.317-11.754,11.894-18.2c0.145-0.111,0.29-0.221,0.433-0.332
					c1.438-1.287,2.612-2.676,3.863-4.143c2.884-3.379,5.68-6.796,8.42-10.293c6.926-8.841,16.608-17.729,19.231-28.898
					C749.938,825.34,747.974,816.99,742.005,811.102z"/>
				<g>
					<path fill="#C6876A" d="M735.679,389.611c-8.394-61-62.706-97.395-124.922-93.537c-83.468-3.594-160.292,53.942-240.243,70.42
						c-37.785,7.787-74.828,14.667-111.932,0.824c-6.078-2.269-13.066-5.774-19.644-6.444c-16.617-1.689-2.805,23.544,2.326,27.452
						c9.639,7.34,27.468,19.032,39.228,20.995c78.058,11.354,143.203-2.96,214.286-37.67
						c38.747-18.923,86.129-39.996,125.972-34.339c31.28,4.438,61.386,27.271,77.661,53.813c8.019,13.083,0.962,27.955,6.359,39.744
						C717.168,457.946,737.355,401.81,735.679,389.611C733.972,377.205,736.821,397.924,735.679,389.611z"/>
					<path fill="#C6876A" d="M280.585,409.337c-0.03-0.005-0.063-0.01-0.093-0.016c-0.047-0.007-0.093-0.012-0.14-0.019
						C280.437,409.315,280.508,409.325,280.585,409.337z"/>
					<path fill="#C6876A" d="M280.585,409.337C282.546,409.662,283.979,409.834,280.585,409.337L280.585,409.337z"/>
				</g>
				<path fill="#C6876A" d="M371.297,600.362c-0.064,0-0.064,0.101,0,0.101C371.36,600.463,371.36,600.362,371.297,600.362z"/>
				<path fill="#C6876A" d="M295.479,685.267c-9.743,3.69-17.171,10.857-24.029,18.521c-8.311,9.284-13.674,21.58-18.269,33.023
					c-1.508,3.755-2.804,7.579-3.924,11.451c-0.019-0.765-0.043-1.526-0.052-2.292c-0.141-11.639,0.295-23.319,1.419-34.903
					c1.136-11.702,1.679-23.729,4.537-35.155c0.614-2.462-2.862-3.282-3.729-0.998c-4.172,11.005-9.134,21.544-11.99,33.003
					c-3.105,12.467-5.273,25.155-6.238,37.969c-0.01,0.112-0.015,0.227-0.022,0.34c2.557,6.491,5.01,13.023,7.522,19.532
					c0.333,0.86,0.677,1.717,1.018,2.573c4.864,8.285,9.234,16.832,13.48,25.447c1.476-4.73,3.342-9.302,5.703-13.526
					c0.64-2.658,1.367-5.297,2.203-7.907c0.54-10.119,3.226-20.132,6.57-29.651c6.713-19.098,18.425-35.955,29.441-52.669
					C300.594,687.788,298.102,684.272,295.479,685.267z"/>
			</g>
			<g opacity="0.8">
				<path fill="#FCC49A" d="M743.303,836.256C743.285,836.269,743.284,836.27,743.303,836.256L743.303,836.256z"/>
				<path fill="#FCC49A" d="M743.46,836.137c-0.007,0.005-0.014,0.009-0.02,0.014c-0.067,0.052-0.115,0.088-0.139,0.105
					C743.324,836.238,743.371,836.202,743.46,836.137z"/>
				
					<radialGradient id="SVGID_14_" cx="269.1089" cy="-3519.7852" r="260.7795" gradientTransform="matrix(1 -0.0056 -0.0094 -1.6782 194.7002 -5261.9907)" gradientUnits="userSpaceOnUse">
					<stop  offset="0" style="stop-color:#FDC384"/>
					<stop  offset="1" style="stop-color:#F0B184"/>
				</radialGradient>
				<path fill="url(#SVGID_14_)" d="M761.654,741.024c-0.116-0.508-0.229-1.018-0.345-1.527c-5.26-23.519-10.602-44.39-25.601-63.84
					c-4.744-6.152-10.127-11.604-15.666-17.03c-10.197-9.988-18.054-19.478-16.336-34.518c0.128-1.112,6.953-5.514,8.003-6.607
					c3.506-3.66,6.392-7.915,8.818-12.352c9.205-16.816,12.107-38.62,15.754-57.221c3.39-17.284,4.409-34.691,2.227-52.198
					c-2.061-16.503-5.407-32.838-8.842-49.101c-1.99-9.424-4.701-18.721-6.182-28.248c-1.521-9.795-1.438-19.71-1.195-29.592
					c0.277-11.369-2.63-22.626-7.391-32.901c-3.449-7.446-8.172-14.202-14.178-19.813c-14.103-13.172-33.328-19.478-51.764-23.714
					c-25.657-5.896-50.605-9.247-76.706-4.088c-6.906,1.365-13.854,2.939-20.627,4.871c-26.06,7.427-50.578,19.927-74.077,33.207
					c-13.22,7.471-26.257,15.26-39.439,22.795c-27.657,15.811-61.08,25.208-92.782,27.382c-9.401,0.645-19.854,1.542-29.224,0.352
					c-13.151-1.669-24.859-7.513-37.312-11.614c-10.277-3.386-19.855-5.855-30.758-5.062c-4.73,0.345-10.712,8.91-12.306,12.709
					c-3.348,7.982-2.749,17.448-2.42,25.895c1.961,50.329-3.006,102.313,7.627,151.867c2.782,12.968,2.81,24.045,7.692,36.398
					c0.099,0.379,1.572,5.962,1.669,6.341c1.015,2.666,16.313,27.442,16.212,27.528c-0.221,0.188-0.442,0.376-0.66,0.575
					c-8.793,8.044-17.269,17.391-22.796,27.893c-7.172,13.627-13.691,26.963-16.313,42.42c-2.462,14.524-0.683,28.951,2.009,43.272
					c2.431,12.937,5.581,26.654,13.543,37.503c8.763,11.939,16.972,23.93,25.294,36.185c2.941,4.331,5.939,8.645,9.407,12.576
					c3.259,3.696,7.646,5.456,7.697,10.522c0.011,0.947,0.053,1.896,0.107,2.848c0.456,7.785-1.209,14.365,1.064,22.225
					c5.408,18.7,14.229,36.473,29.083,49.482c11.714,10.26,27.688,17.095,41.827,23.168c15.639,6.718,31.304,13.795,47.501,19.073
					c26.453,8.622,54.411,12.709,82.232,11.798c45.372-1.486,95.862-15.061,127.842-49.125c12.046-0.063,24.427-2.633,35.313-7.848
					c6.395-3.063,11.856-7.644,18.071-11.01c6.415-3.475,13.516-5.388,19.925-8.879c12.318-6.71,24.116-15.129,32.843-26.213
					c8.438-10.72,14.372-23.087,21.265-34.789c8.51-14.449,19.719-28.469,24.164-44.873
					C771.258,778.095,765.994,760.111,761.654,741.024z"/>
			</g>
			<g opacity="0.7">
				<path fill="#C6876A" d="M642.188,493.356c-3.021-1.375-6.974-2.785-10.339-2.806c-4.779-0.03-9.646,1.452-14.27,2.489
					c-8.202,1.843-16.443,3.243-24.834,3.833c-8.663,0.608-17.219-0.012-25.858-0.574c-7.804-0.51-16.47-3.534-24.16-1.521
					c-2.646,0.692-4.231,4.003-2.682,6.411c4.788,7.432,14.739,10.1,22.823,12.273c9.063,2.438,18.685,2.979,28.035,3.002
					c9.53,0.021,19.139-1.012,28.517-2.663c9.693-1.708,19.724-4.597,24.55-13.932C645.081,497.723,644.629,494.468,642.188,493.356
					z"/>
				<path fill="#C6876A" d="M373.404,516.919c-7.855-4.934-17.24-0.434-25.322,1.802c-7.349,2.032-14.744,3.561-22.202,5.104
					c-7.021,1.453-14.145,1.892-21.296,2.188c-4.225,0.177-15.9-0.095-14.781,6.911c1.111,6.96,10.257,9.835,15.99,11.685
					c7.169,2.313,15.479,2.197,22.936,1.955c7.904-0.256,15.944-2.047,23.67-3.639c8.918-1.839,20.042-2.467,25.104-11.044
					C380.631,526.575,378.405,520.06,373.404,516.919z"/>
			</g>
			<path fill="#C6876A" d="M411.021,527.704c0.135-0.232,0.279-0.463,0.419-0.693c0.03-0.063,0.063-0.118,0.092-0.184
				c0.227-0.518,0.464-1.025,0.709-1.527c-0.093,0.272-0.17,0.556-0.257,0.833c0.212-0.33,0.425-0.66,0.648-0.988
				c0.508-0.747,1.103-1.317,1.745-1.741c0.843-1.669,1.807-3.274,2.814-4.885c0.375-0.736,0.774-1.459,1.198-2.166
				c-0.455,0.292-0.889,0.615-1.297,0.973c3.239-4.575,6.853-8.889,9.793-13.796c5.159-8.614,10.376-24.136,3.878-33.146
				c-3.838-5.321-13.125-7.12-16.528,0.043c-2.491,5.246-2.119,10.253-2.243,15.879c-0.088,3.982-1.062,7.966-1.904,11.843
				c-1.873,8.607-4.2,16.856-7.501,25.005C400.65,527.934,408.224,531.409,411.021,527.704z"/>
			<g id="Eyes_6_">
				<g>
					<path fill="#EFE4CC" d="M639.649,443.796c0.013-12.349-6.032-25.724-15.905-33.297c-10.277-7.884-22.429-13.424-35.758-12.224
						c-5.167,0.465-9.976,1.53-14.453,3.166c-1.32,0.325-2.626,0.697-3.905,1.123c-13.59,4.523-22.383,14.847-26.681,27.129
						c-4.181,8.467-6.711,18.445-5.917,27.253c0.229,2.537,0.585,5.437,1.059,8.072c0.057,0.252,0.113,0.504,0.171,0.756
						c-0.88-7.201-0.813-6.697,0.206,1.511c0.584,3.451,1.964,6.809,3.663,9.838c3.554,6.338,9.075,11.095,15.098,14.946
						c8.416,5.384,20.168,7.638,30.023,6.594c13.729-1.454,24.896-6.009,35.589-14.845c10.284-8.5,14.928-21.513,16.431-34.287
						c0.018-0.152,0.021-0.305,0.036-0.458C639.527,447.289,639.647,445.521,639.649,443.796z"/>
					<path fill="#DACABC" d="M640.396,445.735c0.281,5.159-5.836-40.088-14.207-25.792c-1.742,2.979-5.793,18.764-6.786,22.076
						c-7.453,22.93-27.129,35.604-49.435,37.882c-32.994-8.313,3.348,26.11,31.354,14.422
						C616.801,487.863,641.512,465.669,640.396,445.735C640.137,440.974,640.405,445.892,640.396,445.735z"/>
				</g>
				<g>
					<path fill="#EFE4CC" d="M362.791,470.175c-0.215-3.67-0.74-7.697-1.94-11.253c-1.997-5.915-4.912-12.034-9.243-16.729
						c-1.032-1.373-2.088-2.717-3.121-3.94c-4.792-5.679-12.774-10.988-20.256-12.074c-12.75-1.85-22.409,1.086-32.385,9.139
						c-3.586,2.896-6.554,6.533-9.043,10.506c-1.646,2.086-3.052,4.279-4.068,6.455c-1.389,2.972-2.369,5.827-3.018,8.671
						c-4.385,13.169-2.666,29.818,5.06,41.341c5.642,8.413,12.234,13.696,21.741,17.43c9.762,3.831,20.397,0.397,29.424-3.343
						c8.179-3.392,14.04-10.64,19.167-17.456c4.83-6.422,6.56-15.083,7.302-22.891c0.087-0.915,0.236-2.275,0.255-2.638
						C362.786,472.306,362.852,471.219,362.791,470.175z"/>
					<path fill="#DACABC" d="M351.413,452.016c-9.966,8.564-6.918,28.757-21.247,37.409c-11.654,7.037-51.553,3.096-27.577,20.542
						c14.229,10.354,38.22,9.612,50.842-3.695C363.722,495.422,361.592,443.267,351.413,452.016
						C348.121,454.845,356.231,447.872,351.413,452.016z"/>
				</g>
			</g>
			<path opacity="0.9" fill="#C6876A" enable-background="new    " d="M747.044,817.146c-0.743-14.383-21.673-14.553-22.348-0.12
				c-0.048,0.627-0.068,0.989-0.066,1.105c-0.1,0.581-0.198,1.16-0.318,1.737c-0.651,3.314-0.432,3.196-0.724,4.848
				c-0.604,3.408-1.59,6.745-2.683,10.024c-2.097,6.295-5.516,12.672-8.896,18.815c-3.487,6.335-7.645,12.522-11.911,18.357
				c-1.81,2.476-3.88,4.854-5.896,7.161c-2.017,2.309-4.154,5.887-6.754,7.495c-2.555,1.583-0.938,5.502,1.985,4.844
				c3.23-0.729,6.456-0.417,9.644-1.646c3.602-1.389,7.008-3.021,10.232-5.138c7.673-5.034,13.949-11.082,19.527-18.329
				C739.42,852.554,747.96,834.853,747.044,817.146z"/>
			<path opacity="0.8" fill="#C6876A" enable-background="new    " d="M686.549,788.308c-2.967-25.77-13.537-48.25-33.357-65.062
				c-7.472-6.338-15.441-12.304-23.431-17.979c-1.003,0.77-1.921,1.664-2.732,2.665c5.075,17.219,14.273,31.965,22.13,47.953
				c7.118,14.486,8.923,30.577,9.939,46.481c0.461,7.217,0.395,14.686,1.264,21.848c0.869,7.152,4.236,13.979,5.599,21.104
				c1.283,6.727,2.217,13.51,3.29,20.271c0.429,2.702,0.911,5.397,1.284,8.109c0.396,2.882-0.102,7.121,0.911,9.769
				c0.068,0.179,0.142,0.354,0.208,0.535c0.134,0.36,0.184,0.699,0.171,1.019c0.159,0.024,0.312,0.068,0.474,0.085
				c0.069-0.255,0.135-0.511,0.214-0.764c1.09-3.512,2.374-6.938,3.809-10.322c1.466-3.459,2.985-7.146,4.746-10.669
				c1.046-4.167,2.117-8.33,2.659-12.643c0.859-6.828,1.984-13.656,2.585-20.515C687.532,816.239,688.154,802.259,686.549,788.308z"
				/>
			
				<radialGradient id="SVGID_15_" cx="-71.1021" cy="-4450.8154" r="0.5" gradientTransform="matrix(1 0 0 -1 214.3999 -3842.0684)" gradientUnits="userSpaceOnUse">
				<stop  offset="0.111" style="stop-color:#FDC384"/>
				<stop  offset="1" style="stop-color:#C6876A"/>
			</radialGradient>
			<path opacity="0.8" fill="url(#SVGID_15_)" enable-background="new    " d="M295.873,696.051
				c-14.225,10.059-18.952,27.104-25.568,42.227c-2.35,5.37-5.427,10.388-7.769,15.763c-2.262,5.188-2.484,10.398-4.02,15.745
				c-0.726,2.528-4.382,2.528-5.106,0.001c-1.126-3.924-3.625-7.398-4.955-11.292c-2.296-6.719-3.962-13.957-5.308-20.934
				c-2.423-12.571-1.906-25.29,0.669-37.796c1.599-7.761,3.439-15.474,6.093-22.948c2.378-6.704,5.03-13.474,4.605-20.729
				c-0.055-0.935-0.979-1.512-1.828-1.063c-10.085,5.324-14.947,18.031-18.807,28.192c-9.912,26.096-10.896,56.509-0.705,82.53
				c2.615,6.678,5.553,15.191,9.915,20.93c2.996,3.94,7.441,6.696,9.839,11.088c3.8,6.958,3.275,16.156,10.713,20.795
				c0.371,0.23,0.929,0.272,1.314-0.004c10.8-7.771,7.846-26.042,9.971-37.217c3.271-17.191,6.766-34.061,13.558-50.271
				c4.868-11.62,10.813-22.841,17.761-33.354c0.455-0.688,0.914-1.388,1.375-2.09C303.905,693.871,299.229,693.677,295.873,696.051z
				"/>
			<g>
				<path fill="#FDC58D" d="M759.831,674.367c0.047,0.156,0.099,0.311,0.14,0.47C759.909,674.605,759.864,674.456,759.831,674.367z"
					/>
				<path fill="#FDC58D" d="M750.635,574.625c20.21,6.614,73.999-17.797,49.551-41.916c-10.426-10.295-18.644-15.853-17.329-33.301
					c0.881-11.687-9.865-7.175-19.331-12.167c-2.052-16.762-19.678-6.513-22.001-12.15c-5.004-12.136-8.566-27.146-12.249-40.07
					c-27.96,1.28-10.2,62.086-9.486,76.688c1.343,27.403-0.084,53.439-4.696,80.777c-1.446,8.57-3.983,25.398-12.35,30.546
					c-3,1.844-8.153-0.02-10.653,5.221c-0.7,1.469,40.51,44.333,44.904,52.829c19.316,37.345,25.697,95.589,13.519,137.503
					c-8.397,28.894-28.619,49.96-48.085,71.884c-7.893,8.891-19.943,18.466-31.594,21.889c-2.963,0.87-7.528-3.537-8.015-3.296
					c6.619-14.652,10.753-29.43,12.774-45.333c-1.181,9.262,1.693-10.271,1.403-7.16c1.294-13.873,0.712-28.454-2.808-42.001
					c-5.261-20.242-39.937-76.717-66.063-72.636c-21.957,3.429,21.13,33.952,25.52,39.45c19.172,21.021,22.807,57.281,13.696,83.672
					c-3.424,66.109-73.257,96.119-128.563,105.92c-58.878,10.435-115.752-6.839-169.999-27.552
					c-52.402-20.01-71.073-86.06-64.701-136.993c1.969-15.761,3.028-31.365,9.563-46.104c1.203-2.714,4.554-31.232-6.469-18.976
					c-5.011,5.572-26.495,61.409-27.65,60.6c-44.8-31.351-39.124-106.169-5.679-146.519c7.415-8.93,38.792-40.518,7.917-22.659
					c-0.271-9.473-10.837-14.063-9.582-20.91c-6.019-12.019-6.745-29.091-9.226-42.159c-6.865-36.175-7.203-71.912-7.486-108.63
					c-0.05-6.385-2.326-72.424,6.586-68.512c4.929-1.12,19.088,11.9,26.187,15.666c14.421,7.646,29.896,13.205,45.626,17.467
					c81.731,22.144,149.097-15.846,220.478-49.174c23.012-10.745,44.317-13.247,69.176-8.308c11.409,2.269,22.285,5.8,32.224,11.956
					c10.368,6.423,18.866,16.168,29.744,21.688c12.016,6.097,30.491-5.178,33.298-16.939c5.359-22.467-24.553-33.318-39.438-42.084
					c-73.354-43.19-130.49-10.85-199.014,22.668c-51.932,25.403-104.064,33.621-160.176,18.536
					c-29.252-7.865-67.654-31.624-77.967,9.563c-9.717,38.809-1.687,86.674,3.031,125.868c-4.788-9.652-15.453-19.404-22.299-28.712
					c-9.668-13.147-16.456-28.486-25.604-41.156c-16.067-22.256-20.762,21.573-19.128,29.973
					c2.244,11.533,18.875,24.733,16.234,36.324c-8.669,24.388-9.134,68.629,20.791,77.645c10.355,3.119,35.276,0.067,36.797-13.74
					c2.954,22.887,8.354,46.464,21.673,57.497c-26.27,26.02-44.858,65.866-46.523,103.965c-1.057,24.158,7.142,47.226,19.544,67.643
					c4.775,7.862,12.68,24.433,21.687,28.068c0.657,0.854,13.892,10.552,13.762,8.954c8.887,110.16,122.141,156.44,220.154,152.813
					c53.888-1.995,108.587-2.832,148.939-43.186c14.49,16.155,84.783-35.934,98.439-46.163
					c42.751-32.024,55.926-83.419,53.55-134.809c-2.212-47.841-14.855-117.574-61.056-143.718
					C738.973,619.408,746.518,593.058,750.635,574.625z M227.618,537.929c0.627,4.53,1.146,9.886,1.687,15.726
					C227.584,548.188,225.908,542.899,227.618,537.929z M230.708,572.12c0.111-0.29,0.207-0.579,0.302-0.868
					c0.087,0.812,0.177,1.623,0.27,2.439C231.112,573.179,230.928,572.655,230.708,572.12z"/>
				<path fill="#FDC58D" d="M211.461,506.641c-0.015-0.002-0.027-0.004-0.041-0.006C210.76,505.039,210.772,505.04,211.461,506.641z
					"/>
				<path fill="#FDC58D" d="M255.797,401.862c-0.064,0-0.064,0.1,0,0.1C255.86,401.962,255.86,401.862,255.797,401.862z"/>
				<path fill="#FDC58D" d="M269.797,625.862c-0.064,0-0.064,0.101,0,0.101C269.86,625.963,269.86,625.862,269.797,625.862z"/>
			</g>
			<g>
				<path fill="#C6876A" d="M765.528,516.093c-0.382-6.809,0.09-13.968-3.53-19.997c-3.839-6.394-14.511-8.67-19.917-3.251
					l-0.001,0.008c0.126,0.253,0.204,0.548,0.208,0.894c0.111,9.402-0.052,18.807-0.523,28.195c0.253,1.71,0.468,3.386,0.573,4.992
					c0.232,3.537,0.513,7.138,0.545,10.727c3.057,8.778,8.533,17.113,13.319,24.697c0.33,0.524,1.125,0.438,1.303-0.172
					c2.864-9.844,5.728-19.48,7.265-29.699C765.565,527.191,765.829,521.44,765.528,516.093z"/>
				<path fill="#C6876A" d="M228.104,557.383c-1.298-9.153-0.852-18.852-4.438-27.448c-2.595-6.219-12.84-4.301-14.075,1.854
					c-1.819,9.057,1.105,18.81,3,27.699c1.072,5.035,2.646,10.108,4.707,14.948c-3.291,0.215-6.655,1.238-9.88,1.587
					c-4.524,0.49-9.15,0.771-13.697,0.526c-9.027-0.481-17.54-4.282-22.317-12.156c-0.696-1.149-2.655-0.43-2.234,0.916
					c3.186,10.18,8.746,18.907,18.923,23.217c10.53,4.459,25.581,6.77,36.359,2.202c2.166-0.918,3.548-3.121,4.078-5.472
					c0.491-0.569,0.82-1.322,0.871-2.235C229.875,574.551,229.295,565.784,228.104,557.383z"/>
			</g>
			<g>
				<path fill="#8A5322" d="M848.094,484.335c-5.365-8.471-15.385-12.831-24.189-16.729c-7.762-3.436-18.71-11.861-27.068-12.561
					c4.627,0.387,9.324-3.105,13.364-5.038c5.841-2.794,20.565-14.757,10.501-20.112c-6.182-3.29-15.358-2.332-22.111-1.855
					c-12.985,0.916-26.686-0.66-36.732-9.763c3.637,3.294,11.597-0.231,15.617-1.001c10.222-1.958,23.349-1.694,29.534-11.689
					c7.391-11.942-22.416-9.693-27.319-11.199c-7.517-2.309-14.587-5.834-22.299-7.517c-6.136-1.338-27.433-2.187-26.266-12.457
					c0.969-8.54,6.114-15.769,7.325-24.158c2.396-16.601,5.561-33.398,7.078-50.1c1.383-15.208,1.571-30.526-0.038-45.725
					c-3.288-31.037-14.238-60.34-28.722-87.805c-20.607-39.078-43.701-73.661-84.417-93.695
					c-10.325-5.081-21.188-9.976-32.105-13.646c-15.72-5.286-31.525-10.333-47.721-13.984c-7.559-1.703-15.215-3.022-22.988-2.938
					c-2.131,0.023-23.445,3.136-23.388,3.27c-5.049-11.549-18.871-15.085-29.643-19.328c-10.3-4.058-21.188-6.27-32.227-6.904
					c-25.211-1.452-50.518,4.439-74.258,12.451c-32.2,10.865-62.267,25.493-90.809,43.958
					c-23.701,15.333-48.031,31.003-68.705,50.346c-10.013,9.368-23.498,21.342-30.011,33.539
					c-3.566,6.681-6.952,13.447-10.553,20.117c-4.075,7.549-11.281,19.074,1.751,21.681c10.85,2.169,22.628-2.348,32.966-5.118
					c9.713-2.604,19.442-5.167,29.018-8.255c7.405-2.388,17.642-9.108,25.196-7.573c-2.43-0.493-11.778,7.262-14.271,8.735
					c-5.562,3.289-11.191,6.466-16.925,9.449c-10.824,5.634-22.036,10.25-33.439,14.563c-16.391,6.2-38.223,6.846-51.81,18.59
					c-3.122,2.699-23.887-31.305-34.378-18.646c-6.659,8.036,2.858,17.29,7.06,23.592c22.889,34.337,51.518,67.435,82.908,94.208
					c8.603,7.336,17.493,14.438,26.587,21.156c-8.211,0.919-15.41,5.637-23.663,7.162c-1.907,0.302-3.835,0.543-5.751,0.755
					c-0.175-0.03,0.449-0.189,0.181-0.21c-9,0.486-18.85,0.394-27.501-2.349c-9.184-2.91-18.65-5.842-27.985-8.188
					c-3.021-0.759-5.614-0.406-8.575-0.792c-2.088-0.272-2.987,1.882-2.687,3.57c-4.326,5.65,9.044,14.606,12.125,16.508
					c7.661,4.726,16.055,8.346,24.477,11.484c1.025,0.562,2.057,1.115,3.075,1.687c-0.104-0.011-0.209-0.021-0.313-0.032
					c-8.966-3.239-19.006-4.57-28.297-6.731c-7.247-1.687-28.94-7.996-32.386,3.447c1.296,0.445,1.248,2.561-0.151,2.871
					c-0.119,0.382-0.139,0.815,0.01,1.272c40.021,21.627,62.983,59.417,84.091,97.966c3.822,6.981,8.905,13.069,11.971,20.474
					c3.153,7.616,4.857,17.306,11.479,22.946c4.215,3.592,13.699,4.207,17.089-1.514c4.464-7.535-2.035-23.324-3.674-31.021
					c-2.585-12.146-4.914-24.401-5.442-36.836c-0.807-18.959,3.908-36.757,7.887-55.105c1.862-8.59,3.336-17.036,4.339-25.773
					c0.592-5.148-0.33-10.571,6.23-11.146c8.125-0.714,21.05,7.68,27.324,12.01c5.811,4.011,9.057,10.324,14.563,14.611
					c18.123,14.104,46.088,16.458,68.192,15.389c25.69-1.242,49.853-6.76,73.839-15.688c28.381-10.563,56.401-23.906,83.563-37.256
					c26.479-13.014,52.503-28.743,81.788-34.532c31.474-6.222,62.449-6.332,89.369,13.96c16.196,12.208,27.713,28.279,39.273,44.676
					c0.705,1,0.563,2.226-0.037,3.189c0.125,0.25,0.182,0.556,0.137,0.919c-2.444,19.792-1.622,42.424,2.183,61.954
					c1.892,9.709,5.015,19.196,10.15,27.693c3.709,6.136,10.676,17.264,17.267,20.581c14.89,7.493,33.688,6.207,49.854,8.063
					c5.002,0.575,9.986,1.286,14.958,2.114c12.376,2.065,23.015,4.778,32.819-5.817
					C849.948,490.643,849.955,487.273,848.094,484.335z"/>
				<g>
					<path fill="#7C411C" d="M812.322,487.15c-12.854-9.764-28.629-7.9-43.718-11.68c-6.642-1.664-12.054-4.048-18.037-7.7
						c-5.095-3.11-11.646-9.076-13.325-14.915c-0.033-0.115-0.072-0.221-0.111-0.329c5.846,3.785,12.564,6.266,19.289,7.921
						c8.762,2.156,20.254,3.835,28.523-0.639c3.525-1.907,5.707-5.911,5.732-9.864c0.035-5.647-3.65-9.146-8.497-11.132
						c-5.861-2.4-14.055-1.24-20.331-1.7c-0.734-0.059-1.468-0.13-2.199-0.212c-0.123-0.019-0.258-0.04-0.414-0.064
						c-1.469-0.228-2.922-0.545-4.37-0.88c-3.563-0.821-5.514-1.61-7.362-2.517c-5.061-2.475-8.053-4.779-10.67-8.695
						c-1.656-2.478-2.809-4.917-3.548-7.406c0.563,0.536,1.135,1.055,1.721,1.543c5.065,4.225,13.514,7.936,19.706,3.875
						c3.439-2.258,4.861-6.551,2.75-10.264c-2.117-3.722-6.483-5.875-10.222-7.752c-3.021-1.518-4.968-3.941-6.872-6.643
						c-2.017-2.861-3.19-5.872-3.994-9.26c-0.781-3.305-0.877-8.333-2.942-11.046c-0.875-1.146-1.991-1.49-3.33-0.892
						c-3.974,1.771-5.88,8.323-6.333,12.276c-0.61,5.328-0.198,10.848,1.506,15.951c-0.33,0.378-0.601,0.827-0.779,1.355
						c-2.808,8.31-4.899,15.828-3.16,24.615c1.435,7.239,6.136,13.797,11.787,18.497c-2.795-0.107-5.723,2.097-4.726,5.563
						c1.151,4.003,1.882,8.182,2.761,12.261c0.876,4.069,4.275,8.246,6.777,11.434c5.161,6.572,11.847,11.186,19.355,14.729
						c7.865,3.711,16.175,6.413,24.736,7.881c4.604,0.787,9.271,1.554,13.938,1.756c3.35,0.145,5.999-0.354,9.07-1.719
						c-1.964,0.872,1.584,0.127,1.654,0.114c1.236-0.229,2.804-1.185,4.006-1.758C815.046,497.784,816.354,490.213,812.322,487.15z"
						/>
					<path fill="#7C411C" d="M278.027,138.37c-4.558,0.593-9.206,2.554-13.679,3.696c-5.063,1.293-10.165,2.449-15.264,3.602
						c-11.262,2.547-22.604,4.888-33.666,8.221c-11.274,3.396-22.524,7.542-32.879,13.186c-4.533,2.471-9.61,6.103-12.867,10.191
						c-4.715,5.918-10.277,17.667-0.623,22.318c3.182,1.533,6.089,2.007,9.515,0.956c0.619-0.254,1.238-0.509,1.857-0.764
						c0.104-0.036,0.4-0.147,0.896-0.336c1.765-0.657,3.5-1.376,5.24-2.095c1.939-0.802,3.791-1.89,5.716-2.766
						c1.158-0.493,3.114-1.338,3.79-1.664c0.653-0.314,1.317-0.607,1.982-0.898c-0.286,0.142,1.938-0.783,2.336-0.933
						c1.193-0.448,2.402-0.858,3.609-1.271c2.482-0.848,5.003-1.586,7.526-2.301c5.261-1.491,10.604-2.692,15.953-3.81
						c10.412-2.172,20.83-4.249,31.279-6.239c10.463-1.991,22.37-3.312,31.95-8.175c6.635-3.368,9.705-11.885,7.89-18.847
						C296.054,140.703,287.133,137.187,278.027,138.37z"/>
					<path fill="#7C411C" d="M491.727,47.556c-16.584-4.573-37.889-2.274-52.662,6.772c-2.207,1.353-1.253,4.596,1.256,4.738
						c8.631,0.49,16.575-1.894,24.887-3.817c8.632-1.998,17.318-3.604,26.117-4.699C492.948,50.349,493.52,48.049,491.727,47.556z"
						/>
					<path fill="#7C411C" d="M230.84,345.665c-6.521,1.45-12.093,6.369-17.582,8.235c-6.713,2.282-13.883,3.723-20.914,4.553
						c-7.641,0.902-15.364,0.987-22.99,1.925c-6.708,0.825-13.259,2.066-20,2.72c-1.039,0.101-1.245,1.437-0.241,1.797
						c6.655,2.388,13.159,5.171,19.971,7.065c8.246,2.295,17.381,2.835,25.899,3.126c8.232,0.282,16.479-0.295,24.527-2.08
						c7.868-1.744,18.705-5.271,22.114-13.261C244.834,352.225,239.572,343.726,230.84,345.665z"/>
					<path fill="#7C411C" d="M228.874,375.025c-8.264,0-14.954,5.664-22.311,8.913c-6.494,2.87-13.78,4.614-20.758,5.79
						c-16.185,2.729-32.188,3.264-48.448,1.156c-1.842-0.239-2.211,2.808-0.43,3.194c8.537,1.854,16.873,4.2,25.37,6.137
						c8.198,1.869,16.789,3.405,25.219,3.166c8.604-0.243,17.007-1.752,25.065-4.766c8.69-3.25,18.451-7.306,21.56-16.687
						C235.261,378.555,232.26,375.025,228.874,375.025z"/>
					<path fill="#7C411C" d="M578.643,67.507c3.165,0.302,6.389,0.85,9.484,1.579c1.544,0.364,3.093,0.792,4.623,1.213
						c1.864,0.514,3.359-0.113,4.966,1.051c2.756,2,5.873-1.826,4.425-4.449c-1.676-3.037-2.085-5.925-4.577-8.616
						c-2.721-2.938-7.43-5.512-11.213-6.738c-8.794-2.847-17.95-3.66-27.147-3.541c-9.791,0.127-19.41,1.689-29.041,3.345
						c-4.152,0.713-8.299,1.469-12.45,2.187c-3.341,0.577-6.617,2.303-9.839,3.386c-5.028,1.69-6.195,10.064-0.039,11.196
						c15.008,2.76,30.941,0.329,46.109-0.729C562.11,66.817,570.485,66.73,578.643,67.507z"/>
					<path fill="#7C411C" d="M618.445,68.271c-5.504,2.83-10.786,6.008-15.796,9.587c-0.298-0.581-0.892-0.997-1.813-0.966
						c-12.976,0.436-25.269,4.23-36.905,9.833c-11.615,5.591-23.054,12.911-30.251,23.789c-1.668,2.521,1.67,5.758,4.171,4.147
						c9.85-6.34,18.333-14.461,28.278-20.698c9.625-6.036,20.34-10.537,31.578-12.363c-1.163,0.93-2.315,1.877-3.443,2.856
						c-3.95,3.433-7.147,7.504-10.202,11.73c-3.277,4.534-5.396,8.362-4.16,13.986c0.663,3.021,4.171,4.122,6.709,2.808
						c4.146-2.148,5.601-5.12,7.879-9.054c2.321-4.007,5.204-7.663,8.106-11.258c5.589-6.921,12.374-12.759,19.606-17.89
						C626.113,72.005,622.812,66.027,618.445,68.271z"/>
					<path fill="#7C411C" d="M215.055,475.585c-3.205-9.645-7.683-18.593-12.753-27.375c-5.012-8.681-10.556-16.954-16.536-24.99
						c-5.897-7.928-12.369-17.237-22.888-18.299c-2.262-0.228-5.095,1.855-5.426,4.142c-1.357,9.357,4.404,17.108,10.051,24.115
						c5.72,7.099,11.53,14.166,17.068,21.404c5.748,7.514,11.005,15.426,16.095,23.395c4.895,7.661,10.782,16.068,13.819,24.642
						c0.859,2.427,5.104,2.324,4.798-0.601C218.337,492.952,217.967,484.35,215.055,475.585z"/>
					<path fill="#7C411C" d="M733.512,312.115c-2.566-3.141-4.704-6.096-8.38-8.188c-0.221-0.125-0.452-0.238-0.681-0.356
						c-0.858-1.822-1.97-3.602-3.604-5.369c-2.1-2.27-4.722-4.06-7.118-6.009c-6.238-5.071-12.658-9.932-19.179-14.633
						c-10.165-7.329-20.924-13.826-32.278-19.14c-25.491-11.927-53.322-18.245-81.525-15.643
						c-48.938,4.518-92.362,27.654-135.088,50.236c-10.144,5.361-20.325,10.651-30.664,15.632c-4.904,2.363-9.856,4.625-14.85,6.8
						c-1.144,0.498-2.292,0.983-3.441,1.468c-0.07,0.029-0.138,0.056-0.218,0.087c-2.913,1.172-5.853,2.278-8.804,3.354
						c-10.443,3.804-21.158,6.845-32.07,8.963c-2.612,0.507-5.242,0.925-7.875,1.31c-0.047,0.007-0.083,0.013-0.127,0.02
						c-0.005,0-0.008,0.001-0.012,0.001c-1.332,0.149-2.667,0.268-4.003,0.384c-5.858,0.512-11.734,0.586-17.61,0.45
						c-2.766-0.064-5.526-0.242-8.284-0.461c-1.396-0.111-2.789-0.261-4.182-0.412c-0.196-0.021-0.362-0.039-0.516-0.055
						c-0.043-0.007-0.079-0.013-0.124-0.02c-6.595-0.971-13.034-2.538-19.418-4.432c-3.113-0.924-6.188-1.974-9.246-3.061
						c-1.527-0.543-3.041-1.125-4.555-1.707c-0.318-0.122-0.581-0.223-0.799-0.305c-0.194-0.083-0.418-0.178-0.688-0.292
						c-6.502-2.747-12.825-5.904-19.027-9.269c-12.02-6.521-23.466-13.957-34.45-22.094c-0.146-0.107-0.275-0.205-0.396-0.294
						c-0.225-0.176-0.592-0.462-1.168-0.905c-1.311-1.011-2.605-2.039-3.9-3.067c-2.59-2.056-5.139-4.164-7.674-6.286
						c-5.482-4.589-10.942-9.199-16.283-13.958c-7.301-6.506-14.456-14.239-22.565-19.706c-4.021-2.71-8.456-5.956-13.22-7.231
						c-3.41-0.914-9.484,0.073-11.556,3.568c-7.688,12.979,7.296,27.936,15.218,37.313c8.826,10.447,18.621,20.166,28.82,29.268
						c21.075,18.809,44.355,35.656,70.243,47.167c24.852,11.05,51.173,17.29,78.482,15.989c23.648-1.127,46.63-7.063,68.592-15.664
						c22.621-8.859,44.238-19.82,65.838-30.885c10.265-5.259,20.563-10.442,30.955-15.443c4.955-2.384,9.951-4.678,14.984-6.893
						c0.944-0.415,4.578-1.938,5.67-2.408c2.248-0.896,4.504-1.771,6.771-2.62c10.559-3.951,21.378-7.189,32.4-9.555
						c2.645-0.567,5.306-1.049,7.971-1.5c1.335-0.227,2.676-0.422,4.017-0.617c0.007-0.001,0.013-0.002,0.021-0.003
						c6.327-0.712,12.662-0.96,19.026-0.783c3.2,0.089,6.395,0.35,9.578,0.668c0.302,0.03,0.549,0.054,0.76,0.074
						c0.015,0.002,0.024,0.004,0.039,0.006c1.529,0.228,3.051,0.509,4.57,0.791c6.461,1.197,12.799,2.993,19.009,5.122
						c1.416,0.486,2.816,1.016,4.216,1.546c0.146,0.055,0.274,0.104,0.396,0.149c0.022,0.01,0.041,0.018,0.064,0.027
						c2.741,1.167,5.413,2.501,8.069,3.848c5.789,2.934,11.362,6.281,16.803,9.813c3.388,2.198,6.687,4.527,9.949,6.902
						c0.371,0.271,0.74,0.549,1.11,0.822c0.136,0.104,0.269,0.207,0.439,0.34c1.616,1.249,3.209,2.525,4.798,3.807
						c3.203,2.581,6.371,5.215,9.428,7.968c2.59,2.333,5.284,4.473,8.171,6.445c1.087,0.612,2.203,1.117,3.343,1.536
						c0.617,0.883,1.315,1.743,2.161,2.578c2.634,2.599,6.368,4.65,9.459,6.764c7.394,5.056,18.441,2.679,24.41-3.369
						C742.067,332.242,740.477,320.639,733.512,312.115z"/>
					<path fill="#7C411C" d="M873.035,250.986c0.561,0.417,0.499,0.345-0.179-0.218c-1.33-1.298-2.891-2.191-4.684-2.679
						c-2.056-0.55-4.449-0.482-6.571-0.471c-4.807,0.028-9.237,0.625-13.938,1.669c-9,2-17.761,6.264-26.046,10.219
						c-13.452,6.424-25.922,14.956-37.583,24.304c1.58-1.394,3.166-2.779,4.786-4.13c1.378-1.148,2.776-2.271,4.177-3.393
						c0.459-0.365,0.922-0.727,1.384-1.089c-0.615,0.491,1.863-1.425,2.032-1.553c6.405-4.831,13.027-9.373,19.738-13.767
						c13.396-8.77,28.72-15.908,39.693-27.784c7.651-8.283,0.104-21.316-10.883-18.848c-16.149,3.629-30.44,13.856-44.031,22.915
						c-14.648,9.765-29.493,20.357-41.947,32.866c-12.105,12.16-23.053,25.908-29.995,41.68c-3.515,7.986-5.913,16.028-7.201,24.658
						c-1.347,9.021,0.019,17.643,1.491,26.564c0.365,2.215,2.591,3.01,4.466,2.536c-1.104,4.752-1.95,9.595-2.552,14.532
						c-0.204,1.674,2.296,2.157,3.037,0.814c7.388-13.394,17.751-25.149,28.159-36.288c11.447-12.25,23.597-23.799,36.725-34.243
						c11.513-9.157,26.816-18.104,40.957-25.267c8.91-4.515,13.359-5.732,22.39-9.655c0.805-0.358,1.611-0.708,2.42-1.053
						c0.186-0.074,0.395-0.157,0.658-0.264c2.326-0.926,4.563-1.813,6.697-3.116c1.463-0.894,2.971-1.68,4.483-2.489
						c2.669-1.431,3.623-3.85,5.12-6.2C878.209,257.524,876.225,253.283,873.035,250.986z"/>
				</g>
			</g>
			<g id="Mouth_4_">
				
					<radialGradient id="SVGID_17_" cx="984.7822" cy="-7013.9453" r="150.6557" gradientTransform="matrix(0.7167 0.2419 0.1185 -0.481 616.9108 -2777.8757)" gradientUnits="userSpaceOnUse">
					<stop  offset="0" style="stop-color:#341211"/>
					<stop  offset="0.3233" style="stop-color:#391311"/>
					<stop  offset="0.8114" style="stop-color:#48170E"/>
					<stop  offset="1" style="stop-color:#4E1A0D"/>
				</radialGradient>
				<path fill="url(#SVGID_17_)" d="M531.09,832.684c-0.933-1.899-2.145-3.634-3.056-5.536c-1.559-3.254-2.897-6.654-4.609-9.805
					c-1.759-3.236-3.92-6.148-6.106-8.996c-2.633-3.426-5.268-6.913-8.44-9.676c-3.962-3.449-8.464-5.892-13.031-8.02
					c-2.869-1.336-5.785-2.512-8.675-3.78c-11.122-4.883-22.477-8.763-34.233-10.852c-13.619-2.419-27.113-3.055-40.426,1.794
					c-6.178,2.249-12.081,5.487-17.269,10.021c-0.758,0.679-1.513,1.365-2.267,2.052c0.289-0.264-0.458,0.412-2.251,2.033
					c-0.453,0.53-0.865,1.104-1.236,1.717c-0.521,0.806-1.043,1.611-1.563,2.418c0.93-1.301,0.571-0.726-1.074,1.729
					c-1.357,2.859-2.604,5.661-2.924,8.963c-0.337,3.485,0.307,6.874,0.313,10.341c0.011,3.432-0.804,7.228,0.531,10.455
					c1.171,2.831,3.95,4.579,6.5,5.125c3.654,0.78,7.51-0.041,11.162-0.478c1.895-0.226,3.795-0.432,5.697-0.559
					c7.647-0.508,15.344,0.112,22.941,1.176c-0.126-0.006,1.737,0.292,1.956,0.332c0.97,0.179,1.937,0.388,2.9,0.596
					c1.926,0.416,3.835,0.922,5.735,1.459c3.646,1.032,7.223,2.366,10.728,3.92c0.367,0.186,1.336,0.653,1.611,0.799
					c0.827,0.438,1.642,0.912,2.452,1.39c1.598,0.935,3.187,1.854,4.736,2.889c0.44,0.293,0.876,0.604,1.313,0.916
					c0.267,0.189,2.287-1.045,2.638-1.203c0.912-0.411,1.825-0.815,2.741-1.215c6.963-3.032,14.114-5.618,21.489-6.836
					c6.753-1.113,13.551-0.762,20.268,0.516c3.823,0.728,7.581,1.847,11.383,2.699c3.703,0.829,7.408,1.689,10.953,3.225
					c0.143,0.06,0.557-3.258,0.563-3.53c0.026-1.427-0.206-2.847-0.653-4.17C531.662,833.93,531.392,833.298,531.09,832.684z"/>
				<path fill="#C42328" d="M477.979,826.078c-4.689-0.195-7.675-0.35-12.42-0.682c-5.143-0.36-11.419,1.678-16.374,3.006
					c-1.452,0.391-2.896,0.818-4.332,1.263c-0.104-0.788-0.238-1.568-0.437-2.325c-2.605-9.992-15.019-19.384-25.669-15.067
					c-0.128,0.052-0.247,0.109-0.374,0.161c-1.74-0.578-3.544-0.907-5.312-0.935c-4.451-0.064-9.182,0.496-13.43,1.863
					c-6.739,2.169-11.861,6.954-14.458,13.357c0.916,2.183,1.695,4.498,2.964,6.316c4.12,5.911,9.735,9.664,15.218,14.12
					c2.296,1.866,4.555,3.854,7.17,5.271c7.154,3.877,16.963,4.596,24.763,2.688c7.636-1.866,14.749-5.31,21.921-8.435
					c6.847-2.983,13.924-5.211,21.296-6.456c3.403-0.575,6.829-0.968,10.239-1.492c0.899-0.139,1.713-0.148,2.501-0.101
					C490.795,831.879,485.092,826.377,477.979,826.078z"/>
				<path fill="#A03522" d="M529.407,815.517c-3.666-9.172-8.571-17.729-14.059-25.299c-5.523-7.625-11.312-15.792-18.756-20.961
					c-10.341-7.181-21.521-16.183-33.613-18.551c-1.515-0.297-8.168-1.058-9.168,0.639c-1.282,2.171-3.438,3.528-5.684,3.557
					c-2.722,0.033-4.914-2.785-7.738-2.767c-3.164,0.021-6.164,2.227-9.207,3.03c-16.696,4.417-34.39,11.402-44.232,29.096
					c-2.982,5.358-6.511,12.054-8.014,18.237c-3.677,15.121,0.152,34.269,6.591,47.832c3.823,8.054,13.403,12.721,20.587,14.537
					c8.504,2.152,17.729,3.163,26.434,3.009c10.202-0.181,20.226-2.59,30.015-5.818c5.607-1.853,11.115-4.051,16.682-6.06
					c6.744-2.433,13.22-5.246,20.245-6.382c6.046-0.977,12.077-1.2,18.165-1.411c3.119-0.107,6.228,0.776,9.333,0.631
					c4.85-0.227,4.081-3.083,6.114-6.968c1.941-3.708,3.179-5.265,2.039-9.927C533.78,826.383,531.504,820.759,529.407,815.517z
					 M526.313,836.878c1.039,3.385-11.15,0.309-11.91,0.057c-9.28-3.076-17.375-2.592-26.771-0.452
					c-13.883,3.16-26.974,7.806-40.582,12.198c-5.869,1.896-10.92,5.289-17.151,5.937c-6.239,0.649-13.457-0.82-19.14-3.986
					c-7.935-4.419-17.367-8.711-22.342-17.742c-5.698-10.346-4.027-27.01,2.516-36.327c4.5-6.407,11.34-9.933,17.811-12.806
					c18.846-8.364,37.265-7.786,56.271-0.642c4.938,1.855,9.993,3.736,14.771,6.101c11.102,5.49,21.188,12.026,29.895,21.929
					c6.099,6.937,13.141,16.04,16.484,25.33C526.213,836.606,526.27,836.732,526.313,836.878z"/>
			</g>
			<g>
				<path fill="#C6876A" d="M415.157,944.164c-5.292-3.33-11.51-2.812-17.468-3.14c-2.668-0.146-4.551-0.434-5.594-0.602
					c-3.051-0.494-6.065-1.196-9.059-1.962c-11.635-2.979-22.195-7.452-32.723-13.173c-10.966-5.959-20.86-13.34-30.978-20.564
					c-8.665-6.189-17.753-13.633-23.916-22.38c-1.173-1.665-4.291-0.747-3.539,1.451c3.81,11.137,8.838,21.228,15.854,30.694
					c8.384,11.313,19.368,20.407,30.849,28.417c11.338,7.911,23.726,14.375,36.801,18.887c12.478,4.305,31.191,9.676,42.207,0.013
					C423.28,956.815,420.909,947.784,415.157,944.164z"/>
				<path fill="#C6876A" d="M631.375,902.259c-0.418-2.238-2.653-4.509-4.898-4.932c-7.139-1.346-14.071,2.452-19.32,7.039
					c-4.86,4.248-9.77,8.431-14.683,12.617c-8.269,7.046-17.452,13.476-27.912,19.101c-9.695,5.216-18.651,8.402-29.871,11.061
					c-5.654,1.339-11.397,2.248-17.181,2.789c-7.463,0.698-15.969-0.274-21.895,4.98c-3.503,3.107-3.188,9.227,0.089,12.328
					c5.611,5.313,14.468,4.486,21.689,4.165c7.211-0.319,14.424-1.211,21.531-2.448c12.577-2.189,24.646-6.523,36.143-12.015
					c11.733-5.604,22.333-13.062,32.583-20.994C617.43,928.383,634,916.369,631.375,902.259z"/>
			</g>
			<path fill="#C6876A" d="M527.523,602.127c-8.7-8.586-20.719-5.086-27.283,3.768c3.438-4.635-1.043,1.074-1.974,2.12
				c-1.763,1.979-3.601,3.87-5.517,5.7c-1.996,1.906-4.11,3.688-6.256,5.427c-0.147,0.107-0.331,0.243-0.557,0.41
				c-1.378,1.021-2.792,1.993-4.21,2.958c-4.767,3.244-9.783,6.11-14.906,8.751c-2.821,1.453-5.707,2.776-8.614,4.047
				c-0.146,0.063-0.272,0.119-0.393,0.172c-0.22,0.083-0.523,0.201-0.939,0.364c-1.707,0.671-3.438,1.286-5.168,1.892
				c-5.53,1.933-11.23,3.532-16.927,4.896c-6.871,1.646-9.167,1.947-15.882,2.218c-4.452,0.179-10.844,0.337-14.226-0.141
				c-5.059-0.715-11.457-2.459-16.721-1.021c-2.977,0.813-4.563,3.744-3.927,6.69c1.328,6.156,7.049,10.688,13.617,13.781
				c-0.655,1.011-0.943,2.22-0.648,3.521c-0.355,0.982-0.557,2.009-0.566,3.085c-0.016,2.293,1.022,4.273,1.949,6.31
				c1.134,2.493,2.903,4.643,4.609,6.751c3.73,4.611,9.863,6.956,15.283,8.849c2.17,0.757,4.45,1.307,6.798,1.687
				c0.832,15.25,23.296,18.531,35.627,17.267c7.925-0.813,15.611-2.139,23.199-4.57c10.053-3.222,23.558-7.548,25.724-19.543
				c1.076-5.962,0.027-11.746-2.992-16.256c7.745-4.963,14.437-11.412,14.104-19.731c-0.192-4.81-2.069-9.198-5.285-12.348
				c4.558-3.805,8.696-7.965,12.256-12.486C533.553,619.262,534.832,609.34,527.523,602.127z"/>
			<g>
				<path fill="#4A2C12" d="M370.886,320.405c-4.021-1.078-7.728-0.52-10.859,1.146c-5.606-4.187-13.831-4.83-19.769,0.097
					c-1.043-1.233-2.309-2.307-3.784-3.146c-7.462-4.246-14.919-0.891-19.646,5.377c-0.129,0.171-0.252,0.347-0.38,0.52
					c-0.016-0.275-0.022-0.549-0.043-0.825c-0.739-10.698-14.864-15.679-20.679-5.541c-6.654,11.605-11.384,24.192-14.914,37.068
					c-1.762,6.428-3.066,12.936-4.112,19.515c-1.193,7.498-0.542,13.063,2.534,19.977c0.432,0.968,1.337,1.605,2.367,1.896
					c-0.063,1.15-0.112,2.302-0.128,3.459c-0.146,10.693,11.258,14.276,18.646,9.419c2.752,10.806,17.495,12.649,24.855,5.628
					c1.969-1.878,3.76-3.884,5.414-5.984c6.471,7.764,20.774,6.597,26.289-2.605c12.334-20.584,17.794-44.273,25.266-66.841
					C384.625,331.464,378.761,322.516,370.886,320.405z"/>
				<path fill="#4A2C12" d="M657.521,316.167c-5.306-5.234-15.433-5.904-20.544,0.148c-0.781,0.926-1.479,1.848-2.137,2.772
					c0.356-11.563-15.848-19.694-24.451-10.453c-4.424-6.064-14.174-8.124-20.544-1.965c-2.895,2.799-5.271,5.885-7.273,9.166
					c-4.171-6.639-14.968-7.77-20.679,0.229c-6.875,9.627-12.548,20.038-16.716,31.119c-3.936,10.46-7.454,23.926-4.248,34.862
					c1.229,4.192,7.065,6.401,10.238,2.744c0.191-0.221,0.368-0.451,0.555-0.675c0.271,0.86,0.563,1.719,0.892,2.575
					c2.946,7.661,10.74,12.021,18.521,7.748c2.325-1.277,4.435-2.736,6.384-4.325c4.264,4.106,11.495,5.29,16.604,2.173
					c3.533-2.155,6.525-4.736,9.136-7.608c1.428,1.679,3.136,3.211,5.188,4.546c8.272,5.381,17.575,2.177,24.572-3.251
					c5.243-4.067,8.8-11.283,11.729-17.113c3.228-6.421,5.951-13.092,8.735-19.713c1.271-3.021,2.558-6.032,3.873-9.032
					c0.941-2.146,1.947-4.271,2.681-6.5c0.073-0.218,0.152-0.435,0.229-0.652C662.7,327.194,662.232,320.816,657.521,316.167z"/>
				<path fill="#4A2C12" d="M577.188,700.826c-2.016-7.726-7.524-11.861-14.55-14.647c4.995,1.979,0.574,0.13-0.378-0.348
					c-1.594-0.797-3.105-1.749-4.598-2.721c-0.037-0.032-0.069-0.06-0.11-0.094c-1.34-1.115-2.577-2.351-3.797-3.592
					c-0.893-0.906-1.721-1.872-2.548-2.836c-0.22-0.309-0.445-0.61-0.661-0.923c-4.418-17.074-14.595-33.358-25.439-45.651
					c-5.926-6.716-17.022-7.406-24.44-3.124c-1.692,0.978-3.188,2.191-4.485,3.568c-1.332,0.063-2.648,0.241-3.914,0.571
					c-1.214,0.316-2.419,0.788-3.592,1.389c-4.75-5.968-12.737-8.813-20.268-6.85c-2.745,0.716-5.212,2.038-7.316,3.769
					c-3.216-1.097-6.795-1.309-10.566-0.324c-4.442,1.159-7.725,3.503-9.992,6.549c-3.114-0.781-6.4-0.833-9.379-0.057
					c-0.146,0.038-0.289,0.084-0.435,0.127c-0.305-0.101-0.605-0.204-0.921-0.289c-1.302-0.35-2.671-0.519-4.064-0.521
					c-6.5-6.546-19.076-6.883-25.381,1.108c-4.729-9.177-16.174-11.854-25.475-4.229c-10.929,8.961-15.696,21.478-18.089,34.677
					c-4.117,6.146-7.835,12.577-11.009,19.308c-7.744,16.425-14.208,34.8-12.897,53.23c0.742,10.43,11.746,18.722,21.685,12.595
					c5.346-3.295,10.174-7.305,14.223-11.99c0.505,0.708,1.023,1.412,1.578,2.109c5.687,7.144,17.247,5.372,23.105-0.166
					c3.305-3.124,6.179-6.745,8.683-10.669c0.347,0.549,0.687,1.099,1.056,1.643c5.813,8.567,18.938,12.18,26.654,3.414
					c1.255-1.425,2.407-2.886,3.472-4.378c0.607,0.167,1.229,0.317,1.867,0.436c4.816,0.891,9.256,0.479,13.149-0.997
					c0.466,0.612,0.937,1.226,1.419,1.832c3.896,4.893,12.053,6.24,17.746,4.755c4.643-1.211,7.968-3.801,10.233-7.206
					c4.607,1.969,8.829,3.05,13.899,1.727c1.947-0.508,3.904-1.393,5.71-2.569c1.227,0.868,2.479,1.713,3.799,2.504
					c9.146,5.484,20.273,1.82,25.835-6.298c2.651,0.553,5.345,0.604,8.4-0.193c2.875-0.75,5.303-2.032,7.348-3.72
					c1.443,0.746,2.91,1.452,4.42,2.077c10.311,4.271,21.937,2.979,27.988-7.66C577.78,711.539,578.529,705.974,577.188,700.826z"/>
				<path fill="#4A2C12" d="M503.544,888.337c-4.519-7.824-13.893-11.216-22.229-8.789c-4.771-11.241-21.039-17.383-30.04-6.435
					c-2.378,2.894-4.403,5.915-6.116,9.064c-0.46-0.703-0.917-1.407-1.395-2.102c-5.504-7.996-15.423-11.667-24.337-6.521
					c-4.237,2.446-6.74,5.915-7.855,9.813c-6.136-2.18-13.483,4.32-11.387,10.865c0.724,2.258,0.486,4.475,1.09,6.784
					c0.833,3.193,2.666,6.793,4.212,9.725c2.762,5.239,6.297,10.05,9.747,14.845c7.364,10.232,15.646,19.813,23.491,29.679
					c3.928,4.938,11.557,5.896,17.48,4.043c0.108,0.031,0.215,0.072,0.323,0.102c10.062,2.696,19.729-3.473,22.733-13.125
					c0.481-1.551,0.997-3.086,1.537-4.616c0.062-0.173,0.13-0.344,0.191-0.516c0.171-0.412,0.842-2.114,1.049-2.586
					c1.92-4.371,4.104-8.624,6.442-12.784c0.908-1.614,1.88-3.193,2.864-4.765c0.412-0.658,2.056-2.929,2.651-3.801
					c0.702-0.815,1.429-1.609,2.188-2.373c0.091-0.046,0.186-0.094,0.293-0.15C505.791,909.788,508.649,897.182,503.544,888.337z"/>
			</g>
			<g>
				<path fill="#4B2E12" d="M485.715,618.05c5.109-3.854,10.405-7.472,15.728-11.023c0.019-0.012,0.034-0.022,0.052-0.035
					c0.126-0.729,0.234-1.456,0.321-2.171c0.854-7.046-0.551-15.603-2.586-22.394c-2.221-7.408-8.614-12.78-16.507-12.83
					c-7.569-0.048-15.9,6.004-17.144,13.803c-4.759,4.216-8.986,9.638-11.551,15.326c-3.304,2.74-5.014,6.385-6.71,10.716
					c-1.581,4.038-0.642,9.262,1.604,13.329c0.026,0.125,0.043,0.25,0.071,0.374c0.898,3.811,2.938,6.958,5.617,9.327
					c10.573-3.258,20.714-9.54,30.656-14.208C485.416,618.192,485.564,618.119,485.715,618.05z"/>
				
					<linearGradient id="SVGID_18_" gradientUnits="userSpaceOnUse" x1="219.3955" y1="-4489.2739" x2="237.7732" y2="-4207.0659" gradientTransform="matrix(1 0 0 -1 214.3999 -3842.0684)">
					<stop  offset="0" style="stop-color:#D4897F"/>
					<stop  offset="0.2098" style="stop-color:#D88F81"/>
					<stop  offset="0.4835" style="stop-color:#E29E82"/>
					<stop  offset="0.7915" style="stop-color:#F3B882"/>
					<stop  offset="0.8619" style="stop-color:#FDC384"/>
				</linearGradient>
				<path fill="url(#SVGID_18_)" d="M524.551,536.038c-6.974-6.882-13.454-6.033-22.199-5.862
					c-6.475,0.126-8.755-5.321-11.913-10.372c-2.938-4.702-3.584-8.912-2.438-14.344c2.37-11.238,6.476-22.798,9.874-33.797
					c-0.104-0.044-0.163-0.008-0.186,0.103c-0.028-3.448,6.255-13.19,7.574-16.653c1.88-4.935,3.788-9.887,5.421-14.911
					c3.734-11.491,5.959-23.442,5.484-35.565c-0.373-9.531-9.191-20.917-18.362-23.079c-11.508-2.712-22.261,6.231-28.993,14.635
					c-5.611,7.005-7.025,19.109-16.981,21.736c-2.343,0.615-4.822,0.393-7.225-1.138c-4.044-2.575-4.45-7.089-10.04-6.361
					c-3.299,0.429-7.657,3.529-10.271,5.56c-5.979,4.645-9.696,11.582-13.417,18.027c-1.223,2.875-2.382,5.758-3.402,8.684
					c0.089,0.17,0.169,0.342,0.266,0.512c5.657,9.896,15.129,18.032,15.663,30.176c0.414,9.4-4.169,17.786-8.174,25.963
					c-1.273,2.602-11.045,24.663-10.13,24.991c-4.697-1.688-9.607-2.931-14.79-3.593c-1.827-0.232-3.716-0.313-5.619-0.241
					c-3.169-0.563-6.458-0.603-9.808,0.006c-6.85,1.24-11.771,6.201-15.354,12.022c-1.412,1.715-2.776,3.521-3.964,5.402
					l-0.202,0.492c-0.096,0.104-0.235,0.295-0.43,0.583c-0.325,0.467-0.62,0.95-0.905,1.442
					c-14.303,24.751-1.935,57.215,14.467,77.392c17.284,21.266,47.749,29.268,73.204,19.205c8.084-3.196,15.859-9.182,16.738-18.331
					c0.45-4.682-0.445-9.406-0.562-14.085c-0.108-4.373-0.415-11.496,1.574-15.492c2.276-4.572,8.057-9.376,12.543-11.569
					c3.644-1.781,10.943-2.641,13.738,1.487c3.938,5.815,5.396,13.893,4.737,20.79c-0.319,3.345,0.014,12.313,6.138,9.188
					c2.646-1.349,4.403-3.958,7.162-4.783c4.906-1.47,9.055-1.244,13.092-4.977c3.324-3.074,6.074-7.472,7.711-11.687
					c3.519-9.057,4.605-18.916,6.255-28.432C532.317,550.581,531.025,542.43,524.551,536.038z"/>
				<g>
					<path fill="#AD6E69" d="M452.039,608.43c-7.121-1.854-15.699,0.214-23.022,0.492c-1.667,0.158-3.329,0.355-4.987,0.593
						c-0.457,0.061-0.771,0.103-0.977,0.131c-1.919,0.225-3.842,0.414-5.768,0.582c-3.996,0.348-7.821,0.084-11.802-0.362
						c-12.195-1.369-26.41-4.962-37.678-11.6c-2.381-1.402-4.965,0.915-4.459,3.415c3.534,17.461,19.701,25.178,35.288,29.971
						c7.755,2.385,16.097,3.868,24.059,5.458c4.923,0.983,9.923,1.187,14.924,1.369c4.52,0.165,10.049,0.875,14.317-0.699
						c6.479-2.388,11.309-7.308,11.354-14.607C463.332,616.385,458.628,610.146,452.039,608.43z"/>
					<path fill="#AD6E69" d="M512.758,579.64c-7.003,0.767-12.003,5.119-16.281,10.502c-2.703,3.399-9.469,11.745-4.178,15.98
						c4.795,3.84,10.572,0.972,15.218-1.7c5.505-3.166,11.858-7.813,13.183-14.374C521.647,585.345,518.384,579.023,512.758,579.64z
						"/>
					<path fill="#AD6E69" d="M424.021,561.201c0.361-6.031,2.662-12.172,4.297-17.726c1.854-6.294,6.004-10.472,9.101-16.07
						c3.005-5.436,5.089-12.011,7.095-17.879c2.157-6.314,3.531-12.794,3.729-19.479c0.11-3.752,0.197-7.793-0.341-11.516
						c-1.957-13.54-13.028-19.157-22.235-27.27c-4.322-3.81-3.703-8.459-1.323-13.381c1.56-3.227,3.708-6.406,5.962-9.176
						c0.896-1.099,1.839-2.135,2.82-3.155c0.919-0.954,1.045-2.415,1.889-3.426c0.148-0.179,0.073-0.548-0.215-0.519
						c-2.986,0.306-4.222,0.024-7.073,1.444c-2.943,1.465-5.573,3.588-8.063,5.708c-4.889,4.164-7.768,10.907-8.493,17.122
						c-1.479,12.657,8.309,19.356,13.354,29.285c1.485,2.923,1.915,10.333,1.226,14.407c-1.152,6.824-4.004,13.226-6.313,19.702
						c-2.359,6.617-5.179,13.155-6.23,20.134c-1.304,8.636-1.987,17.28,3.095,24.502c1.188,1.688,2.165,3.767,2.5,5.833
						c0.482,2.992,0.586,7.453,3.92,9.347c0.435,0.246,0.894,0.378,1.356,0.418c0.127-0.613,0.287-1.22,0.442-1.826
						C424.015,565.559,423.892,563.388,424.021,561.201z"/>
				</g>
				<path fill="#AD6E69" d="M487.389,538.222c-8.296-0.826-16.997,3.368-23.025,8.764c-0.488,0.438,0.042,1.109,0.587,1.019
					c6.104-1.03,12.858-0.824,18.951,0.132c2.99,0.469,5.771,0.817,8.459,2.31c2.811,1.561,3.911,4.324,5.911,6.717
					c2.861,3.424,7.594,0.267,7.946-3.3C507.213,543.789,495.428,539.021,487.389,538.222z"/>
				<path fill="#C6876A" d="M533.895,567.464c-0.693-2.084-3.4-2.048-4.125-0.016c-1.519,4.258-3.789,8.036-5.369,12.201
					c-1.765,4.648-2.344,9.924-4.036,14.678c-1.536,4.314-3.59,8.431-5.762,12.454c-2.494,4.622-5.695,8.618-7.208,13.7
					c-1.414,4.746,4.633,10.286,9.036,6.934c8.501-6.474,12.815-18.186,16.382-27.989c1.933-5.314,3.25-10.831,4.168-16.404
					C537.795,578.073,535.453,572.15,533.895,567.464z"/>
			</g>
		</g>
		<g id="Lines_4_">
			<g id="Head_4_">
				<g>
					<g>
						<g>
							<path fill="#B18B64" d="M743.767,474.901c-6.334,5.194-4.297,18.721-3.868,25.693c0.736,11.948,1.9,23.626,1.919,35.618
								c0.026,16.662-0.553,33.156-5.168,49.277c-4.965,17.342-14.33,32.902-21.905,49.146c-1.354,2.901,2.955,5.442,4.316,2.522
								c7.058-15.132,15.305-29.618,20.845-45.424c5.304-15.129,6.649-31.098,6.876-47.018c0.176-12.419-0.232-24.552-1.323-36.904
								c-0.519-5.873-0.938-11.761-0.881-17.66c0.033-3.426-0.233-9.292,2.726-11.719
								C749.797,476.391,746.236,472.874,743.767,474.901L743.767,474.901z"/>
						</g>
					</g>
					<g>
						<g>
							<path fill="#B18B64" d="M212.789,506.896c2.102,5.295,6.682,8.877,8.573,14.259c1.762,5.003,2.58,10.461,3.449,15.673
								c2.033,12.208,3.069,24.579,4.248,36.892c0.864,9.03,1.407,18.319,3.507,27.173c3.166,13.351,11.479,24.668,20.962,34.29
								c2.267,2.3,5.801-1.237,3.535-3.535c-9.47-9.61-17.381-20.727-20.131-34.15c-1.948-9.515-2.453-19.396-3.378-29.046
								c-1.095-11.431-2.242-22.87-4.131-34.202c-0.811-4.861-1.825-9.696-3.239-14.423c-1.678-5.602-6.48-8.982-8.574-14.258
								C216.437,502.605,211.599,503.896,212.789,506.896L212.789,506.896z"/>
						</g>
					</g>
					<g>
						<g>
							<path fill="#B18B64" d="M271.035,621.255c-36.951,20.149-54.716,58.72-58.804,99.223
								c-1.804,17.878-0.951,36.023,1.889,53.746c1.546,9.647,3.561,19.346,7.366,28.371c4.707,11.162,11.798,21.131,19.674,30.265
								c7.61,8.828,16.291,16.729,25.366,24.019c2.487,1.999,6.051-1.517,3.535-3.535c-18.772-15.081-36.784-33.402-45.445-56.31
								c-6.28-16.607-7.919-36.059-8.272-53.669c-0.81-40.263,10.499-83.627,43.757-109.171c4.231-3.25,8.778-6.068,13.458-8.622
								C276.39,624.027,273.866,619.709,271.035,621.255L271.035,621.255z"/>
						</g>
					</g>
					<g>
						<g>
							<path fill="#B18B64" d="M699.034,628.57c26.177,11.272,43.632,35.837,57.523,59.782
								c10.021,17.274,15.617,37.021,19.947,56.406c4.874,21.816,7.354,44.438,5.161,66.754c-1.12,11.409-3.867,22.785-8.627,33.232
								c-5.164,11.339-13.477,21.086-21.457,30.524c-19.32,22.852-42.155,42.58-67.872,57.908
								c-13.294,7.923-27.768,15.475-42.636,19.902c-17.295,5.151-35.315,7.154-53.207,8.952c-3.177,0.319-3.208,5.322,0,5
								c14.732-1.479,29.447-3.15,43.916-6.38c13.351-2.979,25.774-8.201,38.009-14.229c22.934-11.298,43.93-26.29,62.604-43.707
								c9.603-8.955,18.482-18.664,26.803-28.813c7.411-9.042,14.509-18.243,19.22-29.013c8.818-20.165,10.052-43.01,8.476-64.688
								c-1.815-24.967-7.593-49.965-16.188-73.458c-6.604-18.058-17.55-33.86-29.06-49.095
								c-10.782-14.27-23.433-26.227-40.089-33.397C698.631,622.992,696.08,627.3,699.034,628.57L699.034,628.57z"/>
						</g>
					</g>
					<g>
						<g>
							<path fill="#B18B64" d="M611.701,755.236c19.306,13.532,35.484,30.764,43.2,53.401c7.319,21.476,6.76,45.561,2.838,67.667
								c-3.287,18.529-10.52,36.182-22.534,50.771c-12.92,15.692-30.437,26.748-48.646,35.323
								c-52.303,24.629-111.071,26.431-167.617,19.984c-47.457-5.409-97.333-21.874-125.982-62.595
								c-36.111-51.324-24.421-120.836,0.497-174.116c1.356-2.901-2.952-5.442-4.316-2.523
								c-24.11,51.553-35.331,114.322-7.912,166.978c21.849,41.959,66.749,64.146,111.345,73.264
								c26.704,5.46,54.569,7.302,81.78,7.204c28.542-0.104,57.337-3.432,84.623-12.031c38.248-12.057,76.891-33.337,94.41-71.149
								c11.7-25.253,14.547-56.005,10.391-83.305c-4.772-31.362-24.137-55.376-49.55-73.189
								C611.577,749.063,609.082,753.401,611.701,755.236L611.701,755.236z"/>
						</g>
					</g>
				</g>
				<g id="Ears_4_">
					<g>
						<g>
							<path fill="#A07E5B" d="M741.385,571.718c4.929,3.085,11.637,3.946,17.259,4.771c6.78,0.995,14.954,1.877,21.448-0.908
								c10.745-4.607,25.133-12.489,26.828-25.401c1.199-9.135-6.11-17.887-10.723-25.008c-6.253-9.656-10.733-20.063-5.755-31.349
								c1.288-2.921-3.019-5.468-4.317-2.522c-4.305,9.755-3.4,19.281,1.258,28.709c4.058,8.21,10.845,15.162,13.795,23.902
								c3.949,11.702-8.358,19.316-17.056,24.102c-7.438,4.092-13.909,4.725-22.279,3.881c-5.634-0.567-13.012-1.412-17.936-4.495
								C741.166,565.684,738.658,570.011,741.385,571.718L741.385,571.718z"/>
						</g>
					</g>
					<g>
						<g>
							<path fill="#A07E5B" d="M229.297,586.912c-14.154,0.094-29.656,4.3-43.4-0.484c-7.886-2.745-12.032-10.068-14.188-17.681
								c-2.85-10.054-2.076-18.411,0.953-28.328c2.605-8.533,5.29-16.821,5.306-25.843c0.017-9.459-4.81-18.145-9.194-26.222
								c-9.656-17.793-14.335-38.404,1.974-54.04c2.331-2.235-1.209-5.766-3.535-3.535c-14.69,14.084-15.04,33.838-7.128,51.564
								c4.727,10.589,12.469,20.198,12.885,32.231c0.373,10.783-4.427,20.86-6.977,31.119c-3.851,15.484,0.557,36.989,16.126,44.535
								c14.243,6.904,32.108,1.78,47.182,1.682C232.52,591.892,232.521,586.892,229.297,586.912L229.297,586.912z"/>
						</g>
					</g>
				</g>
				<g id="Nose_4_">
					<g>
						<g>
							<path fill="#A37358" d="M428.528,415.646c-7.694,6.351-14.61,12.266-19.554,21.079c-2.55,4.548-4.155,10.318-1.706,15.248
								c2.245,4.517,6.565,7.424,10.411,10.473c5.305,4.208,9.52,8.917,11.206,15.633c0.784,3.126,5.605,1.8,4.819-1.329
								c-2.859-11.396-11.761-16.083-19.547-23.719c-4.215-4.134-3.385-8.884-0.867-13.782c4.371-8.501,11.563-14.114,18.771-20.066
								C434.554,417.125,430.994,413.609,428.528,415.646L428.528,415.646z"/>
						</g>
					</g>
					<g>
						<g>
							<path fill="#A37358" d="M430.528,494.646c-6.112,5.418-6.455,12.908-10.391,19.506c-3.607,6.045-8.468,11.338-11.319,17.832
								c-5.552,12.646,4.557,27.024,10.319,37.691c1.541,2.854,5.744,0.341,4.315-2.523c-7.639-15.337-15.012-32.008-28.136-43.546
								c-13.239-11.638-32.087-9.427-40.917,6.426c-9.437,16.94-4.486,40.232-0.452,58.016c3.77,16.608,10.554,31.494,24.93,41.455
								c27.743,19.222,67.469,9.833,95.391-3.776c28.065-13.68,53.949-37.769,55.418-70.906c0.316-7.133-1.339-14.868-6.838-19.808
								c-7.011-6.297-17.603-5.074-25.986-2.975c0.643,1.523,1.283,3.048,1.926,4.569c2.949-2.174,3.516-5.714,5.775-8.426
								c2.05-2.457-1.468-6.016-3.535-3.535c-1.768,2.119-2.604,6.052-4.764,7.646c-2.206,1.625-0.976,5.296,1.926,4.568
								c7.486-1.876,16.828-3.142,22.612,3.161c4.541,4.948,4.324,13.272,3.488,19.445c-2.113,15.616-10.057,29.748-21.271,40.598
								c-24.143,23.354-62.058,38.263-95.714,34.425c-16.403-1.87-31.232-10.138-40.011-24.296
								c-4.882-7.872-7.032-16.756-9.021-25.689c-2.313-10.391-3.969-20.968-3.874-31.636c0.088-9.921,2.203-20.498,9.925-27.346
								c7.293-6.468,17.156-5.552,24.755-0.474c14.546,9.72,22.245,28.847,29.721,43.946c0.111,0.228,0.226,0.453,0.339,0.681
								c1.438-0.841,2.878-1.684,4.315-2.523c-5.338-9.882-15.189-23.227-9.315-34.753c2.829-5.552,6.858-10.562,10.315-15.724
								c4.019-5.996,3.843-13.38,9.609-18.494C436.481,496.037,432.933,492.515,430.528,494.646L430.528,494.646z"/>
						</g>
					</g>
					<g>
						<g>
							<path fill="#A37358" d="M497.139,468.15c-0.78,1.543-1.509,3.143-2.609,4.494c1.394,0.811,2.785,1.622,4.178,2.432
								c9.217-23.74,17.598-50.923,11.365-76.455c-6.722-27.547-38.642-48.065-66.438-39.62c-3.077,0.936-1.766,5.762,1.328,4.821
								c15.633-4.75,32.749,1.232,44.98,11.368c8.937,7.404,14.118,17.763,16.229,29.032c4.35,23.218-3.98,48.131-12.284,69.523
								c-0.893,2.296,2.625,4.342,4.178,2.433c1.394-1.712,2.396-3.534,3.392-5.506C502.905,467.805,498.593,465.272,497.139,468.15
								L497.139,468.15z"/>
						</g>
					</g>
					<g>
						<g>
							<path fill="#A37358" d="M493.913,612.726c-0.024-9.971,0.437-43.033-17.335-38.491c-4.569,1.168-8.438,4.979-11.604,8.245
								c-4.149,4.283-9.263,9.621-10.688,15.563c-2.318,9.687,0.959,24.064,7.758,31.429c2.19,2.374,5.719-1.171,3.534-3.535
								c-5.675-6.146-7.345-17.188-6.689-25.199c0.44-5.41,5.256-9.854,8.653-13.678c2.827-3.185,6.219-6.642,10.363-8.004
								c11.399-3.744,10.991,28.15,11.006,33.67C488.922,615.948,493.922,615.949,493.913,612.726L493.913,612.726z"/>
						</g>
					</g>
				</g>
				<g id="Eyes_5_">
					<g>
						<g>
							<path fill="#D6D1A7" d="M562.059,491.754c-18.078-9.93-27.344-28.454-23.242-48.831c3.968-19.71,19.324-35.758,38.146-42.101
								c35.627-12.006,76.958,36.854,55.031,68.905c-6.658,9.734-19.036,15.472-29.657,19.609
								c-13.178,5.132-27.277,6.259-40.874,2.165c-3.096-0.933-4.408,3.894-1.328,4.82c13.402,4.036,27.039,3.254,40.282-1.008
								c11.42-3.675,23.531-9.645,31.997-18.297c12.194-12.462,13.187-31.089,6.476-46.503c-7.055-16.2-21.069-29.369-38.099-34.435
								c-18.44-5.484-37.159,2.358-50.334,15.43c-11.66,11.569-18.477,28.13-17.581,44.579c0.945,17.409,11.678,31.752,26.66,39.98
								C562.361,497.624,564.885,493.307,562.059,491.754z"/>
						</g>
					</g>
					<g>
						<g>
							<path fill="#D6D1A7" d="M314.297,522.912c10.722,0.583,23.438-2.106,31.91-8.978c8.307-6.738,13.973-16.098,17.514-26.096
								c7.072-19.967-1.547-38.109-15.197-52.837c-6.539-7.055-14.893-13.479-24.426-15.651c-8.419-1.917-15.918,1.846-22.412,6.888
								c-8.225,6.385-14.643,15.402-19.577,24.473c-4.309,7.919-7.717,16.922-7.227,26.059
								C275.979,497.263,292.995,520.701,314.297,522.912c3.206,0.333,3.174-4.671,0-5c-21.516-2.231-38.367-30.537-33.479-50.727
								c2.548-10.515,8.683-20.455,15.543-28.688c5.861-7.032,14.176-14.972,23.973-14.649c10.446,0.342,19.935,9.391,26.448,16.66
								c6.814,7.604,12.204,16.613,14.331,26.645c2.309,10.884-2.771,23.154-8.476,32.146c-7.396,11.66-18.179,16.87-31.664,18.44
								c-2.219,0.259-4.45,0.295-6.678,0.174C311.072,517.737,311.091,522.738,314.297,522.912z"/>
						</g>
					</g>
					<g id="Pupils_4_">
						<g>
							<g>
								<path fill="#11141E" d="M609.941,447.662c0-0.225,0.062-1.312,0.014-1.042c0.091-0.52,0.005,0.066-0.234,0.154
									c2.155-0.799,5.39,0.001,7.557,0.299c-0.582-1.024-1.164-2.05-1.746-3.075c-0.5,1.5-1,3-1.5,4.5
									c0.582-0.582,1.164-1.164,1.746-1.745c-2.935,0.424-6.313,0.613-8.905,2.226c-2.265,1.408-3.854,4.043-5.696,5.917
									c-2.118,2.151,0.545,5.028,3.028,3.926c4.385-1.943,9.81-1.335,14.401-2.748c-0.94-1.224-1.882-2.448-2.822-3.672
									c-1,1.5-2,3-3,4.5c1.142-0.299,2.281-0.598,3.421-0.896c-1.215-0.54-5.678-2.046-5.313-3.969
									c0.406-2.143,2.226-4.197,3.211-6.109c1.474-2.861-2.841-5.392-4.318-2.523c-1.471,2.855-3.618,5.479-3.916,8.773
									c-0.386,4.261,4.662,6.746,7.813,8.146c1.305,0.58,2.601,0.333,3.421-0.896c0.999-1.5,1.999-3,2.998-4.5
									c1.222-1.833-0.788-4.298-2.822-3.672c-5.084,1.563-10.705,1.083-15.597,3.251c1.01,1.309,2.02,2.617,3.029,3.926
									c1.62-1.647,2.982-3.602,4.694-5.148c1.614-1.459,5.677-1.416,7.702-1.708c0.862-0.125,1.493-0.988,1.746-1.746
									c0.499-1.5,0.999-3,1.498-4.5c0.39-1.168-0.441-2.896-1.746-3.074c-5.432-0.748-13.651-2.293-13.663,5.409
									C604.938,450.887,609.938,450.887,609.941,447.662L609.941,447.662z"/>
							</g>
						</g>
						<g>
							<g>
								<path fill="#11141E" d="M334.712,470.262c0-0.226,0.061-1.313,0.014-1.042c0.09-0.521,0.004,0.065-0.235,0.153
									c2.155-0.799,5.391,0.001,7.558,0.3c-0.582-1.025-1.164-2.051-1.746-3.075c-0.5,1.5-1,3-1.5,4.5
									c0.582-0.582,1.164-1.164,1.746-1.746c-2.936,0.424-6.314,0.614-8.905,2.226c-2.265,1.408-3.854,4.043-5.697,5.917
									c-2.118,2.151,0.545,5.028,3.029,3.927c4.384-1.944,9.809-1.335,14.401-2.748c-0.94-1.225-1.883-2.448-2.822-3.673
									c-1,1.5-2,3-3,4.5c1.141-0.299,2.281-0.598,3.421-0.896c-1.215-0.54-5.678-2.046-5.313-3.968
									c0.406-2.144,2.227-4.198,3.212-6.11c1.474-2.861-2.842-5.391-4.318-2.522c-1.471,2.854-3.618,5.478-3.916,8.772
									c-0.386,4.261,4.662,6.746,7.813,8.146c1.306,0.58,2.602,0.333,3.422-0.897c0.998-1.5,1.998-3,2.997-4.5
									c1.223-1.833-0.788-4.298-2.821-3.672c-5.084,1.563-10.705,1.083-15.598,3.251c1.011,1.309,2.021,2.618,3.029,3.926
									c1.621-1.646,2.983-3.601,4.695-5.147c1.613-1.459,5.677-1.416,7.702-1.708c0.861-0.125,1.492-0.989,1.745-1.746
									c0.5-1.5,1-3,1.498-4.5c0.391-1.168-0.44-2.896-1.746-3.075c-5.432-0.748-13.65-2.293-13.662,5.41
									C329.707,473.486,334.707,473.485,334.712,470.262L334.712,470.262z"/>
							</g>
						</g>
					</g>
				</g>
				<g id="Mouth_5_">
					<g>
						<g>
							<path fill="#A03522" d="M536.344,845.369c-2.086-9.813-8.331-18.436-14.391-26.194c-5.65-7.239-12.071-14.485-19.416-20.065
								c-20.654-15.696-45.337-27.135-71.681-27.218c-16.864-0.054-35.726,6.369-45.053,21.213
								c-10.554,16.795-2.73,41.564,11.311,53.882c15.095,13.241,37.143,9.971,54.348,3.307c5.527-2.143,10.728-4.996,16.218-7.229
								c6.729-2.735,13.773-4.637,20.947-5.747c15.712-2.43,31.332,1.372,44.045,10.877c2.585,1.934,5.072-2.411,2.522-4.317
								c-20.953-15.666-47.63-14.632-70.888-4.795c-17.764,7.515-37.685,17.642-57.004,8.646
								c-18.763-8.735-28.303-38.122-15.188-54.997c12.695-16.339,37.123-17.567,55.71-14.171
								c19.701,3.6,39.871,13.84,54.833,27.135c6.291,5.59,11.954,12.018,17.058,18.693c5.047,6.604,10.056,14.067,11.809,22.313
								C532.192,849.853,537.013,848.516,536.344,845.369L536.344,845.369z"/>
						</g>
					</g>
					<g>
						<g>
							<g>
								<path fill="#A03522" d="M435.28,850.077c5.859-18.431,35.313-32.908,50.377-16.721c2.2,2.365,5.729-1.179,3.535-3.535
									c-17.749-19.075-51.772-2.967-58.733,18.927C429.479,851.829,434.308,853.139,435.28,850.077L435.28,850.077z"/>
							</g>
						</g>
						<g>
							<g>
								<path fill="#A03522" d="M446.936,834.675c4.5-10.251-8.599-17.604-16.263-21.06c-14.364-6.477-30.128-1.854-43.757,4.258
									c-2.938,1.318-0.393,5.626,2.523,4.318c11.352-5.092,24.572-9.296,36.856-4.996c4.627,1.619,19.261,8.259,16.319,14.955
									C441.334,835.073,445.642,837.62,446.936,834.675L446.936,834.675z"/>
							</g>
						</g>
					</g>
				</g>
			</g>
			<g id="Hair_4_">
				<g>
					<g>
						<path fill="#6F3819" d="M731.456,367.674c37.014-49.432,85.873-108.535,155.146-96.057c3.151,0.568,4.498-4.25,1.328-4.821
							c-71.939-12.96-122.207,46.824-160.793,98.354C725.203,367.734,729.549,370.223,731.456,367.674L731.456,367.674z"/>
					</g>
				</g>
				<g>
					<g>
						<path fill="#6F3819" d="M731.798,366.412c0.134-30.193,9.086-59.661,26.468-84.415c18.315-26.084,45.825-44.323,76.361-52.841
							c3.102-0.865,1.782-5.689-1.328-4.821c-31.195,8.702-58.416,26.996-77.793,52.986c-19.04,25.539-28.567,57.399-28.708,89.091
							C726.782,369.638,731.782,369.637,731.798,366.412L731.798,366.412z"/>
					</g>
				</g>
				<g>
					<g>
						<path fill="#6F3819" d="M731.798,366.412c-0.021-41.781-2.355-83.648-8.825-124.957
							c-6.536-41.733-17.319-84.952-40.541-120.792c-22.917-35.368-61.639-58.037-102.264-67.026
							c-45.516-10.073-93.537-3.317-137.346,11.078c-43.955,14.444-85.473,37.34-121.269,66.629
							c-35.734,29.238-64.942,66.925-106.75,88.234c-26.78,13.651-56.684,16.588-86.178,12.34c-1.938-0.278-4.202,1.635-2.822,3.672
							c25.296,37.373,51.396,75.376,85.574,105.299c32.314,28.292,71.71,45.392,115.01,45.167
							c50.187-0.262,98.705-21.111,142.105-44.597c37.666-20.382,74.378-45.219,117.104-53.514
							c29.035-5.636,58.896-2.513,84.956,11.922c26.314,14.576,45.484,39.479,56.331,67.209c1.161,2.968,5.998,1.678,4.821-1.329
							c-16.842-43.059-52.273-76.397-98.666-84.128c-42.229-7.036-83.807,9.869-120.214,29.45
							c-19.878,10.69-39.249,22.292-59.302,32.663c-22.815,11.8-46.51,21.746-71.264,28.689
							c-24.444,6.857-49.732,10.317-75.083,7.714c-21.581-2.216-42.341-9.494-61.099-20.271
							c-50.182-28.832-84.267-79.972-115.961-126.798c-0.94,1.224-1.883,2.448-2.822,3.672c23.303,3.355,46.822,2.786,69.394-4.338
							c20.265-6.396,38.319-17.925,54.883-31.005c19.185-15.148,36.536-32.527,54.24-49.334
							c16.273-15.449,33.805-29.238,52.665-41.406c76.353-49.262,184.957-81.41,269.502-33.537
							c17.992,10.188,34.06,23.559,46.209,40.339c12.072,16.673,20.582,35.748,27.244,55.137
							c14.544,42.327,20.454,87.493,23.413,131.977c1.369,20.583,1.938,41.215,1.949,61.841
							C726.8,369.637,731.8,369.638,731.798,366.412L731.798,366.412z"/>
					</g>
				</g>
				<g>
					<g>
						<path fill="#6F3819" d="M520.774,49.725c-7.878-5.769-17.541-8.863-26.894-11.275c-12.327-3.179-25.102-4.742-37.784-5.562
							c-25.936-1.677-52.59,0.901-78.188,5.1C327.63,46.233,277.88,65.255,239.085,98.956
							c-15.049,13.072-28.971,28.183-41.887,43.335c-13.187,15.472-24.72,32.357-32.414,51.243
							c-0.938,2.301,1.951,3.573,3.672,2.823c17.838-7.778,38.349-10.51,57.504-12.862c9.238-1.135,18.524-1.961,27.826-2.376
							c5.733-0.256,12.104-0.823,17.754,0.489c3.138,0.729,4.47-4.092,1.33-4.821c-5.822-1.352-12.18-0.923-18.094-0.708
							c-10.06,0.366-20.101,1.346-30.088,2.573c-19.695,2.418-40.434,5.398-58.757,13.389c1.225,0.941,2.448,1.882,3.672,2.823
							c11.161-27.388,30.912-50.059,51.293-71.025c9.232-9.497,18.437-18.915,28.765-27.237
							c10.198-8.221,21.29-15.323,32.756-21.635c46.299-25.481,99.813-35.708,152.191-37.434
							c15.986-0.527,32.108,0.654,47.839,3.531c12.276,2.246,25.57,5.485,35.803,12.978
							C520.857,55.95,523.349,51.608,520.774,49.725L520.774,49.725z"/>
					</g>
				</g>
				<g>
					<g>
						<path fill="#6F3819" d="M200.197,386.719c-25.841-0.329-51.151-14.597-71.39-29.662c-0.643,1.522-1.284,3.046-1.926,4.568
							c34.685,6.17,73.52,9.522,106.213-6.267c-1.141-1.14-2.28-2.28-3.42-3.42c-10.452,23.377-15.219,49.245-18.203,74.533
							c-3.12,26.439-4.167,54.213,1.316,80.422c1.606-0.443,3.215-0.886,4.821-1.329c-11.178-26.849-27.204-51.351-45.853-73.59
							c-17.295-20.625-37.373-39.67-60.308-53.917c-0.644,1.522-1.284,3.046-1.927,4.568c14.953,4.921,30.386,8.19,46,10.121
							c14.938,1.848,30.599,2.408,45.338-1.121c3.136-0.75,1.806-5.571-1.33-4.82c-13.824,3.31-28.396,2.651-42.421,1.126
							c-15.683-1.706-31.279-5.198-46.259-10.127c-2.771-0.912-4.271,3.111-1.926,4.568c22.156,13.764,41.297,32.106,58.203,51.847
							c18.602,21.719,34.646,46.224,45.658,72.672c1.215,2.917,5.498,1.904,4.821-1.329c-5.194-24.829-4.124-51.038-1.473-76.11
							c2.674-25.286,7.414-51.643,17.854-74.993c1.03-2.303-1.063-4.559-3.42-3.42c-31.342,15.135-69.139,11.672-102.36,5.764
							c-2.871-0.512-4.215,2.864-1.926,4.568c20.951,15.599,47.18,30.004,73.912,30.344
							C203.424,391.76,203.42,386.76,200.197,386.719L200.197,386.719z"/>
					</g>
				</g>
				<g>
					<g>
						<path fill="#6F3819" d="M727.139,368.15c-14.019,32.897-13.088,73.654,9.502,102.622
							c9.624,12.341,23.889,20.955,39.462,22.984c22.896,2.983,47.903,4.541,69.858-3.935c2.164-0.835,2.59-4.165,0-4.82
							c-14.068-3.567-27.761-8.674-40.656-15.34c-13.207-6.827-26.826-15.979-33.851-29.512c-0.939,1.225-1.882,2.448-2.821,3.672
							c18.43,3.892,36.938,1.996,53.926-6.252c2.308-1.12,1.109-4.657-1.262-4.659c-16.056-0.01-33.018,0.677-48.691-3.407
							c-10.813-2.817-17.99-9.652-23.15-19.354c-1.14,1.14-2.278,2.28-3.42,3.42c18.856,11.158,47.265,2.727,63.029-10.391
							c1.739-1.447,0.267-4.265-1.768-4.269c-14.573-0.023-29.4-0.427-43.409-4.843c-13.869-4.373-24.569-13.898-32.434-25.918
							c-1.757-2.688-6.088-0.184-4.315,2.522c8.002,12.234,18.411,21.659,32.094,27.042c15.064,5.928,32.11,6.171,48.064,6.196
							c-0.59-1.422-1.18-2.845-1.769-4.268c-14.021,11.666-40.198,19.534-56.971,9.608c-2.228-1.316-4.572,1.254-3.42,3.42
							c5.322,10.009,12.745,17.269,23.604,20.902c16.438,5.5,35.508,4.325,52.553,4.336c-0.42-1.553-0.841-3.105-1.262-4.658
							c-15.721,7.633-33.031,9.346-50.074,5.748c-2.177-0.46-3.86,1.671-2.821,3.672c7.013,13.513,20.146,22.78,33.157,29.977
							c13.847,7.658,29.019,13.288,44.336,17.172c0-1.606,0-3.214,0-4.821c-20.289,7.832-42.836,6.607-64.063,4.29
							c-15.969-1.743-29.34-8.79-39.662-21.146c-22.115-26.475-22.447-66.973-9.453-97.471
							C732.703,367.743,728.397,365.192,727.139,368.15z"/>
					</g>
				</g>
			</g>
			<g id="Facial_Hair_4_">
				<g>
					<g>
						<path fill="#4B2E12" d="M440.454,944.675c5.311-12.331-6.676-23.226-15.663-30.009c-3.916-2.956-7.984-5.679-11.796-8.78
							c-4.084-3.325-9.353-7.556-10.667-12.906c-1.486-6.061,7.346-1.506,9.153-0.531c4.997,2.69,9.596,6.146,14.146,9.515
							c4.839,3.584,9.424,7.078,13.63,11.448c6.57,6.827,11.984,14.688,18.271,21.771c1.148,1.295,3.925,0.756,4.179-1.104
							c1.473-10.783-4.774-18.05-13.254-23.766c-6.564-4.426-19.646-8.706-21.531-17.405c-0.472-2.172,1.104-9.406,4.231-8.47
							c3.824,1.146,7.066,6.862,9.172,9.868c3.195,4.563,6.088,9.329,9.229,13.929c2.019,2.957,4.269,6.542,7.48,8.337
							c1.868,1.045,4.318-0.669,3.672-2.823c-2.93-9.762-18.185-26.089-8.643-35.566c-1.309-0.168-2.617-0.337-3.926-0.506
							c5.049,9.73,4.578,21.102,12.391,29.506c1.493,1.605,4.295,0.366,4.269-1.769c-0.1-7.794-3.157-19.884,4.762-24.842
							c-1.225-0.498-2.448-0.996-3.672-1.493c1.803,11.477-2.172,23.779,3.252,34.598c0.989,1.974,4.034,1.402,4.567-0.598
							c1.849-6.912,1.883-15.573,8.853-19.507c-1.141-0.299-2.28-0.598-3.42-0.896c1.893,3.598-0.525,8.979-1.884,12.356
							c-2.542,6.322-6.327,12.227-10.188,17.809c-3.644,5.271-7.707,10.275-12.203,14.844c-1.541,1.564-6.389,7.058-8.903,6.317
							c-3.102-0.909-4.416,3.915-1.328,4.822c4.211,1.236,8.551-2.809,11.392-5.335c5.642-5.017,10.376-11.135,14.749-17.255
							c4.605-6.446,8.673-13.331,11.632-20.691c1.886-4.688,3.559-10.628,1.05-15.392c-0.641-1.219-2.273-1.543-3.42-0.896
							c-8.444,4.765-8.894,14.051-11.147,22.492c1.521-0.197,3.046-0.396,4.567-0.597c-4.99-9.957-1.063-22.692-2.748-33.403
							c-0.25-1.592-2.41-2.281-3.672-1.492c-10.133,6.343-7.367,19.043-7.238,29.157c1.424-0.589,2.847-1.179,4.269-1.768
							c-7.269-7.819-6.854-19.331-11.609-28.494c-0.75-1.446-2.825-1.599-3.926-0.506c-12.264,12.18,3.678,28.177,7.357,40.433
							c1.224-0.94,2.446-1.883,3.672-2.822c-3.563-1.991-5.979-6.925-8.134-10.207c-3.354-5.106-6.602-10.272-10.353-15.104
							c-2.441-3.144-5.871-7.271-10.159-7.644c-4.475-0.39-6.742,3.833-8.026,7.445c-8.362,23.509,37.135,23.037,34,46
							c1.393-0.366,2.784-0.734,4.178-1.103c-6.67-7.517-12.478-15.751-19.453-22.999c-4.312-4.48-9.283-7.91-14.247-11.585
							c-4.95-3.665-20.808-17.521-27.468-10.787c-8.428,8.519,5.169,19.656,11.261,24.514c3.985,3.18,8.404,5.852,12.271,9.163
							c5.858,5.021,16.527,13.33,12.71,22.2C434.877,945.078,439.184,947.629,440.454,944.675L440.454,944.675z"/>
					</g>
				</g>
				<g>
					<g>
						<path fill="#4B2E12" d="M378.861,643.181c-0.584-0.72-0.211,0.364-0.259,1.155c-0.072,1.172-0.356,2.336-0.608,3.479
							c-0.805,3.647-1.974,7.222-3.148,10.764c-2.771,8.343-6.002,16.535-9.325,24.669c-2.228,5.449-4.441,10.954-7.05,16.236
							c-2.284,4.628-4.194,9.622-5.828,14.512c-1.22,3.649-2.703,8.813-0.864,12.521c3.306,6.667,9.771,2.694,12.823-1.661
							c5.174-7.387,7.622-17.077,10.46-25.518c2.706-8.048,5.858-15.925,8.582-23.969c2.887-8.521,5.411-17.874,10.413-25.452
							c1.673-2.533,1.415-2.17,1.395,0.613c-0.03,4.214-1.31,8.508-2.378,12.549c-2.341,8.855-5.438,17.487-8.205,26.213
							c-2.759,8.709-5.99,17.32-8.087,26.223c-1.466,6.227-3.229,15.722,3.264,19.761c11.342,7.054,14.086-30.354,14.754-35.049
							c1.221-8.578,3.405-16.916,6.127-25.138c1.662-5.021,3.565-9.971,5.786-14.771c1.462-3.162,3.247-7.6,6.165-9.738
							c0.718-0.524-0.202-0.33,0.423-0.087c0.638,0.248-0.811-0.572-0.98-0.994c0.191,0.473,0.16,0.712,0.181,1.382
							c0.063,2.226-0.266,4.487-0.572,6.686c-0.963,6.887-2.321,13.72-3.543,20.563c-2.577,14.441-5.961,29.906-4.387,44.64
							c0.479,4.492,1.641,9.215,5.477,11.994c4.465,3.235,7.98-0.596,9.61-4.604c3.001-7.39,3.261-16.318,3.975-24.162
							c0.719-7.889,1.494-15.767,2.26-23.646c0.896-9.219-0.498-18.948,2.154-27.936c0.215-0.728,0.535-1.492,1.01-2.094
							c0.571-0.724-0.794-1.478-0.495-0.161c0.446,1.962,0.076,4.324-0.038,6.309c-0.286,4.953-0.895,9.832-0.207,14.779
							c1.438,10.362,5.142,20.269,6.972,30.586c1.568,8.847,3.115,17.763,5.758,26.362c1.02,3.32,3.851,12.729,9.175,10.927
							c5.485-1.856,3.996-10.894,3.604-15.17c-1.563-17.057-5.622-33.938-8.313-50.846c-0.705-4.438-1.303-8.892-1.617-13.374
							c-0.12-1.707-0.146-3.417-0.071-5.126c0.026-0.629,0.117-1.229,0.251-1.842c0.317-1.469-1.896-0.871-1.435-0.141
							c2.084,3.297,2.437,8.375,3.17,12.113c1.039,5.288,1.957,10.59,3.511,15.758c2.027,6.752,5.135,13.194,7.91,19.658
							c2.107,4.906,3.572,9.886,5.236,14.938c1.584,4.809,5.857,17.049,13.225,13.711c6.243-2.828,1.318-13.907-0.298-18.121
							c-3.555-9.265-6.923-18.563-9.866-28.052c-3.184-10.256-7.107-22.648-4.546-33.444c0.462-1.946-0.199-0.157-0.938-0.604
							c0.588,0.355,1.07,1.344,1.425,1.897c1.775,2.78,3.071,5.909,4.319,8.95c5.359,13.062,8.351,26.839,14.753,39.473
							c4.086,8.063,8.767,16.099,14.55,23.072c2.437,2.938,8.173,6.719,9.482,0.504c1.347-6.389-4.299-14.926-6.971-20.31
							c-3.954-7.97-8.521-15.728-10.729-24.396c-2.533-9.941-5.623-19.741-7.757-29.783c-0.41-1.928-0.756-3.869-0.95-5.831
							c-0.068-0.69-0.078-1.383-0.074-2.076c0.011-1.635,0.439-0.067-0.779-0.251c3.063,0.459,5.628,5.3,7.091,7.577
							c9.487,14.793,14.104,32.081,22.61,47.386c3.109,5.593,7.952,15.175,14.909,16.733c5.991,1.343,6.602-5.123,5.635-9.199
							c-1.967-8.3-6.65-16.254-10.467-23.796c-4.586-9.063-9.531-18.057-13.153-27.563c-1.237-3.249-2.68-6.416-3.808-9.708
							c-0.572-1.669-1.025-3.377-1.028-5.148c-0.005-2.33,4.798,1.045,5.365,1.605c3.564,3.518,5.676,8.85,7.84,13.276
							c1.615,3.308,3.443,6.468,5.154,9.718c3.362,6.385,29.495,58.378,40.174,42.791c2.57-3.75-1.789-9.954-3.713-12.938
							c-3.258-5.049-7.285-9.5-10.312-14.7c-5.494-9.444-9.827-19.427-16.385-28.233c-2.909-3.907-6.06-7.633-9.103-11.436
							c-0.871-1.088-6.702-7.51-5.598-9.229c1.75-2.722-2.579-5.227-4.315-2.523c-1.619,2.517-0.38,5.337,0.907,7.705
							c2.666,4.903,6.776,9.204,10.264,13.518c9.001,11.136,14.234,24.01,21.854,35.979c3.809,5.98,9.479,11.045,11.794,17.912
							c0.954,2.836-2.065,1.182-3.478,0.281c-3.17-2.024-5.709-5.386-7.956-8.333c-9.236-12.121-16.438-26.202-23.355-39.753
							c-3.688-7.224-7.274-18.785-16.145-21.028c-8.338-2.108-8.563,6.257-6.787,11.867c5.594,17.663,15.553,33.714,23.326,50.427
							c1.604,3.446,3.116,6.964,4.102,10.642c0.723,2.694,0.883,3.996-1.772,1.871c-7.014-5.614-11.347-15.915-15.007-23.865
							c-6.657-14.46-11.131-32.16-22.583-43.74c-3.578-3.618-9.457-4.642-10.247,1.582c-0.401,3.165,0.547,6.739,1.169,9.813
							c1.06,5.243,2.494,10.415,3.897,15.573c2.32,8.524,4.149,17.204,7.861,25.251c3.971,8.609,8.914,16.808,12.3,25.681
							c0.557,1.456,1.002,2.946,1.302,4.476c0.078,0.401,0.089,0.876,0.005,1.276c0.422-2.005,2.631,0.342,1.208-0.804
							c-2.836-2.286-4.903-5.736-6.899-8.722c-5.519-8.258-10.477-17.221-14.012-26.514c-4.549-11.958-7.168-24.531-13.227-35.939
							c-1.4-2.642-5.308-8.626-8.866-4.999c-4.619,4.707-2.452,15.649-1.614,21.194c1.899,12.563,6.509,24.669,10.633,36.626
							c2.179,6.315,7.678,14.758,6.698,21.556c-0.191,1.327-2.749-2.183-3.045-2.65c-1.265-1.997-2.083-4.271-2.879-6.48
							c-1.579-4.388-2.715-8.878-4.44-13.217c-2.763-6.939-6.023-13.659-8.506-20.714c-1.853-5.264-2.789-10.792-3.84-16.255
							c-0.658-3.427-1.909-18.585-8.334-16.989c-5.463,1.357-3.752,11.259-3.398,15.072c1.564,16.919,5.476,33.679,8.221,50.43
							c0.75,4.578,1.394,9.176,1.704,13.806c0.113,1.698,0.126,3.4,0.029,5.101c-0.036,0.631-0.152,1.221-0.3,1.833
							c-0.338,1.4-0.258-0.062,0.629,0.372c-2.009-0.982-2.958-5.553-3.56-7.417c-1.423-4.416-2.398-8.982-3.342-13.521
							c-1.56-7.5-2.568-15.119-4.242-22.596c-1.658-7.419-4.461-14.367-5.242-22.002c-0.492-4.805,0.387-9.771,0.603-14.574
							c0.12-2.675,0.333-6.397-1.832-8.392c-2.106-1.939-5.187-0.393-6.68,1.498c-4.82,6.103-3.689,17.219-3.863,24.456
							c-0.188,7.836-1.254,15.556-1.89,23.362c-0.739,9.075-1.271,18.271-3.221,27.188c-0.323,1.482-1.223,6.155-2.521,6.684
							c-0.674,0.273-2.366-1.916-2.824-3.021c-2.245-5.41-1.681-12.081-1.321-17.771c0.986-15.582,4.467-30.924,7.051-46.286
							c0.605-3.602,4.722-23.665-5.613-17.628c-6.163,3.601-9.173,13.928-11.58,20.08c-3.426,8.754-6.241,17.911-7.949,27.166
							c-1.589,8.605-2.312,17.346-4.037,25.934c-0.69,3.439-1.479,7.051-3.173,10.152c-1.926,3.523-3.037-1.797-3.139-3.764
							c-0.492-9.537,4.149-19.719,7.128-28.586c2.646-7.877,5.151-15.825,7.635-23.755c2.395-7.642,5.494-16.168,5.195-24.297
							c-0.189-5.142-4.564-7.759-8.684-4.25c-5.48,4.669-7.845,14.539-10.143,21.002c-2.989,8.406-5.846,16.835-8.979,25.188
							c-2.255,6.008-4.104,12.164-6.303,18.191c-1.748,4.791-3.941,12.739-8.574,15.661c-2.48,1.565-1.448-5.304-1.316-5.955
							c0.851-4.202,2.62-8.278,4.28-12.209c1.661-3.935,3.486-7.791,5.189-11.707c4.62-10.628,8.949-21.406,12.782-32.343
							c1.717-4.896,3.366-9.865,4.411-14.954c0.551-2.682,1.158-5.879-0.702-8.172C380.364,637.14,376.851,640.7,378.861,643.181
							L378.861,643.181z"/>
					</g>
				</g>
				<g>
					<g>
						<path fill="#4B2E12" d="M292.887,338.747c-3.714,10.711-9.355,20.755-13.267,31.425c-2.286,6.236-8.927,22.33-0.251,26.731
							c1.152,0.585,2.782,0.372,3.42-0.897c10.131-20.165,9.696-45.681,25.608-62.827c-1.309-0.168-2.617-0.338-3.926-0.507
							c6.668,9.925-3.67,23.96-8.386,32.634c-4.607,8.472-11.104,19.86-5.614,29.366c0.909,1.575,3.433,1.676,4.316,0
							c5.817-11.021,12.158-22.428,16.771-34.001c3.091-7.753,4.159-20.146,12.331-24.435c-1.141-0.299-2.28-0.598-3.42-0.897
							c5.482,10.318-2.529,22.04-7.69,30.799c-5.438,9.226-12.097,19.424-11.317,30.606c0.104,1.486,1.543,3.021,3.165,2.411
							c8.92-3.348,11.097-15.092,13.294-23.213c3.545-13.101,8.756-27.796,17.809-38.097c-1.423-0.59-2.845-1.179-4.268-1.769
							c-0.085,4.103-1.325,8.287-2.225,12.262c-1.429,6.331-2.979,12.636-4.447,18.957c-1.378,5.928-2.723,11.874-3.698,17.883
							c-0.499,3.065-1.54,7.303-0.308,10.325c1.497,3.672,5.519,2.421,7.786,0.214c3.855-3.751,5.207-10.466,6.442-15.45
							c1.297-5.234,2.013-10.589,3.263-15.83c2.451-10.279,7.511-19.396,13.845-27.766c-1.554-0.42-3.105-0.841-4.658-1.262
							c0.891,10.661-4.473,20.38-7.243,30.396c-3.033,10.957-4.62,22.282-5.423,33.604c-0.122,1.727,1.679,2.706,3.165,2.411
							c4.313-0.855,6.84-4.969,8.568-8.653c2.943-6.269,4.491-13.195,6.093-19.897c1.763-7.381,3.354-14.805,5.5-22.087
							c1.629-5.53,3.575-12.257,8.273-16.005c-1.393-0.368-2.785-0.735-4.178-1.104c8.27,22.342-14.657,43.083-10,65.333
							c0.66,3.155,5.479,1.816,4.819-1.329c-2.188-10.465,3.9-22.334,7.149-32.014c3.538-10.538,6.878-22.443,2.851-33.32
							c-0.693-1.877-2.651-2.321-4.178-1.103c-3.927,3.133-5.987,8.078-7.719,12.647c-2.598,6.856-4.176,14.106-5.84,21.23
							c-1.577,6.755-3.079,13.544-5.211,20.151c-1.162,3.604-3.062,10.455-7.461,11.327c1.056,0.805,2.109,1.607,3.165,2.411
							c0.845-11.916,2.646-23.82,6.111-35.273c2.869-9.481,7.403-18.562,6.555-28.727c-0.219-2.6-3.15-3.255-4.659-1.262
							c-8.714,11.515-13.327,23.679-16.064,37.664c-1.057,5.4-2.261,10.814-4.227,15.967c-0.676,1.77-1.654,4.058-3.334,5.09
							c-0.339,0.208,1.491,1.978,1.179,0.449c-0.13-0.637-0.017-1.422,0.012-2.066c0.426-9.997,3.654-20.199,5.948-29.881
							c1.925-8.121,4.972-16.88,5.146-25.294c0.043-2.097-2.813-3.424-4.269-1.768c-8.394,9.55-12.37,21.62-16.962,33.243
							c-1.792,4.535-2.712,9.439-4.118,14.103c-1.286,4.263-3.152,10.928-7.816,12.678c1.056,0.805,2.109,1.607,3.165,2.411
							c-1.548-22.22,30.329-41.343,18.324-63.928c-0.659-1.243-2.252-1.51-3.42-0.897c-7.859,4.124-10.304,14.215-12.779,22.01
							c-1.801,5.663-4.467,10.696-7.104,16.013c-3.672,7.404-7.154,14.896-11.014,22.208c1.438,0,2.878,0,4.316,0
							c-5.581-9.665,5.484-23.928,9.865-32.139c4.686-8.782,10.456-20.454,4.134-29.861c-0.863-1.286-2.771-1.75-3.926-0.506
							c-16.451,17.729-15.973,43.102-26.391,63.839c1.14-0.299,2.279-0.599,3.42-0.897c-2.955-1.5-1.381-7.329-0.872-9.761
							c1.173-5.604,3.243-11.039,5.335-16.353c3.498-8.888,8.226-17.377,11.354-26.397
							C298.768,337.021,293.937,335.721,292.887,338.747L292.887,338.747z"/>
					</g>
				</g>
				<g>
					<g>
						<path fill="#4B2E12" d="M559.668,319.25c-5.888,11.915-10.275,24.825-12.8,37.867c-2.071,10.713-3.686,25.604,6.197,33.05
							c1.16,0.874,2.702,0.107,3.42-0.896c13.592-19.003-1.891-54.186,21.603-66.601c-1.254-0.72-2.509-1.438-3.763-2.158
							c2.67,19.938-7.069,39.217-2.909,59.161c0.413,1.984,2.853,2.23,4.179,1.104c7.494-6.368,8.438-16.747,9.425-25.901
							c1.311-12.174,2.78-25.084,14.067-32.205c-1.255-0.72-2.509-1.438-3.763-2.158c-0.098,4.009-1.461,8.159-2.351,12.042
							c-1.54,6.726-3.104,13.445-4.404,20.223c-1.045,5.451-6.234,24.557,2.224,27.103c8.633,2.599,11.783-14.367,13.42-19.574
							c2.302-7.331,4.388-14.729,6.729-22.047c1.663-5.194,3.199-11.608,6.649-15.979c-1.394-0.368-2.785-0.735-4.179-1.104
							c4.061,11.57-2.051,22.847-6.264,33.445c-3.74,9.41-5.165,18.336-1.257,27.92c1.584,3.886,5.228,7.543,9.103,3.789
							c3.979-3.854,5.277-11.275,6.627-16.369c3.612-13.624,5.64-27.662,12.285-40.31c0.296-0.563,0.635-1.187,1.021-1.609
							c-1.003,1.101-2.961-1.7-2.609-0.325c0.427,1.667,0.225,3.614,0.181,5.315c-0.155,6.031-0.804,12.058-1.365,18.063
							c-0.55,5.867-1.134,11.734-1.506,17.616c-0.222,3.483-0.731,7.552,0.287,10.962c0.92,3.082,5.744,1.769,4.819-1.328
							c-1.097-3.676-0.196-8.597,0.082-12.406c0.478-6.554,1.167-13.092,1.759-19.637c0.326-3.604,4.234-23.96-3.473-22.85
							c-3.585,0.518-5.623,8.194-6.646,10.756c-2.657,6.666-4.736,13.316-6.313,20.299c-1.638,7.264-3.207,14.571-5.552,21.646
							c-0.737,2.224-1.551,4.851-3.133,6.642c-0.515,0.582,0.498,0.438,0.18,0.021c-1.083-1.415-1.588-3.274-2.108-4.944
							c-3.232-10.361,1.687-20.074,5.549-29.548c3.726-9.137,6.552-18.796,3.153-28.476c-0.553-1.576-2.915-2.703-4.178-1.104
							c-6.59,8.344-8.835,20.887-11.814,30.84c-1.771,5.913-3.515,11.84-5.598,17.652c-0.749,2.091-1.573,4.152-2.617,6.115
							c-0.773,1.453-0.998,1.895-1.578,1.805c-5.689-0.882,7.732-48.775,7.876-54.645c0.046-1.86-2.171-3.163-3.762-2.159
							c-10.039,6.333-13.903,16.562-15.53,27.873c-1.454,10.108-0.436,23.76-8.974,31.015c1.393,0.368,2.785,0.735,4.179,1.104
							c-4.042-19.378,5.695-38.364,3.088-57.833c-0.25-1.869-1.931-3.127-3.762-2.159c-25.995,13.736-8.979,48.236-23.396,68.394
							c1.141-0.299,2.279-0.598,3.421-0.896c-8.552-6.441-5.021-22.436-3.146-31.079c2.458-11.327,6.405-22.604,11.541-32.997
							C565.408,318.895,561.097,316.359,559.668,319.25L559.668,319.25z"/>
					</g>
				</g>
			</g>
		</g>
	</g>
</g>
<g id="Layer_6">
</g>
<g id="Layer_5">
</g>
<g id="Layer_4">
</g>
<g id="Layer_3">
</g>
<g id="Layer_2">
</g>
<g id="Layer_1">
</g>
</svg>
