<?xml version="1.0" encoding="utf-8"?>
<!-- Generator: Adobe Illustrator 16.0.0, SVG Export Plug-In . SVG Version: 6.00 Build 0)  -->
<!DOCTYPE svg PUBLIC "-//W3C//DTD SVG 1.1//EN" "http://www.w3.org/Graphics/SVG/1.1/DTD/svg11.dtd">
<svg version="1.1" xmlns="http://www.w3.org/2000/svg" xmlns:xlink="http://www.w3.org/1999/xlink" x="0px" y="0px" width="1024px"
	 height="1024px" viewBox="0 0 1024 1024" enable-background="new 0 0 1024 1024" xml:space="preserve">
<g id="Layer_4">
</g>
<g id="Layer_7">
</g>
<g id="Layer_9">
</g>
<g id="Layer_8">
</g>
<g id="Layer_6">
</g>
<g id="Layer_2">
</g>
<g id="Layer_5">
</g>
<g id="Layer_3">
</g>
<g id="Layer_1">
	<g>
		<g id="Coin_Slot">
			<g>
				
					<linearGradient id="SVGID_1_" gradientUnits="userSpaceOnUse" x1="-282.8252" y1="231.1211" x2="976.4521" y2="231.1211" gradientTransform="matrix(1 0 0 -1 214.3999 1117.0996)">
					<stop  offset="0" style="stop-color:#B0B0AE"/>
					<stop  offset="1" style="stop-color:#565756"/>
				</linearGradient>
				<path fill="url(#SVGID_1_)" d="M188.818,936.721l17.986-64.756l10.285-36.729h269.194l93.895,39.34
					c0.188,0.076,0.383,0.121,0.578,0.121c0.198,0,0.393-0.045,0.581-0.121l94.016-39.34h126.299l28.629,101.484H188.818z"/>
				<path fill="#010101" d="M800.518,836.752l27.777,98.465H190.806l17.449-62.844l9.969-35.621h267.756l93.611,39.215
					c0.373,0.158,0.776,0.232,1.166,0.232c0.393,0,0.796-0.074,1.159-0.232l93.732-39.215H800.518 M802.798,833.732H675.046
					l-94.289,39.445l-94.165-39.445H215.943l-10.592,37.822l-18.52,66.66h645.445L802.798,833.732L802.798,833.732z"/>
			</g>
			<g>
				
					<linearGradient id="SVGID_2_" gradientUnits="userSpaceOnUse" x1="365.04" y1="377.5977" x2="621.5293" y2="377.5977" gradientTransform="matrix(1 0 0 -1 214.3999 1117.0996)">
					<stop  offset="0" style="stop-color:#B0B0AE"/>
					<stop  offset="1" style="stop-color:#565756"/>
				</linearGradient>
				<polygon fill="url(#SVGID_2_)" points="661.894,808.604 661.894,734.955 744.752,670.4 782.924,808.604 				"/>
				<path fill="#010101" d="M743.901,672.973l37.05,134.123H663.407v-71.406l29.929-23.326L743.901,672.973 M745.6,667.826
					l-54.115,42.158L660.4,734.221v75.891h124.52L745.6,667.826L745.6,667.826z"/>
			</g>
			<g>
				
					<linearGradient id="SVGID_3_" gradientUnits="userSpaceOnUse" x1="87.9189" y1="377.6045" x2="322.2885" y2="377.6045" gradientTransform="matrix(1 0 0 -1 214.3999 1117.0996)">
					<stop  offset="0" style="stop-color:#B0B0AE"/>
					<stop  offset="1" style="stop-color:#565756"/>
				</linearGradient>
				<polygon fill="url(#SVGID_3_)" points="353.617,808.604 362.409,777.17 392.185,670.387 455.691,719.887 467.535,729.037 
					475.049,734.947 475.049,808.604 				"/>
				<path fill="#010101" d="M393.035,672.961l61.742,48.117l11.811,9.139l6.957,5.471v71.408H355.613l8.256-29.518L393.035,672.961
					 M391.334,667.826l-30.378,108.941l-9.323,33.344h124.924v-75.891l-8.105-6.371l-11.832-9.154L391.334,667.826L391.334,667.826z
					"/>
			</g>
			<g>
				<polygon fill="#231F20" points="182.568,885.906 209.182,790.717 215.115,833.844 204.546,871.336 187.225,933.668 				"/>
				<path fill="#010101" d="M208.907,794.85l5.323,38.766l-10.492,37.498l-16.109,57.998l-4.198-42.977L208.907,794.85
					 M209.465,786.611l-27.723,99.379l5.09,52.238l18.52-66.666l10.581-37.83L209.465,786.611L209.465,786.611z"/>
			</g>
			<g>
				<path fill="#B0B0AE" d="M216.674,832.891l-6.248-45.447H344.16l6.667,22.895c0.108,0.357,0.435,0.598,0.806,0.598h124.333
					l9.362,21.955H216.674z"/>
				<path fill="#010101" d="M343.527,788.281l6.504,22.289c0.205,0.715,0.851,1.205,1.602,1.205h123.79l8.64,20.287H217.403
					l-6.021-43.781H343.527 M344.782,786.611H209.465l6.479,47.121h270.648L476.523,810.1H351.633L344.782,786.611L344.782,786.611z
					"/>
			</g>
			<g>
				<polygon fill="#231F20" points="345.568,786.367 383.589,650.506 390.557,668.131 360.15,776.537 351.62,807.066 				"/>
				<path fill="#010101" d="M383.729,653.135l2.301,5.814l3.534,8.971l-30.222,108.4l-7.743,27.705l-5.094-17.43L383.729,653.135
					 M383.459,647.889l-38.697,138.715l6.871,23.508l9.323-33.344l30.366-108.941l-3.742-9.49L383.459,647.889L383.459,647.889z"/>
			</g>
			<g>
				<polygon fill="#767677" points="468.965,727.184 457.133,718.035 391.846,667.16 388.376,658.031 385.377,650.445 
					465.935,713.389 470.101,722.504 474.287,731.363 				"/>
				<path fill="#010101" d="M387.285,653.002l77.819,60.795l4.243,9.072l2.659,5.645l-2.515-1.982l-11.838-9.152l-64.927-50.596
					l-3.565-9.07L387.285,653.002 M383.459,647.889l4.133,10.447l3.742,9.49l65.285,50.873l11.832,9.15l8.105,6.375l-5.705-12.064
					l-4.407-9.428L383.459,647.889L383.459,647.889z"/>
			</g>
			<g>
				<polygon fill="#838383" points="646.724,712.896 728.533,649.023 734.008,655.521 744.404,667.699 660.573,733.01 				"/>
				<path fill="#010101" d="M728.414,650.178l4.961,5.891l9.814,11.504l-52.73,41.092l-29.7,23.145l-7.81-11.322l-5.083-7.408
					L728.414,650.178 M728.674,647.889h-0.055l-83.029,64.834l5.976,8.707l8.823,12.791l31.084-24.236l54.117-42.158l-10.951-12.848
					L728.674,647.889L728.674,647.889z"/>
			</g>
			<g>
				<polygon fill="#7C7C7C" points="487.234,833.086 477.331,809.779 477.385,801.174 560.374,834.73 578.979,871.563 				"/>
				<path fill="#010101" d="M478.236,802.43l81.525,32.961l17.439,34.516l-89.322-37.457l-9.643-22.68V802.43 M476.557,799.943
					v10.168l10.047,23.621l94.145,39.473l-19.771-39.141L476.557,799.943L476.557,799.943z"/>
			</g>
			<g>
				<polygon fill="#9C9C9D" points="562.117,834.496 651.228,797.141 673.836,833.338 581.141,872.133 				"/>
				<path fill="#010101" d="M650.898,798.186l21.707,34.76l-91.063,38.119l-18.266-36.146l82.955-34.779L650.898,798.186
					 M651.565,796.09l-5.976,2.51l-84.613,35.471l19.771,39.143l94.331-39.48L651.565,796.09L651.565,796.09z"/>
			</g>
			<g>
				<path fill="#231F20" d="M652.271,795.646c-0.148-0.252-0.422-0.395-0.706-0.395c-0.108,0-0.22,0.021-0.328,0.066l-4.81,2.023
					V715.42l13.273,19.271l-0.143,72.525L652.271,795.646z"/>
				<path fill="#010101" d="M647.258,718.121l2.924,4.26l8.529,12.361v69.564l-5.728-9.107c-0.328-0.504-0.86-0.787-1.418-0.787
					c-0.22,0-0.437,0.045-0.653,0.129l-3.654,1.529V718.121 M645.59,712.723V798.6l5.976-2.51l8.823,14.027v-75.896l-8.823-12.791
					L645.59,712.723L645.59,712.723z"/>
			</g>
			<g>
				<polygon fill="#B0B0AE" points="675.519,832.891 661.873,810.936 784.472,810.936 801.105,832.891 				"/>
				<path fill="#010101" d="M784.049,811.775l15.378,20.287h-123.44l-12.609-20.287H784.049 M784.887,810.1H660.365l14.681,23.633
					h127.752L784.887,810.1L784.887,810.1z"/>
			</g>
		</g>
		<g id="Coin_Slot_1_">
			
				<path fill="#B0B0AE" stroke="#010101" stroke-width="0.4455" stroke-linecap="round" stroke-linejoin="round" stroke-miterlimit="10" d="
				M555.99,558.484c-95.281,0-149.389,44.779-172.518,89.561h0.062h345.109C705.515,603.264,651.397,558.484,555.99,558.484z"/>
			
				<linearGradient id="SVGID_4_" gradientUnits="userSpaceOnUse" x1="341.6851" y1="468.4927" x2="341.6851" y2="277.9264" gradientTransform="matrix(1 0 0 -1 214.3999 1117.0996)">
				<stop  offset="0" style="stop-color:#B0B0AE"/>
				<stop  offset="0.2169" style="stop-color:#ADADAB"/>
				<stop  offset="0.3942" style="stop-color:#A2A2A0"/>
				<stop  offset="0.5575" style="stop-color:#92918F"/>
				<stop  offset="0.7124" style="stop-color:#797978"/>
				<stop  offset="0.8601" style="stop-color:#5B5B5A"/>
				<stop  offset="0.9646" style="stop-color:#404140"/>
			</linearGradient>
			
				<polygon fill="url(#SVGID_4_)" stroke="#010101" stroke-width="0.4455" stroke-linecap="round" stroke-linejoin="round" stroke-miterlimit="10" points="
				728.663,648.018 645.635,712.852 645.635,798.738 561.027,834.203 476.599,800.076 476.599,734.35 470.896,722.287 
				466.489,712.852 383.507,648.018 			"/>
		</g>
	</g>
	<path fill="#7C194E" stroke="#BA7C2B" stroke-width="6" stroke-miterlimit="10" d="M558.651,691.057
		c-1.979,0.016-74.011-67.516-74.011-121.35c0-6.666,44.164,39.834,44.164,33.598c0-197.599-10.822-176.265-36.765-226.265
		c-8.375-16.142,56.59-4,66.611,28c10.021-32,74.986-44.142,66.611-28c-25.942,50-36.765,28.666-36.765,226.265
		c0,6.236,44.164-40.264,44.164-33.598C632.662,623.541,560.63,691.072,558.651,691.057z"/>
	<g>
		<g>
			
				<linearGradient id="SVGID_5_" gradientUnits="userSpaceOnUse" x1="210.6606" y1="856.502" x2="472.7114" y2="856.502" gradientTransform="matrix(1 0 0 -1 214.3999 1117.0996)">
				<stop  offset="0" style="stop-color:#E6C7A7"/>
				<stop  offset="0.0806" style="stop-color:#E7CFB5"/>
				<stop  offset="0.2154" style="stop-color:#E7D7C4"/>
				<stop  offset="0.3564" style="stop-color:#E8DBCE"/>
				<stop  offset="0.512" style="stop-color:#E8DED1"/>
				<stop  offset="0.6384" style="stop-color:#E7DCCE"/>
				<stop  offset="0.7595" style="stop-color:#E4D5C4"/>
				<stop  offset="0.8786" style="stop-color:#E0CAB3"/>
				<stop  offset="0.9958" style="stop-color:#D9BB9B"/>
				<stop  offset="1" style="stop-color:#D9BB9A"/>
			</linearGradient>
			<path fill="url(#SVGID_5_)" d="M687.111,188.047v27.68c-0.068,13.655-3.719,28.957-10.352,42.504
				c-6.637,17.43-16.178,25.428-28.063,39.301c-11.866,8.541-25.992,23.086-41.639,25.08c-15.649,0.891-32.898,4.313-51.005,8.863
				c-18.042,4.229-35.288,0-50.996-7.758c-15.657-12.311-29.791-9.669-41.593-26.186c-11.872-16.883-21.424-19.875-28.058-36.199
				c-6.634-15.197-10.347-28.181-10.347-45.605v-27.68c0,17.309,3.713,30.408,10.347,45.497c1.528,3.771,3.188,6.763,4.977,9.431
				c6.101,8.994,13.928,13.763,23.081,26.855c11.802,16.43,25.936,13.872,41.593,26.078c15.708,7.884,32.954,11.985,50.996,7.777
				c18.106-4.442,35.355-7.996,51.005-8.779c15.646-1.993,29.772-16.535,41.639-25.076c9.229-10.773,16.989-17.971,23.084-28.854
				c1.857-3.097,3.449-6.545,4.979-10.549C683.393,217.005,687.047,201.586,687.111,188.047z"/>
			
				<line fill="none" stroke="#D0A787" stroke-width="0.24" stroke-miterlimit="10" x1="458.025" y1="262.762" x2="458.025" y2="290.268"/>
			
				<line fill="none" stroke="#D0A787" stroke-width="0.24" stroke-miterlimit="10" x1="588.123" y1="296.967" x2="588.123" y2="324.781"/>
			
				<line fill="none" stroke="#D0A787" stroke-width="0.24" stroke-miterlimit="10" x1="680.615" y1="249.238" x2="680.615" y2="222.336"/>
			<path fill="none" stroke="#020202" stroke-width="0.4246" stroke-miterlimit="10" d="M687.111,188.047v27.68
				c-0.068,13.655-3.719,28.957-10.352,42.504c-6.637,17.43-16.178,25.428-28.063,39.301c-11.866,8.541-25.992,23.086-41.639,25.08
				c-15.649,0.891-32.898,4.313-51.005,8.863c-18.042,4.229-35.288,0-50.996-7.758c-15.657-12.311-29.791-9.669-41.593-26.186
				c-11.872-16.883-21.424-19.875-28.058-36.199c-6.634-15.197-10.347-28.181-10.347-45.605v-27.68
				c0,17.309,3.713,30.408,10.347,45.497c1.528,3.771,3.188,6.763,4.977,9.431c6.101,8.994,13.928,13.763,23.081,26.855
				c11.802,16.43,25.936,13.872,41.593,26.078c15.708,7.884,32.954,11.985,50.996,7.777c18.106-4.442,35.355-7.996,51.005-8.779
				c15.646-1.993,29.772-16.535,41.639-25.076c9.229-10.773,16.989-17.971,23.084-28.854c1.857-3.097,3.449-6.545,4.979-10.549
				C683.393,217.005,687.047,201.586,687.111,188.047z"/>
			<path fill="#F4EFC5" stroke="#020202" stroke-width="0.4246" stroke-miterlimit="10" d="M687.111,188.047
				c-0.068,13.539-3.719,28.958-10.352,42.381c-1.529,4.004-3.119,7.452-4.979,10.549c-6.095,10.884-13.855,18.08-23.084,28.854
				c-11.866,8.541-25.992,23.083-41.639,25.076c-15.649,0.783-32.898,4.337-51.005,8.779c-18.042,4.208-35.288,0.106-50.996-7.777
				c-15.657-12.206-29.791-9.648-41.593-26.078c-9.153-13.093-16.98-17.865-23.081-26.855c-1.788-2.668-3.448-5.656-4.977-9.431
				c-6.636-15.089-10.349-28.188-10.349-45.497c0-14.763,3.713-33.527,10.346-44.398c6.568-5.779,16.188-23.756,28.061-37.408
				c11.799-12.865,25.934-13.873,41.59-27.188c15.711-7.773,32.957-7.996,51.066-6.65c18.039,0.43,35.288-8.553,50.938,8.2
				c15.703,10.222,29.772,14.651,41.639,25.638c11.885,0.227,21.426,29.09,28.063,38.626
				C683.393,156.961,687.047,170.402,687.111,188.047z"/>
		</g>
		<g>
			<g>
				<path fill="#A88260" d="M480.884,191.493c20.982-29.179,25.068-42.974,31.347-70.903c4.133,37.219,7.699,39.506,23.469,49.615
					c1.583,1.011,3.281,2.106,5.125,3.318c-5.448-0.623-10.143-0.926-14.301-0.926C508.237,172.594,497.665,178.658,480.884,191.493
					z M510.821,139.17c-4.053,14.694-8.982,25.714-17.586,39.303l-1.012,1.596l1.619-0.978c10.646-6.43,20.123-9.05,32.692-9.05
					c0.826,0,1.664,0.008,2.526,0.039l1.551,0.053l-1.284-0.87c-10.53-7.114-14.555-12.455-17.638-30.049l-0.344-1.953
					L510.821,139.17z"/>
				<path fill="#F1D089" d="M512.085,123.256c4.071,34.951,8.204,37.604,23.378,47.326c1.106,0.711,2.299,1.475,3.563,2.297
					c-4.686-0.49-8.804-0.73-12.5-0.73c-17.559,0-28.032,5.532-43.576,17.215C501.882,162.612,506.272,148.801,512.085,123.256
					 M490.837,181.43l3.236-1.955c10.574-6.381,19.98-8.986,32.462-8.986c0.82,0,1.656,0.008,2.509,0.04l3.104,0.109l-2.574-1.741
					c-10.408-7.033-14.393-12.324-17.446-29.76l-0.684-3.906l-1.053,3.824c-4.041,14.645-8.958,25.631-17.531,39.18L490.837,181.43
					 M512.383,117.871c-6.899,30.919-10.674,44.35-33.668,75.851c18.659-14.446,28.943-20.681,47.809-20.683
					c4.738,0,10.012,0.396,16.101,1.148C520.891,159.59,517.16,162.467,512.383,117.871L512.383,117.871z M493.612,178.711
					c9.303-14.697,13.884-25.811,17.638-39.42c3.176,18.121,7.475,23.347,17.828,30.346c-0.865-0.033-1.71-0.043-2.543-0.043
					C513.201,169.596,503.815,172.553,493.612,178.711L493.612,178.711z"/>
			</g>
			<path fill="#6A514A" d="M510.296,153.492c-2.167,5.678-4.653,11.041-7.697,16.583c5.155-1.929,10.379-3.073,16.126-3.595
				C514.994,162.988,512.353,159.084,510.296,153.492z"/>
			<path fill="#A88260" d="M510.784,139.291c-3.793,13.61-8.42,24.723-17.818,39.42c10.307-6.158,19.785-9.111,33.263-9.111
				c0.84,0,1.692,0.008,2.57,0.039C518.336,162.639,513.993,157.412,510.784,139.291z M510.296,153.492
				c2.057,5.592,4.698,9.496,8.432,12.982c-5.75,0.522-10.974,1.672-16.129,3.598C505.644,164.533,508.129,159.17,510.296,153.492z"
				/>
			<g>
				<path fill="#A88260" d="M592.891,244.655c-21.113-6.1-36.184-8.403-54.323-8.403c-9.745,0-20.685,0.673-35.148,2.178
					c24.923-10.277,44.394-20.375,50.827-41.899c0.408,2.118,0.752,4.086,1.074,5.93C558.25,219.32,559.404,225.98,592.891,244.655z
					 M538.561,233.709c12.543,0,23.4,1.078,35.207,3.5l2.188,0.447l-1.845-1.252c-15.07-10.251-18.612-17.004-20.841-28.256
					l-0.227-1.137l-0.594,0.995c-5.938,9.921-15.603,17.774-31.34,25.46l-2.033,0.99l2.256-0.146
					C527.566,233.904,533.203,233.709,538.561,233.709z"/>
				<path fill="#F1D089" d="M554.135,198.35c0.273,1.482,0.518,2.887,0.744,4.189c2.778,15.986,4.039,23.214,34.555,40.678
					c-19.317-5.361-33.721-7.408-50.866-7.408c-9.073,0-19.177,0.58-32.184,1.869C529.43,228.012,547.426,218.109,554.135,198.35
					 M516.848,235.051l4.512-0.295c6.23-0.402,11.857-0.602,17.201-0.602c12.51,0,23.344,1.078,35.119,3.491l4.363,0.897
					l-3.684-2.506c-16.25-11.052-18.727-18.252-20.652-27.978l-0.452-2.271l-1.188,1.988c-5.894,9.845-15.502,17.642-31.153,25.288
					L516.848,235.051 M554.32,194.607c-5.795,22.508-25.017,32.818-53.968,44.598c15.042-1.629,27.233-2.505,38.215-2.505
					c20.044,0,36.067,2.921,58.112,9.54C554.796,223.357,559.1,217.941,554.32,194.607L554.32,194.607z M521.303,233.867
					c13.706-6.691,24.775-14.349,31.531-25.633c2.111,10.677,5.24,17.802,21.025,28.539c-12.162-2.494-23.027-3.508-35.299-3.508
					C533.275,233.266,527.636,233.456,521.303,233.867L521.303,233.867z"/>
			</g>
			<path fill="#6A514A" d="M538.38,229.822c7.907,0,15.179,0.422,22.448,1.293c-5.039-4.701-7.875-9.123-9.734-14.127
				c-4.023,4.627-9.064,8.84-15.41,12.867C536.592,229.822,537.494,229.822,538.38,229.822z"/>
			<path fill="#A88260" d="M552.798,208.234c-6.821,11.284-18.007,18.938-31.854,25.633c6.4-0.411,12.095-0.602,17.437-0.602
				c12.396,0,23.371,1.014,35.663,3.508C558.095,226.036,554.934,218.911,552.798,208.234z M551.094,216.988
				c1.856,5,4.695,9.424,9.734,14.127c-7.27-0.871-14.541-1.293-22.448-1.293c-0.886,0-1.788,0-2.696,0.029
				C542.033,225.828,547.07,221.615,551.094,216.988z"/>
			<g>
				<path fill="#A88260" d="M631.938,188.112c-21.426-13.47-32.52-16.011-46.048-16.011c-3.906,0-7.96,0.213-12.652,0.459
					c-2.218,0.118-4.557,0.24-7.042,0.348c21.77-16.018,28.933-26.531,28.619-56.063c0.986,3.023,1.914,5.89,2.789,8.618
					C606.045,151.686,610.441,165.338,631.938,188.112z M585.883,169.563c10.068,0,18.866,1.229,31.566,7.334l1.68,0.807
					l-1.133-1.48c-10.129-13.245-14.827-24.262-20.43-41.178l-0.568-1.719l-0.297,1.784c-2.306,14.022-8.021,23.231-21.082,33.974
					l-1.043,0.857l1.35-0.07C580.16,169.65,583.139,169.563,585.883,169.563z"/>
				<path fill="#F1D089" d="M595.264,119.672c0.664,2.049,1.3,4.02,1.915,5.928c8.158,25.339,12.548,38.969,32.172,60.387
					c-19.696-12.007-30.454-14.334-43.46-14.334c-3.922,0-7.979,0.214-12.676,0.461c-1.779,0.092-3.634,0.191-5.58,0.281
					C587.934,157.273,595.094,146.739,595.264,119.672 M573.246,170.453l2.7-0.137c4.229-0.216,7.198-0.311,9.937-0.311
					c10.008,0,18.746,1.223,31.376,7.292l3.356,1.613l-2.264-2.961c-10.092-13.197-14.775-24.181-20.362-41.048l-1.138-3.439
					l-0.588,3.574c-2.285,13.898-7.957,23.034-20.924,33.7L573.246,170.453 M594.311,113.897
					c0.842,32.557-6.561,42.782-29.564,59.517c8.35-0.332,15.01-0.867,21.144-0.867c14.276,0,25.7,2.891,48.945,17.948
					C608.048,162.924,605.887,148.878,594.311,113.897L594.311,113.897z M575.901,169.426c12.292-10.109,18.786-19.34,21.243-34.244
					c5.204,15.722,9.923,27.48,20.497,41.311c-12.527-6.02-21.446-7.373-31.759-7.373
					C582.746,169.119,579.463,169.245,575.901,169.426L575.901,169.426z"/>
			</g>
			<path fill="#6A514A" d="M586.193,165.661c7.191,0,14.052,0.622,22.008,3.079c-4.143-6.604-7.269-13.168-10.16-20.593
				c-2.627,6.327-6.535,11.924-12.184,17.514C585.967,165.661,586.082,165.661,586.193,165.661z"/>
			<path fill="#A88260" d="M597.566,135.182c-2.479,14.904-9.041,24.135-21.458,34.244c3.597-0.181,6.913-0.307,10.085-0.307
				c10.415,0,19.43,1.354,32.088,7.373C607.593,162.665,602.828,150.903,597.566,135.182z M608.201,168.74
				c-7.956-2.457-14.816-3.079-22.008-3.079c-0.111,0-0.227,0-0.336,0c5.648-5.59,9.561-11.187,12.184-17.514
				C600.933,155.572,604.059,162.137,608.201,168.74z"/>
		</g>
	</g>
</g>
</svg>
