<?xml version="1.0" encoding="utf-8"?>
<!-- Generator: Adobe Illustrator 16.0.0, SVG Export Plug-In . SVG Version: 6.00 Build 0)  -->
<!DOCTYPE svg PUBLIC "-//W3C//DTD SVG 1.1//EN" "http://www.w3.org/Graphics/SVG/1.1/DTD/svg11.dtd">
<svg version="1.1" id="Layer_1" xmlns="http://www.w3.org/2000/svg" xmlns:xlink="http://www.w3.org/1999/xlink" x="0px" y="0px"
	 width="1024px" height="1024px" viewBox="0 0 1024 1024" enable-background="new 0 0 1024 1024" xml:space="preserve">
<g id="Layer_2">
	<g>
		<g id="Coin_Slot_3_">
			<g>
				
					<linearGradient id="SVGID_1_" gradientUnits="userSpaceOnUse" x1="-588.908" y1="3180.9167" x2="881.9277" y2="3180.9167" gradientTransform="matrix(1 0 0 1 428.7998 -2291.4648)">
					<stop  offset="0" style="stop-color:#B0B0AE"/>
					<stop  offset="1" style="stop-color:#565756"/>
				</linearGradient>
				<path fill="url(#SVGID_1_)" d="M140.353,948.719l21.008-75.633l12.014-42.9h314.417l109.67,45.949
					c0.22,0.088,0.447,0.14,0.675,0.14c0.231,0,0.459-0.052,0.679-0.14l109.811-45.949h147.518l33.438,118.532L140.353,948.719
					L140.353,948.719z"/>
				<path fill="#010101" d="M854.818,831.957l32.442,115.007H142.674l20.381-73.403l11.644-41.604h312.738l109.337,45.804
					c0.436,0.183,0.907,0.271,1.362,0.271c0.459,0,0.931-0.088,1.354-0.271l109.479-45.804H854.818 M857.48,828.428H708.265
					l-110.129,46.073l-109.984-46.073H172.034l-12.371,44.178l-21.632,77.857h753.88L857.48,828.428L857.48,828.428z"/>
			</g>
			<g>
				
					<linearGradient id="SVGID_2_" gradientUnits="userSpaceOnUse" x1="167.7981" y1="3009.8318" x2="467.3777" y2="3009.8318" gradientTransform="matrix(1 0 0 1 428.7998 -2291.4648)">
					<stop  offset="0" style="stop-color:#B0B0AE"/>
					<stop  offset="1" style="stop-color:#565756"/>
				</linearGradient>
				<polygon fill="url(#SVGID_2_)" points="692.905,799.079 692.905,713.056 789.682,637.657 834.267,799.079 				"/>
				<path fill="#010101" d="M788.69,640.662l43.274,156.656H694.671v-83.402l34.957-27.245L788.69,640.662 M790.673,634.65
					l-63.207,49.24l-36.306,28.309v88.64h145.438L790.673,634.65L790.673,634.65z"/>
			</g>
			<g>
				
					<linearGradient id="SVGID_3_" gradientUnits="userSpaceOnUse" x1="-155.8796" y1="3009.825" x2="117.8657" y2="3009.825" gradientTransform="matrix(1 0 0 1 428.7998 -2291.4648)">
					<stop  offset="0" style="stop-color:#B0B0AE"/>
					<stop  offset="1" style="stop-color:#565756"/>
				</linearGradient>
				<polygon fill="url(#SVGID_3_)" points="332.836,799.079 343.106,762.366 377.884,637.642 452.061,695.459 465.893,706.144 
					474.669,713.049 474.669,799.079 				"/>
				<path fill="#010101" d="M378.877,640.648l72.114,56.2l13.795,10.675l8.126,6.39v83.405H335.169l9.643-34.478L378.877,640.648
					 M376.89,634.65l-35.481,127.243l-10.889,38.945h145.911V712.2l-9.467-7.44l-13.82-10.693L376.89,634.65L376.89,634.65z"/>
			</g>
			<g>
				<polygon fill="#231F20" points="133.053,889.368 164.137,778.187 171.067,828.56 158.723,872.35 138.491,945.154 				"/>
				<path fill="#010101" d="M163.816,783.014l6.217,45.278l-12.255,43.798l-18.814,67.741l-4.903-50.196L163.816,783.014
					 M164.468,773.391l-32.382,116.074l5.945,61.015l21.632-77.866l12.358-44.186L164.468,773.391L164.468,773.391z"/>
			</g>
			<g>
				<path fill="#B0B0AE" d="M172.888,827.448l-7.298-53.084h156.201l7.786,26.742c0.127,0.417,0.509,0.698,0.941,0.698H475.74
					l10.936,25.645L172.888,827.448L172.888,827.448z"/>
				<path fill="#010101" d="M321.053,775.342l7.597,26.033c0.239,0.835,0.994,1.409,1.87,1.409h144.587l10.092,23.695H173.74
					l-7.031-51.138H321.053 M322.518,773.391h-158.05l7.566,55.037h316.117l-11.76-27.601H330.519L322.518,773.391L322.518,773.391z
					"/>
			</g>
			<g>
				<polygon fill="#231F20" points="323.437,773.106 367.844,614.423 375.983,635.007 340.469,761.626 330.504,797.283 				"/>
				<path fill="#010101" d="M368.009,617.493l2.688,6.789l4.128,10.479l-35.301,126.61l-9.042,32.361l-5.951-20.359L368.009,617.493
					 M367.692,611.364l-45.197,162.021l8.025,27.456l10.889-38.946l35.468-127.243l-4.371-11.083L367.692,611.364L367.692,611.364z"
					/>
			</g>
			<g>
				<polygon fill="#767677" points="467.563,703.98 453.742,693.294 377.489,633.872 373.435,623.211 369.932,614.349 
					464.025,687.868 468.89,698.514 473.779,708.861 				"/>
				<path fill="#010101" d="M372.16,617.338l90.894,71.007l4.956,10.596l3.104,6.594l-2.938-2.314l-13.826-10.689l-75.835-59.097
					l-4.164-10.594L372.16,617.338 M367.692,611.364l4.828,12.202l4.37,11.084l76.253,59.42l13.82,10.688l9.467,7.445l-6.664-14.091
					l-5.147-11.013L367.692,611.364L367.692,611.364z"/>
			</g>
			<g>
				<polygon fill="#838383" points="675.186,687.294 770.739,612.688 777.133,620.279 789.277,634.502 691.362,710.786 				"/>
				<path fill="#010101" d="M770.599,614.038l5.795,6.881l11.463,13.438l-61.589,47.993l-34.689,27.035l-9.122-13.226l-5.937-8.652
					L770.599,614.038 M770.903,611.364h-0.063l-96.979,75.727l6.98,10.171l10.306,14.938l36.306-28.308l63.208-49.241l-12.79-15.006
					L770.903,611.364L770.903,611.364z"/>
			</g>
			<g>
				<polygon fill="#7C7C7C" points="488.903,827.675 477.334,800.452 477.399,790.402 574.328,829.594 596.06,872.615 				"/>
				<path fill="#010101" d="M478.393,791.868l95.222,38.498l20.368,40.314l-104.328-43.75l-11.263-26.488L478.393,791.868
					 M476.431,788.964v11.875l11.734,27.59l109.961,46.104l-23.092-45.717L476.431,788.964L476.431,788.964z"/>
			</g>
			<g>
				<polygon fill="#9C9C9D" points="576.365,829.32 680.447,785.69 706.852,827.969 598.585,873.281 				"/>
				<path fill="#010101" d="M680.062,786.912l25.354,40.6l-106.362,44.523l-21.334-42.22l96.892-40.622L680.062,786.912
					 M680.841,784.465l-6.98,2.93l-98.827,41.43l23.092,45.72l110.179-46.113L680.841,784.465L680.841,784.465z"/>
			</g>
			<g>
				<path fill="#231F20" d="M681.666,783.945c-0.174-0.294-0.493-0.46-0.825-0.46c-0.127,0-0.257,0.024-0.383,0.076l-5.618,2.363
					v-95.683l15.503,22.508l-0.167,84.71L681.666,783.945z"/>
				<path fill="#010101" d="M675.809,693.394l3.416,4.977l9.961,14.438v81.25l-6.689-10.638c-0.384-0.589-1.005-0.919-1.656-0.919
					c-0.258,0-0.511,0.052-0.763,0.151l-4.269,1.785V693.394 M673.861,687.091v100.304l6.98-2.93l10.306,16.383V712.2
					l-10.306-14.938L673.861,687.091L673.861,687.091z"/>
			</g>
			<g>
				<polygon fill="#B0B0AE" points="708.819,827.448 692.879,801.802 836.075,801.802 855.504,827.448 				"/>
				<path fill="#010101" d="M835.58,802.784l17.962,23.695H709.365l-14.728-23.695H835.58 M836.561,800.828H691.118l17.146,27.602
					H857.48L836.561,800.828L836.561,800.828z"/>
			</g>
		</g>
		<g id="Coin_Slot_2_">
			
				<path fill="#B0B0AE" stroke="#010101" stroke-width="0.5203" stroke-linecap="round" stroke-linejoin="round" stroke-miterlimit="10" d="
				M569.208,506.94c-111.288,0-174.486,52.302-201.5,104.607h0.071h403.088C743.854,559.243,680.645,506.94,569.208,506.94z"/>
			
				<linearGradient id="SVGID_4_" gradientUnits="userSpaceOnUse" x1="140.5183" y1="2903.6687" x2="140.5183" y2="3126.2495" gradientTransform="matrix(1 0 0 1 428.7998 -2291.4648)">
				<stop  offset="0" style="stop-color:#B0B0AE"/>
				<stop  offset="0.2169" style="stop-color:#ADADAB"/>
				<stop  offset="0.3942" style="stop-color:#A2A2A0"/>
				<stop  offset="0.5575" style="stop-color:#92918F"/>
				<stop  offset="0.7124" style="stop-color:#797978"/>
				<stop  offset="0.8601" style="stop-color:#5B5B5A"/>
				<stop  offset="0.9646" style="stop-color:#404140"/>
			</linearGradient>
			
				<polygon fill="url(#SVGID_4_)" stroke="#010101" stroke-width="0.5203" stroke-linecap="round" stroke-linejoin="round" stroke-miterlimit="10" points="
				770.89,611.515 673.914,687.242 673.914,787.555 575.093,828.978 476.48,789.119 476.48,712.351 469.82,698.26 464.671,687.242 
				367.747,611.515 			"/>
		</g>
	</g>
	<path fill="#7C194E" stroke="#BA7C2B" stroke-width="6" stroke-miterlimit="10" d="M751.318,398.484
		c-1.979,0.016-74.011-67.516-74.011-121.35c0-6.666,44.164,39.834,44.164,33.599c0-197.6-10.822-176.265-36.766-226.266
		c-8.375-16.142,56.59-4,66.611,28c10.021-32,74.986-44.142,66.611-28c-25.942,50.001-36.766,28.666-36.766,226.266
		c0,6.235,44.164-40.265,44.164-33.599C825.327,330.967,753.295,398.498,751.318,398.484z"/>
	<g>
		<path fill="#1B3C6D" stroke="#010101" stroke-width="2.3435" stroke-miterlimit="10" d="M751.32,661.782
			c5.005,0.137,9.95-7.115,14.748-7.115c55.083,0,73.678-37.825,72.394-87.258c-1.26-48.591-38.215-94.26-87.142-93.19l0,0
			c-48.931-1.07-85.886,44.6-87.146,93.19c-1.284,49.433,17.312,87.257,72.396,87.257
			C741.366,654.667,746.312,661.919,751.32,661.782z"/>
		<path fill="none" stroke="#010101" stroke-width="6.2493" stroke-linejoin="round" stroke-miterlimit="10" d="M812.107,581.277
			l-10.964-7.154l10.977-7.95h0.002l0.053-15.521l-60.713-46.956l-60.707,46.956l0.047,15.521h0.004l10.977,7.95l-10.966,7.155
			l-0.565,33.975l17.193,12.59c0.025-0.014,32.429-19.473,44.018-25.707c11.588,6.229,43.993,25.693,44.019,25.707l17.191-12.59
			L812.107,581.277z"/>
		<path fill="#9CCEEF" d="M751.461,541.704v37.5c-13.269,7.139-61.209,36.048-61.21,36.048l0.564-33.975l10.966-7.154
			L751.461,541.704z"/>
		<polygon fill="#9CCEEF" points="751.461,503.695 751.461,522.753 690.805,566.173 690.801,566.173 690.754,550.651 		"/>
		<polygon fill="#79A3BD" points="812.119,566.173 801.143,574.122 751.461,541.704 701.781,574.122 690.805,566.173 
			751.461,522.753 		"/>
		<polygon fill="#5895BD" points="812.174,550.651 812.121,566.173 812.119,566.173 751.461,522.753 751.461,503.695 		"/>
		<path fill="#79A3BD" d="M812.671,615.252l-17.193,12.591c-0.022-0.015-32.429-19.474-44.017-25.708
			c-11.589,6.229-43.992,25.693-44.018,25.708l-17.192-12.591c0.002,0,47.941-28.909,61.21-36.048
			C764.729,586.343,812.671,615.252,812.671,615.252z"/>
		<path fill="#5895BD" d="M751.461,541.704v37.5c13.268,7.139,61.21,36.048,61.21,36.048l-0.565-33.975l-10.964-7.154
			L751.461,541.704z"/>
	</g>
</g>
</svg>
