<?xml version="1.0" encoding="utf-8"?>
<!-- Generator: Adobe Illustrator 16.0.0, SVG Export Plug-In . SVG Version: 6.00 Build 0)  -->
<!DOCTYPE svg PUBLIC "-//W3C//DTD SVG 1.1//EN" "http://www.w3.org/Graphics/SVG/1.1/DTD/svg11.dtd">
<svg version="1.1" xmlns="http://www.w3.org/2000/svg" xmlns:xlink="http://www.w3.org/1999/xlink" x="0px" y="0px" width="1024px"
	 height="1024px" viewBox="0 0 1024 1024" enable-background="new 0 0 1024 1024" xml:space="preserve">
<g id="Layer_9">
</g>
<g id="Layer_8">
	<g id="WideEyes">
		<path fill="#FFFFFF" d="M471.625,988.937c-89.203,0-185.685-41.527-200.145-134.303c-0.473-3.036-2.644-5.533-5.585-6.425
			c-0.285-0.087-0.521-0.174-0.724-0.266c-1.646-0.753-3.294-1.877-5.038-3.435c-2.9-2.591-5.76-6.55-8.525-10.378
			c-1.279-1.773-2.604-3.605-3.94-5.315c-4.033-5.153-7.328-10.851-9.749-15.239c-9.609-17.419-14.641-38.033-18.293-55.902
			c-2.994-14.646-3.504-27.501-1.56-39.299c2.243-13.614,6.554-26.885,11.823-36.407c3.651-6.602,8.119-13.394,14.061-21.374
			c1.197-1.61,2.396-3.273,3.608-4.955c3.738-5.187,7.604-10.549,11.756-14.66c1.604-1.589,2.463-3.782,2.362-6.039
			c-0.101-2.256-1.149-4.364-2.889-5.806c-13.53-11.208-17.528-42.183-18.843-52.36c-0.137-1.052-0.473-2.033-0.967-2.909
			c0.274-0.974,0.368-2.014,0.248-3.075c-0.091-0.8-0.179-1.595-0.265-2.389c-0.401-3.751-3.369-6.712-7.12-7.104
			c-0.281-0.03-0.563-0.045-0.839-0.045c-3.427,0-6.519,2.2-7.602,5.519c-0.05,0.154-0.098,0.31-0.156,0.465
			c-0.739,1.91-0.719,4.031,0.061,5.926c0.139,0.339,0.255,0.668,0.359,0.992c0.168,0.521,0.386,1.015,0.646,1.475
			c-0.118,0.418-0.202,0.851-0.252,1.295c-0.074,0.677-0.338,1.606-1.729,2.813c-0.616,0.535-1.146,1.16-1.572,1.854
			c-1.008,0.382-2.158,0.709-3.429,0.974c-0.302,0.063-0.598,0.143-0.889,0.239c-3.545,1.177-7.967,1.851-12.134,1.851
			c-2.678,0-5.151-0.281-6.786-0.773c-4.667-1.406-8.438-3.923-11.525-7.692c-0.252-0.307-0.526-0.595-0.82-0.861
			c-2.759-2.495-5.003-5.817-6.802-10.084c0.669-1.523,0.859-3.254,0.481-4.952c-3.534-15.875-0.536-33.471,3.105-43.715
			c0.104-0.296,0.191-0.597,0.262-0.901c2.301-10.098-3.93-19.271-9.427-27.363c-3.01-4.431-6.122-9.013-6.755-12.266
			c-0.922-4.742,1.28-23.11,4.893-27.229c1.902-2.169,2.488-5.195,1.534-7.918c-3.065-8.751-6.54-18.67-12.45-27.729
			c-3.905-5.985-9.771-11.763-15.98-17.879c-7.861-7.741-16.526-16.272-19.843-24.479c2.814,1.462,5.665,3.054,8.467,4.617
			c2.206,1.23,4.384,2.444,6.507,3.58c3.727,1.994,7.509,3.593,11.167,5.139c4.095,1.729,7.963,3.365,11.486,5.424l8.07-13.816
			c-9.17-5.355-17.041-12.458-21.887-19.619c0.154,0.089,0.306,0.172,0.455,0.248c5.885,3.057,12.284,5.313,19.021,6.708
			c5.545,1.148,11.441,1.729,17.525,1.729c1.968,0,3.979-0.063,5.979-0.183c0.108-0.008,0.218-0.017,0.325-0.026l0.337-0.034
			c0.544-0.055,1.088-0.109,1.631-0.174c6.854-0.81,13.331-2.114,19.252-3.878c0.184-0.055,0.363-0.115,0.542-0.185
			c1.528-0.576,3.299-1.237,4.966-1.776c0.318-0.104,0.632-0.228,0.936-0.369c1.914-0.898,3.738-1.945,5.503-2.958l0.89-0.509
			c2.338-1.335,3.848-3.755,4.018-6.441c0.171-2.687-1.021-5.278-3.171-6.896c-6.282-4.731-12.585-9.731-18.769-14.89
			c-0.017-0.09-0.087-0.477-0.087-0.477c-0.393-2.175-1.667-4.09-3.521-5.291l-0.65-0.418c-10.111-6.605-22.688-14.819-32.348-24.44
			c-7.631-7.601-17.055-17.855-22.235-29.806c-0.876-2.018-1.872-4.397-2.63-6.762c-0.282-0.884-0.717-1.709-1.282-2.443
			c-3.958-5.133-6.926-10.416-8.85-15.742c1.212,0.692,2.581,1.057,3.973,1.057c0.174,0,0.35-0.007,0.522-0.019l0.137-0.008
			c0.201-0.011,0.402-0.023,0.604-0.041c5.181-0.442,10.438-1.298,15.632-2.543c4.396-1.054,8.914-2.061,13.282-3.033
			c6.524-1.453,13.273-2.957,19.928-4.684c12.198-3.165,24.604-7.388,37.93-12.907c2.638-1.092,5.26-2.244,7.796-3.358
			c1.288-0.564,2.576-1.132,3.867-1.689c1.577-0.683,2.893-1.854,3.752-3.343c1.516-2.625,3.062-4.897,4.723-6.946
			c0.697-0.86,1.296-1.778,1.787-2.743c2.386-3.09,3.503-7.021,3.235-10.851c1.021-2.063,1.135-4.532,0.16-6.761
			c-1.294-2.956-4.202-4.794-7.326-4.794c-0.554,0-1.114,0.059-1.674,0.179c-1.651,0.353-3.302,0.71-4.952,1.066
			c-5.858,1.27-11.915,2.58-17.835,3.619c-4.602,0.808-9.072,1.92-13.397,2.996c-1.845,0.458-3.688,0.917-5.538,1.351
			c-0.59,0.14-1.2,0.287-1.831,0.44c-3.06,0.745-6.525,1.589-9.319,1.589c-1.362,0-2.136-0.204-2.544-0.376
			c-0.988-0.414-2.04-0.621-3.092-0.621c-0.969,0-1.937,0.176-2.855,0.527c0,0-1.251,0.468-1.547,0.581l-0.928,0.356
			c-2.919,1.126-5.494,2.12-8.026,2.823c0.04-1.037-0.121-2.084-0.489-3.083c-0.328-0.887,0.36-4.479,3.439-8.757
			c0.387-0.538,0.706-1.122,0.949-1.739c1.955-4.962,5.7-9.975,9.322-14.821l0.938-1.256c7.696-10.337,17.24-21.11,29.179-32.94
			c7.941-7.868,16.565-15.109,25.633-21.522c0.498-0.353,0.954-0.761,1.359-1.217c1.819-2.047,3.519-3.74,5.194-5.177
			c7.468-6.401,13.823-10.659,20.002-13.397c1.725-0.765,3.872-1.716,5.977-2.473c0.581-0.209,1.137-0.484,1.654-0.821l0.09-0.058
			c2.672-1.737,5.347-3.478,8.01-5.199c28.383-18.363,57.502-32.459,89.021-43.095c24.77-8.359,45.084-12.252,63.935-12.252
			c2.457,0,4.914,0.068,7.306,0.207c10.573,0.607,20.584,2.748,29.753,6.36c1.562,0.614,3.185,1.216,4.834,1.826
			c8.57,3.172,17.434,6.451,20.411,13.263c1.233,2.82,3.976,4.684,7.051,4.79c0.095,0.004,0.188,0.005,0.28,0.005
			c0.667,0,1.322-0.083,1.953-0.241c2.563-0.461,19.08-2.852,21.625-3.027l0.53-0.003c7.383,0,14.837,1.467,20.507,2.745
			c3.407,0.769,6.955,1.642,10.845,2.669c0.606,0.16,1.23,0.248,1.858,0.263c7.801,0.179,14.479,1.201,20.418,3.124
			c2.843,0.92,6.103,2.807,7.686,4.435c0.054,0.063,0.107,0.124,0.163,0.187c0.926,1.028,2.103,1.8,3.414,2.238l2.547,0.85
			c9.087,3.057,18.978,7.263,31.122,13.241c37.302,18.354,59.309,49.353,80.874,90.249c15.87,30.095,24.979,57.87,27.844,84.915
			c1.463,13.818,1.472,28.262,0.025,44.157c-0.4,4.403-0.95,9.104-1.729,14.796c-0.518,3.771,1.694,7.383,5.289,8.638
			c0.866,0.303,1.757,0.448,2.636,0.448c2.76,0,5.406-1.436,6.88-3.917c5.741-9.671,13.471-19.054,22.976-27.891
			c13.38-12.436,27.622-21.488,42.335-26.908c8.454-3.115,17.812-5.511,28.604-7.322c1.206-0.202,2.486-0.44,3.821-0.689
			c4.145-0.771,8.843-1.646,12.964-1.646c6.001,0,7.792,1.91,8.381,2.538c0.217,0.229,0.289,0.476,0.289,0.552
			c-0.25,1.362-0.14,2.736,0.313,4.032c-0.935,0.563-2.604,1.1-5.963,1.1c-1.073,0-2.264-0.052-3.742-0.164
			c-0.2-0.015-0.401-0.021-0.604-0.021c-0.381,0-0.763,0.026-1.142,0.082c-2.164,0.312-4.457,0.515-6.676,0.71
			c-1.731,0.152-3.521,0.312-5.229,0.521c-11.124,1.366-20.589,3.324-28.936,5.985c-13.992,4.463-27.992,12.732-40.484,23.92
			c-11.263,10.084-20.774,21.747-29.976,33.025c-1.189,1.46-2.381,2.92-3.573,4.375c-1.367,1.667-2.698,3.402-3.958,5.159
			c-2.325,3.243-1.904,7.704,0.985,10.455c0.796,0.76,1.714,1.323,2.689,1.691c-3.505,3.064-6.553,6.27-9.111,9.58
			c-1.048,1.355-1.971,2.919-2.863,4.431c-0.879,1.488-2.515,4.258-3.387,4.86c-3.052,1.872-4.471,5.532-3.5,8.978
			c0.221,0.782,0.432,1.571,0.633,2.364c0.64,2.505,2.45,4.547,4.861,5.481c3.21,1.244,9.942,4.151,13.178,5.549
			c1.107,0.479,1.887,0.813,2.132,0.916c6.694,2.767,12.326,4.528,17.726,5.546c3.573,0.674,7.305,1.016,11.089,1.016
			c5.521,0,11.299-0.708,17.574-2.159c-1.117,0.533-2.104,0.988-2.864,1.339l-1.393,0.644c-6.204,2.886-12.745,4.253-19.671,5.7
			c-2.158,0.451-4.392,0.918-6.654,1.438c-4.307,0.99-6.992,5.283-6.003,9.589c0.687,2.984,2.961,5.192,5.726,5.937
			c0.444,0.245,1.073,0.616,1.495,0.864c1.345,0.793,2.315,1.365,3.384,1.757c3.613,1.321,7.236,1.839,10.639,2.256
			c3.474,0.426,6.854,0.556,10.125,0.682c3.058,0.118,5.943,0.229,8.735,0.567l0.771,0.094c6.998,0.851,14.222,1.727,21.563,1.837
			c-8.215,5.364-20.261,7.281-29.514,8.269c-2.708,0.289-5.083,1.935-6.305,4.369c-1.221,2.434-1.118,5.321,0.271,7.665
			c0.155,0.262,0.333,0.662,0.328,1.432c-0.004,0.547-0.173,1.157-0.478,1.715c-1.728,3.174-1.112,7.112,1.5,9.609
			c7.221,6.898,15.404,14.719,29.49,18.104c7.849,1.888,15.961,2.679,22.949,3.271c0.202,0.017,0.433,0.03,0.718,0.043
			c-0.829,0.25-1.713,0.504-2.657,0.761c-6.813,1.855-14.106,3.514-21.679,4.928c-2.579,0.482-4.756,2.197-5.828,4.586
			c-0.218,0.109-1.001,0.516-1.181,0.605c-0.164-0.011-0.33-0.016-0.495-0.016c-1.079,0-2.175,0.221-3.229,0.688
			c-1.73,0.77-3.018,1.055-4.742,1.055c-0.24,0-0.486-0.006-0.738-0.017c-3.996-0.173-8.229-0.852-12.22-1.531
			c-0.446-0.076-0.896-0.112-1.344-0.112c-1.831,0-3.625,0.63-5.063,1.808c-1.791,1.465-2.86,3.633-2.932,5.944
			c-0.543,17.496,7.756,25.462,16.541,33.896c1.06,1.017,2.152,2.066,3.272,3.172c5.216,5.146,3.861,8.446,3.283,9.855
			c-3.808,9.278-24.34,19.468-39.233,19.468c-2.766,0-4.513-0.382-5.491-0.702c-0.812-0.266-1.65-0.396-2.487-0.396
			c-1.373,0-2.738,0.354-3.957,1.047c-1.96,1.116-3.358,3.008-3.852,5.209c-2.229,9.982-9.017,40.363-25.153,51.375
			c-2.283,1.558-3.601,4.183-3.484,6.942c0.116,2.762,1.648,5.268,4.054,6.628c18.887,10.688,33.488,30.662,43.4,59.37
			c9.551,27.661,12.669,57.552,13.604,77.754c1.842,39.822-5.399,94.36-50.354,128.036c-39.233,29.392-71.881,47.649-85.203,47.649
			c-1.738,0-2.422-0.355-2.484-0.426c-1.468-1.637-3.543-2.597-5.738-2.655c-0.072-0.002-0.146-0.003-0.217-0.003
			c-2.119,0-4.154,0.841-5.657,2.343c-36.967,36.968-86.487,38.77-138.915,40.678l-4.664,0.171
			C478.576,988.871,475.082,988.937,471.625,988.937z M614.17,921.361c-2.145,0.049-4.183,0.957-5.652,2.524l-0.628,0.643
			c-2.961,3.104-2.947,7.992,0.031,11.079c1.565,1.623,3.659,2.444,5.759,2.444c1.894,0,3.791-0.668,5.313-2.021
			c0.2-0.179,0.396-0.361,0.592-0.547l0.219-0.203c2.496-2.265,3.305-5.852,2.021-8.969c-1.236-3.008-4.167-4.956-7.396-4.956
			C614.342,921.357,614.256,921.358,614.17,921.361z M688.284,893.273c-1.31,0-2.634,0.321-3.855,0.995l-0.593,0.329
			c-0.683,0.371-1.441,0.753-2.39,1.2c-0.874,0.413-1.666,0.98-2.337,1.677l-1.476,1.523c-2.805,2.896-3.014,7.428-0.489,10.57
			c1.568,1.954,3.888,2.992,6.243,2.992c1.435,0.001,2.883-0.385,4.184-1.184c1.822-1.12,3.646-2.343,5.421-3.632
			c3.418-2.482,4.316-7.196,2.051-10.763C693.524,894.597,690.938,893.273,688.284,893.273z M227.612,527.929
			c-3.384,0-6.44,2.145-7.561,5.397c-2.561,7.445-0.349,14.473,1.603,20.672c1.067,3.39,4.213,5.626,7.647,5.626
			c0.52,0,1.045-0.051,1.571-0.156c4.01-0.808,6.772-4.479,6.396-8.553c-0.531-5.732-1.063-11.277-1.728-16.084
			c-0.508-3.668-3.466-6.508-7.151-6.865C228.131,527.939,227.871,527.929,227.612,527.929z M770.737,331.701
			c6.282-3.741,13.062-6.723,19.481-9.394c14.716-6.121,29.329-10.717,43.434-13.657c9.898-2.063,20.2-3.426,30.62-4.048
			c5.644-0.337,11.642-0.583,18.877-0.774c1.302-0.034,2.554-0.067,3.8-0.067c5.521,0,8.319,0.772,10.325,2.854
			c1.772,1.839,1.838,4.64,0.149,6.377c-2.116,2.178-4.809,2.949-10.283,2.949h-0.002c-1.338,0-2.692-0.042-4.047-0.083
			c-6.112-0.188-11.573-0.339-17.133-0.339h-0.404c-10.032,0.014-20.194,0.438-30.207,1.265
			c-13.492,1.111-27.184,3.493-40.692,7.079c-8.608,2.285-16.03,4.689-22.685,7.352C771.561,331.377,771.148,331.54,770.737,331.701
			z"/>
		<g opacity="0.9">
			<g opacity="0.8">
				<path fill="#C6876A" d="M738.466,475.371c-2.35-3.841-4.525-7.784-6.604-11.777c-2.313-4.443-4.505-8.967-6.562-13.534
					c-0.269-0.595-0.521-1.196-0.778-1.796c-0.043-0.108-0.084-0.212-0.12-0.304c-1.013-2.604-1.917-5.247-2.767-7.908
					c-1.505-4.717-2.799-9.551-3.709-14.418c-0.04-0.213-0.084-0.486-0.129-0.773c-0.033-0.447-0.064-0.896-0.095-1.344
					c-0.096-1.48-0.094-2.963-0.03-4.443c0.176-1.152,0.725-6.22,0.707-6.879c0.486-2.375,1.089-4.676,1.353-7.197
					c-0.614,5.869,0.257-0.022,0.522-1.463c1.046-5.666,0.329-12.729-5.73-15.586c-15.892-7.492-30.947,8.361-35.398,22.307
					c-3.907,12.245-3.022,26.181-0.756,38.619c2.283,12.521,6.771,24.556,11.828,36.187c5.493,12.633,12.063,28.719,26.38,32.844
					c5.895,1.697,12.509,0.705,17.785-2.342c7.816-4.514,10.665-11.689,11.722-20.172
					C747.038,487.724,742.188,481.46,738.466,475.371z"/>
				<path fill="#C6876A" d="M725.248,824.972c-0.597-2.858-1.812-4.994-3.921-5.81c-3.932,4.381-6.141,10.663-8.832,15.859
					c-4.101,7.915-8.489,15.66-12.919,23.394c-0.425,0.308-0.855,0.6-1.306,0.854c-7.365,4.188-7.199-10.34-7.101-13.335
					c0.451-13.729,0.52-27.746-1.95-41.303c-3.267-17.925-10.496-32.632-21.567-46.943c-2.876-3.719-6.898-13.051-12.605-13.133
					c-5.206-0.074-2.686,7.229-1.798,10.189c1.604,5.346,4.646,10.263,7.194,15.188c6.959,13.45,11.24,27.173,12.765,42.265
					c2.842,28.133,0.83,55.185-8.936,81.923c-0.82,2.246-11.078,25.372-10.056,26.21c3.994,3.272,8.676,4.229,12.973,1.142
					c4.047-2.909,6.881-7.407,10.352-10.935c13.457-13.673,27.461-28.265,37.93-44.401c3.83-5.935,6.717-12.364,8.2-19.286
					C725.033,840.489,726.594,831.412,725.248,824.972z"/>
				<g>
					<path fill="#C6876A" d="M735.679,387.611c-8.394-61-62.706-97.395-124.922-93.537c-83.468-3.594-160.292,53.941-240.243,70.42
						c-37.785,7.787-74.828,14.667-111.932,0.824c-6.078-2.269-13.066-5.773-19.644-6.443c-16.617-1.689-2.805,23.544,2.326,27.451
						c9.639,7.34,27.468,19.031,39.228,20.995c78.058,11.354,143.203-2.96,214.286-37.671
						c38.747-18.922,86.129-39.996,125.972-34.338c31.28,4.438,61.386,27.271,77.661,53.813c8.019,13.082,0.962,27.955,6.359,39.743
						C717.168,455.946,737.355,399.81,735.679,387.611C733.972,375.205,736.821,395.924,735.679,387.611z"/>
					<path fill="#C6876A" d="M280.585,407.337c-0.03-0.005-0.063-0.011-0.093-0.016c-0.047-0.007-0.093-0.012-0.14-0.019
						C280.437,407.314,280.508,407.325,280.585,407.337z"/>
					<path fill="#C6876A" d="M280.585,407.337C282.546,407.662,283.979,407.834,280.585,407.337L280.585,407.337z"/>
				</g>
				<path fill="#C6876A" d="M371.297,598.362c-0.064,0-0.064,0.101,0,0.101C371.36,598.463,371.36,598.362,371.297,598.362z"/>
				<path fill="#C6876A" d="M254.423,755.658c-2.026,1.702-3.733,2.173-3.964-0.778c-0.238-3.059-1.137-5.902-1.135-8.842
					c-0.021,0.074-0.047,0.148-0.067,0.225c-0.019-0.765-0.043-1.526-0.052-2.292c-0.141-11.639,0.295-23.319,1.419-34.903
					c1.136-11.702,1.679-23.729,4.537-35.155c0.614-2.462-2.862-3.282-3.729-0.998c-4.172,11.005-9.134,21.545-11.99,33.002
					c-3.105,12.468-5.273,25.156-6.238,37.97c-0.01,0.112-0.015,0.227-0.022,0.34c2.557,6.491,5.01,13.022,7.522,19.532
					c0.333,0.86,0.677,1.717,1.018,2.573c4.864,8.285,9.234,16.832,13.48,25.447c1.613-5.176,4.221-9.962,5.945-15.094
					c1.882-5.595,2.917-11.43,4.228-17.173c1.609-7.064,3.886-11.632,4.95-21.194C262.885,740.755,260.463,750.586,254.423,755.658z
					"/>
			</g>
			<g opacity="0.8">
				<path fill="#FCC49A" d="M743.303,834.256C743.285,834.269,743.284,834.27,743.303,834.256L743.303,834.256z"/>
				<path fill="#FCC49A" d="M743.46,834.137c-0.007,0.005-0.014,0.009-0.02,0.014c-0.067,0.052-0.115,0.088-0.139,0.105
					C743.324,834.238,743.371,834.202,743.46,834.137z"/>
				
					<radialGradient id="SVGID_14_" cx="269.0693" cy="-3521.9102" r="260.7783" gradientTransform="matrix(1 -0.0056 -0.0094 -1.6782 194.7183 -5267.5562)" gradientUnits="userSpaceOnUse">
					<stop  offset="0" style="stop-color:#FDC384"/>
					<stop  offset="1" style="stop-color:#F0B184"/>
				</radialGradient>
				<path fill="url(#SVGID_14_)" d="M761.654,739.024c-0.116-0.508-0.229-1.018-0.345-1.527c-5.26-23.519-10.602-44.39-25.601-63.84
					c-4.744-6.152-10.127-11.604-15.666-17.03c-10.197-9.988-18.054-19.478-16.336-34.518c0.128-1.112,6.953-5.514,8.003-6.607
					c3.506-3.66,6.392-7.915,8.818-12.352c9.205-16.816,12.107-38.62,15.754-57.221c3.39-17.284,4.409-34.691,2.227-52.198
					c-2.061-16.503-5.407-32.838-8.842-49.101c-1.99-9.424-4.701-18.722-6.182-28.247c-1.521-9.796-1.438-19.711-1.195-29.592
					c0.277-11.369-2.63-22.627-7.391-32.901c-3.449-7.447-8.172-14.203-14.178-19.813c-14.103-13.172-33.328-19.478-51.764-23.715
					c-25.657-5.896-50.605-9.246-76.706-4.088c-6.906,1.365-13.854,2.939-20.627,4.871c-26.06,7.427-50.578,19.927-74.077,33.206
					c-13.22,7.471-26.257,15.26-39.439,22.796c-27.657,15.811-61.08,25.208-92.782,27.381c-9.401,0.645-19.854,1.542-29.224,0.352
					c-13.151-1.669-24.859-7.513-37.312-11.613c-10.277-3.387-19.855-5.854-30.758-5.062c-4.73,0.345-10.712,8.91-12.306,12.709
					c-3.348,7.982-2.749,17.448-2.42,25.895c1.961,50.33-3.006,102.313,7.627,151.867c2.782,12.968,2.81,24.045,7.692,36.398
					c0.099,0.379,1.572,5.962,1.669,6.341c1.015,2.666,16.313,27.442,16.212,27.528c-0.221,0.188-0.442,0.376-0.66,0.575
					c-8.793,8.044-17.269,17.391-22.796,27.893c-7.172,13.627-13.691,26.963-16.313,42.42c-2.462,14.524-0.683,28.951,2.009,43.272
					c2.431,12.937,5.581,26.654,13.543,37.503c8.763,11.94,16.972,23.93,25.294,36.185c2.941,4.331,5.939,8.645,9.407,12.576
					c3.259,3.696,7.646,5.456,7.697,10.522c0.011,0.947,0.053,1.896,0.107,2.848c0.456,7.785-1.209,14.365,1.064,22.225
					c5.408,18.7,14.229,36.473,29.083,49.482c11.714,10.26,27.688,17.095,41.827,23.168c15.639,6.718,31.304,13.795,47.501,19.073
					c26.453,8.622,54.411,12.709,82.232,11.798c45.372-1.486,95.862-15.061,127.842-49.125c12.046-0.063,24.427-2.633,35.313-7.849
					c6.395-3.062,11.856-7.643,18.071-11.009c6.415-3.475,13.516-5.388,19.925-8.879c12.318-6.71,24.116-15.129,32.843-26.213
					c8.438-10.72,14.372-23.087,21.265-34.789c8.51-14.449,19.719-28.469,24.164-44.873
					C771.258,776.095,765.994,758.111,761.654,739.024z"/>
			</g>
			<g opacity="0.7">
				<path fill="#C6876A" d="M650.608,527.536c-2.954-1.516-6.835-3.107-10.196-3.286c-4.771-0.255-9.703,0.998-14.369,1.818
					c-8.279,1.456-16.577,2.471-24.985,2.667c-8.683,0.201-17.199-0.817-25.805-1.785c-7.771-0.874-16.285-4.302-24.063-2.65
					c-2.675,0.567-4.415,3.802-2.979,6.278c4.436,7.647,14.252,10.778,22.226,13.328c8.938,2.859,18.523,3.853,27.863,4.312
					c9.52,0.467,19.164-0.113,28.608-1.325c9.765-1.252,19.917-3.668,25.176-12.766
					C653.295,532.032,652.993,528.761,650.608,527.536z"/>
				<path fill="#C6876A" d="M365.741,550.922c-7.041-6.04-16.985-2.977-25.312-1.96c-7.567,0.924-15.108,1.343-22.713,1.768
					c-7.157,0.4-14.269-0.22-21.386-0.982c-4.203-0.448-15.711-2.442-15.64,4.651c0.07,7.047,8.689,11.242,14.088,13.919
					c6.748,3.347,14.985,4.461,22.396,5.322c7.854,0.915,16.071,0.331,23.946-0.103c9.094-0.5,20.188,0.522,26.459-7.213
					C371.462,561.54,370.225,554.767,365.741,550.922z"/>
			</g>
			<path fill="#C6876A" d="M411.021,525.704c0.135-0.232,0.279-0.463,0.419-0.693c0.03-0.063,0.063-0.118,0.092-0.184
				c0.227-0.518,0.464-1.025,0.709-1.527c-0.093,0.272-0.17,0.556-0.257,0.833c0.212-0.33,0.425-0.66,0.648-0.988
				c0.508-0.747,1.103-1.317,1.745-1.741c0.843-1.669,1.807-3.274,2.814-4.885c0.375-0.736,0.774-1.459,1.198-2.166
				c-0.455,0.292-0.889,0.615-1.297,0.973c3.239-4.575,6.853-8.889,9.793-13.797c5.159-8.613,10.376-24.136,3.878-33.146
				c-3.838-5.321-13.125-7.12-16.528,0.043c-2.491,5.246-2.119,10.253-2.243,15.879c-0.088,3.982-1.062,7.967-1.904,11.843
				c-1.873,8.606-4.2,16.856-7.501,25.005C400.65,525.934,408.224,529.409,411.021,525.704z"/>
			<g id="Eyes_11_">
				<g>
					<path fill="#EFE4CC" d="M635.094,467.438c6.016-10.784,7.235-25.41,2.291-36.828c-5.147-11.887-13.07-22.637-25.303-28.07
						c-4.741-2.104-9.462-3.512-14.169-4.26c-1.313-0.359-2.634-0.67-3.96-0.919c-14.072-2.654-26.775,2.091-36.504,10.735
						c-7.771,5.362-14.833,12.854-18.421,20.937c-1.035,2.326-2.133,5.034-3.003,7.567c-0.072,0.247-0.146,0.496-0.218,0.744
						c2.731-6.721,2.547-6.248-0.556,1.42c-1.166,3.3-1.594,6.903-1.581,10.378c0.023,7.267,2.535,14.106,5.925,20.402
						c4.736,8.796,13.909,16.479,23.028,20.359c12.704,5.404,24.679,6.855,38.316,4.332c13.12-2.427,23.505-11.541,31.03-21.973
						c0.088-0.125,0.166-0.256,0.253-0.382C633.287,470.433,634.253,468.945,635.094,467.438z"/>
					<path fill="#DACABC" d="M634.802,469.496c-2.263,4.646,14.393-37.868,0.128-29.446c-2.971,1.756-14.188,13.58-16.665,15.991
						c-17.662,16.412-41.019,17.921-61.617,9.064c-24.788-23.309-9.771,24.443,20.386,27.85
						C593.698,494.836,626.085,487.455,634.802,469.496C636.891,465.207,634.734,469.638,634.802,469.496z"/>
				</g>
				<g>
					<path fill="#EFE4CC" d="M371.066,484.012c0.995-3.541,1.778-7.535,1.691-11.339c-0.147-6.323-1.198-13.186-4.226-19.232
						c-0.637-1.68-1.307-3.344-1.995-4.884c-3.187-7.148-9.879-15.144-17.442-18.966c-12.896-6.517-24.107-7.363-37.36-3.503
						c-4.765,1.388-9.12,3.707-13.081,6.521c-2.438,1.352-4.657,2.894-6.461,4.563c-2.461,2.282-4.45,4.607-6.086,7.048
						c-9.029,10.774-12.754,27.118-8.403,40.875c3.176,10.044,8.401,17.493,17.232,24.57c9.068,7.267,21.483,8.011,32.292,7.86
						c9.797-0.137,18.422-4.777,26.125-9.286c7.256-4.246,11.974-11.768,15.359-18.851c0.396-0.83,1.008-2.059,1.147-2.393
						C370.354,486.019,370.782,485.019,371.066,484.012z"/>
					<path fill="#DACABC" d="M365.059,462.631c-13.412,4.347-16.907,24.525-34.973,27.32c-14.693,2.272-55.659-16.375-36.064,9.048
						c11.63,15.092,37.299,23.37,55.105,15.547C363.645,508.164,378.758,458.189,365.059,462.631
						C360.629,464.065,371.543,460.526,365.059,462.631z"/>
				</g>
			</g>
			<g>
				<path opacity="0.8" fill="#C6876A" enable-background="new    " d="M747.044,815.146c-0.743-14.383-21.673-14.553-22.348-0.12
					c-0.048,0.627-0.068,0.989-0.066,1.105c-0.1,0.581-0.198,1.16-0.318,1.737c-0.651,3.314-0.432,3.196-0.724,4.848
					c-0.604,3.408-1.59,6.745-2.683,10.024c-2.097,6.295-5.516,12.672-8.896,18.815c-3.487,6.335-7.645,12.522-11.911,18.357
					c-1.81,2.476-3.88,4.854-5.896,7.161c-2.017,2.309-4.154,5.887-6.754,7.495c-2.555,1.583-0.938,5.502,1.985,4.844
					c3.23-0.729,6.456-0.417,9.644-1.646c3.602-1.389,7.008-3.021,10.232-5.138c7.673-5.034,13.949-11.082,19.527-18.329
					C739.42,850.554,747.96,832.853,747.044,815.146z"/>
				<path opacity="0.8" fill="#C6876A" enable-background="new    " d="M282.455,746.648c0.055-1.361-2.561-5.2-4.257-4.157
					c-2.27,1.396-4.625,2.585-6.675,4.314c-2.062,1.739-3.864,3.774-5.646,5.795c-0.812,0.92-1.585,1.868-2.377,2.804
					c-3.106,3.671-5.031,7.832-7,14.219c-1.253,0.242-2.285-0.569-3.092-1.838c-2.191-3.443-3.625-7.398-4.955-11.292
					c-2.297-6.719-3.962-13.956-5.308-20.934c-2.423-12.571-1.906-25.29,0.669-37.796c1.599-7.761,3.439-15.473,6.092-22.948
					c2.379-6.704,5.031-13.474,4.606-20.729c-0.055-0.935-0.979-1.512-1.828-1.063c-10.085,5.324-14.947,18.031-18.807,28.192
					c-9.912,26.096-10.896,56.509-0.705,82.53c2.615,6.678,5.553,15.191,9.915,20.93c2.996,3.94,7.441,6.697,9.839,11.088
					c3.8,6.958,3.275,16.156,10.713,20.795c0.371,0.231,0.929,0.273,1.314-0.004c10.8-7.771,7.846-26.042,9.971-37.217
					c1.104-5.812,2.251-11.614,3.544-17.388c0.372-1.659,0.756-3.317,1.155-4.973C280.476,753.468,282.306,750.334,282.455,746.648z
					"/>
				<path opacity="0.8" fill="#C6876A" enable-background="new    " d="M684.4,805.441c-1.646-8.888-4.869-17.33-9.383-25.25
					c-3.044-5.34-6.414-10.706-10.137-15.603c-4.059-5.337-8.031-10.824-12.89-15.477c-2.572-2.464-6.845,0.728-4.985,3.855
					c1.755,2.956,3.523,5.896,5.221,8.895c1.435,2.536,1.934,6.308,2.604,9.121c0.769,3.221,1.382,6.473,1.892,9.743
					c1.004,6.438,3.243,13.155,3.705,19.65c0.278,3.931,1.126,8.426,1.333,12.358c0.41,7.807,0.97,14.041,3.167,21.527
					c2.813,9.583,2.76,19.482,4.32,29.325c0.43,2.703,0.912,5.398,1.285,8.11c0.396,2.882-0.102,7.121,0.911,9.769
					c0.068,0.179,0.141,0.354,0.208,0.534c0.134,0.361,0.183,0.7,0.171,1.02c0.159,0.023,0.312,0.067,0.474,0.085
					c0.069-0.255,0.135-0.511,0.214-0.764c1.09-3.512,2.374-6.938,3.809-10.322c1.466-3.459,2.985-7.146,4.746-10.669
					c1.046-4.167,2.117-8.33,2.659-12.643c1.533-12.2,2.787-24.731,1.565-37.015C685.081,809.589,684.783,807.504,684.4,805.441z"/>
			</g>
			<g>
				<path fill="#FDC58D" d="M759.831,672.367c0.047,0.156,0.099,0.311,0.14,0.47C759.909,672.605,759.864,672.456,759.831,672.367z"
					/>
				<g>
					<path fill="#FDC58D" d="M750.635,572.625c20.21,6.614,73.999-17.797,49.551-41.916c-10.426-10.295-18.644-15.853-17.329-33.301
						c0.881-11.688-9.865-7.176-19.331-12.168c-2.052-16.762-19.678-6.512-22.001-12.149c-5.004-12.136-8.566-27.146-12.249-40.07
						c-27.96,1.28-10.2,62.086-9.486,76.688c1.343,27.403-0.084,53.439-4.696,80.777c-1.446,8.57-3.983,25.398-12.35,30.546
						c-3,1.844-8.153-0.02-10.653,5.221c-0.7,1.469,40.51,44.333,44.904,52.829c19.316,37.345,25.697,95.589,13.519,137.503
						c-8.397,28.894-28.619,49.96-48.085,71.884c-7.893,8.891-19.943,18.466-31.594,21.889c-2.963,0.87-7.528-3.537-8.015-3.296
						c1.847-0.917,3.696-8.813,4.418-10.778c1.369-3.727,2.603-7.512,3.671-11.335c2.118-7.572,3.67-15.288,4.669-23.087
						c-0.116,0.791-0.188,1.587-0.267,2.381c0.699-3.31,0.975-6.704,1.705-10.007c0.002,0.031,0.002,0.063-0.002,0.095
						c2.525-19.62,0.082-39.737-5.643-58.668c-2.561-8.47-5.757-18.854-11.171-25.983c-2.563-3.373-7.471-7.832-11.679-4.062
						c-4.57,4.099-0.789,12.896,0.476,17.771c3.148,12.146,4.401,25.504,4.951,38.009c0.492,11.192-2.222,21.781-4.521,32.63
						c-5.256,24.8-11.778,50.688-29.412,69.83c-16.454,17.862-39.594,27.366-62.32,34.453c-12.635,3.938-25.871,8.352-38.916,10.663
						c-58.878,10.435-115.752-6.839-169.999-27.552c-45.302-17.298-65.375-68.998-65.871-115.602
						c0.228-4.68-0.281-9.298-0.511-14.182c-0.324-6.934-0.563-13.902-0.518-20.845c0.094-13.703,2-27.396,5.9-40.54
						c2.188-7.365-9.388-12.405-12.613-5.186c-4.18,9.354-7.254,19.205-9.282,29.238c-1.009,4.988-1.819,10.023-2.375,15.085
						c-0.224,2.03-2.348,12.911-0.95,14.23c-0.604-0.571-1.215-1.14-1.812-1.732c-14.863-14.796-28.445-34.235-32.868-54.972
						c-4.499-21.093,0.291-42.677,8.963-62.054c2.44-5.454,5.181-10.77,8.07-15.999c2.735-4.953,5.316-11.08,8.93-15.438
						c7.415-8.93,38.792-40.518,7.917-22.659c-0.271-9.474-10.837-14.063-9.582-20.91c-6.02-12.019-6.745-29.091-9.227-42.159
						c-6.864-36.175-7.202-71.911-7.485-108.63c-0.05-6.385-2.326-72.425,6.586-68.513c4.929-1.12,19.088,11.9,26.186,15.666
						c14.421,7.646,29.896,13.205,45.627,17.467c81.731,22.143,149.096-15.846,220.478-49.175
						c23.012-10.744,44.317-13.246,69.176-8.308c11.409,2.269,22.285,5.799,32.224,11.957c10.368,6.422,18.866,16.168,29.744,21.688
						c12.016,6.097,30.491-5.179,33.298-16.939c5.359-22.467-24.553-33.317-39.438-42.084
						c-73.354-43.19-130.49-10.85-199.014,22.668C408.4,388.9,356.268,397.118,300.156,382.033
						c-29.252-7.864-67.654-31.624-77.967,9.563c-9.717,38.809-1.687,86.674,3.031,125.868
						c-4.788-9.652-15.453-19.404-22.299-28.712c-9.668-13.147-16.456-28.485-25.604-41.156
						c-16.067-22.256-20.762,21.573-19.128,29.974c2.244,11.532,18.875,24.732,16.234,36.323
						c-8.669,24.388-9.134,68.629,20.791,77.645c10.355,3.119,35.275,0.067,36.797-13.74c2.954,22.887,8.354,46.464,21.673,57.497
						c-6.021,5.964-11.099,13.729-16.153,20.521c-5.307,7.131-10.335,14.493-14.642,22.276
						c-6.342,11.46-10.598,26.121-12.717,38.979c-2.321,14.079-1.23,28.285,1.614,42.202c4.048,19.8,9.306,40.364,19.126,58.165
						c3.136,5.685,6.446,11.186,10.452,16.305c4.181,5.344,8.391,12.221,13.438,16.729c2.135,1.907,4.445,3.557,7.041,4.744
						c0.572,0.262,1.151,0.471,1.73,0.646c15.829,101.562,124.338,144.366,218.73,140.873
						c53.888-1.995,108.587-2.832,148.939-43.186c14.49,16.154,84.783-35.934,98.439-46.163
						c42.751-32.024,55.926-83.419,53.55-134.809c-2.212-47.841-14.856-117.574-61.056-143.718
						C738.973,617.408,746.518,591.058,750.635,572.625z M227.618,535.929c0.627,4.53,1.146,9.886,1.687,15.726
						C227.584,546.188,225.908,540.899,227.618,535.929z M230.708,570.12c0.111-0.29,0.207-0.579,0.302-0.868
						c0.087,0.812,0.177,1.623,0.27,2.439C231.112,571.179,230.928,570.655,230.708,570.12z"/>
					<path fill="#FDC58D" d="M677.017,854.327c-0.008,0.079-0.011,0.16-0.019,0.239
						C677.008,854.459,677.014,854.384,677.017,854.327z"/>
				</g>
				<path fill="#FDC58D" d="M211.461,504.641c-0.015-0.003-0.027-0.004-0.041-0.006C210.76,503.039,210.772,503.04,211.461,504.641z
					"/>
			</g>
			<g>
				<path fill="#C6876A" d="M765.528,514.093c-0.382-6.81,0.09-13.968-3.53-19.997c-3.839-6.394-14.511-8.67-19.917-3.251
					l-0.001,0.008c0.126,0.253,0.204,0.549,0.208,0.895c0.111,9.401-0.052,18.807-0.523,28.194c0.253,1.71,0.468,3.386,0.573,4.992
					c0.232,3.537,0.513,7.138,0.545,10.727c3.057,8.778,8.533,17.113,13.319,24.697c0.33,0.524,1.125,0.438,1.303-0.172
					c2.864-9.844,5.728-19.48,7.265-29.699C765.565,525.191,765.829,519.44,765.528,514.093z"/>
				<path fill="#C6876A" d="M228.104,555.383c-1.298-9.153-0.852-18.852-4.438-27.448c-2.595-6.219-12.84-4.301-14.075,1.854
					c-1.819,9.057,1.105,18.81,3,27.699c1.072,5.035,2.646,10.108,4.707,14.948c-3.291,0.215-6.655,1.238-9.88,1.587
					c-4.524,0.49-9.15,0.771-13.697,0.526c-9.027-0.481-17.54-4.282-22.317-12.156c-0.696-1.149-2.655-0.43-2.234,0.916
					c3.186,10.18,8.746,18.907,18.923,23.217c10.53,4.459,25.581,6.77,36.359,2.202c2.166-0.918,3.548-3.121,4.078-5.472
					c0.491-0.569,0.82-1.322,0.871-2.235C229.875,572.551,229.295,563.784,228.104,555.383z"/>
			</g>
			<g>
				<path fill="#8A5322" d="M856.094,484.161c-0.064,0-0.064,0.101,0,0.101C856.157,484.262,856.157,484.161,856.094,484.161z"/>
				<path fill="#8A5322" d="M170.762,348.163c-0.064,0-0.064,0.101,0,0.101S170.826,348.163,170.762,348.163z"/>
				<path fill="#8A5322" d="M856.34,474.787c-0.111-0.356-0.234-0.703-0.367-1.037c-0.418-1.05-17.3-0.972-19.156-1.129
					c-7.28-0.617-14.64-1.366-21.757-3.077c-16.387-3.938-23.2-14.734-35.38-24.822c-0.54-0.447-1.064-0.915-1.598-1.371
					c16.758-1.277,42.194-3.124,52.745-18.717c5.04-7.449-6.936-6.502-10.542-6.467c-7.929,0.075-15.896-0.927-23.763-1.88
					c-6.26-0.759-12.593-0.48-18.85-1.248c-2.979-0.365-6.021-0.789-8.861-1.827c-0.997-0.364-4.857-2.999-5.559-2.838
					c9.598-2.209,18.788-3.44,27.905-7.682c6.511-3.028,19.294-8.513,22.424-15.712c0.551-1.266,0.392-2.257-0.461-3.335
					c-4.629-5.854-14.23-0.232-19.65,1.212c-9.392,2.503-18.962,3.701-28.611,1.882c-5.561-1.048-10.928-2.92-16.148-5.078
					c-1.275-0.527-17.601-7.683-17.486-7.162c-0.143-0.648-0.186-1.342-0.1-2.088c0.968-8.54,6.113-15.769,7.324-24.157
					c2.396-16.602,5.561-33.398,7.078-50.101c1.383-15.208,1.571-30.526-0.038-45.725c-3.288-31.036-14.237-60.34-28.722-87.805
					c-20.607-39.078-43.701-73.66-84.417-93.694c-10.325-5.082-21.188-9.977-32.105-13.646
					c-15.72-5.286-31.525-10.333-47.721-13.984c-7.559-1.703-15.215-3.022-22.988-2.938c-2.131,0.022-23.445,3.135-23.388,3.27
					c-5.049-11.549-18.871-15.085-29.643-19.327c-10.299-4.059-21.188-6.271-32.227-6.904c-25.211-1.453-50.518,4.438-74.258,12.451
					c-32.2,10.864-62.267,25.491-90.809,43.958c-2.697,1.745-5.407,3.507-8.114,5.267c-2.331,0.838-4.554,1.819-6.513,2.688
					c-8.065,3.574-15.303,8.925-21.968,14.638c-2.098,1.798-4.077,3.811-5.967,5.936c-9.479,6.705-18.407,14.212-26.644,22.371
					c-10.55,10.454-21.088,21.925-29.964,33.847c-4.188,5.625-8.986,11.76-11.48,18.378c-1.221,3.237-2.271,6.493-3.002,9.879
					c-0.337,1.564-0.403,3.061-0.361,4.547c-0.907,1.233-1.695,2.554-2.326,3.977c-1.252,2.824,0.203,6.892,3.857,6.685
					c6.314-0.359,11.557-2.497,17.396-4.743c0.508-0.195,1.021-0.381,1.53-0.575c5.525,2.315,13.128,0.043,18.611-1.243
					c6.156-1.441,12.262-3.162,18.493-4.256c7.729-1.355,15.392-3.103,23.075-4.743c-0.501,0.354-0.922,0.639-1.234,0.822
					c-0.153,0.092-0.311,0.181-0.465,0.271c1.563,2.73,1.139,6.566-1.188,8.988c-0.262,0.684-0.643,1.362-1.178,2.022
					c-2.07,2.553-3.848,5.229-5.438,7.988c-3.852,1.665-7.677,3.396-11.548,5c-12.029,4.982-24.267,9.281-36.877,12.555
					c-10.96,2.844-22.06,5.042-33.066,7.681c-4.75,1.14-9.581,1.937-14.448,2.353c-0.192,0.017-0.388,0.023-0.581,0.037
					c-5.874-3.494-11.251-7.513-14.157-13.529c-0.593-1.225-2.528-1.155-3.132,0.009c-3.625,6.988-0.04,13.212,5.114,18.543
					c-0.345,0.36-0.537,0.862-0.378,1.406c2.262,7.734,6.17,14.756,11.094,21.143c0.822,2.565,1.854,5.074,2.908,7.503
					c5.324,12.28,14.537,22.938,23.93,32.291c9.871,9.831,21.984,17.871,33.609,25.465c0.227,0.148,0.456,0.292,0.684,0.439
					c0.201,1.112,0.401,2.225,0.613,3.334c7.957,6.715,16.143,13.231,24.508,19.413c-3.465-2.562-15.629,3.591-19.56,4.445
					c-11.64,2.527-24.264,3.034-35.941,0.616c-5.894-1.221-11.613-3.198-16.958-5.974c-2.261-1.174-11.487-9.177-13.436-8.823
					c-0.021,0.004-0.042,0.008-0.065,0.013c-5.808,1.112-1.513,12.596-0.288,15.026c5.602,11.121,16.851,20.942,27.499,27.163
					c-7.311-4.271-15.467-6.723-22.916-10.707c-7.37-3.941-15.394-8.854-23.047-12.022c-2.376-0.983-4.857,0.183-5.045,2.915
					c-1.433,21.004,28.188,38.934,38.469,54.693c6.174,9.464,9.541,20.27,13.298,30.828c3.142,8.836,6.271,16.15,13.883,21.921
					c8.665,6.57,15.91,13.112,19.895,23.466c3.775,9.809,5.918,21.128,14.313,28.28c4.215,3.593,13.7,4.207,17.089-1.514
					c4.464-7.535-2.035-23.324-3.674-31.021c-2.585-12.146-4.914-24.401-5.442-36.837c-0.807-18.959,3.908-36.758,7.887-55.105
					c1.862-8.591,3.336-17.036,4.34-25.772c0.591-5.149-0.331-10.572,6.229-11.146c8.125-0.713,21.05,7.681,27.324,12.011
					c5.811,4.011,9.057,10.323,14.563,14.61c18.123,14.104,46.088,16.458,68.192,15.39c25.69-1.242,49.853-6.76,73.839-15.689
					c28.381-10.563,56.401-23.905,83.563-37.256c26.479-13.014,52.503-28.742,81.788-34.531
					c31.474-6.222,62.449-6.332,89.369,13.962c9.745,7.346,17.658,16.098,25.05,25.717c7.858,10.228,15.31,15.896,13.317,29.52
					c-3.708,25.37-0.947,58.248,11.392,81.109c10.897,20.19,32.086,34.237,55.315,32.573c16.783-1.202,35.23-4.515,51.453-8.934
					C840.772,487.897,858.881,482.966,856.34,474.787z"/>
				<g>
					<path fill="#7C411C" d="M812.322,485.15c-12.854-9.765-28.629-7.9-43.718-11.681c-6.642-1.663-12.054-4.048-18.037-7.7
						c-5.095-3.109-11.646-9.076-13.325-14.914c-0.033-0.115-0.072-0.221-0.111-0.33c5.846,3.785,12.564,6.268,19.289,7.922
						c8.762,2.155,20.254,3.834,28.523-0.64c3.525-1.907,5.707-5.911,5.732-9.864c0.035-5.647-3.65-9.146-8.497-11.132
						c-5.861-2.4-14.055-1.24-20.331-1.7c-0.734-0.059-1.468-0.13-2.199-0.211c-0.123-0.02-0.258-0.041-0.414-0.063
						c-1.469-0.229-2.922-0.546-4.37-0.881c-3.563-0.821-5.514-1.61-7.362-2.517c-5.061-2.475-8.053-4.779-10.67-8.695
						c-1.656-2.479-2.809-4.918-3.548-7.406c0.563,0.536,1.135,1.056,1.721,1.543c5.065,4.226,13.514,7.937,19.706,3.874
						c3.439-2.257,4.861-6.55,2.75-10.263c-2.117-3.723-6.483-5.876-10.222-7.753c-3.021-1.518-4.968-3.941-6.872-6.644
						c-2.017-2.86-3.19-5.871-3.994-9.259c-0.781-3.305-0.877-8.334-2.942-11.047c-0.875-1.146-1.991-1.489-3.33-0.892
						c-3.974,1.771-5.88,8.323-6.333,12.276c-0.61,5.327-0.198,10.848,1.506,15.951c-0.33,0.378-0.601,0.827-0.779,1.355
						c-2.808,8.31-4.899,15.827-3.16,24.614c1.435,7.24,6.136,13.798,11.787,18.498c-2.795-0.107-5.723,2.096-4.726,5.563
						c1.151,4.003,1.882,8.182,2.761,12.261c0.876,4.069,4.275,8.246,6.777,11.434c5.161,6.572,11.847,11.186,19.355,14.729
						c7.865,3.711,16.175,6.412,24.736,7.879c4.604,0.789,9.271,1.556,13.938,1.758c3.35,0.145,5.999-0.354,9.07-1.719
						c-1.964,0.871,1.584,0.127,1.654,0.113c1.236-0.229,2.804-1.185,4.006-1.758C815.046,495.783,816.354,488.213,812.322,485.15z"
						/>
					<path fill="#7C411C" d="M278.027,136.369c-4.558,0.594-9.206,2.555-13.679,3.696c-5.063,1.294-10.165,2.448-15.264,3.602
						c-11.262,2.547-22.604,4.889-33.666,8.221c-11.274,3.396-22.524,7.543-32.879,13.186c-4.533,2.471-9.61,6.103-12.867,10.191
						c-4.715,5.918-10.277,17.666-0.623,22.317c3.182,1.533,6.089,2.008,9.515,0.956c0.619-0.255,1.238-0.509,1.857-0.764
						c0.104-0.036,0.4-0.147,0.896-0.337c1.765-0.656,3.5-1.376,5.24-2.096c1.939-0.802,3.791-1.889,5.716-2.765
						c1.158-0.493,3.114-1.338,3.79-1.664c0.653-0.313,1.317-0.606,1.982-0.897c-0.286,0.141,1.938-0.783,2.336-0.934
						c1.193-0.448,2.402-0.858,3.609-1.271c2.482-0.848,5.003-1.586,7.526-2.301c5.261-1.491,10.604-2.693,15.953-3.811
						c10.412-2.173,20.83-4.249,31.279-6.239c10.463-1.991,22.37-3.312,31.95-8.174c6.635-3.368,9.705-11.885,7.89-18.848
						C296.054,138.703,287.133,135.187,278.027,136.369z"/>
					<path fill="#7C411C" d="M491.727,45.556c-16.584-4.573-37.889-2.274-52.662,6.772c-2.207,1.353-1.253,4.596,1.256,4.738
						c8.631,0.49,16.575-1.895,24.887-3.817c8.632-1.998,17.318-3.604,26.117-4.699C492.948,48.349,493.52,46.049,491.727,45.556z"
						/>
					<path fill="#7C411C" d="M230.84,343.665c-6.521,1.45-12.093,6.369-17.582,8.235c-6.713,2.281-13.883,3.723-20.914,4.553
						c-7.641,0.902-15.364,0.986-22.99,1.925c-6.708,0.825-13.259,2.065-20,2.72c-1.039,0.101-1.245,1.437-0.241,1.797
						c6.655,2.388,13.159,5.171,19.971,7.065c8.246,2.295,17.381,2.835,25.899,3.126c8.232,0.282,16.479-0.295,24.527-2.079
						c7.868-1.744,18.705-5.271,22.114-13.261C244.834,350.226,239.572,341.726,230.84,343.665z"/>
					<path fill="#7C411C" d="M228.874,373.025c-8.264,0-14.954,5.663-22.311,8.912c-6.494,2.87-13.78,4.614-20.758,5.791
						c-16.185,2.729-32.188,3.264-48.448,1.154c-1.842-0.238-2.211,2.809-0.43,3.195c8.537,1.854,16.873,4.2,25.37,6.137
						c8.198,1.869,16.789,3.405,25.219,3.166c8.604-0.242,17.007-1.752,25.065-4.766c8.69-3.251,18.451-7.306,21.56-16.687
						C235.261,376.556,232.26,373.025,228.874,373.025z"/>
					<path fill="#7C411C" d="M578.643,65.507c3.165,0.303,6.389,0.85,9.484,1.579c1.544,0.364,3.093,0.791,4.623,1.213
						c1.864,0.515,3.359-0.113,4.966,1.052c2.756,1.999,5.873-1.826,4.425-4.449c-1.676-3.037-2.085-5.926-4.577-8.616
						c-2.721-2.938-7.43-5.513-11.213-6.737c-8.794-2.848-17.95-3.66-27.147-3.541c-9.791,0.128-19.41,1.689-29.041,3.345
						c-4.152,0.713-8.299,1.469-12.45,2.187c-3.341,0.577-6.617,2.305-9.839,3.386c-5.028,1.69-6.195,10.064-0.039,11.195
						c15.008,2.761,30.941,0.329,46.109-0.729C562.11,64.817,570.485,64.73,578.643,65.507z"/>
					<path fill="#7C411C" d="M618.445,66.271c-5.504,2.829-10.786,6.008-15.796,9.586c-0.298-0.58-0.892-0.996-1.813-0.966
						c-12.976,0.436-25.269,4.23-36.905,9.833c-11.615,5.592-23.054,12.912-30.251,23.789c-1.668,2.521,1.67,5.758,4.171,4.147
						c9.85-6.34,18.333-14.461,28.278-20.697c9.625-6.036,20.34-10.539,31.578-12.363c-1.163,0.931-2.315,1.877-3.443,2.855
						c-3.95,3.434-7.147,7.504-10.202,11.73c-3.277,4.534-5.396,8.362-4.16,13.986c0.663,3.021,4.171,4.122,6.709,2.808
						c4.146-2.148,5.601-5.12,7.879-9.054c2.321-4.008,5.204-7.663,8.106-11.259c5.589-6.922,12.374-12.759,19.606-17.891
						C626.113,70.006,622.812,64.027,618.445,66.271z"/>
					<path fill="#7C411C" d="M215.055,473.585c-3.205-9.645-7.683-18.593-12.753-27.374c-5.012-8.681-10.556-16.954-16.536-24.989
						c-5.897-7.929-12.369-17.238-22.888-18.3c-2.262-0.229-5.095,1.855-5.426,4.142c-1.357,9.358,4.404,17.109,10.051,24.115
						c5.72,7.1,11.53,14.166,17.068,21.404c5.748,7.514,11.005,15.426,16.095,23.395c4.895,7.661,10.782,16.068,13.819,24.642
						c0.859,2.428,5.104,2.324,4.798-0.601C218.337,490.951,217.967,482.351,215.055,473.585z"/>
					<path fill="#7C411C" d="M733.512,310.115c-2.566-3.141-4.704-6.096-8.38-8.188c-0.221-0.126-0.452-0.238-0.681-0.356
						c-0.858-1.821-1.97-3.602-3.604-5.369c-2.1-2.271-4.722-4.06-7.118-6.009c-6.238-5.07-12.658-9.932-19.179-14.633
						c-10.165-7.328-20.924-13.826-32.278-19.14c-25.491-11.927-53.322-18.245-81.525-15.643
						c-48.938,4.518-92.362,27.654-135.088,50.236c-10.144,5.36-20.325,10.651-30.664,15.632c-4.904,2.361-9.856,4.626-14.85,6.8
						c-1.144,0.498-2.292,0.984-3.441,1.469c-0.07,0.029-0.138,0.056-0.218,0.088c-2.913,1.172-5.853,2.277-8.804,3.354
						c-10.443,3.804-21.158,6.845-32.07,8.963c-2.612,0.507-5.242,0.925-7.875,1.31c-0.047,0.008-0.083,0.013-0.127,0.02
						l-0.012,0.001c-1.332,0.149-2.667,0.268-4.003,0.385c-5.858,0.512-11.734,0.586-17.61,0.45
						c-2.766-0.063-5.526-0.242-8.284-0.461c-1.396-0.11-2.789-0.261-4.182-0.412c-0.196-0.021-0.362-0.039-0.516-0.055
						c-0.043-0.007-0.079-0.013-0.124-0.02c-6.595-0.971-13.034-2.537-19.418-4.432c-3.113-0.924-6.188-1.973-9.246-3.061
						c-1.527-0.543-3.041-1.125-4.555-1.706c-0.318-0.122-0.581-0.223-0.799-0.306c-0.194-0.083-0.418-0.178-0.688-0.292
						c-6.502-2.746-12.825-5.904-19.027-9.268c-12.02-6.521-23.466-13.957-34.45-22.095c-0.146-0.106-0.275-0.204-0.396-0.294
						c-0.225-0.176-0.592-0.462-1.168-0.905c-1.311-1.012-2.605-2.038-3.9-3.067c-2.59-2.056-5.139-4.163-7.674-6.285
						c-5.482-4.59-10.942-9.199-16.283-13.957c-7.301-6.506-14.456-14.239-22.565-19.706c-4.021-2.71-8.456-5.956-13.22-7.231
						c-3.41-0.913-9.484,0.074-11.556,3.568c-7.688,12.979,7.296,27.936,15.218,37.312c8.826,10.449,18.621,20.166,28.82,29.269
						c21.075,18.809,44.355,35.656,70.243,47.167c24.852,11.052,51.173,17.291,78.482,15.989
						c23.648-1.127,46.63-7.063,68.592-15.664c22.621-8.858,44.238-19.819,65.838-30.886c10.265-5.258,20.563-10.441,30.955-15.442
						c4.955-2.384,9.951-4.679,14.984-6.893c0.944-0.415,4.578-1.938,5.67-2.408c2.248-0.896,4.504-1.771,6.771-2.62
						c10.559-3.951,21.378-7.188,32.4-9.555c2.645-0.567,5.306-1.049,7.971-1.5c1.335-0.228,2.676-0.422,4.017-0.617
						c0.007-0.001,0.013-0.002,0.021-0.003c6.327-0.712,12.662-0.96,19.026-0.783c3.2,0.089,6.395,0.351,9.578,0.669
						c0.302,0.029,0.549,0.055,0.76,0.073c0.015,0.002,0.024,0.004,0.039,0.006c1.529,0.229,3.051,0.509,4.57,0.791
						c6.461,1.196,12.799,2.993,19.009,5.122c1.416,0.485,2.816,1.016,4.216,1.546c0.146,0.056,0.274,0.104,0.396,0.149
						c0.022,0.01,0.041,0.018,0.064,0.026c2.741,1.168,5.413,2.501,8.069,3.849c5.789,2.934,11.362,6.281,16.803,9.813
						c3.388,2.198,6.687,4.527,9.949,6.902c0.371,0.272,0.74,0.55,1.11,0.824c0.136,0.104,0.269,0.207,0.439,0.338
						c1.616,1.249,3.209,2.526,4.798,3.808c3.203,2.581,6.371,5.216,9.428,7.968c2.59,2.332,5.284,4.473,8.171,6.445
						c1.087,0.611,2.203,1.117,3.343,1.535c0.617,0.883,1.315,1.743,2.161,2.578c2.634,2.599,6.368,4.65,9.459,6.764
						c7.394,5.058,18.441,2.681,24.41-3.368C742.067,330.242,740.477,318.64,733.512,310.115z"/>
					<path fill="#7C411C" d="M903.034,301.063c-5.431-5.634-12.85-5.423-20.097-5.23c-6.385,0.169-12.766,0.405-19.143,0.786
						c-10.702,0.639-21.281,2.014-31.775,4.202c-15.374,3.206-30.384,8.075-44.874,14.102c-7.387,3.073-14.819,6.401-21.646,10.601
						c-6.586,4.05-12.88,9.061-18.962,13.89c1.146-1.597,2.354-3.176,3.643-4.748c10.358-12.632,20.493-25.584,32.7-36.514
						c10.839-9.705,23.75-17.848,37.579-22.258c8.89-2.835,18.229-4.531,27.479-5.667c3.693-0.453,7.927-0.655,12.072-1.253
						c6.146,0.465,12.328,0.333,16.518-3.646c2.325-2.207,2.482-5.257,1.352-7.887c0.484-2.644-0.438-5.425-2.325-7.438
						c-7.813-8.333-22.597-4.252-32.326-2.618c-10.22,1.716-20.313,4.118-30.045,7.704c-16.926,6.235-31.849,16.317-45.016,28.558
						c-9.832,9.14-18.637,19.505-25.292,31.13c-4.086,5.666-7.653,11.428-10.382,17.925c-1.486,3.541-2.81,7.136-3.975,10.794
						c-0.799,2.506-0.571,4.492-0.292,6.605c-2.244,7.222-3.662,13.962-2.246,16.616c-0.798,3.633-0.313,6.765,3.607,6.756
						c5.457-0.014,8.485-8.406,11.343-12.104c4.088-5.29,9.206-9.781,14.649-13.625c5.953-4.205,12.654-6.42,19.361-9.102
						c7.085-2.834,14.396-5.091,21.768-7.047c13.789-3.66,27.031-5.828,39.297-6.84c9.822-0.81,19.706-1.224,29.561-1.236
						c5.742-0.008,11.483,0.158,17.223,0.333c7.419,0.226,14.782,0.467,20.373-5.284
						C907.947,313.644,907.739,305.943,903.034,301.063z"/>
				</g>
			</g>
			<g id="Mouth_3_">
				
					<radialGradient id="SVGID_15_" cx="244.6865" cy="-4676.9199" r="88.3896" gradientTransform="matrix(1 0 0 -1 214.3999 -3842.0684)" gradientUnits="userSpaceOnUse">
					<stop  offset="0" style="stop-color:#341211"/>
					<stop  offset="0.3233" style="stop-color:#391311"/>
					<stop  offset="0.8114" style="stop-color:#48170E"/>
					<stop  offset="1" style="stop-color:#4E1A0D"/>
				</radialGradient>
				<path fill="url(#SVGID_15_)" d="M566.362,859.816c-0.325-0.957-0.721-1.872-1.16-2.763c-1.354-2.751-3.12-5.264-4.445-8.02
					c-2.269-4.712-4.22-9.638-6.711-14.2c-2.561-4.688-5.705-8.907-8.889-13.03c-3.832-4.964-7.668-10.015-12.288-14.017
					c-5.766-4.996-12.315-8.531-18.967-11.613c-4.175-1.937-8.421-3.639-12.627-5.477c-16.188-7.073-32.714-12.691-49.827-15.718
					c-19.823-3.504-39.466-4.426-58.844,2.599c-8.99,3.258-17.583,7.946-25.133,14.513c-1.104,0.983-2.202,1.979-3.299,2.973
					c0.421-0.381-0.667,0.598-3.277,2.945c-0.66,0.771-1.259,1.599-1.8,2.485c-0.758,1.167-1.518,2.335-2.276,3.503
					c1.354-1.885,0.831-1.049-1.563,2.507c-1.978,4.142-3.793,8.199-4.257,12.98c-0.489,5.049,0.446,9.957,0.46,14.979
					c0.013,4.972-1.171,10.469,0.771,15.144c0.909,2.188,2.493,3.915,4.329,5.185c0.512,0.949,1.104,1.845,1.782,2.643
					c0.04,0.049,0.068,0.082,0.105,0.126c0.353,0.506,0.7,1.013,1.025,1.536c1.087,1.688,1.986,3.471,2.865,5.271
					c1.819,3.728,3.505,7.509,5.487,11.153c5.552,10.196,13.479,16.714,24.168,20.896c4.154,1.627,8.173,1.12,11.591-0.688
					c9.117,1.75,19.319,0.223,28.313-2.215c12.571-3.406,26.368-8.75,36.914-16.619c2.348-1.752,4.374-3.758,5.919-5.994
					c9.653-4.109,19.556-7.58,29.753-9.256c9.829-1.613,19.724-1.104,29.5,0.746c5.563,1.054,11.034,2.675,16.568,3.909
					c5.389,1.202,10.782,2.448,15.941,4.672c0.207,0.085,0.811-4.72,0.817-5.115C567.354,863.793,567.015,861.733,566.362,859.816z"
					/>
				<path fill="#C42328" d="M503.173,863.834c-0.132-2.891-1.953-6.789-3.266-9.34c-1.288-2.507-3.087-4.726-5.646-6.006
					c-6.16-3.081-14.132-0.667-20.411,0.753c-7.175,1.622-13.094,5.054-19.199,9.001c-1.387,0.899-2.75,1.842-4.104,2.802
					c-0.984-2.435-4.027-5.187-5.868-7.029c-1.95-1.953-4.153-3.681-6.692-4.798c-5.11-2.248-10.715-1.559-15.878,0.134
					c-5.511,1.805-10.7,4.463-15.859,7.078c-7.054,3.576-12.744,9.194-19.399,13.423c-3.262,2.072-8.157,5.132-6.808,9.716
					c1.488,5.058,6.53,4.618,10.747,5.204c14.703,2.043,29.919,5.778,44.623,1.683c14.591-4.062,27.432-12.891,41.961-17.225
					c1.984-0.593,25.813-4.681,25.812-4.409C503.188,864.492,503.188,864.164,503.173,863.834z"/>
				<path fill="#A03522" d="M562.755,832.188c-5.336-13.285-12.478-25.679-20.462-36.646c-8.041-11.044-16.464-22.873-27.303-30.36
					c-15.051-10.399-31.322-23.438-48.925-26.868c-2.204-0.43-11.888-1.531-13.344,0.925c-1.867,3.145-5.003,5.112-8.274,5.151
					c-3.96,0.049-7.15-4.033-11.262-4.008c-4.607,0.028-8.974,3.226-13.403,4.391c-24.301,6.396-50.053,16.516-64.383,42.142
					c-4.342,7.766-9.476,17.46-11.664,26.418c-5.351,21.903,0.224,49.636,9.595,69.282c5.564,11.664,19.509,18.425,29.965,21.059
					c12.378,3.116,25.806,4.58,38.476,4.356c14.851-0.262,29.439-3.752,43.688-8.431c8.162-2.682,16.18-5.866,24.28-8.774
					c9.816-3.522,19.24-7.599,29.469-9.243c8.8-1.415,17.578-1.737,26.439-2.045c4.539-0.156,9.063,1.125,13.585,0.915
					c7.059-0.328,5.939-4.467,8.899-10.094c2.823-5.37,4.626-7.626,2.968-14.379C569.12,847.929,565.806,839.781,562.755,832.188z
					 M558.252,863.13c1.513,4.901-16.23,0.446-17.336,0.083c-13.509-4.455-25.29-3.754-38.967-0.656
					c-20.208,4.578-39.262,11.307-59.07,17.67c-8.542,2.745-15.896,7.66-24.965,8.599c-9.082,0.939-19.587-1.188-27.858-5.774
					c-11.546-6.401-25.278-12.618-32.52-25.7c-8.294-14.985-5.861-39.122,3.661-52.617c6.551-9.28,16.505-14.386,25.924-18.548
					c27.431-12.115,54.239-11.278,81.904-0.93c7.187,2.688,14.545,5.412,21.5,8.837c16.158,7.953,30.839,17.421,43.512,31.763
					c8.879,10.046,19.127,23.232,23.995,36.689C558.104,862.737,558.188,862.921,558.252,863.13z"/>
			</g>
			<g>
				<path fill="#C6876A" d="M415.157,942.164c-5.292-3.33-11.51-2.812-17.468-3.14c-2.668-0.146-4.551-0.434-5.594-0.602
					c-3.051-0.494-6.065-1.196-9.059-1.962c-11.635-2.979-22.195-7.452-32.723-13.173c-10.966-5.959-20.86-13.34-30.978-20.564
					c-8.665-6.189-17.753-13.633-23.916-22.38c-1.173-1.665-4.291-0.747-3.539,1.451c3.81,11.137,8.838,21.228,15.854,30.694
					c8.384,11.313,19.368,20.407,30.849,28.417c11.338,7.911,23.726,14.375,36.801,18.887c12.478,4.305,31.191,9.676,42.207,0.013
					C423.28,954.815,420.909,945.784,415.157,942.164z"/>
				<path fill="#C6876A" d="M631.375,900.259c-0.418-2.238-2.653-4.509-4.898-4.932c-7.139-1.346-14.071,2.452-19.32,7.039
					c-4.86,4.248-9.77,8.431-14.683,12.617c-8.269,7.046-17.452,13.476-27.912,19.101c-9.695,5.216-18.651,8.402-29.871,11.061
					c-5.654,1.339-11.397,2.248-17.181,2.789c-7.463,0.698-15.969-0.274-21.895,4.98c-3.503,3.107-3.188,9.227,0.089,12.328
					c5.611,5.313,14.468,4.486,21.689,4.165c7.211-0.319,14.424-1.211,21.531-2.448c12.577-2.189,24.646-6.523,36.143-12.015
					c11.733-5.604,22.333-13.062,32.583-20.994C617.43,926.383,634,914.369,631.375,900.259z"/>
			</g>
			<path fill="#C6876A" d="M527.523,600.127c-8.7-8.586-20.719-5.086-27.283,3.768c3.438-4.635-1.043,1.074-1.974,2.12
				c-1.763,1.979-3.601,3.87-5.517,5.7c-1.996,1.906-4.11,3.688-6.256,5.427c-0.147,0.107-0.331,0.243-0.557,0.41
				c-1.378,1.021-2.792,1.993-4.21,2.958c-4.767,3.244-9.783,6.11-14.906,8.751c-2.821,1.453-5.707,2.776-8.614,4.047
				c-0.146,0.063-0.272,0.119-0.393,0.172c-0.22,0.083-0.523,0.201-0.939,0.364c-1.707,0.671-3.438,1.286-5.168,1.892
				c-5.53,1.933-11.23,3.532-16.927,4.896c-6.871,1.646-9.167,1.947-15.882,2.218c-4.452,0.179-10.844,0.337-14.226-0.141
				c-5.059-0.715-11.457-2.459-16.721-1.021c-2.977,0.813-4.563,3.744-3.927,6.69c1.328,6.156,7.049,10.688,13.617,13.781
				c-0.655,1.011-0.943,2.22-0.648,3.521c-0.355,0.982-0.557,2.009-0.566,3.085c-0.016,2.293,1.022,4.273,1.949,6.31
				c1.134,2.493,2.903,4.643,4.609,6.751c3.73,4.611,9.863,6.956,15.283,8.849c2.17,0.757,4.45,1.307,6.798,1.687
				c0.832,15.25,23.296,18.531,35.627,17.267c7.925-0.813,15.611-2.139,23.199-4.57c10.053-3.222,23.558-7.548,25.724-19.543
				c1.076-5.962,0.027-11.746-2.992-16.256c7.745-4.963,14.437-11.412,14.104-19.731c-0.192-4.81-2.069-9.198-5.285-12.348
				c4.558-3.805,8.696-7.965,12.256-12.486C533.553,617.262,534.832,607.34,527.523,600.127z"/>
			<g>
				<path fill="#4A2C12" d="M592.119,703.242c-1.977-6.794-8.022-10.649-15.828-13.41c5.55,1.962,0.641,0.142-0.412-0.318
					c-1.767-0.77-3.433-1.669-5.074-2.584c-0.041-0.03-0.077-0.057-0.122-0.087c-1.468-1.033-2.813-2.163-4.141-3.299
					c-0.971-0.83-1.865-1.708-2.762-2.584c-0.234-0.276-0.479-0.552-0.71-0.83c-4.328-15.015-15.172-29.625-26.922-40.813
					c-6.418-6.111-18.89-7.256-27.405-3.911c-1.943,0.766-3.675,1.743-5.187,2.871c-1.503-0.011-2.993,0.079-4.431,0.304
					c-1.38,0.216-2.755,0.563-4.099,1.025c-5.123-5.405-14.011-8.265-22.563-6.933c-3.119,0.484-5.947,1.509-8.384,2.903
					c-3.579-1.107-7.604-1.469-11.89-0.803c-5.048,0.787-8.831,2.655-11.501,5.184c-3.479-0.83-7.178-1.037-10.56-0.511
					c-0.166,0.024-0.329,0.059-0.494,0.087c-0.339-0.1-0.675-0.206-1.026-0.295c-1.451-0.365-2.989-0.581-4.558-0.651
					c-7.073-5.992-21.225-6.904-28.626-0.29c-4.979-8.186-17.768-11.068-28.529-4.92c-12.646,7.227-18.49,17.837-21.685,29.155
					c-4.87,5.123-9.301,10.513-13.13,16.188c-9.345,13.85-17.318,29.454-16.543,45.489c0.44,9.072,12.52,16.801,23.943,11.98
					c6.146-2.592,11.734-5.827,16.472-9.688c0.541,0.638,1.101,1.272,1.697,1.905c6.133,6.471,19.222,5.504,26.028,0.993
					c3.841-2.544,7.214-5.54,10.183-8.815c0.368,0.492,0.73,0.984,1.126,1.476c6.223,7.709,20.868,11.486,29.891,4.271
					c1.467-1.172,2.818-2.382,4.073-3.622c0.681,0.175,1.372,0.335,2.089,0.47c5.391,1.007,10.403,0.869,14.847-0.217
					c0.501,0.554,1.007,1.106,1.528,1.657c4.201,4.431,13.337,6.001,19.805,4.994c5.275-0.819,9.117-2.9,11.799-5.74
					c5.115,1.933,9.828,3.078,15.589,2.181c2.212-0.344,4.449-1.014,6.528-1.944c1.347,0.813,2.727,1.606,4.184,2.356
					c10.092,5.203,22.763,2.576,29.333-4.185c2.966,0.607,5.995,0.785,9.468,0.245c3.269-0.509,6.05-1.5,8.415-2.859
					c1.6,0.717,3.224,1.4,4.9,2.017c11.448,4.21,24.59,3.663,31.81-5.258C592.385,712.555,593.438,707.769,592.119,703.242z"/>
				<path fill="#4A2C12" d="M493.728,920.355c-3.537-6.127-10.878-8.781-17.407-6.882c-3.736-8.803-16.475-13.611-23.521-5.038
					c-1.862,2.266-3.448,4.632-4.79,7.098c-0.36-0.551-0.718-1.102-1.093-1.645c-4.31-6.263-12.076-9.137-19.058-5.105
					c-3.317,1.915-5.277,4.631-6.151,7.687c-4.805-1.707-10.559,3.383-8.916,8.508c0.566,1.768,0.382,3.503,0.854,5.313
					c0.652,2.5,2.088,5.318,3.298,7.615c2.163,4.103,4.931,7.869,7.633,11.623c5.768,8.014,12.251,15.516,18.396,23.24
					c3.076,3.867,9.05,4.616,13.688,3.166c0.085,0.023,0.167,0.057,0.253,0.079c7.878,2.11,15.449-2.721,17.803-10.277
					c0.378-1.214,0.78-2.417,1.204-3.616c0.048-0.135,0.102-0.268,0.149-0.401c0.134-0.322,0.659-1.656,0.821-2.025
					c1.503-3.422,3.214-6.753,5.045-10.011c0.711-1.266,1.472-2.501,2.242-3.731c0.322-0.515,1.609-2.293,2.077-2.976
					c0.55-0.64,1.117-1.261,1.713-1.858c0.07-0.035,0.146-0.073,0.229-0.117C495.486,937.154,497.727,927.281,493.728,920.355z"/>
				<path fill="#4A2C12" d="M664.5,300.648c-9.663-4.452-24.616-5.219-29.776-0.312c-0.786,0.753-1.453,1.502-2.065,2.256
					c-3.804-9.577-30.375-16.662-39.412-9.184c-8.689-5.12-23.618-7.033-30.564-2.06c-3.155,2.259-5.451,4.767-7.135,7.445
					c-8.539-5.592-24.642-6.758-29.941-0.248c-6.383,7.837-10.728,16.349-12.637,25.446c-1.803,8.589-1.878,19.679,6.867,28.814
					c3.353,3.498,12.654,5.452,15.895,2.486c0.196-0.18,0.367-0.363,0.55-0.548c0.72,0.719,1.461,1.438,2.261,2.153
					c7.141,6.413,20.089,10.191,29.788,6.813c2.9-1.011,5.417-2.176,7.652-3.449c7.729,3.493,18.67,4.628,24.923,2.149
					c4.326-1.713,7.706-3.789,10.42-6.116c2.702,1.422,5.756,2.729,9.234,3.88c14.022,4.635,26.335,2.174,34.464-2.18
					c6.091-3.264,8.557-9.169,10.63-13.938c2.285-5.256,3.748-10.729,5.314-16.159c0.717-2.479,1.459-4.947,2.248-7.406
					c0.563-1.759,1.229-3.498,1.462-5.334c0.021-0.178,0.059-0.354,0.089-0.534C676.143,309.9,673.078,304.603,664.5,300.648z"/>
				<path fill="#4A2C12" d="M388.797,306.269c-6.824,0.304-12.46,1.55-16.723,3.348c-10.638-1.251-23.938,0.34-31.276,4.854
					c-2.17-0.516-4.621-0.878-7.313-1.044c-13.602-0.842-24.01,3.063-28.864,8.117c-0.133,0.141-0.256,0.279-0.385,0.417
					c-0.14-0.168-0.269-0.337-0.414-0.504c-5.658-6.496-30.124-6.18-35.083,1.559c-5.675,8.854-7.888,17.856-8.08,26.749
					c-0.097,4.438,0.563,8.813,1.667,13.175c1.252,4.967,4.616,8.281,12.392,11.851c1.088,0.497,2.791,0.678,4.546,0.607
					c0.382,0.733,0.787,1.464,1.247,2.188c4.255,6.709,23.818,6.18,33.487,1.355c8.894,6.075,33.021,3.649,41.736-2.516
					c2.328-1.649,4.328-3.337,6.066-5.048c13.505,3.273,35.676-0.924,40.553-8.003c10.908-15.838,9.624-31.942,11.998-47.837
					C415.198,309.836,402.155,305.673,388.797,306.269z"/>
			</g>
			<g>
				<path fill="#4B2E12" d="M485.715,616.05c5.109-3.854,10.405-7.472,15.728-11.023c0.019-0.012,0.034-0.022,0.052-0.035
					c0.126-0.729,0.234-1.456,0.321-2.171c0.854-7.046-0.551-15.603-2.586-22.394c-2.221-7.408-8.614-12.78-16.507-12.83
					c-7.569-0.048-15.9,6.004-17.144,13.803c-4.759,4.216-8.986,9.638-11.551,15.326c-3.304,2.74-5.014,6.385-6.71,10.716
					c-1.581,4.038-0.642,9.262,1.604,13.329c0.026,0.125,0.043,0.25,0.071,0.374c0.898,3.811,2.938,6.958,5.617,9.327
					c10.573-3.258,20.714-9.54,30.656-14.208C485.416,616.192,485.564,616.119,485.715,616.05z"/>
				
					<linearGradient id="SVGID_17_" gradientUnits="userSpaceOnUse" x1="219.3955" y1="-4487.2744" x2="237.7734" y2="-4205.063" gradientTransform="matrix(1 0 0 -1 214.3999 -3842.0684)">
					<stop  offset="0" style="stop-color:#D4897F"/>
					<stop  offset="0.2098" style="stop-color:#D88F81"/>
					<stop  offset="0.4835" style="stop-color:#E29E82"/>
					<stop  offset="0.7915" style="stop-color:#F3B882"/>
					<stop  offset="0.8619" style="stop-color:#FDC384"/>
				</linearGradient>
				<path fill="url(#SVGID_17_)" d="M524.551,534.038c-6.974-6.882-13.454-6.033-22.199-5.862
					c-6.475,0.126-8.755-5.321-11.913-10.372c-2.938-4.702-3.584-8.912-2.438-14.344c2.37-11.238,6.476-22.799,9.874-33.798
					c-0.104-0.044-0.163-0.008-0.186,0.104c-0.028-3.448,6.255-13.19,7.574-16.653c1.88-4.936,3.788-9.887,5.421-14.911
					c3.734-11.491,5.959-23.442,5.484-35.565c-0.373-9.53-9.191-20.917-18.362-23.079c-11.508-2.712-22.261,6.231-28.993,14.636
					c-5.611,7.005-7.025,19.109-16.981,21.736c-2.343,0.615-4.822,0.393-7.225-1.138c-4.044-2.575-4.45-7.089-10.04-6.361
					c-3.299,0.43-7.657,3.529-10.271,5.561c-5.979,4.645-9.696,11.582-13.417,18.027c-1.223,2.875-2.382,5.758-3.402,8.684
					c0.089,0.17,0.169,0.343,0.266,0.512c5.657,9.896,15.129,18.031,15.663,30.176c0.414,9.4-4.169,17.786-8.174,25.964
					c-1.273,2.602-11.045,24.662-10.13,24.99c-4.697-1.688-9.607-2.931-14.79-3.593c-1.827-0.232-3.716-0.313-5.619-0.241
					c-3.169-0.563-6.458-0.603-9.808,0.006c-6.85,1.24-11.771,6.201-15.354,12.022c-1.412,1.715-2.776,3.521-3.964,5.402
					l-0.202,0.492c-0.096,0.104-0.235,0.295-0.43,0.583c-0.325,0.467-0.62,0.95-0.905,1.442
					c-14.303,24.751-1.935,57.215,14.467,77.392c17.284,21.266,47.749,29.268,73.204,19.205c8.084-3.196,15.859-9.182,16.738-18.331
					c0.45-4.682-0.445-9.406-0.562-14.085c-0.108-4.373-0.415-11.496,1.574-15.492c2.276-4.572,8.057-9.376,12.543-11.569
					c3.644-1.781,10.943-2.641,13.738,1.487c3.938,5.815,5.396,13.893,4.737,20.79c-0.319,3.345,0.014,12.313,6.138,9.188
					c2.646-1.349,4.403-3.958,7.162-4.783c4.906-1.47,9.055-1.244,13.092-4.977c3.324-3.074,6.074-7.472,7.711-11.687
					c3.519-9.057,4.605-18.916,6.255-28.432C532.317,548.581,531.025,540.43,524.551,534.038z"/>
				<g>
					<path fill="#AD6E69" d="M452.039,606.43c-7.121-1.854-15.699,0.214-23.022,0.492c-1.667,0.158-3.329,0.355-4.987,0.593
						c-0.457,0.061-0.771,0.103-0.977,0.131c-1.919,0.225-3.842,0.414-5.768,0.582c-3.996,0.348-7.821,0.084-11.802-0.362
						c-12.195-1.369-26.41-4.962-37.678-11.6c-2.381-1.402-4.965,0.915-4.459,3.415c3.534,17.461,19.701,25.178,35.288,29.971
						c7.755,2.385,16.097,3.868,24.059,5.458c4.923,0.983,9.923,1.187,14.924,1.369c4.52,0.165,10.049,0.875,14.317-0.699
						c6.479-2.388,11.309-7.308,11.354-14.607C463.332,614.385,458.628,608.146,452.039,606.43z"/>
					<path fill="#AD6E69" d="M512.758,577.64c-7.003,0.767-12.003,5.119-16.281,10.502c-2.703,3.399-9.469,11.745-4.178,15.98
						c4.795,3.84,10.572,0.972,15.218-1.7c5.505-3.166,11.858-7.813,13.183-14.374C521.647,583.345,518.384,577.023,512.758,577.64z
						"/>
					<path fill="#AD6E69" d="M424.021,559.201c0.361-6.031,2.662-12.172,4.297-17.726c1.854-6.294,6.004-10.472,9.101-16.07
						c3.005-5.436,5.089-12.011,7.095-17.879c2.157-6.314,3.531-12.794,3.729-19.479c0.11-3.752,0.197-7.793-0.341-11.516
						c-1.957-13.54-13.028-19.156-22.235-27.27c-4.322-3.81-3.703-8.46-1.323-13.381c1.56-3.228,3.708-6.406,5.962-9.177
						c0.896-1.1,1.839-2.135,2.82-3.155c0.919-0.954,1.045-2.414,1.889-3.426c0.148-0.179,0.073-0.548-0.215-0.519
						c-2.986,0.307-4.222,0.022-7.073,1.443c-2.943,1.465-5.573,3.588-8.063,5.709c-4.889,4.164-7.768,10.907-8.493,17.122
						c-1.479,12.656,8.309,19.355,13.354,29.285c1.485,2.923,1.915,10.332,1.226,14.406c-1.152,6.824-4.004,13.226-6.313,19.702
						c-2.359,6.617-5.179,13.155-6.23,20.134c-1.304,8.636-1.987,17.28,3.095,24.502c1.188,1.688,2.165,3.767,2.5,5.833
						c0.482,2.992,0.586,7.453,3.92,9.347c0.435,0.245,0.894,0.378,1.356,0.418c0.127-0.613,0.287-1.221,0.442-1.826
						C424.015,563.559,423.892,561.388,424.021,559.201z"/>
				</g>
				<path fill="#AD6E69" d="M487.389,536.222c-8.296-0.826-16.997,3.368-23.025,8.764c-0.488,0.438,0.042,1.109,0.587,1.019
					c6.104-1.03,12.858-0.824,18.951,0.132c2.99,0.469,5.771,0.817,8.459,2.31c2.811,1.561,3.911,4.324,5.911,6.717
					c2.861,3.424,7.594,0.267,7.946-3.3C507.213,541.789,495.428,537.021,487.389,536.222z"/>
				<path fill="#C6876A" d="M533.895,565.464c-0.693-2.084-3.4-2.048-4.125-0.016c-1.519,4.258-3.789,8.036-5.369,12.201
					c-1.765,4.648-2.344,9.924-4.036,14.678c-1.536,4.314-3.59,8.431-5.762,12.454c-2.494,4.622-5.695,8.618-7.208,13.7
					c-1.414,4.746,4.633,10.286,9.036,6.934c8.501-6.474,12.815-18.186,16.382-27.989c1.933-5.314,3.25-10.831,4.168-16.404
					C537.795,576.073,535.453,570.15,533.895,565.464z"/>
			</g>
		</g>
		<g id="Lines_3_">
			<g id="Head_3_">
				<g id="Mouth_8_">
					<g>
						<g>
							<path fill="#A03522" d="M571.754,875.729c-4.097-19.824-19.703-37.559-33.17-51.877
								c-15.672-16.663-35.238-29.351-55.896-39.004c-35.832-16.743-86.956-24.271-119.063,4.642
								c-29.736,26.778-13.718,81.698,21.271,95.962c16.88,6.881,35.735,4.911,52.837-0.086c9.772-2.855,18.786-7.19,27.998-11.431
								c12.222-5.625,25.339-9.653,38.688-11.428c22.757-3.024,45.24,2.212,63.661,16.046c2.581,1.938,5.068-2.406,2.523-4.318
								c-20.8-15.62-46.044-20.032-71.41-15.97c-12.468,1.996-24.501,6.193-35.984,11.353c-9.599,4.312-18.847,8.689-29.017,11.563
								c-17.704,5.001-37.629,6.034-53.957-3.656c-18.676-11.083-28.911-36.206-27.048-57.268
								c1.734-19.607,17.561-33.076,34.948-39.603c20.481-7.687,42.9-6.436,63.848-1.404c25.358,6.09,50.884,19.454,70.789,36.299
								c15.647,13.242,30.058,30.278,39.443,48.521c2.119,4.117,3.776,8.452,4.715,12.991
								C567.584,880.216,572.402,878.875,571.754,875.729L571.754,875.729z"/>
						</g>
					</g>
					<g>
						<g>
							<path fill="#A03522" d="M447.216,888.588c-0.151-14.702,9.025-28.59,21.534-35.867c5.717-3.327,12.463-4.789,18.924-3.074
								c7.911,2.1,12.894,9.399,16.151,16.396c1.359,2.922,5.669,0.381,4.316-2.522c-3.826-8.22-9.523-15.279-18.253-18.419
								c-7.227-2.6-15.21-0.843-21.904,2.368c-15.063,7.227-25.94,24.448-25.77,41.118
								C442.248,891.811,447.248,891.813,447.216,888.588L447.216,888.588z"/>
						</g>
					</g>
					<g>
						<g>
							<path fill="#A03522" d="M454.239,865.631c0.615-8.418-6.424-12.256-13.049-15.493c-7.68-3.754-14.897-5.045-23.336-3.167
								c-16.819,3.744-30.741,17.901-41.992,30.095c-2.183,2.365,1.345,5.91,3.535,3.535c9.535-10.332,19.922-20.399,32.804-26.414
								c6.608-3.086,13.964-4.137,21.02-2.123c6.012,1.717,16.555,6.236,16.02,13.567
								C449.005,868.85,454.007,868.826,454.239,865.631L454.239,865.631z"/>
						</g>
					</g>
				</g>
				<g id="Chin">
					<g>
						<g>
							<path fill="#B18B64" d="M743.767,472.9c-6.334,5.194-4.297,18.721-3.868,25.693c0.736,11.949,1.9,23.627,1.919,35.618
								c0.026,16.663-0.552,33.156-5.168,49.277c-4.965,17.342-14.33,32.902-21.905,49.146c-1.354,2.901,2.955,5.442,4.316,2.522
								c7.058-15.132,15.305-29.617,20.846-45.424c5.303-15.129,6.648-31.098,6.875-47.018c0.176-12.419-0.232-24.553-1.322-36.904
								c-0.52-5.872-0.938-11.762-0.882-17.66c0.033-3.426-0.233-9.292,2.726-11.719C749.797,474.391,746.236,470.873,743.767,472.9
								L743.767,472.9z"/>
						</g>
					</g>
					<g>
						<g>
							<path fill="#B18B64" d="M212.789,504.896c2.102,5.295,6.682,8.878,8.573,14.258c1.762,5.004,2.58,10.462,3.449,15.674
								c2.033,12.208,3.069,24.579,4.248,36.892c0.864,9.031,1.407,18.319,3.507,27.173c3.166,13.351,11.479,24.668,20.962,34.29
								c2.267,2.3,5.801-1.237,3.535-3.535c-9.47-9.61-17.381-20.727-20.131-34.15c-1.948-9.515-2.453-19.396-3.378-29.046
								c-1.095-11.431-2.242-22.87-4.131-34.202c-0.811-4.861-1.825-9.696-3.239-14.422c-1.678-5.603-6.48-8.982-8.574-14.258
								C216.437,500.606,211.599,501.896,212.789,504.896L212.789,504.896z"/>
						</g>
					</g>
					<g>
						<g>
							<path fill="#B18B64" d="M271.038,619.25c-36.95,20.154-54.718,58.723-58.807,99.228c-1.804,17.878-0.952,36.022,1.888,53.747
								c1.563,9.753,3.61,19.554,7.405,28.695c4.693,11.312,11.761,21.451,19.659,30.742c7.063,8.309,15.097,15.793,23.559,22.654
								c2.479,2.012,6.041-1.504,3.534-3.535c-19.055-15.452-36.822-34.729-44.625-58.433c-5.528-16.799-7.169-35.646-7.336-53.224
								c-0.383-40.508,11.767-83.655,45.882-108.479c3.612-2.628,7.444-4.94,11.363-7.077
								C276.393,622.023,273.869,617.706,271.038,619.25L271.038,619.25z"/>
						</g>
					</g>
					<g>
						<g>
							<path fill="#B18B64" d="M699.037,626.568c26.18,11.272,43.633,35.838,57.523,59.785
								c10.021,17.273,15.614,37.019,19.944,56.403c4.873,21.815,7.354,44.438,5.163,66.754
								c-1.121,11.409-3.866,22.785-8.626,33.232c-5.164,11.339-13.478,21.084-21.458,30.522
								c-18.985,22.452-41.363,41.898-66.539,57.114c-12.835,7.757-26.414,14.25-40.411,19.616
								c-16.765,6.431-36.039,7.913-53.735,9.73c-3.175,0.326-3.206,5.329,0,5c14.884-1.528,29.729-3.357,44.288-6.883
								c13.092-3.17,25.431-8.75,37.406-14.833c22.784-11.575,43.594-26.823,62.063-44.441c9.521-9.082,18.317-18.907,26.556-29.161
								c7.121-8.864,13.545-17.787,17.965-28.317c8.588-20.461,9.354-43.783,7.494-65.594c-2.099-24.612-7.883-49.291-16.584-72.406
								c-6.549-17.4-17.31-32.712-28.438-47.442c-10.781-14.27-23.433-26.227-40.089-33.398
								C698.633,620.989,696.084,625.297,699.037,626.568L699.037,626.568z"/>
						</g>
					</g>
					<g>
						<g>
							<path fill="#B18B64" d="M649.411,768.449c11.039,29.357,13.822,61.835,10.941,92.941
								c-1.406,15.186-5.119,30.19-11.764,43.947c-6.271,12.979-15.565,23.762-26.335,33.215
								c-45.994,40.369-113.297,47.063-171.942,45.041c-28.761-0.992-58.332-4.881-85.656-14.196
								c-25.532-8.705-49.495-24.845-66.813-45.547c-37.891-45.298-34.521-110.832-19.672-164.308
								c0.863-3.112-3.96-4.433-4.822-1.328c-15.45,55.639-17.566,120.166,19.896,167.856
								c37.581,47.848,101.526,60.605,159.019,62.589c56.864,1.961,120.683-5.096,166.973-41.212
								c22.14-17.273,36.915-39.412,43.147-66.892c6.602-29.113,5.127-61.31-1.228-90.329c-1.722-7.865-4.091-15.576-6.924-23.109
								C653.108,764.132,648.273,765.426,649.411,768.449L649.411,768.449z"/>
						</g>
					</g>
				</g>
				<g id="Ears_6_">
					<g>
						<g>
							<path fill="#A07E5B" d="M741.385,569.718c4.929,3.085,11.637,3.946,17.259,4.771c6.78,0.995,14.954,1.877,21.448-0.908
								c10.745-4.607,25.133-12.489,26.828-25.401c1.199-9.135-6.11-17.887-10.723-25.008c-6.253-9.657-10.734-20.063-5.755-31.35
								c1.288-2.921-3.019-5.468-4.317-2.522c-4.304,9.755-3.4,19.281,1.258,28.709c4.058,8.211,10.846,15.163,13.795,23.903
								c3.949,11.702-8.358,19.316-17.056,24.102c-7.438,4.092-13.909,4.726-22.279,3.881c-5.634-0.567-13.012-1.412-17.936-4.495
								C741.166,563.684,738.658,568.011,741.385,569.718L741.385,569.718z"/>
						</g>
					</g>
					<g>
						<g>
							<path fill="#A07E5B" d="M229.297,584.912c-14.154,0.093-29.656,4.3-43.4-0.484c-7.886-2.745-12.032-10.068-14.188-17.68
								c-2.85-10.055-2.076-18.412,0.953-28.33c2.605-8.532,5.29-16.82,5.306-25.842c0.017-9.459-4.81-18.145-9.194-26.222
								c-9.658-17.793-14.335-38.404,1.974-54.04c2.331-2.234-1.209-5.766-3.535-3.535c-14.69,14.085-15.04,33.838-7.128,51.564
								c4.727,10.589,12.469,20.197,12.885,32.231c0.373,10.783-4.427,20.86-6.977,31.119c-3.851,15.484,0.557,36.989,16.126,44.535
								c14.243,6.904,32.108,1.78,47.182,1.682C232.52,589.892,232.521,584.892,229.297,584.912L229.297,584.912z"/>
						</g>
					</g>
				</g>
				<g id="Nose_6_">
					<g>
						<g>
							<path fill="#A37358" d="M428.528,413.646c-7.694,6.352-14.61,12.266-19.554,21.078c-2.55,4.548-4.155,10.317-1.706,15.248
								c2.245,4.517,6.565,7.424,10.411,10.473c5.305,4.209,9.52,8.917,11.206,15.633c0.784,3.127,5.605,1.8,4.819-1.328
								c-2.859-11.396-11.761-16.083-19.547-23.719c-4.215-4.135-3.385-8.885-0.867-13.783c4.371-8.501,11.563-14.113,18.771-20.065
								C434.554,415.125,430.994,411.608,428.528,413.646L428.528,413.646z"/>
						</g>
					</g>
					<g>
						<g>
							<path fill="#A37358" d="M430.528,492.646c-6.112,5.418-6.455,12.908-10.391,19.506c-3.607,6.045-8.467,11.338-11.319,17.832
								c-5.552,12.646,4.557,27.024,10.319,37.691c1.541,2.854,5.744,0.341,4.315-2.523c-7.639-15.337-15.012-32.008-28.136-43.546
								c-13.239-11.639-32.087-9.427-40.917,6.426c-9.438,16.94-4.486,40.232-0.452,58.016c3.77,16.608,10.554,31.494,24.93,41.455
								c27.743,19.222,67.469,9.833,95.391-3.776c28.065-13.68,53.949-37.769,55.418-70.906c0.316-7.133-1.339-14.868-6.838-19.808
								c-7.011-6.297-17.603-5.074-25.986-2.974c0.643,1.522,1.283,3.047,1.926,4.568c2.949-2.174,3.515-5.714,5.775-8.426
								c2.05-2.457-1.468-6.016-3.535-3.535c-1.768,2.119-2.604,6.052-4.764,7.646c-2.206,1.625-0.976,5.296,1.926,4.567
								c7.486-1.875,16.828-3.141,22.612,3.162c4.541,4.948,4.324,13.272,3.488,19.445c-2.113,15.616-10.057,29.748-21.271,40.598
								c-24.143,23.354-62.058,38.263-95.714,34.425c-16.403-1.87-31.232-10.138-40.011-24.296
								c-4.882-7.872-7.032-16.756-9.021-25.689c-2.313-10.391-3.969-20.968-3.874-31.635c0.088-9.922,2.203-20.499,9.925-27.347
								c7.293-6.468,17.156-5.552,24.755-0.474c14.546,9.72,22.245,28.847,29.721,43.946c0.111,0.228,0.226,0.453,0.339,0.681
								c1.438-0.841,2.878-1.684,4.315-2.523c-5.338-9.882-15.189-23.227-9.315-34.753c2.829-5.552,6.858-10.562,10.315-15.724
								c4.019-5.995,3.843-13.381,9.609-18.494C436.481,494.037,432.933,490.515,430.528,492.646L430.528,492.646z"/>
						</g>
					</g>
					<g>
						<g>
							<path fill="#A37358" d="M497.139,466.15c-0.78,1.543-1.509,3.143-2.609,4.494c1.394,0.811,2.785,1.621,4.178,2.432
								c9.217-23.739,17.598-50.922,11.365-76.455c-6.723-27.547-38.643-48.064-66.438-39.619c-3.076,0.935-1.766,5.762,1.328,4.82
								c15.633-4.749,32.749,1.233,44.98,11.369c8.937,7.404,14.118,17.763,16.229,29.031c4.35,23.219-3.981,48.132-12.284,69.524
								c-0.893,2.296,2.625,4.341,4.178,2.433c1.394-1.712,2.396-3.534,3.392-5.506C502.905,465.805,498.593,463.271,497.139,466.15
								L497.139,466.15z"/>
						</g>
					</g>
					<g>
						<g>
							<path fill="#A37358" d="M493.913,610.726c-0.024-9.971,0.437-43.033-17.335-38.491c-4.569,1.168-8.438,4.979-11.604,8.245
								c-4.149,4.283-9.263,9.621-10.688,15.563c-2.318,9.687,0.959,24.064,7.758,31.429c2.19,2.374,5.719-1.171,3.534-3.535
								c-5.675-6.146-7.345-17.188-6.689-25.199c0.44-5.41,5.256-9.854,8.653-13.678c2.827-3.185,6.219-6.642,10.363-8.004
								c11.399-3.744,10.991,28.15,11.006,33.67C488.922,613.948,493.922,613.949,493.913,610.726L493.913,610.726z"/>
						</g>
					</g>
				</g>
				<g id="Eyes_9_">
					<g>
						<g>
							<path fill="#D6D1A7" d="M543.979,471.629c-13.061-20.879-8.457-45.009,10.295-60.612
								c16.071-13.373,41.951-17.627,60.01-5.986c24.656,15.896,31.886,61.893,5.17,79.314c-10.001,6.521-22.61,6.227-34.05,5.329
								c-15.765-1.237-30.723-7.083-41.814-18.552c-2.245-2.32-5.776,1.219-3.535,3.535c16.763,17.332,42.885,23.044,66.276,19.734
								c15.066-2.132,26.605-12.528,31.82-26.546c10.409-27.976-5.031-65.125-34.742-73.054
								c-21.316-5.688-45.713,3.494-59.906,19.741c-14.971,17.138-15.717,40.633-3.84,59.617
								C541.368,476.878,545.695,474.37,543.979,471.629z"/>
						</g>
					</g>
					<g>
						<g>
							<path fill="#D6D1A7" d="M302.284,515.644c10.542,4.336,23.704,6.343,34.895,3.799c10.886-2.476,20.764-9.58,28.087-17.793
								c6.367-7.143,10.431-15.805,10.68-25.425c0.234-9.066-2.88-18.233-6.424-26.438c-7.173-16.603-20.98-34.063-40.933-31.605
								c-18.75,2.31-39.03,15.683-49.19,31.503c-6.517,10.147-5.478,23.676-2.295,34.756c3.703,12.889,12.148,25.259,24.584,30.951
								c2.909,1.331,5.452-2.979,2.523-4.318c-18.816-8.611-29.217-34.934-22.74-54.397c3.084-9.27,12.648-16.726,20.345-22.02
								c8.796-6.051,19.3-11.13,30.101-11.78c20.943-1.265,33.632,25.82,37.71,42.665c2.391,9.874,1.318,19-4.171,27.659
								c-6.567,10.359-17.813,18.313-29.604,21.421c-10.105,2.664-22.728,0.112-32.236-3.8
								C300.631,509.595,299.346,514.435,302.284,515.644z"/>
						</g>
					</g>
					<g id="Pupils_5_">
						<g>
							<g>
								<path fill="#11141E" d="M587.769,449.164c0-0.225,0.061-1.312,0.014-1.043c0.09-0.52,0.004,0.065-0.234,0.154
									c2.154-0.799,5.39,0.001,7.557,0.299c-0.582-1.023-1.164-2.05-1.746-3.074c-0.5,1.5-1,3-1.5,4.5
									c0.582-0.581,1.164-1.163,1.746-1.745c-2.935,0.423-6.314,0.613-8.905,2.225c-2.265,1.408-3.854,4.043-5.697,5.917
									c-2.117,2.151,0.546,5.027,3.029,3.927c4.385-1.942,9.81-1.335,14.401-2.748c-0.94-1.224-1.882-2.446-2.822-3.672
									c-1,1.5-2,2.999-3,4.499c1.141-0.299,2.281-0.598,3.421-0.896c-1.215-0.539-5.678-2.045-5.313-3.969
									c0.405-2.143,2.225-4.197,3.211-6.109c1.474-2.861-2.841-5.392-4.318-2.523c-1.471,2.855-3.617,5.479-3.916,8.773
									c-0.386,4.261,4.662,6.746,7.813,8.146c1.305,0.579,2.601,0.332,3.421-0.896c0.999-1.5,1.999-2.999,2.998-4.499
									c1.223-1.833-0.788-4.298-2.822-3.672c-5.084,1.563-10.705,1.082-15.597,3.25c1.01,1.31,2.02,2.617,3.028,3.927
									c1.621-1.646,2.983-3.602,4.694-5.147c1.615-1.46,5.678-1.416,7.703-1.709c0.862-0.124,1.493-0.987,1.746-1.746
									c0.499-1.5,0.999-3,1.498-4.5c0.39-1.168-0.441-2.896-1.746-3.073c-5.433-0.748-13.651-2.294-13.663,5.409
									C582.764,452.39,587.764,452.39,587.769,449.164L587.769,449.164z"/>
							</g>
						</g>
						<g>
							<g>
								<path fill="#11141E" d="M320.16,468.064c0-0.225,0.062-1.312,0.015-1.043c0.09-0.52,0.004,0.065-0.235,0.154
									c2.155-0.799,5.391,0.001,7.557,0.299c-0.582-1.024-1.164-2.05-1.745-3.074c-0.5,1.5-1,3-1.5,4.5
									c0.581-0.582,1.163-1.164,1.745-1.746c-2.935,0.423-6.313,0.614-8.904,2.226c-2.266,1.407-3.854,4.043-5.697,5.917
									c-2.118,2.15,0.545,5.026,3.029,3.927c4.385-1.943,9.809-1.335,14.4-2.748c-0.939-1.224-1.882-2.447-2.821-3.672
									c-1,1.5-2,2.999-3,4.499c1.141-0.299,2.28-0.599,3.421-0.897c-1.215-0.539-5.679-2.045-5.313-3.968
									c0.406-2.143,2.226-4.198,3.211-6.11c1.475-2.86-2.841-5.391-4.317-2.522c-1.472,2.854-3.617,5.479-3.916,8.772
									c-0.387,4.262,4.662,6.746,7.813,8.146c1.305,0.579,2.602,0.332,3.421-0.897c0.999-1.5,1.999-2.999,2.998-4.499
									c1.224-1.833-0.788-4.298-2.821-3.672c-5.084,1.563-10.705,1.082-15.598,3.25c1.01,1.311,2.021,2.618,3.029,3.927
									c1.621-1.646,2.982-3.601,4.693-5.146c1.615-1.46,5.679-1.416,7.703-1.709c0.862-0.124,1.493-0.988,1.746-1.746
									c0.499-1.5,0.999-3,1.498-4.5c0.391-1.168-0.44-2.896-1.746-3.074c-5.432-0.748-13.65-2.294-13.663,5.41
									C315.155,471.289,320.155,471.289,320.16,468.064L320.16,468.064z"/>
							</g>
						</g>
					</g>
				</g>
			</g>
			<g id="Hair_6_">
				<g>
					<g>
						<path fill="#6F3819" d="M731.456,365.674c18.884-24.946,46.762-42.392,76.23-52.096c27.229-8.965,58.951-11.77,85.811-0.041
							c2.925,1.277,5.474-3.028,2.523-4.315c-28.312-12.363-60.851-9.696-89.662-0.464c-30.8,9.868-59.603,28.477-79.221,54.394
							C725.19,365.724,729.536,368.21,731.456,365.674L731.456,365.674z"/>
					</g>
				</g>
				<g>
					<g>
						<path fill="#6F3819" d="M731.798,364.412c0.528-66.73,77.095-105.519,135.462-108.033c3.212-0.139,3.225-5.139,0-5
							c-61.158,2.636-139.909,43.403-140.462,113.033C726.771,367.639,731.771,367.636,731.798,364.412L731.798,364.412z"/>
					</g>
				</g>
				<g>
					<g>
						<path fill="#6F3819" d="M731.798,364.412c-0.021-41.78-2.355-83.648-8.825-124.957
							c-6.537-41.732-17.318-84.952-40.541-120.792c-22.917-35.368-61.639-58.037-102.264-67.026
							c-45.516-10.073-93.537-3.317-137.346,11.077c-43.955,14.444-85.473,37.341-121.269,66.63
							c-35.734,29.238-64.942,66.925-106.75,88.234c-26.78,13.65-56.684,16.588-86.178,12.34c-1.938-0.278-4.202,1.635-2.822,3.672
							c25.296,37.373,51.396,75.376,85.574,105.3c32.314,28.292,71.71,45.392,115.01,45.167
							c50.187-0.262,98.705-21.111,142.105-44.598c37.666-20.382,74.378-45.219,117.104-53.514
							c29.035-5.637,58.896-2.513,84.956,11.922c26.314,14.577,45.484,39.479,56.331,67.209c1.161,2.969,5.998,1.678,4.821-1.328
							c-16.842-43.059-52.273-76.397-98.666-84.129c-42.229-7.036-83.808,9.869-120.214,29.451
							c-19.878,10.691-39.249,22.291-59.302,32.663c-22.815,11.8-46.51,21.745-71.264,28.689
							c-24.444,6.856-49.732,10.316-75.083,7.715c-21.581-2.218-42.341-9.495-61.099-20.272
							c-50.183-28.832-84.267-79.973-115.961-126.799c-0.94,1.225-1.883,2.448-2.822,3.672c23.303,3.357,46.822,2.787,69.394-4.337
							c20.265-6.396,38.319-17.926,54.883-31.005c19.185-15.148,36.536-32.527,54.241-49.334
							c16.272-15.449,33.804-29.238,52.664-41.406c76.353-49.262,184.957-81.41,269.502-33.537
							c17.992,10.188,34.06,23.559,46.209,40.339c12.072,16.673,20.582,35.748,27.244,55.139
							c14.544,42.326,20.454,87.491,23.413,131.976c1.369,20.582,1.938,41.215,1.949,61.841
							C726.8,367.638,731.8,367.638,731.798,364.412L731.798,364.412z"/>
					</g>
				</g>
				<g>
					<g>
						<path fill="#6F3819" d="M520.774,47.726c-7.878-5.77-17.541-8.863-26.894-11.275c-12.327-3.18-25.102-4.742-37.784-5.562
							c-25.936-1.677-52.59,0.9-78.188,5.1C327.63,44.234,277.88,63.256,239.085,96.957c-15.049,13.072-28.971,28.183-41.887,43.335
							c-13.187,15.472-24.72,32.357-32.414,51.244c-0.938,2.3,1.951,3.572,3.672,2.822c17.838-7.778,38.349-10.51,57.504-12.862
							c9.238-1.135,18.524-1.961,27.826-2.377c5.733-0.256,12.104-0.822,17.754,0.489c3.138,0.729,4.47-4.092,1.33-4.82
							c-5.822-1.353-12.18-0.924-18.094-0.709c-10.06,0.366-20.101,1.348-30.088,2.573c-19.695,2.419-40.434,5.397-58.757,13.39
							c1.225,0.94,2.448,1.882,3.672,2.822c11.16-27.388,30.911-50.06,51.293-71.025c9.232-9.495,18.437-18.914,28.765-27.236
							c10.198-8.221,21.29-15.323,32.756-21.634c46.299-25.482,99.813-35.708,152.191-37.436
							c15.986-0.526,32.108,0.654,47.839,3.532c12.276,2.245,25.57,5.484,35.803,12.977
							C520.856,53.949,523.348,49.607,520.774,47.726L520.774,47.726z"/>
					</g>
				</g>
				<g>
					<g>
						<path fill="#6F3819" d="M200.197,384.72c-26.115-0.475-46.943-24.196-62.661-42.511c-0.812,1.394-1.621,2.785-2.434,4.179
							c30.829,12.832,66.238,22.188,97.992,6.973c-1.141-1.14-2.28-2.279-3.42-3.42c-10.453,23.377-15.219,49.244-18.203,74.533
							c-3.12,26.439-4.166,54.213,1.316,80.422c1.606-0.442,3.215-0.886,4.821-1.328c-21.946-52.745-60.241-97.728-97.433-140.354
							c-1.01,1.31-2.02,2.617-3.029,3.928c22.942,16.268,55.284,29.188,83.714,22.489c3.139-0.737,1.808-5.56-1.33-4.819
							c-27.098,6.384-58.067-6.535-79.859-21.988c-2.444-1.733-4.792,1.906-3.029,3.927c36.576,41.924,74.555,86.258,96.146,138.147
							c1.215,2.918,5.498,1.904,4.821-1.328c-5.194-24.829-4.124-51.038-1.473-76.111c2.674-25.285,7.414-51.643,17.854-74.992
							c1.032-2.309-1.063-4.55-3.421-3.42c-30.403,14.568-64.751,4.755-94.139-7.477c-2.537-1.058-3.874,2.499-2.433,4.178
							c16.679,19.437,38.556,43.473,66.196,43.976C203.424,389.777,203.419,384.777,200.197,384.72L200.197,384.72z"/>
					</g>
				</g>
				<g>
					<g>
						<path fill="#6F3819" d="M849.324,469.943c-14.244-1.581-28.449-3.766-42.212-7.863c-13.641-4.063-28.739-10.688-35.658-23.93
							c-0.939,1.225-1.882,2.448-2.821,3.672c20.623,4.063,41.232-8.754,57.953-19.221c1.953-1.222,1.355-4.915-1.262-4.658
							c-16.634,1.635-33.458,4.622-50.211,4.437c-11.405-0.128-20.137-3.945-25.659-14.229c-1.14,1.141-2.278,2.28-3.42,3.42
							c10.541,6.149,24.039,2.006,34.441-2.332c11.828-4.932,23.436-12.019,32.616-21.027c1.474-1.444,0.459-4.44-1.769-4.268
							c-14.835,1.161-29.792,3.327-44.695,2.307c-14.81-1.014-26.959-7.647-35.175-20.1c-0.915-1.388-3.525-1.855-4.315,0
							c-14.642,34.36-13.104,78.529,13.292,107.005c28.508,30.753,77.691,19.561,110.156,1.446c2.814-1.57,0.295-5.89-2.523-4.316
							c-17.922,9.999-38.992,16.203-59.515,17.05c-17.118,0.705-32.709-5.349-44.582-17.716
							c-25.092-26.131-26.039-69.193-12.513-100.945c-1.438,0-2.878,0-4.315,0c8.084,12.255,19.484,19.746,34.014,21.967
							c16.529,2.524,33.658-0.403,50.173-1.696c-0.589-1.423-1.179-2.846-1.768-4.268c-8.157,8.004-18.26,14.125-28.576,18.92
							c-9.236,4.294-22.759,9.295-32.423,3.657c-2.224-1.297-4.589,1.244-3.42,3.42c5.474,10.195,13.961,15.332,25.361,16.468
							c7.475,0.744,15.114-0.041,22.558-0.758c10.767-1.038,21.503-2.382,32.268-3.439c-0.421-1.553-0.841-3.105-1.262-4.658
							c-15.383,9.63-35.054,22.468-54.104,18.718c-2.166-0.428-3.879,1.649-2.821,3.672c6.969,13.339,21.292,20.383,34.941,25.046
							c15.202,5.192,31.336,7.458,47.244,9.224C852.526,475.3,852.492,470.296,849.324,469.943z"/>
					</g>
				</g>
			</g>
			<g id="Facial_Hair_6_">
				<g>
					<g>
						<path fill="#4B2E12" d="M445.045,964.148c3.924-9.503-5.577-18.316-12.476-23.466c-5.781-4.315-14.987-9.078-17.449-16.308
							c-1.56-4.582,5.354-0.818,6.663-0.098c3.958,2.178,7.603,4.947,11.222,7.634c9.714,7.211,16.36,16.522,24.307,25.51
							c1.619,1.831,4.016,0.168,4.268-1.769c1.029-7.912-3.665-13.564-9.759-17.906c-5.123-3.648-15.399-6.82-17.441-13.388
							c-0.412-1.325,0.476-7.065,2.417-6.568c2.967,0.761,5.612,5.576,7.198,7.855c3.72,5.346,7.175,13.912,13.041,17.287
							c1.855,1.067,4.329-0.688,3.672-2.822c-2.286-7.438-13.959-20.138-6.906-27.325c-1.31-0.169-2.617-0.337-3.928-0.506
							c3.937,7.735,3.685,16.508,9.788,23.215c1.479,1.626,4.302,0.354,4.269-1.768c-0.093-5.891-2.437-15.179,3.46-18.983
							c-1.226-0.498-2.448-0.996-3.672-1.494c1.372,9.103-1.593,18.613,2.602,27.222c0.968,1.986,4.046,1.393,4.568-0.599
							c1.391-5.286,1.424-11.896,6.682-14.948c-1.141-0.301-2.28-0.6-3.42-0.897c1.346,2.634-0.492,6.636-1.464,9.099
							c-1.882,4.769-4.745,9.223-7.618,13.441c-2.881,4.232-6.119,8.231-9.692,11.898c-1.09,1.117-4.933,5.41-6.593,4.957
							c-3.116-0.849-4.438,3.976-1.33,4.821c3.429,0.934,6.699-1.935,9.085-3.991c4.469-3.854,8.174-8.664,11.622-13.418
							c4.938-6.808,14.904-20.339,10.308-29.331c-0.621-1.217-2.293-1.553-3.42-0.897c-6.728,3.906-7.183,11.105-8.979,17.939
							c1.522-0.199,3.046-0.398,4.568-0.599c-3.779-7.758-0.84-17.69-2.099-26.026c-0.236-1.58-2.425-2.3-3.672-1.494
							c-8.098,5.227-6.065,15.041-5.937,23.302c1.423-0.589,2.845-1.179,4.268-1.768c-5.561-6.11-5.368-15.054-9.005-22.203
							c-0.732-1.44-2.846-1.608-3.927-0.506c-9.741,9.926,2.56,22.232,5.622,32.188c1.224-0.94,2.447-1.882,3.672-2.822
							c-2.852-1.641-4.777-5.662-6.514-8.315c-2.668-4.08-5.275-8.191-8.322-12.005c-4.873-6.1-11.575-7.892-14.678,0.673
							c-6.785,18.72,28.902,18.479,26.533,36.685c1.424-0.589,2.846-1.179,4.269-1.768c-5.179-5.858-9.727-12.24-15.128-17.903
							c-3.527-3.697-7.649-6.513-11.732-9.529c-4.132-3.055-16.188-13.516-21.725-8.159c-14.277,13.813,34.222,29.361,27.963,44.526
							C438.993,965.802,443.832,967.087,445.045,964.148L445.045,964.148z"/>
					</g>
				</g>
				<g>
					<g>
						<path fill="#4B2E12" d="M358.166,637.444c1.261,1.292-4.468,12.392-5.393,14.313c-3.813,7.918-8.157,15.589-12.587,23.175
							c-3.314,5.674-6.697,11.33-10.337,16.804c-4.692,7.06-11.057,15.611-11.459,24.388c-0.352,7.642,8.388,8.766,13.305,5.236
							c7.076-5.076,11.151-14.604,14.912-22.138c3.883-7.776,8.102-15.354,12.004-23.112c4.473-8.89,8.565-18.053,14.063-26.376
							c1.276-1.932,3.819-6.183,6.493-6.427c1.438-0.131-0.198,6.164-0.386,6.865c-2.4,9.009-6.854,17.541-10.87,25.907
							c-3.481,7.26-6.896,14.547-10.382,21.804c-3.491,7.27-8.333,16.409-7.118,24.756c0.826,5.674,6.67,10.554,12.112,6.854
							c5.728-3.892,7.588-13.182,9.21-19.369c2.027-7.729,3.03-15.92,5.867-23.413c3.765-9.938,7.93-19.469,13.58-28.518
							c2.27-3.634,4.791-7.18,7.972-10.074c0.63-0.572,1.974-1.749,2.94-1.58c1.176,0.205-0.33-0.979-0.156-0.151
							c0.732,3.502-1.518,9.307-2.466,12.907c-3.88,14.714-8.648,29.239-10.984,44.314c-1.405,9.066-3.379,24.466,7.556,28.547
							c13.062,4.875,15.388-26.772,16.404-33.464c1.13-7.42,2.845-14.833,3.691-22.277c0.521-4.578,0.709-9.192,1.171-13.778
							c0.412-4.1,0.81-9.766,3.753-12.96c1.463-1.588,1.1-0.729,1.127,1.236c0.031,2.312-0.374,4.66-0.69,6.939
							c-0.669,4.813-1.24,9.392-0.413,14.237c1.692,9.91,5.643,19.223,7.476,29.14c1.617,8.754,3.241,17.567,6.019,26.042
							c1.599,4.874,4.036,11.977,9.95,12.672c12.287,1.444,2.729-35.896,1.793-40.814c-1.41-7.427-2.686-14.887-3.977-22.333
							c-0.783-4.514-1.467-9.041-1.897-13.602c-0.298-3.151-1.003-7.571,0.338-10.582c0.305-0.681-0.221,0.241-0.421-0.024
							c0.506,0.673,0.816,1.528,1.11,2.303c0.78,2.053,1.256,4.233,1.753,6.368c1.231,5.299,2.106,10.673,3.485,15.938
							c3.158,12.07,10.953,22.271,14.961,33.998c2.445,7.161,5.234,16.998,13.146,19.801c8.026,2.845,8.421-6.549,6.979-11.548
							c-2.263-7.844-6.542-15.389-9.557-22.976c-4.637-11.674-9.587-23.919-10.364-36.586c-0.201-3.278-0.215-7.621,1.526-10.566
							c-0.122,0.206-0.854-0.293-0.12,0.276c1.01,0.783,1.772,1.875,2.488,2.914c4.04,5.868,6.756,12.791,9.378,19.371
							c2.079,5.216,3.701,10.592,5.733,15.815c3.387,8.709,8.688,16.769,14.067,24.354c4.124,5.815,8.756,12.71,14.889,16.602
							c4.724,2.998,7.576-1.865,6.932-6.118c-1.146-7.552-6.938-15.143-10.747-21.53c-4.447-7.459-8.559-14.457-11.011-22.806
							c-2.854-9.719-6.246-19.304-8.426-29.208c-0.398-1.81-0.706-3.632-0.834-5.48c-0.107-1.561,0.641-2.022-0.55-1.938
							c3.271-0.233,6.495,3.961,8.347,6.115c11.412,13.286,16.867,30.662,25.679,45.563c4.533,7.667,9.907,15.891,17.306,21.079
							c3.808,2.67,10.886,3.321,11.657-2.639c0.767-5.912-3.886-12.87-6.562-17.761c-4.854-8.871-10.313-17.403-15.387-26.149
							c-4.004-6.901-7.425-14.062-10.769-21.299c-0.622-1.347-3.798-7.76-1.013-8.037c5.886-0.586,9.917,5.127,12.747,9.366
							c8.882,13.305,16.45,27.373,25.869,40.362c5.036,6.944,10.473,13.907,17.178,19.327c4.066,3.288,10.212,6.906,15.429,3.967
							c5.718-3.223-0.642-11.592-3.034-14.664c-5.123-6.583-10.849-12.229-15.384-19.282c-6.125-9.527-11.739-19.071-19.424-27.466
							c-1.59-1.736-17.954-17.73-16.726-19.017c2.229-2.327-1.303-5.868-3.534-3.534c-5.12,5.351,5.259,14.085,8.468,17.446
							c4.12,4.317,8.323,8.545,12.196,13.091c4.975,5.836,8.835,12.58,12.861,19.075c4.64,7.481,9.875,13.511,15.521,20.146
							c2.288,2.688,4.867,5.688,6.067,9.063c0.905,2.542-4.092,0.609-5.366-0.041c-7.339-3.745-13.039-11.504-17.907-17.9
							c-5.216-6.854-9.926-14.089-14.496-21.383c-3.826-6.106-7.655-12.164-11.323-18.37c-4.295-7.268-10.297-16.065-19.925-15.107
							c-7.431,0.74-5.187,9.296-3.237,13.848c3.044,7.115,6.492,14.132,10.297,20.866c5.001,8.853,10.47,17.432,15.486,26.272
							c1.08,1.901,8.983,15.471,7.064,16.767c-2.306,1.556-6.814-3.338-8.095-4.617c-3.785-3.784-6.839-8.304-9.719-12.792
							c-4.378-6.82-7.727-14.137-11.316-21.378c-4.181-8.431-8.593-16.821-14.082-24.485c-3.438-4.799-8.761-11.868-15.462-11.39
							c-6.282,0.45-3.379,11.322-2.627,14.733c2.181,9.909,5.655,19.52,8.512,29.243c2.346,7.981,6.352,14.804,10.604,21.932
							c2.33,3.906,4.664,7.812,6.837,11.808c1.623,2.986,3.765,6.503,4.046,9.972c0.082,1.007,1.074,0.421,0.373,0.035
							c-1.119-0.615-2.049-1.592-2.958-2.47c-3.25-3.141-6.048-6.791-8.734-10.408c-5.748-7.738-11.283-16.145-14.965-25.09
							c-4.864-11.818-8.13-24.185-14.86-35.212c-1.741-2.854-5.704-8.728-9.842-6.236c-5.463,3.287-4.354,13.971-3.762,19.026
							c1.425,12.187,6.219,23.883,10.713,35.197c2.964,7.462,7.063,14.837,9.285,22.546c0.286,0.994,1.144,3.56,0.39,4.521
							c-1.075,1.372-4.247-1.946-4.823-2.597c-3.27-3.689-4.755-9.183-6.312-13.748c-4.011-11.757-11.575-21.99-14.962-33.999
							c-1.36-4.83-2.161-9.822-3.216-14.726c-0.821-3.826-1.601-8.367-4.011-11.575c-3.992-5.313-8.461,0.189-8.951,4.659
							c-0.899,8.221,0.951,16.894,2.353,24.965c1.294,7.461,2.589,14.929,4.001,22.368c1.768,9.309,3.895,18.817,3.856,28.336
							c-0.004,0.973,0.056,5.686-1.5,4.809c-2.569-1.445-3.8-6.238-4.667-8.761c-2.891-8.412-4.403-17.317-6.019-26.042
							c-1.895-10.227-6.263-19.903-7.609-30.184c-0.591-4.512,0.355-9.063,0.954-13.523c0.426-3.163,1.332-7.765-0.806-10.54
							c-4.852-6.297-10.882,3.618-12.042,7.582c-2.567,8.775-1.546,18.181-3.338,27.083c-1.586,7.871-2.662,15.81-3.972,23.731
							c-1.147,6.954-1.918,17.083-6.707,22.689c-3.305,3.871-6.6-4.373-7.019-6.526c-1.24-6.364,0.063-13.421,1.213-19.692
							c1.431-7.799,3.48-15.479,5.581-23.12c1.863-6.771,3.869-13.507,5.565-20.322c0.948-3.818,2.328-8.314,1.5-12.273
							c-0.938-4.488-6.663-3.389-9.396-1.555c-7.084,4.755-11.704,14.064-15.57,21.353c-4.182,7.882-7.894,16.28-10.259,24.902
							c-2.326,8.475-3.72,17.167-6.359,25.563c-1.054,3.348-2.309,7.021-4.697,9.672c-3.022,3.354-5.142-1.86-5.171-4.469
							c-0.105-9.23,6.144-18.978,10.081-26.992c3.537-7.198,6.879-14.521,10.272-21.79c3.545-7.591,7.579-15.667,8.869-24.021
							c0.745-4.826-1.074-10.24-6.972-8.912c-6.497,1.464-10.951,11.283-13.772,16.398c-9.145,16.583-16.819,33.977-26.037,50.52
							c-2.164,3.883-4.552,7.724-7.733,10.855c-1.096,1.077-2.514,2.11-4.09,2.24c-3.403,0.281-2.383-3.984-1.845-5.87
							c2.25-7.882,7.909-14.868,12.271-21.729c8.637-13.58,17.063-27.702,23.455-42.495c1.557-3.601,5.444-10.98,1.946-14.565
							C359.446,631.599,355.913,635.137,358.166,637.444L358.166,637.444z"/>
					</g>
				</g>
				<g>
					<g>
						<path fill="#4B2E12" d="M531.688,293.694c-9.072,9.674-16.929,21.809-20.207,34.755c-1.508,5.956-1.456,12.134,1.104,17.772
							c1.194,2.636,3.348,4.989,5.652,6.695c1.812,1.339,7.235,5.352,9.588,3.718c10.157-7.054,10.903-17.852,10.915-29.253
							c0.006-5.598,0.084-11.396,2.619-16.52c3.742-7.566,12.563-10.521,20.203-12.301c-1.024-0.582-2.05-1.164-3.074-1.746
							c3.683,9.343,0.5,18.449-1.631,27.744c-1.923,8.385-1.889,16.476,2.313,24.161c0.491,0.899,1.816,1.548,2.821,1.148
							c10.599-4.206,14.063-12.09,15.258-22.841c0.583-5.249,1.077-10.509,3.635-15.234c3.791-7.008,11.864-10.205,19.101-12.267
							c-1.056-0.804-2.109-1.607-3.165-2.411c0.207,3.39-2.031,7.512-3.167,10.61c-2.055,5.606-4.139,11.203-5.813,16.94
							c-1.99,6.824-5.738,20.867,3.592,24.255c10.582,3.843,16.663-7.608,20.882-15.224c3.532-6.374,6.675-12.957,10.214-19.329
							c2.793-5.031,5.975-11.101,10.983-14.265c-1.01-0.131-2.021-0.261-3.029-0.393c10.88,12.79-12.138,26.529-13.89,39.096
							c-0.948,6.801,4.152,13.688,9.667,17.182c5.124,3.246,10.466,0.251,13.778-3.964c4.401-5.596,6.853-12.682,9.256-19.3
							c2.59-7.128,5.348-12.971,9.716-19.275c1.658-2.394,3.496-5.093,5.842-6.887c1.193-0.912,0.438-1.108,0.779-0.005
							c1.402,4.53,0.454,10.22,0.126,14.847c-0.422,5.957-1.039,11.901-1.26,17.871c-0.136,3.683-0.593,8.944,1.702,12.134
							c1.863,2.592,6.203,0.101,4.316-2.522c-2.133-2.967-1.074-8.979-0.894-12.386c0.334-6.26,1.013-12.497,1.369-18.756
							c0.273-4.784,0.543-22.541-9.033-15.218c-11.211,8.574-15.058,23.257-20.07,35.649c-1.563,3.864-5.595,15.007-11.284,14.187
							c-3.525-0.509-6.188-4.774-7.931-7.457c-2.103-3.236-1.131-6.954,0.472-10.148c6.178-12.313,23.062-24.252,10.872-38.58
							c-0.702-0.826-2.14-0.953-3.029-0.393c-9.159,5.786-13.993,18.133-18.747,27.349c-2.77,5.367-5.521,10.779-8.928,15.78
							c-2.346,3.444-4.928,6.389-9.404,5.547c-12.032-2.26,8.353-40.131,7.911-47.347c-0.098-1.595-1.524-2.878-3.165-2.411
							c-12.539,3.573-22.637,10.324-25.281,23.687c-2.122,10.718-0.626,21.86-12.708,26.655c0.939,0.385,1.882,0.768,2.821,1.149
							c-8.911-16.304,6.521-33.722-0.178-50.712c-0.515-1.307-1.638-2.081-3.074-1.746c-11.921,2.778-22.757,8.592-25.563,21.337
							c-2.133,9.688,0.987,20.375-2.956,29.682c-1.034,2.44-2.669,4.446-4.62,6.21c-2.039,1.842-6.416-2.344-8-3.979
							c-4.391-4.537-4.08-11.521-2.793-17.21c2.727-12.043,10.572-23.646,18.921-32.549
							C537.427,294.881,533.897,291.338,531.688,293.694L531.688,293.694z"/>
					</g>
				</g>
				<g>
					<g>
						<path fill="#4B2E12" d="M265.959,323.435c-0.27,4.231-1.989,8.6-3.033,12.685c-1.57,6.152-2.885,12.369-3.488,18.696
							c-1.041,10.922,1.807,22.417,14.279,23.853c1.146,0.132,2.063-0.872,2.41-1.835c7.421-20.587-7.475-44.059,11.004-61.096
							c-0.812,0.215-1.621,0.429-2.432,0.643c6.143,2.45,10.6,6.552,9.555,13.561c-0.887,5.95-3.954,11.495-6.293,16.961
							c-4.693,10.972-5.88,22.148,6.703,27.829c1.591,0.719,3.022,0.104,3.672-1.494c3.405-8.382,5.869-17.09,8.928-25.599
							c2.167-6.032,2.91-10.546,2.991-16.934c0.031-2.561,0.24-5.06,0.89-7.543c0.413-1.581,1.216-3.019,2.246-4.275
							c0.415-0.508,3.375-3.375,4.141-3.007c4.484,2.16,8.697,5.586,9.06,10.864c0.592,8.618-6.419,17.387-9.802,24.881
							c-3.59,7.958-4.916,16.348,1.113,23.449c0.549,0.647,1.643,0.891,2.433,0.644c10.958-3.43,11.988-13.05,11.109-23.104
							c-1.132-12.956,1.37-28.692,10.915-38.138c-1.309-0.168-2.617-0.337-3.926-0.506c2.064,3.325,2.479,7.955,3.154,11.727
							c1.083,6.043,1.928,12.127,2.942,18.181c1.274,7.595,2.185,21.289,9.494,25.968c3.332,2.132,8.213-0.156,10.438-2.859
							c3.2-3.89,2.938-9.628,2.355-14.313c-0.622-5.01-2.063-9.823-3.2-14.725c-2.331-10.05,2.933-19.717,9.022-27.27
							c-1.179,0-2.356,0-3.535,0c7.086,8.137,3.12,18.252,3.972,27.89c0.99,11.221,4.871,21.782,9.963,31.737
							c0.528,1.033,1.767,1.369,2.822,1.147c13.154-2.754,12.144-17.026,10.686-27.483c-1.003-7.193-2.567-14.305-2.991-21.57
							c-0.337-5.796,0.123-12.634,5.496-16.062c-0.842,0-1.684,0-2.523,0c12.192,7.627,13.135,19.207,12.322,32.359
							c-0.625,10.122-1.024,20.894,7.416,28.051c2.443,2.072,5.998-1.446,3.535-3.535c-9.076-7.696-5.917-20.664-5.636-31.113
							c0.345-12.741-4.096-23.186-15.114-30.077c-0.729-0.457-1.795-0.465-2.523,0c-10.827,6.903-8.219,21.809-6.522,32.546
							c1.413,8.951,7.766,29.293-5.472,32.064c0.94,0.384,1.882,0.767,2.822,1.148c-5.396-10.551-9.805-22.491-9.396-34.522
							c0.332-9.75,1.574-18.199-5.319-26.115c-0.827-0.95-2.72-1.013-3.535,0c-8.524,10.567-12.95,21.979-9.494,35.401
							c1.258,4.886,2.469,9.803,2.56,14.87c0.039,2.223-2.269,11.317-6.168,7.682c-2.639-2.464-3.462-7.382-4.293-10.697
							c-1.407-5.62-2.303-11.372-3.213-17.088c-1.274-8.009-1.343-18.769-5.748-25.863c-0.85-1.369-2.758-1.662-3.926-0.506
							c-9.129,9.033-11.404,21.553-12.621,33.864c-0.898,9.09,4.717,22.362-7.196,26.093c0.811,0.214,1.62,0.428,2.432,0.643
							c-6.957-8.195,0.536-19.364,4.544-27.146c4.063-7.891,8.563-17.643,2.804-25.863c-2.446-3.494-8.66-9.071-13.068-7.239
							c-5.825,2.421-9.046,7.491-10.022,13.555c-0.869,5.394,0.36,11.148-1.279,16.397c-3.194,10.234-6.859,20.727-10.897,30.666
							c1.224-0.498,2.447-0.996,3.672-1.494c-5.809-2.623-8.858-6.521-7.584-12.992c1.205-6.111,4.429-11.78,6.791-17.492
							c2.1-5.075,3.711-10.487,2.639-15.999c-1.259-6.469-7.387-10.129-13.006-12.369c-0.825-0.33-1.825,0.084-2.432,0.643
							c-8.502,7.838-11.693,17.738-11.6,29.103c0.094,11.427,3.314,23.087-0.689,34.198c0.803-0.61,1.606-1.223,2.41-1.835
							c-11.84-1.362-9.887-16.566-8.452-24.969c1.432-8.387,5.156-16.774,5.694-25.265
							C271.163,320.212,266.162,320.232,265.959,323.435L265.959,323.435z"/>
					</g>
				</g>
			</g>
		</g>
	</g>
</g>
<g id="Layer_7">
</g>
<g id="Layer_6">
</g>
<g id="Layer_5">
</g>
<g id="Layer_4">
</g>
<g id="Layer_3">
</g>
<g id="Layer_2">
</g>
<g id="Layer_1">
</g>
</svg>
