<?xml version="1.0" encoding="utf-8"?>
<!-- Generator: Adobe Illustrator 16.0.0, SVG Export Plug-In . SVG Version: 6.00 Build 0)  -->
<!DOCTYPE svg PUBLIC "-//W3C//DTD SVG 1.1//EN" "http://www.w3.org/Graphics/SVG/1.1/DTD/svg11.dtd">
<svg version="1.1" id="Layer_1" xmlns="http://www.w3.org/2000/svg" xmlns:xlink="http://www.w3.org/1999/xlink" x="0px" y="0px"
	 width="568.471px" height="94.495px" viewBox="0 0 568.471 94.495" enable-background="new 0 0 568.471 94.495"
	 xml:space="preserve">
<g>
	<path fill="#BA7C2B" d="M14.297,62.098c0,0,2.425-0.8,6.973-2.301c4.55-1.487,11.289-3.519,19.93-5.86
		c8.647-2.32,19.249-4.77,31.506-7.151c12.27-2.289,26.212-4.468,41.527-5.846c7.653-0.738,15.645-1.265,23.92-1.711
		c8.278-0.393,16.845-0.616,25.651-0.676c17.613-0.068,36.187,0.588,55.334,2.049c19.149,1.429,38.864,3.688,58.811,6.446
		c19.949,2.75,40.132,6.007,60.283,9.313c20.146,3.336,40.263,6.728,60.116,9.557c19.853,2.807,39.439,5.118,58.453,6.204
		c9.504,0.539,18.861,0.776,28.01,0.628c2.286-0.063,4.56-0.126,6.819-0.189c2.258-0.115,4.506-0.18,6.733-0.334
		c2.223-0.163,4.461-0.265,6.611-0.478c2.161-0.207,4.308-0.485,6.427-0.83c8.448-1.399,16.598-3.759,23.396-7.79
		c3.378-2.017,6.374-4.494,8.594-7.447c2.228-2.943,3.636-6.35,4.126-9.875c0.262-1.758,0.31-3.541,0.203-5.307
		c-0.104-1.766-0.377-3.458-0.889-5.071c-0.983-3.25-2.831-6.126-5.112-8.48c-4.632-4.703-10.819-7.316-16.704-8.183
		c-5.896-0.866-11.765,0.015-16.021,2.796c-2.123,1.374-3.797,3.202-4.881,5.253c-1.13,2.034-1.52,4.221-1.222,6.289
		c0.271,2.068,1.216,3.896,2.373,5.365c1.189,1.463,2.662,2.529,4.171,3.224c3.064,1.375,6.098,1.241,8.386,0.807
		c2.314-0.474,4-1.245,5.1-1.791c1.096-0.565,1.646-0.891,1.646-0.892c0,0-0.524,0.363-1.584,1.008
		c-1.066,0.624-2.701,1.522-5.045,2.177c-2.313,0.629-5.5,0.957-8.904-0.364c-1.677-0.668-3.36-1.752-4.77-3.315
		c-1.387-1.565-2.507-3.609-2.915-5.975c-0.206-1.178-0.237-2.428-0.046-3.685c0.083-0.605,0.265-1.347,0.452-1.874
		c0.201-0.636,0.452-1.209,0.744-1.801c1.141-2.353,2.976-4.541,5.347-6.14c4.75-3.257,11.117-4.323,17.499-3.554
		c3.207,0.39,6.462,1.25,9.619,2.64c3.149,1.391,6.208,3.326,8.862,5.905c2.633,2.58,4.854,5.838,6.094,9.589
		c0.643,1.867,1.012,3.854,1.175,5.823c0.171,1.969,0.165,3.997-0.11,6.03c-0.498,4.071-2.104,8.144-4.639,11.59
		c-2.524,3.465-5.874,6.291-9.537,8.556c-7.383,4.519-15.901,7.081-24.691,8.685c-2.205,0.393-4.437,0.718-6.697,0.969
		c-2.271,0.249-4.504,0.367-6.769,0.556c-2.261,0.178-4.54,0.265-6.83,0.402c-2.292,0.085-4.598,0.17-6.915,0.256
		c-9.272,0.236-18.745,0.084-28.355-0.371c-19.224-0.91-38.986-3.04-58.929-5.861c-19.95-2.794-40.114-6.13-60.26-9.427
		c-20.14-3.338-40.269-6.621-60.136-9.394c-19.865-2.782-39.47-5.033-58.485-6.612c-19.016-1.573-37.45-2.342-54.93-2.386
		c-8.739,0.001-17.239,0.175-25.455,0.503c-8.212,0.372-16.146,0.824-23.742,1.491c-3.802,0.294-7.512,0.712-11.148,1.027
		c-3.626,0.409-7.178,0.738-10.624,1.187c-3.449,0.428-6.817,0.799-10.076,1.274c-1.632,0.224-3.24,0.444-4.824,0.662
		c-1.581,0.242-3.138,0.479-4.67,0.714c-12.275,1.8-22.89,3.921-31.637,5.671c-4.352,0.963-8.266,1.739-11.627,2.569
		c-3.373,0.791-6.261,1.403-8.579,2.007C16.777,61.49,14.297,62.098,14.297,62.098z"/>
</g>
</svg>
