<?xml version="1.0" encoding="utf-8"?>
<!-- Generator: Adobe Illustrator 16.0.0, SVG Export Plug-In . SVG Version: 6.00 Build 0)  -->
<!DOCTYPE svg PUBLIC "-//W3C//DTD SVG 1.1//EN" "http://www.w3.org/Graphics/SVG/1.1/DTD/svg11.dtd">
<svg version="1.1" id="Layer_1" xmlns="http://www.w3.org/2000/svg" xmlns:xlink="http://www.w3.org/1999/xlink" x="0px" y="0px"
	 width="568.471px" height="74.667px" viewBox="0 0 568.471 74.667" enable-background="new 0 0 568.471 74.667"
	 xml:space="preserve">
<g>
	<path fill="#BA7C2B" d="M20.096,55.818c3.776-2.114,7.585-4.156,11.421-6.173c1.917-1.008,3.853-1.979,5.79-2.95l5.862-2.818
		c3.947-1.803,7.915-3.586,11.98-5.149c2.033-0.778,4.068-1.558,6.137-2.246c2.053-0.737,4.133-1.391,6.22-2.03
		c4.168-1.296,8.396-2.385,12.637-3.412l6.393-1.381l6.418-1.219l6.437-1.075l6.448-0.955c4.297-0.595,8.6-1.135,12.979-1.519
		c4.391-0.401,8.756-0.501,13.128-0.544c4.369-0.041,8.733,0.075,13.087,0.318c4.354,0.233,8.699,0.566,13.032,1.002
		c4.332,0.455,8.649,1.02,12.951,1.677c4.304,0.647,8.583,1.449,12.841,2.337c4.259,0.884,8.488,1.913,12.676,3.086
		c4.192,1.154,8.329,2.508,12.401,4.016c4.071,1.508,8.077,3.199,11.92,5.193l0,0l-0.002-0.002
		c-1.691-1.493-3.236-3.229-4.249-5.328c-1.037-2.079-1.366-4.562-0.891-6.902c0.457-2.353,1.631-4.494,3.058-6.352
		c1.432-1.868,3.132-3.49,4.934-4.958c3.623-2.927,7.704-5.18,11.938-7.042c2.137-0.921,4.276-1.735,6.57-2.39
		c1.097-0.293,2.154-0.615,3.326-0.854l1.722-0.385l1.706-0.314c9.101-1.634,18.283-1.895,27.4-1.754
		c9.127,0.124,18.206,0.911,27.247,1.889c9.042,0.998,18.029,2.395,26.974,4.027c8.943,1.653,17.842,3.541,26.674,5.952
		c8.694,2.401,17.415,4.685,26.169,6.883c8.755,2.178,17.507,4.38,26.294,6.435c8.782,2.072,17.586,4.052,26.409,5.926
		c8.822,1.886,17.672,3.623,26.535,5.262c8.863,1.641,17.755,3.101,26.672,4.281c4.459,0.58,8.925,1.073,13.393,1.444
		c2.234,0.188,4.468,0.317,6.7,0.43c2.155,0.087,4.369,0,6.566-0.18c4.401-0.37,8.793-1.119,13.027-2.322
		c4.215-1.215,8.343-2.884,11.779-5.42c1.703-1.27,3.223-2.763,4.316-4.507c1.099-1.736,1.778-3.707,1.928-5.767
		c0.083-1.018,0.041-2.094-0.089-3.094c-0.086-0.595-0.162-1.035-0.294-1.545c-0.118-0.504-0.282-0.995-0.458-1.481
		c-0.728-1.938-1.918-3.699-3.43-5.161c-3.036-2.932-7.224-4.69-11.486-5.162c-2.135-0.23-4.312-0.136-6.369,0.38
		c-2.054,0.507-3.989,1.469-5.447,2.92c-0.728,0.723-1.336,1.562-1.777,2.489c-0.235,0.476-0.401,0.92-0.543,1.444
		c-0.11,0.424-0.174,0.943-0.186,1.43c-0.019,1.983,0.938,3.962,2.478,5.288c0.773,0.658,1.674,1.177,2.652,1.511
		c0.985,0.309,2.036,0.468,3.104,0.424c2.148-0.056,4.279-0.838,6.299-1.871c-1.709,1.486-3.817,2.652-6.195,3.004
		c-2.358,0.369-4.965-0.229-6.903-1.814c-1.945-1.549-3.198-3.988-3.218-6.543c0.007-0.643,0.061-1.253,0.228-1.927
		c0.142-0.567,0.36-1.191,0.621-1.731c0.512-1.122,1.231-2.153,2.092-3.036c1.728-1.777,3.979-2.92,6.29-3.533
		c2.321-0.621,4.729-0.761,7.087-0.546c4.701,0.449,9.342,2.271,12.896,5.572c1.764,1.648,3.208,3.692,4.107,5.976
		c0.219,0.572,0.421,1.152,0.572,1.745c0.163,0.582,0.288,1.255,0.371,1.776c0.183,1.238,0.244,2.432,0.169,3.668
		c-0.135,2.457-0.927,4.902-2.213,7.001c-1.279,2.114-3.021,3.865-4.909,5.323c-3.815,2.905-8.194,4.729-12.615,6.089
		c-4.442,1.34-8.99,2.191-13.588,2.656c-2.302,0.226-4.612,0.359-6.976,0.304c-2.282-0.076-4.563-0.17-6.837-0.322
		c-4.547-0.3-9.075-0.724-13.59-1.232c-9.025-1.039-18.003-2.358-26.943-3.856c-8.943-1.487-17.844-3.192-26.723-4.979
		c-8.88-1.792-17.735-3.688-26.569-5.678c-8.831-2-17.657-4.028-26.437-6.252c-8.781-2.2-17.553-4.492-26.284-6.9
		c-8.611-2.348-17.416-4.214-26.248-5.842c-8.836-1.641-17.738-2.912-26.647-4.053c-8.915-1.097-17.865-1.87-26.811-2.29
		c-4.473-0.192-8.947-0.266-13.406-0.151c-4.457,0.104-8.908,0.355-13.289,0.965l-1.64,0.232l-1.6,0.288
		c-1.054,0.164-2.175,0.453-3.272,0.699c-2.079,0.486-4.22,1.154-6.276,1.918c-4.132,1.538-8.119,3.534-11.727,6.043
		c-1.791,1.268-3.483,2.681-4.917,4.313c-1.422,1.629-2.621,3.478-3.206,5.541c-0.595,2.056-0.484,4.307,0.31,6.363
		c0.761,2.075,2.105,3.938,3.646,5.586l0.002,0.002l0,0c-4.035-1.566-8.137-2.91-12.283-4.079
		c-4.147-1.165-8.346-2.125-12.552-3.014c-4.211-0.875-8.449-1.603-12.696-2.256c-4.248-0.648-8.514-1.161-12.782-1.629
		c-4.27-0.455-8.548-0.818-12.831-1.073c-4.281-0.277-8.566-0.464-12.85-0.547c-4.284-0.073-8.565-0.069-12.839,0.018
		c-4.27,0.087-8.545,0.354-12.771,0.646c-4.238,0.298-8.508,0.89-12.796,1.297l-6.407,0.739l-6.387,0.834l-6.365,0.943l-6.333,1.098
		c-4.205,0.808-8.401,1.676-12.546,2.75c-2.075,0.528-4.147,1.072-6.196,1.699c-2.064,0.578-4.101,1.248-6.14,1.919
		c-2.047,0.644-4.06,1.397-6.096,2.091c-2.024,0.726-4.029,1.509-6.046,2.264l-5.995,2.426l-5.967,2.516
		C28.007,52.313,24.059,54.083,20.096,55.818z"/>
</g>
</svg>
