<?xml version="1.0" encoding="utf-8"?>
<!-- Generator: Adobe Illustrator 16.0.0, SVG Export Plug-In . SVG Version: 6.00 Build 0)  -->
<!DOCTYPE svg PUBLIC "-//W3C//DTD SVG 1.1//EN" "http://www.w3.org/Graphics/SVG/1.1/DTD/svg11.dtd">
<svg version="1.1" id="Layer_1" xmlns="http://www.w3.org/2000/svg" xmlns:xlink="http://www.w3.org/1999/xlink" x="0px" y="0px"
	 width="568.471px" height="83.333px" viewBox="0 0 568.471 83.333" enable-background="new 0 0 568.471 83.333"
	 xml:space="preserve">
<g>
	<path fill="#BA7C2B" d="M20.096,64.29c3.776-2.114,7.585-4.157,11.42-6.173c1.917-1.008,3.853-1.979,5.791-2.95l5.862-2.819
		c3.947-1.802,7.915-3.586,11.98-5.148c2.034-0.778,4.068-1.559,6.137-2.246c2.053-0.737,4.133-1.392,6.219-2.031
		c4.168-1.296,8.396-2.385,12.637-3.411l6.393-1.381l6.418-1.219l6.437-1.076l6.448-0.955c4.297-0.595,8.6-1.136,12.979-1.519
		c4.391-0.401,8.756-0.5,13.128-0.543c4.37-0.042,8.734,0.075,13.087,0.318c4.354,0.234,8.699,0.567,13.032,1.001
		c4.332,0.456,8.649,1.02,12.951,1.677c4.304,0.647,8.583,1.45,12.841,2.337c4.259,0.884,8.488,1.913,12.676,3.086
		c4.191,1.154,8.329,2.508,12.401,4.016c4.071,1.509,8.077,3.199,11.92,5.193l0,0l-0.001-0.001c-1.701-1.497-3.239-3.27-4.18-5.424
		c-0.963-2.14-1.129-4.664-0.519-6.978c0.588-2.33,1.837-4.42,3.303-6.252c1.471-1.843,3.18-3.46,4.989-4.931
		c3.632-2.937,7.688-5.259,11.925-7.188c2.112-0.945,4.349-1.808,6.57-2.433c2.149-0.657,4.425-1.285,6.647-1.833
		c8.926-2.252,18.077-3.57,27.265-4.138c9.191-0.613,18.428-0.302,27.588,0.618c9.166,0.918,18.247,2.64,27.148,5.016
		c8.898,2.39,17.62,5.458,26.036,9.235c8.272,3.708,16.566,7.218,25.02,10.437c4.215,1.623,8.463,3.151,12.715,4.669
		c4.264,1.48,8.543,2.917,12.855,4.246c8.618,2.674,17.338,5.016,26.143,6.95c4.4,0.977,8.829,1.812,13.268,2.582
		c4.446,0.72,8.902,1.381,13.376,1.885c4.473,0.502,8.958,0.918,13.452,1.136c2.246,0.148,4.495,0.178,6.743,0.26
		c2.249,0.007,4.499,0.065,6.747,0.001c4.498-0.049,8.99-0.307,13.468-0.712l3.355-0.331l3.346-0.419l6.758-0.877
		c4.473-0.596,8.907-1.304,13.225-2.394c4.295-1.099,8.538-2.545,12.158-4.867c1.796-1.161,3.418-2.558,4.611-4.234
		c1.21-1.664,1.944-3.612,2.156-5.664c0.201-2.05-0.027-4.217-0.718-6.163c-0.684-1.964-1.849-3.757-3.344-5.247
		c-3.001-2.993-7.194-4.805-11.473-5.318c-2.144-0.257-4.332-0.172-6.408,0.316c-2.067,0.497-4.028,1.433-5.513,2.875
		c-0.745,0.714-1.359,1.555-1.819,2.478c-0.116,0.23-0.223,0.466-0.315,0.708c-0.076,0.146-0.175,0.508-0.256,0.747
		c-0.098,0.429-0.198,0.931-0.199,1.428c-0.051,1.989,0.886,3.997,2.428,5.336c1.533,1.36,3.624,2.063,5.769,1.978
		c2.158-0.051,4.302-0.833,6.331-1.873c-1.717,1.495-3.84,2.664-6.231,3.009c-2.37,0.362-4.993-0.256-6.924-1.868
		c-1.949-1.566-3.178-4.044-3.158-6.609c-0.003-0.642,0.094-1.266,0.253-1.941c0.098-0.299,0.133-0.493,0.283-0.868
		c0.106-0.29,0.229-0.574,0.364-0.853c0.533-1.118,1.262-2.151,2.142-3.023c1.759-1.763,4.034-2.875,6.36-3.476
		c2.339-0.592,4.758-0.72,7.126-0.477c4.719,0.495,9.371,2.374,12.892,5.753c1.749,1.683,3.164,3.77,4.014,6.085
		c0.858,2.325,1.164,4.782,0.967,7.25c-0.206,2.472-1.087,4.932-2.52,6.967c-1.415,2.056-3.283,3.695-5.271,5.03
		c-4.01,2.659-8.476,4.232-12.936,5.459c-4.477,1.21-9.018,2.01-13.536,2.688l-6.741,0.99l-3.408,0.485l-3.419,0.395
		c-4.562,0.491-9.142,0.83-13.727,0.957c-2.293,0.104-4.586,0.083-6.88,0.114c-2.292-0.044-4.587-0.037-6.876-0.149
		c-4.584-0.146-9.157-0.491-13.72-0.927c-9.124-0.893-18.178-2.371-27.139-4.237c-8.962-1.874-17.83-4.161-26.591-6.782
		c-8.756-2.637-17.433-5.539-25.958-8.828c-8.529-3.242-16.977-6.814-25.285-10.535c-8.164-3.658-16.637-6.635-25.285-8.954
		c-8.647-2.34-17.492-3.897-26.387-4.944c-8.902-1.03-17.883-1.317-26.839-1.018c-8.956,0.337-17.89,1.38-26.68,3.171
		c-2.208,0.452-4.337,0.944-6.558,1.525c-2.174,0.526-4.234,1.17-6.313,1.973c-4.129,1.596-8.115,3.655-11.74,6.19
		c-1.806,1.274-3.517,2.688-4.997,4.303c-1.471,1.612-2.738,3.431-3.445,5.471c-0.719,2.031-0.758,4.294-0.044,6.388
		c0.681,2.109,2.008,4.008,3.557,5.662l0.001,0.001l0,0c-4.035-1.566-8.137-2.91-12.283-4.079
		c-4.147-1.165-8.346-2.125-12.552-3.014c-4.211-0.875-8.449-1.603-12.696-2.256c-4.248-0.648-8.514-1.16-12.782-1.629
		c-4.27-0.455-8.548-0.818-12.831-1.074c-4.281-0.276-8.566-0.463-12.85-0.546c-4.284-0.073-8.566-0.069-12.839,0.018
		c-4.27,0.087-8.545,0.354-12.771,0.646c-4.238,0.298-8.508,0.89-12.796,1.297l-6.407,0.74l-6.387,0.833l-6.366,0.943l-6.333,1.099
		c-4.205,0.808-8.401,1.675-12.546,2.749c-2.075,0.529-4.147,1.072-6.196,1.699c-2.064,0.578-4.101,1.249-6.14,1.919
		c-2.047,0.645-4.06,1.397-6.095,2.091c-2.024,0.727-4.029,1.51-6.046,2.265l-5.995,2.426l-5.967,2.516
		C28.007,60.784,24.059,62.553,20.096,64.29z"/>
</g>
</svg>
