<?xml version="1.0" encoding="utf-8"?>
<!-- Generator: Adobe Illustrator 16.0.0, SVG Export Plug-In . SVG Version: 6.00 Build 0)  -->
<!DOCTYPE svg PUBLIC "-//W3C//DTD SVG 1.1//EN" "http://www.w3.org/Graphics/SVG/1.1/DTD/svg11.dtd">
<svg version="1.1" id="Layer_1" xmlns="http://www.w3.org/2000/svg" xmlns:xlink="http://www.w3.org/1999/xlink" x="0px" y="0px"
	 width="512px" height="512px" viewBox="0 0 512 512" enable-background="new 0 0 512 512" xml:space="preserve">
<g>
	
		<linearGradient id="SVGID_1_" gradientUnits="userSpaceOnUse" x1="326.2532" y1="710.8503" x2="553.3049" y2="696.7749" gradientTransform="matrix(1 0 0 1 -83.2002 -328.8008)">
		<stop  offset="0" style="stop-color:#624937"/>
		<stop  offset="1" style="stop-color:#533E2D"/>
	</linearGradient>
	<polygon fill="url(#SVGID_1_)" stroke="#000000" stroke-linejoin="round" stroke-miterlimit="10" points="454.867,299.64 
		451.771,333.42 252.556,450.738 252.228,407.791 353.005,354.013 353.005,353.998 383.282,337.847 	"/>
	
		<linearGradient id="SVGID_2_" gradientUnits="userSpaceOnUse" x1="389.0217" y1="570.5818" x2="586.4054" y2="599.775" gradientTransform="matrix(1 0 0 1 -83.2002 -328.8008)">
		<stop  offset="0" style="stop-color:#624937"/>
		<stop  offset="1" style="stop-color:#533E2D"/>
	</linearGradient>
	<polygon fill="url(#SVGID_2_)" stroke="#000000" stroke-linejoin="round" stroke-miterlimit="10" points="489.484,198.892 
		475.895,319.22 451.771,333.42 454.867,299.64 454.867,299.623 462.961,211.603 	"/>
	
		<linearGradient id="SVGID_3_" gradientUnits="userSpaceOnUse" x1="292.553" y1="718.0447" x2="497.6183" y2="749.6068" gradientTransform="matrix(1 0 0 1 -83.2002 -328.8008)">
		<stop  offset="0" style="stop-color:#624937"/>
		<stop  offset="1" style="stop-color:#533E2D"/>
	</linearGradient>
	<polygon fill="url(#SVGID_3_)" stroke="#000000" stroke-linejoin="round" stroke-miterlimit="10" points="252.561,450.734 
		214.88,472.924 212.23,331.724 251.51,312.904 252.15,398.033 252.23,407.793 	"/>
	
		<line fill="none" stroke="#000000" stroke-linejoin="round" stroke-miterlimit="10" x1="492.51" y1="172.101" x2="492.51" y2="172.084"/>
	
		<linearGradient id="SVGID_4_" gradientUnits="userSpaceOnUse" x1="286.3811" y1="589.8318" x2="579.2808" y2="571.9301" gradientTransform="matrix(1 0 0 1 -83.2002 -328.8008)">
		<stop  offset="0" style="stop-color:#624937"/>
		<stop  offset="1" style="stop-color:#533E2D"/>
	</linearGradient>
	<polygon fill="url(#SVGID_4_)" stroke="#000000" stroke-linejoin="round" stroke-miterlimit="10" points="492.51,172.101 
		489.484,198.892 462.961,211.603 453.08,216.34 432.412,226.236 408.168,237.845 388.544,247.261 355.581,263.058 347.506,266.916 
		347.163,267.078 319.938,280.117 286.68,296.047 251.512,312.902 212.232,331.722 211.637,300.101 213.276,300.937 	"/>
	
		<line fill="none" stroke="#000000" stroke-linejoin="round" stroke-miterlimit="10" x1="211.637" y1="300.101" x2="211.637" y2="300.056"/>
	
		<linearGradient id="SVGID_5_" gradientUnits="userSpaceOnUse" x1="107.4861" y1="506.5583" x2="299.1686" y2="645.6821" gradientTransform="matrix(1 0 0 1 -83.2002 -328.8008)">
		<stop  offset="0" style="stop-color:#897041"/>
		<stop  offset="1" style="stop-color:#FFEBC1"/>
	</linearGradient>
	<polygon fill="url(#SVGID_5_)" stroke="#000000" stroke-linejoin="round" stroke-miterlimit="10" points="213.276,285.603 
		213.276,300.937 211.637,300.101 18.354,202.199 15.716,200.861 13.495,189.445 	"/>
	
		<linearGradient id="SVGID_6_" gradientUnits="userSpaceOnUse" x1="118.9177" y1="610.9451" x2="265.5179" y2="582.9759" gradientTransform="matrix(1 0 0 1 -83.2002 -328.8008)">
		<stop  offset="0" style="stop-color:#604837"/>
		<stop  offset="1" style="stop-color:#6E5441"/>
	</linearGradient>
	<polygon fill="url(#SVGID_6_)" stroke="#000000" stroke-linejoin="round" stroke-miterlimit="10" points="212.23,331.724 
		169.54,309.363 135.13,290.873 135.13,290.863 100.221,272.103 71.82,256.824 71,256.394 58.88,249.864 23.641,230.934 
		18.35,202.203 211.641,300.103 	"/>
	
		<linearGradient id="SVGID_7_" gradientUnits="userSpaceOnUse" x1="99.3684" y1="508.7419" x2="271.3674" y2="511.4084" gradientTransform="matrix(1 0 0 1 -83.2002 -328.8008)">
		<stop  offset="0" style="stop-color:#604837"/>
		<stop  offset="1" style="stop-color:#705542"/>
	</linearGradient>
	<path fill="url(#SVGID_7_)" stroke="#000000" stroke-linejoin="round" stroke-miterlimit="10" d="M211.101,266.439l-23.842-28.327
		c-0.164-1.877-0.343-3.74-0.581-5.604c-1.416-11.637-4.277-22.918-8.271-33.616c-6.47-17.347-15.944-33.14-27.256-46.401
		c-20.013-23.439-45.775-38.951-70.824-41.008h-0.074c-2.312-0.18-4.604-0.254-6.899-0.209
		c-23.588,0.477-40.844,30.102-43.169,60.782l-13.977,5.289c4.053-41.946,28.997-79.915,61.316-79.915
		c24.333,0,47.134,8.746,66.786,24.141c16.213,12.693,30.28,29.922,41.292,50.485c8.493,15.841,15.169,33.661,19.61,52.929
		C208.269,238.187,210.266,252.06,211.101,266.439z"/>
	
		<linearGradient id="SVGID_8_" gradientUnits="userSpaceOnUse" x1="104.7297" y1="583.6833" x2="291.6364" y2="536.7047" gradientTransform="matrix(1 0 0 1 -83.2002 -328.8008)">
		<stop  offset="0" style="stop-color:#897041"/>
		<stop  offset="1" style="stop-color:#FFEBC1"/>
	</linearGradient>
	<path fill="url(#SVGID_8_)" stroke="#000000" stroke-linejoin="round" stroke-miterlimit="10" d="M213.276,285.603L13.496,189.445
		c0-3.771-0.357-7.822,0-11.459l198.768,92.954L213.276,285.603z"/>
	
		<linearGradient id="SVGID_9_" gradientUnits="userSpaceOnUse" x1="181.178" y1="441.1404" x2="479.6775" y2="375.6404" gradientTransform="matrix(1 0 0 1 -83.2002 -328.8008)">
		<stop  offset="0" style="stop-color:#9D775A"/>
		<stop  offset="1" style="stop-color:#87644A"/>
	</linearGradient>
	<path fill="url(#SVGID_9_)" stroke="#000000" stroke-linejoin="round" stroke-miterlimit="10" d="M420.626,52.1l-276.313,69.471
		C124.66,106.176,101.86,97.43,77.527,97.43L371.08,39.076C386.264,39.076,403.714,43.709,420.626,52.1z"/>
	
		<linearGradient id="SVGID_10_" gradientUnits="userSpaceOnUse" x1="250.4436" y1="474.866" x2="531.778" y2="382.8656" gradientTransform="matrix(1 0 0 1 -83.2002 -328.8008)">
		<stop  offset="0" style="stop-color:#936F54"/>
		<stop  offset="1" style="stop-color:#7D5D44"/>
	</linearGradient>
	<path fill="url(#SVGID_10_)" stroke="#000000" stroke-linejoin="round" stroke-miterlimit="10" d="M461.173,81.471l-275.568,90.585
		c-11.012-20.563-25.079-37.792-41.292-50.485L420.626,52.1C435.123,59.297,449.237,69.266,461.173,81.471z"/>
	
		<linearGradient id="SVGID_11_" gradientUnits="userSpaceOnUse" x1="277.0422" y1="527.9041" x2="559.7113" y2="422.5697" gradientTransform="matrix(1 0 0 1 -83.2002 -328.8008)">
		<stop  offset="0" style="stop-color:#8B694F"/>
		<stop  offset="1" style="stop-color:#75573F"/>
	</linearGradient>
	<path fill="url(#SVGID_11_)" stroke="#000000" stroke-linejoin="round" stroke-miterlimit="10" d="M485.879,117.127
		L205.215,224.984c-4.441-19.267-11.117-37.088-19.61-52.929L461.173,81.47C471.336,91.857,479.933,103.853,485.879,117.127z"/>
	
		<linearGradient id="SVGID_12_" gradientUnits="userSpaceOnUse" x1="287.3372" y1="576.1638" x2="578.0039" y2="456.83" gradientTransform="matrix(1 0 0 1 -83.2002 -328.8008)">
		<stop  offset="0" style="stop-color:#806149"/>
		<stop  offset="1" style="stop-color:#6B4F39"/>
	</linearGradient>
	<path fill="url(#SVGID_12_)" stroke="#000000" stroke-linejoin="round" stroke-miterlimit="10" d="M493.746,144.22L211.1,266.439
		c-0.835-14.379-2.832-28.251-5.886-41.455l280.664-107.855c3.665,8.197,6.316,16.885,7.703,25.959
		C493.643,143.459,493.688,143.847,493.746,144.22z"/>
	
		<linearGradient id="SVGID_13_" gradientUnits="userSpaceOnUse" x1="573.3733" y1="446.7976" x2="317.9706" y2="654.3761" gradientTransform="matrix(1 0 0 1 -83.2002 -328.8008)">
		<stop  offset="0" style="stop-color:#897041"/>
		<stop  offset="1" style="stop-color:#FFEBC1"/>
	</linearGradient>
	<polygon fill="url(#SVGID_13_)" stroke="#000000" stroke-linejoin="round" stroke-miterlimit="10" points="498.663,157.318 
		496.592,170.222 492.51,172.101 213.276,300.937 213.276,285.603 	"/>
	
		<linearGradient id="SVGID_14_" gradientUnits="userSpaceOnUse" x1="110.9221" y1="643.7029" x2="261.0075" y2="586.5273" gradientTransform="matrix(1 0 0 1 -83.2002 -328.8008)">
		<stop  offset="0" style="stop-color:#604837"/>
		<stop  offset="1" style="stop-color:#6E5441"/>
	</linearGradient>
	<polygon fill="url(#SVGID_14_)" stroke="#000000" stroke-linejoin="round" stroke-miterlimit="10" points="77.467,381.478 
		47.724,361.689 23.643,230.929 58.884,249.867 72.653,347.365 	"/>
	
		<linearGradient id="SVGID_15_" gradientUnits="userSpaceOnUse" x1="172.3777" y1="688.4548" x2="131.2107" y2="551.3799" gradientTransform="matrix(1 0 0 1 -83.2002 -328.8008)">
		<stop  offset="0" style="stop-color:#9D775A"/>
		<stop  offset="1" style="stop-color:#745841"/>
	</linearGradient>
	<polygon fill="url(#SVGID_15_)" stroke="#000000" stroke-linejoin="round" stroke-miterlimit="10" points="81.505,343.924 
		72.653,347.365 58.884,249.867 70.999,256.396 	"/>
	
		<linearGradient id="SVGID_16_" gradientUnits="userSpaceOnUse" x1="158.2634" y1="638.0115" x2="186.3707" y2="636.0036" gradientTransform="matrix(1 0 0 1 -83.2002 -328.8008)">
		<stop  offset="0" style="stop-color:#604837"/>
		<stop  offset="1" style="stop-color:#6E5441"/>
	</linearGradient>
	<polygon fill="url(#SVGID_16_)" stroke="#000000" stroke-linejoin="round" stroke-miterlimit="10" points="108.401,359.931 
		81.505,343.924 70.999,256.396 71.818,256.826 100.221,272.101 	"/>
	
		<linearGradient id="SVGID_17_" gradientUnits="userSpaceOnUse" x1="213.9407" y1="672.2771" x2="261.8103" y2="675.7459" gradientTransform="matrix(1 0 0 1 -83.2002 -328.8008)">
		<stop  offset="0" style="stop-color:#604837"/>
		<stop  offset="1" style="stop-color:#6E5441"/>
	</linearGradient>
	<polygon fill="url(#SVGID_17_)" stroke="#000000" stroke-linejoin="round" stroke-miterlimit="10" points="175.1,399.613 
		142.689,380.334 135.13,290.873 169.54,309.363 	"/>
	
		<linearGradient id="SVGID_18_" gradientUnits="userSpaceOnUse" x1="150.9192" y1="748.7009" x2="304.5492" y2="690.1751" gradientTransform="matrix(1 0 0 1 -83.2002 -328.8008)">
		<stop  offset="0" style="stop-color:#604837"/>
		<stop  offset="1" style="stop-color:#6E5441"/>
	</linearGradient>
	<polygon fill="url(#SVGID_18_)" stroke="#000000" stroke-linejoin="round" stroke-miterlimit="10" points="178.17,448.484 
		77.529,381.914 77.471,381.474 72.65,347.363 175.7,409.133 	"/>
	
		<linearGradient id="SVGID_19_" gradientUnits="userSpaceOnUse" x1="183.6458" y1="654.739" x2="229.7087" y2="655.3473" gradientTransform="matrix(1 0 0 1 -83.2002 -328.8008)">
		<stop  offset="0" style="stop-color:#604837"/>
		<stop  offset="1" style="stop-color:#6E5441"/>
	</linearGradient>
	<polygon fill="url(#SVGID_19_)" stroke="#000000" stroke-linejoin="round" stroke-miterlimit="10" points="142.688,380.328 
		108.401,359.931 100.221,272.101 135.135,290.863 135.135,290.877 	"/>
	
		<linearGradient id="SVGID_20_" gradientUnits="userSpaceOnUse" x1="87.4841" y1="446.4441" x2="206.8373" y2="561.99" gradientTransform="matrix(1 0 0 1 -83.2002 -328.8008)">
		<stop  offset="0" style="stop-color:#77776F"/>
		<stop  offset="1" style="stop-color:#C2C1B2"/>
	</linearGradient>
	<polygon fill="url(#SVGID_20_)" stroke="#000000" stroke-linejoin="round" stroke-miterlimit="10" points="212.263,270.939 
		13.495,177.986 16.208,177.345 211.101,266.439 	"/>
	
		<linearGradient id="SVGID_21_" gradientUnits="userSpaceOnUse" x1="574.1809" y1="584.3103" x2="322.4561" y2="509.8102" gradientTransform="matrix(1 0 0 1 -83.2002 -328.8008)">
		<stop  offset="0" style="stop-color:#897041"/>
		<stop  offset="1" style="stop-color:#FFEBC1"/>
	</linearGradient>
	<polygon fill="url(#SVGID_21_)" stroke="#000000" stroke-linejoin="round" stroke-miterlimit="10" points="498.663,145.5 
		498.663,157.318 213.276,285.603 212.263,270.939 	"/>
	
		<linearGradient id="SVGID_22_" gradientUnits="userSpaceOnUse" x1="576.7825" y1="473.0935" x2="581.8635" y2="473.0935" gradientTransform="matrix(1 0 0 1 -83.2002 -328.8008)">
		<stop  offset="0" style="stop-color:#897041"/>
		<stop  offset="1" style="stop-color:#E3C37F"/>
	</linearGradient>
	<path fill="url(#SVGID_22_)" stroke="#000000" stroke-linejoin="round" stroke-miterlimit="10" d="M498.663,145.5l-4.917-1.28
		c-0.061-0.373-0.104-0.761-0.164-1.134L498.663,145.5z"/>
	
		<linearGradient id="SVGID_23_" gradientUnits="userSpaceOnUse" x1="573.4514" y1="443.4861" x2="355.0088" y2="590.7875" gradientTransform="matrix(1 0 0 1 -83.2002 -328.8008)">
		<stop  offset="0" style="stop-color:#787766"/>
		<stop  offset="1" style="stop-color:#C3C0A2"/>
	</linearGradient>
	<polygon fill="url(#SVGID_23_)" stroke="#000000" stroke-linejoin="round" stroke-miterlimit="10" points="498.663,145.5 
		212.263,270.939 211.101,266.439 493.746,144.22 	"/>
	
		<linearGradient id="SVGID_24_" gradientUnits="userSpaceOnUse" x1="205.5388" y1="709.7097" x2="212.2059" y2="700.0424" gradientTransform="matrix(1 0 0 1 -83.2002 -328.8008)">
		<stop  offset="0" style="stop-color:#9D775A"/>
		<stop  offset="1" style="stop-color:#745841"/>
	</linearGradient>
	<polygon fill="url(#SVGID_24_)" stroke="#000000" stroke-linejoin="round" stroke-miterlimit="10" points="175.7,409.133 
		72.65,347.363 81.5,343.924 108.4,359.933 142.689,380.334 175.1,399.613 	"/>
	
		<linearGradient id="SVGID_25_" gradientUnits="userSpaceOnUse" x1="166.7141" y1="781.8328" x2="300.4807" y2="705.6698" gradientTransform="matrix(1 0 0 1 -83.2002 -328.8008)">
		<stop  offset="0" style="stop-color:#604837"/>
		<stop  offset="1" style="stop-color:#6E5441"/>
	</linearGradient>
	<polygon fill="url(#SVGID_25_)" stroke="#000000" stroke-linejoin="round" stroke-miterlimit="10" points="214.88,472.924 
		178.17,448.484 175.7,409.133 175.1,399.613 169.54,309.363 212.23,331.724 	"/>
	
		<linearGradient id="SVGID_26_" gradientUnits="userSpaceOnUse" x1="381.2375" y1="701.4412" x2="383.2982" y2="705.1586" gradientTransform="matrix(1 0 0 1 -83.2002 -328.8008)">
		<stop  offset="0" style="stop-color:#664B36"/>
		<stop  offset="1" style="stop-color:#87644B"/>
	</linearGradient>
	<polygon fill="url(#SVGID_26_)" stroke="#000000" stroke-linejoin="round" stroke-miterlimit="10" points="353.005,354.013 
		252.228,407.791 252.153,398.029 285.592,380.269 318.745,362.67 346.016,348.189 	"/>
	
		<line fill="none" stroke="#000000" stroke-linejoin="round" stroke-miterlimit="10" x1="454.885" y1="299.64" x2="454.867" y2="299.64"/>
	
		<linearGradient id="SVGID_27_" gradientUnits="userSpaceOnUse" x1="537.9993" y1="535.1423" x2="538.2432" y2="613.3497" gradientTransform="matrix(1 0 0 1 -83.2002 -328.8008)">
		<stop  offset="0" style="stop-color:#6A4F3A"/>
		<stop  offset="1" style="stop-color:#84634B"/>
	</linearGradient>
	<polygon fill="url(#SVGID_27_)" stroke="#000000" stroke-linejoin="round" stroke-miterlimit="10" points="462.961,211.603 
		454.867,299.623 446.928,295.197 453.08,216.34 	"/>
	
		<line fill="none" stroke="#000000" stroke-linejoin="round" stroke-miterlimit="10" x1="454.885" y1="299.64" x2="454.867" y2="299.64"/>
	
		<linearGradient id="SVGID_28_" gradientUnits="userSpaceOnUse" x1="327.2708" y1="678.3875" x2="376.3416" y2="673.4526" gradientTransform="matrix(1 0 0 1 -83.2002 -328.8008)">
		<stop  offset="0" style="stop-color:#624937"/>
		<stop  offset="0.3858" style="stop-color:#5F4634"/>
		<stop  offset="0.9844" style="stop-color:#543E2D"/>
		<stop  offset="1" style="stop-color:#533E2D"/>
	</linearGradient>
	<polygon fill="url(#SVGID_28_)" stroke="#000000" stroke-linejoin="round" stroke-miterlimit="10" points="286.68,296.047 
		285.592,380.269 252.153,398.029 251.512,312.902 	"/>
	
		<linearGradient id="SVGID_29_" gradientUnits="userSpaceOnUse" x1="363.8381" y1="663.7576" x2="409.1522" y2="654.0023" gradientTransform="matrix(1 0 0 1 -83.2002 -328.8008)">
		<stop  offset="0" style="stop-color:#624937"/>
		<stop  offset="0.3858" style="stop-color:#5F4634"/>
		<stop  offset="0.9844" style="stop-color:#543E2D"/>
		<stop  offset="1" style="stop-color:#533E2D"/>
	</linearGradient>
	<polygon fill="url(#SVGID_29_)" stroke="#000000" stroke-linejoin="round" stroke-miterlimit="10" points="319.938,280.117 
		318.745,362.67 285.592,380.269 286.68,296.047 	"/>
	
		<linearGradient id="SVGID_30_" gradientUnits="userSpaceOnUse" x1="395.9192" y1="646.7449" x2="441.3378" y2="639.7303" gradientTransform="matrix(1 0 0 1 -83.2002 -328.8008)">
		<stop  offset="0" style="stop-color:#624937"/>
		<stop  offset="0.3858" style="stop-color:#5F4634"/>
		<stop  offset="0.9844" style="stop-color:#543E2D"/>
		<stop  offset="1" style="stop-color:#533E2D"/>
	</linearGradient>
	<polygon fill="url(#SVGID_30_)" stroke="#000000" stroke-linejoin="round" stroke-miterlimit="10" points="347.506,266.916 
		346.016,348.189 318.745,362.67 319.938,280.117 347.163,267.078 	"/>
	
		<linearGradient id="SVGID_31_" gradientUnits="userSpaceOnUse" x1="432.386" y1="590.6433" x2="435.6641" y2="679.6796" gradientTransform="matrix(1 0 0 1 -83.2002 -328.8008)">
		<stop  offset="0" style="stop-color:#6A4F3A"/>
		<stop  offset="1" style="stop-color:#84634B"/>
	</linearGradient>
	<polygon fill="url(#SVGID_31_)" stroke="#000000" stroke-linejoin="round" stroke-miterlimit="10" points="355.581,263.058 
		353.005,353.998 353.005,354.013 346.016,348.189 347.506,266.916 	"/>
	
		<linearGradient id="SVGID_32_" gradientUnits="userSpaceOnUse" x1="345.2366" y1="633.7566" x2="577.6643" y2="624.5084" gradientTransform="matrix(1 0 0 1 -83.2002 -328.8008)">
		<stop  offset="0" style="stop-color:#624937"/>
		<stop  offset="1" style="stop-color:#533E2D"/>
	</linearGradient>
	<polygon fill="url(#SVGID_32_)" stroke="#000000" stroke-linejoin="round" stroke-miterlimit="10" points="388.544,247.261 
		383.851,328.158 383.282,337.847 353.005,353.998 355.581,263.058 	"/>
	
		<linearGradient id="SVGID_33_" gradientUnits="userSpaceOnUse" x1="465.1536" y1="613.7849" x2="496.1839" y2="609.4075" gradientTransform="matrix(1 0 0 1 -83.2002 -328.8008)">
		<stop  offset="0" style="stop-color:#624937"/>
		<stop  offset="0.3858" style="stop-color:#5F4634"/>
		<stop  offset="0.9844" style="stop-color:#543E2D"/>
		<stop  offset="1" style="stop-color:#533E2D"/>
	</linearGradient>
	<polygon fill="url(#SVGID_33_)" stroke="#000000" stroke-linejoin="round" stroke-miterlimit="10" points="408.168,237.845 
		403.967,317.654 383.851,328.158 388.544,247.261 	"/>
	
		<linearGradient id="SVGID_34_" gradientUnits="userSpaceOnUse" x1="486.592" y1="602.2712" x2="517.6364" y2="599.0698" gradientTransform="matrix(1 0 0 1 -83.2002 -328.8008)">
		<stop  offset="0" style="stop-color:#624937"/>
		<stop  offset="0.3858" style="stop-color:#5F4634"/>
		<stop  offset="0.9844" style="stop-color:#543E2D"/>
		<stop  offset="1" style="stop-color:#533E2D"/>
	</linearGradient>
	<polygon fill="url(#SVGID_34_)" stroke="#000000" stroke-linejoin="round" stroke-miterlimit="10" points="432.412,226.236 
		427.184,305.511 403.967,317.654 408.168,237.845 	"/>
	
		<linearGradient id="SVGID_35_" gradientUnits="userSpaceOnUse" x1="497.9739" y1="639.7771" x2="500.9577" y2="645.16" gradientTransform="matrix(1 0 0 1 -83.2002 -328.8008)">
		<stop  offset="0" style="stop-color:#664B36"/>
		<stop  offset="1" style="stop-color:#87644B"/>
	</linearGradient>
	<polygon fill="url(#SVGID_35_)" stroke="#000000" stroke-linejoin="round" stroke-miterlimit="10" points="454.867,299.623 
		454.867,299.64 383.282,337.847 383.851,328.158 403.967,317.654 427.184,305.511 446.928,295.197 	"/>
	
		<linearGradient id="SVGID_36_" gradientUnits="userSpaceOnUse" x1="510.9915" y1="593.5134" x2="539.4847" y2="584.7689" gradientTransform="matrix(1 0 0 1 -83.2002 -328.8008)">
		<stop  offset="0" style="stop-color:#624937"/>
		<stop  offset="0.3858" style="stop-color:#5F4634"/>
		<stop  offset="0.9844" style="stop-color:#543E2D"/>
		<stop  offset="1" style="stop-color:#533E2D"/>
	</linearGradient>
	<polygon fill="url(#SVGID_36_)" stroke="#000000" stroke-linejoin="round" stroke-miterlimit="10" points="453.08,216.34 
		446.928,295.197 427.184,305.511 432.412,226.236 	"/>
	
		<line fill="none" stroke="#000000" stroke-linejoin="round" stroke-miterlimit="10" x1="205.215" y1="224.984" x2="205.199" y2="224.984"/>
	
		<line fill="none" stroke="#000000" stroke-linejoin="round" stroke-miterlimit="10" x1="185.604" y1="172.056" x2="185.59" y2="172.056"/>
	
		<linearGradient id="SVGID_37_" gradientUnits="userSpaceOnUse" x1="167.22" y1="469.9724" x2="207.7195" y2="457.4725" gradientTransform="matrix(1 0 0 1 -83.2002 -328.8008)">
		<stop  offset="0" style="stop-color:#604837"/>
		<stop  offset="1" style="stop-color:#82634D"/>
	</linearGradient>
	<path fill="url(#SVGID_37_)" stroke="#000000" stroke-linejoin="round" stroke-miterlimit="10" d="M151.153,152.489l-90.777-33.303
		c5.871-4.71,12.604-7.541,19.879-7.705h0.074C105.376,113.537,131.141,129.049,151.153,152.489z"/>
	
		<linearGradient id="SVGID_38_" gradientUnits="userSpaceOnUse" x1="104.6052" y1="497.3005" x2="160.7471" y2="439.2486" gradientTransform="matrix(1 0 0 1 -83.2002 -328.8008)">
		<stop  offset="0" style="stop-color:#9D775A"/>
		<stop  offset="1" style="stop-color:#533E2D"/>
	</linearGradient>
	<path fill="url(#SVGID_38_)" stroke="#000000" stroke-linejoin="round" stroke-miterlimit="10" d="M80.253,111.482
		c-7.272,0.164-14.008,2.996-19.879,7.705h-0.017c-6.986,5.588-12.8,13.781-16.927,23.186c-3.651,8.285-6.021,17.51-6.766,26.717
		l-6.482,2.968c2.325-30.683,19.581-60.308,43.169-60.782C75.648,111.228,77.943,111.303,80.253,111.482z"/>
	
		<linearGradient id="SVGID_39_" gradientUnits="userSpaceOnUse" x1="146.4504" y1="506.0759" x2="214.8196" y2="483.865" gradientTransform="matrix(1 0 0 1 -83.2002 -328.8008)">
		<stop  offset="0" style="stop-color:#604837"/>
		<stop  offset="1" style="stop-color:#82634D"/>
	</linearGradient>
	<path fill="url(#SVGID_39_)" stroke="#000000" stroke-linejoin="round" stroke-miterlimit="10" d="M178.407,198.892L43.431,142.371
		c4.127-9.402,9.938-17.598,16.927-23.186h0.017l90.777,33.303C162.463,165.752,171.939,181.545,178.407,198.892z"/>
	
		<linearGradient id="SVGID_40_" gradientUnits="userSpaceOnUse" x1="180.5808" y1="542.4861" x2="209.998" y2="498.8052" gradientTransform="matrix(1 0 0 1 -83.2002 -328.8008)">
		<stop  offset="0" style="stop-color:#604837"/>
		<stop  offset="1" style="stop-color:#82634D"/>
	</linearGradient>
	<path fill="url(#SVGID_40_)" stroke="#000000" stroke-linejoin="round" stroke-miterlimit="10" d="M186.678,232.508l-150.011-63.42
		c0.745-9.207,3.112-18.432,6.766-26.717l134.977,56.521C182.4,209.59,185.262,220.871,186.678,232.508z"/>
	<path fill="none" stroke="#000000" stroke-linejoin="round" stroke-miterlimit="10" d="M187.303,238.693
		c-0.015-0.193-0.029-0.388-0.044-0.58"/>
	
		<linearGradient id="SVGID_41_" gradientUnits="userSpaceOnUse" x1="192.2737" y1="533.0574" x2="193.7502" y2="529.5788" gradientTransform="matrix(1 0 0 1 -83.2002 -328.8008)">
		<stop  offset="0" style="stop-color:#9D775A"/>
		<stop  offset="1" style="stop-color:#745841"/>
	</linearGradient>
	<path fill="url(#SVGID_41_)" stroke="#000000" stroke-linejoin="round" stroke-miterlimit="10" d="M187.259,238.113L30.185,172.055
		l6.482-2.968l150.011,63.421C186.916,234.371,187.095,236.236,187.259,238.113z"/>
	
		<linearGradient id="SVGID_42_" gradientUnits="userSpaceOnUse" x1="98.7844" y1="546.4187" x2="270.7834" y2="549.0852" gradientTransform="matrix(1 0 0 1 -83.2002 -328.8008)">
		<stop  offset="0" style="stop-color:#604837"/>
		<stop  offset="1" style="stop-color:#705542"/>
	</linearGradient>
	<polygon fill="url(#SVGID_42_)" stroke="#000000" stroke-linejoin="round" stroke-miterlimit="10" points="211.101,266.439 
		16.208,177.345 30.185,172.056 187.259,238.113 	"/>
	
		<line fill="none" stroke="#000000" stroke-linejoin="round" stroke-miterlimit="10" x1="43.433" y1="142.371" x2="43.417" y2="142.371"/>
	
		<line fill="none" stroke="#000000" stroke-linejoin="round" stroke-miterlimit="10" x1="151.183" y1="152.504" x2="151.153" y2="152.489"/>
</g>
</svg>
