<?xml version="1.0" encoding="utf-8"?>
<!-- Generator: Adobe Illustrator 16.0.0, SVG Export Plug-In . SVG Version: 6.00 Build 0)  -->
<!DOCTYPE svg PUBLIC "-//W3C//DTD SVG 1.1//EN" "http://www.w3.org/Graphics/SVG/1.1/DTD/svg11.dtd">
<svg version="1.1" id="Layer_1" xmlns="http://www.w3.org/2000/svg" xmlns:xlink="http://www.w3.org/1999/xlink" x="0px" y="0px"
	 width="512px" height="512px" viewBox="0 0 512 512" enable-background="new 0 0 512 512" xml:space="preserve">
<g>
	<linearGradient id="SVGID_1_" gradientUnits="userSpaceOnUse" x1="243.0547" y1="406.1641" x2="470.1054" y2="392.0887">
		<stop  offset="0" style="stop-color:#764B41"/>
		<stop  offset="1" style="stop-color:#684137"/>
	</linearGradient>
	<polygon fill="url(#SVGID_1_)" stroke="#000000" stroke-linejoin="round" stroke-miterlimit="10" points="454.868,323.756 
		451.771,357.537 252.556,474.854 252.228,431.908 353.005,378.129 353.005,378.115 383.283,361.963 	"/>
	<linearGradient id="SVGID_2_" gradientUnits="userSpaceOnUse" x1="305.8252" y1="265.8984" x2="503.2021" y2="295.0906">
		<stop  offset="0" style="stop-color:#764B41"/>
		<stop  offset="1" style="stop-color:#684137"/>
	</linearGradient>
	<polygon fill="url(#SVGID_2_)" stroke="#000000" stroke-linejoin="round" stroke-miterlimit="10" points="489.484,223.008 
		475.895,343.336 451.771,357.537 454.868,323.756 454.868,323.74 462.961,235.719 	"/>
	<linearGradient id="SVGID_3_" gradientUnits="userSpaceOnUse" x1="209.3525" y1="413.3604" x2="414.4109" y2="444.9214">
		<stop  offset="0" style="stop-color:#764B41"/>
		<stop  offset="1" style="stop-color:#684137"/>
	</linearGradient>
	<polygon fill="url(#SVGID_3_)" stroke="#000000" stroke-linejoin="round" stroke-miterlimit="10" points="252.561,474.85 
		214.88,497.04 212.23,355.84 251.51,337.02 252.15,422.15 252.23,431.91 	"/>
	
		<line fill="none" stroke="#000000" stroke-linejoin="round" stroke-miterlimit="10" x1="492.51" y1="196.217" x2="492.51" y2="196.201"/>
	<linearGradient id="SVGID_4_" gradientUnits="userSpaceOnUse" x1="203.1807" y1="285.1465" x2="496.0789" y2="267.2448">
		<stop  offset="0" style="stop-color:#764B41"/>
		<stop  offset="1" style="stop-color:#684137"/>
	</linearGradient>
	<polygon fill="url(#SVGID_4_)" stroke="#000000" stroke-linejoin="round" stroke-miterlimit="10" points="492.51,196.217 
		489.484,223.008 462.961,235.719 453.081,240.457 432.413,250.352 408.168,261.961 388.544,271.377 355.582,287.174 
		347.506,291.033 347.164,291.195 319.938,304.234 286.68,320.164 251.512,337.018 212.232,355.838 211.637,324.217 
		213.276,325.053 	"/>
	
		<line fill="none" stroke="#000000" stroke-linejoin="round" stroke-miterlimit="10" x1="211.637" y1="324.217" x2="211.637" y2="324.172"/>
	<linearGradient id="SVGID_5_" gradientUnits="userSpaceOnUse" x1="24.2852" y1="201.8726" x2="215.9684" y2="340.9971">
		<stop  offset="0" style="stop-color:#777475"/>
		<stop  offset="1" style="stop-color:#A8ABAD"/>
	</linearGradient>
	<polygon fill="url(#SVGID_5_)" stroke="#000000" stroke-linejoin="round" stroke-miterlimit="10" points="213.276,309.719 
		213.276,325.053 211.637,324.217 18.354,226.316 15.716,224.977 13.495,213.561 	"/>
	<linearGradient id="SVGID_6_" gradientUnits="userSpaceOnUse" x1="35.7207" y1="306.2607" x2="182.3192" y2="278.2919">
		<stop  offset="0" style="stop-color:#734B40"/>
		<stop  offset="1" style="stop-color:#815549"/>
	</linearGradient>
	<polygon fill="url(#SVGID_6_)" stroke="#000000" stroke-linejoin="round" stroke-miterlimit="10" points="212.23,355.84 
		169.54,333.48 135.13,314.99 135.13,314.98 100.221,296.22 71.82,280.94 71,280.51 58.88,273.98 23.641,255.05 18.35,226.32 
		211.641,324.22 	"/>
	<linearGradient id="SVGID_7_" gradientUnits="userSpaceOnUse" x1="16.168" y1="204.0571" x2="188.1679" y2="206.7236">
		<stop  offset="0" style="stop-color:#734B40"/>
		<stop  offset="1" style="stop-color:#82564A"/>
	</linearGradient>
	<path fill="url(#SVGID_7_)" stroke="#000000" stroke-linejoin="round" stroke-miterlimit="10" d="M211.101,290.555l-23.842-28.326
		c-0.164-1.877-0.343-3.74-0.581-5.604c-1.416-11.637-4.277-22.918-8.271-33.617c-6.468-17.346-15.944-33.139-27.254-46.402
		c-20.013-23.439-45.777-38.951-70.826-41.008h-0.074c-2.31-0.178-4.604-0.254-6.899-0.209
		c-23.588,0.477-40.844,30.102-43.169,60.783l-13.977,5.289c4.053-41.947,28.997-79.915,61.318-79.915
		c24.333,0,47.132,8.747,66.786,24.14c16.213,12.695,30.28,29.922,41.292,50.486c8.493,15.84,15.169,33.662,19.61,52.928
		C208.269,262.303,210.266,276.176,211.101,290.555z"/>
	<linearGradient id="SVGID_8_" gradientUnits="userSpaceOnUse" x1="21.5293" y1="278.998" x2="208.438" y2="232.019">
		<stop  offset="0" style="stop-color:#777475"/>
		<stop  offset="1" style="stop-color:#A8ABAD"/>
	</linearGradient>
	<path fill="url(#SVGID_8_)" stroke="#000000" stroke-linejoin="round" stroke-miterlimit="10" d="M213.276,309.719L13.495,213.561
		c0-3.77-0.357-7.822,0-11.459l198.768,92.953L213.276,309.719z"/>
	<linearGradient id="SVGID_9_" gradientUnits="userSpaceOnUse" x1="97.9766" y1="136.4551" x2="396.477" y2="70.9549">
		<stop  offset="0" style="stop-color:#AC7360"/>
		<stop  offset="1" style="stop-color:#986352"/>
	</linearGradient>
	<path fill="url(#SVGID_9_)" stroke="#000000" stroke-linejoin="round" stroke-miterlimit="10" d="M420.626,76.216l-276.313,69.47
		c-19.654-15.393-42.453-24.14-66.786-24.14L371.08,63.192C386.264,63.192,403.714,67.827,420.626,76.216z"/>
	<linearGradient id="SVGID_10_" gradientUnits="userSpaceOnUse" x1="167.2441" y1="170.1807" x2="448.5771" y2="78.1807">
		<stop  offset="0" style="stop-color:#A26D5B"/>
		<stop  offset="1" style="stop-color:#8E5D4D"/>
	</linearGradient>
	<path fill="url(#SVGID_10_)" stroke="#000000" stroke-linejoin="round" stroke-miterlimit="10" d="M461.173,105.587
		l-275.568,90.585c-11.012-20.564-25.079-37.791-41.292-50.486l276.313-69.47C435.124,83.415,449.237,93.384,461.173,105.587z"/>
	<linearGradient id="SVGID_11_" gradientUnits="userSpaceOnUse" x1="193.8398" y1="223.2202" x2="476.508" y2="117.8862">
		<stop  offset="0" style="stop-color:#9A6756"/>
		<stop  offset="1" style="stop-color:#865748"/>
	</linearGradient>
	<path fill="url(#SVGID_11_)" stroke="#000000" stroke-linejoin="round" stroke-miterlimit="10" d="M485.879,141.244L205.215,249.1
		c-4.441-19.266-11.117-37.088-19.61-52.928l275.568-90.585C471.336,115.974,479.933,127.968,485.879,141.244z"/>
	<linearGradient id="SVGID_12_" gradientUnits="userSpaceOnUse" x1="204.1367" y1="271.4775" x2="494.8029" y2="152.144">
		<stop  offset="0" style="stop-color:#906050"/>
		<stop  offset="1" style="stop-color:#7D5142"/>
	</linearGradient>
	<path fill="url(#SVGID_12_)" stroke="#000000" stroke-linejoin="round" stroke-miterlimit="10" d="M493.747,168.336
		L211.101,290.555c-0.835-14.379-2.832-28.252-5.886-41.455l280.664-107.855c3.665,8.197,6.318,16.885,7.704,25.959
		C493.643,167.576,493.688,167.963,493.747,168.336z"/>
	<linearGradient id="SVGID_13_" gradientUnits="userSpaceOnUse" x1="490.1729" y1="142.1118" x2="234.7715" y2="349.6893">
		<stop  offset="0" style="stop-color:#777475"/>
		<stop  offset="1" style="stop-color:#A8ABAD"/>
	</linearGradient>
	<polygon fill="url(#SVGID_13_)" stroke="#000000" stroke-linejoin="round" stroke-miterlimit="10" points="498.664,181.434 
		496.592,194.338 492.51,196.217 213.276,325.053 213.276,309.719 	"/>
	<linearGradient id="SVGID_14_" gradientUnits="userSpaceOnUse" x1="27.7217" y1="339.0176" x2="177.8042" y2="281.8431">
		<stop  offset="0" style="stop-color:#734B40"/>
		<stop  offset="1" style="stop-color:#815549"/>
	</linearGradient>
	<polygon fill="url(#SVGID_14_)" stroke="#000000" stroke-linejoin="round" stroke-miterlimit="10" points="77.467,405.594 
		47.724,385.805 23.643,255.045 58.884,273.984 72.653,371.482 	"/>
	<linearGradient id="SVGID_15_" gradientUnits="userSpaceOnUse" x1="89.1777" y1="383.7715" x2="48.0108" y2="246.6966">
		<stop  offset="0" style="stop-color:#AC7360"/>
		<stop  offset="1" style="stop-color:#855849"/>
	</linearGradient>
	<polygon fill="url(#SVGID_15_)" stroke="#000000" stroke-linejoin="round" stroke-miterlimit="10" points="81.505,368.041 
		72.653,371.482 58.884,273.984 70.999,280.512 	"/>
	<linearGradient id="SVGID_16_" gradientUnits="userSpaceOnUse" x1="75.0625" y1="333.3252" x2="103.1697" y2="331.3173">
		<stop  offset="0" style="stop-color:#734B40"/>
		<stop  offset="1" style="stop-color:#815549"/>
	</linearGradient>
	<polygon fill="url(#SVGID_16_)" stroke="#000000" stroke-linejoin="round" stroke-miterlimit="10" points="108.401,384.047 
		81.505,368.041 70.999,280.512 71.818,280.943 100.221,296.217 	"/>
	<linearGradient id="SVGID_17_" gradientUnits="userSpaceOnUse" x1="130.7383" y1="367.5938" x2="178.6089" y2="371.0627">
		<stop  offset="0" style="stop-color:#734B40"/>
		<stop  offset="1" style="stop-color:#815549"/>
	</linearGradient>
	<polygon fill="url(#SVGID_17_)" stroke="#000000" stroke-linejoin="round" stroke-miterlimit="10" points="175.1,423.73 
		142.689,404.45 135.13,314.99 169.54,333.48 	"/>
	<linearGradient id="SVGID_18_" gradientUnits="userSpaceOnUse" x1="67.7207" y1="444.0166" x2="221.3479" y2="385.4918">
		<stop  offset="0" style="stop-color:#734B40"/>
		<stop  offset="1" style="stop-color:#815549"/>
	</linearGradient>
	<polygon fill="url(#SVGID_18_)" stroke="#000000" stroke-linejoin="round" stroke-miterlimit="10" points="178.17,472.6 
		77.529,406.03 77.471,405.59 72.65,371.48 175.7,433.25 	"/>
	<linearGradient id="SVGID_19_" gradientUnits="userSpaceOnUse" x1="100.4443" y1="350.0537" x2="146.5078" y2="350.662">
		<stop  offset="0" style="stop-color:#734B40"/>
		<stop  offset="1" style="stop-color:#815549"/>
	</linearGradient>
	<polygon fill="url(#SVGID_19_)" stroke="#000000" stroke-linejoin="round" stroke-miterlimit="10" points="142.688,404.445 
		108.401,384.047 100.221,296.217 135.135,314.979 135.135,314.994 	"/>
	<linearGradient id="SVGID_20_" gradientUnits="userSpaceOnUse" x1="4.2842" y1="141.7603" x2="123.6357" y2="257.3045">
		<stop  offset="0" style="stop-color:#95979A"/>
		<stop  offset="1" style="stop-color:#E2E3E4"/>
	</linearGradient>
	<polygon fill="url(#SVGID_20_)" stroke="#000000" stroke-linejoin="round" stroke-miterlimit="10" points="212.263,295.055 
		13.495,202.102 16.208,201.461 211.101,290.555 	"/>
	<linearGradient id="SVGID_21_" gradientUnits="userSpaceOnUse" x1="490.9814" y1="279.626" x2="239.2547" y2="205.1252">
		<stop  offset="0" style="stop-color:#777475"/>
		<stop  offset="1" style="stop-color:#A8ABAD"/>
	</linearGradient>
	<polygon fill="url(#SVGID_21_)" stroke="#000000" stroke-linejoin="round" stroke-miterlimit="10" points="498.664,169.617 
		498.664,181.434 213.276,309.719 212.263,295.055 	"/>
	<linearGradient id="SVGID_22_" gradientUnits="userSpaceOnUse" x1="493.583" y1="168.4102" x2="498.6641" y2="168.4102">
		<stop  offset="0" style="stop-color:#777475"/>
		<stop  offset="1" style="stop-color:#A8ABAD"/>
	</linearGradient>
	<path fill="url(#SVGID_22_)" stroke="#000000" stroke-linejoin="round" stroke-miterlimit="10" d="M498.664,169.617l-4.917-1.281
		c-0.06-0.373-0.104-0.76-0.164-1.133L498.664,169.617z"/>
	<linearGradient id="SVGID_23_" gradientUnits="userSpaceOnUse" x1="490.252" y1="138.8027" x2="271.8107" y2="286.1033">
		<stop  offset="0" style="stop-color:#95979A"/>
		<stop  offset="1" style="stop-color:#E2E3E4"/>
	</linearGradient>
	<polygon fill="url(#SVGID_23_)" stroke="#000000" stroke-linejoin="round" stroke-miterlimit="10" points="498.664,169.617 
		212.263,295.055 211.101,290.555 493.747,168.336 	"/>
	<linearGradient id="SVGID_24_" gradientUnits="userSpaceOnUse" x1="122.3389" y1="405.0273" x2="129.0054" y2="395.361">
		<stop  offset="0" style="stop-color:#AC7360"/>
		<stop  offset="1" style="stop-color:#855849"/>
	</linearGradient>
	<polygon fill="url(#SVGID_24_)" stroke="#000000" stroke-linejoin="round" stroke-miterlimit="10" points="175.7,433.25 
		72.65,371.48 81.5,368.04 108.4,384.05 142.689,404.45 175.1,423.73 	"/>
	<linearGradient id="SVGID_25_" gradientUnits="userSpaceOnUse" x1="83.5137" y1="477.1484" x2="217.281" y2="400.985">
		<stop  offset="0" style="stop-color:#734B40"/>
		<stop  offset="1" style="stop-color:#815549"/>
	</linearGradient>
	<polygon fill="url(#SVGID_25_)" stroke="#000000" stroke-linejoin="round" stroke-miterlimit="10" points="214.88,497.04 
		178.17,472.6 175.7,433.25 175.1,423.73 169.54,333.48 212.23,355.84 	"/>
	<linearGradient id="SVGID_26_" gradientUnits="userSpaceOnUse" x1="298.0381" y1="396.7588" x2="300.0987" y2="400.4761">
		<stop  offset="0" style="stop-color:#784D40"/>
		<stop  offset="1" style="stop-color:#986353"/>
	</linearGradient>
	<polygon fill="url(#SVGID_26_)" stroke="#000000" stroke-linejoin="round" stroke-miterlimit="10" points="353.005,378.129 
		252.228,431.908 252.153,422.146 285.592,404.385 318.746,386.787 346.016,372.305 	"/>
	
		<line fill="none" stroke="#000000" stroke-linejoin="round" stroke-miterlimit="10" x1="454.885" y1="323.756" x2="454.868" y2="323.756"/>
	<linearGradient id="SVGID_27_" gradientUnits="userSpaceOnUse" x1="454.7969" y1="230.4595" x2="455.0408" y2="308.667">
		<stop  offset="0" style="stop-color:#7C5143"/>
		<stop  offset="1" style="stop-color:#956252"/>
	</linearGradient>
	<polygon fill="url(#SVGID_27_)" stroke="#000000" stroke-linejoin="round" stroke-miterlimit="10" points="462.961,235.719 
		454.868,323.74 446.928,319.314 453.081,240.457 	"/>
	
		<line fill="none" stroke="#000000" stroke-linejoin="round" stroke-miterlimit="10" x1="454.885" y1="323.756" x2="454.868" y2="323.756"/>
	<linearGradient id="SVGID_28_" gradientUnits="userSpaceOnUse" x1="244.0713" y1="373.7031" x2="293.1432" y2="368.7682">
		<stop  offset="0" style="stop-color:#764B41"/>
		<stop  offset="0.4404" style="stop-color:#72483E"/>
		<stop  offset="1" style="stop-color:#684137"/>
	</linearGradient>
	<polygon fill="url(#SVGID_28_)" stroke="#000000" stroke-linejoin="round" stroke-miterlimit="10" points="286.68,320.164 
		285.592,404.385 252.153,422.146 251.512,337.018 	"/>
	<linearGradient id="SVGID_29_" gradientUnits="userSpaceOnUse" x1="280.6357" y1="359.0723" x2="325.9489" y2="349.3171">
		<stop  offset="0" style="stop-color:#764B41"/>
		<stop  offset="0.4404" style="stop-color:#72483E"/>
		<stop  offset="1" style="stop-color:#684137"/>
	</linearGradient>
	<polygon fill="url(#SVGID_29_)" stroke="#000000" stroke-linejoin="round" stroke-miterlimit="10" points="319.938,304.234 
		318.746,386.787 285.592,404.385 286.68,320.164 	"/>
	<linearGradient id="SVGID_30_" gradientUnits="userSpaceOnUse" x1="312.7197" y1="342.0605" x2="358.1373" y2="335.0462">
		<stop  offset="0" style="stop-color:#764B41"/>
		<stop  offset="0.4404" style="stop-color:#72483E"/>
		<stop  offset="1" style="stop-color:#684137"/>
	</linearGradient>
	<polygon fill="url(#SVGID_30_)" stroke="#000000" stroke-linejoin="round" stroke-miterlimit="10" points="347.506,291.033 
		346.016,372.305 318.746,386.787 319.938,304.234 347.164,291.195 	"/>
	<linearGradient id="SVGID_31_" gradientUnits="userSpaceOnUse" x1="349.1855" y1="285.958" x2="352.4636" y2="374.9943">
		<stop  offset="0" style="stop-color:#7C5143"/>
		<stop  offset="1" style="stop-color:#956252"/>
	</linearGradient>
	<polygon fill="url(#SVGID_31_)" stroke="#000000" stroke-linejoin="round" stroke-miterlimit="10" points="355.582,287.174 
		353.005,378.115 353.005,378.129 346.016,372.305 347.506,291.033 	"/>
	<linearGradient id="SVGID_32_" gradientUnits="userSpaceOnUse" x1="262.0391" y1="329.0732" x2="494.4582" y2="319.8253">
		<stop  offset="0" style="stop-color:#764B41"/>
		<stop  offset="1" style="stop-color:#684137"/>
	</linearGradient>
	<polygon fill="url(#SVGID_32_)" stroke="#000000" stroke-linejoin="round" stroke-miterlimit="10" points="388.544,271.377 
		383.851,352.275 383.283,361.963 353.005,378.115 355.582,287.174 	"/>
	<linearGradient id="SVGID_33_" gradientUnits="userSpaceOnUse" x1="381.9551" y1="309.1006" x2="412.9838" y2="304.7234">
		<stop  offset="0" style="stop-color:#764B41"/>
		<stop  offset="0.4404" style="stop-color:#72483E"/>
		<stop  offset="1" style="stop-color:#684137"/>
	</linearGradient>
	<polygon fill="url(#SVGID_33_)" stroke="#000000" stroke-linejoin="round" stroke-miterlimit="10" points="408.168,261.961 
		403.967,341.771 383.851,352.275 388.544,271.377 	"/>
	<linearGradient id="SVGID_34_" gradientUnits="userSpaceOnUse" x1="403.3906" y1="297.5879" x2="434.4355" y2="294.3864">
		<stop  offset="0" style="stop-color:#764B41"/>
		<stop  offset="0.4404" style="stop-color:#72483E"/>
		<stop  offset="1" style="stop-color:#684137"/>
	</linearGradient>
	<polygon fill="url(#SVGID_34_)" stroke="#000000" stroke-linejoin="round" stroke-miterlimit="10" points="432.413,250.352 
		427.184,329.627 403.967,341.771 408.168,261.961 	"/>
	<linearGradient id="SVGID_35_" gradientUnits="userSpaceOnUse" x1="414.7754" y1="335.0918" x2="417.7592" y2="340.4747">
		<stop  offset="0" style="stop-color:#784D40"/>
		<stop  offset="1" style="stop-color:#986353"/>
	</linearGradient>
	<polygon fill="url(#SVGID_35_)" stroke="#000000" stroke-linejoin="round" stroke-miterlimit="10" points="454.868,323.74 
		454.868,323.756 383.283,361.963 383.851,352.275 403.967,341.771 427.184,329.627 446.928,319.314 	"/>
	<linearGradient id="SVGID_36_" gradientUnits="userSpaceOnUse" x1="427.79" y1="288.8291" x2="456.2833" y2="280.0845">
		<stop  offset="0" style="stop-color:#764B41"/>
		<stop  offset="0.4404" style="stop-color:#72483E"/>
		<stop  offset="1" style="stop-color:#684137"/>
	</linearGradient>
	<polygon fill="url(#SVGID_36_)" stroke="#000000" stroke-linejoin="round" stroke-miterlimit="10" points="453.081,240.457 
		446.928,319.314 427.184,329.627 432.413,250.352 	"/>
	
		<line fill="none" stroke="#000000" stroke-linejoin="round" stroke-miterlimit="10" x1="205.215" y1="249.1" x2="205.199" y2="249.1"/>
	
		<line fill="none" stroke="#000000" stroke-linejoin="round" stroke-miterlimit="10" x1="185.604" y1="196.172" x2="185.59" y2="196.172"/>
	<linearGradient id="SVGID_37_" gradientUnits="userSpaceOnUse" x1="84.0195" y1="165.2881" x2="124.5198" y2="152.788">
		<stop  offset="0" style="stop-color:#734B40"/>
		<stop  offset="1" style="stop-color:#946255"/>
	</linearGradient>
	<path fill="url(#SVGID_37_)" stroke="#000000" stroke-linejoin="round" stroke-miterlimit="10" d="M151.153,176.605l-90.779-33.303
		c5.871-4.709,12.606-7.541,19.879-7.705h0.074C105.376,137.654,131.141,153.166,151.153,176.605z"/>
	<linearGradient id="SVGID_38_" gradientUnits="userSpaceOnUse" x1="21.4053" y1="192.6167" x2="77.5479" y2="134.5639">
		<stop  offset="0" style="stop-color:#AC7360"/>
		<stop  offset="1" style="stop-color:#684137"/>
	</linearGradient>
	<path fill="url(#SVGID_38_)" stroke="#000000" stroke-linejoin="round" stroke-miterlimit="10" d="M80.253,135.598
		c-7.272,0.164-14.008,2.996-19.879,7.705h-0.015c-6.988,5.588-12.8,13.783-16.927,23.186c-3.651,8.285-6.021,17.51-6.766,26.717
		l-6.482,2.967c2.325-30.682,19.581-60.307,43.169-60.783C75.648,135.344,77.943,135.42,80.253,135.598z"/>
	<linearGradient id="SVGID_39_" gradientUnits="userSpaceOnUse" x1="63.25" y1="201.3916" x2="131.6183" y2="179.181">
		<stop  offset="0" style="stop-color:#734B40"/>
		<stop  offset="1" style="stop-color:#946255"/>
	</linearGradient>
	<path fill="url(#SVGID_39_)" stroke="#000000" stroke-linejoin="round" stroke-miterlimit="10" d="M178.407,223.008l-134.975-56.52
		c4.127-9.402,9.938-17.598,16.927-23.186h0.015l90.779,33.303C162.463,189.869,171.939,205.662,178.407,223.008z"/>
	<linearGradient id="SVGID_40_" gradientUnits="userSpaceOnUse" x1="97.3799" y1="237.8027" x2="126.7973" y2="194.1214">
		<stop  offset="0" style="stop-color:#734B40"/>
		<stop  offset="1" style="stop-color:#946255"/>
	</linearGradient>
	<path fill="url(#SVGID_40_)" stroke="#000000" stroke-linejoin="round" stroke-miterlimit="10" d="M186.678,256.625l-150.011-63.42
		c0.745-9.207,3.114-18.432,6.766-26.717l134.975,56.52C182.4,233.707,185.262,244.988,186.678,256.625z"/>
	<path fill="none" stroke="#000000" stroke-linejoin="round" stroke-miterlimit="10" d="M187.303,262.809
		c-0.015-0.193-0.029-0.387-0.044-0.58"/>
	<linearGradient id="SVGID_41_" gradientUnits="userSpaceOnUse" x1="109.0723" y1="228.374" x2="110.5487" y2="224.8959">
		<stop  offset="0" style="stop-color:#AC7360"/>
		<stop  offset="1" style="stop-color:#855849"/>
	</linearGradient>
	<path fill="url(#SVGID_41_)" stroke="#000000" stroke-linejoin="round" stroke-miterlimit="10" d="M187.259,262.229L30.185,196.172
		l6.482-2.967l150.011,63.42C186.916,258.488,187.095,260.352,187.259,262.229z"/>
	<linearGradient id="SVGID_42_" gradientUnits="userSpaceOnUse" x1="15.584" y1="241.7344" x2="187.5839" y2="244.4009">
		<stop  offset="0" style="stop-color:#734B40"/>
		<stop  offset="1" style="stop-color:#82564A"/>
	</linearGradient>
	<polygon fill="url(#SVGID_42_)" stroke="#000000" stroke-linejoin="round" stroke-miterlimit="10" points="211.101,290.555 
		16.208,201.461 30.185,196.172 187.259,262.229 	"/>
	
		<line fill="none" stroke="#000000" stroke-linejoin="round" stroke-miterlimit="10" x1="43.433" y1="166.488" x2="43.417" y2="166.488"/>
	
		<line fill="none" stroke="#000000" stroke-linejoin="round" stroke-miterlimit="10" x1="151.183" y1="176.621" x2="151.153" y2="176.605"/>
</g>
</svg>
