<?xml version="1.0" encoding="utf-8"?>
<!-- Generator: Adobe Illustrator 16.0.0, SVG Export Plug-In . SVG Version: 6.00 Build 0)  -->
<!DOCTYPE svg PUBLIC "-//W3C//DTD SVG 1.1//EN" "http://www.w3.org/Graphics/SVG/1.1/DTD/svg11.dtd">
<svg version="1.1" id="Layer_1" xmlns="http://www.w3.org/2000/svg" xmlns:xlink="http://www.w3.org/1999/xlink" x="0px" y="0px"
	 width="1024px" height="1024px" viewBox="0 0 1024 1024" enable-background="new 0 0 1024 1024" xml:space="preserve">
<g id="Layer_2">
	<g>
		<g>
			
				<radialGradient id="SVGID_1_" cx="-11.3284" cy="268.2322" r="142.378" fx="58.7296" fy="289.3008" gradientTransform="matrix(1 0 0 -1.1769 214.3999 1149.7491)" gradientUnits="userSpaceOnUse">
				<stop  offset="0.1468" style="stop-color:#2F74AA"/>
				<stop  offset="0.2717" style="stop-color:#2E71A6"/>
				<stop  offset="0.4363" style="stop-color:#2C6C9E"/>
				<stop  offset="0.6228" style="stop-color:#276290"/>
				<stop  offset="0.824" style="stop-color:#1F537C"/>
				<stop  offset="1" style="stop-color:#144367"/>
			</radialGradient>
			
				<path fill="url(#SVGID_1_)" stroke="#231F20" stroke-width="4.98" stroke-linecap="round" stroke-linejoin="round" stroke-miterlimit="10" d="
				M207.918,846.032c-11.912,31.725-61.203,42.113-92.212,30.817c-21.271-7.729-33.813-26.075-38.374-46.942c0,0,0-0.01,0-0.02
				c-1.324-6.064-1.981-12.34-1.981-18.634c0-6.765,0.756-13.557,2.25-20.121c0.788-3.445,1.773-6.821,2.959-10.107
				c14.103-39.044,70.545-68.068,114.699-57.72l15.438,73.206C215.179,812.696,213.506,831.134,207.918,846.032z"/>
			
				<path fill="none" stroke="#231F20" stroke-width="4.98" stroke-linecap="round" stroke-linejoin="round" stroke-miterlimit="10" d="
				M163.606,821.531c-2.71,7.499-10.986,11.385-18.497,8.676c-9.373-3.388-14.231-13.732-10.845-23.115
				c4.231-11.725,17.171-17.79,28.894-13.557c14.65,5.299,22.239,21.463,16.951,36.114c-6.613,18.315-26.832,27.799-45.148,21.186
				c-22.897-8.269-34.75-33.533-26.483-56.435c10.339-28.615,41.921-43.436,70.547-33.104c17.479,6.321,27.391,19.739,31.673,35.217
				"/>
			
				<linearGradient id="SVGID_2_" gradientUnits="userSpaceOnUse" x1="-222.9968" y1="930.3552" x2="1086.7335" y2="-74.6364" gradientTransform="matrix(1 0 0 -1 214.3999 1116.0991)">
				<stop  offset="0.1468" style="stop-color:#2F74AA"/>
				<stop  offset="0.2717" style="stop-color:#2E71A6"/>
				<stop  offset="0.4363" style="stop-color:#2C6C9E"/>
				<stop  offset="0.6228" style="stop-color:#276290"/>
				<stop  offset="0.824" style="stop-color:#1F537C"/>
				<stop  offset="1" style="stop-color:#144367"/>
			</linearGradient>
			
				<path fill="url(#SVGID_2_)" stroke="#231F20" stroke-width="4.98" stroke-linecap="round" stroke-linejoin="round" stroke-miterlimit="10" d="
				M950.873,634.354c-8.155,48.704-131.938,95.966-173.713,113.185c-96.145,39.652-207.127,62.002-354.217,62.581
				c-109.949,0.418-150.715-48.646-211.042-80.637c-5.249-2.778-10.837-4.821-16.644-6.177
				c-44.154-10.35-100.598,18.676-114.699,57.72c-1.186,3.286-2.171,6.662-2.959,10.107c-1.494,6.564-2.25,13.356-2.25,20.121
				c0.529-68.446-13.478-508.461,15.945-589.9c13.089-36.215,86.573-75.599,171.959-43.824
				c80.694,30.029,162.728,48.046,252.397,38.713c95.314-9.919,104.738-25.378,129.279-41.015c0,0-3.299-6.543-3.396-6.732
				c-1.516-3.05-2.063-6.594-1.307-10.188c2.221-10.6,12.619-17.383,23.207-15.151c6.852,1.437,12.508,6.047,15.824,11.556
				l265.524,447.971C950.425,611.725,952.778,622.939,950.873,634.354z"/>
			
				<path fill="none" stroke="#231F20" stroke-width="4.98" stroke-linecap="round" stroke-linejoin="round" stroke-miterlimit="10" d="
				M886.987,617.663c2.03-9.62,11.473-15.779,21.094-13.754c12.027,2.524,19.725,14.325,17.2,26.341
				c-3.155,15.033-17.898,24.668-32.944,21.511c-10.846-2.274-19.813-10.054-24.385-19.272"/>
			
				<path fill="none" stroke="#231F20" stroke-width="4.98" stroke-linecap="round" stroke-linejoin="round" stroke-miterlimit="10" d="
				M644.933,175.228l223.02,457.26c-3.103-6.255-4.204-13.561-2.659-20.92c4.584-21.792,25.95-35.729,47.729-31.159
				c13.855,2.904,24.893,11.201,31.768,22.272"/>
		</g>
		
			<path fill="#6AB3E3" stroke="#9FE2FF" stroke-width="3.32" stroke-linecap="round" stroke-linejoin="round" stroke-miterlimit="10" d="
			M300.672,665.35l-18.509-129.034l178.916-122.429l249.478,110.976L755.245,629.5c0,0-195.04-71.765-261.862-95.628
			C426.313,579.303,300.672,665.35,300.672,665.35z"/>
		
			<path fill="#6AB3E3" stroke="#9FE2FF" stroke-width="3.32" stroke-linecap="round" stroke-linejoin="round" stroke-miterlimit="10" d="
			M276.524,482.104l-4.497-49.77l160.26-119.609l235.679,108.083l21.555,52.58c0,0-185.106-84.086-241.98-109.516
			C384.229,405.499,276.524,482.104,276.524,482.104z"/>
		<g>
			
				<path fill="none" stroke="#9FE2FF" stroke-width="1.33" stroke-linecap="round" stroke-linejoin="round" stroke-miterlimit="10" d="
				M263.797,279c-1.993,42.496,19.385,329.902,43.953,416.888"/>
			
				<path fill="none" stroke="#9FE2FF" stroke-width="1.33" stroke-linecap="round" stroke-linejoin="round" stroke-miterlimit="10" d="
				M342.941,298.15c1.329,30.543,67.064,353.912,77.688,413.672"/>
			
				<path fill="none" stroke="#9FE2FF" stroke-width="1.33" stroke-linecap="round" stroke-linejoin="round" stroke-miterlimit="10" d="
				M420.629,282.349c22.576,40.505,95.616,361.746,124.168,417.521"/>
			
				<path fill="none" stroke="#9FE2FF" stroke-width="1.33" stroke-linecap="round" stroke-linejoin="round" stroke-miterlimit="10" d="
				M522.887,310.767c15.935,19.256,108.896,339.302,134.128,364.535"/>
			
				<path fill="none" stroke="#9FE2FF" stroke-width="1.33" stroke-linecap="round" stroke-linejoin="round" stroke-miterlimit="10" d="
				M619.565,312.726c15.803,18.438,123.072,299.383,140.369,325.392c0.145,0.219,8.736,21.551,8.865,21.731"/>
			
				<path fill="none" stroke="#9FE2FF" stroke-width="1.33" stroke-linecap="round" stroke-linejoin="round" stroke-miterlimit="10" d="
				M263.797,699.643c28.187-54.553,368.711-222.662,397.734-320.049"/>
			
				<path fill="none" stroke="#9FE2FF" stroke-width="1.33" stroke-linecap="round" stroke-linejoin="round" stroke-miterlimit="10" d="
				M805.956,634.836c-21.413,31.374-485.24-197.14-569.049-166.665"/>
			
				<path fill="none" stroke="#9FE2FF" stroke-width="1.33" stroke-linecap="round" stroke-linejoin="round" stroke-miterlimit="10" d="
				M228.071,533.871c24.899-64.587,346.979-234.893,359.224-277.554"/>
			
				<path fill="none" stroke="#9FE2FF" stroke-width="1.33" stroke-linecap="round" stroke-linejoin="round" stroke-miterlimit="10" d="
				M251.897,572.809c27.896-58.298,358.5-242.31,365.001-271.366"/>
			
				<path fill="none" stroke="#9FE2FF" stroke-width="1.33" stroke-linecap="round" stroke-linejoin="round" stroke-miterlimit="10" d="
				M736.897,476.94c-27.254,8.888-46.039-0.497-149.604-49.922C485.656,378.513,295.854,297.286,278.897,293"/>
			
				<path fill="none" stroke="#9FE2FF" stroke-width="1.33" stroke-linecap="round" stroke-linejoin="round" stroke-miterlimit="10" d="
				M758.897,528c-26.5,32-416.226-194.363-507-191"/>
			
				<path fill="none" stroke="#9FE2FF" stroke-width="1.33" stroke-linecap="round" stroke-linejoin="round" stroke-miterlimit="10" d="
				M726.593,430.932c-32.41,20.735-291.027-132.781-377.694-148.583"/>
			
				<path fill="none" stroke="#9FE2FF" stroke-width="1.33" stroke-linecap="round" stroke-linejoin="round" stroke-miterlimit="10" d="
				M261.104,649.668c112.347,58.764,360.145,51.64,530.461-38"/>
			
				<path fill="none" stroke="#9FE2FF" stroke-width="1.33" stroke-linecap="round" stroke-linejoin="round" stroke-miterlimit="10" d="
				M247.397,282.349c39.046,2.988,72.285,22.591,184.89,30.377c101.046,6.984,103.278-5.227,187.278-21.227"/>
			
				<path fill="none" stroke="#9FE2FF" stroke-width="1.33" stroke-linecap="round" stroke-linejoin="round" stroke-miterlimit="10" d="
				M498.897,276.24C477.403,273.608,222.231,460,222.231,480.269"/>
		</g>
	</g>
</g>
</svg>
