<?xml version="1.0" encoding="utf-8"?>
<!-- Generator: Adobe Illustrator 16.0.0, SVG Export Plug-In . SVG Version: 6.00 Build 0)  -->
<!DOCTYPE svg PUBLIC "-//W3C//DTD SVG 1.1//EN" "http://www.w3.org/Graphics/SVG/1.1/DTD/svg11.dtd">
<svg version="1.1" id="Layer_1" xmlns="http://www.w3.org/2000/svg" xmlns:xlink="http://www.w3.org/1999/xlink" x="0px" y="0px"
	 width="116.496px" height="51.994px" viewBox="0 0 116.496 51.994" enable-background="new 0 0 116.496 51.994"
	 xml:space="preserve">
<g id="Coin_Slot">
	<g>
		
			<linearGradient id="SVGID_1_" gradientUnits="userSpaceOnUse" x1="-259.1987" y1="101.457" x2="-33.6913" y2="101.457" gradientTransform="matrix(1 0 0 -1 214.3999 144.0938)">
			<stop  offset="0" style="stop-color:#AFAFAD"/>
			<stop  offset="1" style="stop-color:#555655"/>
		</linearGradient>
		<path fill="url(#SVGID_1_)" d="M1.268,51.724l3.221-11.596L6.33,33.55h48.207l16.814,7.045c0.033,0.014,0.068,0.021,0.104,0.021
			s0.07-0.008,0.104-0.021l16.836-7.045h22.617l5.127,18.174H1.268z"/>
		<path d="M110.809,33.821l4.975,17.633H1.623L4.748,40.2l1.785-6.379h47.949l16.764,7.023c0.066,0.027,0.139,0.041,0.209,0.041
			s0.143-0.014,0.207-0.041l16.785-7.023H110.809 M111.217,33.28H88.34l-16.885,7.064L54.592,33.28H6.125l-1.896,6.773L0.912,51.991
			h115.584L111.217,33.28L111.217,33.28z"/>
	</g>
	<g>
		
			<linearGradient id="SVGID_2_" gradientUnits="userSpaceOnUse" x1="-143.1812" y1="127.6885" x2="-97.2495" y2="127.6885" gradientTransform="matrix(1 0 0 -1 214.3999 144.0938)">
			<stop  offset="0" style="stop-color:#AFAFAD"/>
			<stop  offset="1" style="stop-color:#555655"/>
		</linearGradient>
		<polygon fill="url(#SVGID_2_)" points="85.984,28.78 85.984,15.592 100.822,4.031 107.658,28.78 		"/>
		<path d="M100.67,4.492l6.635,24.019H86.256V15.724l5.359-4.178L100.67,4.492 M100.975,3.57l-9.691,7.55l-5.566,4.34v13.591h22.299
			L100.975,3.57L100.975,3.57z"/>
	</g>
	<g>
		
			<linearGradient id="SVGID_3_" gradientUnits="userSpaceOnUse" x1="-192.8071" y1="127.6885" x2="-150.836" y2="127.6885" gradientTransform="matrix(1 0 0 -1 214.3999 144.0938)">
			<stop  offset="0" style="stop-color:#AFAFAD"/>
			<stop  offset="1" style="stop-color:#555655"/>
		</linearGradient>
		<polygon fill="url(#SVGID_3_)" points="30.779,28.78 32.354,23.152 37.686,4.03 49.059,12.894 51.18,14.533 52.525,15.591 
			52.525,28.78 		"/>
		<path d="M37.838,4.491l11.057,8.616l2.115,1.637l1.246,0.979v12.788H31.137l1.479-5.286L37.838,4.491 M37.533,3.57L32.094,23.08
			l-1.67,5.972h22.371V15.46l-1.451-1.141l-2.119-1.64L37.533,3.57L37.533,3.57z"/>
	</g>
	<g>
		<polygon fill="#231F20" points="0.148,42.624 4.914,25.578 5.977,33.302 4.084,40.015 0.982,51.177 		"/>
		<path d="M4.865,26.318l0.953,6.943l-1.879,6.715L1.055,50.36l-0.752-7.695L4.865,26.318 M4.965,24.842L0,42.64l0.912,9.354
			l3.316-11.938l1.895-6.775L4.965,24.842L4.965,24.842z"/>
	</g>
	<g>
		<path fill="#AFAFAD" d="M6.256,33.13l-1.119-8.138h23.949l1.193,4.099c0.02,0.064,0.078,0.107,0.145,0.107h22.266l1.676,3.932
			H6.256z"/>
		<path d="M28.973,25.142l1.164,3.992c0.037,0.127,0.152,0.215,0.287,0.215h22.168l1.547,3.633H6.387l-1.078-7.839H28.973
			 M29.197,24.842H4.965l1.16,8.438h48.467l-1.803-4.23H30.424L29.197,24.842L29.197,24.842z"/>
	</g>
	<g>
		<polygon fill="#231F20" points="29.338,24.799 36.146,0.469 37.395,3.625 31.949,23.039 30.422,28.505 		"/>
		<path d="M36.172,0.94l0.412,1.041l0.633,1.606L31.805,23l-1.387,4.962l-0.912-3.122L36.172,0.94 M36.123,0l-6.93,24.841l1.23,4.21
			l1.67-5.972L37.531,3.57l-0.67-1.699L36.123,0L36.123,0z"/>
	</g>
	<g>
		<polygon fill="#757576" points="51.436,14.201 49.316,12.562 37.625,3.452 37.004,1.816 36.467,0.458 50.893,11.73 51.639,13.363 
			52.389,14.949 		"/>
		<path d="M36.809,0.916l13.936,10.887l0.76,1.625l0.477,1.011l-0.451-0.355l-2.119-1.639L37.783,3.384L37.145,1.76L36.809,0.916
			 M36.123,0l0.74,1.871l0.67,1.699l11.691,9.111l2.119,1.639l1.451,1.142l-1.021-2.16l-0.789-1.688L36.123,0L36.123,0z"/>
	</g>
	<g>
		<polygon fill="#828282" points="83.268,11.642 97.918,0.203 98.898,1.367 100.76,3.548 85.748,15.244 		"/>
		<path d="M97.896,0.41l0.889,1.055l1.758,2.061L91.1,10.884l-5.318,4.145l-1.398-2.027l-0.91-1.327L97.896,0.41 M97.943,0h-0.01
			l-14.869,11.61l1.07,1.56l1.58,2.29l5.566-4.34l9.691-7.55l-1.961-2.3L97.943,0L97.943,0z"/>
	</g>
	<g>
		<polygon fill="#7B7B7B" points="54.707,33.165 52.934,28.991 52.943,27.45 67.805,33.46 71.137,40.056 		"/>
		<path d="M53.096,27.675l14.6,5.902l3.123,6.182l-15.996-6.707l-1.727-4.063V27.675 M52.795,27.229v1.822l1.799,4.229l16.859,7.07
			l-3.541-7.01L52.795,27.229L52.795,27.229z"/>
	</g>
	<g>
		<polygon fill="#9D9D9D" points="68.117,33.417 84.074,26.728 88.123,33.21 71.523,40.157 		"/>
		<path d="M84.016,26.915l3.887,6.225l-16.307,6.826l-3.271-6.473l14.855-6.229L84.016,26.915 M84.135,26.54l-1.07,0.449
			l-15.152,6.352l3.541,7.01l16.893-7.07L84.135,26.54L84.135,26.54z"/>
	</g>
	<g>
		<path fill="#231F20" d="M84.262,26.46c-0.027-0.045-0.076-0.07-0.127-0.07c-0.02,0-0.039,0.004-0.059,0.012l-0.861,0.363v-14.67
			l2.377,3.451l-0.025,12.987L84.262,26.46z"/>
		<path d="M83.363,12.578l0.523,0.763l1.527,2.214v12.457l-1.025-1.63c-0.059-0.09-0.154-0.141-0.254-0.141
			c-0.039,0-0.078,0.008-0.117,0.023l-0.654,0.273V12.578 M83.064,11.611v15.378l1.07-0.449l1.58,2.512V15.46l-1.58-2.29
			L83.064,11.611L83.064,11.611z"/>
	</g>
	<g>
		<polygon fill="#AFAFAD" points="88.424,33.13 85.98,29.198 107.936,29.198 110.914,33.13 		"/>
		<path d="M107.859,29.349l2.754,3.633H88.508l-2.258-3.633H107.859 M108.01,29.05H85.711l2.629,4.23h22.877L108.01,29.05
			L108.01,29.05z"/>
	</g>
</g>
</svg>
