<?xml version="1.0" encoding="utf-8"?>
<!-- Generator: Adobe Illustrator 16.0.0, SVG Export Plug-In . SVG Version: 6.00 Build 0)  -->
<!DOCTYPE svg PUBLIC "-//W3C//DTD SVG 1.1//EN" "http://www.w3.org/Graphics/SVG/1.1/DTD/svg11.dtd">
<svg version="1.1" id="Layer_1" xmlns="http://www.w3.org/2000/svg" xmlns:xlink="http://www.w3.org/1999/xlink" x="0px" y="0px"
	 width="116.496px" height="51.994px" viewBox="0 0 116.496 51.994" enable-background="new 0 0 116.496 51.994"
	 xml:space="preserve">
<g id="Coin_Slot">
	<g>
		<linearGradient id="SVGID_1_" gradientUnits="userSpaceOnUse" x1="490.8691" y1="58.6699" x2="716.3766" y2="58.6699">
			<stop  offset="0" style="stop-color:#AFAFAD"/>
			<stop  offset="1" style="stop-color:#555655"/>
		</linearGradient>
		<path fill="url(#SVGID_1_)" d="M536.936,67.757l3.221-11.597l1.842-6.577h48.207l16.813,7.045
			c0.033,0.014,0.069,0.021,0.104,0.021s0.071-0.007,0.104-0.021l16.835-7.045h22.618l5.127,18.174H536.936z"/>
		<path d="M646.476,49.854l4.975,17.633H537.291l3.125-11.253l1.786-6.38h47.949l16.763,7.023c0.067,0.028,0.138,0.042,0.209,0.042
			s0.142-0.014,0.208-0.042l16.785-7.023H646.476 M646.885,49.313h-22.877l-16.885,7.065l-16.863-7.065h-48.467l-1.896,6.774
			l-3.316,11.938h115.584L646.885,49.313L646.885,49.313z"/>
	</g>
	<g>
		<linearGradient id="SVGID_2_" gradientUnits="userSpaceOnUse" x1="606.8867" y1="32.4395" x2="652.8184" y2="32.4395">
			<stop  offset="0" style="stop-color:#AFAFAD"/>
			<stop  offset="1" style="stop-color:#555655"/>
		</linearGradient>
		<polygon fill="url(#SVGID_2_)" points="621.652,44.814 621.652,31.625 636.49,20.064 643.327,44.814 		"/>
		<path d="M636.337,20.525l6.636,24.019h-21.05V31.757l5.36-4.178L636.337,20.525 M636.643,19.603l-9.691,7.55l-5.568,4.34v13.591
			h22.299L636.643,19.603L636.643,19.603z"/>
	</g>
	<g>
		<linearGradient id="SVGID_3_" gradientUnits="userSpaceOnUse" x1="557.2607" y1="32.4385" x2="599.2318" y2="32.4385">
			<stop  offset="0" style="stop-color:#AFAFAD"/>
			<stop  offset="1" style="stop-color:#555655"/>
		</linearGradient>
		<polygon fill="url(#SVGID_3_)" points="566.447,44.814 568.021,39.185 573.354,20.063 584.727,28.927 586.847,30.566 
			588.193,31.624 588.193,44.814 		"/>
		<path d="M573.505,20.524l11.058,8.616l2.115,1.637l1.245,0.979v12.788h-21.119l1.479-5.286L573.505,20.524 M573.201,19.603
			l-5.439,19.509l-1.67,5.972h22.371V31.493l-1.451-1.141l-2.119-1.639L573.201,19.603L573.201,19.603z"/>
	</g>
	<g>
		<polygon fill="#231F20" points="535.817,58.657 540.583,41.611 541.645,49.334 539.752,56.048 536.651,67.21 		"/>
		<path d="M540.533,42.35l0.954,6.943l-1.88,6.715l-2.885,10.386l-0.751-7.695L540.533,42.35 M540.633,40.875l-4.965,17.797
			l0.912,9.354l3.316-11.938l1.896-6.774L540.633,40.875L540.633,40.875z"/>
	</g>
	<g>
		<path fill="#AFAFAD" d="M541.924,49.163l-1.119-8.138h23.948l1.195,4.099c0.019,0.064,0.077,0.108,0.144,0.108h22.266l1.676,3.931
			H541.924z"/>
		<path d="M564.641,41.175l1.163,3.991c0.037,0.128,0.154,0.216,0.288,0.216h22.167l1.547,3.632h-47.751l-1.078-7.839H564.641
			 M564.865,40.875h-24.232l1.16,8.438h48.467l-1.803-4.231h-22.365L564.865,40.875L564.865,40.875z"/>
	</g>
	<g>
		<polygon fill="#231F20" points="565.005,40.832 571.815,16.502 573.062,19.658 567.617,39.072 566.089,44.538 		"/>
		<path d="M571.84,16.973l0.412,1.041l0.633,1.606l-5.412,19.412l-1.387,4.962l-0.912-3.121L571.84,16.973 M571.791,16.033
			l-6.93,24.841l1.23,4.21l1.67-5.972l5.439-19.509l-0.67-1.699L571.791,16.033L571.791,16.033z"/>
	</g>
	<g>
		<polygon fill="#757576" points="587.104,30.234 584.984,28.595 573.293,19.485 572.671,17.849 572.134,16.491 586.56,27.762 
			587.306,29.396 588.056,30.982 		"/>
		<path d="M572.477,16.949l13.935,10.887l0.759,1.625l0.478,1.01l-0.452-0.355l-2.118-1.638l-11.627-9.061l-0.64-1.624
			L572.477,16.949 M571.791,16.033l0.74,1.871l0.67,1.699l11.691,9.111l2.119,1.639l1.451,1.141l-1.021-2.16l-0.789-1.689
			L571.791,16.033L571.791,16.033z"/>
	</g>
	<g>
		<polygon fill="#828282" points="618.936,27.675 633.586,16.236 634.567,17.4 636.427,19.581 621.416,31.277 		"/>
		<path d="M633.564,16.443l0.889,1.055l1.758,2.061l-9.444,7.358l-5.317,4.145l-1.399-2.028l-0.91-1.327L633.564,16.443
			 M633.611,16.033h-0.01l-14.869,11.61l1.07,1.56l1.58,2.29l5.568-4.34l9.691-7.55l-1.961-2.3L633.611,16.033L633.611,16.033z"/>
	</g>
	<g>
		<polygon fill="#7B7B7B" points="590.376,49.198 588.601,45.025 588.611,43.484 603.472,49.492 606.804,56.088 		"/>
		<path d="M588.763,43.708l14.601,5.902l3.123,6.182l-15.996-6.708l-1.728-4.062V43.708 M588.463,43.263v1.821l1.799,4.229
			l16.859,7.07l-3.541-7.01L588.463,43.263L588.463,43.263z"/>
	</g>
	<g>
		<polygon fill="#9D9D9D" points="603.786,49.45 619.743,42.761 623.791,49.243 607.192,56.191 		"/>
		<path d="M619.684,42.948l3.887,6.225l-16.308,6.826l-3.27-6.473l14.855-6.228L619.684,42.948 M619.803,42.573l-1.07,0.449
			l-15.152,6.352l3.541,7.01l16.891-7.07L619.803,42.573L619.803,42.573z"/>
	</g>
	<g>
		<path fill="#231F20" d="M619.93,42.493c-0.028-0.045-0.077-0.07-0.127-0.07c-0.02,0-0.039,0.004-0.058,0.012l-0.862,0.362v-14.67
			l2.377,3.451l-0.026,12.987L619.93,42.493z"/>
		<path d="M619.032,28.611l0.523,0.762l1.527,2.214v12.457l-1.026-1.631c-0.057-0.089-0.153-0.14-0.254-0.14
			c-0.039,0-0.078,0.008-0.116,0.023l-0.654,0.274V28.611 M618.732,27.644v15.379l1.07-0.449l1.58,2.511V31.493l-1.58-2.29
			L618.732,27.644L618.732,27.644z"/>
	</g>
	<g>
		<polygon fill="#AFAFAD" points="624.091,49.163 621.648,45.232 643.604,45.232 646.583,49.163 		"/>
		<path d="M643.528,45.382l2.753,3.632h-22.106l-2.257-3.632H643.528 M643.678,45.082h-22.299l2.629,4.231h22.877L643.678,45.082
			L643.678,45.082z"/>
	</g>
</g>
</svg>
