<?xml version="1.0" encoding="utf-8"?>
<!-- Generator: Adobe Illustrator 16.0.0, SVG Export Plug-In . SVG Version: 6.00 Build 0)  -->
<!DOCTYPE svg PUBLIC "-//W3C//DTD SVG 1.1//EN" "http://www.w3.org/Graphics/SVG/1.1/DTD/svg11.dtd">
<svg version="1.1" id="Layer_1" xmlns="http://www.w3.org/2000/svg" xmlns:xlink="http://www.w3.org/1999/xlink" x="0px" y="0px"
	 width="67.958px" height="80.959px" viewBox="142.667 230.625 67.958 80.959"
	 enable-background="new 142.667 230.625 67.958 80.959" xml:space="preserve">
<g>
	<g>
		<g id="Lever_5_">
			<path fill="#EEEDED" stroke="#000000" stroke-width="1.08" stroke-miterlimit="10" d="M208.412,271.359
				c0-6.99-8.46-15.79-18.9-15.79v-3.11C199.952,252.458,208.412,260.939,208.412,271.359z"/>
			<path fill="#414141" stroke="#000000" stroke-width="1.08" stroke-miterlimit="10" d="M208.412,271.359
				c0,10.449-8.46,18.899-18.9,18.899v-3.069C199.952,287.189,208.412,278.378,208.412,271.359z"/>
			<path fill="#C9C9C9" stroke="#000000" stroke-width="1.08" stroke-miterlimit="10" d="M208.412,271.359
				c0-3.21-8.46-8.931-18.9-8.931v-6.859C199.952,255.569,208.412,264.369,208.412,271.359z"/>
			<path fill="#5D5D5D" stroke="#000000" stroke-width="1.08" stroke-miterlimit="10" d="M208.412,271.359
				c0,7.02-8.46,15.83-18.9,15.83v-6.86C199.952,280.329,208.412,274.598,208.412,271.359z"/>
			<path fill="#B7B7B7" stroke="#000000" stroke-width="1.08" stroke-miterlimit="10" d="M208.412,271.359
				c0-1.74-8.46-3.48-18.9-3.48v-5.45C199.952,262.428,208.412,268.149,208.412,271.359z"/>
			<path fill="#6B6B6B" stroke="#000000" stroke-width="1.08" stroke-miterlimit="10" d="M208.412,271.359
				c0,3.239-8.46,8.97-18.9,8.97v-5.45C199.952,274.878,208.412,273.119,208.412,271.359z"/>
			<path fill="#4B4B4B" stroke="#000000" stroke-width="1.08" stroke-miterlimit="10" d="M208.412,271.359h-18.9v-3.48
				C199.952,267.878,208.412,269.619,208.412,271.359z"/>
			<path fill="#9A9A9A" stroke="#000000" stroke-width="1.08" stroke-miterlimit="10" d="M208.412,271.359
				c0,1.76-8.46,3.52-18.9,3.52v-3.52H208.412z"/>
		</g>
	</g>
</g>
</svg>
