<?xml version="1.0" encoding="utf-8"?>
<!-- Generator: Adobe Illustrator 16.0.0, SVG Export Plug-In . SVG Version: 6.00 Build 0)  -->
<!DOCTYPE svg PUBLIC "-//W3C//DTD SVG 1.1//EN" "http://www.w3.org/Graphics/SVG/1.1/DTD/svg11.dtd">
<svg version="1.1" id="Layer_1" xmlns="http://www.w3.org/2000/svg" xmlns:xlink="http://www.w3.org/1999/xlink" x="0px" y="0px"
	 width="104.582px" height="414.917px" viewBox="285.333 0 104.582 414.917" enable-background="new 285.333 0 104.582 414.917"
	 xml:space="preserve">
<linearGradient id="SVGID_1_" gradientUnits="userSpaceOnUse" x1="517.3188" y1="45.9287" x2="484.6207" y2="-236.1217" gradientTransform="matrix(1 0 0 -1 -169.5996 123.0166)">
	<stop  offset="0" style="stop-color:#919191"/>
	<stop  offset="0.551" style="stop-color:#3F3F3F"/>
	<stop  offset="1" style="stop-color:#000000"/>
</linearGradient>
<path opacity="0.5" fill="url(#SVGID_1_)" enable-background="new    " d="M359.473,76.996L324.75,346.805l-0.891,6.508
	c0,2.375-3.834,4.291-8.533,4.291c-4.726,0-8.559-1.916-8.559-4.291c0-0.162,0.027-0.297,0.054-0.434l0.675-6.074l28.622-270.944
	c0.217,0.082,0.432,0.162,0.674,0.217c0.055,0.054,0.136,0.082,0.217,0.082c0.514,0.188,1.026,0.376,1.538,0.512
	c0.514,0.163,1.025,0.297,1.566,0.404c0.54,0.189,1.107,0.298,1.7,0.404c1.729,0.38,3.538,0.621,5.373,0.73
	c0.081,0.027,0.135,0.027,0.217,0.027c0.243,0.026,0.513,0.026,0.782,0.026h0.324c1.107,0.054,2.215,0.028,3.322-0.054
	c0.565-0.027,1.104-0.055,1.645-0.135c0.271,0,0.541-0.028,0.783-0.081c0.271-0.026,0.541-0.054,0.783-0.108
	c0.024,0.027,0.055,0,0.082,0c0.242-0.026,0.51-0.055,0.756-0.108c0.08,0,0.136-0.026,0.217-0.054
	c0.322-0.053,0.646-0.107,0.971-0.162C357.876,77.402,358.689,77.21,359.473,76.996z"/>
</svg>
